<?xml version="1.0" encoding="UTF-8" standalone="no"?>
<svg
   xmlns:dc="http://purl.org/dc/elements/1.1/"
   xmlns:cc="http://creativecommons.org/ns#"
   xmlns:rdf="http://www.w3.org/1999/02/22-rdf-syntax-ns#"
   xmlns:svg="http://www.w3.org/2000/svg"
   xmlns="http://www.w3.org/2000/svg"
   xmlns:sodipodi="http://sodipodi.sourceforge.net/DTD/sodipodi-0.dtd"
   xmlns:inkscape="http://www.inkscape.org/namespaces/inkscape"
   width="42.632889mm"
   height="38.749336mm"
   viewBox="0 0 42.632889 38.749336"
   version="1.1"
   id="svg8"
   inkscape:version="1.0.1 (3bc2e813f5, 2020-09-07)"
   sodipodi:docname="ALU.svg">
  <defs
     id="defs2">
    <marker
       style="overflow:visible"
       id="marker1194"
       refX="0"
       refY="0"
       orient="auto"
       inkscape:stockid="Arrow2Mend"
       inkscape:isstock="true">
      <path
         transform="scale(-0.6)"
         d="M 8.7185878,4.0337352 -2.2072895,0.01601326 8.7185884,-4.0017078 c -1.7454984,2.3720609 -1.7354408,5.6174519 -6e-7,8.035443 z"
         style="fill:#000000;fill-opacity:1;fill-rule:evenodd;stroke:#000000;stroke-width:0.625;stroke-linejoin:round;stroke-opacity:1"
         id="path1192" />
    </marker>
    <marker
       style="overflow:visible"
       id="Arrow2Mend"
       refX="0"
       refY="0"
       orient="auto"
       inkscape:stockid="Arrow2Mend"
       inkscape:isstock="true"
       inkscape:collect="always">
      <path
         transform="scale(-0.6)"
         d="M 8.7185878,4.0337352 -2.2072895,0.01601326 8.7185884,-4.0017078 c -1.7454984,2.3720609 -1.7354408,5.6174519 -6e-7,8.035443 z"
         style="fill:#000000;fill-opacity:1;fill-rule:evenodd;stroke:#000000;stroke-width:0.625;stroke-linejoin:round;stroke-opacity:1"
         id="path921" />
    </marker>
    <marker
       style="overflow:visible"
       id="Arrow1Mend"
       refX="0"
       refY="0"
       orient="auto"
       inkscape:stockid="Arrow1Mend"
       inkscape:isstock="true">
      <path
         transform="matrix(-0.4,0,0,-0.4,-4,0)"
         style="fill:#000000;fill-opacity:1;fill-rule:evenodd;stroke:#000000;stroke-width:1pt;stroke-opacity:1"
         d="M 0,0 5,-5 -12.5,0 5,5 Z"
         id="path903" />
    </marker>
  </defs>
  <sodipodi:namedview
     id="base"
     pagecolor="#ffffff"
     bordercolor="#666666"
     borderopacity="1.0"
     inkscape:pageopacity="0.0"
     inkscape:pageshadow="2"
     inkscape:zoom="2.8"
     inkscape:cx="46.035115"
     inkscape:cy="70.38335"
     inkscape:document-units="mm"
     inkscape:current-layer="layer1"
     inkscape:document-rotation="0"
     showgrid="false"
     fit-margin-top="0"
     fit-margin-left="0"
     fit-margin-right="0"
     fit-margin-bottom="0"
     inkscape:window-width="1920"
     inkscape:window-height="1137"
     inkscape:window-x="-8"
     inkscape:window-y="-8"
     inkscape:window-maximized="1" />
  <metadata
     id="metadata5">
    <rdf:RDF>
      <cc:Work
         rdf:about="">
        <dc:format>image/svg+xml</dc:format>
        <dc:type
           rdf:resource="http://purl.org/dc/dcmitype/StillImage" />
        <dc:title></dc:title>
      </cc:Work>
    </rdf:RDF>
  </metadata>
  <g
     inkscape:label="Layer 1"
     inkscape:groupmode="layer"
     id="layer1"
     transform="translate(-18.659933,-8.6632202)">
    <path
       id="path852"
       style="fill:none;stroke:#000000;stroke-width:0.25;stroke-linecap:butt;stroke-linejoin:miter;stroke-miterlimit:4;stroke-dasharray:none;stroke-opacity:1"
       d="M 61.167822,47.293092 30.879941,37.967429 30.846259,27.797536 M 61.167822,18.461503 30.846253,27.797536 M 61.167822,47.293092 V 34.868477 l -7.516195,-1.991179 m 7.516195,-14.415795 v 12.547226 l -7.516195,1.868569"
       sodipodi:nodetypes="ccccccccccc" />
    <text
       xml:space="preserve"
       style="font-size:4.9389px;line-height:1.25;font-family:'Latin Modern Roman';-inkscape-font-specification:'Latin Modern Roman, ';stroke-width:0.264583"
       x="24.993675"
       y="12.520462"
       id="text858"><tspan
         sodipodi:role="line"
         id="tspan856"
         x="24.993675"
         y="12.520462"
         style="stroke-width:0.264583" /></text>
    <text
       xml:space="preserve"
       style="font-size:4.9389px;line-height:1.25;font-family:'Latin Modern Roman';-inkscape-font-specification:'Latin Modern Roman, ';stroke-width:0.264583"
       x="24.190477"
       y="12.992931"
       id="text862"><tspan
         sodipodi:role="line"
         id="tspan860"
         x="24.190477"
         y="12.992931"
         style="stroke-width:0.264583" /></text>
    <g
       aria-label="P"
       id="text866"
       style="font-size:3.52777px;line-height:1.25;font-family:'Latin Modern Roman';-inkscape-font-specification:'Latin Modern Roman, ';stroke-width:0.264583">
      <path
         d="m 60.126179,23.807337 c 0,-0.345722 -0.349249,-0.656166 -0.832554,-0.656166 h -1.245303 v 0.109361 h 0.08467 c 0.271638,0 0.278694,0.03881 0.278694,0.165806 v 1.859134 c 0,0.127 -0.0071,0.165806 -0.278694,0.165806 h -0.08467 v 0.10936 c 0.123472,-0.01058 0.384527,-0.01058 0.518583,-0.01058 0.134055,0 0.398638,0 0.52211,0.01058 v -0.10936 h -0.08467 c -0.271638,0 -0.278694,-0.03881 -0.278694,-0.165806 v -0.839609 h 0.596193 c 0.423333,0 0.804332,-0.285749 0.804332,-0.638526 z m -0.36336,0 c 0,0.165805 0,0.546804 -0.560916,0.546804 h -0.486832 v -0.952498 c 0,-0.116416 0.0071,-0.141111 0.172861,-0.141111 h 0.313971 c 0.560916,0 0.560916,0.373944 0.560916,0.546805 z"
         style="stroke-width:0.264583"
         id="path1351" />
    </g>
    <g
       aria-label="Q"
       id="text870"
       style="font-size:3.52777px;line-height:1.25;font-family:'Latin Modern Roman';-inkscape-font-specification:'Latin Modern Roman, ';stroke-width:0.264583">
      <path
         d="m 60.064315,41.990634 c 0,-0.03528 0,-0.07408 -0.03881,-0.07408 -0.03175,0 -0.03528,0.02822 -0.03881,0.0635 -0.02117,0.1905 -0.169333,0.296333 -0.321027,0.296333 -0.165805,0 -0.253999,-0.119945 -0.338666,-0.345722 0.416277,-0.186972 0.716137,-0.638526 0.716137,-1.171219 0,-0.719666 -0.532693,-1.291164 -1.174747,-1.291164 -0.631471,0 -1.17122,0.564443 -1.17122,1.291164 0,0.712609 0.532694,1.273525 1.174748,1.273525 0.109361,0 0.232833,-0.02117 0.335138,-0.05292 0.05292,0.335138 0.102305,0.659693 0.430388,0.659693 0.359832,0 0.42686,-0.469193 0.42686,-0.64911 z m -0.373944,-1.231191 c 0,0.275166 -0.04233,0.772581 -0.416277,1.047747 -0.07761,-0.197555 -0.190499,-0.373943 -0.398638,-0.373943 -0.179916,0 -0.289277,0.151694 -0.289277,0.296332 0,0.09525 0.04586,0.162278 0.04939,0.169333 -0.190499,-0.07056 -0.58561,-0.328082 -0.58561,-1.139469 0,-0.917221 0.493888,-1.20297 0.818443,-1.20297 0.342194,0 0.82197,0.303388 0.82197,1.20297 z m -0.507999,1.104192 c -0.119944,0.06703 -0.232832,0.08114 -0.310443,0.08114 -0.179917,0 -0.208139,-0.162277 -0.208139,-0.215194 0,-0.102305 0.07408,-0.218721 0.211666,-0.218721 0.1905,0 0.268111,0.148166 0.306916,0.352777 z"
         style="stroke-width:0.264583"
         id="path1354" />
    </g>
    <g
       aria-label="Z"
       id="text874"
       style="font-size:3.52777px;line-height:1.25;font-family:'Latin Modern Roman';-inkscape-font-specification:'Latin Modern Roman, ';stroke-width:0.264583">
      <path
         d="m 33.725551,30.430108 h -0.08819 c -0.02822,0.49036 -0.09525,0.82197 -0.747887,0.82197 h -0.578555 l 1.368775,-2.16605 c 0.0247,-0.03881 0.0247,-0.04233 0.0247,-0.06703 0,-0.05644 -0.02117,-0.05644 -0.09172,-0.05644 h -1.580441 l -0.03881,0.793748 h 0.08819 c 0.0247,-0.398638 0.130528,-0.684387 0.709082,-0.684387 h 0.55386 l -1.372302,2.169578 c -0.02469,0.03881 -0.02469,0.04233 -0.02469,0.07056 0,0.05997 0.01764,0.05997 0.09172,0.05997 h 1.626302 z"
         style="stroke-width:0.264583"
         id="path1370" />
    </g>
    <g
       aria-label="F(P,Q)"
       id="text878"
       style="font-size:3.52777px;line-height:1.25;font-family:'Latin Modern Roman';-inkscape-font-specification:'Latin Modern Roman, ';stroke-width:0.264583">
      <path
         d="M 33.996434,35.011308 33.897656,34.21756 H 31.96091 v 0.109361 h 0.08467 c 0.271638,0 0.278694,0.03881 0.278694,0.165805 v 1.848552 c 0,0.126999 -0.0071,0.165805 -0.278694,0.165805 h -0.08467 v 0.109361 c 0.123472,-0.01058 0.398638,-0.01058 0.536221,-0.01058 0.144639,0 0.465666,0 0.592666,0.01058 V 36.507083 H 32.97338 c -0.335138,0 -0.335138,-0.04586 -0.335138,-0.169333 v -0.867832 h 0.303388 c 0.338666,0 0.373944,0.112889 0.373944,0.412749 h 0.08819 v -0.934859 h -0.08819 c 0,0.296333 -0.03528,0.412749 -0.373944,0.412749 h -0.303388 v -0.892525 c 0,-0.116417 0.0071,-0.141111 0.172861,-0.141111 h 0.423332 c 0.529166,0 0.61736,0.197555 0.673804,0.684387 z"
         style="stroke-width:0.264583"
         id="path1357" />
      <path
         d="m 35.315819,37.463108 c 0,-0.01058 0,-0.01764 -0.05997,-0.07761 -0.440971,-0.4445 -0.55386,-1.111248 -0.55386,-1.650997 0,-0.613832 0.134055,-1.227664 0.567971,-1.668635 0.04586,-0.04233 0.04586,-0.04939 0.04586,-0.05997 0,-0.0247 -0.01411,-0.03528 -0.03528,-0.03528 -0.03528,0 -0.352778,0.239888 -0.560916,0.687915 -0.179916,0.388055 -0.222249,0.779637 -0.222249,1.07597 0,0.275166 0.0388,0.702026 0.232832,1.100664 0.211667,0.433916 0.515055,0.663221 0.550333,0.663221 0.02117,0 0.03528,-0.01058 0.03528,-0.03528 z"
         style="stroke-width:0.264583"
         id="path1359" />
      <path
         d="m 37.721758,34.863142 c 0,-0.345722 -0.349249,-0.656165 -0.832554,-0.656165 h -1.245302 v 0.109361 h 0.08467 c 0.271638,0 0.278694,0.0388 0.278694,0.165805 v 1.859135 c 0,0.126999 -0.0071,0.165805 -0.278694,0.165805 h -0.08467 v 0.109361 c 0.123472,-0.01058 0.384526,-0.01058 0.518582,-0.01058 0.134055,0 0.398638,0 0.52211,0.01058 v -0.109361 h -0.08467 c -0.271638,0 -0.278694,-0.03881 -0.278694,-0.165805 v -0.83961 h 0.596194 c 0.423332,0 0.804331,-0.285749 0.804331,-0.638526 z m -0.36336,0 c 0,0.165805 0,0.546804 -0.560916,0.546804 H 36.31065 v -0.952498 c 0,-0.116416 0.0071,-0.14111 0.172861,-0.14111 h 0.313971 c 0.560916,0 0.560916,0.373943 0.560916,0.546804 z"
         style="stroke-width:0.264583"
         id="path1361" />
      <path
         d="m 38.346172,36.612916 c 0,-0.225777 -0.08467,-0.370416 -0.225778,-0.370416 -0.123471,0 -0.186971,0.09525 -0.186971,0.186972 0,0.09172 0.05997,0.186972 0.186971,0.186972 0.05292,0 0.102306,-0.02117 0.141111,-0.05645 0.0071,0.278694 -0.09172,0.493888 -0.246944,0.659693 -0.02117,0.02117 -0.02469,0.0247 -0.02469,0.03881 0,0.02469 0.01764,0.0388 0.03528,0.0388 0.04233,0 0.321027,-0.278694 0.321027,-0.684387 z"
         style="stroke-width:0.264583"
         id="path1363" />
      <path
         d="m 41.175443,36.651721 c 0,-0.03528 0,-0.07408 -0.03881,-0.07408 -0.03175,0 -0.03528,0.02822 -0.03881,0.0635 -0.02117,0.1905 -0.169333,0.296333 -0.321027,0.296333 -0.165805,0 -0.253999,-0.119944 -0.338666,-0.345722 0.416277,-0.186972 0.716138,-0.638526 0.716138,-1.171219 0,-0.719665 -0.532694,-1.291164 -1.174748,-1.291164 -0.631471,0 -1.171219,0.564443 -1.171219,1.291164 0,0.712609 0.532693,1.273525 1.174747,1.273525 0.109361,0 0.232833,-0.02117 0.335138,-0.05292 0.05292,0.335138 0.102306,0.659693 0.430388,0.659693 0.359833,0 0.42686,-0.469193 0.42686,-0.64911 z M 40.8015,35.42053 c 0,0.275166 -0.04233,0.772581 -0.416277,1.047747 -0.07761,-0.197555 -0.1905,-0.373943 -0.398638,-0.373943 -0.179916,0 -0.289277,0.151694 -0.289277,0.296332 0,0.09525 0.04586,0.162278 0.04939,0.169333 -0.190499,-0.07055 -0.585609,-0.328082 -0.585609,-1.139469 0,-0.917221 0.493887,-1.20297 0.818442,-1.20297 0.342194,0 0.821971,0.303388 0.821971,1.20297 z m -0.507999,1.104192 c -0.119944,0.06703 -0.232833,0.08114 -0.310444,0.08114 -0.179916,0 -0.208138,-0.162277 -0.208138,-0.215194 0,-0.102305 0.07408,-0.218721 0.211666,-0.218721 0.190499,0 0.26811,0.148166 0.306916,0.352777 z"
         style="stroke-width:0.264583"
         id="path1365" />
      <path
         d="m 42.374885,35.734501 c 0,-0.275166 -0.03881,-0.702026 -0.232833,-1.100664 -0.211666,-0.433916 -0.515055,-0.663221 -0.550332,-0.663221 -0.02117,0 -0.03528,0.01411 -0.03528,0.03528 0,0.01058 0,0.01764 0.06703,0.08114 0.345721,0.349249 0.546804,0.910164 0.546804,1.647468 0,0.603249 -0.130528,1.224136 -0.567971,1.668635 -0.04586,0.04233 -0.04586,0.04939 -0.04586,0.05997 0,0.02117 0.01411,0.03528 0.03528,0.03528 0.03528,0 0.352777,-0.239888 0.560915,-0.687915 0.179916,-0.388055 0.22225,-0.779637 0.22225,-1.07597 z"
         style="stroke-width:0.264583"
         id="path1367" />
    </g>
    <g
       aria-label="F1"
       id="text882"
       style="font-size:3.52777px;line-height:1.25;font-family:'Latin Modern Roman';-inkscape-font-specification:'Latin Modern Roman, ';stroke-width:0.264583">
      <path
         d="m 42.926121,26.365102 -0.09878,-0.793748 h -1.936746 v 0.109361 h 0.08467 c 0.271639,0 0.278694,0.0388 0.278694,0.165805 v 1.848552 c 0,0.126999 -0.0071,0.165805 -0.278694,0.165805 h -0.08467 v 0.109361 c 0.123472,-0.01058 0.398638,-0.01058 0.536221,-0.01058 0.144638,0 0.465665,0 0.592665,0.01058 v -0.109361 h -0.116416 c -0.335138,0 -0.335138,-0.04586 -0.335138,-0.169333 v -0.867832 h 0.303388 c 0.338666,0 0.373943,0.112889 0.373943,0.41275 h 0.08819 v -0.934859 h -0.08819 c 0,0.296332 -0.03528,0.412749 -0.373943,0.412749 H 41.56793 v -0.892526 c 0,-0.116417 0.0071,-0.141111 0.17286,-0.141111 h 0.423333 c 0.529165,0 0.61736,0.197555 0.673804,0.684387 z"
         style="stroke-width:0.264583"
         id="path1346" />
      <path
         d="m 44.038603,28.675792 v -0.07109 h -0.07338 c -0.206374,0 -0.213253,-0.02522 -0.213253,-0.110066 v -1.286402 c 0,-0.05503 0,-0.05962 -0.05274,-0.05962 -0.14217,0.146755 -0.343958,0.146755 -0.417336,0.146755 v 0.07109 c 0.04586,0 0.181151,0 0.30039,-0.05962 v 1.1878 c 0,0.08255 -0.0069,0.110066 -0.213254,0.110066 h -0.07338 v 0.07109 c 0.08026,-0.0069 0.279752,-0.0069 0.371474,-0.0069 0.09172,0 0.291217,0 0.371474,0.0069 z"
         style="font-size:65%;baseline-shift:sub"
         id="path1348" />
    </g>
    <g
       aria-label="F2"
       id="text886"
       style="font-size:3.52777px;line-height:1.25;font-family:'Latin Modern Roman';-inkscape-font-specification:'Latin Modern Roman, ';stroke-width:0.264583">
      <path
         d="m 50.20216,24.00275 -0.09878,-0.793748 h -1.936746 v 0.109361 h 0.08467 c 0.271639,0 0.278694,0.0388 0.278694,0.165805 v 1.848551 c 0,0.127 -0.0071,0.165805 -0.278694,0.165805 h -0.08467 v 0.109361 c 0.123472,-0.01058 0.398638,-0.01058 0.536221,-0.01058 0.144639,0 0.465666,0 0.592665,0.01058 v -0.109361 h -0.116416 c -0.335138,0 -0.335138,-0.04586 -0.335138,-0.169332 V 24.46136 h 0.303388 c 0.338666,0 0.373944,0.112889 0.373944,0.412749 h 0.08819 V 23.93925 h -0.08819 c 0,0.296333 -0.03528,0.412749 -0.373944,0.412749 h -0.303388 v -0.892526 c 0,-0.116416 0.0071,-0.14111 0.17286,-0.14111 h 0.423333 c 0.529165,0 0.61736,0.197555 0.673804,0.684387 z"
         style="stroke-width:0.264583"
         id="path1288" />
      <path
         d="m 51.383434,25.914449 h -0.05733 c -0.01147,0.06879 -0.02752,0.169685 -0.05045,0.204081 -0.01605,0.01834 -0.167392,0.01834 -0.21784,0.01834 h -0.412749 l 0.243064,-0.236184 c 0.357716,-0.316441 0.495299,-0.440265 0.495299,-0.66957 0,-0.261408 -0.206375,-0.444852 -0.486127,-0.444852 -0.259115,0 -0.428801,0.21096 -0.428801,0.415042 0,0.128411 0.114653,0.128411 0.121532,0.128411 0.03898,0 0.119239,-0.02752 0.119239,-0.121532 0,-0.05962 -0.04127,-0.119239 -0.121532,-0.119239 -0.01834,0 -0.02293,0 -0.02981,0.0023 0.05274,-0.149048 0.176565,-0.233891 0.309562,-0.233891 0.208668,0 0.307269,0.185737 0.307269,0.373768 0,0.183444 -0.114652,0.364595 -0.24077,0.506764 l -0.440266,0.490712 c -0.02522,0.02522 -0.02522,0.02981 -0.02522,0.08484 h 0.850722 z"
         style="font-size:65%;baseline-shift:sub"
         id="path1290" />
    </g>
    <path
       style="fill:none;stroke:#000000;stroke-width:0.264583px;stroke-linecap:butt;stroke-linejoin:miter;stroke-opacity:1;marker-end:url(#Arrow2Mend)"
       d="m 41.860863,16.961682 v 7.181547"
       id="path892"
       sodipodi:nodetypes="cc" />
    <path
       style="fill:none;stroke:#000000;stroke-width:0.264583px;stroke-linecap:butt;stroke-linejoin:miter;stroke-opacity:1;marker-end:url(#marker1194)"
       d="m 48.806174,17.056176 v 4.960937"
       id="path1190"
       sodipodi:nodetypes="cc" />
    <text
       xml:space="preserve"
       style="font-size:3.52777px;line-height:1.25;font-family:'Latin Modern Roman';-inkscape-font-specification:'Latin Modern Roman, ';stroke-width:0.264583"
       x="7.9512682"
       y="6.1471992"
       id="text1240"><tspan
         sodipodi:role="line"
         id="tspan1238"
         x="7.9512682"
         y="6.1471992"
         style="stroke-width:0.264583" /></text>
    <g
       aria-label="Function Select
Control Lines"
       id="text1262"
       style="font-size:3.52777px;line-height:1.25;font-family:'Latin Modern Roman';-inkscape-font-specification:'Latin Modern Roman, ';stroke-width:0.264583">
      <path
         d="m 35.651385,9.4675518 0.08114,-0.6244153 c 0.01058,-0.091722 -0.01058,-0.091722 -0.08467,-0.091722 h -1.605136 c -0.05997,0 -0.09525,0 -0.09525,0.0635 0,0.045861 0.0247,0.045861 0.09525,0.045861 0.204611,0 0.204611,0.028222 0.204611,0.059972 0,0 0,0.028222 -0.01411,0.081139 l -0.472721,1.8908845 c -0.02822,0.119944 -0.04939,0.148166 -0.289278,0.148166 -0.05644,0 -0.09525,0 -0.09525,0.06703 0,0.04233 0.03881,0.04233 0.04939,0.04233 0.141111,0 0.289278,-0.01058 0.430388,-0.01058 0.162278,0 0.328083,0.01058 0.486833,0.01058 0.03175,0 0.07408,0 0.07408,-0.06703 0,-0.04233 -0.03175,-0.04233 -0.08819,-0.04233 h -0.03528 c -0.257527,0 -0.257527,-0.02822 -0.257527,-0.07408 0,-0.01411 0,-0.02117 0.01411,-0.07408 l 0.222249,-0.888998 h 0.292805 c 0.229305,0 0.261055,0.05292 0.261055,0.148166 0,0.05997 -0.01411,0.116417 -0.02822,0.172861 -0.0071,0.02469 -0.01058,0.0388 -0.01058,0.04939 0,0.04233 0.03881,0.04233 0.05292,0.04233 0.03881,0 0.04939,-0.0035 0.06703,-0.07056 l 0.194027,-0.7761096 c 0.0035,-0.014111 0.0071,-0.03175 0.0071,-0.049389 0,-0.038806 -0.04233,-0.038806 -0.05292,-0.038806 -0.04586,0 -0.04939,0.010583 -0.06703,0.074083 -0.0635,0.2504716 -0.119945,0.3386659 -0.41275,0.3386659 h -0.275166 l 0.225778,-0.9136925 c 0.02822,-0.1164164 0.05292,-0.1199441 0.169333,-0.1199441 h 0.412749 c 0.377471,0 0.455082,0.1093608 0.455082,0.352777 0,0.084666 -0.01058,0.1516941 -0.02117,0.2328328 l -0.0035,0.056444 c 0,0.042333 0.03881,0.042333 0.05292,0.042333 0.04939,0 0.05292,-0.014111 0.05997,-0.077611 z"
         style="font-style:italic;font-variant:normal;font-weight:normal;font-stretch:normal;font-family:'Latin Modern Roman';-inkscape-font-specification:'Latin Modern Roman,  Italic';text-align:center;text-anchor:middle;stroke-width:0.264583"
         id="path1293" />
      <path
         d="m 37.16832,10.645827 c 0,-0.03528 -0.02822,-0.03528 -0.05292,-0.03528 -0.04233,0 -0.04586,0.0035 -0.06703,0.08114 -0.04939,0.197555 -0.116416,0.419805 -0.23636,0.419805 -0.09172,0 -0.09172,-0.09525 -0.09172,-0.144639 0,-0.02469 0,-0.08114 0.02469,-0.179916 L 36.998987,9.77094 c 0.0071,-0.021167 0.01058,-0.038805 0.01058,-0.049389 0,-0.038806 -0.02822,-0.091722 -0.09878,-0.091722 -0.105833,0 -0.130527,0.1023054 -0.137583,0.1305275 l -0.257527,1.0301095 c -0.01764,0.0635 -0.01764,0.07055 -0.04939,0.116416 -0.06703,0.09878 -0.169333,0.204611 -0.324555,0.204611 -0.158749,0 -0.190499,-0.155222 -0.190499,-0.271639 0,-0.215194 0.116416,-0.532693 0.20461,-0.772581 0.02822,-0.074084 0.04586,-0.1234724 0.04586,-0.1905001 0,-0.1763885 -0.116416,-0.2857493 -0.26811,-0.2857493 -0.328083,0 -0.451555,0.5221104 -0.451555,0.5432764 0,0.03528 0.03528,0.03528 0.05292,0.03528 0.04586,0 0.04939,-0.0071 0.0635,-0.05644 0.02822,-0.109361 0.123472,-0.4444995 0.328082,-0.4444995 0.03881,0 0.07761,0.010583 0.07761,0.1023053 0,0.084667 -0.03528,0.1799163 -0.08467,0.3174992 -0.09172,0.246944 -0.183444,0.507999 -0.183444,0.691443 0,0.306916 0.20461,0.409222 0.39511,0.409222 0.186972,0 0.306916,-0.105834 0.391583,-0.211667 0.0635,0.1905 0.215194,0.211667 0.282221,0.211667 0.130528,0 0.204611,-0.0882 0.257527,-0.197556 0.0635,-0.134055 0.105833,-0.345721 0.105833,-0.345721 z"
         style="font-style:italic;font-variant:normal;font-weight:normal;font-stretch:normal;font-family:'Latin Modern Roman';-inkscape-font-specification:'Latin Modern Roman,  Italic';text-align:center;text-anchor:middle;stroke-width:0.264583"
         id="path1295" />
      <path
         d="m 39.150923,10.645827 c 0,-0.03528 -0.02822,-0.03528 -0.05292,-0.03528 -0.04586,0 -0.04586,0.0071 -0.05997,0.05997 -0.02822,0.09525 -0.123472,0.440972 -0.328082,0.440972 -0.07408,0 -0.07761,-0.05292 -0.07761,-0.102306 0,-0.08819 0.03528,-0.179916 0.0635,-0.264582 0.07055,-0.186972 0.215194,-0.582082 0.215194,-0.7866932 0,-0.2892771 -0.194028,-0.366888 -0.366889,-0.366888 -0.289277,0 -0.45861,0.2116662 -0.504471,0.2786938 -0.02469,-0.1728607 -0.144638,-0.2786938 -0.296332,-0.2786938 -0.127,0 -0.197555,0.081139 -0.254,0.1869718 -0.06703,0.1411108 -0.112888,0.3563044 -0.112888,0.3563044 0,0.03528 0.03528,0.03528 0.05292,0.03528 0.04586,0 0.04939,-0.0035 0.06703,-0.08114 0.0635,-0.2469436 0.130527,-0.4198043 0.239888,-0.4198043 0.09172,0 0.09172,0.1023053 0.09172,0.1411108 0,0.056444 -0.01058,0.123472 -0.02469,0.1799163 L 37.53874,11.04799 c -0.0071,0.02117 -0.01058,0.0388 -0.01058,0.04939 0,0.0388 0.02822,0.09172 0.09878,0.09172 0.04233,0 0.102306,-0.0247 0.127,-0.09172 l 0.141111,-0.564444 c 0.01764,-0.07761 0.0388,-0.151694 0.05644,-0.229305 0.04586,-0.179916 0.04586,-0.183444 0.105833,-0.285749 0.04939,-0.084667 0.208139,-0.3492493 0.476249,-0.3492493 0.155222,0 0.162278,0.1587497 0.162278,0.2328328 0,0.2187215 -0.155222,0.6385265 -0.204611,0.7796375 -0.04586,0.119944 -0.05644,0.151694 -0.05644,0.225777 0,0.155222 0.09878,0.282222 0.26811,0.282222 0.328083,0 0.448027,-0.525638 0.448027,-0.543277 z"
         style="font-style:italic;font-variant:normal;font-weight:normal;font-stretch:normal;font-family:'Latin Modern Roman';-inkscape-font-specification:'Latin Modern Roman,  Italic';text-align:center;text-anchor:middle;stroke-width:0.264583"
         id="path1297" />
      <path
         d="m 40.717247,10.78341 c 0,-0.01764 -0.02822,-0.05644 -0.05645,-0.05644 -0.01411,0 -0.01764,0.0035 -0.04586,0.03881 -0.261055,0.331611 -0.575026,0.345722 -0.634998,0.345722 -0.1905,0 -0.278694,-0.15875 -0.278694,-0.363361 0,-0.186971 0.09525,-0.557387 0.186972,-0.72672 0.127,-0.2293053 0.303388,-0.3527773 0.462138,-0.3527773 0.03881,0 0.197555,0.00706 0.250471,0.1516941 -0.176388,0.021167 -0.176388,0.1728607 -0.176388,0.1728607 0,0.056444 0.03881,0.1128885 0.119944,0.1128885 0.09525,0 0.179916,-0.07761 0.179916,-0.211666 0,-0.1728607 -0.151694,-0.3033882 -0.377471,-0.3033882 -0.437444,0 -0.892526,0.5009432 -0.892526,1.0159982 0,0.349249 0.208139,0.582082 0.518582,0.582082 0.451555,0 0.74436,-0.352777 0.74436,-0.405694 z"
         style="font-style:italic;font-variant:normal;font-weight:normal;font-stretch:normal;font-family:'Latin Modern Roman';-inkscape-font-specification:'Latin Modern Roman,  Italic';text-align:center;text-anchor:middle;stroke-width:0.264583"
         id="path1299" />
      <path
         d="m 41.944908,10.645827 c 0,-0.03528 -0.02822,-0.03528 -0.05292,-0.03528 -0.04233,0 -0.04233,0.0035 -0.07055,0.06703 -0.0635,0.169333 -0.204611,0.433916 -0.405694,0.433916 -0.09525,0 -0.09525,-0.08819 -0.09525,-0.144639 0,-0.02469 0,-0.08114 0.0247,-0.179916 l 0.261055,-1.0477479 h 0.29986 c 0.05997,0 0.09878,0 0.09878,-0.067028 0,-0.042333 -0.03175,-0.042333 -0.08819,-0.042333 h -0.282222 l 0.130527,-0.5221099 c 0.01411,-0.049389 0.01411,-0.056444 0.01411,-0.074083 0,-0.074083 -0.05997,-0.091722 -0.09525,-0.091722 -0.08819,0 -0.123472,0.074083 -0.137583,0.1269997 l -0.137583,0.5609154 h -0.299861 c -0.05997,0 -0.09878,0 -0.09878,0.067028 0,0.042333 0.03175,0.042333 0.08819,0.042333 h 0.282222 l -0.254,1.0124697 c -0.0035,0.01411 -0.01764,0.07056 -0.01764,0.119944 0,0.176389 0.116417,0.3175 0.299861,0.3175 0.356304,0 0.536221,-0.525638 0.536221,-0.543277 z"
         style="font-style:italic;font-variant:normal;font-weight:normal;font-stretch:normal;font-family:'Latin Modern Roman';-inkscape-font-specification:'Latin Modern Roman,  Italic';text-align:center;text-anchor:middle;stroke-width:0.264583"
         id="path1301" />
      <path
         d="m 43.02793,10.645827 c 0,-0.03528 -0.02822,-0.03528 -0.05292,-0.03528 -0.04586,0 -0.04586,0.0071 -0.05997,0.05997 -0.02822,0.102306 -0.123472,0.440972 -0.328083,0.440972 -0.02822,0 -0.07761,-0.0035 -0.07761,-0.09878 0,-0.09172 0.04586,-0.208138 0.09172,-0.338666 l 0.22578,-0.603243 c 0.03528,-0.1023048 0.04233,-0.130527 0.04233,-0.1975546 0,-0.1940274 -0.134055,-0.2822216 -0.264583,-0.2822216 -0.33161,0 -0.451554,0.5256372 -0.451554,0.5432762 0,0.03528 0.03528,0.03528 0.05292,0.03528 0.04586,0 0.04939,-0.0071 0.0635,-0.05644 0.03175,-0.1164167 0.123472,-0.4444993 0.328083,-0.4444993 0.03881,0 0.07761,0.017639 0.07761,0.098778 0,0.084666 -0.03881,0.1869718 -0.0635,0.2539993 l -0.105833,0.292805 -0.130528,0.349249 c -0.04939,0.134055 -0.0635,0.172861 -0.0635,0.243416 0,0.137583 0.08467,0.282222 0.268111,0.282222 0.33161,0 0.448027,-0.529166 0.448027,-0.543277 z m 0.09525,-1.6509964 c 0,-0.074083 -0.05292,-0.1516941 -0.158749,-0.1516941 -0.112889,0 -0.225778,0.1093609 -0.225778,0.2222495 0,0.077611 0.05644,0.1516941 0.15875,0.1516941 0.112889,0 0.225777,-0.1093608 0.225777,-0.2222495 z"
         style="font-style:italic;font-variant:normal;font-weight:normal;font-stretch:normal;font-family:'Latin Modern Roman';-inkscape-font-specification:'Latin Modern Roman,  Italic';text-align:center;text-anchor:middle;stroke-width:0.264583"
         id="path1303" />
      <path
         d="m 44.738895,10.169578 c 0,-0.3351381 -0.208139,-0.5785542 -0.515055,-0.5785542 -0.437443,0 -0.892526,0.5009432 -0.892526,1.0159982 0,0.36336 0.22225,0.582082 0.515055,0.582082 0.437443,0 0.892526,-0.500944 0.892526,-1.019526 z m -0.246944,-0.137583 c 0,0.151694 -0.07761,0.515054 -0.1905,0.726721 -0.102305,0.194027 -0.282221,0.352777 -0.455082,0.352777 -0.137583,0 -0.268111,-0.109361 -0.268111,-0.363361 0,-0.176388 0.09172,-0.567971 0.204611,-0.7584702 0.130528,-0.215194 0.29986,-0.3210271 0.437444,-0.3210271 0.17286,0 0.271638,0.1552219 0.271638,0.3633603 z"
         style="font-style:italic;font-variant:normal;font-weight:normal;font-stretch:normal;font-family:'Latin Modern Roman';-inkscape-font-specification:'Latin Modern Roman,  Italic';text-align:center;text-anchor:middle;stroke-width:0.264583"
         id="path1305" />
      <path
         d="m 46.813223,10.645827 c 0,-0.03528 -0.02822,-0.03528 -0.05292,-0.03528 -0.04586,0 -0.04586,0.0071 -0.05997,0.05997 -0.02822,0.09525 -0.123472,0.440972 -0.328083,0.440972 -0.07408,0 -0.07761,-0.05292 -0.07761,-0.102306 0,-0.08819 0.03528,-0.179916 0.0635,-0.264582 0.07056,-0.186972 0.215194,-0.582082 0.215194,-0.7866932 0,-0.2892771 -0.194027,-0.366888 -0.366888,-0.366888 -0.289277,0 -0.45861,0.2116662 -0.504471,0.2786938 -0.02469,-0.1728607 -0.144639,-0.2786938 -0.296333,-0.2786938 -0.126999,0 -0.197555,0.081139 -0.253999,0.1869718 -0.06703,0.1411108 -0.112889,0.3563044 -0.112889,0.3563044 0,0.03528 0.03528,0.03528 0.05292,0.03528 0.04586,0 0.04939,-0.0035 0.06703,-0.08114 0.0635,-0.2469436 0.130528,-0.4198043 0.239889,-0.4198043 0.09172,0 0.09172,0.1023053 0.09172,0.1411108 0,0.056444 -0.01058,0.123472 -0.0247,0.1799163 L 45.201031,11.04799 c -0.0071,0.02117 -0.01058,0.0388 -0.01058,0.04939 0,0.0388 0.02822,0.09172 0.09878,0.09172 0.04233,0 0.102305,-0.0247 0.127,-0.09172 l 0.14111,-0.564444 c 0.01764,-0.07761 0.03881,-0.151694 0.05645,-0.229305 0.04586,-0.179916 0.04586,-0.183444 0.105833,-0.285749 0.04939,-0.084667 0.208138,-0.3492493 0.476249,-0.3492493 0.155222,0 0.162277,0.1587497 0.162277,0.2328328 0,0.2187215 -0.155222,0.6385265 -0.20461,0.7796375 -0.04586,0.119944 -0.05645,0.151694 -0.05645,0.225777 0,0.155222 0.09878,0.282222 0.268111,0.282222 0.328082,0 0.448027,-0.525638 0.448027,-0.543277 z"
         style="font-style:italic;font-variant:normal;font-weight:normal;font-stretch:normal;font-family:'Latin Modern Roman';-inkscape-font-specification:'Latin Modern Roman,  Italic';text-align:center;text-anchor:middle;stroke-width:0.264583"
         id="path1307" />
      <path
         d="m 49.889431,10.310689 c 0,-0.102305 -0.02469,-0.246944 -0.116416,-0.3598327 -0.08819,-0.1093609 -0.130528,-0.1199442 -0.465666,-0.2187217 -0.06703,-0.017639 -0.176388,-0.049389 -0.194027,-0.056444 -0.119944,-0.052917 -0.179917,-0.1658052 -0.179917,-0.3104437 0,-0.2892772 0.271639,-0.6032487 0.571499,-0.6032487 0.331611,0 0.430388,0.2398884 0.430388,0.5009433 0,0.091722 -0.0035,0.1164165 -0.01764,0.1940274 l -0.0035,0.049389 c 0,0.035278 0.03528,0.035278 0.05292,0.035278 0.03881,0 0.04939,-0.00353 0.0635,-0.0635 l 0.183444,-0.7302484 c 0.0035,-0.014111 0.0071,-0.035278 0.0071,-0.049389 0,0 -0.0035,-0.035278 -0.03881,-0.035278 -0.01764,0 -0.02117,0.00353 -0.05292,0.042333 L 49.97057,8.9031086 C 49.832987,8.666748 49.582515,8.6632202 49.51196,8.6632202 c -0.433916,0 -0.818443,0.4339158 -0.818443,0.8396093 0,0.1834441 0.07761,0.3704159 0.282222,0.4656657 0.02117,0.010583 0.09878,0.03175 0.151694,0.045861 l 0.172861,0.04939 c 0.183444,0.05292 0.211666,0.0635 0.271638,0.127 0.03881,0.04939 0.07761,0.126999 0.07761,0.253999 0,0.321027 -0.275166,0.673804 -0.589138,0.673804 -0.264583,0 -0.529165,-0.127 -0.529165,-0.493888 0,-0.08114 0.01764,-0.176388 0.02822,-0.215194 l 0.0035,-0.02117 c 0,-0.03881 -0.03175,-0.03881 -0.05292,-0.03881 -0.04233,0 -0.04939,0.0071 -0.0635,0.05997 l -0.183444,0.737304 c -0.0071,0.02469 -0.01058,0.03528 -0.01058,0.04586 0,0.02117 0.01764,0.03528 0.0388,0.03528 0.0247,0 0.02822,-0.0071 0.05645,-0.04233 0.0388,-0.04233 0.130527,-0.155222 0.165805,-0.201083 0.130527,0.1905 0.356305,0.243416 0.539749,0.243416 0.444499,0 0.836081,-0.472721 0.836081,-0.91722 z"
         style="font-style:italic;font-variant:normal;font-weight:normal;font-stretch:normal;font-family:'Latin Modern Roman';-inkscape-font-specification:'Latin Modern Roman,  Italic';text-align:center;text-anchor:middle;stroke-width:0.264583"
         id="path1309" />
      <path
         d="m 51.625089,10.78341 c 0,-0.01764 -0.02822,-0.05644 -0.05644,-0.05644 -0.01411,0 -0.01764,0.0035 -0.04586,0.03881 -0.261055,0.331611 -0.575026,0.345722 -0.634999,0.345722 -0.229305,0 -0.26811,-0.250472 -0.26811,-0.388055 0,-0.134055 0.03528,-0.292805 0.05997,-0.388055 h 0.137583 c 0.105833,0 0.342194,-0.01058 0.511527,-0.07761 0.278694,-0.112888 0.278694,-0.3421934 0.278694,-0.3668878 0,-0.1622774 -0.130528,-0.2998604 -0.356305,-0.2998604 -0.370416,0 -0.874887,0.3563047 -0.874887,0.9807202 0,0.317499 0.169333,0.61736 0.504471,0.61736 0.451554,0 0.744359,-0.352777 0.744359,-0.405694 z M 51.473395,9.8838287 c 0,0.3739433 -0.582082,0.3739433 -0.698498,0.3739433 h -0.07408 c 0.151694,-0.578554 0.515054,-0.5891373 0.550332,-0.5891373 0.141111,0 0.222249,0.09525 0.222249,0.215194 z"
         style="font-style:italic;font-variant:normal;font-weight:normal;font-stretch:normal;font-family:'Latin Modern Roman';-inkscape-font-specification:'Latin Modern Roman,  Italic';text-align:center;text-anchor:middle;stroke-width:0.264583"
         id="path1311" />
      <path
         d="m 52.584639,10.645827 c 0,-0.03528 -0.02822,-0.03528 -0.05292,-0.03528 -0.01764,0 -0.03881,0 -0.04939,0.01764 l -0.0247,0.08819 c -0.05997,0.246944 -0.127,0.395111 -0.225777,0.395111 -0.09172,0 -0.09172,-0.09525 -0.09172,-0.144639 0,-0.02469 0,-0.07761 0.02117,-0.162277 L 52.665778,8.79022 c 0.0035,-0.010583 0.01058,-0.045861 0.01058,-0.045861 0,-0.03175 -0.02117,-0.042333 -0.04939,-0.042333 -0.01058,0 -0.04586,0.00353 -0.05644,0.00706 l -0.349249,0.028222 c -0.04233,0.00353 -0.08114,0.00706 -0.08114,0.074083 0,0.038805 0.03528,0.038805 0.08467,0.038805 0.169333,0 0.176389,0.024694 0.176389,0.059972 0,0.010583 -0.01058,0.059972 -0.01058,0.059972 l -0.440978,1.763881 c -0.0035,0.01411 -0.02117,0.08467 -0.02117,0.137583 0,0.186972 0.126999,0.3175 0.296332,0.3175 0.134056,0 0.204611,-0.09525 0.250472,-0.183444 0.05997,-0.123472 0.109361,-0.34925 0.109361,-0.359833 z"
         style="font-style:italic;font-variant:normal;font-weight:normal;font-stretch:normal;font-family:'Latin Modern Roman';-inkscape-font-specification:'Latin Modern Roman,  Italic';text-align:center;text-anchor:middle;stroke-width:0.264583"
         id="path1313" />
      <path
         d="m 54.150964,10.78341 c 0,-0.01764 -0.02822,-0.05644 -0.05644,-0.05644 -0.01411,0 -0.01764,0.0035 -0.04586,0.03881 -0.261055,0.331611 -0.575026,0.345722 -0.634998,0.345722 -0.229306,0 -0.268111,-0.250472 -0.268111,-0.388055 0,-0.134055 0.03528,-0.292805 0.05997,-0.388055 h 0.137583 c 0.105833,0 0.342194,-0.01058 0.511527,-0.07761 0.278694,-0.112888 0.278694,-0.3421934 0.278694,-0.3668878 0,-0.1622774 -0.130528,-0.2998604 -0.356305,-0.2998604 -0.370416,0 -0.874887,0.3563047 -0.874887,0.9807202 0,0.317499 0.169333,0.61736 0.504471,0.61736 0.451555,0 0.744359,-0.352777 0.744359,-0.405694 z M 53.99927,9.8838287 c 0,0.3739433 -0.582082,0.3739433 -0.698498,0.3739433 h -0.07408 c 0.151694,-0.578554 0.515054,-0.5891373 0.550332,-0.5891373 0.141111,0 0.222249,0.09525 0.222249,0.215194 z"
         style="font-style:italic;font-variant:normal;font-weight:normal;font-stretch:normal;font-family:'Latin Modern Roman';-inkscape-font-specification:'Latin Modern Roman,  Italic';text-align:center;text-anchor:middle;stroke-width:0.264583"
         id="path1315" />
      <path
         d="m 55.593817,10.78341 c 0,-0.01764 -0.02822,-0.05644 -0.05645,-0.05644 -0.01411,0 -0.01764,0.0035 -0.04586,0.03881 -0.261055,0.331611 -0.575026,0.345722 -0.634998,0.345722 -0.1905,0 -0.278694,-0.15875 -0.278694,-0.363361 0,-0.186971 0.09525,-0.557387 0.186972,-0.72672 0.126999,-0.2293053 0.303388,-0.3527773 0.462137,-0.3527773 0.03881,0 0.197556,0.00706 0.250472,0.1516941 -0.176388,0.021167 -0.176388,0.1728607 -0.176388,0.1728607 0,0.056444 0.0388,0.1128885 0.119944,0.1128885 0.09525,0 0.179916,-0.07761 0.179916,-0.211666 0,-0.1728607 -0.151694,-0.3033882 -0.377471,-0.3033882 -0.437444,0 -0.892526,0.5009432 -0.892526,1.0159982 0,0.349249 0.208138,0.582082 0.518582,0.582082 0.451555,0 0.74436,-0.352777 0.74436,-0.405694 z"
         style="font-style:italic;font-variant:normal;font-weight:normal;font-stretch:normal;font-family:'Latin Modern Roman';-inkscape-font-specification:'Latin Modern Roman,  Italic';text-align:center;text-anchor:middle;stroke-width:0.264583"
         id="path1317" />
      <path
         d="m 56.821477,10.645827 c 0,-0.03528 -0.02822,-0.03528 -0.05292,-0.03528 -0.04233,0 -0.04233,0.0035 -0.07055,0.06703 -0.0635,0.169333 -0.204611,0.433916 -0.405694,0.433916 -0.09525,0 -0.09525,-0.08819 -0.09525,-0.144639 0,-0.02469 0,-0.08114 0.0247,-0.179916 l 0.261055,-1.0477479 h 0.29986 c 0.05997,0 0.09878,0 0.09878,-0.067028 0,-0.042333 -0.03175,-0.042333 -0.0882,-0.042333 H 56.511033 L 56.64156,9.1077193 c 0.01411,-0.049389 0.01411,-0.056444 0.01411,-0.074083 0,-0.074083 -0.05997,-0.091722 -0.09525,-0.091722 -0.0882,0 -0.123472,0.074083 -0.137583,0.1269997 l -0.137583,0.5609154 h -0.299861 c -0.05997,0 -0.09878,0 -0.09878,0.067028 0,0.042333 0.03175,0.042333 0.08819,0.042333 h 0.282221 l -0.25399,1.0124696 c -0.0035,0.01411 -0.01764,0.07056 -0.01764,0.119944 0,0.176389 0.116416,0.3175 0.299861,0.3175 0.356304,0 0.536221,-0.525638 0.536221,-0.543277 z"
         style="font-style:italic;font-variant:normal;font-weight:normal;font-stretch:normal;font-family:'Latin Modern Roman';-inkscape-font-specification:'Latin Modern Roman,  Italic';text-align:center;text-anchor:middle;stroke-width:0.264583"
         id="path1319" />
      <path
         d="m 37.252986,13.157599 c 0.0035,-0.01411 0.0071,-0.03528 0.0071,-0.04939 0,0 -0.0035,-0.03528 -0.03881,-0.03528 0,0 -0.02469,0 -0.05644,0.0388 l -0.222249,0.261055 c -0.151694,-0.243416 -0.356305,-0.29986 -0.532693,-0.29986 -0.726721,0 -1.485192,0.793748 -1.485192,1.622774 0,0.578554 0.377472,0.941915 0.864304,0.941915 0.687915,0 1.072442,-0.754943 1.072442,-0.924276 0,-0.03528 -0.03528,-0.03528 -0.05292,-0.03528 -0.02117,0 -0.04586,0 -0.05644,0.02822 -0.179916,0.596193 -0.620887,0.821971 -0.913692,0.821971 -0.296333,0 -0.606777,-0.197555 -0.606777,-0.698499 0,-0.218721 0.0882,-0.772581 0.370416,-1.160636 0.239889,-0.324555 0.564443,-0.486832 0.836082,-0.486832 0.373943,0 0.500943,0.338666 0.500943,0.645582 0,0.09172 -0.01764,0.20461 -0.01764,0.215194 0,0.03528 0.03528,0.03528 0.05292,0.03528 0.03881,0 0.04939,-0.0035 0.0635,-0.0635 z"
         style="font-style:italic;font-variant:normal;font-weight:normal;font-stretch:normal;font-family:'Latin Modern Roman';-inkscape-font-specification:'Latin Modern Roman,  Italic';text-align:center;text-anchor:middle;stroke-width:0.264583"
         id="path1321" />
      <path
         d="m 38.717009,14.579291 c 0,-0.335139 -0.208139,-0.578555 -0.515055,-0.578555 -0.437443,0 -0.892525,0.500944 -0.892525,1.015998 0,0.36336 0.222249,0.582082 0.515054,0.582082 0.437443,0 0.892526,-0.500943 0.892526,-1.019525 z m -0.246944,-0.137583 c 0,0.151694 -0.07761,0.515054 -0.1905,0.72672 -0.102305,0.194028 -0.282221,0.352777 -0.455082,0.352777 -0.137583,0 -0.268111,-0.109361 -0.268111,-0.36336 0,-0.176389 0.09172,-0.567971 0.204611,-0.758471 0.130528,-0.215194 0.299861,-0.321027 0.437444,-0.321027 0.17286,0 0.271638,0.155222 0.271638,0.363361 z"
         style="font-style:italic;font-variant:normal;font-weight:normal;font-stretch:normal;font-family:'Latin Modern Roman';-inkscape-font-specification:'Latin Modern Roman,  Italic';text-align:center;text-anchor:middle;stroke-width:0.264583"
         id="path1323" />
      <path
         d="m 40.791336,15.05554 c 0,-0.03528 -0.02822,-0.03528 -0.05292,-0.03528 -0.04586,0 -0.04586,0.0071 -0.05997,0.05997 -0.02822,0.09525 -0.123472,0.440971 -0.328083,0.440971 -0.07408,0 -0.07761,-0.05292 -0.07761,-0.102305 0,-0.08819 0.03528,-0.179916 0.0635,-0.264583 0.07056,-0.186972 0.215194,-0.582082 0.215194,-0.786693 0,-0.289277 -0.194027,-0.366888 -0.366888,-0.366888 -0.289277,0 -0.45861,0.211667 -0.504471,0.278694 -0.0247,-0.172861 -0.144639,-0.278694 -0.296333,-0.278694 -0.127,0 -0.197555,0.08114 -0.253999,0.186972 -0.06703,0.141111 -0.112889,0.356305 -0.112889,0.356305 0,0.03528 0.03528,0.03528 0.05292,0.03528 0.04586,0 0.04939,-0.0035 0.06703,-0.08114 0.0635,-0.246944 0.130528,-0.419805 0.239889,-0.419805 0.09172,0 0.09172,0.102306 0.09172,0.141111 0,0.05644 -0.01058,0.123472 -0.0247,0.179916 l -0.264582,1.058331 c -0.0071,0.02117 -0.01058,0.03881 -0.01058,0.04939 0,0.03881 0.02822,0.09172 0.09878,0.09172 0.04233,0 0.102305,-0.02469 0.126999,-0.09172 l 0.141111,-0.564443 c 0.01764,-0.07761 0.03881,-0.151694 0.05645,-0.229305 0.04586,-0.179916 0.04586,-0.183444 0.105833,-0.28575 0.04939,-0.08467 0.208138,-0.349249 0.476249,-0.349249 0.155222,0 0.162277,0.15875 0.162277,0.232833 0,0.218722 -0.155222,0.638526 -0.204611,0.779637 -0.04586,0.119944 -0.05644,0.151694 -0.05644,0.225778 0,0.155221 0.09878,0.282221 0.268111,0.282221 0.328082,0 0.448026,-0.525638 0.448026,-0.543276 z"
         style="font-style:italic;font-variant:normal;font-weight:normal;font-stretch:normal;font-family:'Latin Modern Roman';-inkscape-font-specification:'Latin Modern Roman,  Italic';text-align:center;text-anchor:middle;stroke-width:0.264583"
         id="path1325" />
      <path
         d="m 41.96255,15.05554 c 0,-0.03528 -0.02822,-0.03528 -0.05292,-0.03528 -0.04233,0 -0.04233,0.0035 -0.07055,0.06703 -0.0635,0.169333 -0.204611,0.433916 -0.405694,0.433916 -0.09525,0 -0.09525,-0.08819 -0.09525,-0.144638 0,-0.02469 0,-0.08114 0.0247,-0.179917 l 0.261055,-1.047747 h 0.29986 c 0.05997,0 0.09878,0 0.09878,-0.06703 0,-0.04233 -0.03175,-0.04233 -0.08819,-0.04233 H 41.65212 l 0.130527,-0.52211 c 0.01411,-0.04939 0.01411,-0.05645 0.01411,-0.07408 0,-0.07408 -0.05997,-0.09172 -0.09525,-0.09172 -0.08819,0 -0.123471,0.07408 -0.137583,0.126999 l -0.137583,0.560916 h -0.29986 c -0.05997,0 -0.09878,0 -0.09878,0.06703 0,0.04233 0.03175,0.04233 0.0882,0.04233 h 0.282221 l -0.253999,1.01247 c -0.0035,0.01411 -0.01764,0.07056 -0.01764,0.119944 0,0.176388 0.116416,0.317499 0.29986,0.317499 0.356305,0 0.536221,-0.525638 0.536221,-0.543276 z"
         style="font-style:italic;font-variant:normal;font-weight:normal;font-stretch:normal;font-family:'Latin Modern Roman';-inkscape-font-specification:'Latin Modern Roman,  Italic';text-align:center;text-anchor:middle;stroke-width:0.264583"
         id="path1327" />
      <path
         d="m 43.602959,14.222986 c 0,-0.183444 -0.229305,-0.22225 -0.345721,-0.22225 -0.243416,0 -0.370416,0.176389 -0.42686,0.254 -0.03881,-0.186972 -0.176389,-0.254 -0.292805,-0.254 -0.127,0 -0.197555,0.08114 -0.254,0.186972 -0.06703,0.141111 -0.112888,0.356305 -0.112888,0.356305 0,0.03528 0.03528,0.03528 0.05292,0.03528 0.04586,0 0.04939,-0.0035 0.06703,-0.08114 0.0635,-0.246944 0.130527,-0.419805 0.239888,-0.419805 0.09172,0 0.09172,0.102306 0.09172,0.141111 0,0.05644 -0.01058,0.123472 -0.02469,0.179916 l -0.264583,1.058331 c -0.0071,0.02117 -0.01058,0.03881 -0.01058,0.04939 0,0.03881 0.02822,0.09172 0.09878,0.09172 0.105834,0 0.130528,-0.102305 0.137583,-0.130527 l 0.229306,-0.924276 c 0.0035,-0.01058 0.162277,-0.465666 0.465665,-0.465666 0.01764,0 0.116417,0 0.186972,0.04939 -0.123472,0.03881 -0.134055,0.151694 -0.134055,0.169333 0,0.04586 0.03175,0.112889 0.123472,0.112889 0.0635,0 0.17286,-0.04939 0.17286,-0.186972 z"
         style="font-style:italic;font-variant:normal;font-weight:normal;font-stretch:normal;font-family:'Latin Modern Roman';-inkscape-font-specification:'Latin Modern Roman,  Italic';text-align:center;text-anchor:middle;stroke-width:0.264583"
         id="path1329" />
      <path
         d="m 44.982312,14.579291 c 0,-0.335139 -0.208138,-0.578555 -0.515054,-0.578555 -0.437444,0 -0.892526,0.500944 -0.892526,1.015998 0,0.36336 0.222249,0.582082 0.515054,0.582082 0.437444,0 0.892526,-0.500943 0.892526,-1.019525 z m -0.246944,-0.137583 c 0,0.151694 -0.07761,0.515054 -0.190499,0.72672 -0.102306,0.194028 -0.282222,0.352777 -0.455083,0.352777 -0.137583,0 -0.26811,-0.109361 -0.26811,-0.36336 0,-0.176389 0.09172,-0.567971 0.20461,-0.758471 0.130528,-0.215194 0.299861,-0.321027 0.437444,-0.321027 0.172861,0 0.271638,0.155222 0.271638,0.363361 z"
         style="font-style:italic;font-variant:normal;font-weight:normal;font-stretch:normal;font-family:'Latin Modern Roman';-inkscape-font-specification:'Latin Modern Roman,  Italic';text-align:center;text-anchor:middle;stroke-width:0.264583"
         id="path1331" />
      <path
         d="m 45.977141,15.05554 c 0,-0.03528 -0.02822,-0.03528 -0.05292,-0.03528 -0.01764,0 -0.03881,0 -0.04939,0.01764 l -0.02469,0.08819 c -0.05997,0.246944 -0.127,0.39511 -0.225778,0.39511 -0.09172,0 -0.09172,-0.09525 -0.09172,-0.144638 0,-0.02469 0,-0.07761 0.02117,-0.162278 l 0.504471,-2.014356 c 0.0035,-0.01058 0.01058,-0.04586 0.01058,-0.04586 0,-0.03175 -0.02117,-0.04233 -0.04939,-0.04233 -0.01058,0 -0.04586,0.0035 -0.05644,0.0071 l -0.349249,0.02822 c -0.04233,0.0035 -0.08114,0.0071 -0.08114,0.07408 0,0.03881 0.03528,0.03881 0.08467,0.03881 0.169333,0 0.176388,0.02469 0.176388,0.05997 0,0.01058 -0.01058,0.05997 -0.01058,0.05997 l -0.440971,1.763885 c -0.0035,0.01411 -0.02117,0.08467 -0.02117,0.137583 0,0.186972 0.127,0.317499 0.296333,0.317499 0.134055,0 0.204611,-0.09525 0.250472,-0.183444 0.05997,-0.123472 0.10936,-0.349249 0.10936,-0.359832 z"
         style="font-style:italic;font-variant:normal;font-weight:normal;font-stretch:normal;font-family:'Latin Modern Roman';-inkscape-font-specification:'Latin Modern Roman,  Italic';text-align:center;text-anchor:middle;stroke-width:0.264583"
         id="path1333" />
      <path
         d="m 49.35674,14.692179 c 0,-0.04233 -0.04233,-0.04233 -0.05292,-0.04233 -0.04233,0 -0.04586,0.01058 -0.07055,0.07761 -0.112889,0.313971 -0.264583,0.723193 -0.814915,0.723193 h -0.28575 c -0.109361,0 -0.109361,-0.01058 -0.109361,-0.03528 0,-0.02117 0.01058,-0.05644 0.01411,-0.07761 l 0.479776,-1.919107 c 0.03175,-0.123472 0.05292,-0.158749 0.338666,-0.158749 h 0.03528 c 0.05997,0 0.09878,0 0.09878,-0.06703 0,-0.04233 -0.03881,-0.04233 -0.05292,-0.04233 -0.15875,0 -0.324555,0.01058 -0.486832,0.01058 -0.144639,0 -0.292805,-0.01058 -0.433916,-0.01058 -0.02117,0 -0.06703,0 -0.06703,0.06703 0,0.04233 0.02822,0.04233 0.09525,0.04233 0.109361,0 0.204611,0 0.204611,0.05997 0,0.01058 0,0.01764 -0.01411,0.06703 l -0.476249,1.915579 c -0.02822,0.119945 -0.04939,0.148167 -0.289277,0.148167 -0.05645,0 -0.09525,0 -0.09525,0.06703 0,0.04233 0.03175,0.04233 0.08819,0.04233 h 1.509886 c 0.07761,0 0.08114,-0.0035 0.102305,-0.0635 l 0.26811,-0.758471 z"
         style="font-style:italic;font-variant:normal;font-weight:normal;font-stretch:normal;font-family:'Latin Modern Roman';-inkscape-font-specification:'Latin Modern Roman,  Italic';text-align:center;text-anchor:middle;stroke-width:0.264583"
         id="path1335" />
      <path
         d="m 50.535011,15.05554 c 0,-0.03528 -0.02822,-0.03528 -0.05292,-0.03528 -0.04586,0 -0.04586,0.0071 -0.05997,0.05997 -0.02822,0.102305 -0.123472,0.440971 -0.328083,0.440971 -0.02822,0 -0.07761,-0.0035 -0.07761,-0.09878 0,-0.09172 0.04586,-0.208139 0.09172,-0.338666 l 0.225777,-0.603249 c 0.03528,-0.102305 0.04233,-0.130527 0.04233,-0.197555 0,-0.194027 -0.134056,-0.282222 -0.264583,-0.282222 -0.331611,0 -0.451555,0.525638 -0.451555,0.543277 0,0.03528 0.03528,0.03528 0.05292,0.03528 0.04586,0 0.04939,-0.0071 0.0635,-0.05645 0.03175,-0.116416 0.123472,-0.444499 0.328082,-0.444499 0.03881,0 0.07761,0.01764 0.07761,0.09878 0,0.08467 -0.03881,0.186972 -0.0635,0.253999 l -0.105833,0.292805 -0.130527,0.349249 c -0.04939,0.134056 -0.0635,0.172861 -0.0635,0.243417 0,0.137583 0.08467,0.282221 0.26811,0.282221 0.331611,0 0.448027,-0.529165 0.448027,-0.543276 z m 0.09525,-1.650997 c 0,-0.07408 -0.05292,-0.151694 -0.15875,-0.151694 -0.112888,0 -0.225777,0.109361 -0.225777,0.22225 0,0.07761 0.05644,0.151694 0.15875,0.151694 0.112888,0 0.225777,-0.109361 0.225777,-0.22225 z"
         style="font-style:italic;font-variant:normal;font-weight:normal;font-stretch:normal;font-family:'Latin Modern Roman';-inkscape-font-specification:'Latin Modern Roman,  Italic';text-align:center;text-anchor:middle;stroke-width:0.264583"
         id="path1337" />
      <path
         d="m 52.517615,15.05554 c 0,-0.03528 -0.02822,-0.03528 -0.05292,-0.03528 -0.04586,0 -0.04586,0.0071 -0.05997,0.05997 -0.02822,0.09525 -0.123472,0.440971 -0.328083,0.440971 -0.07408,0 -0.07761,-0.05292 -0.07761,-0.102305 0,-0.08819 0.03528,-0.179916 0.0635,-0.264583 0.07056,-0.186972 0.215194,-0.582082 0.215194,-0.786693 0,-0.289277 -0.194027,-0.366888 -0.366888,-0.366888 -0.289277,0 -0.45861,0.211667 -0.504471,0.278694 -0.02469,-0.172861 -0.144638,-0.278694 -0.296333,-0.278694 -0.126999,0 -0.197555,0.08114 -0.253999,0.186972 -0.06703,0.141111 -0.112889,0.356305 -0.112889,0.356305 0,0.03528 0.03528,0.03528 0.05292,0.03528 0.04586,0 0.04939,-0.0035 0.06703,-0.08114 0.0635,-0.246944 0.130527,-0.419805 0.239888,-0.419805 0.09172,0 0.09172,0.102306 0.09172,0.141111 0,0.05644 -0.01058,0.123472 -0.02469,0.179916 l -0.264583,1.058331 c -0.0071,0.02117 -0.01058,0.03881 -0.01058,0.04939 0,0.03881 0.02822,0.09172 0.09878,0.09172 0.04233,0 0.102305,-0.02469 0.127,-0.09172 l 0.141111,-0.564443 c 0.01764,-0.07761 0.0388,-0.151694 0.05644,-0.229305 0.04586,-0.179916 0.04586,-0.183444 0.105833,-0.28575 0.04939,-0.08467 0.208138,-0.349249 0.476249,-0.349249 0.155222,0 0.162277,0.15875 0.162277,0.232833 0,0.218722 -0.155221,0.638526 -0.20461,0.779637 -0.04586,0.119944 -0.05645,0.151694 -0.05645,0.225778 0,0.155221 0.09878,0.282221 0.268111,0.282221 0.328083,0 0.448027,-0.525638 0.448027,-0.543276 z"
         style="font-style:italic;font-variant:normal;font-weight:normal;font-stretch:normal;font-family:'Latin Modern Roman';-inkscape-font-specification:'Latin Modern Roman,  Italic';text-align:center;text-anchor:middle;stroke-width:0.264583"
         id="path1339" />
      <path
         d="m 54.083939,15.193123 c 0,-0.01764 -0.02822,-0.05645 -0.05644,-0.05645 -0.01411,0 -0.01764,0.0035 -0.04586,0.03881 -0.261055,0.33161 -0.575027,0.345721 -0.634999,0.345721 -0.229305,0 -0.26811,-0.250471 -0.26811,-0.388055 0,-0.134055 0.03528,-0.292804 0.05997,-0.388054 h 0.137583 c 0.105833,0 0.342193,-0.01058 0.511526,-0.07761 0.278694,-0.112889 0.278694,-0.342194 0.278694,-0.366888 0,-0.162278 -0.130527,-0.299861 -0.356305,-0.299861 -0.370415,0 -0.874887,0.356305 -0.874887,0.98072 0,0.3175 0.169333,0.61736 0.504472,0.61736 0.451554,0 0.744359,-0.352777 0.744359,-0.405693 z m -0.151694,-0.899582 c 0,0.373944 -0.582082,0.373944 -0.698499,0.373944 h -0.07408 c 0.151694,-0.578554 0.515055,-0.589138 0.550332,-0.589138 0.141111,0 0.22225,0.09525 0.22225,0.215194 z"
         style="font-style:italic;font-variant:normal;font-weight:normal;font-stretch:normal;font-family:'Latin Modern Roman';-inkscape-font-specification:'Latin Modern Roman,  Italic';text-align:center;text-anchor:middle;stroke-width:0.264583"
         id="path1341" />
      <path
         d="m 55.442127,15.006151 c 0,-0.306916 -0.275166,-0.370416 -0.419805,-0.402166 -0.09878,-0.02117 -0.225777,-0.04939 -0.225777,-0.201083 0,-0.08467 0.07408,-0.324555 0.356304,-0.324555 0.09525,0 0.225778,0.03528 0.264583,0.172861 -0.112888,0.01411 -0.141111,0.109361 -0.141111,0.144639 0,0.0388 0.02117,0.09878 0.105833,0.09878 0.05997,0 0.151695,-0.04233 0.151695,-0.194027 0,-0.162278 -0.144639,-0.299861 -0.377472,-0.299861 -0.412749,0 -0.557387,0.338666 -0.557387,0.52211 0,0.271639 0.229305,0.321027 0.328082,0.342194 0.155222,0.03528 0.313972,0.07055 0.313972,0.261055 0,0.112889 -0.09525,0.39511 -0.45861,0.39511 -0.07761,0 -0.282222,-0.01764 -0.338666,-0.197555 0.179916,-0.01764 0.179916,-0.172861 0.179916,-0.172861 0,-0.06703 -0.04586,-0.112888 -0.119944,-0.112888 -0.08114,0 -0.179917,0.05997 -0.179917,0.218721 0,0.215194 0.204611,0.342194 0.455083,0.342194 0.529165,0 0.663221,-0.430388 0.663221,-0.592665 z"
         style="font-style:italic;font-variant:normal;font-weight:normal;font-stretch:normal;font-family:'Latin Modern Roman';-inkscape-font-specification:'Latin Modern Roman,  Italic';text-align:center;text-anchor:middle;stroke-width:0.264583"
         id="path1343" />
    </g>
    <g
       aria-label="Output"
       id="text1286"
       style="font-size:3.52777px;line-height:1.25;font-family:'Latin Modern Roman';-inkscape-font-specification:'Latin Modern Roman, ';text-align:center;text-anchor:middle;stroke-width:0.264583">
      <path
         d="m 20.917706,34.908379 c 0,-0.578555 -0.359833,-0.920748 -0.804332,-0.920748 -0.723193,0 -1.453441,0.836081 -1.453441,1.654524 0,0.532693 0.33161,0.910164 0.811387,0.910164 0.705554,0 1.446386,-0.793748 1.446386,-1.64394 z m -0.299861,-0.148167 c 0,0.310444 -0.126999,0.779637 -0.313971,1.100665 -0.229305,0.391582 -0.543277,0.59972 -0.807859,0.59972 -0.321028,0 -0.518583,-0.289277 -0.518583,-0.709081 0,-0.162278 0.04939,-0.656166 0.296333,-1.086553 0.186972,-0.331611 0.507999,-0.589138 0.814915,-0.589138 0.275166,0 0.529165,0.211666 0.529165,0.684387 z"
         style="font-style:italic;font-variant:normal;font-weight:normal;font-stretch:normal;font-family:'Latin Modern Roman';-inkscape-font-specification:'Latin Modern Roman,  Italic';text-align:start;text-anchor:start;stroke-width:0.264583"
         id="path1373" />
      <path
         d="m 22.822696,35.970237 c 0,-0.03528 -0.02822,-0.03528 -0.05292,-0.03528 -0.04233,0 -0.04586,0.0035 -0.06703,0.08114 -0.04939,0.197556 -0.116417,0.419805 -0.236361,0.419805 -0.09172,0 -0.09172,-0.09525 -0.09172,-0.144638 0,-0.0247 0,-0.08114 0.02469,-0.179917 l 0.254,-1.015998 c 0.0071,-0.02117 0.01058,-0.03881 0.01058,-0.04939 0,-0.03881 -0.02822,-0.09172 -0.09878,-0.09172 -0.105834,0 -0.130528,0.102305 -0.137584,0.130527 l -0.257527,1.030109 c -0.01764,0.0635 -0.01764,0.07055 -0.04939,0.116416 -0.06703,0.09878 -0.169332,0.204611 -0.324554,0.204611 -0.15875,0 -0.1905,-0.155222 -0.1905,-0.271638 0,-0.215194 0.116416,-0.532693 0.204611,-0.772582 0.02822,-0.07408 0.04586,-0.123472 0.04586,-0.190499 0,-0.176389 -0.116417,-0.28575 -0.268111,-0.28575 -0.328082,0 -0.451554,0.52211 -0.451554,0.543277 0,0.03528 0.03528,0.03528 0.05292,0.03528 0.04586,0 0.04939,-0.0071 0.0635,-0.05644 0.02822,-0.109361 0.123472,-0.444499 0.328083,-0.444499 0.0388,0 0.07761,0.01058 0.07761,0.102305 0,0.08467 -0.03528,0.179917 -0.08467,0.3175 -0.09172,0.246944 -0.183444,0.507999 -0.183444,0.691443 0,0.306916 0.204611,0.409221 0.39511,0.409221 0.186972,0 0.306916,-0.105833 0.391583,-0.211666 0.0635,0.190499 0.215194,0.211666 0.282221,0.211666 0.130528,0 0.204611,-0.08819 0.257528,-0.197555 0.0635,-0.134055 0.105833,-0.345722 0.105833,-0.345722 z"
         style="font-style:italic;font-variant:normal;font-weight:normal;font-stretch:normal;font-family:'Latin Modern Roman';-inkscape-font-specification:'Latin Modern Roman,  Italic';text-align:start;text-anchor:start;stroke-width:0.264583"
         id="path1375" />
      <path
         d="m 23.993911,35.970237 c 0,-0.03528 -0.02822,-0.03528 -0.05292,-0.03528 -0.04233,0 -0.04233,0.0035 -0.07055,0.06703 -0.0635,0.169333 -0.204611,0.433916 -0.405694,0.433916 -0.09525,0 -0.09525,-0.08819 -0.09525,-0.144638 0,-0.0247 0,-0.08114 0.02469,-0.179917 l 0.261055,-1.047747 h 0.29986 c 0.05997,0 0.09878,0 0.09878,-0.06703 0,-0.04233 -0.03175,-0.04233 -0.08819,-0.04233 H 23.68347 l 0.130528,-0.52211 c 0.01411,-0.04939 0.01411,-0.05645 0.01411,-0.07408 0,-0.07408 -0.05997,-0.09172 -0.09525,-0.09172 -0.08819,0 -0.123472,0.07408 -0.137583,0.126999 l -0.137585,0.56091 h -0.299861 c -0.05997,0 -0.09878,0 -0.09878,0.06703 0,0.04233 0.03175,0.04233 0.08819,0.04233 h 0.282222 l -0.254,1.01247 c -0.0035,0.01411 -0.01764,0.07055 -0.01764,0.119944 0,0.176388 0.116417,0.317499 0.299861,0.317499 0.356305,0 0.536221,-0.525638 0.536221,-0.543277 z"
         style="font-style:italic;font-variant:normal;font-weight:normal;font-stretch:normal;font-family:'Latin Modern Roman';-inkscape-font-specification:'Latin Modern Roman,  Italic';text-align:start;text-anchor:start;stroke-width:0.264583"
         id="path1377" />
      <path
         d="m 25.708403,35.465766 c 0,-0.377471 -0.211666,-0.550332 -0.423332,-0.550332 -0.172861,0 -0.324555,0.127 -0.426861,0.246944 -0.04233,-0.204611 -0.201083,-0.246944 -0.289277,-0.246944 -0.126999,0 -0.197555,0.08114 -0.253999,0.186972 -0.06703,0.141111 -0.112889,0.356305 -0.112889,0.356305 0,0.03528 0.03528,0.03528 0.05292,0.03528 0.04586,0 0.04939,-0.0035 0.06703,-0.08114 0.0635,-0.246944 0.130528,-0.419805 0.239889,-0.419805 0.09172,0 0.09172,0.102305 0.09172,0.141111 0,0.02117 0,0.07761 -0.0247,0.176388 l -0.402165,1.615719 c -0.02822,0.109361 -0.05645,0.119944 -0.194028,0.123472 -0.03175,0 -0.07408,0 -0.07408,0.06703 0,0.02469 0.01764,0.04233 0.04233,0.04233 0.09525,0 0.197555,-0.01058 0.296333,-0.01058 0.112889,0 0.232833,0.01058 0.342194,0.01058 0.02117,0 0.06703,0 0.06703,-0.06703 0,-0.04233 -0.03528,-0.04233 -0.08467,-0.04233 -0.179916,0 -0.179916,-0.02117 -0.179916,-0.05644 0,-0.02117 0.02469,-0.112889 0.0388,-0.169333 l 0.127,-0.515055 c 0.02469,0.05997 0.112888,0.204611 0.296332,0.204611 0.384527,0 0.804332,-0.52211 0.804332,-1.047748 z m -0.433916,0.634999 c -0.04233,0.08819 -0.194027,0.335138 -0.373943,0.335138 -0.204611,0 -0.239889,-0.29986 -0.239889,-0.328083 0,-0.01058 0.0035,-0.02117 0.01058,-0.04939 l 0.165805,-0.666749 c 0.02822,-0.119944 0.246944,-0.398638 0.440971,-0.398638 0.15875,0 0.194027,0.201083 0.194027,0.313972 0,0.148166 -0.09525,0.567971 -0.197555,0.793748 z"
         style="font-style:italic;font-variant:normal;font-weight:normal;font-stretch:normal;font-family:'Latin Modern Roman';-inkscape-font-specification:'Latin Modern Roman,  Italic';text-align:start;text-anchor:start;stroke-width:0.264583"
         id="path1379" />
      <path
         d="m 27.691009,35.970237 c 0,-0.03528 -0.02822,-0.03528 -0.05292,-0.03528 -0.04233,0 -0.04586,0.0035 -0.06703,0.08114 -0.04939,0.197556 -0.116417,0.419805 -0.236361,0.419805 -0.09172,0 -0.09172,-0.09525 -0.09172,-0.144638 0,-0.0247 0,-0.08114 0.02469,-0.179917 l 0.254,-1.015998 c 0.0071,-0.02117 0.01058,-0.03881 0.01058,-0.04939 0,-0.03881 -0.02822,-0.09172 -0.09878,-0.09172 -0.105834,0 -0.130528,0.102305 -0.137583,0.130527 l -0.257528,1.030109 c -0.01764,0.0635 -0.01764,0.07055 -0.04939,0.116416 -0.06703,0.09878 -0.169333,0.204611 -0.324555,0.204611 -0.15875,0 -0.1905,-0.155222 -0.1905,-0.271638 0,-0.215194 0.116417,-0.532693 0.204611,-0.772582 0.02822,-0.07408 0.04586,-0.123472 0.04586,-0.190499 0,-0.176389 -0.116417,-0.28575 -0.268111,-0.28575 -0.328082,0 -0.451554,0.52211 -0.451554,0.543277 0,0.03528 0.03528,0.03528 0.05292,0.03528 0.04586,0 0.04939,-0.0071 0.0635,-0.05644 0.02822,-0.109361 0.123472,-0.444499 0.328083,-0.444499 0.0388,0 0.07761,0.01058 0.07761,0.102305 0,0.08467 -0.03528,0.179917 -0.08467,0.3175 -0.09172,0.246944 -0.183444,0.507999 -0.183444,0.691443 0,0.306916 0.204611,0.409221 0.39511,0.409221 0.186972,0 0.306916,-0.105833 0.391583,-0.211666 0.0635,0.190499 0.215194,0.211666 0.282221,0.211666 0.130528,0 0.204611,-0.08819 0.257528,-0.197555 0.0635,-0.134055 0.105833,-0.345722 0.105833,-0.345722 z"
         style="font-style:italic;font-variant:normal;font-weight:normal;font-stretch:normal;font-family:'Latin Modern Roman';-inkscape-font-specification:'Latin Modern Roman,  Italic';text-align:start;text-anchor:start;stroke-width:0.264583"
         id="path1381" />
      <path
         d="m 28.862224,35.970237 c 0,-0.03528 -0.02822,-0.03528 -0.05292,-0.03528 -0.04233,0 -0.04233,0.0035 -0.07055,0.06703 -0.0635,0.169333 -0.204611,0.433916 -0.405694,0.433916 -0.09525,0 -0.09525,-0.08819 -0.09525,-0.144638 0,-0.0247 0,-0.08114 0.02469,-0.179917 l 0.261055,-1.047747 h 0.29986 c 0.05997,0 0.09878,0 0.09878,-0.06703 0,-0.04233 -0.03175,-0.04233 -0.08819,-0.04233 H 28.55178 l 0.130527,-0.52211 c 0.01411,-0.04939 0.01411,-0.05645 0.01411,-0.07408 0,-0.07408 -0.05997,-0.09172 -0.09525,-0.09172 -0.08819,0 -0.123472,0.07408 -0.137583,0.126999 l -0.137583,0.560916 H 28.02614 c -0.05997,0 -0.09878,0 -0.09878,0.06703 0,0.04233 0.03175,0.04233 0.08819,0.04233 h 0.282221 l -0.253999,1.01247 c -0.0035,0.01411 -0.01764,0.07055 -0.01764,0.119944 0,0.176388 0.116417,0.317499 0.299861,0.317499 0.356304,0 0.536221,-0.525638 0.536221,-0.543277 z"
         style="font-style:italic;font-variant:normal;font-weight:normal;font-stretch:normal;font-family:'Latin Modern Roman';-inkscape-font-specification:'Latin Modern Roman,  Italic';text-align:start;text-anchor:start;stroke-width:0.264583"
         id="path1383" />
    </g>
  </g>
</svg>
