<?xml version="1.0" encoding="UTF-8" standalone="no"?>
<svg
   xmlns:dc="http://purl.org/dc/elements/1.1/"
   xmlns:cc="http://creativecommons.org/ns#"
   xmlns:rdf="http://www.w3.org/1999/02/22-rdf-syntax-ns#"
   xmlns:svg="http://www.w3.org/2000/svg"
   xmlns="http://www.w3.org/2000/svg"
   xmlns:sodipodi="http://sodipodi.sourceforge.net/DTD/sodipodi-0.dtd"
   xmlns:inkscape="http://www.inkscape.org/namespaces/inkscape"
   width="55.421024mm"
   height="18.001387mm"
   viewBox="0 0 55.421024 18.001387"
   version="1.1"
   id="svg8"
   inkscape:version="1.0.1 (3bc2e813f5, 2020-09-07)"
   sodipodi:docname="register.svg">
  <defs
     id="defs2" />
  <sodipodi:namedview
     id="base"
     pagecolor="#ffffff"
     bordercolor="#666666"
     borderopacity="1.0"
     inkscape:pageopacity="0.0"
     inkscape:pageshadow="2"
     inkscape:zoom="2.8"
     inkscape:cx="119.68268"
     inkscape:cy="50.017052"
     inkscape:document-units="mm"
     inkscape:current-layer="layer1"
     inkscape:document-rotation="0"
     showgrid="false"
     fit-margin-top="0"
     fit-margin-left="0"
     fit-margin-right="0"
     fit-margin-bottom="0"
     inkscape:window-width="1920"
     inkscape:window-height="1137"
     inkscape:window-x="-8"
     inkscape:window-y="-8"
     inkscape:window-maximized="1" />
  <metadata
     id="metadata5">
    <rdf:RDF>
      <cc:Work
         rdf:about="">
        <dc:format>image/svg+xml</dc:format>
        <dc:type
           rdf:resource="http://purl.org/dc/dcmitype/StillImage" />
        <dc:title></dc:title>
      </cc:Work>
    </rdf:RDF>
  </metadata>
  <g
     inkscape:label="Layer 1"
     inkscape:groupmode="layer"
     id="layer1"
     transform="translate(-11.929739,-7.5830123)">
    <rect
       style="fill:none;fill-opacity:0.403226;stroke:#000000;stroke-width:0.330999;stroke-linecap:square;stop-color:#000000"
       id="rect833"
       width="55.090027"
       height="17.670387"
       x="12.095239"
       y="7.7485118" />
    <rect
       style="fill:none;fill-opacity:0.403226;stroke:#000000;stroke-width:0.330999;stroke-linecap:square;stop-color:#000000"
       id="rect835"
       width="31.466518"
       height="3.8742559"
       x="16.347471"
       y="18.804316" />
    <g
       aria-label="In"
       id="text839"
       style="font-size:4.9389px;line-height:1.25;font-family:'Latin Modern Roman';-inkscape-font-specification:'Latin Modern Roman, ';stroke-width:0.264583">
      <path
         d="m 62.215336,13.229167 v -0.153106 h -0.128411 c -0.390173,0 -0.40499,-0.05433 -0.40499,-0.232128 v -2.602801 c 0,-0.1778 0.01482,-0.232128 0.40499,-0.232128 h 0.128411 V 9.8558983 c -0.172861,0.014817 -0.563034,0.014817 -0.750713,0.014817 -0.192617,0 -0.58279,0 -0.755651,-0.014817 v 0.1531057 h 0.128411 c 0.390173,0 0.40499,0.05433 0.40499,0.232128 v 2.602801 c 0,0.1778 -0.01482,0.232128 -0.40499,0.232128 h -0.128411 v 0.153106 c 0.172861,-0.01482 0.563034,-0.01482 0.750713,-0.01482 0.192617,0 0.58279,0 0.755651,0.01482 z"
         style="stroke-width:0.264583"
         id="path864" />
      <path
         d="m 64.995928,13.229167 v -0.153106 c -0.256823,0 -0.380295,0 -0.385234,-0.148167 v -0.94333 c 0,-0.424745 0,-0.577851 -0.153106,-0.755652 -0.06915,-0.08396 -0.232129,-0.182739 -0.518585,-0.182739 -0.360539,0 -0.592668,0.212373 -0.730957,0.518585 v -0.518585 l -0.696385,0.05433 v 0.153106 c 0.345723,0 0.385234,0.03457 0.385234,0.276578 v 1.323626 c 0,0.22225 -0.05433,0.22225 -0.385234,0.22225 v 0.153106 l 0.558096,-0.01482 0.553157,0.01482 v -0.153106 c -0.330907,0 -0.385235,0 -0.385235,-0.22225 v -0.908758 c 0,-0.513646 0.350662,-0.790224 0.666752,-0.790224 0.311151,0 0.365479,0.266701 0.365479,0.548218 v 1.150764 c 0,0.22225 -0.05433,0.22225 -0.385235,0.22225 v 0.153106 l 0.558096,-0.01482 z"
         style="stroke-width:0.264583"
         id="path866" />
    </g>
    <g
       aria-label="Out"
       id="text843"
       style="font-size:4.9389px;line-height:1.25;font-family:'Latin Modern Roman';-inkscape-font-specification:'Latin Modern Roman, ';stroke-width:0.264583">
      <path
         d="m 60.540855,21.760236 c 0,-1.007536 -0.745774,-1.807638 -1.644654,-1.807638 -0.884063,0 -1.639715,0.790224 -1.639715,1.807638 0,1.012474 0.760591,1.782942 1.639715,1.782942 0.89888,0 1.644654,-0.785285 1.644654,-1.782942 z m -0.508707,-0.06914 c 0,1.308808 -0.676629,1.723676 -1.131008,1.723676 -0.474134,0 -1.135947,-0.434623 -1.135947,-1.723676 0,-1.279175 0.721079,-1.61502 1.131008,-1.61502 0.429684,0 1.135947,0.350662 1.135947,1.61502 z"
         style="stroke-width:0.264583"
         id="path869" />
      <path
         d="m 63.464683,23.434523 v -0.153106 c -0.345723,0 -0.385234,-0.03457 -0.385234,-0.276579 v -1.753309 l -0.726019,0.05433 v 0.153106 c 0.345723,0 0.385235,0.03457 0.385235,0.276578 v 0.879124 c 0,0.429685 -0.237068,0.76553 -0.597607,0.76553 -0.414868,0 -0.434623,-0.232129 -0.434623,-0.488951 v -1.639715 l -0.726019,0.05433 v 0.153106 c 0.385234,0 0.385234,0.01482 0.385234,0.454378 v 0.740835 c 0,0.385235 0,0.834675 0.750713,0.834675 0.276579,0 0.49389,-0.13829 0.637118,-0.444501 v 0.444501 z"
         style="stroke-width:0.264583"
         id="path871" />
      <path
         d="m 65.208113,22.822099 v -0.281517 h -0.123472 v 0.271639 c 0,0.365479 -0.148167,0.553157 -0.330907,0.553157 -0.330906,0 -0.330906,-0.44944 -0.330906,-0.533401 v -1.373014 h 0.706263 v -0.153106 h -0.706263 v -0.908758 h -0.123472 c -0.0049,0.40499 -0.153106,0.933452 -0.637118,0.953208 v 0.108656 h 0.419806 v 1.363136 c 0,0.607485 0.459318,0.666752 0.637118,0.666752 0.350662,0 0.488951,-0.350662 0.488951,-0.666752 z"
         style="stroke-width:0.264583"
         id="path873" />
    </g>
    <g
       aria-label="Clk"
       id="text847"
       style="font-size:4.9389px;line-height:1.25;font-family:'Latin Modern Roman';-inkscape-font-specification:'Latin Modern Roman, ';stroke-width:0.264583">
      <path
         d="m 20.292791,12.005277 c 0,-0.04939 0,-0.08396 -0.06421,-0.08396 -0.05433,0 -0.05433,0.02963 -0.05927,0.07902 -0.03951,0.706262 -0.567974,1.111252 -1.106314,1.111252 -0.301273,0 -1.269297,-0.167923 -1.269297,-1.639715 0,-1.4767309 0.963085,-1.6446535 1.264358,-1.6446535 0.53834,0 0.977903,0.4494395 1.076681,1.1705195 0.0099,0.06914 0.0099,0.08396 0.07902,0.08396 0.07902,0 0.07902,-0.01482 0.07902,-0.118533 V 9.7926502 c 0,-0.083961 0,-0.1185336 -0.05433,-0.1185336 -0.01975,0 -0.03951,0 -0.07902,0.059267 L 19.912496,10.098862 C 19.729757,9.9210616 19.477873,9.6741166 19.003738,9.6741166 c -0.923574,0 -1.718737,0.7852854 -1.718737,1.7928204 0,1.022353 0.800102,1.79776 1.718737,1.79776 0.805041,0 1.289053,-0.686507 1.289053,-1.25942 z"
         style="stroke-width:0.264583"
         id="path876" />
      <path
         d="m 21.833719,13.156041 v -0.153106 c -0.330906,0 -0.385234,0 -0.385234,-0.22225 V 9.7284445 l -0.711201,0.054328 v 0.1531059 c 0.345723,0 0.385234,0.034572 0.385234,0.2765786 v 2.568228 c 0,0.22225 -0.05433,0.22225 -0.385234,0.22225 v 0.153106 l 0.548217,-0.01482 z"
         style="stroke-width:0.264583"
         id="path878" />
      <path
         d="m 24.471091,13.156041 v -0.153106 c -0.182739,0 -0.291395,0 -0.479073,-0.261761 l -0.62724,-0.884064 c -0.0049,-0.0099 -0.02963,-0.03951 -0.02963,-0.05433 0,-0.01976 0.350662,-0.31609 0.400051,-0.355601 0.311151,-0.251884 0.518585,-0.261762 0.622302,-0.266701 v -0.153106 c -0.143229,0.01482 -0.207434,0.01482 -0.345723,0.01482 -0.177801,0 -0.484013,-0.0099 -0.553157,-0.01482 v 0.153106 c 0.09384,0.0049 0.143228,0.05927 0.143228,0.123473 0,0.09878 -0.06915,0.158044 -0.108656,0.192617 l -0.696385,0.602546 V 9.7284445 l -0.711201,0.054328 v 0.1531059 c 0.345723,0 0.385234,0.034572 0.385234,0.2765786 v 2.568228 c 0,0.22225 -0.05433,0.22225 -0.385234,0.22225 v 0.153106 l 0.53834,-0.01482 0.543279,0.01482 v -0.153106 c -0.330907,0 -0.385235,0 -0.385235,-0.22225 v -0.508707 l 0.31609,-0.271639 c 0.380295,0.523523 0.587729,0.800101 0.587729,0.889002 0,0.09384 -0.08396,0.113594 -0.1778,0.113594 v 0.153106 l 0.533401,-0.01482 c 0.143228,0 0.286456,0.0049 0.429684,0.01482 z"
         style="stroke-width:0.264583"
         id="path880" />
    </g>
    <path
       style="fill:none;stroke:#000000;stroke-width:0.264583px;stroke-linecap:butt;stroke-linejoin:miter;stroke-opacity:1"
       d="m 12.127355,10.098922 3.685004,1.526378 -3.725782,1.543269"
       id="path851" />
    <g
       aria-label="D0"
       id="text855"
       style="font-size:4.9389px;line-height:1.25;font-family:'Latin Modern Roman';-inkscape-font-specification:'Latin Modern Roman, ';stroke-width:0.264583">
      <path
         d="m 42.312698,11.436736 c 0,-0.938391 -0.666751,-1.713798 -1.511303,-1.713798 h -1.807637 v 0.1531059 h 0.118533 c 0.380296,0 0.390173,0.054328 0.390173,0.2321281 v 2.6028 c 0,0.177801 -0.0099,0.232129 -0.390173,0.232129 h -0.118533 v 0.153106 h 1.807637 c 0.829735,0 1.511303,-0.730958 1.511303,-1.659471 z m -0.49389,0 c 0,0.548218 -0.09384,0.844552 -0.271639,1.086558 -0.09878,0.133351 -0.380295,0.419807 -0.879124,0.419807 h -0.498829 c -0.232128,0 -0.242006,-0.03457 -0.242006,-0.197556 V 10.0736 c 0,-0.1629838 0.0099,-0.1975561 0.242006,-0.1975561 h 0.49389 c 0.306212,0 0.646996,0.1086558 0.89888,0.4593181 0.212372,0.291395 0.256822,0.71614 0.256822,1.101374 z"
         style="stroke-width:0.264583"
         id="path859" />
      <path
         d="m 44.070946,13.056695 c 0,-0.256822 -0.01605,-0.513645 -0.128411,-0.751206 -0.147673,-0.308188 -0.410916,-0.359552 -0.545748,-0.359552 -0.192617,0 -0.426968,0.08347 -0.55859,0.382024 -0.102729,0.221509 -0.11878,0.471912 -0.11878,0.728734 0,0.240772 0.01284,0.529697 0.144462,0.773679 0.138043,0.260033 0.372393,0.324239 0.529697,0.324239 0.173356,0 0.417337,-0.06742 0.55859,-0.372393 0.102729,-0.22151 0.11878,-0.471912 0.11878,-0.725525 z m -0.266453,-0.03852 c 0,0.240771 0,0.459071 -0.03531,0.664529 -0.04816,0.304977 -0.231141,0.401286 -0.375604,0.401286 -0.125201,0 -0.314608,-0.08026 -0.372393,-0.388445 -0.03531,-0.192617 -0.03531,-0.487963 -0.03531,-0.67737 0,-0.205458 0,-0.417337 0.02568,-0.590692 0.061,-0.382024 0.301767,-0.410917 0.382024,-0.410917 0.10594,0 0.317819,0.05779 0.378814,0.375603 0.0321,0.179776 0.0321,0.423758 0.0321,0.626006 z"
         style="font-size:65%;baseline-shift:sub"
         id="path861" />
    </g>
  </g>
</svg>
