<?xml version="1.0" encoding="UTF-8" standalone="no"?>
<svg
   xmlns:dc="http://purl.org/dc/elements/1.1/"
   xmlns:cc="http://creativecommons.org/ns#"
   xmlns:rdf="http://www.w3.org/1999/02/22-rdf-syntax-ns#"
   xmlns:svg="http://www.w3.org/2000/svg"
   xmlns="http://www.w3.org/2000/svg"
   xmlns:sodipodi="http://sodipodi.sourceforge.net/DTD/sodipodi-0.dtd"
   xmlns:inkscape="http://www.inkscape.org/namespaces/inkscape"
   width="54.61998mm"
   height="75.757782mm"
   viewBox="0 0 54.61998 75.757782"
   version="1.1"
   id="svg8"
   inkscape:version="1.0.1 (3bc2e813f5, 2020-09-07)"
   sodipodi:docname="busywrite.svg">
  <defs
     id="defs2">
    <marker
       style="overflow:visible"
       id="marker1221"
       refX="0"
       refY="0"
       orient="auto"
       inkscape:stockid="Arrow1Mend"
       inkscape:isstock="true">
      <path
         transform="matrix(-0.4,0,0,-0.4,-4,0)"
         style="fill:#000000;fill-opacity:1;fill-rule:evenodd;stroke:#000000;stroke-width:1pt;stroke-opacity:1"
         d="M 0,0 5,-5 -12.5,0 5,5 Z"
         id="path1219" />
    </marker>
    <marker
       style="overflow:visible"
       id="Arrow1Mstart"
       refX="0"
       refY="0"
       orient="auto"
       inkscape:stockid="Arrow1Mstart"
       inkscape:isstock="true">
      <path
         transform="matrix(0.4,0,0,0.4,4,0)"
         style="fill:#000000;fill-opacity:1;fill-rule:evenodd;stroke:#000000;stroke-width:1pt;stroke-opacity:1"
         d="M 0,0 5,-5 -12.5,0 5,5 Z"
         id="path857" />
    </marker>
    <marker
       style="overflow:visible"
       id="marker1151"
       refX="0"
       refY="0"
       orient="auto"
       inkscape:stockid="Arrow1Mend"
       inkscape:isstock="true"
       inkscape:collect="always">
      <path
         transform="matrix(-0.4,0,0,-0.4,-4,0)"
         style="fill:#000000;fill-opacity:1;fill-rule:evenodd;stroke:#000000;stroke-width:1pt;stroke-opacity:1"
         d="M 0,0 5,-5 -12.5,0 5,5 Z"
         id="path1149" />
    </marker>
    <marker
       style="overflow:visible"
       id="Arrow1Mend"
       refX="0"
       refY="0"
       orient="auto"
       inkscape:stockid="Arrow1Mend"
       inkscape:isstock="true"
       inkscape:collect="always">
      <path
         transform="matrix(-0.4,0,0,-0.4,-4,0)"
         style="fill:#000000;fill-opacity:1;fill-rule:evenodd;stroke:#000000;stroke-width:1pt;stroke-opacity:1"
         d="M 0,0 5,-5 -12.5,0 5,5 Z"
         id="path860" />
    </marker>
    <marker
       style="overflow:visible"
       id="Arrow1Lstart"
       refX="0"
       refY="0"
       orient="auto"
       inkscape:stockid="Arrow1Lstart"
       inkscape:isstock="true">
      <path
         transform="matrix(0.8,0,0,0.8,10,0)"
         style="fill:#000000;fill-opacity:1;fill-rule:evenodd;stroke:#000000;stroke-width:1pt;stroke-opacity:1"
         d="M 0,0 5,-5 -12.5,0 5,5 Z"
         id="path851" />
    </marker>
  </defs>
  <sodipodi:namedview
     id="base"
     pagecolor="#ffffff"
     bordercolor="#666666"
     borderopacity="1.0"
     inkscape:pageopacity="0.0"
     inkscape:pageshadow="2"
     inkscape:zoom="1.979899"
     inkscape:cx="219.91041"
     inkscape:cy="237.10462"
     inkscape:document-units="mm"
     inkscape:current-layer="layer1"
     inkscape:document-rotation="0"
     showgrid="false"
     inkscape:snap-midpoints="true"
     inkscape:window-width="1920"
     inkscape:window-height="1137"
     inkscape:window-x="-8"
     inkscape:window-y="-8"
     inkscape:window-maximized="1"
     fit-margin-top="0"
     fit-margin-left="0"
     fit-margin-right="0"
     fit-margin-bottom="0" />
  <metadata
     id="metadata5">
    <rdf:RDF>
      <cc:Work
         rdf:about="">
        <dc:format>image/svg+xml</dc:format>
        <dc:type
           rdf:resource="http://purl.org/dc/dcmitype/StillImage" />
        <dc:title></dc:title>
      </cc:Work>
    </rdf:RDF>
  </metadata>
  <g
     inkscape:label="Layer 1"
     inkscape:groupmode="layer"
     id="layer1"
     transform="translate(-23.120157,-9.3544333)">
    <rect
       style="fill:none;stroke:#000000;stroke-width:0.280826;stroke-linecap:square;stop-color:#000000"
       id="rect833"
       width="43.954254"
       height="14.660172"
       x="33.550236"
       y="21.413301" />
    <g
       aria-label="Read Status"
       id="text837"
       style="font-size:4.9389px;line-height:1.25;font-family:'Latin Modern Roman';-inkscape-font-specification:'Latin Modern Roman, ';stroke-width:0.264583">
      <path
         d="m 46.645666,30.167735 c 0,-0.02963 0,-0.08396 -0.06421,-0.08396 -0.05433,0 -0.05433,0.04445 -0.05927,0.07902 -0.02963,0.350662 -0.202495,0.439562 -0.325967,0.439562 -0.242007,0 -0.281518,-0.251884 -0.350662,-0.711202 l -0.06421,-0.395112 c -0.0889,-0.316089 -0.330906,-0.479073 -0.602546,-0.572912 0.479073,-0.118534 0.864308,-0.419807 0.864308,-0.805041 0,-0.474134 -0.563035,-0.889002 -1.289053,-0.889002 h -1.550815 v 0.153106 h 0.118534 c 0.380295,0 0.390173,0.05433 0.390173,0.232128 v 2.602801 c 0,0.1778 -0.0099,0.232128 -0.390173,0.232128 h -0.118534 v 0.153106 c 0.177801,-0.01482 0.528462,-0.01482 0.72108,-0.01482 0.192617,0 0.543279,0 0.721079,0.01482 v -0.153106 h -0.118534 c -0.380295,0 -0.390173,-0.05433 -0.390173,-0.232128 v -1.249542 h 0.567974 c 0.07902,0 0.286456,0 0.459317,0.167923 0.187679,0.1778 0.187679,0.330906 0.187679,0.661812 0,0.321029 0,0.518585 0.202495,0.706263 0.202494,0.1778 0.474134,0.207434 0.622301,0.207434 0.385234,0 0.469195,-0.40499 0.469195,-0.543279 z m -1.111252,-2.049644 c 0,0.340784 -0.118534,0.740835 -0.849491,0.740835 h -0.548218 v -1.279175 c 0,-0.113595 0,-0.172861 0.108656,-0.187678 0.04939,-0.0099 0.192617,-0.0099 0.291395,-0.0099 0.444501,0 0.997658,0.01976 0.997658,0.735896 z"
         style="stroke-width:0.264583"
         id="path1288" />
      <path
         d="m 48.715056,30.014629 c 0,-0.04939 -0.03951,-0.05927 -0.0642,-0.05927 -0.04445,0 -0.05433,0.02963 -0.06421,0.06914 -0.172861,0.508706 -0.617362,0.508706 -0.666751,0.508706 -0.246945,0 -0.444501,-0.148167 -0.558096,-0.330906 -0.148167,-0.237067 -0.148167,-0.563035 -0.148167,-0.740835 h 1.377953 c 0.108656,0 0.123472,0 0.123472,-0.103717 0,-0.488951 -0.2667,-0.968024 -0.884063,-0.968024 -0.572912,0 -1.027291,0.508706 -1.027291,1.126069 0,0.661812 0.518585,1.140886 1.086558,1.140886 0.602546,0 0.824796,-0.548218 0.824796,-0.642057 z M 48.389089,29.357755 H 47.21857 c 0.02963,-0.735896 0.444501,-0.859369 0.612423,-0.859369 0.508707,0 0.558096,0.666752 0.558096,0.859369 z"
         style="stroke-width:0.264583"
         id="path1290" />
      <path
         d="m 51.243765,30.162796 v -0.276579 h -0.123472 v 0.276579 c 0,0.286456 -0.123473,0.316089 -0.177801,0.316089 -0.162984,0 -0.182739,-0.22225 -0.182739,-0.246945 v -0.98778 c 0,-0.207433 0,-0.400051 -0.177801,-0.58279 -0.192617,-0.192617 -0.439562,-0.271639 -0.676629,-0.271639 -0.40499,0 -0.745774,0.232128 -0.745774,0.558095 0,0.148167 0.09878,0.232129 0.22719,0.232129 0.138289,0 0.227189,-0.09878 0.227189,-0.22719 0,-0.05927 -0.02469,-0.22225 -0.251884,-0.227189 0.13335,-0.172862 0.375357,-0.22719 0.533401,-0.22719 0.242006,0 0.523524,0.192618 0.523524,0.63218 v 0.182739 c -0.251884,0.01482 -0.597607,0.02963 -0.908758,0.1778 -0.370417,0.167923 -0.49389,0.424746 -0.49389,0.642057 0,0.400051 0.479073,0.523524 0.790224,0.523524 0.325968,0 0.553157,-0.197556 0.646996,-0.429685 0.01976,0.197556 0.153106,0.40499 0.385234,0.40499 0.103717,0 0.40499,-0.06914 0.40499,-0.469195 z m -0.824796,-0.251884 c 0,0.469195 -0.355601,0.637118 -0.577852,0.637118 -0.242006,0 -0.444501,-0.172862 -0.444501,-0.419807 0,-0.271639 0.207434,-0.681568 1.022353,-0.711201 z"
         style="stroke-width:0.264583"
         id="path1292" />
      <path
         d="m 53.930517,30.602358 v -0.153106 c -0.345723,0 -0.385234,-0.03457 -0.385234,-0.276578 v -2.997913 l -0.711202,0.05433 v 0.153106 c 0.345723,0 0.385235,0.03457 0.385235,0.276578 v 1.066803 c -0.143229,-0.177801 -0.355601,-0.306212 -0.622302,-0.306212 -0.58279,0 -1.101375,0.484012 -1.101375,1.12113 0,0.627241 0.484013,1.116192 1.047047,1.116192 0.31609,0 0.53834,-0.167923 0.661813,-0.325968 v 0.325968 z m -0.726018,-0.58279 c 0,0.0889 0,0.09878 -0.05433,0.182739 -0.148167,0.237067 -0.370418,0.345723 -0.58279,0.345723 -0.222251,0 -0.400051,-0.128411 -0.518585,-0.31609 -0.128411,-0.202495 -0.143228,-0.484012 -0.143228,-0.686507 0,-0.182739 0.0099,-0.479073 0.153106,-0.701324 0.103717,-0.153105 0.291395,-0.316089 0.558096,-0.316089 0.172861,0 0.380295,0.07408 0.533401,0.296334 0.05433,0.08396 0.05433,0.09384 0.05433,0.182739 z"
         style="stroke-width:0.264583"
         id="path1294" />
      <path
         d="m 58.182901,29.683722 c 0,-0.49389 -0.325968,-0.898879 -0.740835,-0.997657 l -0.63218,-0.153106 c -0.306211,-0.07408 -0.498828,-0.340784 -0.498828,-0.627241 0,-0.345723 0.2667,-0.646995 0.651934,-0.646995 0.824797,0 0.933452,0.809979 0.963086,1.03223 0.0049,0.02963 0.0049,0.05927 0.05927,0.05927 0.06421,0 0.06421,-0.02469 0.06421,-0.118533 v -0.992719 c 0,-0.08396 0,-0.118534 -0.05433,-0.118534 -0.03457,0 -0.03951,0.0049 -0.07408,0.06421 l -0.172862,0.281517 c -0.148167,-0.143228 -0.350661,-0.345723 -0.790224,-0.345723 -0.548217,0 -0.963085,0.434624 -0.963085,0.958147 0,0.409929 0.261762,0.770468 0.646996,0.903819 0.05433,0.01975 0.306212,0.07902 0.651935,0.162983 0.13335,0.03457 0.281517,0.06914 0.419806,0.251884 0.103717,0.128412 0.153106,0.291395 0.153106,0.454379 0,0.350662 -0.246945,0.706263 -0.661813,0.706263 -0.143228,0 -0.518584,-0.0247 -0.780346,-0.266701 -0.286456,-0.2667 -0.301273,-0.58279 -0.306212,-0.76059 -0.0049,-0.04939 -0.04445,-0.04939 -0.05927,-0.04939 -0.06421,0 -0.06421,0.03457 -0.06421,0.123472 v 0.98778 c 0,0.08396 0,0.118534 0.05433,0.118534 0.03457,0 0.03951,-0.0099 0.07408,-0.06421 0,0 0.01482,-0.01976 0.177801,-0.281517 0.153106,0.167922 0.469195,0.345723 0.908757,0.345723 0.577852,0 0.972964,-0.484013 0.972964,-1.027292 z"
         style="stroke-width:0.264583"
         id="path1296" />
      <path
         d="m 60.104131,29.989934 v -0.281517 h -0.123472 v 0.271639 c 0,0.365479 -0.148167,0.553157 -0.330906,0.553157 -0.330907,0 -0.330907,-0.44944 -0.330907,-0.533401 v -1.373014 h 0.706263 v -0.153106 h -0.706263 v -0.908758 h -0.123472 c -0.0049,0.40499 -0.153106,0.933452 -0.637118,0.953208 v 0.108656 h 0.419806 v 1.363136 c 0,0.607485 0.459318,0.666752 0.637118,0.666752 0.350662,0 0.488951,-0.350662 0.488951,-0.666752 z"
         style="stroke-width:0.264583"
         id="path1298" />
      <path
         d="m 62.771137,30.162796 v -0.276579 h -0.123472 v 0.276579 c 0,0.286456 -0.123473,0.316089 -0.1778,0.316089 -0.162984,0 -0.18274,-0.22225 -0.18274,-0.246945 v -0.98778 c 0,-0.207433 0,-0.400051 -0.1778,-0.58279 -0.192617,-0.192617 -0.439562,-0.271639 -0.676629,-0.271639 -0.40499,0 -0.745774,0.232128 -0.745774,0.558095 0,0.148167 0.09878,0.232129 0.227189,0.232129 0.138289,0 0.227189,-0.09878 0.227189,-0.22719 0,-0.05927 -0.02469,-0.22225 -0.251883,-0.227189 0.13335,-0.172862 0.375356,-0.22719 0.533401,-0.22719 0.242006,0 0.523523,0.192618 0.523523,0.63218 v 0.182739 c -0.251884,0.01482 -0.597607,0.02963 -0.908757,0.1778 -0.370418,0.167923 -0.49389,0.424746 -0.49389,0.642057 0,0.400051 0.479073,0.523524 0.790224,0.523524 0.325967,0 0.553156,-0.197556 0.646995,-0.429685 0.01976,0.197556 0.153106,0.40499 0.385235,0.40499 0.103717,0 0.404989,-0.06914 0.404989,-0.469195 z m -0.824796,-0.251884 c 0,0.469195 -0.355601,0.637118 -0.577851,0.637118 -0.242006,0 -0.444501,-0.172862 -0.444501,-0.419807 0,-0.271639 0.207434,-0.681568 1.022352,-0.711201 z"
         style="stroke-width:0.264583"
         id="path1300" />
      <path
         d="m 64.494804,29.989934 v -0.281517 h -0.123473 v 0.271639 c 0,0.365479 -0.148167,0.553157 -0.330906,0.553157 -0.330906,0 -0.330906,-0.44944 -0.330906,-0.533401 v -1.373014 h 0.706263 v -0.153106 h -0.706263 v -0.908758 h -0.123473 c -0.0049,0.40499 -0.153106,0.933452 -0.637118,0.953208 v 0.108656 h 0.419807 v 1.363136 c 0,0.607485 0.459317,0.666752 0.637118,0.666752 0.350662,0 0.488951,-0.350662 0.488951,-0.666752 z"
         style="stroke-width:0.264583"
         id="path1302" />
      <path
         d="m 67.418633,30.602358 v -0.153106 c -0.345723,0 -0.385234,-0.03457 -0.385234,-0.276578 v -1.75331 l -0.726019,0.05433 V 28.6268 c 0.345723,0 0.385235,0.03457 0.385235,0.276578 V 29.7825 c 0,0.429685 -0.237068,0.76553 -0.597607,0.76553 -0.414868,0 -0.434623,-0.232128 -0.434623,-0.488951 v -1.639715 l -0.726019,0.05433 V 28.6268 c 0.385234,0 0.385234,0.01482 0.385234,0.454379 v 0.740835 c 0,0.385234 0,0.834674 0.750713,0.834674 0.276579,0 0.49389,-0.138289 0.637118,-0.444501 v 0.444501 z"
         style="stroke-width:0.264583"
         id="path1304" />
      <path
         d="m 69.300352,29.970179 c 0,-0.261762 -0.148167,-0.409929 -0.207433,-0.469196 -0.162984,-0.158045 -0.355601,-0.197556 -0.563035,-0.237067 -0.276578,-0.05433 -0.607485,-0.118534 -0.607485,-0.40499 0,-0.172861 0.128412,-0.375356 0.553157,-0.375356 0.543279,0 0.567974,0.444501 0.577851,0.597607 0.0049,0.04445 0.05927,0.04445 0.05927,0.04445 0.06421,0 0.06421,-0.0247 0.06421,-0.118534 v -0.498829 c 0,-0.08396 0,-0.118533 -0.05433,-0.118533 -0.02469,0 -0.03457,0 -0.09878,0.05927 -0.01482,0.01976 -0.06421,0.06421 -0.08396,0.07902 -0.187678,-0.138289 -0.390173,-0.138289 -0.464257,-0.138289 -0.602546,0 -0.790224,0.330906 -0.790224,0.607484 0,0.172862 0.07902,0.311151 0.212373,0.419807 0.158045,0.128411 0.296334,0.158045 0.651935,0.227189 0.108655,0.01976 0.513645,0.09878 0.513645,0.454379 0,0.251884 -0.172861,0.44944 -0.558095,0.44944 -0.414868,0 -0.592668,-0.281517 -0.686508,-0.701324 -0.01482,-0.06421 -0.01975,-0.08396 -0.06914,-0.08396 -0.06421,0 -0.06421,0.03457 -0.06421,0.123472 v 0.651935 c 0,0.08396 0,0.118534 0.05433,0.118534 0.02469,0 0.02963,-0.0049 0.123473,-0.09878 0.0099,-0.0099 0.0099,-0.01976 0.09878,-0.113595 0.217311,0.207434 0.439562,0.212373 0.543279,0.212373 0.567973,0 0.795162,-0.330907 0.795162,-0.686507 z"
         style="stroke-width:0.264583"
         id="path1306" />
    </g>
    <rect
       style="fill:none;stroke:#000000;stroke-width:0.375952;stroke-linecap:square;stroke-miterlimit:4;stroke-dasharray:none;stop-color:#000000"
       id="rect843"
       width="24.218113"
       height="24.218113"
       x="-55.747169"
       y="93.000916"
       transform="matrix(0.90326269,-0.429088,0.90326269,0.429088,0,0)" />
    <g
       aria-label="Check Status"
       id="text847"
       style="font-size:4.9389px;line-height:1.25;font-family:'Latin Modern Roman';-inkscape-font-specification:'Latin Modern Roman, ';stroke-width:0.264583">
      <path
         d="m 44.443872,64.463906 c 0,-0.04939 0,-0.08396 -0.06421,-0.08396 -0.05433,0 -0.05433,0.02963 -0.05927,0.07902 -0.03951,0.706263 -0.567974,1.111253 -1.106314,1.111253 -0.301273,0 -1.269297,-0.167923 -1.269297,-1.639715 0,-1.476731 0.963086,-1.644654 1.264358,-1.644654 0.538341,0 0.977903,0.44944 1.076681,1.17052 0.0099,0.06914 0.0099,0.08396 0.07902,0.08396 0.07902,0 0.07902,-0.01482 0.07902,-0.118534 v -1.170519 c 0,-0.08396 0,-0.118534 -0.05433,-0.118534 -0.01976,0 -0.03951,0 -0.07902,0.05927 l -0.246945,0.365479 c -0.182739,-0.177801 -0.434623,-0.424746 -0.908757,-0.424746 -0.923575,0 -1.718738,0.785285 -1.718738,1.792821 0,1.022352 0.800102,1.79776 1.718738,1.79776 0.80504,0 1.289052,-0.686507 1.289052,-1.25942 z"
         style="stroke-width:0.264583"
         id="path1265" />
      <path
         d="m 47.367692,65.61467 v -0.153106 c -0.256822,0 -0.380295,0 -0.385234,-0.148167 v -0.94333 c 0,-0.424745 0,-0.577851 -0.153106,-0.755652 -0.06914,-0.08396 -0.232128,-0.182739 -0.518584,-0.182739 -0.414868,0 -0.632179,0.296334 -0.711202,0.474134 h -0.0049 v -1.718737 l -0.711201,0.05433 v 0.153106 c 0.345723,0 0.385234,0.03457 0.385234,0.276578 v 2.568228 c 0,0.222251 -0.05433,0.222251 -0.385234,0.222251 v 0.153106 l 0.558095,-0.01482 0.553157,0.01482 v -0.153106 c -0.330906,0 -0.385234,0 -0.385234,-0.222251 v -0.908757 c 0,-0.513646 0.350662,-0.790224 0.666751,-0.790224 0.311151,0 0.365479,0.2667 0.365479,0.548218 v 1.150763 c 0,0.222251 -0.05433,0.222251 -0.385234,0.222251 v 0.153106 l 0.558096,-0.01482 z"
         style="stroke-width:0.264583"
         id="path1267" />
      <path
         d="m 49.521051,65.026941 c 0,-0.04939 -0.03951,-0.05927 -0.06421,-0.05927 -0.04445,0 -0.05433,0.02963 -0.06421,0.06914 -0.172862,0.508706 -0.617363,0.508706 -0.666752,0.508706 -0.246945,0 -0.444501,-0.148167 -0.558095,-0.330906 -0.148167,-0.237067 -0.148167,-0.563035 -0.148167,-0.740835 h 1.377953 c 0.108656,0 0.123472,0 0.123472,-0.103717 0,-0.488951 -0.2667,-0.968024 -0.884063,-0.968024 -0.572912,0 -1.027291,0.508706 -1.027291,1.126069 0,0.661812 0.518585,1.140886 1.086558,1.140886 0.602546,0 0.824796,-0.548218 0.824796,-0.642057 z m -0.325967,-0.656874 h -1.170519 c 0.02963,-0.735896 0.444501,-0.859369 0.612423,-0.859369 0.508707,0 0.558096,0.666752 0.558096,0.859369 z"
         style="stroke-width:0.264583"
         id="path1269" />
      <path
         d="m 51.713915,65.026941 c 0,-0.04939 -0.04939,-0.04939 -0.06421,-0.04939 -0.04445,0 -0.05433,0.01976 -0.06421,0.04939 -0.143228,0.459317 -0.464256,0.518584 -0.646995,0.518584 -0.261762,0 -0.696385,-0.212372 -0.696385,-1.007535 0,-0.805041 0.404989,-1.012475 0.666751,-1.012475 0.04445,0 0.355601,0.0049 0.528462,0.182739 -0.202494,0.01482 -0.232128,0.162984 -0.232128,0.22719 0,0.128411 0.0889,0.227189 0.22719,0.227189 0.128411,0 0.227189,-0.08396 0.227189,-0.232128 0,-0.335845 -0.375356,-0.528462 -0.755652,-0.528462 -0.617362,0 -1.071741,0.533401 -1.071741,1.145824 0,0.63218 0.488951,1.121131 1.061863,1.121131 0.661813,0 0.819858,-0.592668 0.819858,-0.642057 z"
         style="stroke-width:0.264583"
         id="path1271" />
      <path
         d="m 54.242615,65.61467 v -0.153106 c -0.18274,0 -0.291395,0 -0.479074,-0.261762 l -0.62724,-0.884063 c -0.0049,-0.0099 -0.02963,-0.03951 -0.02963,-0.05433 0,-0.01975 0.350662,-0.316089 0.400051,-0.355601 0.31115,-0.251883 0.518584,-0.261761 0.622301,-0.2667 v -0.153106 c -0.143228,0.01482 -0.207434,0.01482 -0.345723,0.01482 -0.1778,0 -0.484012,-0.0099 -0.553157,-0.01482 v 0.153106 c 0.09384,0.0049 0.143228,0.05927 0.143228,0.123472 0,0.09878 -0.06914,0.158045 -0.108656,0.192617 l -0.696384,0.602546 v -2.370672 l -0.711202,0.05433 v 0.153106 c 0.345723,0 0.385234,0.03457 0.385234,0.276578 v 2.568228 c 0,0.222251 -0.05433,0.222251 -0.385234,0.222251 v 0.153106 l 0.53834,-0.01482 0.543279,0.01482 v -0.153106 c -0.330906,0 -0.385234,0 -0.385234,-0.222251 v -0.508706 l 0.316089,-0.27164 c 0.380296,0.523524 0.58773,0.800102 0.58773,0.889002 0,0.09384 -0.08396,0.113595 -0.177801,0.113595 v 0.153106 l 0.533401,-0.01482 c 0.143228,0 0.286457,0.0049 0.429685,0.01482 z"
         style="stroke-width:0.264583"
         id="path1273" />
      <path
         d="m 58.435732,64.696034 c 0,-0.49389 -0.325967,-0.898879 -0.740835,-0.997657 l -0.632179,-0.153106 c -0.306212,-0.07408 -0.498829,-0.340784 -0.498829,-0.627241 0,-0.345723 0.266701,-0.646995 0.651935,-0.646995 0.824796,0 0.933452,0.809979 0.963085,1.03223 0.0049,0.02963 0.0049,0.05927 0.05927,0.05927 0.06421,0 0.06421,-0.02469 0.06421,-0.118533 v -0.992719 c 0,-0.08396 0,-0.118534 -0.05433,-0.118534 -0.03457,0 -0.03951,0.0049 -0.07408,0.06421 l -0.172861,0.281517 c -0.148167,-0.143228 -0.350662,-0.345723 -0.790224,-0.345723 -0.548218,0 -0.963086,0.434624 -0.963086,0.958147 0,0.409929 0.261762,0.770468 0.646996,0.903819 0.05433,0.01975 0.306212,0.07902 0.651935,0.162983 0.13335,0.03457 0.281517,0.06914 0.419807,0.251884 0.103716,0.128412 0.153105,0.291395 0.153105,0.454379 0,0.350662 -0.246945,0.706263 -0.661812,0.706263 -0.143228,0 -0.518585,-0.0247 -0.780346,-0.266701 -0.286457,-0.2667 -0.301273,-0.58279 -0.306212,-0.76059 -0.0049,-0.04939 -0.04445,-0.04939 -0.05927,-0.04939 -0.06421,0 -0.06421,0.03457 -0.06421,0.123472 v 0.98778 c 0,0.08396 0,0.118534 0.05433,0.118534 0.03457,0 0.03951,-0.0099 0.07408,-0.06421 0,0 0.01482,-0.01976 0.1778,-0.281517 0.153106,0.167922 0.469196,0.345723 0.908758,0.345723 0.577851,0 0.972963,-0.484013 0.972963,-1.027292 z"
         style="stroke-width:0.264583"
         id="path1275" />
      <path
         d="m 60.356962,65.002246 v -0.281517 h -0.123473 v 0.271639 c 0,0.365479 -0.148167,0.553157 -0.330906,0.553157 -0.330906,0 -0.330906,-0.44944 -0.330906,-0.533401 V 63.63911 h 0.706262 v -0.153106 h -0.706262 v -0.908758 h -0.123473 c -0.0049,0.40499 -0.153106,0.933452 -0.637118,0.953208 v 0.108656 h 0.419807 v 1.363136 c 0,0.607485 0.459317,0.666752 0.637118,0.666752 0.350662,0 0.488951,-0.350662 0.488951,-0.666752 z"
         style="stroke-width:0.264583"
         id="path1277" />
      <path
         d="m 63.023968,65.175108 v -0.276579 h -0.123473 v 0.276579 c 0,0.286456 -0.123472,0.316089 -0.1778,0.316089 -0.162984,0 -0.182739,-0.22225 -0.182739,-0.246945 v -0.98778 c 0,-0.207433 0,-0.400051 -0.177801,-0.58279 -0.192617,-0.192617 -0.439562,-0.271639 -0.676629,-0.271639 -0.40499,0 -0.745774,0.232128 -0.745774,0.558095 0,0.148167 0.09878,0.232129 0.22719,0.232129 0.138289,0 0.227189,-0.09878 0.227189,-0.22719 0,-0.05927 -0.0247,-0.22225 -0.251884,-0.227189 0.13335,-0.172862 0.375356,-0.22719 0.533401,-0.22719 0.242006,0 0.523524,0.192618 0.523524,0.63218 v 0.182739 c -0.251884,0.01482 -0.597607,0.02963 -0.908758,0.1778 -0.370417,0.167923 -0.49389,0.424746 -0.49389,0.642057 0,0.400051 0.479073,0.523524 0.790224,0.523524 0.325967,0 0.553157,-0.197556 0.646996,-0.429685 0.01976,0.197556 0.153106,0.40499 0.385234,0.40499 0.103717,0 0.40499,-0.06914 0.40499,-0.469195 z m -0.824796,-0.251884 c 0,0.469195 -0.355601,0.637118 -0.577852,0.637118 -0.242006,0 -0.444501,-0.172862 -0.444501,-0.419807 0,-0.271639 0.207434,-0.681568 1.022353,-0.711201 z"
         style="stroke-width:0.264583"
         id="path1279" />
      <path
         d="m 64.747634,65.002246 v -0.281517 h -0.123472 v 0.271639 c 0,0.365479 -0.148167,0.553157 -0.330906,0.553157 -0.330907,0 -0.330907,-0.44944 -0.330907,-0.533401 V 63.63911 h 0.706263 v -0.153106 h -0.706263 v -0.908758 h -0.123472 c -0.0049,0.40499 -0.153106,0.933452 -0.637118,0.953208 v 0.108656 h 0.419806 v 1.363136 c 0,0.607485 0.459318,0.666752 0.637118,0.666752 0.350662,0 0.488951,-0.350662 0.488951,-0.666752 z"
         style="stroke-width:0.264583"
         id="path1281" />
      <path
         d="m 67.671463,65.61467 v -0.153106 c -0.345723,0 -0.385234,-0.03457 -0.385234,-0.276578 v -1.75331 l -0.726018,0.05433 v 0.153106 c 0.345723,0 0.385234,0.03457 0.385234,0.276578 v 0.879124 c 0,0.429685 -0.237067,0.76553 -0.597607,0.76553 -0.414867,0 -0.434623,-0.232128 -0.434623,-0.488951 v -1.639715 l -0.726018,0.05433 v 0.153106 c 0.385234,0 0.385234,0.01482 0.385234,0.454379 v 0.740835 c 0,0.385234 0,0.834674 0.750713,0.834674 0.276578,0 0.49389,-0.13829 0.637118,-0.444501 v 0.444501 z"
         style="stroke-width:0.264583"
         id="path1283" />
      <path
         d="m 69.553183,64.982491 c 0,-0.261762 -0.148167,-0.409929 -0.207434,-0.469196 -0.162984,-0.158045 -0.355601,-0.197556 -0.563034,-0.237067 -0.276579,-0.05433 -0.607485,-0.118534 -0.607485,-0.40499 0,-0.172861 0.128411,-0.375356 0.553157,-0.375356 0.543279,0 0.567973,0.444501 0.577851,0.597607 0.0049,0.04445 0.05927,0.04445 0.05927,0.04445 0.06421,0 0.06421,-0.0247 0.06421,-0.118534 v -0.498829 c 0,-0.08396 0,-0.118533 -0.05433,-0.118533 -0.02469,0 -0.03457,0 -0.09878,0.05927 -0.01482,0.01976 -0.06421,0.06421 -0.08396,0.07902 -0.187678,-0.138289 -0.390173,-0.138289 -0.464256,-0.138289 -0.602546,0 -0.790224,0.330906 -0.790224,0.607484 0,0.172862 0.07902,0.311151 0.212372,0.419807 0.158045,0.128411 0.296334,0.158045 0.651935,0.227189 0.108656,0.01976 0.513646,0.09878 0.513646,0.454379 0,0.251884 -0.172862,0.44944 -0.558096,0.44944 -0.414868,0 -0.592668,-0.281517 -0.686507,-0.701324 -0.01482,-0.06421 -0.01976,-0.08396 -0.06914,-0.08396 -0.06421,0 -0.06421,0.03457 -0.06421,0.123472 v 0.651935 c 0,0.08396 0,0.118534 0.05433,0.118534 0.02469,0 0.02963,-0.0049 0.123472,-0.09878 0.0099,-0.0099 0.0099,-0.01976 0.09878,-0.113595 0.217312,0.207434 0.439562,0.212373 0.543279,0.212373 0.567974,0 0.795163,-0.330907 0.795163,-0.686507 z"
         style="stroke-width:0.264583"
         id="path1285" />
    </g>
    <path
       style="fill:none;stroke:#000000;stroke-width:0.264583px;stroke-linecap:butt;stroke-linejoin:miter;stroke-opacity:1;marker-end:url(#Arrow1Mend)"
       d="m 55.52736,36.073474 -0.0021,17.360841"
       id="path849" />
    <path
       style="fill:none;stroke:#000000;stroke-width:0.264583px;stroke-linecap:butt;stroke-linejoin:miter;stroke-opacity:1;marker-end:url(#marker1151)"
       d="M 33.64992,63.826019 H 23.252448 V 28.464205 h 10.156243"
       id="path1147" />
    <path
       style="fill:none;stroke:#000000;stroke-width:0.264583px;stroke-linecap:butt;stroke-linejoin:miter;stroke-opacity:1;marker-start:url(#Arrow1Mstart)"
       d="M 55.52736,21.413301 V 9.3544333"
       id="path1183" />
    <path
       style="fill:none;stroke:#000000;stroke-width:0.264583px;stroke-linecap:butt;stroke-linejoin:miter;stroke-opacity:1;marker-end:url(#marker1221)"
       d="M 55.525233,74.217717 V 84.590804"
       id="path1217" />
    <g
       aria-label="Nope"
       id="text1311"
       style="font-size:4.9389px;line-height:1.25;font-family:'Latin Modern Roman';-inkscape-font-specification:'Latin Modern Roman, ';stroke-width:0.264583">
      <path
         d="m 27.979326,58.294985 v -0.153106 l -0.577852,0.01482 -0.577851,-0.01482 v 0.153106 c 0.508707,0 0.508707,0.232129 0.508707,0.365479 v 2.10891 l -1.743432,-2.563289 c -0.04445,-0.05927 -0.04939,-0.06421 -0.143228,-0.06421 h -0.839613 v 0.153106 h 0.143228 c 0.07408,0 0.172862,0.0049 0.246945,0.0099 0.113595,0.01482 0.118534,0.01976 0.118534,0.113595 v 2.578106 c 0,0.13335 0,0.365478 -0.508707,0.365478 v 0.153106 l 0.577851,-0.01482 0.577852,0.01482 v -0.153106 c -0.508707,0 -0.508707,-0.232128 -0.508707,-0.365478 v -2.568228 c 0.02469,0.02469 0.02963,0.02963 0.04939,0.05927 l 2.015071,2.96334 c 0.04445,0.05927 0.04939,0.06421 0.08396,0.06421 0.06914,0 0.06914,-0.03457 0.06914,-0.128411 v -2.726273 c 0,-0.13335 0,-0.365479 0.508707,-0.365479 z"
         style="stroke-width:0.264583"
         id="path1328" />
      <path
         d="m 30.473461,60.458224 c 0,-0.63218 -0.49389,-1.155703 -1.091497,-1.155703 -0.617363,0 -1.096436,0.53834 -1.096436,1.155703 0,0.637118 0.513646,1.111252 1.091497,1.111252 0.597607,0 1.096436,-0.484012 1.096436,-1.111252 z m -0.409929,-0.03951 c 0,0.177801 0,0.444501 -0.108656,0.661813 -0.108656,0.22225 -0.325967,0.365479 -0.572912,0.365479 -0.212373,0 -0.429685,-0.103717 -0.563035,-0.330907 -0.123472,-0.217311 -0.123472,-0.518584 -0.123472,-0.696385 0,-0.192617 0,-0.459317 0.118533,-0.676629 0.133351,-0.227189 0.365479,-0.330906 0.563035,-0.330906 0.217311,0 0.429684,0.108656 0.558096,0.321028 0.128411,0.212373 0.128411,0.498829 0.128411,0.686507 z"
         style="stroke-width:0.264583"
         id="path1330" />
      <path
         d="m 33.189846,60.448346 c 0,-0.627241 -0.479073,-1.116192 -1.03223,-1.116192 -0.385234,0 -0.592668,0.217312 -0.691446,0.325968 v -0.325968 l -0.711202,0.05433 v 0.153106 c 0.350662,0 0.385235,0.02963 0.385235,0.246945 v 2.311405 c 0,0.222251 -0.05433,0.222251 -0.385235,0.222251 v 0.153106 l 0.553157,-0.01482 0.558096,0.01482 v -0.153106 c -0.330906,0 -0.385234,0 -0.385234,-0.222251 v -0.829735 -0.04445 c 0.02469,0.07902 0.232128,0.345723 0.607484,0.345723 0.587729,0 1.101375,-0.484012 1.101375,-1.12113 z m -0.409929,0 c 0,0.597607 -0.345723,1.012474 -0.711201,1.012474 -0.197556,0 -0.385234,-0.09878 -0.518585,-0.301273 -0.06914,-0.103717 -0.06914,-0.108655 -0.06914,-0.207433 v -1.101375 c 0.143228,-0.251884 0.385234,-0.395112 0.637118,-0.395112 0.360539,0 0.661812,0.434623 0.661812,0.992719 z"
         style="stroke-width:0.264583"
         id="path1332" />
      <path
         d="m 35.550638,60.927419 c 0,-0.04939 -0.03951,-0.05927 -0.06421,-0.05927 -0.04445,0 -0.05433,0.02963 -0.06421,0.06914 -0.172862,0.508707 -0.617363,0.508707 -0.666752,0.508707 -0.246945,0 -0.444501,-0.148167 -0.558095,-0.330907 -0.148167,-0.237067 -0.148167,-0.563034 -0.148167,-0.740835 h 1.377953 c 0.108655,0 0.123472,0 0.123472,-0.103717 0,-0.488951 -0.2667,-0.968024 -0.884063,-0.968024 -0.572912,0 -1.027291,0.508707 -1.027291,1.126069 0,0.661813 0.518584,1.140886 1.086558,1.140886 0.602546,0 0.824796,-0.548218 0.824796,-0.642057 z m -0.325967,-0.656874 h -1.17052 c 0.02963,-0.735896 0.444501,-0.859368 0.612424,-0.859368 0.508707,0 0.558096,0.666751 0.558096,0.859368 z"
         style="stroke-width:0.264583"
         id="path1334" />
    </g>
    <g
       aria-label="Ready"
       id="text1315"
       style="font-size:4.9389px;line-height:1.25;font-family:'Latin Modern Roman';-inkscape-font-specification:'Latin Modern Roman, ';stroke-width:0.264583">
      <path
         d="m 44.311324,79.979332 c 0,-0.02963 0,-0.08396 -0.06421,-0.08396 -0.05433,0 -0.05433,0.04445 -0.05927,0.07902 -0.02963,0.350661 -0.202495,0.439562 -0.325967,0.439562 -0.242006,0 -0.281518,-0.251884 -0.350662,-0.711202 l -0.06421,-0.395112 c -0.0889,-0.31609 -0.330906,-0.479073 -0.602546,-0.572912 0.479074,-0.118534 0.864308,-0.419807 0.864308,-0.805041 0,-0.474134 -0.563035,-0.889002 -1.289053,-0.889002 H 40.86891 v 0.153106 h 0.118534 c 0.380295,0 0.390173,0.05433 0.390173,0.232128 v 2.6028 c 0,0.177801 -0.0099,0.232129 -0.390173,0.232129 H 40.86891 v 0.153106 c 0.177801,-0.01482 0.528463,-0.01482 0.72108,-0.01482 0.192617,0 0.543279,0 0.721079,0.01482 V 80.26085 h -0.118534 c -0.380295,0 -0.390173,-0.05433 -0.390173,-0.232129 V 78.77918 h 0.567974 c 0.07902,0 0.286456,0 0.459318,0.167922 0.187678,0.177801 0.187678,0.330907 0.187678,0.661813 0,0.321028 0,0.518584 0.202495,0.706263 0.202495,0.1778 0.474134,0.207433 0.622301,0.207433 0.385234,0 0.469196,-0.404989 0.469196,-0.543279 z m -1.111253,-2.049643 c 0,0.340784 -0.118534,0.740835 -0.849491,0.740835 h -0.548218 v -1.279175 c 0,-0.113595 0,-0.172862 0.108656,-0.187678 0.04939,-0.0099 0.192617,-0.0099 0.291395,-0.0099 0.444501,0 0.997658,0.01976 0.997658,0.735896 z"
         style="stroke-width:0.264583"
         id="path1317" />
      <path
         d="m 46.380713,79.826227 c 0,-0.04939 -0.03951,-0.05927 -0.06421,-0.05927 -0.04445,0 -0.05433,0.02963 -0.06421,0.06914 -0.172861,0.508707 -0.617362,0.508707 -0.666751,0.508707 -0.246945,0 -0.444501,-0.148167 -0.558096,-0.330906 -0.148167,-0.237067 -0.148167,-0.563035 -0.148167,-0.740835 h 1.377953 c 0.108656,0 0.123472,0 0.123472,-0.103717 0,-0.488951 -0.2667,-0.968025 -0.884063,-0.968025 -0.572912,0 -1.027291,0.508707 -1.027291,1.12607 0,0.661812 0.518585,1.140886 1.086558,1.140886 0.602546,0 0.824796,-0.548218 0.824796,-0.642057 z m -0.325967,-0.656874 h -1.170519 c 0.02963,-0.735896 0.444501,-0.859369 0.612423,-0.859369 0.508707,0 0.558096,0.666752 0.558096,0.859369 z"
         style="stroke-width:0.264583"
         id="path1319" />
      <path
         d="M 48.909422,79.974394 V 79.697815 H 48.78595 v 0.276579 c 0,0.286456 -0.123473,0.316089 -0.177801,0.316089 -0.162983,0 -0.182739,-0.22225 -0.182739,-0.246945 v -0.98778 c 0,-0.207434 0,-0.400051 -0.1778,-0.58279 -0.192618,-0.192617 -0.439563,-0.27164 -0.67663,-0.27164 -0.40499,0 -0.745774,0.232129 -0.745774,0.558096 0,0.148167 0.09878,0.232128 0.22719,0.232128 0.138289,0 0.227189,-0.09878 0.227189,-0.227189 0,-0.05927 -0.02469,-0.22225 -0.251884,-0.227189 0.133351,-0.172862 0.375357,-0.22719 0.533401,-0.22719 0.242007,0 0.523524,0.192617 0.523524,0.632179 v 0.18274 c -0.251884,0.01482 -0.597607,0.02963 -0.908758,0.1778 -0.370417,0.167923 -0.49389,0.424746 -0.49389,0.642057 0,0.400051 0.479074,0.523524 0.790224,0.523524 0.325968,0 0.553157,-0.197556 0.646996,-0.429685 0.01976,0.197556 0.153106,0.40499 0.385234,0.40499 0.103717,0 0.40499,-0.06915 0.40499,-0.469195 z M 48.084626,79.72251 c 0,0.469195 -0.355601,0.637118 -0.577851,0.637118 -0.242007,0 -0.444501,-0.172862 -0.444501,-0.419807 0,-0.271639 0.207433,-0.681568 1.022352,-0.711201 z"
         style="stroke-width:0.264583"
         id="path1321" />
      <path
         d="M 51.596174,80.413956 V 80.26085 c -0.345723,0 -0.385234,-0.03457 -0.385234,-0.276579 v -2.997912 l -0.711202,0.05433 v 0.153106 c 0.345723,0 0.385235,0.03457 0.385235,0.276578 v 1.066803 c -0.143229,-0.177801 -0.355601,-0.306212 -0.622302,-0.306212 -0.58279,0 -1.101375,0.484012 -1.101375,1.12113 0,0.62724 0.484013,1.116192 1.047047,1.116192 0.31609,0 0.53834,-0.167923 0.661813,-0.325968 v 0.325968 z m -0.726018,-0.582791 c 0,0.0889 0,0.09878 -0.05433,0.18274 -0.148167,0.237067 -0.370418,0.345723 -0.58279,0.345723 -0.222251,0 -0.400051,-0.128412 -0.518585,-0.31609 -0.128411,-0.202495 -0.143228,-0.484012 -0.143228,-0.686507 0,-0.182739 0.0099,-0.479073 0.153106,-0.701324 0.103717,-0.153106 0.291395,-0.316089 0.558096,-0.316089 0.172861,0 0.380295,0.07408 0.533401,0.296334 0.05433,0.08396 0.05433,0.09384 0.05433,0.182739 z"
         style="stroke-width:0.264583"
         id="path1323" />
      <path
         d="M 54.248362,78.438396 V 78.28529 c -0.113595,0.0099 -0.256823,0.01482 -0.370417,0.01482 L 53.44826,78.28529 v 0.153106 c 0.153106,0.0049 0.232129,0.0889 0.232129,0.212372 0,0.04939 -0.0049,0.05927 -0.02963,0.118534 l -0.498829,1.214969 -0.548218,-1.328564 c -0.01975,-0.04939 -0.02963,-0.06914 -0.02963,-0.0889 0,-0.128411 0.182739,-0.128411 0.276578,-0.128411 V 78.28529 l -0.53834,0.01482 c -0.13335,0 -0.330906,-0.0049 -0.479073,-0.01482 v 0.153106 c 0.237067,0 0.330906,0 0.400051,0.172861 l 0.740835,1.802699 -0.123473,0.291395 c -0.108655,0.271639 -0.246945,0.612423 -0.563034,0.612423 -0.0247,0 -0.138289,0 -0.232129,-0.0889 0.153106,-0.01976 0.192618,-0.128411 0.192618,-0.207434 0,-0.128411 -0.09384,-0.207433 -0.207434,-0.207433 -0.09878,0 -0.207434,0.06421 -0.207434,0.212372 0,0.222251 0.207434,0.400051 0.454379,0.400051 0.31115,0 0.513645,-0.281517 0.632179,-0.563034 l 0.869246,-2.108911 c 0.128412,-0.31115 0.380296,-0.316089 0.459318,-0.316089 z"
         style="stroke-width:0.264583"
         id="path1325" />
    </g>
  </g>
</svg>
