<?xml version="1.0" encoding="UTF-8" standalone="no"?>
<svg
   xmlns:dc="http://purl.org/dc/elements/1.1/"
   xmlns:cc="http://creativecommons.org/ns#"
   xmlns:rdf="http://www.w3.org/1999/02/22-rdf-syntax-ns#"
   xmlns:svg="http://www.w3.org/2000/svg"
   xmlns="http://www.w3.org/2000/svg"
   xmlns:sodipodi="http://sodipodi.sourceforge.net/DTD/sodipodi-0.dtd"
   xmlns:inkscape="http://www.inkscape.org/namespaces/inkscape"
   width="74.787575mm"
   height="15.627301mm"
   viewBox="0 0 74.787575 15.627301"
   version="1.1"
   id="svg2542"
   inkscape:version="1.0.1 (3bc2e813f5, 2020-09-07)"
   sodipodi:docname="sr.svg">
  <defs
     id="defs2536" />
  <sodipodi:namedview
     id="base"
     pagecolor="#ffffff"
     bordercolor="#666666"
     borderopacity="1.0"
     inkscape:pageopacity="0.0"
     inkscape:pageshadow="2"
     inkscape:zoom="2.8"
     inkscape:cx="151.63266"
     inkscape:cy="-34.514938"
     inkscape:document-units="mm"
     inkscape:current-layer="layer1"
     inkscape:document-rotation="0"
     showgrid="false"
     inkscape:snap-midpoints="true"
     fit-margin-left="10"
     fit-margin-right="10"
     fit-margin-top="0"
     fit-margin-bottom="0"
     inkscape:window-width="1920"
     inkscape:window-height="1137"
     inkscape:window-x="-8"
     inkscape:window-y="-8"
     inkscape:window-maximized="1" />
  <metadata
     id="metadata2539">
    <rdf:RDF>
      <cc:Work
         rdf:about="">
        <dc:format>image/svg+xml</dc:format>
        <dc:type
           rdf:resource="http://purl.org/dc/dcmitype/StillImage" />
        <dc:title></dc:title>
      </cc:Work>
    </rdf:RDF>
  </metadata>
  <g
     inkscape:label="Layer 1"
     inkscape:groupmode="layer"
     id="layer1"
     transform="translate(-5.4361585,-15.954519)">
    <g
       aria-label="The Status Register"
       id="text3113"
       style="font-size:3.52777px;line-height:1.25;font-family:'Latin Modern Roman';-inkscape-font-specification:'Latin Modern Roman, ';stroke-width:0.264583">
      <path
         d="m 17.984972,16.847045 -0.06703,-0.793748 h -2.155468 l -0.06703,0.793748 h 0.08819 c 0.04939,-0.567971 0.102305,-0.684387 0.634999,-0.684387 0.0635,0 0.155221,0 0.190499,0.0071 0.07408,0.01411 0.07408,0.05292 0.07408,0.134055 v 1.859135 c 0,0.119944 0,0.169333 -0.370416,0.169333 h -0.14111 v 0.109361 c 0.144638,-0.01058 0.504471,-0.01058 0.666748,-0.01058 0.162278,0 0.525638,0 0.670276,0.01058 V 18.332281 H 17.3676 c -0.370416,0 -0.370416,-0.04939 -0.370416,-0.169333 v -1.859135 c 0,-0.07056 0,-0.119944 0.0635,-0.134055 0.0388,-0.0071 0.134055,-0.0071 0.201083,-0.0071 0.532693,0 0.585609,0.116416 0.634998,0.684387 z"
         style="stroke-width:0.264583"
         id="path3343" />
      <path
         d="m 20.002851,18.441597 v -0.109361 c -0.183445,0 -0.271639,0 -0.275167,-0.105833 v -0.673804 c 0,-0.303388 0,-0.412749 -0.10936,-0.539749 -0.04939,-0.05997 -0.165806,-0.130527 -0.370416,-0.130527 -0.296333,0 -0.451555,0.211666 -0.507999,0.338666 h -0.0035 v -1.227664 l -0.507999,0.0388 v 0.109361 c 0.246944,0 0.275166,0.02469 0.275166,0.197555 v 1.83444 c 0,0.15875 -0.0388,0.15875 -0.275166,0.15875 v 0.109361 l 0.398638,-0.01058 0.39511,0.01058 v -0.109361 c -0.23636,0 -0.275166,0 -0.275166,-0.15875 v -0.649109 c 0,-0.366888 0.250472,-0.564443 0.476249,-0.564443 0.22225,0 0.261055,0.190499 0.261055,0.391582 v 0.82197 c 0,0.15875 -0.0388,0.15875 -0.275166,0.15875 v 0.109361 l 0.398638,-0.01058 z"
         style="stroke-width:0.264583"
         id="path3345" />
      <path
         d="m 21.540957,18.021792 c 0,-0.03528 -0.02822,-0.04233 -0.04586,-0.04233 -0.03175,0 -0.0388,0.02117 -0.04586,0.04939 -0.123471,0.36336 -0.440971,0.36336 -0.476249,0.36336 -0.176388,0 -0.317499,-0.105833 -0.398638,-0.23636 -0.105833,-0.169333 -0.105833,-0.402166 -0.105833,-0.529166 h 0.984248 c 0.07761,0 0.08819,0 0.08819,-0.07408 0,-0.349249 -0.190499,-0.691443 -0.63147,-0.691443 -0.409222,0 -0.733777,0.36336 -0.733777,0.804332 0,0.472721 0.370416,0.814914 0.77611,0.814914 0.430388,0 0.589137,-0.391582 0.589137,-0.45861 z m -0.232832,-0.469193 h -0.836082 c 0.02117,-0.525638 0.317499,-0.613832 0.437444,-0.613832 0.36336,0 0.398638,0.476249 0.398638,0.613832 z"
         style="stroke-width:0.264583"
         id="path3347" />
      <path
         d="m 24.578355,17.785432 c 0,-0.352777 -0.232833,-0.642054 -0.529165,-0.71261 l -0.451555,-0.109361 c -0.218722,-0.05292 -0.356305,-0.243416 -0.356305,-0.448026 0,-0.246944 0.1905,-0.462138 0.465666,-0.462138 0.589138,0 0.666749,0.578554 0.687915,0.737304 0.0035,0.02117 0.0035,0.04233 0.04233,0.04233 0.04586,0 0.04586,-0.01764 0.04586,-0.08467 V 16.03918 c 0,-0.05997 0,-0.08467 -0.0388,-0.08467 -0.02469,0 -0.02822,0.0035 -0.05292,0.04586 l -0.123472,0.201083 c -0.105833,-0.102305 -0.250471,-0.246944 -0.564443,-0.246944 -0.391582,0 -0.687915,0.310444 -0.687915,0.684387 0,0.292805 0.186972,0.550333 0.462138,0.645582 0.0388,0.01411 0.218722,0.05645 0.465666,0.116417 0.09525,0.02469 0.201082,0.04939 0.29986,0.179916 0.07408,0.09172 0.109361,0.208139 0.109361,0.324555 0,0.250472 -0.176389,0.504471 -0.472721,0.504471 -0.102306,0 -0.370416,-0.01764 -0.557388,-0.1905 -0.204611,-0.190499 -0.215194,-0.416276 -0.218722,-0.543276 -0.0035,-0.03528 -0.03175,-0.03528 -0.04233,-0.03528 -0.04586,0 -0.04586,0.0247 -0.04586,0.08819 v 0.705554 c 0,0.05997 0,0.08467 0.03881,0.08467 0.02469,0 0.02822,-0.0071 0.05292,-0.04586 0,0 0.01058,-0.01411 0.127,-0.201083 0.109361,0.119944 0.335138,0.246944 0.649109,0.246944 0.41275,0 0.694971,-0.345722 0.694971,-0.733776 z"
         style="stroke-width:0.264583"
         id="path3349" />
      <path
         d="m 25.950657,18.004153 v -0.201082 h -0.08819 v 0.194027 c 0,0.261055 -0.105833,0.39511 -0.23636,0.39511 -0.236361,0 -0.236361,-0.321027 -0.236361,-0.380999 v -0.98072 h 0.504471 v -0.109361 h -0.504471 v -0.64911 h -0.08819 c -0.0035,0.289278 -0.109361,0.666749 -0.455082,0.68086 v 0.07761 h 0.29986 v 0.973664 c 0,0.433916 0.328083,0.476249 0.455082,0.476249 0.250472,0 0.34925,-0.250471 0.34925,-0.476249 z"
         style="stroke-width:0.264583"
         id="path3351" />
      <path
         d="M 27.855653,18.127625 V 17.93007 h -0.08819 v 0.197555 c 0,0.204611 -0.08819,0.225778 -0.127,0.225778 -0.116416,0 -0.130527,-0.15875 -0.130527,-0.176389 V 17.47146 c 0,-0.148166 0,-0.285749 -0.127,-0.416277 -0.137583,-0.137583 -0.313972,-0.194027 -0.483305,-0.194027 -0.289277,0 -0.532693,0.165805 -0.532693,0.398638 0,0.105833 0.07055,0.165805 0.162277,0.165805 0.09878,0 0.162278,-0.07055 0.162278,-0.162277 0,-0.04233 -0.01764,-0.15875 -0.179916,-0.162278 0.09525,-0.123472 0.26811,-0.162277 0.380999,-0.162277 0.172861,0 0.373943,0.137583 0.373943,0.451555 v 0.130527 c -0.179916,0.01058 -0.42686,0.02117 -0.649109,0.127 -0.264583,0.119944 -0.352777,0.303388 -0.352777,0.45861 0,0.285749 0.342193,0.373943 0.564443,0.373943 0.232833,0 0.39511,-0.14111 0.462138,-0.306916 0.01411,0.141111 0.109361,0.289278 0.275166,0.289278 0.07408,0 0.289277,-0.04939 0.289277,-0.335139 z m -0.589138,-0.179916 c 0,0.335138 -0.253999,0.455083 -0.412749,0.455083 -0.17286,0 -0.317499,-0.123472 -0.317499,-0.299861 0,-0.194027 0.148166,-0.486832 0.730248,-0.507999 z"
         style="stroke-width:0.264583"
         id="path3353" />
      <path
         d="m 29.086838,18.004153 v -0.201082 h -0.08819 v 0.194027 c 0,0.261055 -0.105833,0.39511 -0.23636,0.39511 -0.236361,0 -0.236361,-0.321027 -0.236361,-0.380999 v -0.98072 h 0.504471 v -0.109361 h -0.504471 v -0.64911 h -0.08819 c -0.0035,0.289278 -0.109361,0.666749 -0.455082,0.68086 v 0.07761 h 0.29986 v 0.973664 c 0,0.433916 0.328083,0.476249 0.455082,0.476249 0.250472,0 0.34925,-0.250471 0.34925,-0.476249 z"
         style="stroke-width:0.264583"
         id="path3355" />
      <path
         d="m 31.175277,18.441597 v -0.109361 c -0.246944,0 -0.275166,-0.02469 -0.275166,-0.197555 v -1.252358 l -0.518582,0.0388 v 0.109361 c 0.246944,0 0.275166,0.02469 0.275166,0.197555 v 0.627943 c 0,0.306916 -0.169333,0.546805 -0.42686,0.546805 -0.296333,0 -0.310444,-0.165806 -0.310444,-0.34925 v -1.171219 l -0.518582,0.0388 v 0.109361 c 0.275166,0 0.275166,0.01058 0.275166,0.324555 v 0.529165 c 0,0.275166 0,0.596193 0.536221,0.596193 0.197555,0 0.352777,-0.09878 0.455082,-0.317499 v 0.317499 z"
         style="stroke-width:0.264583"
         id="path3357" />
      <path
         d="m 32.519357,17.990042 c 0,-0.186971 -0.105833,-0.292804 -0.148166,-0.335138 -0.116416,-0.112888 -0.253999,-0.141111 -0.402166,-0.169333 -0.197555,-0.0388 -0.433916,-0.08467 -0.433916,-0.289277 0,-0.123472 0.09172,-0.26811 0.395111,-0.26811 0.388054,0 0.405693,0.317499 0.412749,0.42686 0.0035,0.03175 0.04233,0.03175 0.04233,0.03175 0.04586,0 0.04586,-0.01764 0.04586,-0.08467 v -0.356305 c 0,-0.05997 0,-0.08467 -0.0388,-0.08467 -0.01764,0 -0.0247,0 -0.07056,0.04233 -0.01058,0.01411 -0.04586,0.04586 -0.05997,0.05645 -0.134055,-0.09878 -0.278694,-0.09878 -0.33161,-0.09878 -0.430388,0 -0.564444,0.236361 -0.564444,0.433916 0,0.123472 0.05645,0.222249 0.151695,0.29986 0.112888,0.09172 0.211666,0.112889 0.465665,0.162278 0.07761,0.01411 0.366888,0.07055 0.366888,0.324554 0,0.179917 -0.123472,0.321028 -0.398638,0.321028 -0.296332,0 -0.423332,-0.201083 -0.49036,-0.500944 -0.01058,-0.04586 -0.01411,-0.05997 -0.04939,-0.05997 -0.04586,0 -0.04586,0.02469 -0.04586,0.08819 v 0.465666 c 0,0.05997 0,0.08467 0.03881,0.08467 0.01764,0 0.02117,-0.0035 0.08819,-0.07056 0.0071,-0.0071 0.0071,-0.01411 0.07056,-0.08114 0.155222,0.148167 0.313971,0.151694 0.388054,0.151694 0.405694,0 0.567971,-0.23636 0.567971,-0.49036 z"
         style="stroke-width:0.264583"
         id="path3359" />
      <path
         d="m 36.396368,18.131153 c 0,-0.02117 0,-0.05997 -0.04586,-0.05997 -0.03881,0 -0.03881,0.03175 -0.04233,0.05644 -0.02117,0.250472 -0.144639,0.313972 -0.232833,0.313972 -0.172861,0 -0.201083,-0.179916 -0.250472,-0.507999 l -0.04586,-0.282222 c -0.0635,-0.225777 -0.23636,-0.342193 -0.430388,-0.409221 0.342194,-0.08467 0.61736,-0.29986 0.61736,-0.575026 0,-0.338666 -0.402166,-0.634999 -0.920748,-0.634999 h -1.10772 v 0.109361 h 0.08467 c 0.271638,0 0.278693,0.0388 0.278693,0.165805 v 1.859135 c 0,0.127 -0.0071,0.165805 -0.278693,0.165805 h -0.08467 v 0.109361 c 0.127,-0.01058 0.377472,-0.01058 0.515055,-0.01058 0.137583,0 0.388054,0 0.515054,0.01058 v -0.109361 h -0.08467 c -0.271639,0 -0.278694,-0.0388 -0.278694,-0.165805 v -0.892526 h 0.405693 c 0.05644,0 0.204611,0 0.328083,0.119944 0.134055,0.127 0.134055,0.236361 0.134055,0.472721 0,0.229306 0,0.370416 0.144639,0.504472 0.144638,0.126999 0.338666,0.148166 0.444499,0.148166 0.275166,0 0.335138,-0.289277 0.335138,-0.388055 z M 35.60262,16.667129 c 0,0.243416 -0.08467,0.529165 -0.606777,0.529165 h -0.391582 v -0.913692 c 0,-0.08114 0,-0.123472 0.07761,-0.134056 0.03528,-0.0071 0.137583,-0.0071 0.208138,-0.0071 0.317499,0 0.71261,0.01411 0.71261,0.525638 z"
         style="stroke-width:0.264583"
         id="path3361" />
      <path
         d="m 37.874496,18.021792 c 0,-0.03528 -0.02822,-0.04233 -0.04586,-0.04233 -0.03175,0 -0.0388,0.02117 -0.04586,0.04939 -0.123471,0.36336 -0.440971,0.36336 -0.476248,0.36336 -0.176389,0 -0.3175,-0.105833 -0.398639,-0.23636 -0.105833,-0.169333 -0.105833,-0.402166 -0.105833,-0.529166 h 0.984248 c 0.07761,0 0.08819,0 0.08819,-0.07408 0,-0.349249 -0.190499,-0.691443 -0.63147,-0.691443 -0.409222,0 -0.733777,0.36336 -0.733777,0.804332 0,0.472721 0.370416,0.814914 0.77611,0.814914 0.430388,0 0.589137,-0.391582 0.589137,-0.45861 z m -0.232832,-0.469193 h -0.836082 c 0.02117,-0.525638 0.317499,-0.613832 0.437444,-0.613832 0.36336,0 0.398638,0.476249 0.398638,0.613832 z"
         style="stroke-width:0.264583"
         id="path3363" />
      <path
         d="m 39.687765,17.016378 c 0,-0.05997 -0.04233,-0.172861 -0.179917,-0.172861 -0.07056,0 -0.225777,0.02117 -0.373943,0.165805 -0.148167,-0.116416 -0.296333,-0.126999 -0.373944,-0.126999 -0.328083,0 -0.571499,0.243416 -0.571499,0.515054 0,0.155222 0.07761,0.289277 0.165806,0.36336 -0.04586,0.05292 -0.109361,0.169333 -0.109361,0.292805 0,0.109361 0.04586,0.243416 0.155222,0.313972 -0.211667,0.05997 -0.324555,0.211666 -0.324555,0.352777 0,0.253999 0.349249,0.448027 0.779637,0.448027 0.416277,0 0.783165,-0.179917 0.783165,-0.455083 0,-0.123472 -0.04939,-0.303388 -0.229305,-0.402166 -0.186972,-0.09878 -0.391583,-0.09878 -0.606777,-0.09878 -0.08819,0 -0.239888,0 -0.264582,-0.0035 -0.112889,-0.01411 -0.186972,-0.123472 -0.186972,-0.23636 0,-0.01411 0,-0.09525 0.05997,-0.165806 0.137583,0.09878 0.282221,0.109361 0.349249,0.109361 0.328083,0 0.571499,-0.243416 0.571499,-0.515054 0,-0.130528 -0.05644,-0.261055 -0.144639,-0.342194 0.127,-0.119944 0.254,-0.137583 0.3175,-0.137583 0,0 0.02469,0 0.03528,0.0035 -0.0388,0.01411 -0.05644,0.05292 -0.05644,0.09525 0,0.05997 0.04586,0.102305 0.102305,0.102305 0.03528,0 0.102306,-0.02469 0.102306,-0.105833 z m -0.620888,0.380999 c 0,0.09525 -0.0035,0.208138 -0.05644,0.296333 -0.02822,0.04233 -0.109361,0.141111 -0.250472,0.141111 -0.306916,0 -0.306916,-0.352777 -0.306916,-0.433916 0,-0.09525 0.0035,-0.208139 0.05644,-0.296333 0.02822,-0.04233 0.109361,-0.141111 0.250472,-0.141111 0.306916,0 0.306916,0.352777 0.306916,0.433916 z m 0.388055,1.322914 c 0,0.190499 -0.250472,0.366888 -0.596193,0.366888 -0.356305,0 -0.599721,-0.179916 -0.599721,-0.366888 0,-0.162278 0.134055,-0.292805 0.289277,-0.303388 h 0.208138 c 0.303389,0 0.698499,0 0.698499,0.303388 z"
         style="stroke-width:0.264583"
         id="path3365" />
      <path
         d="m 40.612033,18.441597 v -0.109361 c -0.232833,0 -0.246944,-0.01764 -0.246944,-0.155222 v -1.294691 l -0.493887,0.0388 v 0.109361 c 0.229305,0 0.261054,0.02117 0.261054,0.194027 v 0.94897 c 0,0.15875 -0.0388,0.15875 -0.275166,0.15875 v 0.109361 l 0.388055,-0.01058 c 0.123472,0 0.246944,0.0071 0.366888,0.01058 z m -0.194027,-2.130773 c 0,-0.09525 -0.08114,-0.186972 -0.186972,-0.186972 -0.119944,0 -0.1905,0.09878 -0.1905,0.186972 0,0.09525 0.08114,0.186972 0.186972,0.186972 0.119944,0 0.1905,-0.09878 0.1905,-0.186972 z"
         style="stroke-width:0.264583"
         id="path3367" />
      <path
         d="m 41.99139,17.990042 c 0,-0.186971 -0.105833,-0.292804 -0.148166,-0.335138 -0.116417,-0.112888 -0.254,-0.141111 -0.402166,-0.169333 -0.197555,-0.0388 -0.433916,-0.08467 -0.433916,-0.289277 0,-0.123472 0.09172,-0.26811 0.39511,-0.26811 0.388055,0 0.405694,0.317499 0.412749,0.42686 0.0035,0.03175 0.04233,0.03175 0.04233,0.03175 0.04586,0 0.04586,-0.01764 0.04586,-0.08467 v -0.356305 c 0,-0.05997 0,-0.08467 -0.03881,-0.08467 -0.01764,0 -0.02469,0 -0.07055,0.04233 -0.01058,0.01411 -0.04586,0.04586 -0.05997,0.05645 -0.134056,-0.09878 -0.278694,-0.09878 -0.331611,-0.09878 -0.430388,0 -0.564443,0.236361 -0.564443,0.433916 0,0.123472 0.05644,0.222249 0.151694,0.29986 0.112889,0.09172 0.211666,0.112889 0.465666,0.162278 0.07761,0.01411 0.366888,0.07055 0.366888,0.324554 0,0.179917 -0.123472,0.321028 -0.398638,0.321028 -0.296333,0 -0.423333,-0.201083 -0.49036,-0.500944 -0.01058,-0.04586 -0.01411,-0.05997 -0.04939,-0.05997 -0.04586,0 -0.04586,0.02469 -0.04586,0.08819 v 0.465666 c 0,0.05997 0,0.08467 0.03881,0.08467 0.01764,0 0.02117,-0.0035 0.08819,-0.07056 0.0071,-0.0071 0.0071,-0.01411 0.07055,-0.08114 0.155222,0.148167 0.313972,0.151694 0.388055,0.151694 0.405693,0 0.567971,-0.23636 0.567971,-0.49036 z"
         style="stroke-width:0.264583"
         id="path3369" />
      <path
         d="m 43.282551,18.004153 v -0.201082 h -0.08819 v 0.194027 c 0,0.261055 -0.105833,0.39511 -0.23636,0.39511 -0.236361,0 -0.236361,-0.321027 -0.236361,-0.380999 v -0.98072 h 0.504471 V 16.921128 H 42.72164 v -0.64911 h -0.08819 c -0.0035,0.289278 -0.109361,0.666749 -0.455082,0.68086 v 0.07761 h 0.29986 v 0.973664 c 0,0.433916 0.328083,0.476249 0.455082,0.476249 0.250472,0 0.34925,-0.250471 0.34925,-0.476249 z"
         style="stroke-width:0.264583"
         id="path3371" />
      <path
         d="m 44.947659,18.021792 c 0,-0.03528 -0.02822,-0.04233 -0.04586,-0.04233 -0.03175,0 -0.03881,0.02117 -0.04586,0.04939 -0.123472,0.36336 -0.440972,0.36336 -0.476249,0.36336 -0.176389,0 -0.3175,-0.105833 -0.398638,-0.23636 -0.105834,-0.169333 -0.105834,-0.402166 -0.105834,-0.529166 h 0.984248 c 0.07761,0 0.08819,0 0.08819,-0.07408 0,-0.349249 -0.1905,-0.691443 -0.631471,-0.691443 -0.409222,0 -0.733776,0.36336 -0.733776,0.804332 0,0.472721 0.370415,0.814914 0.776109,0.814914 0.430388,0 0.589138,-0.391582 0.589138,-0.45861 z m -0.232833,-0.469193 h -0.836082 c 0.02117,-0.525638 0.3175,-0.613832 0.437444,-0.613832 0.36336,0 0.398638,0.476249 0.398638,0.613832 z"
         style="stroke-width:0.264583"
         id="path3373" />
      <path
         d="m 46.334067,17.097517 c 0,-0.112889 -0.109361,-0.215194 -0.261055,-0.215194 -0.257528,0 -0.384527,0.23636 -0.433916,0.388054 v -0.388054 l -0.49036,0.0388 v 0.109361 c 0.246944,0 0.275166,0.02469 0.275166,0.197555 v 0.945442 c 0,0.15875 -0.03881,0.15875 -0.275166,0.15875 v 0.109361 l 0.402166,-0.01058 c 0.14111,0 0.306916,0 0.448026,0.01058 v -0.109361 h -0.07408 c -0.261055,0 -0.26811,-0.0388 -0.26811,-0.165805 v -0.543277 c 0,-0.349249 0.148166,-0.66322 0.416277,-0.66322 0.02469,0 0.03175,0 0.03881,0.0035 -0.01058,0.0035 -0.08114,0.04586 -0.08114,0.137583 0,0.09878 0.07408,0.151694 0.151694,0.151694 0.0635,0 0.151695,-0.04233 0.151695,-0.155221 z"
         style="stroke-width:0.264583"
         id="path3375" />
    </g>
    <rect
       style="fill:none;stroke:#000000;stroke-width:0.25;stroke-linecap:square;stroke-miterlimit:4;stroke-dasharray:none;stop-color:#000000"
       id="rect3170"
       width="3.4076865"
       height="4.9444861"
       x="15.56845"
       y="20.446119" />
    <rect
       style="fill:none;stroke:#000000;stroke-width:0.25;stroke-linecap:square;stroke-miterlimit:4;stroke-dasharray:none;stop-color:#000000"
       id="rect3170-2"
       width="3.4076865"
       height="4.9444861"
       x="18.976137"
       y="20.446119" />
    <rect
       style="fill:none;stroke:#000000;stroke-width:0.25;stroke-linecap:square;stroke-miterlimit:4;stroke-dasharray:none;stop-color:#000000"
       id="rect3170-0"
       width="3.4076865"
       height="4.9444861"
       x="22.383823"
       y="20.446119" />
    <rect
       style="fill:none;stroke:#000000;stroke-width:0.25;stroke-linecap:square;stroke-miterlimit:4;stroke-dasharray:none;stop-color:#000000"
       id="rect3170-0-1"
       width="3.4076865"
       height="4.9444861"
       x="36.014572"
       y="20.446119" />
    <rect
       style="fill:none;stroke:#000000;stroke-width:0.25;stroke-linecap:square;stroke-miterlimit:4;stroke-dasharray:none;stop-color:#000000"
       id="rect3170-9-1"
       width="3.4076865"
       height="4.9444861"
       x="39.422256"
       y="20.446119" />
    <rect
       style="fill:none;stroke:#000000;stroke-width:0.25;stroke-linecap:square;stroke-miterlimit:4;stroke-dasharray:none;stop-color:#000000"
       id="rect3170-9-0"
       width="3.4076865"
       height="4.9444861"
       x="53.053005"
       y="20.446119" />
    <rect
       style="fill:none;stroke:#000000;stroke-width:0.25;stroke-linecap:square;stroke-miterlimit:4;stroke-dasharray:none;stop-color:#000000"
       id="rect3170-37"
       width="3.4076865"
       height="4.9444861"
       x="56.460693"
       y="20.446119" />
    <rect
       style="fill:none;stroke:#000000;stroke-width:0.25;stroke-linecap:square;stroke-miterlimit:4;stroke-dasharray:none;stop-color:#000000"
       id="rect3170-2-7"
       width="3.4076865"
       height="4.9444861"
       x="59.868378"
       y="20.446119" />
    <rect
       style="fill:none;stroke:#000000;stroke-width:0.25;stroke-linecap:square;stroke-miterlimit:4;stroke-dasharray:none;stop-color:#000000"
       id="rect3170-0-17"
       width="3.4076865"
       height="4.9444861"
       x="63.276066"
       y="20.446119" />
    <rect
       style="fill:none;stroke:#000000;stroke-width:0.25;stroke-linecap:square;stroke-miterlimit:4;stroke-dasharray:none;stop-color:#000000"
       id="rect3170-9-6"
       width="3.4076865"
       height="4.9444861"
       x="66.683746"
       y="20.446119" />
    <g
       aria-label="T"
       id="text3251"
       style="font-style:italic;font-size:2.82222px;line-height:1.25;font-family:'Latin Modern Roman';-inkscape-font-specification:'Latin Modern Roman, Italic';stroke-width:0.264583">
      <path
         d="m 18.223392,22.452079 0.08467,-0.505177 c 0.0028,-0.01129 0.0028,-0.0254 0.0028,-0.03669 0,-0.03387 -0.0254,-0.03387 -0.07056,-0.03387 h -1.447799 c -0.05644,0 -0.06491,0 -0.08184,0.0508 l -0.166511,0.505178 c -0.01411,0.03669 -0.01411,0.04798 -0.01411,0.04798 0,0.03104 0.03387,0.03104 0.04233,0.03104 0.01129,0 0.02258,0 0.03104,-0.0085 0.0056,-0.0056 0.0085,-0.0085 0.03669,-0.08184 0.132644,-0.397933 0.211667,-0.4572 0.575733,-0.4572 h 0.09596 c 0.06491,0 0.06491,0.01129 0.06491,0.03104 0,0.01976 -0.0056,0.04516 -0.01129,0.06209 l -0.378156,1.51557 c -0.0254,0.09878 -0.0508,0.127 -0.299155,0.127 h -0.04516 c -0.04798,0 -0.07902,0 -0.07902,0.05362 0,0.03387 0.03387,0.03387 0.04798,0.03387 0.143933,0 0.293511,-0.0085 0.437444,-0.0085 0.146755,0 0.299155,0.0085 0.443089,0.0085 0.0254,0 0.05927,0 0.05927,-0.05644 0,-0.03104 -0.02822,-0.03104 -0.07055,-0.03104 h -0.04233 c -0.04516,0 -0.132644,-0.0056 -0.141111,-0.0056 -0.07902,-0.0085 -0.09313,-0.01976 -0.09313,-0.05927 0,-0.0085 0,-0.01411 0.01129,-0.05362 l 0.378177,-1.518354 c 0.01976,-0.08467 0.04233,-0.09031 0.06491,-0.09313 0.02258,-0.0056 0.09878,-0.0056 0.146755,-0.0056 0.293511,0 0.358422,0.03951 0.358422,0.214489 0,0.03387 0,0.08749 -0.02822,0.254 -0.0056,0.03104 -0.0056,0.04233 -0.0056,0.04233 0,0.03669 0.02822,0.03669 0.04233,0.03669 0.03669,0 0.04233,-0.0085 0.0508,-0.05927 z"
         style="font-size:2.82222px;stroke-width:0.264583"
         id="path3378" />
    </g>
    <rect
       style="fill:none;stroke:#000000;stroke-width:0.25;stroke-linecap:square;stroke-miterlimit:4;stroke-dasharray:none;stop-color:#000000"
       id="rect3170-0-1-6"
       width="3.4076865"
       height="4.9444861"
       x="32.606884"
       y="20.446119" />
    <rect
       style="fill:none;stroke:#000000;stroke-width:0.25;stroke-linecap:square;stroke-miterlimit:4;stroke-dasharray:none;stop-color:#000000"
       id="rect3272"
       width="6.8153744"
       height="4.9444866"
       x="25.79151"
       y="20.446119" />
    <g
       aria-label="S"
       id="text3276"
       style="font-style:italic;font-size:2.82223px;line-height:1.25;font-family:'Latin Modern Roman';-inkscape-font-specification:'Latin Modern Roman, Italic';stroke-width:0.264583">
      <path
         d="m 24.637172,23.182115 c 0,-0.08185 -0.01975,-0.197556 -0.09313,-0.287868 -0.07056,-0.08749 -0.104423,-0.09596 -0.372535,-0.174978 -0.05362,-0.01411 -0.141111,-0.03951 -0.155222,-0.04516 -0.09596,-0.04233 -0.143934,-0.132644 -0.143934,-0.248356 0,-0.231423 0.217312,-0.482601 0.457201,-0.482601 0.26529,0 0.344312,0.191911 0.344312,0.400756 0,0.07338 -0.0028,0.09313 -0.01411,0.155223 l -0.0028,0.03951 c 0,0.02822 0.02822,0.02822 0.04233,0.02822 0.03104,0 0.03951,-0.0028 0.0508,-0.0508 L 24.89684,21.93186 c 0.0028,-0.01129 0.0056,-0.02822 0.0056,-0.03951 0,0 -0.0028,-0.02822 -0.03104,-0.02822 -0.01411,0 -0.01693,0.0028 -0.04233,0.03387 l -0.127,0.158045 c -0.110067,-0.189089 -0.310446,-0.191912 -0.36689,-0.191912 -0.347135,0 -0.654758,0.347135 -0.654758,0.671691 0,0.146756 0.06209,0.296334 0.225779,0.372534 0.01693,0.0085 0.07902,0.0254 0.121356,0.03669 l 0.138289,0.03951 c 0.146756,0.04233 0.169334,0.0508 0.217312,0.1016 0.03104,0.03951 0.06209,0.1016 0.06209,0.203201 0,0.256822 -0.220134,0.539045 -0.471313,0.539045 -0.211667,0 -0.423334,-0.1016 -0.423334,-0.395112 0,-0.06491 0.01411,-0.141111 0.02258,-0.172156 l 0.0028,-0.01693 c 0,-0.03104 -0.0254,-0.03104 -0.04233,-0.03104 -0.03387,0 -0.03951,0.0056 -0.0508,0.04798 l -0.146756,0.589846 c -0.0056,0.01976 -0.0085,0.02822 -0.0085,0.03669 0,0.01693 0.01411,0.02822 0.03104,0.02822 0.01976,0 0.02258,-0.0056 0.04516,-0.03387 0.03104,-0.03387 0.104422,-0.124178 0.132645,-0.160867 0.104422,0.1524 0.285045,0.194734 0.431801,0.194734 0.355601,0 0.668868,-0.378179 0.668868,-0.73378 z"
         style="stroke-width:0.264583"
         id="path3381" />
    </g>
    <g
       aria-label="I0"
       id="text3280"
       style="font-style:italic;font-size:2.82223px;line-height:1.25;font-family:'Latin Modern Roman';-inkscape-font-specification:'Latin Modern Roman, Italic';stroke-width:0.264583"
       transform="translate(0.00868407,0.05199876)">
      <path
         d="m 40.977527,23.733365 c 0,-0.03387 -0.02258,-0.03387 -0.07902,-0.03387 -0.174978,0 -0.174978,-0.01975 -0.174978,-0.0508 0,0 0,-0.01976 0.01129,-0.06209 l 0.381001,-1.524004 c 0.02258,-0.09031 0.03951,-0.115712 0.234245,-0.115712 0.05927,0 0.08749,0 0.08749,-0.05362 0,-0.03387 -0.02822,-0.03387 -0.03951,-0.03387 -0.112889,0 -0.231423,0.0085 -0.347134,0.0085 -0.115712,0 -0.237068,-0.0085 -0.352779,-0.0085 -0.01976,0 -0.05362,0 -0.05362,0.0508 0,0.03669 0.01976,0.03669 0.0762,0.03669 0.09596,0 0.1778,0 0.1778,0.04798 0,0.0085 -0.0056,0.04516 -0.0085,0.05362 l -0.383824,1.535293 c -0.02258,0.09313 -0.04798,0.115711 -0.237067,0.115711 -0.05927,0 -0.08467,0 -0.08467,0.0508 0,0.03104 0.01976,0.03669 0.03951,0.03669 0.11289,0 0.231423,-0.0085 0.347135,-0.0085 0.115711,0 0.237067,0.0085 0.349956,0.0085 0.01976,0 0.05645,0 0.05645,-0.05362 z"
         style="stroke-width:0.264583"
         id="path3394" />
      <path
         d="m 41.986191,24.050584 c 0.07521,-0.170604 0.144921,-0.460447 0.144921,-0.609038 0,-0.07338 -0.0092,-0.311856 -0.245816,-0.311856 -0.13208,0 -0.278836,0.08622 -0.388903,0.295346 -0.08989,0.170604 -0.16877,0.491633 -0.16877,0.654899 0,0.05687 0,0.311856 0.245817,0.311856 0.121073,0 0.293512,-0.07521 0.412751,-0.341207 z m -0.176107,0.121073 c -0.04036,0.08622 -0.132081,0.179776 -0.227472,0.179776 -0.0587,0 -0.137584,-0.03669 -0.137584,-0.179776 0,-0.150425 0.137584,-0.691587 0.20179,-0.823668 0.06787,-0.137583 0.166935,-0.177941 0.229306,-0.177941 0.07521,0 0.141253,0.05503 0.141253,0.172438 0,0.135749 -0.128412,0.654899 -0.207293,0.829171 z"
         style="font-size:65%;baseline-shift:sub"
         id="path3396" />
    </g>
    <g
       aria-label="I1"
       id="text3284"
       style="font-style:italic;font-size:2.82223px;line-height:1.25;font-family:'Latin Modern Roman';-inkscape-font-specification:'Latin Modern Roman, Italic';stroke-width:0.264583">
      <path
         d="m 37.636657,23.800181 c 0,-0.03387 -0.02258,-0.03387 -0.07902,-0.03387 -0.174978,0 -0.174978,-0.01976 -0.174978,-0.0508 0,0 0,-0.01975 0.01129,-0.06209 l 0.381001,-1.524004 c 0.02258,-0.09031 0.03951,-0.115711 0.234245,-0.115711 0.05927,0 0.08749,0 0.08749,-0.05362 0,-0.03387 -0.02822,-0.03387 -0.03951,-0.03387 -0.112889,0 -0.231423,0.0085 -0.347134,0.0085 -0.115712,0 -0.237067,-0.0085 -0.352779,-0.0085 -0.01976,0 -0.05362,0 -0.05362,0.0508 0,0.03669 0.01975,0.03669 0.0762,0.03669 0.09596,0 0.1778,0 0.1778,0.04798 0,0.0085 -0.0056,0.04516 -0.0085,0.05362 l -0.383824,1.535293 c -0.02258,0.09313 -0.04798,0.115712 -0.237067,0.115712 -0.05927,0 -0.08467,0 -0.08467,0.0508 0,0.03104 0.01976,0.03669 0.03951,0.03669 0.11289,0 0.231423,-0.0085 0.347135,-0.0085 0.115711,0 0.237067,0.0085 0.349956,0.0085 0.01976,0 0.05644,0 0.05644,-0.05362 z"
         style="stroke-width:0.264583"
         id="path3389" />
      <path
         d="m 38.537088,24.383395 c 0,-0.02201 -0.01834,-0.02201 -0.04769,-0.02201 h -0.01468 c -0.02385,0 -0.05503,-0.0018 -0.07888,-0.0037 -0.04036,-0.0055 -0.05137,-0.0073 -0.05137,-0.03302 0,-0.01101 0.0037,-0.02752 0.0055,-0.03486 l 0.262326,-1.04747 c 0.0018,-0.0055 0.0055,-0.02385 0.0055,-0.02385 0,-0.01468 -0.01101,-0.02201 -0.02201,-0.02201 -0.01101,0 -0.01284,0.0018 -0.03486,0.02935 -0.141252,0.188949 -0.269664,0.20179 -0.322863,0.207293 -0.0092,0.0018 -0.02935,0.0037 -0.02935,0.03486 0,0.02201 0.02201,0.02201 0.02935,0.02201 0.02752,0 0.117405,-0.01101 0.203624,-0.07521 l -0.216465,0.869529 c -0.01468,0.0587 -0.02935,0.07705 -0.172438,0.07705 h -0.01468 c -0.03119,0 -0.05136,0 -0.05136,0.03485 0,0.02201 0.02018,0.02201 0.02752,0.02201 0.07888,0 0.161432,-0.0055 0.240313,-0.0055 0.08072,0 0.165101,0.0055 0.245816,0.0055 0.01284,0 0.03669,0 0.03669,-0.03486 z"
         style="font-size:65%;baseline-shift:sub"
         id="path3391" />
    </g>
    <g
       aria-label="I2"
       id="text3288"
       style="font-style:italic;font-size:2.82223px;line-height:1.25;font-family:'Latin Modern Roman';-inkscape-font-specification:'Latin Modern Roman, Italic';stroke-width:0.264583">
      <path
         d="m 34.295787,23.800183 c 0,-0.03387 -0.02258,-0.03387 -0.07902,-0.03387 -0.174979,0 -0.174979,-0.01975 -0.174979,-0.0508 0,0 0,-0.01975 0.01129,-0.06209 l 0.381001,-1.524004 c 0.02258,-0.09031 0.03951,-0.115711 0.234245,-0.115711 0.05927,0 0.08749,0 0.08749,-0.05362 0,-0.03387 -0.02822,-0.03387 -0.03951,-0.03387 -0.112889,0 -0.231423,0.0085 -0.347134,0.0085 -0.115712,0 -0.237067,-0.0085 -0.352779,-0.0085 -0.01975,0 -0.05362,0 -0.05362,0.0508 0,0.03669 0.01976,0.03669 0.0762,0.03669 0.09596,0 0.177801,0 0.177801,0.04798 0,0.0085 -0.0056,0.04516 -0.0085,0.05362 l -0.383823,1.535293 c -0.02258,0.09313 -0.04798,0.115711 -0.237068,0.115711 -0.05927,0 -0.08467,0 -0.08467,0.0508 0,0.03104 0.01976,0.03669 0.03951,0.03669 0.112889,0 0.231422,-0.0085 0.347134,-0.0085 0.115711,0 0.237067,0.0085 0.349956,0.0085 0.01976,0 0.05644,0 0.05644,-0.05362 z"
         style="stroke-width:0.264583"
         id="path3384" />
      <path
         d="m 35.375995,24.119236 c 0,-0.01834 -0.01468,-0.01834 -0.02752,-0.01834 -0.02201,0 -0.02385,0.0018 -0.03119,0.03118 -0.02568,0.07521 -0.09723,0.198121 -0.220134,0.198121 -0.05136,0 -0.122908,-0.01468 -0.152259,-0.02201 -0.06604,-0.01468 -0.137584,-0.03119 -0.194452,-0.03119 -0.02018,0 -0.03669,0.0037 -0.04036,0.0055 0.09172,-0.157762 0.225638,-0.232975 0.282506,-0.265995 0.282505,-0.159597 0.44944,-0.273333 0.44944,-0.509977 0,-0.210962 -0.143087,-0.310022 -0.286174,-0.310022 -0.271499,0 -0.421924,0.370559 -0.421924,0.489798 0,0.03669 0.01101,0.115571 0.09356,0.115571 0.144922,0 0.221969,-0.220134 0.221969,-0.289843 0,-0.03302 -0.01651,-0.09723 -0.04036,-0.09723 -0.01101,0 -0.02018,0.0092 -0.02018,0.02018 0,0 0,0.0073 0.0018,0.01101 0.01101,0.02201 0.01834,0.04586 0.01834,0.06787 0,0.0532 -0.06788,0.247651 -0.179776,0.247651 -0.02201,0 -0.04036,-0.0092 -0.04036,-0.06054 0,-0.119239 0.137583,-0.464116 0.361386,-0.464116 0.07521,0 0.161432,0.04953 0.161432,0.20179 0,0.265995 -0.159597,0.420088 -0.341208,0.528321 -0.08255,0.04953 -0.159597,0.09356 -0.236644,0.188948 -0.128411,0.154094 -0.14859,0.28434 -0.14859,0.28434 0,0.01834 0.01834,0.01834 0.02752,0.01834 0.02201,0 0.02568,-0.0037 0.03119,-0.02385 0.01468,-0.05137 0.0477,-0.117405 0.102729,-0.117405 0.0587,0 0.110067,0.03669 0.155929,0.06787 0.04769,0.03302 0.104563,0.07338 0.177941,0.07338 0.210962,0 0.295347,-0.319194 0.295347,-0.339373 z"
         style="font-size:65%;baseline-shift:sub"
         id="path3386" />
    </g>
    <path
       style="fill:none;stroke:#000000;stroke-width:0.264583px;stroke-linecap:butt;stroke-linejoin:miter;stroke-opacity:1"
       d="m 15.56845,26.44894 v 1.403164 h 27.261495 v 0 -1.403164"
       id="path3296" />
    <path
       style="fill:none;stroke:#000000;stroke-width:0.264583px;stroke-linecap:butt;stroke-linejoin:miter;stroke-opacity:1"
       d="m 42.829945,26.44894 v 1.403164 H 70.09144 v 0 -1.403164"
       id="path3296-2" />
    <g
       aria-label="System Registers"
       id="text3315"
       style="font-style:italic;font-size:2.82223px;line-height:1.25;font-family:'Latin Modern Roman';-inkscape-font-specification:'Latin Modern Roman, Italic';stroke-width:0.264583">
      <path
         d="m 19.492237,30.264758 c 0,-0.08184 -0.01976,-0.197556 -0.09313,-0.287867 -0.07056,-0.08749 -0.104422,-0.09596 -0.372534,-0.174978 -0.05362,-0.01411 -0.141112,-0.03951 -0.155223,-0.04516 -0.09596,-0.04233 -0.143934,-0.132645 -0.143934,-0.248356 0,-0.231423 0.217312,-0.482602 0.457202,-0.482602 0.265289,0 0.344312,0.191912 0.344312,0.400757 0,0.07338 -0.0028,0.09313 -0.01411,0.155223 l -0.0028,0.03951 c 0,0.02822 0.02822,0.02822 0.04233,0.02822 0.03104,0 0.03951,-0.0028 0.0508,-0.0508 l 0.146756,-0.584202 c 0.0028,-0.01129 0.0056,-0.02822 0.0056,-0.03951 0,0 -0.0028,-0.02822 -0.03104,-0.02822 -0.01411,0 -0.01693,0.0028 -0.04233,0.03387 l -0.127,0.158044 c -0.110067,-0.189089 -0.310445,-0.191911 -0.36689,-0.191911 -0.347134,0 -0.654757,0.347134 -0.654757,0.671691 0,0.146756 0.06209,0.296334 0.225778,0.372534 0.01693,0.0085 0.07902,0.0254 0.121356,0.03669 l 0.138289,0.03951 c 0.146756,0.04233 0.169334,0.0508 0.217312,0.1016 0.03104,0.03951 0.06209,0.101601 0.06209,0.203201 0,0.256823 -0.220134,0.539046 -0.471312,0.539046 -0.211668,0 -0.423335,-0.1016 -0.423335,-0.395112 0,-0.06491 0.01411,-0.141112 0.02258,-0.172156 l 0.0028,-0.01693 c 0,-0.03104 -0.0254,-0.03104 -0.04233,-0.03104 -0.03387,0 -0.03951,0.0056 -0.0508,0.04798 l -0.146756,0.589846 c -0.0056,0.01975 -0.0085,0.02822 -0.0085,0.03669 0,0.01693 0.01411,0.02822 0.03105,0.02822 0.01975,0 0.02258,-0.0056 0.04515,-0.03387 0.03105,-0.03387 0.104423,-0.124178 0.132645,-0.160867 0.104423,0.152401 0.285045,0.194734 0.431801,0.194734 0.355601,0 0.668869,-0.378179 0.668869,-0.73378 z"
         style="stroke-width:0.264583"
         id="path3441" />
      <path
         d="m 20.731191,30.944916 0.276579,-1.111959 c 0.0028,-0.01693 0.0085,-0.03104 0.0085,-0.03951 0,-0.03104 -0.02258,-0.07338 -0.07902,-0.07338 -0.08467,0 -0.104423,0.08184 -0.110067,0.104422 l -0.206023,0.829736 c -0.01975,0.08184 -0.132645,0.251179 -0.299156,0.251179 -0.127001,0 -0.152401,-0.124179 -0.152401,-0.217312 0,-0.172156 0.09313,-0.426157 0.16369,-0.618069 0.02258,-0.05927 0.03669,-0.09878 0.03669,-0.1524 0,-0.141112 -0.09313,-0.228601 -0.21449,-0.228601 -0.262467,0 -0.361245,0.41769 -0.361245,0.434624 0,0.02822 0.02822,0.02822 0.04233,0.02822 0.03669,0 0.03951,-0.0056 0.0508,-0.04516 0.02258,-0.08749 0.09878,-0.355601 0.262468,-0.355601 0.03104,0 0.06209,0.0085 0.06209,0.08185 0,0.06773 -0.02822,0.143934 -0.06773,0.254001 -0.07338,0.197556 -0.146756,0.406401 -0.146756,0.553157 0,0.245534 0.16369,0.327379 0.31609,0.327379 0.129823,0 0.217312,-0.06773 0.254001,-0.104423 -0.107245,0.465668 -0.31609,0.589846 -0.457202,0.589846 -0.135467,0 -0.174978,-0.107245 -0.174978,-0.121356 0,0 0.0028,-0.0056 0.02258,-0.0085 0.08749,-0.01411 0.121356,-0.09031 0.121356,-0.135467 0,-0.05927 -0.04516,-0.09031 -0.09596,-0.09031 -0.03387,0 -0.143934,0.01693 -0.143934,0.174978 0,0.146756 0.115712,0.242712 0.270934,0.242712 0.293512,0 0.550335,-0.290689 0.620891,-0.57009 z"
         style="stroke-width:0.264583"
         id="path3443" />
      <path
         d="m 22.040701,30.493359 c 0,-0.245534 -0.220134,-0.296334 -0.335846,-0.321734 -0.07902,-0.01693 -0.180622,-0.03951 -0.180622,-0.160867 0,-0.06773 0.05927,-0.259646 0.285045,-0.259646 0.0762,0 0.180623,0.02822 0.211667,0.13829 -0.09031,0.01129 -0.112889,0.08749 -0.112889,0.115711 0,0.03104 0.01693,0.07902 0.08467,0.07902 0.04798,0 0.121356,-0.03387 0.121356,-0.155223 0,-0.129823 -0.115712,-0.23989 -0.301979,-0.23989 -0.330201,0 -0.445912,0.270934 -0.445912,0.41769 0,0.217312 0.183445,0.256823 0.262467,0.273757 0.124178,0.02822 0.251179,0.05644 0.251179,0.208845 0,0.09031 -0.0762,0.31609 -0.36689,0.31609 -0.06209,0 -0.225779,-0.01411 -0.270934,-0.158045 0.143933,-0.01411 0.143933,-0.13829 0.143933,-0.13829 0,-0.05362 -0.03669,-0.09031 -0.09596,-0.09031 -0.06491,0 -0.143934,0.04798 -0.143934,0.174978 0,0.172156 0.163689,0.273757 0.364068,0.273757 0.423334,0 0.530579,-0.344312 0.530579,-0.474135 z"
         style="stroke-width:0.264583"
         id="path3445" />
      <path
         d="m 23.090566,30.53287 c 0,-0.02822 -0.02258,-0.02822 -0.04233,-0.02822 -0.03387,0 -0.03387,0.0028 -0.05645,0.05362 -0.0508,0.135467 -0.163689,0.347135 -0.324556,0.347135 -0.0762,0 -0.0762,-0.07056 -0.0762,-0.115712 0,-0.01976 0,-0.06491 0.01976,-0.143934 l 0.208845,-0.838202 h 0.23989 c 0.04798,0 0.07902,0 0.07902,-0.05362 0,-0.03387 -0.0254,-0.03387 -0.07056,-0.03387 H 22.84221 l 0.104422,-0.41769 c 0.01129,-0.03951 0.01129,-0.04516 0.01129,-0.05927 0,-0.05927 -0.04798,-0.07338 -0.0762,-0.07338 -0.07056,0 -0.09878,0.05927 -0.110067,0.1016 l -0.110067,0.448735 h -0.239889 c -0.04798,0 -0.07902,0 -0.07902,0.05362 0,0.03387 0.0254,0.03387 0.07056,0.03387 h 0.225778 l -0.2032,0.80998 c -0.0028,0.01129 -0.01411,0.05645 -0.01411,0.09596 0,0.141111 0.09313,0.254001 0.239889,0.254001 0.285045,0 0.428979,-0.420513 0.428979,-0.434624 z"
         style="stroke-width:0.264583"
         id="path3447" />
      <path
         d="m 24.343633,30.642937 c 0,-0.01411 -0.02258,-0.04516 -0.04516,-0.04516 -0.01129,0 -0.01411,0.0028 -0.03669,0.03104 -0.208845,0.26529 -0.460023,0.276579 -0.508001,0.276579 -0.183445,0 -0.21449,-0.200379 -0.21449,-0.310446 0,-0.107245 0.02822,-0.234245 0.04798,-0.310445 h 0.110067 c 0.08467,0 0.273756,-0.0085 0.409223,-0.06209 0.222957,-0.09031 0.222957,-0.273756 0.222957,-0.293512 0,-0.129823 -0.104423,-0.23989 -0.285046,-0.23989 -0.296334,0 -0.699913,0.285046 -0.699913,0.78458 0,0.254001 0.135467,0.493891 0.403579,0.493891 0.361246,0 0.595491,-0.282223 0.595491,-0.324557 z m -0.121356,-0.719669 c 0,0.299157 -0.465668,0.299157 -0.558802,0.299157 h -0.05927 c 0.121356,-0.462846 0.412046,-0.471313 0.440268,-0.471313 0.11289,0 0.177801,0.0762 0.177801,0.172156 z"
         style="stroke-width:0.264583"
         id="path3449" />
      <path
         d="m 26.69737,30.53287 c 0,-0.02822 -0.02258,-0.02822 -0.04233,-0.02822 -0.03669,0 -0.03669,0.0056 -0.04798,0.04798 -0.02258,0.0762 -0.09878,0.352779 -0.262467,0.352779 -0.05927,0 -0.06209,-0.04233 -0.06209,-0.08184 0,-0.07056 0.02822,-0.143934 0.0508,-0.211667 0.05644,-0.149579 0.172156,-0.465668 0.172156,-0.629358 0,-0.237067 -0.16369,-0.293512 -0.296335,-0.293512 -0.197556,0 -0.338667,0.124178 -0.423334,0.248357 -0.02258,-0.194734 -0.169334,-0.248357 -0.296334,-0.248357 -0.169334,0 -0.307623,0.09313 -0.403579,0.222957 -0.01976,-0.13829 -0.115712,-0.222957 -0.237067,-0.222957 -0.101601,0 -0.158045,0.06491 -0.203201,0.149579 -0.05362,0.112889 -0.09031,0.285045 -0.09031,0.285045 0,0.02822 0.02822,0.02822 0.04233,0.02822 0.03669,0 0.03951,-0.0028 0.05362,-0.06491 0.0508,-0.197556 0.104423,-0.335846 0.191912,-0.335846 0.07338,0 0.07338,0.08185 0.07338,0.11289 0,0.04516 -0.0085,0.09878 -0.01976,0.143933 l -0.211667,0.846669 c -0.0056,0.01693 -0.0085,0.03105 -0.0085,0.03951 0,0.03104 0.02258,0.07338 0.07902,0.07338 0.03387,0 0.08184,-0.01976 0.1016,-0.07338 l 0.112889,-0.451557 c 0.01411,-0.06209 0.03104,-0.121356 0.04516,-0.183445 0.03669,-0.138289 0.03669,-0.143934 0.07056,-0.203201 0.08185,-0.141111 0.2032,-0.304801 0.397934,-0.304801 0.129823,0 0.129823,0.143934 0.129823,0.186268 0,0.0762 -0.01976,0.158044 -0.0254,0.183445 l -0.183445,0.733779 c -0.0056,0.01693 -0.0085,0.03105 -0.0085,0.03951 0,0.03104 0.02258,0.07338 0.07902,0.07338 0.03387,0 0.08184,-0.01976 0.1016,-0.07338 l 0.112889,-0.451557 c 0.01411,-0.06209 0.03104,-0.121356 0.04516,-0.183445 0.03669,-0.138289 0.03669,-0.143934 0.07056,-0.203201 0.08184,-0.141111 0.2032,-0.304801 0.397934,-0.304801 0.129823,0 0.129823,0.143934 0.129823,0.186268 0,0.174978 -0.124179,0.510823 -0.16369,0.623712 -0.03669,0.09596 -0.04515,0.121356 -0.04515,0.180623 0,0.124178 0.07902,0.225779 0.214489,0.225779 0.262467,0 0.358423,-0.420513 0.358423,-0.434624 z"
         style="stroke-width:0.264583"
         id="path3451" />
      <path
         d="m 29.680464,30.676804 c 0,-0.01976 -0.0056,-0.03669 -0.04233,-0.03669 -0.03669,0 -0.03951,0.01411 -0.04798,0.04798 -0.04798,0.158045 -0.132645,0.248356 -0.220134,0.248356 -0.08467,0 -0.09313,-0.0762 -0.09313,-0.166512 0,-0.07338 0.0085,-0.141111 0.01693,-0.214489 0.0085,-0.06491 0.02258,-0.189089 0.02258,-0.248356 0,-0.158045 -0.09878,-0.276579 -0.242711,-0.327379 0.400756,-0.1016 0.592668,-0.347134 0.592668,-0.553157 0,-0.222956 -0.21449,-0.41769 -0.567268,-0.41769 H 28.35402 c -0.04516,0 -0.0762,0 -0.0762,0.05362 0,0.03387 0.02258,0.03387 0.0762,0.03387 0.08749,0 0.163689,0 0.163689,0.04798 0,0.0085 0,0.01411 -0.01129,0.05362 l -0.381001,1.532471 c -0.02258,0.09596 -0.03951,0.118534 -0.231423,0.118534 -0.04516,0 -0.0762,0 -0.0762,0.05362 0,0.03387 0.03104,0.03387 0.03951,0.03387 0.107245,0 0.220134,-0.0085 0.327379,-0.0085 0.110067,0 0.225779,0.0085 0.335846,0.0085 0.01975,0 0.05362,0 0.05362,-0.0508 0,-0.03669 -0.01976,-0.03669 -0.0762,-0.03669 -0.16369,0 -0.16369,-0.02258 -0.16369,-0.04798 0,-0.01129 0,-0.01693 0.01129,-0.05645 l 0.183445,-0.742246 h 0.304801 c 0.118534,0 0.26529,0.04516 0.26529,0.248356 0,0.03951 -0.0085,0.06491 -0.04798,0.222956 -0.03104,0.132645 -0.04233,0.172156 -0.04233,0.225779 0,0.208845 0.172156,0.299156 0.349957,0.299156 0.237067,0 0.321734,-0.299156 0.321734,-0.321734 z m -0.268112,-1.315159 c 0,0.01693 -0.01129,0.2794 -0.163689,0.431801 -0.08467,0.08185 -0.225778,0.146756 -0.41769,0.146756 h -0.285045 l 0.183445,-0.742247 c 0.01975,-0.08467 0.04233,-0.09031 0.06209,-0.09596 0.01975,-0.0056 0.110067,-0.0056 0.163689,-0.0056 0.180623,0 0.457201,0 0.457201,0.26529 z"
         style="stroke-width:0.264583"
         id="path3453" />
      <path
         d="m 30.87426,30.642937 c 0,-0.01411 -0.02258,-0.04516 -0.04516,-0.04516 -0.01129,0 -0.01411,0.0028 -0.03669,0.03104 -0.208845,0.26529 -0.460023,0.276579 -0.508001,0.276579 -0.183445,0 -0.21449,-0.200379 -0.21449,-0.310446 0,-0.107245 0.02822,-0.234245 0.04798,-0.310445 h 0.110067 c 0.08467,0 0.273757,-0.0085 0.409224,-0.06209 0.222956,-0.09031 0.222956,-0.273756 0.222956,-0.293512 0,-0.129823 -0.104423,-0.23989 -0.285045,-0.23989 -0.296335,0 -0.699913,0.285046 -0.699913,0.78458 0,0.254001 0.135467,0.493891 0.403578,0.493891 0.361246,0 0.595491,-0.282223 0.595491,-0.324557 z m -0.121356,-0.719669 c 0,0.299157 -0.465668,0.299157 -0.558801,0.299157 h -0.05927 c 0.121356,-0.462846 0.412045,-0.471313 0.440268,-0.471313 0.112889,0 0.1778,0.0762 0.1778,0.172156 z"
         style="stroke-width:0.264583"
         id="path3455" />
      <path
         d="m 31.763259,31.11425 0.307623,-1.236137 c 0.01129,-0.04233 0.01129,-0.04798 0.01129,-0.05927 0,-0.05927 -0.04798,-0.07338 -0.0762,-0.07338 -0.03387,0 -0.09878,0.02258 -0.110067,0.104422 -0.03951,-0.08184 -0.115711,-0.160867 -0.237067,-0.160867 -0.31609,0 -0.640646,0.41769 -0.640646,0.815625 0,0.239889 0.132645,0.431801 0.344312,0.431801 0.143934,0 0.26529,-0.115711 0.299156,-0.149578 l -0.05927,0.237067 c -0.03387,0.141112 -0.0508,0.200379 -0.129823,0.296334 -0.112889,0.132645 -0.225778,0.132645 -0.268112,0.132645 -0.03669,0 -0.124178,0 -0.200378,-0.03104 0.05644,-0.02258 0.09031,-0.08185 0.09031,-0.129823 0,-0.03669 -0.0254,-0.09031 -0.09878,-0.09031 -0.0508,0 -0.138289,0.03951 -0.138289,0.149578 0,0.112889 0.104422,0.163689 0.34149,0.163689 0.296334,0 0.510823,-0.186267 0.564446,-0.400756 z m -0.04516,-0.550335 c -0.02258,0.09031 -0.194734,0.310445 -0.349957,0.310445 -0.1524,0 -0.158044,-0.214489 -0.158044,-0.245534 0,-0.135467 0.08467,-0.465668 0.143933,-0.598313 0.07056,-0.1524 0.194734,-0.279401 0.304801,-0.279401 0.169334,0 0.194734,0.237068 0.194734,0.259646 l -0.0085,0.03951 z"
         style="stroke-width:0.264583"
         id="path3457" />
      <path
         d="m 32.940126,30.53287 c 0,-0.02822 -0.02258,-0.02822 -0.04233,-0.02822 -0.03669,0 -0.03669,0.0056 -0.04798,0.04798 -0.02258,0.08184 -0.09878,0.352779 -0.262468,0.352779 -0.02258,0 -0.06209,-0.0028 -0.06209,-0.07902 0,-0.07338 0.03669,-0.166511 0.07338,-0.270934 l 0.180623,-0.482601 c 0.02822,-0.08184 0.03387,-0.104423 0.03387,-0.158045 0,-0.155223 -0.107245,-0.225779 -0.211667,-0.225779 -0.26529,0 -0.361246,0.420513 -0.361246,0.434624 0,0.02822 0.02822,0.02822 0.04233,0.02822 0.03669,0 0.03951,-0.0056 0.0508,-0.04516 0.0254,-0.09313 0.09878,-0.355601 0.262467,-0.355601 0.03105,0 0.06209,0.01411 0.06209,0.07902 0,0.06773 -0.03104,0.149578 -0.0508,0.2032 l -0.08467,0.234246 -0.104422,0.2794 c -0.03951,0.107245 -0.0508,0.13829 -0.0508,0.194734 0,0.110067 0.06773,0.225779 0.214489,0.225779 0.26529,0 0.358423,-0.423335 0.358423,-0.434624 z m 0.0762,-1.320804 c 0,-0.05927 -0.04233,-0.121355 -0.127,-0.121355 -0.09031,0 -0.180623,0.08749 -0.180623,0.1778 0,0.06209 0.04516,0.121356 0.127001,0.121356 0.09031,0 0.180622,-0.08749 0.180622,-0.177801 z"
         style="stroke-width:0.264583"
         id="path3459" />
      <path
         d="m 33.981526,30.493359 c 0,-0.245534 -0.220134,-0.296334 -0.335845,-0.321734 -0.07902,-0.01693 -0.180623,-0.03951 -0.180623,-0.160867 0,-0.06773 0.05927,-0.259646 0.285045,-0.259646 0.0762,0 0.180623,0.02822 0.211668,0.13829 -0.09031,0.01129 -0.11289,0.08749 -0.11289,0.115711 0,0.03104 0.01693,0.07902 0.08467,0.07902 0.04798,0 0.121356,-0.03387 0.121356,-0.155223 0,-0.129823 -0.115711,-0.23989 -0.301978,-0.23989 -0.330201,0 -0.445913,0.270934 -0.445913,0.41769 0,0.217312 0.183445,0.256823 0.262468,0.273757 0.124178,0.02822 0.251178,0.05644 0.251178,0.208845 0,0.09031 -0.0762,0.31609 -0.36689,0.31609 -0.06209,0 -0.225778,-0.01411 -0.270934,-0.158045 0.143934,-0.01411 0.143934,-0.13829 0.143934,-0.13829 0,-0.05362 -0.03669,-0.09031 -0.09596,-0.09031 -0.06491,0 -0.143934,0.04798 -0.143934,0.174978 0,0.172156 0.16369,0.273757 0.364068,0.273757 0.423334,0 0.530579,-0.344312 0.530579,-0.474135 z"
         style="stroke-width:0.264583"
         id="path3461" />
      <path
         d="m 35.031392,30.53287 c 0,-0.02822 -0.02258,-0.02822 -0.04233,-0.02822 -0.03387,0 -0.03387,0.0028 -0.05644,0.05362 -0.0508,0.135467 -0.163689,0.347135 -0.324557,0.347135 -0.0762,0 -0.0762,-0.07056 -0.0762,-0.115712 0,-0.01976 0,-0.06491 0.01976,-0.143934 l 0.208845,-0.838202 h 0.239889 c 0.04798,0 0.07902,0 0.07902,-0.05362 0,-0.03387 -0.0254,-0.03387 -0.07056,-0.03387 h -0.225778 l 0.104422,-0.41769 c 0.01129,-0.03951 0.01129,-0.04516 0.01129,-0.05927 0,-0.05927 -0.04798,-0.07338 -0.0762,-0.07338 -0.07056,0 -0.09878,0.05927 -0.110067,0.1016 l -0.110067,0.448735 h -0.23989 c -0.04798,0 -0.07902,0 -0.07902,0.05362 0,0.03387 0.0254,0.03387 0.07056,0.03387 h 0.225778 l -0.2032,0.80998 c -0.0028,0.01129 -0.01411,0.05645 -0.01411,0.09596 0,0.141111 0.09313,0.254001 0.23989,0.254001 0.285045,0 0.428979,-0.420513 0.428979,-0.434624 z"
         style="stroke-width:0.264583"
         id="path3463" />
      <path
         d="m 36.284459,30.642937 c 0,-0.01411 -0.02258,-0.04516 -0.04516,-0.04516 -0.01129,0 -0.01411,0.0028 -0.03669,0.03104 -0.208845,0.26529 -0.460023,0.276579 -0.508001,0.276579 -0.183445,0 -0.214489,-0.200379 -0.214489,-0.310446 0,-0.107245 0.02822,-0.234245 0.04798,-0.310445 h 0.110067 c 0.08467,0 0.273757,-0.0085 0.409224,-0.06209 0.222956,-0.09031 0.222956,-0.273756 0.222956,-0.293512 0,-0.129823 -0.104423,-0.23989 -0.285045,-0.23989 -0.296334,0 -0.699913,0.285046 -0.699913,0.78458 0,0.254001 0.135467,0.493891 0.403579,0.493891 0.361245,0 0.59549,-0.282223 0.59549,-0.324557 z m -0.121356,-0.719669 c 0,0.299157 -0.465668,0.299157 -0.558801,0.299157 h -0.05927 c 0.121356,-0.462846 0.412045,-0.471313 0.440268,-0.471313 0.112889,0 0.1778,0.0762 0.1778,0.172156 z"
         style="stroke-width:0.264583"
         id="path3465" />
      <path
         d="m 37.641949,29.866824 c 0,-0.146756 -0.183444,-0.177801 -0.276578,-0.177801 -0.194734,0 -0.296334,0.141112 -0.34149,0.203201 -0.03104,-0.149578 -0.141111,-0.203201 -0.234245,-0.203201 -0.1016,0 -0.158045,0.06491 -0.203201,0.149579 -0.05362,0.112889 -0.09031,0.285045 -0.09031,0.285045 0,0.02822 0.02822,0.02822 0.04233,0.02822 0.03669,0 0.03951,-0.0028 0.05362,-0.06491 0.0508,-0.197556 0.104422,-0.335846 0.191912,-0.335846 0.07338,0 0.07338,0.08185 0.07338,0.11289 0,0.04516 -0.0085,0.09878 -0.01976,0.143933 l -0.211667,0.846669 c -0.0056,0.01693 -0.0085,0.03105 -0.0085,0.03951 0,0.03104 0.02258,0.07338 0.07902,0.07338 0.08467,0 0.104423,-0.08184 0.110067,-0.104423 l 0.183445,-0.739424 c 0.0028,-0.0085 0.129823,-0.372535 0.372535,-0.372535 0.01411,0 0.09313,0 0.149578,0.03951 -0.09878,0.03104 -0.107245,0.121356 -0.107245,0.135467 0,0.03669 0.0254,0.09031 0.09878,0.09031 0.0508,0 0.138289,-0.03951 0.138289,-0.149578 z"
         style="stroke-width:0.264583"
         id="path3467" />
      <path
         d="m 38.561992,30.493359 c 0,-0.245534 -0.220133,-0.296334 -0.335845,-0.321734 -0.07902,-0.01693 -0.180623,-0.03951 -0.180623,-0.160867 0,-0.06773 0.05927,-0.259646 0.285046,-0.259646 0.0762,0 0.180622,0.02822 0.211667,0.13829 -0.09031,0.01129 -0.112889,0.08749 -0.112889,0.115711 0,0.03104 0.01693,0.07902 0.08467,0.07902 0.04798,0 0.121355,-0.03387 0.121355,-0.155223 0,-0.129823 -0.115711,-0.23989 -0.301978,-0.23989 -0.330201,0 -0.445913,0.270934 -0.445913,0.41769 0,0.217312 0.183445,0.256823 0.262468,0.273757 0.124178,0.02822 0.251178,0.05644 0.251178,0.208845 0,0.09031 -0.0762,0.31609 -0.36689,0.31609 -0.06209,0 -0.225778,-0.01411 -0.270934,-0.158045 0.143934,-0.01411 0.143934,-0.13829 0.143934,-0.13829 0,-0.05362 -0.03669,-0.09031 -0.09596,-0.09031 -0.06491,0 -0.143933,0.04798 -0.143933,0.174978 0,0.172156 0.163689,0.273757 0.364067,0.273757 0.423335,0 0.530579,-0.344312 0.530579,-0.474135 z"
         style="stroke-width:0.264583"
         id="path3469" />
    </g>
    <g
       aria-label="User Registers"
       id="text3319"
       style="font-style:italic;font-size:2.82223px;line-height:1.25;font-family:'Latin Modern Roman';-inkscape-font-specification:'Latin Modern Roman, Italic';stroke-width:0.264583">
      <path
         d="m 49.510795,29.112369 c 0,-0.02258 -0.01129,-0.03669 -0.03669,-0.03669 -0.08467,0 -0.177801,0.0085 -0.26529,0.0085 -0.09031,0 -0.183445,-0.0085 -0.270934,-0.0085 -0.01411,0 -0.0508,0 -0.0508,0.05362 0,0.03104 0.0254,0.03387 0.0508,0.03387 0.146756,0.0056 0.169334,0.06209 0.169334,0.121356 0,0.0254 -0.0056,0.04516 -0.01129,0.06773 l -0.251179,1.004714 c -0.09031,0.364067 -0.389467,0.62089 -0.654757,0.62089 -0.146756,0 -0.301979,-0.09596 -0.301979,-0.352778 0,-0.06209 0.01411,-0.152401 0.02822,-0.21449 l 0.282223,-1.134536 c 0.02258,-0.09031 0.04516,-0.11289 0.222956,-0.11289 0.05927,0 0.08467,0 0.08467,-0.0508 0,-0.03104 -0.01976,-0.03669 -0.03951,-0.03669 -0.107244,0 -0.222956,0.0085 -0.333023,0.0085 -0.112889,0 -0.2286,-0.0085 -0.338667,-0.0085 -0.01693,0 -0.05362,0 -0.05362,0.05362 0,0.03387 0.02258,0.03387 0.0762,0.03387 0.08749,0 0.163689,0 0.163689,0.04798 0,0.0085 0,0.01411 -0.01129,0.05362 l -0.270934,1.089381 c -0.02258,0.09031 -0.02258,0.1524 -0.02258,0.180622 0,0.338668 0.237067,0.53058 0.502357,0.53058 0.358423,0 0.671691,-0.36689 0.747891,-0.677336 l 0.256823,-1.032936 c 0.04516,-0.180623 0.2032,-0.189089 0.285045,-0.191912 0.0085,0 0.04233,-0.0028 0.04233,-0.0508 z"
         style="stroke-width:0.264583"
         id="path3414" />
      <path
         d="m 50.168367,30.560173 c 0,-0.245534 -0.220134,-0.296334 -0.335845,-0.321734 -0.07902,-0.01693 -0.180623,-0.03951 -0.180623,-0.160867 0,-0.06773 0.05927,-0.259645 0.285045,-0.259645 0.0762,0 0.180623,0.02822 0.211668,0.138289 -0.09031,0.01129 -0.11289,0.08749 -0.11289,0.115712 0,0.03104 0.01693,0.07902 0.08467,0.07902 0.04798,0 0.121356,-0.03387 0.121356,-0.155223 0,-0.129822 -0.115711,-0.239889 -0.301978,-0.239889 -0.330201,0 -0.445913,0.270934 -0.445913,0.41769 0,0.217312 0.183445,0.256823 0.262468,0.273756 0.124178,0.02822 0.251178,0.05645 0.251178,0.208845 0,0.09031 -0.0762,0.31609 -0.36689,0.31609 -0.06209,0 -0.225778,-0.01411 -0.270934,-0.158045 0.143934,-0.01411 0.143934,-0.138289 0.143934,-0.138289 0,-0.05362 -0.03669,-0.09031 -0.09596,-0.09031 -0.06491,0 -0.143934,0.04798 -0.143934,0.174979 0,0.172156 0.16369,0.273756 0.364068,0.273756 0.423334,0 0.530579,-0.344312 0.53058,-0.474135 z"
         style="stroke-width:0.264583"
         id="path3416" />
      <path
         d="m 51.534322,30.709752 c 0,-0.01411 -0.02258,-0.04516 -0.04516,-0.04516 -0.01129,0 -0.01411,0.0028 -0.03669,0.03104 -0.208845,0.26529 -0.460024,0.276579 -0.508002,0.276579 -0.183445,0 -0.214489,-0.200378 -0.214489,-0.310445 0,-0.107245 0.02822,-0.234245 0.04798,-0.310446 h 0.110067 c 0.08467,0 0.273756,-0.0085 0.409223,-0.06209 0.222956,-0.09031 0.222956,-0.273756 0.222956,-0.293512 0,-0.129822 -0.104422,-0.239889 -0.285045,-0.239889 -0.296334,0 -0.699913,0.285045 -0.699913,0.78458 0,0.254 0.135467,0.49389 0.403579,0.49389 0.361245,0 0.59549,-0.282223 0.59549,-0.324556 z m -0.121356,-0.719669 c 0,0.299156 -0.465668,0.299156 -0.558801,0.299156 h -0.05927 c 0.121356,-0.462845 0.412046,-0.471312 0.440268,-0.471312 0.112889,0 0.1778,0.0762 0.1778,0.172156 z"
         style="stroke-width:0.264583"
         id="path3418" />
      <path
         d="m 52.891812,29.933638 c 0,-0.146756 -0.183445,-0.1778 -0.276578,-0.1778 -0.194734,0 -0.296335,0.141111 -0.34149,0.2032 -0.03104,-0.149578 -0.141112,-0.2032 -0.234245,-0.2032 -0.101601,0 -0.158045,0.06491 -0.203201,0.149578 -0.05362,0.112889 -0.09031,0.285045 -0.09031,0.285045 0,0.02822 0.02822,0.02822 0.04233,0.02822 0.03669,0 0.03951,-0.0028 0.05362,-0.06491 0.0508,-0.197556 0.104422,-0.335845 0.191911,-0.335845 0.07338,0 0.07338,0.08184 0.07338,0.112889 0,0.04516 -0.0085,0.09878 -0.01976,0.143934 l -0.211668,0.846669 c -0.0056,0.01693 -0.0085,0.03104 -0.0085,0.03951 0,0.03104 0.02258,0.07338 0.07902,0.07338 0.08467,0 0.104423,-0.08184 0.110067,-0.104423 l 0.183445,-0.739424 c 0.0028,-0.0085 0.129823,-0.372534 0.372534,-0.372534 0.01411,0 0.09313,0 0.149579,0.03951 -0.09878,0.03105 -0.107245,0.121356 -0.107245,0.135467 0,0.03669 0.0254,0.09031 0.09878,0.09031 0.0508,0 0.138289,-0.03951 0.138289,-0.149578 z"
         style="stroke-width:0.264583"
         id="path3420" />
      <path
         d="m 55.75355,30.743618 c 0,-0.01975 -0.0056,-0.03669 -0.04233,-0.03669 -0.03669,0 -0.03951,0.01411 -0.04798,0.04798 -0.04798,0.158045 -0.132645,0.248356 -0.220134,0.248356 -0.08467,0 -0.09313,-0.0762 -0.09313,-0.166511 0,-0.07338 0.0085,-0.141112 0.01693,-0.21449 0.0085,-0.06491 0.02258,-0.189089 0.02258,-0.248356 0,-0.158045 -0.09878,-0.276578 -0.242712,-0.327379 0.400757,-0.1016 0.592668,-0.347134 0.592668,-0.553157 0,-0.222956 -0.214489,-0.41769 -0.567268,-0.41769 h -0.745069 c -0.04516,0 -0.0762,0 -0.0762,0.05362 0,0.03387 0.02258,0.03387 0.0762,0.03387 0.08749,0 0.16369,0 0.16369,0.04798 0,0.0085 0,0.01411 -0.01129,0.05362 l -0.381001,1.532471 c -0.02258,0.09596 -0.03951,0.118533 -0.231423,0.118533 -0.04516,0 -0.0762,0 -0.0762,0.05362 0,0.03387 0.03104,0.03387 0.03951,0.03387 0.107244,0 0.220134,-0.0085 0.327378,-0.0085 0.110067,0 0.225779,0.0085 0.335846,0.0085 0.01975,0 0.05362,0 0.05362,-0.0508 0,-0.03669 -0.01975,-0.03669 -0.0762,-0.03669 -0.163689,0 -0.163689,-0.02258 -0.163689,-0.04798 0,-0.01129 0,-0.01693 0.01129,-0.05644 l 0.183445,-0.742247 h 0.3048 c 0.118534,0 0.26529,0.04516 0.26529,0.248357 0,0.03951 -0.0085,0.06491 -0.04798,0.222956 -0.03104,0.132645 -0.04233,0.172156 -0.04233,0.225778 0,0.208845 0.172156,0.299157 0.349956,0.299157 0.237067,0 0.321734,-0.299157 0.321734,-0.321735 z m -0.268111,-1.315159 c 0,0.01693 -0.01129,0.279401 -0.16369,0.431801 -0.08467,0.08185 -0.225778,0.146756 -0.41769,0.146756 h -0.285045 l 0.183445,-0.742246 c 0.01976,-0.08467 0.04233,-0.09031 0.06209,-0.09596 0.01976,-0.0056 0.110067,-0.0056 0.163689,-0.0056 0.180623,0 0.457202,0 0.457202,0.26529 z"
         style="stroke-width:0.264583"
         id="path3422" />
      <path
         d="m 56.947347,30.709752 c 0,-0.01411 -0.02258,-0.04516 -0.04516,-0.04516 -0.01129,0 -0.01411,0.0028 -0.03669,0.03104 -0.208845,0.26529 -0.460023,0.276579 -0.508001,0.276579 -0.183445,0 -0.21449,-0.200378 -0.21449,-0.310445 0,-0.107245 0.02822,-0.234245 0.04798,-0.310446 h 0.110067 c 0.08467,0 0.273756,-0.0085 0.409223,-0.06209 0.222957,-0.09031 0.222957,-0.273756 0.222957,-0.293512 0,-0.129822 -0.104423,-0.239889 -0.285046,-0.239889 -0.296334,0 -0.699913,0.285045 -0.699913,0.78458 0,0.254 0.135467,0.49389 0.403579,0.49389 0.361246,0 0.595491,-0.282223 0.595491,-0.324556 z m -0.121356,-0.719669 c 0,0.299156 -0.465668,0.299156 -0.558802,0.299156 h -0.05927 c 0.121356,-0.462845 0.412046,-0.471312 0.440268,-0.471312 0.11289,0 0.177801,0.0762 0.177801,0.172156 z"
         style="stroke-width:0.264583"
         id="path3424" />
      <path
         d="m 57.836345,31.181064 0.307623,-1.236137 c 0.01129,-0.04233 0.01129,-0.04798 0.01129,-0.05927 0,-0.05927 -0.04798,-0.07338 -0.0762,-0.07338 -0.03387,0 -0.09878,0.02258 -0.110067,0.104423 -0.03951,-0.08185 -0.115711,-0.160867 -0.237067,-0.160867 -0.31609,0 -0.640646,0.41769 -0.640646,0.815624 0,0.23989 0.132644,0.431801 0.344312,0.431801 0.143933,0 0.265289,-0.115711 0.299156,-0.149578 l -0.05927,0.237068 c -0.03387,0.141111 -0.0508,0.200378 -0.129822,0.296334 -0.11289,0.132645 -0.225779,0.132645 -0.268112,0.132645 -0.03669,0 -0.124178,0 -0.200379,-0.03105 0.05644,-0.02258 0.09031,-0.08184 0.09031,-0.129823 0,-0.03669 -0.0254,-0.09031 -0.09878,-0.09031 -0.0508,0 -0.138289,0.03951 -0.138289,0.149578 0,0.11289 0.104422,0.16369 0.341489,0.16369 0.296335,0 0.510824,-0.186268 0.564446,-0.400757 z m -0.04516,-0.550335 c -0.02258,0.09031 -0.194734,0.310445 -0.349957,0.310445 -0.1524,0 -0.158045,-0.214489 -0.158045,-0.245534 0,-0.135467 0.08467,-0.465668 0.143934,-0.598312 0.07056,-0.152401 0.194734,-0.279401 0.304801,-0.279401 0.169334,0 0.194734,0.237067 0.194734,0.259645 l -0.0085,0.03951 z"
         style="stroke-width:0.264583"
         id="path3426" />
      <path
         d="m 59.013212,30.599685 c 0,-0.02822 -0.02258,-0.02822 -0.04233,-0.02822 -0.03669,0 -0.03669,0.0056 -0.04798,0.04798 -0.02258,0.08184 -0.09878,0.352779 -0.262468,0.352779 -0.02258,0 -0.06209,-0.0028 -0.06209,-0.07902 0,-0.07338 0.03669,-0.166511 0.07338,-0.270934 l 0.180623,-0.482601 c 0.02822,-0.08185 0.03387,-0.104422 0.03387,-0.158045 0,-0.155222 -0.107245,-0.225778 -0.211668,-0.225778 -0.265289,0 -0.361245,0.420512 -0.361245,0.434623 0,0.02822 0.02822,0.02822 0.04233,0.02822 0.03669,0 0.03951,-0.0056 0.0508,-0.04516 0.0254,-0.09313 0.09878,-0.355601 0.262467,-0.355601 0.03104,0 0.06209,0.01411 0.06209,0.07902 0,0.06773 -0.03104,0.149578 -0.0508,0.203201 l -0.08467,0.234245 -0.104423,0.279401 c -0.03951,0.107244 -0.0508,0.138289 -0.0508,0.194734 0,0.110067 0.06773,0.225778 0.21449,0.225778 0.265289,0 0.358423,-0.423335 0.358423,-0.434623 z m 0.0762,-1.320804 c 0,-0.05927 -0.04233,-0.121356 -0.127,-0.121356 -0.09031,0 -0.180623,0.08749 -0.180623,0.1778 0,0.06209 0.04516,0.121356 0.127001,0.121356 0.09031,0 0.180622,-0.08749 0.180622,-0.1778 z"
         style="stroke-width:0.264583"
         id="path3428" />
      <path
         d="m 60.054613,30.560173 c 0,-0.245534 -0.220134,-0.296334 -0.335845,-0.321734 -0.07902,-0.01693 -0.180623,-0.03951 -0.180623,-0.160867 0,-0.06773 0.05927,-0.259645 0.285045,-0.259645 0.0762,0 0.180623,0.02822 0.211667,0.138289 -0.09031,0.01129 -0.112889,0.08749 -0.112889,0.115712 0,0.03104 0.01693,0.07902 0.08467,0.07902 0.04798,0 0.121356,-0.03387 0.121356,-0.155223 0,-0.129822 -0.115711,-0.239889 -0.301979,-0.239889 -0.330201,0 -0.445912,0.270934 -0.445912,0.41769 0,0.217312 0.183445,0.256823 0.262467,0.273756 0.124178,0.02822 0.251179,0.05645 0.251179,0.208845 0,0.09031 -0.0762,0.31609 -0.36689,0.31609 -0.06209,0 -0.225778,-0.01411 -0.270934,-0.158045 0.143934,-0.01411 0.143934,-0.138289 0.143934,-0.138289 0,-0.05362 -0.03669,-0.09031 -0.09596,-0.09031 -0.06491,0 -0.143934,0.04798 -0.143934,0.174979 0,0.172156 0.163689,0.273756 0.364068,0.273756 0.423334,0 0.530579,-0.344312 0.53058,-0.474135 z"
         style="stroke-width:0.264583"
         id="path3430" />
      <path
         d="m 61.104479,30.599685 c 0,-0.02822 -0.02258,-0.02822 -0.04233,-0.02822 -0.03387,0 -0.03387,0.0028 -0.05644,0.05362 -0.0508,0.135467 -0.16369,0.347134 -0.324557,0.347134 -0.0762,0 -0.0762,-0.07056 -0.0762,-0.115711 0,-0.01976 0,-0.06491 0.01976,-0.143934 l 0.208845,-0.838203 h 0.239889 c 0.04798,0 0.07902,0 0.07902,-0.05362 0,-0.03387 -0.0254,-0.03387 -0.07056,-0.03387 h -0.225779 l 0.104423,-0.41769 c 0.01129,-0.03951 0.01129,-0.04516 0.01129,-0.05927 0,-0.05927 -0.04798,-0.07338 -0.0762,-0.07338 -0.07056,0 -0.09878,0.05927 -0.110067,0.101601 l -0.110073,0.44874 h -0.23989 c -0.04798,0 -0.07902,0 -0.07902,0.05362 0,0.03387 0.0254,0.03387 0.07056,0.03387 h 0.225778 l -0.203201,0.80998 c -0.0028,0.01129 -0.01411,0.05645 -0.01411,0.09596 0,0.141112 0.09313,0.254001 0.23989,0.254001 0.285045,0 0.428979,-0.420512 0.428979,-0.434623 z"
         style="stroke-width:0.264583"
         id="path3432" />
      <path
         d="m 62.357545,30.709752 c 0,-0.01411 -0.02258,-0.04516 -0.04516,-0.04516 -0.01129,0 -0.01411,0.0028 -0.03669,0.03104 -0.208845,0.26529 -0.460023,0.276579 -0.508001,0.276579 -0.183445,0 -0.21449,-0.200378 -0.21449,-0.310445 0,-0.107245 0.02822,-0.234245 0.04798,-0.310446 h 0.110067 c 0.08467,0 0.273757,-0.0085 0.409224,-0.06209 0.222956,-0.09031 0.222956,-0.273756 0.222956,-0.293512 0,-0.129822 -0.104423,-0.239889 -0.285045,-0.239889 -0.296335,0 -0.699914,0.285045 -0.699914,0.78458 0,0.254 0.135468,0.49389 0.403579,0.49389 0.361246,0 0.595491,-0.282223 0.595491,-0.324556 z m -0.121356,-0.719669 c 0,0.299156 -0.465668,0.299156 -0.558802,0.299156 h -0.05927 c 0.121356,-0.462845 0.412045,-0.471312 0.440268,-0.471312 0.112889,0 0.1778,0.0762 0.1778,0.172156 z"
         style="stroke-width:0.264583"
         id="path3434" />
      <path
         d="m 63.715035,29.933638 c 0,-0.146756 -0.183445,-0.1778 -0.276578,-0.1778 -0.194734,0 -0.296334,0.141111 -0.34149,0.2032 -0.03104,-0.149578 -0.141112,-0.2032 -0.234245,-0.2032 -0.101601,0 -0.158045,0.06491 -0.203201,0.149578 -0.05362,0.112889 -0.09031,0.285045 -0.09031,0.285045 0,0.02822 0.02822,0.02822 0.04233,0.02822 0.03669,0 0.03951,-0.0028 0.05362,-0.06491 0.0508,-0.197556 0.104422,-0.335845 0.191911,-0.335845 0.07338,0 0.07338,0.08184 0.07338,0.112889 0,0.04516 -0.0085,0.09878 -0.01976,0.143934 l -0.211668,0.846669 c -0.0056,0.01693 -0.0085,0.03104 -0.0085,0.03951 0,0.03104 0.02258,0.07338 0.07902,0.07338 0.08467,0 0.104423,-0.08184 0.110067,-0.104423 L 63.0631,30.190461 c 0.0028,-0.0085 0.129823,-0.372534 0.372534,-0.372534 0.01411,0 0.09313,0 0.149579,0.03951 -0.09878,0.03105 -0.107245,0.121356 -0.107245,0.135467 0,0.03669 0.0254,0.09031 0.09878,0.09031 0.0508,0 0.138289,-0.03951 0.138289,-0.149578 z"
         style="stroke-width:0.264583"
         id="path3436" />
      <path
         d="m 64.63508,30.560173 c 0,-0.245534 -0.220134,-0.296334 -0.335845,-0.321734 -0.07902,-0.01693 -0.180623,-0.03951 -0.180623,-0.160867 0,-0.06773 0.05927,-0.259645 0.285045,-0.259645 0.0762,0 0.180623,0.02822 0.211668,0.138289 -0.09031,0.01129 -0.11289,0.08749 -0.11289,0.115712 0,0.03104 0.01693,0.07902 0.08467,0.07902 0.04798,0 0.121356,-0.03387 0.121356,-0.155223 0,-0.129822 -0.115711,-0.239889 -0.301978,-0.239889 -0.330201,0 -0.445913,0.270934 -0.445913,0.41769 0,0.217312 0.183445,0.256823 0.262468,0.273756 0.124178,0.02822 0.251178,0.05645 0.251178,0.208845 0,0.09031 -0.0762,0.31609 -0.36689,0.31609 -0.06209,0 -0.225778,-0.01411 -0.270934,-0.158045 0.143934,-0.01411 0.143934,-0.138289 0.143934,-0.138289 0,-0.05362 -0.03669,-0.09031 -0.09596,-0.09031 -0.06491,0 -0.143934,0.04798 -0.143934,0.174979 0,0.172156 0.16369,0.273756 0.364068,0.273756 0.423334,0 0.530579,-0.344312 0.53058,-0.474135 z"
         style="stroke-width:0.264583"
         id="path3438" />
    </g>
    <g
       aria-label="C"
       id="text3323"
       style="font-style:italic;font-size:2.82223px;line-height:1.25;font-family:'Latin Modern Roman';-inkscape-font-specification:'Latin Modern Roman, Italic';stroke-width:0.264583">
      <path
         d="m 69.437473,22.13232 c 0.0028,-0.01129 0.0056,-0.02822 0.0056,-0.03951 0,0 -0.0028,-0.02822 -0.03104,-0.02822 0,0 -0.01976,0 -0.04516,0.03105 l -0.1778,0.208845 c -0.121356,-0.194734 -0.285046,-0.23989 -0.426157,-0.23989 -0.58138,0 -1.188159,0.635002 -1.188159,1.298226 0,0.462846 0.301979,0.753535 0.691446,0.753535 0.550335,0 0.857958,-0.603957 0.857958,-0.739424 0,-0.02822 -0.02822,-0.02822 -0.04233,-0.02822 -0.01693,0 -0.03669,0 -0.04516,0.02258 -0.143934,0.476957 -0.496712,0.657579 -0.730958,0.657579 -0.237067,0 -0.485423,-0.158045 -0.485423,-0.558801 0,-0.174979 0.07056,-0.618069 0.296334,-0.928514 0.191912,-0.259645 0.451557,-0.389468 0.668869,-0.389468 0.299156,0 0.400756,0.270934 0.400756,0.516468 0,0.07338 -0.01411,0.16369 -0.01411,0.172156 0,0.02822 0.02822,0.02822 0.04233,0.02822 0.03104,0 0.03951,-0.0028 0.0508,-0.0508 z"
         style="stroke-width:0.264583"
         id="path3411" />
    </g>
    <g
       aria-label="V"
       id="text3327"
       style="font-style:italic;font-size:2.82223px;line-height:1.25;font-family:'Latin Modern Roman';-inkscape-font-specification:'Latin Modern Roman, Italic';stroke-width:0.264583">
      <path
         d="m 66.059841,22.0909 c 0,0 -0.0056,-0.03105 -0.03669,-0.03105 -0.06773,0 -0.143933,0.0085 -0.214489,0.0085 -0.08467,0 -0.177801,-0.0085 -0.259645,-0.0085 -0.01693,0 -0.0508,0 -0.0508,0.05362 0,0.03104 0.02258,0.03104 0.04516,0.03387 0.04516,0.0028 0.112889,0.02258 0.112889,0.09031 0,0.03669 -0.03104,0.09313 -0.04233,0.112889 l -0.815625,1.363137 -0.143933,-1.478849 c 0,-0.08467 0.149578,-0.08749 0.1778,-0.08749 0.03951,0 0.07056,0 0.07056,-0.05362 0,-0.03387 -0.03104,-0.03387 -0.03951,-0.03387 -0.104423,0 -0.217312,0.0085 -0.324557,0.0085 -0.09596,0 -0.194734,-0.0085 -0.287867,-0.0085 -0.01411,0 -0.0508,0 -0.0508,0.05362 0,0.03387 0.02822,0.03387 0.06773,0.03387 0.141112,0 0.146756,0.0254 0.152401,0.09596 l 0.169333,1.738494 c 0.0056,0.05362 0.0085,0.06773 0.05362,0.06773 0.03387,0 0.04798,-0.0028 0.07902,-0.05362 l 0.968025,-1.61996 c 0.112889,-0.18909 0.211667,-0.220134 0.31609,-0.228601 0.02258,-0.0028 0.05362,-0.0028 0.05362,-0.05644 z"
         style="stroke-width:0.264583"
         id="path3408" />
    </g>
    <g
       aria-label="Z"
       id="text3331"
       style="font-style:italic;font-size:2.82223px;line-height:1.25;font-family:'Latin Modern Roman';-inkscape-font-specification:'Latin Modern Roman, Italic';stroke-width:0.264583">
      <path
         d="m 62.243994,23.267768 c 0,-0.03387 -0.02822,-0.03387 -0.04516,-0.03387 -0.03104,0 -0.03387,0.0028 -0.05644,0.07056 -0.104423,0.324556 -0.200379,0.587023 -0.691447,0.587023 H 61.03608 l 1.453448,-1.732849 c 0.03104,-0.03669 0.03387,-0.05927 0.03387,-0.07338 0,-0.0254 -0.01693,-0.0254 -0.06491,-0.0254 H 61.36628 c -0.06209,0 -0.06491,0.0028 -0.08184,0.05645 l -0.152401,0.510823 c -0.0028,0.0056 -0.0085,0.03669 -0.0085,0.03669 0,0.03104 0.03387,0.03104 0.04233,0.03104 0.03387,0 0.03669,-0.01129 0.0508,-0.0508 0.08185,-0.256823 0.194734,-0.496713 0.640646,-0.496713 h 0.395113 l -1.459093,1.744138 c -0.01411,0.01693 -0.03104,0.03669 -0.03104,0.07056 0,0.0254 0.01976,0.0254 0.06491,0.0254 h 1.128892 c 0.06209,0 0.06491,0 0.08184,-0.0508 l 0.191912,-0.623713 c 0.0028,-0.0056 0.01411,-0.04516 0.01411,-0.04516 z"
         style="stroke-width:0.264583"
         id="path3405" />
    </g>
    <g
       aria-label="N"
       id="text3335"
       style="font-style:italic;font-size:2.82223px;line-height:1.25;font-family:'Latin Modern Roman';-inkscape-font-specification:'Latin Modern Roman, Italic';stroke-width:0.264583">
      <path
         d="m 59.39976,22.096544 c 0,-0.02258 -0.01129,-0.03669 -0.03669,-0.03669 -0.08749,0 -0.180622,0.0085 -0.270934,0.0085 -0.09031,0 -0.186267,-0.0085 -0.273756,-0.0085 -0.01411,0 -0.0508,0 -0.0508,0.05362 0,0.03104 0.0254,0.03387 0.0508,0.03387 0.146756,0.0056 0.169334,0.06209 0.169334,0.121356 0,0.0254 -0.0056,0.04516 -0.01129,0.06773 l -0.310446,1.238959 -0.527757,-1.46756 c -0.01693,-0.04516 -0.01976,-0.04798 -0.07902,-0.04798 h -0.352779 c -0.04516,0 -0.0762,0 -0.0762,0.05362 0,0.03387 0.02258,0.03387 0.0762,0.03387 0.01976,0 0.172156,0 0.172156,0.02258 0,0 0,0.0085 -0.0085,0.03669 l -0.372535,1.495782 c -0.03951,0.155223 -0.143934,0.191912 -0.273756,0.197556 -0.02258,0 -0.05362,0.0028 -0.05362,0.05362 0,0.0254 0.01693,0.03387 0.03669,0.03387 0.08467,0 0.180623,-0.0085 0.268112,-0.0085 0.09031,0 0.18909,0.0085 0.276579,0.0085 0.01693,0 0.0508,0 0.0508,-0.0508 0,-0.03387 -0.01976,-0.03669 -0.05362,-0.03669 -0.160867,-0.0056 -0.166512,-0.07902 -0.166512,-0.121356 0,-0.0085 0,-0.0254 0.01129,-0.07056 l 0.364068,-1.453448 0.606779,1.684871 c 0.01411,0.04233 0.01693,0.04798 0.05645,0.04798 0.03104,0 0.04233,-0.0028 0.05644,-0.05644 l 0.395113,-1.591738 c 0.04516,-0.180623 0.2032,-0.18909 0.285045,-0.191912 0.0085,0 0.04233,-0.0028 0.04233,-0.0508 z"
         style="stroke-width:0.264583"
         id="path3402" />
    </g>
    <g
       aria-label="X"
       id="text3339"
       style="font-style:italic;font-size:2.82223px;line-height:1.25;font-family:'Latin Modern Roman';-inkscape-font-specification:'Latin Modern Roman, Italic';stroke-width:0.264583">
      <path
         d="m 55.629923,23.86982 c 0,-0.03669 -0.02258,-0.03669 -0.06773,-0.03669 -0.1524,0 -0.163689,-0.03105 -0.183445,-0.08467 l -0.335845,-0.908758 0.460023,-0.527757 0.03387,-0.02822 c 0.06773,-0.07338 0.172156,-0.18909 0.386646,-0.203201 0.03104,-0.0028 0.05927,-0.0028 0.05927,-0.05362 0,-0.0254 -0.01976,-0.03387 -0.03669,-0.03387 -0.07902,0 -0.16369,0.0085 -0.245534,0.0085 -0.09596,0 -0.200379,-0.0085 -0.293512,-0.0085 -0.01693,0 -0.0508,0 -0.0508,0.05362 0,0.03105 0.0254,0.03387 0.03387,0.03387 0.01976,0.0028 0.101601,0.0085 0.101601,0.08467 0,0.02258 -0.0085,0.05362 -0.05927,0.112889 l -0.41769,0.479779 -0.206023,-0.561624 -0.01129,-0.03387 c 0,-0.01976 0.05645,-0.07338 0.160867,-0.08185 0.01411,0 0.04516,-0.0028 0.04516,-0.0508 0,-0.03104 -0.01976,-0.03669 -0.03951,-0.03669 -0.107244,0 -0.220133,0.0085 -0.3302,0.0085 -0.09596,0 -0.194734,-0.0085 -0.287868,-0.0085 -0.01693,0 -0.05362,0 -0.05362,0.05362 0,0.03387 0.02822,0.03387 0.06773,0.03387 0.152401,0 0.16369,0.02822 0.186267,0.09031 l 0.29069,0.787403 -0.587024,0.668868 c -0.166511,0.191912 -0.324556,0.200378 -0.41769,0.206023 -0.03104,0.0028 -0.03387,0.05362 -0.03387,0.05362 0,0.01129 0.0056,0.03387 0.03387,0.03387 0.07902,0 0.166512,-0.0085 0.248356,-0.0085 0.09596,0 0.197557,0.0085 0.29069,0.0085 0.01411,0 0.05362,0 0.05362,-0.05645 0,-0.02822 -0.03669,-0.03104 -0.03669,-0.03104 -0.08467,-0.0085 -0.09878,-0.05645 -0.09878,-0.08467 0,-0.01129 0.0028,-0.03951 0.02258,-0.06773 0.0056,-0.0056 0.0085,-0.01129 0.01129,-0.01693 l 0.0028,-0.0056 0.541869,-0.618069 0.248356,0.674513 c 0.0028,0.01129 0.0085,0.0254 0.0085,0.03387 0,0.02822 -0.05927,0.07902 -0.160868,0.08467 -0.01975,0.0028 -0.04516,0.01129 -0.04516,0.05362 0,0.03387 0.03387,0.03387 0.04233,0.03387 0.107245,0 0.220134,-0.0085 0.327379,-0.0085 0.09596,0 0.197556,0.0085 0.29069,0.0085 0.01693,0 0.0508,0 0.0508,-0.0508 z"
         style="stroke-width:0.264583"
         id="path3399" />
    </g>
    <rect
       style="fill:none;stroke:#000000;stroke-width:0.25;stroke-linecap:square;stroke-miterlimit:4;stroke-dasharray:none;stop-color:#000000"
       id="rect3341"
       width="10.223061"
       height="4.9444866"
       x="42.829945"
       y="20.446119" />
  </g>
</svg>
