<?xml version="1.0" encoding="UTF-8" standalone="no"?>
<!-- Created with Inkscape (http://www.inkscape.org/) -->

<svg
   width="139.71078mm"
   height="28.885967mm"
   viewBox="0 0 139.71078 28.885967"
   version="1.1"
   id="svg5"
   inkscape:version="1.1.1 (1:1.1+202109281949+c3084ef5ed)"
   sodipodi:docname="dualmode.svg"
   xmlns:inkscape="http://www.inkscape.org/namespaces/inkscape"
   xmlns:sodipodi="http://sodipodi.sourceforge.net/DTD/sodipodi-0.dtd"
   xmlns="http://www.w3.org/2000/svg"
   xmlns:svg="http://www.w3.org/2000/svg">
  <sodipodi:namedview
     id="namedview7"
     pagecolor="#ffffff"
     bordercolor="#666666"
     borderopacity="1.0"
     inkscape:pageshadow="2"
     inkscape:pageopacity="0.0"
     inkscape:pagecheckerboard="0"
     inkscape:document-units="mm"
     showgrid="false"
     fit-margin-top="2"
     fit-margin-left="0"
     fit-margin-right="0"
     fit-margin-bottom="0"
     inkscape:zoom="1.2810466"
     inkscape:cx="336.05335"
     inkscape:cy="97.18616"
     inkscape:window-width="1400"
     inkscape:window-height="969"
     inkscape:window-x="52"
     inkscape:window-y="40"
     inkscape:window-maximized="0"
     inkscape:current-layer="layer1" />
  <defs
     id="defs2">
    <marker
       style="overflow:visible"
       id="marker31564"
       refX="0"
       refY="0"
       orient="auto"
       inkscape:stockid="Arrow1Mend"
       inkscape:isstock="true">
      <path
         transform="matrix(-0.4,0,0,-0.4,-4,0)"
         style="fill:context-stroke;fill-rule:evenodd;stroke:context-stroke;stroke-width:1pt"
         d="M 0,0 5,-5 -12.5,0 5,5 Z"
         id="path31562" />
    </marker>
    <marker
       style="overflow:visible"
       id="Arrow1Mend"
       refX="0"
       refY="0"
       orient="auto"
       inkscape:stockid="Arrow1Mend"
       inkscape:isstock="true">
      <path
         transform="matrix(-0.4,0,0,-0.4,-4,0)"
         style="fill:context-stroke;fill-rule:evenodd;stroke:context-stroke;stroke-width:1pt"
         d="M 0,0 5,-5 -12.5,0 5,5 Z"
         id="path31301" />
    </marker>
  </defs>
  <g
     inkscape:label="Layer 1"
     inkscape:groupmode="layer"
     id="layer1"
     transform="translate(-6.8157382,-15.027923)">
    <rect
       style="fill:#2a7fff;fill-opacity:0.406547;stroke:none;stroke-width:0.264999;stroke-miterlimit:4;stroke-dasharray:none;stroke-dashoffset:0"
       id="rect42906"
       width="139.42711"
       height="14.039476"
       x="6.8157382"
       y="29.874414" />
    <path
       style="fill:none;stroke:#000000;stroke-width:0.265;stroke-linecap:butt;stroke-linejoin:miter;stroke-miterlimit:4;stroke-dasharray:0.795, 0.265;stroke-dashoffset:0;stroke-opacity:1"
       d="M 6.8157383,29.874413 H 146.52652"
       id="path857"
       sodipodi:nodetypes="cc" />
    <g
       aria-label="Process"
       id="text2137"
       style="font-size:4.23333px;line-height:1.25;font-family:manrope;-inkscape-font-specification:manrope;stroke-width:0.264583">
      <path
         d="m 9.1871536,26.647333 v -3.047997 h 1.1768654 q 0.04445,0 0.09948,0.0042 0.05715,0.0021 0.114299,0.0127 0.239184,0.03598 0.404283,0.167217 0.167217,0.129116 0.251884,0.325966 0.08678,0.19685 0.08678,0.436033 0,0.237066 -0.08678,0.433916 -0.08678,0.19685 -0.254,0.328083 -0.1651,0.129117 -0.402167,0.1651 -0.05715,0.0085 -0.114299,0.0127 -0.05503,0.0042 -0.09948,0.0042 H 9.4983033 v 1.157816 z m 0.3111497,-1.454149 h 0.8572497 q 0.0381,0 0.0889,-0.0042 0.0508,-0.0042 0.09948,-0.01482 0.156633,-0.03387 0.256116,-0.129116 0.1016,-0.09525 0.150283,-0.226483 0.0508,-0.131234 0.0508,-0.27305 0,-0.141817 -0.0508,-0.27305 -0.04868,-0.13335 -0.150283,-0.2286 -0.09948,-0.09525 -0.256116,-0.129116 -0.04868,-0.01058 -0.09948,-0.0127 -0.0508,-0.0042 -0.0889,-0.0042 H 9.4983033 Z"
         id="path18290" />
      <path
         d="m 11.744077,26.647333 v -2.285998 h 0.2794 v 0.550333 l -0.05503,-0.07197 q 0.0381,-0.1016 0.09948,-0.186266 0.06138,-0.08678 0.13335,-0.141817 0.0889,-0.07832 0.207433,-0.118533 0.118533,-0.04233 0.239183,-0.04868 0.12065,-0.0085 0.220133,0.01693 v 0.2921 q -0.124883,-0.03175 -0.27305,-0.01482 -0.148166,0.01693 -0.27305,0.118533 -0.114299,0.0889 -0.171449,0.213784 -0.05715,0.122766 -0.0762,0.262466 -0.01905,0.137583 -0.01905,0.27305 v 1.140882 z"
         id="path18292" />
      <path
         d="m 14.182468,26.710833 q -0.340784,0 -0.582083,-0.154516 -0.2413,-0.154517 -0.370417,-0.427567 -0.129116,-0.27305 -0.129116,-0.626533 0,-0.359833 0.131233,-0.630766 0.131233,-0.270933 0.372533,-0.421216 0.243416,-0.1524 0.57785,-0.1524 0.342899,0 0.584199,0.154517 0.243416,0.1524 0.370416,0.425449 0.129117,0.270933 0.129117,0.624416 0,0.359833 -0.129117,0.632883 -0.129116,0.270933 -0.372533,0.423333 -0.243416,0.1524 -0.582082,0.1524 z m 0,-0.29845 q 0.380999,0 0.567266,-0.251883 0.186266,-0.254 0.186266,-0.658283 0,-0.414866 -0.188383,-0.660399 -0.186266,-0.245533 -0.565149,-0.245533 -0.256117,0 -0.423333,0.116416 -0.1651,0.1143 -0.24765,0.319617 -0.08043,0.2032 -0.08043,0.469899 0,0.41275 0.1905,0.662517 0.1905,0.247649 0.560917,0.247649 z"
         id="path18294" />
      <path
         d="m 16.680129,26.710833 q -0.345017,0 -0.5842,-0.154516 -0.239183,-0.154517 -0.364066,-0.42545 -0.122767,-0.27305 -0.127,-0.626533 0.0042,-0.359833 0.131233,-0.630766 0.127,-0.27305 0.366183,-0.423333 0.239183,-0.1524 0.579966,-0.1524 0.347133,0 0.60325,0.169333 0.258233,0.169334 0.353483,0.46355 l -0.3048,0.09737 q -0.08043,-0.205317 -0.256116,-0.3175 -0.173567,-0.1143 -0.397933,-0.1143 -0.251883,0 -0.416983,0.116416 -0.1651,0.1143 -0.245533,0.319617 -0.08043,0.205316 -0.08255,0.472016 0.0042,0.410633 0.190499,0.6604 0.186267,0.247649 0.554567,0.247649 0.232833,0 0.395816,-0.105833 0.1651,-0.10795 0.249766,-0.313266 l 0.313267,0.09313 q -0.127,0.3048 -0.372533,0.465666 -0.245533,0.15875 -0.586316,0.15875 z"
         id="path18296" />
      <path
         d="m 18.978818,26.710833 q -0.334433,0 -0.579966,-0.148166 -0.243417,-0.148167 -0.378883,-0.416983 -0.135467,-0.268817 -0.135467,-0.630767 0,-0.374649 0.13335,-0.647699 0.13335,-0.27305 0.37465,-0.421216 0.243416,-0.148167 0.573616,-0.148167 0.338666,0 0.577849,0.156633 0.239184,0.154517 0.36195,0.4445 0.122767,0.289983 0.112183,0.692149 h -0.317499 v -0.110066 q -0.0085,-0.4445 -0.192617,-0.670983 -0.182033,-0.226483 -0.533399,-0.226483 -0.3683,0 -0.56515,0.239183 -0.194733,0.239183 -0.194733,0.681566 0,0.4318 0.194733,0.670983 0.19685,0.237066 0.556683,0.237066 0.245533,0 0.427566,-0.112183 0.18415,-0.1143 0.289983,-0.328083 L 19.97365,26.0843 q -0.135466,0.29845 -0.400049,0.46355 -0.262467,0.162983 -0.594783,0.162983 z m -0.874183,-1.119716 v -0.260349 h 1.746249 v 0.260349 z"
         id="path18298" />
      <path
         d="m 21.338897,26.708716 q -0.402167,0 -0.662517,-0.173566 -0.258233,-0.173567 -0.317499,-0.4826 l 0.317499,-0.05292 q 0.0508,0.194733 0.230717,0.311149 0.182033,0.1143 0.448733,0.1143 0.26035,0 0.410633,-0.10795 0.150283,-0.110066 0.150283,-0.298449 0,-0.105834 -0.04868,-0.17145 -0.04657,-0.06773 -0.192617,-0.124883 -0.14605,-0.05715 -0.436033,-0.135467 -0.311149,-0.08467 -0.486833,-0.169333 -0.175683,-0.08467 -0.249766,-0.194733 -0.07408,-0.112184 -0.07408,-0.27305 0,-0.194733 0.110066,-0.340783 0.110067,-0.148167 0.3048,-0.2286 0.194733,-0.08255 0.452966,-0.08255 0.258233,0 0.461433,0.08467 0.205317,0.08255 0.3302,0.232833 0.124883,0.150283 0.148166,0.34925 l -0.317499,0.05715 q -0.03175,-0.201084 -0.201083,-0.3175 -0.167217,-0.118533 -0.42545,-0.122767 -0.243417,-0.0064 -0.395816,0.09313 -0.1524,0.09737 -0.1524,0.26035 0,0.09102 0.05503,0.156633 0.05503,0.0635 0.198967,0.12065 0.146049,0.05715 0.414866,0.124884 0.315383,0.08043 0.495299,0.169333 0.179917,0.0889 0.256117,0.20955 0.0762,0.120649 0.0762,0.298449 0,0.32385 -0.2413,0.510117 -0.239183,0.184149 -0.660399,0.184149 z"
         id="path18300" />
      <path
         d="m 23.561394,26.708716 q -0.402167,0 -0.662517,-0.173566 -0.258233,-0.173567 -0.317499,-0.4826 l 0.317499,-0.05292 q 0.0508,0.194733 0.230717,0.311149 0.182033,0.1143 0.448733,0.1143 0.26035,0 0.410633,-0.10795 0.150283,-0.110066 0.150283,-0.298449 0,-0.105834 -0.04868,-0.17145 -0.04657,-0.06773 -0.192617,-0.124883 -0.14605,-0.05715 -0.436033,-0.135467 -0.311149,-0.08467 -0.486833,-0.169333 -0.175683,-0.08467 -0.249766,-0.194733 -0.07408,-0.112184 -0.07408,-0.27305 0,-0.194733 0.110066,-0.340783 0.110067,-0.148167 0.3048,-0.2286 0.194733,-0.08255 0.452966,-0.08255 0.258233,0 0.461433,0.08467 0.205317,0.08255 0.3302,0.232833 0.124883,0.150283 0.148166,0.34925 l -0.317499,0.05715 q -0.03175,-0.201084 -0.201083,-0.3175 -0.167217,-0.118533 -0.42545,-0.122767 -0.243417,-0.0064 -0.395816,0.09313 -0.1524,0.09737 -0.1524,0.26035 0,0.09102 0.05503,0.156633 0.05503,0.0635 0.198967,0.12065 0.146049,0.05715 0.414866,0.124884 0.315383,0.08043 0.495299,0.169333 0.179917,0.0889 0.256117,0.20955 0.0762,0.120649 0.0762,0.298449 0,0.32385 -0.2413,0.510117 -0.239183,0.184149 -0.660399,0.184149 z"
         id="path18302" />
    </g>
    <g
       aria-label="System call"
       id="text5165"
       style="font-size:4.23333px;line-height:1.25;font-family:manrope;-inkscape-font-specification:manrope;stroke-width:0.264583">
      <path
         d="m 37.018717,26.271651 q -0.319617,0 -0.575733,-0.105833 -0.254,-0.10795 -0.421217,-0.3048 -0.165099,-0.19685 -0.215899,-0.467783 l 0.317499,-0.05292 q 0.0762,0.296333 0.321733,0.465667 0.245534,0.167216 0.586317,0.167216 0.224366,0 0.402166,-0.06985 0.1778,-0.07197 0.2794,-0.2032 0.1016,-0.131233 0.1016,-0.311149 0,-0.118534 -0.04233,-0.201084 -0.04233,-0.08467 -0.112183,-0.139699 -0.06985,-0.05503 -0.1524,-0.09102 -0.08255,-0.0381 -0.160866,-0.06138 l -0.772583,-0.230717 q -0.1397,-0.04022 -0.258233,-0.1016 -0.118533,-0.0635 -0.207433,-0.150283 -0.08678,-0.0889 -0.135467,-0.207433 -0.04868,-0.118533 -0.04868,-0.270933 0,-0.258233 0.135466,-0.446617 0.135467,-0.188383 0.370417,-0.289983 0.23495,-0.1016 0.535516,-0.09948 0.3048,0 0.543983,0.10795 0.2413,0.10795 0.397933,0.309033 0.156633,0.198967 0.207433,0.472016 l -0.325966,0.05927 q -0.03175,-0.198966 -0.14605,-0.345016 -0.1143,-0.14605 -0.2921,-0.224367 -0.175683,-0.08043 -0.38735,-0.08255 -0.205316,0 -0.366183,0.06985 -0.15875,0.06773 -0.251883,0.186267 -0.09313,0.118533 -0.09313,0.270933 0,0.154516 0.08467,0.24765 0.08678,0.09313 0.211667,0.146049 0.127,0.05292 0.245533,0.08678 l 0.5969,0.175683 q 0.09313,0.0254 0.218016,0.07408 0.127,0.04657 0.245533,0.135467 0.12065,0.08678 0.198967,0.2286 0.07832,0.141816 0.07832,0.359833 0,0.211666 -0.08467,0.378883 -0.08255,0.167216 -0.23495,0.281516 -0.150283,0.1143 -0.353483,0.173567 -0.201083,0.06138 -0.440266,0.06138 z"
         id="path18305" />
      <path
         d="m 38.85386,27.22415 0.442383,-1.200149 0.0064,0.3556 -1.001183,-2.457448 h 0.3302 l 0.821266,2.055281 h -0.135467 l 0.757766,-2.055281 h 0.3175 l -1.227666,3.301997 z"
         id="path18307" />
      <path
         d="m 41.613983,26.269534 q -0.402166,0 -0.662516,-0.173566 -0.258233,-0.173567 -0.3175,-0.4826 l 0.3175,-0.05292 q 0.0508,0.194734 0.230716,0.31115 0.182034,0.1143 0.448733,0.1143 0.26035,0 0.410633,-0.10795 0.150283,-0.110066 0.150283,-0.29845 0,-0.105833 -0.04868,-0.171449 -0.04657,-0.06773 -0.192616,-0.124884 -0.14605,-0.05715 -0.436033,-0.135466 -0.31115,-0.08467 -0.486833,-0.169333 -0.175683,-0.08467 -0.249767,-0.194734 -0.07408,-0.112183 -0.07408,-0.273049 0,-0.194734 0.110067,-0.340783 0.110066,-0.148167 0.304799,-0.2286 0.194734,-0.08255 0.452967,-0.08255 0.258233,0 0.461433,0.08467 0.205316,0.08255 0.330199,0.232834 0.124884,0.150283 0.148167,0.349249 l -0.3175,0.05715 q -0.03175,-0.201083 -0.201083,-0.3175 -0.167217,-0.118533 -0.42545,-0.122766 -0.243416,-0.0063 -0.395816,0.09313 -0.1524,0.09737 -0.1524,0.26035 0,0.09102 0.05503,0.156633 0.05503,0.0635 0.198967,0.12065 0.14605,0.05715 0.414866,0.124883 0.315383,0.08043 0.4953,0.169333 0.179916,0.0889 0.256116,0.20955 0.0762,0.12065 0.0762,0.29845 0,0.32385 -0.2413,0.510116 -0.239183,0.18415 -0.660399,0.18415 z"
         id="path18309" />
      <path
         d="m 44.228063,26.208151 q -0.192617,0.04022 -0.381,0.03175 -0.186266,-0.0085 -0.334433,-0.08043 -0.14605,-0.07197 -0.22225,-0.224367 -0.06138,-0.127 -0.06773,-0.256116 -0.0042,-0.131234 -0.0042,-0.29845 v -2.093382 h 0.309033 v 2.080682 q 0,0.143933 0.0021,0.2413 0.0042,0.09525 0.04445,0.169333 0.0762,0.141816 0.241299,0.169333 0.167217,0.02752 0.41275,-0.0127 z m -1.498599,-2.019298 v -0.2667 h 1.498599 v 0.2667 z"
         id="path18311" />
      <path
         d="m 45.561557,26.271651 q -0.334433,0 -0.579966,-0.148167 -0.243417,-0.148166 -0.378883,-0.416983 -0.135467,-0.268816 -0.135467,-0.630766 0,-0.37465 0.13335,-0.647699 0.13335,-0.27305 0.37465,-0.421217 0.243416,-0.148166 0.573616,-0.148166 0.338666,0 0.577849,0.156633 0.239183,0.154517 0.36195,0.4445 0.122767,0.289983 0.112183,0.692149 h -0.3175 v -0.110066 q -0.0085,-0.4445 -0.192616,-0.670983 -0.182033,-0.226483 -0.5334,-0.226483 -0.368299,0 -0.565149,0.239183 -0.194733,0.239183 -0.194733,0.681566 0,0.431799 0.194733,0.670983 0.19685,0.237066 0.556683,0.237066 0.245533,0 0.427566,-0.112183 0.18415,-0.1143 0.289983,-0.328083 l 0.289983,0.112183 q -0.135466,0.29845 -0.400049,0.46355 -0.262467,0.162983 -0.594783,0.162983 z m -0.874183,-1.119716 v -0.26035 h 1.746249 v 0.26035 z"
         id="path18313" />
      <path
         d="m 49.731379,26.208151 0.0021,-1.500716 q 0,-0.264583 -0.148166,-0.414866 -0.14605,-0.1524 -0.372533,-0.1524 -0.129117,0 -0.251883,0.05927 -0.122767,0.05927 -0.2032,0.1905 -0.07832,0.131233 -0.07832,0.342899 l -0.18415,-0.05292 q -0.0064,-0.245533 0.09525,-0.429683 0.103717,-0.18415 0.283633,-0.28575 0.182034,-0.103716 0.410633,-0.103716 0.345017,0 0.55245,0.213783 0.207433,0.211666 0.207433,0.573616 l -0.0021,1.559982 z m -2.728381,0 v -2.285998 h 0.279399 v 0.563033 h 0.03387 v 1.722965 z m 1.367365,0 0.0021,-1.479549 q 0,-0.27305 -0.14605,-0.429683 -0.143933,-0.15875 -0.381,-0.15875 -0.237066,0 -0.383116,0.162983 -0.14605,0.160867 -0.14605,0.429683 l -0.186266,-0.101599 q 0,-0.220134 0.103716,-0.3937 0.103717,-0.175683 0.283633,-0.275167 0.179917,-0.101599 0.408517,-0.101599 0.218016,0 0.387349,0.09313 0.17145,0.09313 0.268817,0.270933 0.09737,0.1778 0.09737,0.4318 l -0.0021,1.551515 z"
         id="path18315" />
      <path
         d="m 52.389903,26.271651 q -0.345017,0 -0.5842,-0.154517 -0.239183,-0.154516 -0.364066,-0.425449 -0.122767,-0.27305 -0.127,-0.626533 0.0042,-0.359833 0.131233,-0.630766 0.127,-0.27305 0.366183,-0.423333 0.239183,-0.1524 0.579966,-0.1524 0.347133,0 0.60325,0.169333 0.258233,0.169333 0.353483,0.46355 l -0.3048,0.09737 q -0.08043,-0.205316 -0.256116,-0.3175 -0.173567,-0.114299 -0.397933,-0.114299 -0.251883,0 -0.416983,0.116416 -0.1651,0.1143 -0.245533,0.319617 -0.08043,0.205316 -0.08255,0.472016 0.0042,0.410633 0.190499,0.660399 0.186267,0.24765 0.554567,0.24765 0.232833,0 0.395816,-0.105833 0.1651,-0.10795 0.249766,-0.313267 l 0.313267,0.09313 q -0.127,0.304799 -0.372533,0.465666 -0.245533,0.15875 -0.586316,0.15875 z"
         id="path18317" />
      <path
         d="m 54.424006,26.271651 q -0.258233,0 -0.433916,-0.09313 -0.173567,-0.09313 -0.26035,-0.24765 -0.08678,-0.154517 -0.08678,-0.33655 0,-0.186266 0.07408,-0.3175 0.0762,-0.13335 0.205316,-0.218016 0.131233,-0.08467 0.302683,-0.129117 0.173567,-0.04233 0.383117,-0.07408 0.211666,-0.03387 0.412749,-0.05715 0.2032,-0.0254 0.3556,-0.04868 l -0.110067,0.06773 q 0.0063,-0.338666 -0.131233,-0.50165 -0.137583,-0.162983 -0.478366,-0.162983 -0.23495,0 -0.397933,0.105834 -0.160867,0.105833 -0.226483,0.334433 l -0.302683,-0.0889 q 0.07832,-0.306917 0.315383,-0.47625 0.237066,-0.169333 0.615949,-0.169333 0.313267,0 0.531283,0.118533 0.220133,0.116417 0.31115,0.338666 0.04233,0.09948 0.05503,0.22225 0.0127,0.122767 0.0127,0.249767 v 1.420282 h -0.277283 v -0.573616 l 0.08043,0.03387 Q 55.257966,25.962628 55.012433,26.117144 54.7669,26.271661 54.424,26.271661 Z m 0.03598,-0.268817 q 0.218017,0 0.381,-0.07832 0.162983,-0.07832 0.262466,-0.213783 0.09948,-0.137584 0.129117,-0.309033 0.0254,-0.110067 0.02752,-0.2413 0.0021,-0.13335 0.0021,-0.198967 l 0.118533,0.06138 q -0.15875,0.02117 -0.345016,0.04233 -0.18415,0.02117 -0.364066,0.04868 -0.1778,0.02752 -0.321733,0.06562 -0.09737,0.02752 -0.188384,0.07832 -0.09102,0.04868 -0.150283,0.131234 -0.05715,0.08255 -0.05715,0.205316 0,0.09948 0.04868,0.192617 0.0508,0.09313 0.160867,0.154516 0.112183,0.06138 0.296333,0.06138 z"
         id="path18319" />
      <path
         d="m 56.163898,26.208151 v -3.111498 h 0.31115 v 3.111498 z"
         id="path18321" />
      <path
         d="m 57.152378,26.208151 v -3.111498 h 0.311149 v 3.111498 z"
         id="path18323" />
    </g>
    <g
       aria-label="Execute call"
       id="text7630"
       style="font-size:4.23333px;line-height:1.25;font-family:manrope;-inkscape-font-specification:manrope;fill:#0055d4;stroke-width:0.264583">
      <path
         d="m 75.040848,38.101372 v -3.047998 h 1.904998 v 0.29845 h -1.593849 v 1.054099 h 1.339849 v 0.29845 h -1.339849 v 1.098549 h 1.593849 v 0.29845 z"
         id="path18358" />
      <path
         d="m 77.199845,38.101372 0.893232,-1.155699 -0.874182,-1.130299 h 0.372533 l 0.683682,0.891116 0.677333,-0.891116 h 0.372533 l -0.874183,1.130299 0.89535,1.155699 h -0.37465 l -0.696383,-0.916516 -0.700616,0.916516 z"
         id="path18360" />
      <path
         d="m 80.56745,38.164872 q -0.334433,0 -0.579966,-0.148167 -0.243416,-0.148166 -0.378883,-0.416983 -0.135466,-0.268816 -0.135466,-0.630766 0,-0.37465 0.13335,-0.647699 0.13335,-0.27305 0.374649,-0.421217 0.243417,-0.148166 0.573616,-0.148166 0.338667,0 0.57785,0.156633 0.239183,0.154516 0.36195,0.4445 0.122766,0.289983 0.112183,0.692149 h -0.3175 v -0.110067 q -0.0085,-0.444499 -0.192616,-0.670982 -0.182033,-0.226483 -0.5334,-0.226483 -0.3683,0 -0.565149,0.239183 -0.194734,0.239183 -0.194734,0.681566 0,0.431799 0.194734,0.670982 0.196849,0.237067 0.556682,0.237067 0.245534,0 0.427567,-0.112183 0.18415,-0.1143 0.289983,-0.328083 l 0.289983,0.112183 q -0.135467,0.29845 -0.40005,0.46355 -0.262466,0.162983 -0.594783,0.162983 z m -0.874182,-1.119716 v -0.26035 h 1.746248 v 0.26035 z"
         id="path18362" />
      <path
         d="m 83.022779,38.164872 q -0.345016,0 -0.584199,-0.154517 -0.239184,-0.154516 -0.364067,-0.425449 -0.122766,-0.27305 -0.127,-0.626533 0.0042,-0.359833 0.131234,-0.630766 0.126999,-0.27305 0.366183,-0.423333 0.239183,-0.1524 0.579966,-0.1524 0.347133,0 0.603249,0.169333 0.258233,0.169333 0.353483,0.46355 l -0.304799,0.09737 q -0.08043,-0.205316 -0.256117,-0.3175 -0.173566,-0.1143 -0.397933,-0.1143 -0.251883,0 -0.416983,0.116417 -0.1651,0.1143 -0.245533,0.319616 -0.08043,0.205317 -0.08255,0.472017 0.0042,0.410633 0.1905,0.660399 0.186266,0.24765 0.554566,0.24765 0.232833,0 0.395816,-0.105833 0.1651,-0.10795 0.249767,-0.313267 l 0.313266,0.09313 q -0.127,0.304799 -0.372533,0.465666 -0.245533,0.15875 -0.586316,0.15875 z"
         id="path18364" />
      <path
         d="m 85.29184,38.158522 q -0.205316,0 -0.359833,-0.0635 -0.1524,-0.0635 -0.26035,-0.17145 -0.105833,-0.10795 -0.171449,-0.245533 -0.06562,-0.1397 -0.09525,-0.294217 -0.02963,-0.156633 -0.02963,-0.311149 v -1.257299 h 0.313267 v 1.166282 q 0,0.188383 0.03598,0.34925 0.03598,0.160866 0.1143,0.281516 0.08043,0.118533 0.205316,0.18415 0.127,0.06562 0.306917,0.06562 0.1651,0 0.289983,-0.05715 0.127,-0.05715 0.211666,-0.162984 0.08678,-0.107949 0.131234,-0.260349 0.04445,-0.154517 0.04445,-0.347133 l 0.220133,0.04868 q 0,0.351366 -0.122767,0.590549 -0.122766,0.239184 -0.338666,0.36195 -0.2159,0.122767 -0.4953,0.122767 z m 0.76835,-0.05715 v -0.563033 h -0.03175 v -1.722965 h 0.311149 v 2.285998 z"
         id="path18366" />
      <path
         d="m 88.176854,38.101372 q -0.192617,0.04022 -0.381,0.03175 -0.186267,-0.0085 -0.334433,-0.08043 -0.14605,-0.07197 -0.22225,-0.224366 -0.06138,-0.127 -0.06773,-0.256116 -0.0042,-0.131234 -0.0042,-0.29845 v -2.093382 h 0.309033 v 2.080682 q 0,0.143933 0.0021,0.2413 0.0042,0.09525 0.04445,0.169333 0.0762,0.141816 0.2413,0.169333 0.167216,0.02752 0.41275,-0.0127 z m -1.498599,-2.019299 v -0.266699 h 1.498599 v 0.266699 z"
         id="path18368" />
      <path
         d="m 89.510348,38.164872 q -0.334433,0 -0.579966,-0.148167 -0.243416,-0.148166 -0.378883,-0.416983 -0.135466,-0.268816 -0.135466,-0.630766 0,-0.37465 0.133349,-0.647699 0.13335,-0.27305 0.37465,-0.421217 0.243417,-0.148166 0.573616,-0.148166 0.338667,0 0.57785,0.156633 0.239183,0.154516 0.361949,0.4445 0.122767,0.289983 0.112184,0.692149 h -0.3175 v -0.110067 q -0.0085,-0.444499 -0.192617,-0.670982 -0.182033,-0.226483 -0.533399,-0.226483 -0.3683,0 -0.56515,0.239183 -0.194733,0.239183 -0.194733,0.681566 0,0.431799 0.194733,0.670982 0.19685,0.237067 0.556683,0.237067 0.245533,0 0.427567,-0.112183 0.184149,-0.1143 0.289983,-0.328083 l 0.289983,0.112183 q -0.135467,0.29845 -0.40005,0.46355 -0.262466,0.162983 -0.594783,0.162983 z m -0.874182,-1.119716 v -0.26035 h 1.746248 v 0.26035 z"
         id="path18370" />
      <path
         d="m 92.812338,38.164872 q -0.345016,0 -0.584199,-0.154517 -0.239183,-0.154516 -0.364066,-0.425449 -0.122767,-0.27305 -0.127,-0.626533 0.0042,-0.359833 0.131233,-0.630766 0.127,-0.27305 0.366183,-0.423333 0.239183,-0.1524 0.579966,-0.1524 0.347133,0 0.60325,0.169333 0.258233,0.169333 0.353483,0.46355 l -0.3048,0.09737 q -0.08043,-0.205316 -0.256117,-0.3175 -0.173566,-0.1143 -0.397933,-0.1143 -0.251883,0 -0.416983,0.116417 -0.165099,0.1143 -0.245533,0.319616 -0.08043,0.205317 -0.08255,0.472017 0.0042,0.410633 0.1905,0.660399 0.186267,0.24765 0.554566,0.24765 0.232834,0 0.395817,-0.105833 0.1651,-0.10795 0.249766,-0.313267 l 0.313267,0.09313 q -0.127,0.304799 -0.372533,0.465666 -0.245534,0.15875 -0.586317,0.15875 z"
         id="path18372" />
      <path
         d="m 94.846442,38.164872 q -0.258234,0 -0.433917,-0.09313 -0.173566,-0.09313 -0.26035,-0.247649 -0.08678,-0.154517 -0.08678,-0.33655 0,-0.186267 0.07408,-0.3175 0.0762,-0.13335 0.205317,-0.218016 0.131233,-0.08467 0.302683,-0.129117 0.173567,-0.04233 0.383116,-0.07408 0.211667,-0.03387 0.41275,-0.05715 0.2032,-0.0254 0.3556,-0.04868 l -0.110067,0.06773 q 0.0063,-0.338666 -0.131233,-0.50165 -0.137583,-0.162983 -0.478366,-0.162983 -0.23495,0 -0.397933,0.105833 -0.160867,0.105834 -0.226483,0.334433 l -0.302684,-0.0889 q 0.07832,-0.306917 0.315384,-0.47625 0.237066,-0.169333 0.615949,-0.169333 0.313266,0 0.531283,0.118533 0.220133,0.116417 0.31115,0.338666 0.04233,0.09948 0.05503,0.22225 0.0127,0.122767 0.0127,0.249767 v 1.420282 h -0.277283 v -0.573616 l 0.08043,0.03387 q -0.116416,0.294217 -0.36195,0.448733 -0.245533,0.154517 -0.588432,0.154517 z m 0.03598,-0.268817 q 0.218016,0 0.381,-0.07832 0.162983,-0.07832 0.262466,-0.213783 0.09948,-0.137584 0.129117,-0.309034 0.0254,-0.110066 0.02752,-0.241299 0.0021,-0.13335 0.0021,-0.198967 l 0.118533,0.06138 q -0.15875,0.02117 -0.345016,0.04233 -0.18415,0.02117 -0.364067,0.04868 -0.177799,0.02752 -0.321733,0.06562 -0.09737,0.02752 -0.188383,0.07832 -0.09102,0.04868 -0.150283,0.131233 -0.05715,0.08255 -0.05715,0.205317 0,0.09948 0.04868,0.192616 0.0508,0.09313 0.160867,0.154517 0.112183,0.06138 0.296333,0.06138 z"
         id="path18374" />
      <path
         d="m 96.586332,38.101372 v -3.111498 h 0.31115 v 3.111498 z"
         id="path18376" />
      <path
         d="m 97.574813,38.101372 v -3.111498 h 0.31115 v 3.111498 z"
         id="path18378" />
    </g>
    <g
       aria-label="Return from call"
       id="text11546"
       style="font-size:4.23333px;line-height:1.25;font-family:manrope;-inkscape-font-specification:manrope;stroke-width:0.264583">
      <path
         d="m 113.74839,25.511971 v -3.047998 h 1.17687 q 0.0445,0 0.0995,0.0042 0.0572,0.0021 0.1143,0.0127 0.23918,0.03598 0.40428,0.167217 0.16722,0.129116 0.25188,0.325966 0.0868,0.19685 0.0868,0.436033 0,0.345017 -0.18204,0.599016 -0.18203,0.254 -0.52069,0.319617 l -0.10795,0.0254 h -1.01177 v 1.157816 z m 1.84573,0 -0.60113,-1.240366 0.29845,-0.1143 0.6604,1.354666 z m -1.53458,-1.454149 h 0.85725 q 0.0381,0 0.0889,-0.0042 0.0508,-0.0042 0.0995,-0.01482 0.15664,-0.03387 0.25612,-0.129117 0.1016,-0.09525 0.15028,-0.226483 0.0508,-0.131233 0.0508,-0.27305 0,-0.141816 -0.0508,-0.273049 -0.0487,-0.13335 -0.15028,-0.2286 -0.0995,-0.09525 -0.25612,-0.129117 -0.0487,-0.01058 -0.0995,-0.0127 -0.0508,-0.0042 -0.0889,-0.0042 h -0.85725 z"
         id="path18394" />
      <path
         d="m 117.38482,25.57547 q -0.33444,0 -0.57997,-0.148166 -0.24342,-0.148167 -0.37888,-0.416983 -0.13547,-0.268816 -0.13547,-0.630766 0,-0.37465 0.13335,-0.6477 0.13335,-0.273049 0.37465,-0.421216 0.24342,-0.148167 0.57362,-0.148167 0.33866,0 0.57785,0.156634 0.23918,0.154516 0.36194,0.444499 0.12277,0.289983 0.11219,0.69215 h -0.3175 v -0.110067 q -0.008,-0.444499 -0.19262,-0.670983 -0.18203,-0.226483 -0.5334,-0.226483 -0.3683,0 -0.56515,0.239183 -0.19473,0.239184 -0.19473,0.681566 0,0.4318 0.19473,0.670983 0.19685,0.237067 0.55669,0.237067 0.24553,0 0.42756,-0.112184 0.18415,-0.114299 0.28999,-0.328083 l 0.28998,0.112184 q -0.13547,0.298449 -0.40005,0.463549 -0.26247,0.162983 -0.59478,0.162983 z m -0.87419,-1.119715 v -0.26035 h 1.74625 v 0.26035 z"
         id="path18396" />
      <path
         d="m 120.13648,25.511971 q -0.19262,0.04022 -0.381,0.03175 -0.18627,-0.0085 -0.33444,-0.08043 -0.14605,-0.07197 -0.22225,-0.224366 -0.0614,-0.127 -0.0677,-0.256117 -0.004,-0.131233 -0.004,-0.298449 v -2.093382 h 0.30903 v 2.080682 q 0,0.143933 0.002,0.241299 0.004,0.09525 0.0444,0.169334 0.0762,0.141816 0.2413,0.169333 0.16721,0.02752 0.41275,-0.0127 z m -1.4986,-2.019299 v -0.2667 h 1.4986 v 0.2667 z"
         id="path18398" />
      <path
         d="m 121.46151,25.56912 q -0.20532,0 -0.35984,-0.0635 -0.1524,-0.0635 -0.26035,-0.17145 -0.10583,-0.10795 -0.17145,-0.245533 -0.0656,-0.1397 -0.0953,-0.294217 -0.0296,-0.156633 -0.0296,-0.31115 v -1.257299 h 0.31327 v 1.166283 q 0,0.188383 0.036,0.34925 0.036,0.160866 0.1143,0.281516 0.0804,0.118533 0.20532,0.18415 0.127,0.06562 0.30691,0.06562 0.1651,0 0.28999,-0.05715 0.127,-0.05715 0.21166,-0.162983 0.0868,-0.10795 0.13124,-0.26035 0.0444,-0.154516 0.0444,-0.347133 l 0.22013,0.04868 q 0,0.351366 -0.12277,0.590549 -0.12276,0.239183 -0.33866,0.36195 -0.2159,0.122766 -0.4953,0.122766 z m 0.76835,-0.05715 v -0.563033 h -0.0318 v -1.722966 h 0.31115 v 2.285999 z"
         id="path18400" />
      <path
         d="m 123.10192,25.511971 v -2.285999 h 0.2794 v 0.550333 l -0.055,-0.07197 q 0.0381,-0.1016 0.0995,-0.186267 0.0614,-0.08678 0.13335,-0.141816 0.0889,-0.07832 0.20743,-0.118534 0.11854,-0.04233 0.23919,-0.04868 0.12065,-0.0085 0.22013,0.01693 v 0.2921 q -0.12488,-0.03175 -0.27305,-0.01482 -0.14817,0.01693 -0.27305,0.118533 -0.1143,0.0889 -0.17145,0.213783 -0.0571,0.122766 -0.0762,0.262466 -0.019,0.137584 -0.019,0.27305 v 1.140883 z"
         id="path18402" />
      <path
         d="m 126.27903,25.511971 v -1.166283 q 0,-0.1905 -0.036,-0.34925 -0.036,-0.160866 -0.11642,-0.279399 -0.0783,-0.12065 -0.20532,-0.186267 -0.12488,-0.06562 -0.3048,-0.06562 -0.1651,0 -0.2921,0.05715 -0.12488,0.05715 -0.21166,0.165099 -0.0847,0.105834 -0.12912,0.258234 -0.0445,0.152399 -0.0445,0.347133 l -0.22013,-0.04868 q 0,-0.351366 0.12276,-0.590549 0.12277,-0.239183 0.33867,-0.36195 0.2159,-0.122767 0.4953,-0.122767 0.20532,0 0.35772,0.0635 0.15451,0.0635 0.26035,0.17145 0.10795,0.10795 0.17356,0.24765 0.0656,0.137583 0.0952,0.294217 0.0296,0.154516 0.0296,0.309033 v 1.257299 z m -1.65312,0 v -2.285999 h 0.28152 v 0.563033 h 0.0317 v 1.722966 z"
         id="path18404" />
      <path
         d="m 128.21577,25.511971 v -2.455332 q 0,-0.0889 0.008,-0.175683 0.0106,-0.08678 0.0402,-0.1651 0.0296,-0.08043 0.0931,-0.148166 0.0699,-0.0762 0.1524,-0.110067 0.0826,-0.03598 0.17145,-0.04657 0.091,-0.01058 0.1778,-0.01058 h 0.2921 v 0.262467 h -0.27094 q -0.17779,0 -0.26669,0.08678 -0.0868,0.08678 -0.0868,0.27305 v 2.489198 z m -0.39581,-2.019299 v -0.2667 h 1.33138 v 0.2667 z"
         id="path18406" />
      <path
         d="m 129.49,25.511971 v -2.285999 h 0.2794 v 0.550333 l -0.055,-0.07197 q 0.0381,-0.1016 0.0995,-0.186267 0.0614,-0.08678 0.13335,-0.141816 0.0889,-0.07832 0.20744,-0.118534 0.11853,-0.04233 0.23918,-0.04868 0.12065,-0.0085 0.22013,0.01693 v 0.2921 q -0.12488,-0.03175 -0.27305,-0.01482 -0.14816,0.01693 -0.27305,0.118533 -0.1143,0.0889 -0.17145,0.213783 -0.0572,0.122766 -0.0762,0.262466 -0.019,0.137584 -0.019,0.27305 v 1.140883 z"
         id="path18408" />
      <path
         d="m 131.92839,25.57547 q -0.34078,0 -0.58208,-0.154516 -0.2413,-0.154517 -0.37042,-0.427566 -0.12911,-0.27305 -0.12911,-0.626533 0,-0.359833 0.13123,-0.630766 0.13123,-0.270933 0.37253,-0.421217 0.24342,-0.1524 0.57785,-0.1524 0.3429,0 0.5842,0.154517 0.24342,0.1524 0.37042,0.42545 0.12912,0.270933 0.12912,0.624416 0,0.359833 -0.12912,0.632883 -0.12912,0.270933 -0.37253,0.423333 -0.24342,0.152399 -0.58209,0.152399 z m 0,-0.298449 q 0.381,0 0.56727,-0.251883 0.18627,-0.254 0.18627,-0.658283 0,-0.414867 -0.18839,-0.6604 -0.18626,-0.245533 -0.56515,-0.245533 -0.25611,0 -0.42333,0.116417 -0.1651,0.1143 -0.24765,0.319616 -0.0804,0.2032 -0.0804,0.4699 0,0.412749 0.1905,0.662516 0.1905,0.24765 0.56091,0.24765 z"
         id="path18410" />
      <path
         d="m 136.20405,25.511971 0.002,-1.500716 q 0,-0.264583 -0.14817,-0.414866 -0.14605,-0.1524 -0.37253,-0.1524 -0.12912,0 -0.25188,0.05927 -0.12277,0.05927 -0.2032,0.190499 -0.0783,0.131234 -0.0783,0.3429 l -0.18415,-0.05292 q -0.006,-0.245533 0.0953,-0.429682 0.10372,-0.18415 0.28363,-0.28575 0.18204,-0.103717 0.41064,-0.103717 0.34501,0 0.55245,0.213783 0.20743,0.211667 0.20743,0.573616 l -0.002,1.559983 z m -2.72838,0 v -2.285999 h 0.2794 v 0.563033 h 0.0339 v 1.722966 z m 1.36737,0 0.002,-1.479549 q 0,-0.27305 -0.14605,-0.429683 -0.14393,-0.15875 -0.381,-0.15875 -0.23706,0 -0.38311,0.162983 -0.14605,0.160867 -0.14605,0.429683 l -0.18627,-0.1016 q 0,-0.220133 0.10372,-0.393699 0.10372,-0.175684 0.28363,-0.275167 0.17992,-0.1016 0.40852,-0.1016 0.21801,0 0.38735,0.09313 0.17145,0.09313 0.26881,0.270934 0.0974,0.177799 0.0974,0.431799 l -0.002,1.551516 z"
         id="path18412" />
      <path
         d="m 138.86258,25.57547 q -0.34502,0 -0.5842,-0.154516 -0.23918,-0.154517 -0.36407,-0.42545 -0.12276,-0.273049 -0.127,-0.626533 0.004,-0.359833 0.13124,-0.630766 0.127,-0.273049 0.36618,-0.423333 0.23918,-0.1524 0.57996,-0.1524 0.34714,0 0.60325,0.169334 0.25824,0.169333 0.35349,0.463549 l -0.3048,0.09737 q -0.0804,-0.205317 -0.25612,-0.3175 -0.17357,-0.1143 -0.39793,-0.1143 -0.25189,0 -0.41698,0.116417 -0.1651,0.1143 -0.24554,0.319616 -0.0804,0.205317 -0.0825,0.472016 0.004,0.410633 0.1905,0.6604 0.18627,0.24765 0.55457,0.24765 0.23283,0 0.39581,-0.105834 0.1651,-0.107949 0.24977,-0.313266 l 0.31327,0.09313 q -0.127,0.3048 -0.37254,0.465667 -0.24553,0.158749 -0.58631,0.158749 z"
         id="path18414" />
      <path
         d="m 140.89668,25.57547 q -0.25823,0 -0.43392,-0.09313 -0.17356,-0.09313 -0.26034,-0.24765 -0.0868,-0.154516 -0.0868,-0.336549 0,-0.186267 0.0741,-0.3175 0.0762,-0.13335 0.20531,-0.218017 0.13123,-0.08467 0.30268,-0.129116 0.17357,-0.04233 0.38312,-0.07408 0.21167,-0.03387 0.41275,-0.05715 0.2032,-0.0254 0.3556,-0.04868 l -0.11007,0.06773 q 0.006,-0.338667 -0.13123,-0.50165 -0.13758,-0.162983 -0.47837,-0.162983 -0.23495,0 -0.39793,0.105833 -0.16087,0.105833 -0.22648,0.334433 l -0.30268,-0.0889 q 0.0783,-0.306916 0.31538,-0.476249 0.23706,-0.169334 0.61595,-0.169334 0.31326,0 0.53128,0.118534 0.22013,0.116416 0.31115,0.338666 0.0423,0.09948 0.055,0.22225 0.0127,0.122766 0.0127,0.249766 v 1.420283 H 141.7666 V 24.93836 l 0.0804,0.03387 q -0.11641,0.294216 -0.36195,0.448733 -0.24553,0.154516 -0.58843,0.154516 z m 0.036,-0.268816 q 0.21802,0 0.381,-0.07832 0.16299,-0.07832 0.26247,-0.213783 0.0995,-0.137583 0.12912,-0.309033 0.0254,-0.110066 0.0275,-0.2413 0.002,-0.133349 0.002,-0.198966 l 0.11853,0.06138 q -0.15875,0.02117 -0.34501,0.04233 -0.18415,0.02117 -0.36407,0.04868 -0.1778,0.02752 -0.32173,0.06562 -0.0974,0.02752 -0.18839,0.07832 -0.091,0.04868 -0.15028,0.131233 -0.0571,0.08255 -0.0571,0.205317 0,0.09948 0.0487,0.192616 0.0508,0.09313 0.16087,0.154517 0.11218,0.06138 0.29633,0.06138 z"
         id="path18416" />
      <path
         d="m 142.63657,25.511971 v -3.111498 h 0.31115 v 3.111498 z"
         id="path18418" />
      <path
         d="m 143.62505,25.511971 v -3.111498 h 0.31115 v 3.111498 z"
         id="path18420" />
    </g>
    <g
       aria-label="Trap"
       id="text19249"
       style="font-size:2.82222px;line-height:1.25;font-family:manrope;-inkscape-font-specification:manrope;stroke-width:0.264583">
      <path
         d="M 54.192646,32.638172 V 30.80514 h -0.709788 v -0.198966 h 1.62701 v 0.198966 h -0.709789 v 1.833032 z"
         id="path18349" />
      <path
         d="m 55.194527,32.638172 v -1.523999 h 0.186266 v 0.366889 l -0.03669,-0.04798 q 0.0254,-0.06773 0.06632,-0.124178 0.04092,-0.05785 0.0889,-0.09454 0.05927,-0.05221 0.138288,-0.07902 0.07902,-0.02822 0.159456,-0.03246 0.08043,-0.0056 0.146755,0.01129 v 0.194733 q -0.08326,-0.02117 -0.182033,-0.0099 -0.09878,0.01129 -0.182033,0.07902 -0.0762,0.05927 -0.1143,0.142522 -0.0381,0.08184 -0.0508,0.174978 -0.0127,0.09172 -0.0127,0.182033 v 0.760588 z"
         id="path18351" />
      <path
         d="m 56.59152,32.680505 q -0.172155,0 -0.289278,-0.06209 -0.115711,-0.06209 -0.173566,-0.1651 -0.05786,-0.103011 -0.05786,-0.224367 0,-0.124177 0.04939,-0.211666 0.0508,-0.0889 0.136878,-0.145345 0.08749,-0.05644 0.201789,-0.08608 0.115711,-0.02822 0.255411,-0.04939 0.141111,-0.02258 0.275166,-0.0381 0.135467,-0.01693 0.237066,-0.03246 l -0.07338,0.04516 q 0.0042,-0.225778 -0.08749,-0.334433 -0.09172,-0.108656 -0.318911,-0.108656 -0.156633,0 -0.265289,0.07056 -0.107244,0.07056 -0.150988,0.222955 l -0.201789,-0.05927 q 0.05221,-0.204611 0.210255,-0.3175 0.158045,-0.112889 0.410633,-0.112889 0.208845,0 0.354189,0.07902 0.146755,0.07761 0.207433,0.225778 0.02822,0.06632 0.03669,0.148166 0.0085,0.08184 0.0085,0.166511 v 0.946855 h -0.184856 v -0.382411 l 0.05362,0.02258 q -0.07761,0.196144 -0.241299,0.299155 -0.163689,0.103011 -0.392289,0.103011 z m 0.02399,-0.179211 q 0.145344,0 0.254,-0.05221 0.108655,-0.05221 0.174977,-0.142522 0.06632,-0.09172 0.08608,-0.206022 0.01693,-0.07338 0.01834,-0.160866 0.0014,-0.0889 0.0014,-0.132645 l 0.07902,0.04092 q -0.105834,0.01411 -0.230011,0.02822 -0.122767,0.01411 -0.242711,0.03245 -0.118533,0.01835 -0.214489,0.04375 -0.06491,0.01834 -0.125589,0.05221 -0.06068,0.03245 -0.100189,0.08749 -0.0381,0.05503 -0.0381,0.136877 0,0.06632 0.03246,0.128411 0.03387,0.06209 0.107244,0.103011 0.07479,0.04092 0.197556,0.04092 z"
         id="path18353" />
      <path
         d="m 58.407613,32.680505 q -0.210255,0 -0.355599,-0.105833 -0.145345,-0.107244 -0.220134,-0.289277 -0.07479,-0.183445 -0.07479,-0.410633 0,-0.231422 0.07479,-0.412045 0.0762,-0.182033 0.222956,-0.286455 0.146755,-0.104422 0.361244,-0.104422 0.208844,0 0.358422,0.105833 0.149578,0.105834 0.2286,0.287867 0.08043,0.182033 0.08043,0.409222 0,0.228599 -0.08043,0.410633 -0.08043,0.182033 -0.231422,0.289277 -0.150989,0.105833 -0.364067,0.105833 z m -0.685799,0.635 v -2.201332 h 0.186266 v 1.147233 h 0.02258 v 1.054099 z m 0.664633,-0.828322 q 0.159455,0 0.265288,-0.08043 0.105834,-0.08043 0.158045,-0.218722 0.05362,-0.1397 0.05362,-0.313266 0,-0.172156 -0.05221,-0.310445 -0.05221,-0.138288 -0.159456,-0.218722 -0.105833,-0.08043 -0.269522,-0.08043 -0.159455,0 -0.265288,0.07761 -0.104422,0.07761 -0.156634,0.2159 -0.05221,0.136878 -0.05221,0.316089 0,0.176388 0.05221,0.316088 0.05221,0.138289 0.158045,0.217311 0.105833,0.07902 0.268111,0.07902 z"
         id="path18355" />
    </g>
    <text
       xml:space="preserve"
       style="font-size:2.82222px;line-height:1.25;font-family:manrope;-inkscape-font-specification:manrope;fill:none;stroke-width:0.264583"
       x="112.36363"
       y="40.502319"
       id="text25003"><tspan
         sodipodi:role="line"
         id="tspan25001"
         style="font-size:2.82222px;fill:none;stroke-width:0.264583"
         x="112.36363"
         y="40.502319">Return</tspan></text>
    <rect
       style="fill:none;stroke:#000000;stroke-width:0.264999;stroke-miterlimit:4;stroke-dasharray:none;stroke-dashoffset:0"
       id="rect29925"
       width="18.915281"
       height="6.3727031"
       x="7.4651875"
       y="21.890007" />
    <rect
       style="fill:none;stroke:#000000;stroke-width:0.264999;stroke-miterlimit:4;stroke-dasharray:none;stroke-dashoffset:0"
       id="rect29927"
       width="25.171083"
       height="6.9755478"
       x="33.921368"
       y="21.277746" />
    <rect
       style="fill:none;stroke:#0055d4;stroke-width:0.264999;stroke-miterlimit:4;stroke-dasharray:none;stroke-dashoffset:0"
       id="rect29929"
       width="27.631767"
       height="6.2908082"
       x="72.594879"
       y="33.600182" />
    <rect
       style="fill:none;stroke:#000000;stroke-width:0.264999;stroke-miterlimit:4;stroke-dasharray:none;stroke-dashoffset:0"
       id="rect29931"
       width="34.170242"
       height="6.6249509"
       x="111.91452"
       y="20.540226" />
    <g
       aria-label="Return"
       id="text30673"
       style="font-size:2.82222px;line-height:1.25;font-family:manrope;-inkscape-font-specification:manrope;fill:#0055d4;stroke-width:0.264583">
      <path
         d="M 111.66654,32.794949 V 30.76295 h 0.78458 q 0.0296,0 0.0663,0.0028 0.0381,0.0014 0.0762,0.0085 0.15946,0.02399 0.26952,0.111478 0.11148,0.08608 0.16793,0.217311 0.0578,0.131233 0.0578,0.290688 0,0.230011 -0.12135,0.399344 -0.12136,0.169334 -0.34714,0.213078 l -0.072,0.01693 h -0.67451 v 0.771878 z m 1.23049,0 -0.40076,-0.826911 0.19897,-0.0762 0.44027,0.903111 z m -1.02305,-0.969433 h 0.57149 q 0.0254,0 0.0593,-0.0028 0.0339,-0.0028 0.0663,-0.0099 0.10443,-0.02258 0.17075,-0.08608 0.0677,-0.0635 0.10019,-0.150988 0.0339,-0.08749 0.0339,-0.182034 0,-0.09454 -0.0339,-0.182033 -0.0325,-0.0889 -0.10019,-0.1524 -0.0663,-0.0635 -0.17075,-0.08608 -0.0324,-0.0071 -0.0663,-0.0085 -0.0339,-0.0028 -0.0593,-0.0028 h -0.57149 z"
         id="path18381" />
      <path
         d="m 114.09083,32.837282 q -0.22296,0 -0.38665,-0.09878 -0.16228,-0.09878 -0.25259,-0.277989 -0.0903,-0.17921 -0.0903,-0.42051 0,-0.249767 0.0889,-0.4318 0.0889,-0.182033 0.24977,-0.280811 0.16228,-0.09878 0.38241,-0.09878 0.22578,0 0.38523,0.104423 0.15946,0.103011 0.2413,0.296333 0.0819,0.193322 0.0748,0.461433 h -0.21167 v -0.07338 q -0.006,-0.296333 -0.12841,-0.447322 -0.12135,-0.150989 -0.3556,-0.150989 -0.24553,0 -0.37676,0.159456 -0.12982,0.159455 -0.12982,0.454377 0,0.287867 0.12982,0.447322 0.13123,0.158044 0.37112,0.158044 0.16369,0 0.28504,-0.07479 0.12277,-0.0762 0.19333,-0.218723 l 0.19332,0.07479 q -0.0903,0.198967 -0.2667,0.309033 -0.17498,0.108656 -0.39652,0.108656 z m -0.58279,-0.746477 v -0.173567 h 1.16416 v 0.173567 z"
         id="path18383" />
      <path
         d="m 115.92527,32.794949 q -0.12841,0.02681 -0.254,0.02117 -0.12418,-0.0056 -0.22296,-0.05362 -0.0974,-0.04798 -0.14816,-0.149578 -0.0409,-0.08467 -0.0452,-0.170744 -0.003,-0.08749 -0.003,-0.198966 v -1.395588 h 0.20602 v 1.387121 q 0,0.09595 10e-4,0.160866 0.003,0.0635 0.0296,0.112889 0.0508,0.09454 0.16087,0.112889 0.11148,0.01834 0.27517,-0.0085 z M 114.9262,31.44875 v -0.1778 h 0.99907 v 0.1778 z"
         id="path18385" />
      <path
         d="m 116.80862,32.833049 q -0.13688,0 -0.23989,-0.04233 -0.1016,-0.04233 -0.17356,-0.1143 -0.0706,-0.07197 -0.1143,-0.163688 -0.0437,-0.09313 -0.0635,-0.196145 -0.0198,-0.104422 -0.0198,-0.207433 V 31.27095 h 0.20884 v 0.777521 q 0,0.125589 0.024,0.232834 0.024,0.107244 0.0762,0.187677 0.0536,0.07902 0.13688,0.122767 0.0847,0.04374 0.20461,0.04374 0.11007,0 0.19332,-0.0381 0.0847,-0.0381 0.14111,-0.108655 0.0579,-0.07197 0.0875,-0.173567 0.0296,-0.103011 0.0296,-0.231422 l 0.14675,0.03246 q 0,0.234244 -0.0818,0.393699 -0.0819,0.159456 -0.22578,0.2413 -0.14393,0.08185 -0.3302,0.08185 z m 0.51223,-0.0381 v -0.375356 h -0.0212 V 31.27095 h 0.20743 v 1.523999 z"
         id="path18387" />
      <path
         d="M 117.90223,32.794949 V 31.27095 h 0.18627 v 0.366888 l -0.0367,-0.04798 q 0.0254,-0.06773 0.0663,-0.124178 0.0409,-0.05786 0.0889,-0.09454 0.0593,-0.05221 0.13829,-0.07902 0.079,-0.02822 0.15945,-0.03245 0.0804,-0.0056 0.14676,0.01129 v 0.194733 q -0.0833,-0.02117 -0.18203,-0.0099 -0.0988,0.01129 -0.18204,0.07902 -0.0762,0.05927 -0.1143,0.142522 -0.0381,0.08185 -0.0508,0.174978 -0.0127,0.09172 -0.0127,0.182033 v 0.760589 z"
         id="path18389" />
      <path
         d="m 120.0203,32.794949 v -0.777522 q 0,-0.127 -0.024,-0.232833 -0.024,-0.107245 -0.0776,-0.186267 -0.0522,-0.08043 -0.13688,-0.124177 -0.0832,-0.04375 -0.2032,-0.04375 -0.11006,0 -0.19473,0.0381 -0.0832,0.0381 -0.14111,0.110067 -0.0564,0.07055 -0.0861,0.172155 -0.0296,0.1016 -0.0296,0.231422 l -0.14676,-0.03245 q 0,-0.234245 0.0819,-0.3937 0.0818,-0.159455 0.22578,-0.2413 0.14393,-0.08184 0.3302,-0.08184 0.13687,0 0.23847,0.04233 0.10301,0.04233 0.17357,0.1143 0.072,0.07197 0.11571,0.1651 0.0438,0.09172 0.0635,0.196144 0.0198,0.103011 0.0198,0.206022 v 0.8382 z m -1.10207,0 V 31.27095 h 0.18767 v 0.375355 h 0.0212 v 1.148644 z"
         id="path18391" />
    </g>
    <g
       id="path31290"
       style="stroke-width:1;stroke-miterlimit:4;stroke-dasharray:none">
      <path
         style="color:#000000;fill:#000000;stroke-width:1;stroke-miterlimit:4;stroke-dasharray:none"
         d="m 59.419922,25.001953 -0.175781,0.197266 12.779296,11.357422 0.175782,-0.197266 z"
         id="path43615" />
      <g
         id="g43605"
         style="stroke-width:1;stroke-miterlimit:4;stroke-dasharray:none">
        <g
           id="path43607"
           style="stroke-width:1;stroke-miterlimit:4;stroke-dasharray:none">
          <path
             style="color:#000000;fill:#000000;fill-rule:evenodd;stroke-width:1;stroke-miterlimit:4;stroke-dasharray:none"
             d="m 71.321142,35.755268 -0.747058,0.04402 1.735907,0.834774 -1.03287,-1.625853 z"
             id="path43611" />
          <path
             style="color:#000000;fill:#000000;fill-rule:evenodd;stroke-width:1;stroke-miterlimit:4;stroke-dasharray:none"
             d="m 71.191406,34.740234 0.05469,0.949219 -0.947266,0.05469 2.203125,1.060546 z m 0.171875,0.53711 0.753906,1.185547 -1.267578,-0.609375 0.546875,-0.03125 -0.0059,-0.07031 z"
             id="path43613" />
        </g>
      </g>
    </g>
    <g
       id="path31560"
       style="stroke-width:1;stroke-miterlimit:4;stroke-dasharray:none">
      <path
         style="color:#000000;fill:#0055d4;stroke-width:1;stroke-miterlimit:4;stroke-dasharray:none"
         d="m 111.47461,23.773437 -11,13.191407 0.20508,0.169922 10.99804,-13.191407 z"
         id="path43629" />
      <g
         id="g43619"
         style="stroke-width:1;stroke-miterlimit:4;stroke-dasharray:none">
        <g
           id="path43621"
           style="stroke-width:1;stroke-miterlimit:4;stroke-dasharray:none">
          <path
             style="color:#000000;fill:#0055d4;fill-rule:evenodd;stroke-width:1;stroke-miterlimit:4;stroke-dasharray:none"
             d="m 110.89861,24.671121 0.0675,0.745299 0.77965,-1.761353 -1.5925,1.083597 z"
             id="path43625" />
          <path
             style="color:#000000;fill:#0055d4;fill-rule:evenodd;stroke-width:1;stroke-miterlimit:4;stroke-dasharray:none"
             d="m 111.91016,23.457031 -2.02149,1.376953 0.94531,-0.08594 0.0859,0.945312 z m -0.32813,0.394531 -0.57031,1.28711 -0.0488,-0.544922 -0.0703,0.0078 -0.47461,0.04297 z"
             id="path43627" />
        </g>
      </g>
    </g>
    <g
       id="path31605"
       style="stroke-width:1;stroke-miterlimit:4;stroke-dasharray:none">
      <path
         style="color:#000000;fill:#000000;stroke-width:1;stroke-miterlimit:4;stroke-dasharray:none"
         d="m 33.681641,24.851562 -7.25,0.0918 0.0039,0.265625 7.25,-0.0918 z"
         id="path43601" />
      <g
         id="g43591"
         style="stroke-width:1;stroke-miterlimit:4;stroke-dasharray:none">
        <g
           id="path43593"
           style="stroke-width:1;stroke-miterlimit:4;stroke-dasharray:none">
          <path
             style="color:#000000;fill:#000000;fill-rule:evenodd;stroke-width:1;stroke-miterlimit:4;stroke-dasharray:none"
             d="m 32.625872,24.997986 -0.52246,0.535788 1.84527,-0.552447 -1.858598,-0.505801 z"
             id="path43597" />
          <path
             style="color:#000000;fill:#000000;fill-rule:evenodd;stroke-width:1;stroke-miterlimit:4;stroke-dasharray:none"
             d="M 31.845703,24.335937 32.527344,25 l -0.664063,0.679687 2.341797,-0.701171 z m 0.486328,0.277344 1.361328,0.371094 -1.349609,0.404297 0.382812,-0.392578 -0.05078,-0.04883 z"
             id="path43599" />
        </g>
      </g>
    </g>
    <g
       aria-label="0 Kernel Mode"
       id="text34150"
       style="font-size:4.23333px;line-height:1.25;font-family:manrope;-inkscape-font-specification:manrope;fill:#0055d4;stroke-width:0.264583">
      <path
         d="m 10.066101,41.615368 q -0.2815161,0 -0.5079993,-0.131233 Q 9.3337353,41.352902 9.202502,41.128535 9.0712688,40.902052 9.0712688,40.620536 v -1.185332 q 0,-0.281517 0.1312332,-0.505883 0.1312333,-0.226483 0.3555997,-0.357717 0.2264832,-0.131233 0.5079993,-0.131233 0.281517,0 0.505883,0.131233 0.226483,0.131234 0.357717,0.357717 0.131233,0.224366 0.131233,0.505883 v 1.185332 q 0,0.281516 -0.131233,0.507999 -0.131234,0.224367 -0.357717,0.3556 -0.224366,0.131233 -0.505883,0.131233 z m 0,-0.300566 q 0.188383,0 0.3429,-0.09102 0.154517,-0.09313 0.245533,-0.247649 0.09102,-0.154517 0.09102,-0.340783 v -1.214966 q 0,-0.188383 -0.09102,-0.3429 -0.09102,-0.154516 -0.245533,-0.245533 -0.154517,-0.09313 -0.3429,-0.09313 -0.1883829,0 -0.3428994,0.09313 -0.1545165,0.09102 -0.2455331,0.245533 -0.091017,0.154517 -0.091017,0.3429 v 1.214966 q 0,0.186266 0.091017,0.340783 0.091017,0.154516 0.2455331,0.247649 0.1545165,0.09102 0.3428994,0.09102 z"
         id="path18326" />
      <path
         d="m 12.500256,41.551868 v -3.047997 h 0.311149 v 1.439332 l 1.390649,-1.439332 h 0.397933 l -1.420282,1.471082 1.536699,1.576915 h -0.4064 L 12.811405,40.02787 v 1.523998 z"
         id="path18328" />
      <path
         d="m 15.810708,41.615368 q -0.334433,0 -0.579966,-0.148166 -0.243417,-0.148167 -0.378883,-0.416983 -0.135467,-0.268817 -0.135467,-0.630766 0,-0.37465 0.13335,-0.6477 0.13335,-0.27305 0.37465,-0.421216 0.243416,-0.148167 0.573616,-0.148167 0.338666,0 0.57785,0.156634 0.239183,0.154516 0.361949,0.444499 0.122767,0.289983 0.112183,0.69215 h -0.317499 v -0.110067 q -0.0085,-0.4445 -0.192617,-0.670983 -0.182033,-0.226483 -0.533399,-0.226483 -0.3683,0 -0.56515,0.239183 -0.194733,0.239183 -0.194733,0.681566 0,0.4318 0.194733,0.670983 0.19685,0.237067 0.556683,0.237067 0.245533,0 0.427566,-0.112184 0.18415,-0.1143 0.289983,-0.328083 l 0.289983,0.112184 q -0.135466,0.298449 -0.400049,0.463549 -0.262467,0.162983 -0.594783,0.162983 z m -0.874183,-1.119715 v -0.26035 h 1.746249 v 0.26035 z"
         id="path18330" />
      <path
         d="M 17.317771,41.551868 V 39.26587 h 0.279399 v 0.550333 l -0.05503,-0.07197 q 0.0381,-0.1016 0.09948,-0.186267 0.06138,-0.08678 0.13335,-0.141816 0.0889,-0.07832 0.207434,-0.118534 0.118533,-0.04233 0.239183,-0.04868 0.12065,-0.0085 0.220133,0.01693 v 0.2921 q -0.124883,-0.03175 -0.27305,-0.01482 -0.148167,0.01693 -0.27305,0.118534 -0.1143,0.0889 -0.17145,0.213783 -0.05715,0.122766 -0.0762,0.262466 -0.01905,0.137584 -0.01905,0.27305 v 1.140882 z"
         id="path18332" />
      <path
         d="m 20.494878,41.551868 v -1.166282 q 0,-0.1905 -0.03598,-0.34925 -0.03598,-0.160866 -0.116417,-0.279399 -0.07832,-0.12065 -0.205316,-0.186267 -0.124884,-0.06562 -0.3048,-0.06562 -0.1651,0 -0.2921,0.05715 -0.124883,0.05715 -0.211666,0.1651 -0.08467,0.105834 -0.129117,0.258233 -0.04445,0.1524 -0.04445,0.347133 l -0.220133,-0.04868 q 0,-0.351366 0.122767,-0.590549 0.122766,-0.239183 0.338666,-0.36195 0.2159,-0.122767 0.4953,-0.122767 0.205316,0 0.357716,0.0635 0.154516,0.0635 0.26035,0.17145 0.10795,0.10795 0.173566,0.24765 0.06562,0.137583 0.09525,0.294216 0.02963,0.154517 0.02963,0.309033 v 1.257299 z m -1.653115,0 V 39.26587 h 0.281516 v 0.563033 h 0.03175 v 1.722965 z"
         id="path18334" />
      <path
         d="m 22.310967,41.615368 q -0.334433,0 -0.579966,-0.148166 -0.243416,-0.148167 -0.378883,-0.416983 -0.135466,-0.268817 -0.135466,-0.630766 0,-0.37465 0.13335,-0.6477 0.133349,-0.27305 0.374649,-0.421216 0.243417,-0.148167 0.573616,-0.148167 0.338667,0 0.57785,0.156634 0.239183,0.154516 0.36195,0.444499 0.122766,0.289983 0.112183,0.69215 h -0.3175 v -0.110067 q -0.0085,-0.4445 -0.192616,-0.670983 -0.182034,-0.226483 -0.5334,-0.226483 -0.3683,0 -0.565149,0.239183 -0.194734,0.239183 -0.194734,0.681566 0,0.4318 0.194734,0.670983 0.196849,0.237067 0.556682,0.237067 0.245534,0 0.427567,-0.112184 0.18415,-0.1143 0.289983,-0.328083 l 0.289983,0.112184 q -0.135467,0.298449 -0.40005,0.463549 -0.262466,0.162983 -0.594783,0.162983 z m -0.874182,-1.119715 v -0.26035 h 1.746248 v 0.26035 z"
         id="path18336" />
      <path
         d="m 23.860363,41.551868 v -3.111497 h 0.31115 v 3.111497 z"
         id="path18338" />
      <path
         d="m 25.653172,41.551868 v -3.047997 h 0.28575 l 1.198032,2.563281 1.191683,-2.563281 h 0.289983 v 3.045881 h -0.296333 v -2.351615 l -1.085849,2.353731 h -0.201084 l -1.083732,-2.353731 v 2.353731 z"
         id="path18340" />
      <path
         d="m 30.165901,41.615368 q -0.340783,0 -0.582083,-0.154516 -0.241299,-0.154517 -0.370416,-0.427566 -0.129117,-0.27305 -0.129117,-0.626533 0,-0.359833 0.131234,-0.630766 0.131233,-0.270934 0.372533,-0.421217 0.243416,-0.1524 0.577849,-0.1524 0.3429,0 0.5842,0.154517 0.243416,0.1524 0.370416,0.42545 0.129117,0.270933 0.129117,0.624416 0,0.359833 -0.129117,0.632883 -0.129116,0.270933 -0.372533,0.423333 -0.243416,0.152399 -0.582083,0.152399 z m 0,-0.298449 q 0.381,0 0.567266,-0.251883 0.186267,-0.254 0.186267,-0.658283 0,-0.414867 -0.188383,-0.6604 -0.186267,-0.245533 -0.56515,-0.245533 -0.256116,0 -0.423333,0.116417 -0.1651,0.1143 -0.24765,0.319616 -0.08043,0.2032 -0.08043,0.4699 0,0.412749 0.1905,0.662516 0.1905,0.24765 0.560916,0.24765 z"
         id="path18342" />
      <path
         d="m 32.602179,41.615368 q -0.319616,0 -0.546099,-0.158749 -0.226484,-0.160867 -0.347133,-0.433917 -0.12065,-0.27305 -0.12065,-0.615949 0,-0.340783 0.118533,-0.613833 0.12065,-0.27305 0.345016,-0.4318 0.224367,-0.15875 0.537633,-0.15875 0.321733,0 0.541866,0.156634 0.220133,0.156633 0.332317,0.429683 0.1143,0.270933 0.1143,0.618066 0,0.340783 -0.112184,0.615949 -0.112183,0.27305 -0.330199,0.433917 -0.218017,0.158749 -0.5334,0.158749 z m 0.03175,-0.289983 q 0.243417,0 0.402166,-0.118533 0.15875,-0.118533 0.237067,-0.325966 0.07832,-0.20955 0.07832,-0.474133 0,-0.268817 -0.07832,-0.474133 -0.07832,-0.207433 -0.237067,-0.32385 -0.156633,-0.116416 -0.395816,-0.116416 -0.245533,0 -0.4064,0.120649 -0.160866,0.12065 -0.239183,0.328083 -0.0762,0.207434 -0.0762,0.465667 0,0.26035 0.07832,0.469899 0.08043,0.207433 0.239183,0.328083 0.15875,0.12065 0.397933,0.12065 z m 0.717549,0.226483 V 39.83102 h -0.03387 v -1.327149 h 0.313266 v 3.047997 z"
         id="path18344" />
      <path
         d="m 35.190856,41.615368 q -0.334433,0 -0.579966,-0.148166 -0.243417,-0.148167 -0.378883,-0.416983 -0.135467,-0.268817 -0.135467,-0.630766 0,-0.37465 0.13335,-0.6477 0.13335,-0.27305 0.37465,-0.421216 0.243416,-0.148167 0.573616,-0.148167 0.338666,0 0.577849,0.156634 0.239184,0.154516 0.36195,0.444499 0.122767,0.289983 0.112183,0.69215 h -0.317499 v -0.110067 q -0.0085,-0.4445 -0.192617,-0.670983 -0.182033,-0.226483 -0.533399,-0.226483 -0.3683,0 -0.56515,0.239183 -0.194733,0.239183 -0.194733,0.681566 0,0.4318 0.194733,0.670983 0.19685,0.237067 0.556683,0.237067 0.245533,0 0.427566,-0.112184 0.18415,-0.1143 0.289983,-0.328083 l 0.289983,0.112184 q -0.135466,0.298449 -0.400049,0.463549 -0.262467,0.162983 -0.594783,0.162983 z m -0.874183,-1.119715 v -0.26035 h 1.746249 v 0.26035 z"
         id="path18346" />
    </g>
    <g
       aria-label="1 User Mode"
       id="text42568"
       style="font-size:4.23333px;line-height:1.25;font-family:manrope;-inkscape-font-specification:manrope;stroke-width:0.264583">
      <path
         d="m 9.4786456,20.07592 v -2.700864 l -0.5736162,0.345016 v -0.34925 l 0.5736162,-0.342899 h 0.315383 v 3.047997 z"
         id="path18271" />
      <path
         d="m 12.634585,20.13942 q -0.349249,0 -0.618066,-0.143933 -0.2667,-0.143933 -0.419099,-0.4064 -0.1524,-0.262466 -0.1524,-0.613833 v -1.945215 l 0.313266,-0.0021 v 1.907115 q 0,0.237066 0.08043,0.410633 0.08043,0.17145 0.20955,0.283633 0.131233,0.110066 0.28575,0.162983 0.154517,0.05292 0.300566,0.05292 0.148167,0 0.302683,-0.05292 0.154517,-0.05292 0.283634,-0.162983 0.129116,-0.112183 0.209549,-0.283633 0.08043,-0.173567 0.08043,-0.410633 v -1.907115 h 0.313266 v 1.947331 q 0,0.351367 -0.1524,0.613833 -0.1524,0.26035 -0.421216,0.4064 -0.2667,0.143933 -0.61595,0.143933 z"
         id="path18273" />
      <path
         d="m 15.269831,20.137303 q -0.402166,0 -0.662516,-0.173566 -0.258233,-0.173567 -0.317499,-0.4826 l 0.317499,-0.05292 q 0.0508,0.194733 0.230717,0.311149 0.182033,0.1143 0.448733,0.1143 0.26035,0 0.410633,-0.10795 0.150283,-0.110066 0.150283,-0.298449 0,-0.105834 -0.04868,-0.17145 -0.04657,-0.06773 -0.192617,-0.124883 -0.14605,-0.05715 -0.436033,-0.135467 -0.31115,-0.08467 -0.486833,-0.169333 -0.175683,-0.08467 -0.249766,-0.194733 -0.07408,-0.112184 -0.07408,-0.27305 0,-0.194733 0.110066,-0.340783 0.110067,-0.148167 0.3048,-0.2286 0.194733,-0.08255 0.452966,-0.08255 0.258233,0 0.461433,0.08467 0.205317,0.08255 0.3302,0.232833 0.124883,0.150283 0.148166,0.34925 l -0.317499,0.05715 q -0.03175,-0.201083 -0.201084,-0.317499 -0.167216,-0.118533 -0.425449,-0.122767 -0.243417,-0.0064 -0.395816,0.09313 -0.1524,0.09737 -0.1524,0.26035 0,0.09102 0.05503,0.156633 0.05503,0.0635 0.198966,0.12065 0.14605,0.05715 0.414867,0.124884 0.315383,0.08043 0.495299,0.169333 0.179917,0.0889 0.256117,0.20955 0.0762,0.120649 0.0762,0.298449 0,0.32385 -0.2413,0.510117 -0.239183,0.184149 -0.6604,0.184149 z"
         id="path18275" />
      <path
         d="m 17.606628,20.13942 q -0.334433,0 -0.579966,-0.148166 -0.243416,-0.148167 -0.378883,-0.416983 -0.135466,-0.268817 -0.135466,-0.630767 0,-0.374649 0.13335,-0.647699 0.133349,-0.27305 0.374649,-0.421216 0.243417,-0.148167 0.573616,-0.148167 0.338667,0 0.57785,0.156633 0.239183,0.154517 0.36195,0.4445 0.122766,0.289983 0.112183,0.692149 h -0.3175 v -0.110066 q -0.0085,-0.4445 -0.192616,-0.670983 -0.182034,-0.226483 -0.5334,-0.226483 -0.3683,0 -0.565149,0.239183 -0.194734,0.239183 -0.194734,0.681566 0,0.4318 0.194734,0.670983 0.196849,0.237066 0.556682,0.237066 0.245534,0 0.427567,-0.112183 0.18415,-0.1143 0.289983,-0.328083 l 0.289983,0.112183 q -0.135467,0.29845 -0.40005,0.46355 -0.262466,0.162983 -0.594783,0.162983 z m -0.874182,-1.119716 v -0.260349 h 1.746248 v 0.260349 z"
         id="path18277" />
      <path
         d="m 19.113691,20.07592 v -2.285998 h 0.2794 v 0.550333 l -0.05503,-0.07197 q 0.0381,-0.1016 0.09948,-0.186266 0.06138,-0.08678 0.13335,-0.141817 0.0889,-0.07832 0.207433,-0.118533 0.118533,-0.04233 0.239183,-0.04868 0.12065,-0.0085 0.220133,0.01693 v 0.2921 q -0.124883,-0.03175 -0.27305,-0.01482 -0.148166,0.01693 -0.273049,0.118533 -0.1143,0.0889 -0.17145,0.213784 -0.05715,0.122766 -0.0762,0.262466 -0.01905,0.137583 -0.01905,0.27305 v 1.140882 z"
         id="path18279" />
      <path
         d="m 21.48646,20.07592 v -3.047997 h 0.28575 l 1.198033,2.563281 1.191682,-2.563281 h 0.289983 v 3.04588 H 24.155575 V 17.722189 L 23.069726,20.07592 H 22.868643 L 21.78491,17.722189 v 2.353731 z"
         id="path18281" />
      <path
         d="m 25.99919,20.13942 q -0.340783,0 -0.582082,-0.154516 -0.2413,-0.154517 -0.370417,-0.427567 -0.129116,-0.27305 -0.129116,-0.626533 0,-0.359833 0.131233,-0.630766 0.131233,-0.270933 0.372533,-0.421216 0.243416,-0.1524 0.577849,-0.1524 0.3429,0 0.5842,0.154517 0.243416,0.152399 0.370416,0.425449 0.129117,0.270933 0.129117,0.624416 0,0.359833 -0.129117,0.632883 -0.129116,0.270933 -0.372533,0.423333 -0.243416,0.1524 -0.582083,0.1524 z m 0,-0.29845 q 0.381,0 0.567267,-0.251883 0.186266,-0.254 0.186266,-0.658283 0,-0.414866 -0.188383,-0.660399 -0.186267,-0.245533 -0.56515,-0.245533 -0.256116,0 -0.423333,0.116416 -0.165099,0.1143 -0.247649,0.319617 -0.08043,0.2032 -0.08043,0.469899 0,0.41275 0.1905,0.662517 0.1905,0.247649 0.560916,0.247649 z"
         id="path18283" />
      <path
         d="m 28.435468,20.13942 q -0.319616,0 -0.546099,-0.15875 -0.226483,-0.160866 -0.347133,-0.433916 -0.12065,-0.27305 -0.12065,-0.61595 0,-0.340783 0.118533,-0.613832 0.12065,-0.27305 0.345016,-0.4318 0.224367,-0.15875 0.537633,-0.15875 0.321733,0 0.541866,0.156633 0.220134,0.156633 0.332317,0.429683 0.1143,0.270933 0.1143,0.618066 0,0.340783 -0.112183,0.61595 -0.112184,0.27305 -0.3302,0.433916 -0.218017,0.15875 -0.5334,0.15875 z m 0.03175,-0.289983 q 0.243417,0 0.402167,-0.118533 0.158749,-0.118534 0.237066,-0.325967 0.07832,-0.209549 0.07832,-0.474133 0,-0.268816 -0.07832,-0.474133 -0.07832,-0.207433 -0.237066,-0.323849 -0.156634,-0.116417 -0.395817,-0.116417 -0.245533,0 -0.406399,0.12065 -0.160867,0.12065 -0.239184,0.328083 -0.0762,0.207433 -0.0762,0.465666 0,0.26035 0.07832,0.4699 0.08043,0.207433 0.239183,0.328083 0.15875,0.12065 0.397933,0.12065 z m 0.71755,0.226483 v -1.720848 h -0.03387 v -1.327149 h 0.313266 v 3.047997 z"
         id="path18285" />
      <path
         d="m 31.024143,20.13942 q -0.334433,0 -0.579966,-0.148166 -0.243416,-0.148167 -0.378883,-0.416983 -0.135467,-0.268817 -0.135467,-0.630767 0,-0.374649 0.13335,-0.647699 0.13335,-0.27305 0.37465,-0.421216 0.243416,-0.148167 0.573616,-0.148167 0.338667,0 0.57785,0.156633 0.239183,0.154517 0.361949,0.4445 0.122767,0.289983 0.112184,0.692149 h -0.3175 v -0.110066 q -0.0085,-0.4445 -0.192617,-0.670983 -0.182033,-0.226483 -0.533399,-0.226483 -0.3683,0 -0.56515,0.239183 -0.194733,0.239183 -0.194733,0.681566 0,0.4318 0.194733,0.670983 0.19685,0.237066 0.556683,0.237066 0.245533,0 0.427566,-0.112183 0.18415,-0.1143 0.289984,-0.328083 l 0.289983,0.112183 q -0.135467,0.29845 -0.40005,0.46355 -0.262466,0.162983 -0.594783,0.162983 z m -0.874182,-1.119716 v -0.260349 h 1.746248 v 0.260349 z"
         id="path18287" />
    </g>
  </g>
</svg>
