<?xml version="1.0" encoding="UTF-8" standalone="no"?>
<svg
   xmlns:dc="http://purl.org/dc/elements/1.1/"
   xmlns:cc="http://creativecommons.org/ns#"
   xmlns:rdf="http://www.w3.org/1999/02/22-rdf-syntax-ns#"
   xmlns:svg="http://www.w3.org/2000/svg"
   xmlns="http://www.w3.org/2000/svg"
   xmlns:sodipodi="http://sodipodi.sourceforge.net/DTD/sodipodi-0.dtd"
   xmlns:inkscape="http://www.inkscape.org/namespaces/inkscape"
   version="1.1"
   width="137.06255mm"
   height="72.473267mm"
   id="svg1017"
   sodipodi:docname="dlatych.svg"
   inkscape:version="1.0.1 (3bc2e813f5, 2020-09-07)">
  <metadata
     id="metadata1023">
    <rdf:RDF>
      <cc:Work
         rdf:about="">
        <dc:format>image/svg+xml</dc:format>
        <dc:type
           rdf:resource="http://purl.org/dc/dcmitype/StillImage" />
        <dc:title></dc:title>
      </cc:Work>
    </rdf:RDF>
  </metadata>
  <defs
     id="defs1021" />
  <sodipodi:namedview
     pagecolor="#ffffff"
     bordercolor="#666666"
     borderopacity="1"
     objecttolerance="10"
     gridtolerance="10"
     guidetolerance="10"
     inkscape:pageopacity="0"
     inkscape:pageshadow="2"
     inkscape:window-width="1920"
     inkscape:window-height="1137"
     id="namedview1019"
     showgrid="false"
     units="mm"
     fit-margin-top="10"
     fit-margin-right="10"
     fit-margin-bottom="10"
     fit-margin-left="10"
     inkscape:zoom="1.1967782"
     inkscape:cx="314.01768"
     inkscape:cy="94.399935"
     inkscape:window-x="-8"
     inkscape:window-y="-8"
     inkscape:window-maximized="1"
     inkscape:current-layer="svg1017" />
  <line
     x1="101.08272"
     y1="59.76482"
     x2="221.08272"
     y2="59.76482"
     style="stroke:#000000;stroke-width:2;stroke-linecap:square"
     id="line929" />
  <line
     x1="151.08272"
     y1="59.76482"
     x2="151.08272"
     y2="89.764816"
     style="stroke:#000000;stroke-width:2;stroke-linecap:square"
     id="line931" />
  <line
     x1="151.08272"
     y1="159.76482"
     x2="151.08272"
     y2="199.76482"
     style="stroke:#000000;stroke-width:2;stroke-linecap:square"
     id="line933" />
  <line
     x1="151.08272"
     y1="199.76482"
     x2="221.08272"
     y2="199.76482"
     style="stroke:#000000;stroke-width:2;stroke-linecap:square"
     id="line935" />
  <line
     x1="101.08272"
     y1="229.7648"
     x2="201.08272"
     y2="229.7648"
     style="stroke:#000000;stroke-width:2;stroke-linecap:square"
     id="line937" />
  <line
     x1="201.08272"
     y1="179.76482"
     x2="221.08272"
     y2="179.76482"
     style="stroke:#000000;stroke-width:2;stroke-linecap:square"
     id="line939" />
  <line
     x1="201.08272"
     y1="79.764816"
     x2="201.08272"
     y2="229.7648"
     style="stroke:#000000;stroke-width:2;stroke-linecap:square"
     id="line941" />
  <line
     x1="201.08272"
     y1="79.764816"
     x2="221.08272"
     y2="79.764816"
     style="stroke:#000000;stroke-width:2;stroke-linecap:square"
     id="line943" />
  <line
     x1="151.08272"
     y1="89.764816"
     x2="151.08272"
     y2="96.764816"
     style="stroke:#000000;stroke-width:2;stroke-linecap:square"
     id="line945" />
  <path
     d="m 141.08272,98.764826 m 10,0 h 18 l -18,28.000004 -18,-28.000004 h 18 m 0,28.000004 a 3,3 0 0 0 0,6 3,3 0 0 0 0,-6 m 0,6"
     style="fill:#000000;fill-opacity:0;stroke:#000000;stroke-width:2;stroke-linecap:square"
     id="path947" />
  <line
     x1="151.08272"
     y1="134.76482"
     x2="151.08272"
     y2="159.76482"
     style="stroke:#000000;stroke-width:2;stroke-linecap:square"
     id="line949" />
  <line
     x1="221.08272"
     y1="179.76482"
     x2="236.08272"
     y2="179.76482"
     style="stroke:#000000;stroke-width:2;stroke-linecap:square"
     id="line951" />
  <line
     x1="221.08272"
     y1="199.76482"
     x2="236.08272"
     y2="199.76482"
     style="stroke:#000000;stroke-width:2;stroke-linecap:square"
     id="line953" />
  <path
     d="m 236.08272,179.76483 m 0,-10 v 40 h 24 m -24,-40 h 24 m 0,40 a 20,20 0 0 0 0,-40 m 21,20 a 3,3 0 1 1 6,0 3,3 0 1 1 -6,0"
     style="fill:#000000;fill-opacity:0;stroke:#000000;stroke-width:2;stroke-linecap:square"
     id="path955" />
  <line
     x1="287.0827"
     y1="189.76482"
     x2="291.0827"
     y2="189.76482"
     style="stroke:#000000;stroke-width:2;stroke-linecap:square"
     id="line957" />
  <line
     x1="221.08272"
     y1="59.76482"
     x2="236.08272"
     y2="59.76482"
     style="stroke:#000000;stroke-width:2;stroke-linecap:square"
     id="line959" />
  <line
     x1="221.08272"
     y1="79.764816"
     x2="236.08272"
     y2="79.764816"
     style="stroke:#000000;stroke-width:2;stroke-linecap:square"
     id="line961" />
  <path
     d="m 236.08272,59.764816 m 0,-9.999996 v 40.000006 h 24 m -24,-40.000006 h 24 m 0,40.000006 a 20.000003,20.000003 0 0 0 0,-40.000006 m 21,19.999996 a 3,3 0 1 1 6,0 3,3 0 1 1 -6,0"
     style="fill:#000000;fill-opacity:0;stroke:#000000;stroke-width:2;stroke-linecap:square"
     id="path963" />
  <line
     x1="287.0827"
     y1="69.764816"
     x2="291.0827"
     y2="69.764816"
     style="stroke:#000000;stroke-width:2;stroke-linecap:square"
     id="line965" />
  <line
     x1="291.0827"
     y1="189.76482"
     x2="341.0827"
     y2="189.76482"
     style="stroke:#000000;stroke-width:2;stroke-linecap:square"
     id="line967" />
  <line
     x1="291.0827"
     y1="69.764816"
     x2="341.0827"
     y2="69.764816"
     style="stroke:#000000;stroke-width:2;stroke-linecap:square"
     id="line969" />
  <line
     x1="431.0827"
     y1="79.764816"
     x2="461.0827"
     y2="79.764816"
     style="stroke:#000000;stroke-width:2;stroke-linecap:square"
     id="line971" />
  <line
     x1="431.0827"
     y1="179.76482"
     x2="461.0827"
     y2="179.76482"
     style="stroke:#000000;stroke-width:2;stroke-linecap:square"
     id="line973" />
  <line
     x1="431.0827"
     y1="99.764816"
     x2="431.0827"
     y2="109.76482"
     style="stroke:#000000;stroke-width:2;stroke-linecap:square"
     id="line975" />
  <line
     x1="431.0827"
     y1="79.764816"
     x2="431.0827"
     y2="109.76482"
     style="stroke:#000000;stroke-width:2;stroke-linecap:square"
     id="line977" />
  <line
     x1="431.0827"
     y1="149.76482"
     x2="431.0827"
     y2="179.76482"
     style="stroke:#000000;stroke-width:2;stroke-linecap:square"
     id="line979" />
  <line
     x1="411.0827"
     y1="179.76482"
     x2="431.0827"
     y2="179.76482"
     style="stroke:#000000;stroke-width:2;stroke-linecap:square"
     id="line981" />
  <line
     x1="411.0827"
     y1="79.764816"
     x2="431.0827"
     y2="79.764816"
     style="stroke:#000000;stroke-width:2;stroke-linecap:square"
     id="line983" />
  <line
     x1="321.0827"
     y1="149.76482"
     x2="321.0827"
     y2="169.76482"
     style="stroke:#000000;stroke-width:2;stroke-linecap:square"
     id="line985" />
  <line
     x1="321.0827"
     y1="169.76482"
     x2="341.0827"
     y2="169.76482"
     style="stroke:#000000;stroke-width:2;stroke-linecap:square"
     id="line987" />
  <line
     x1="321.0827"
     y1="89.764816"
     x2="321.0827"
     y2="109.76482"
     style="stroke:#000000;stroke-width:2;stroke-linecap:square"
     id="line989" />
  <line
     x1="321.0827"
     y1="89.764816"
     x2="341.0827"
     y2="89.764816"
     style="stroke:#000000;stroke-width:2;stroke-linecap:square"
     id="line991" />
  <line
     x1="341.0827"
     y1="169.76482"
     x2="356.0827"
     y2="169.76482"
     style="stroke:#000000;stroke-width:2;stroke-linecap:square"
     id="line993" />
  <line
     x1="341.0827"
     y1="189.76482"
     x2="356.0827"
     y2="189.76482"
     style="stroke:#000000;stroke-width:2;stroke-linecap:square"
     id="line995" />
  <path
     d="m 356.08272,169.76483 m 0,-10 v 40 h 24 m -24,-40 h 24 m 0,40 a 20,20 0 0 0 0,-40 m 21,20 a 3,3 0 1 1 6,0 3,3 0 1 1 -6,0"
     style="fill:#000000;fill-opacity:0;stroke:#000000;stroke-width:2;stroke-linecap:square"
     id="path997" />
  <line
     x1="407.0827"
     y1="179.76482"
     x2="411.0827"
     y2="179.76482"
     style="stroke:#000000;stroke-width:2;stroke-linecap:square"
     id="line999" />
  <line
     x1="341.0827"
     y1="69.764816"
     x2="356.0827"
     y2="69.764816"
     style="stroke:#000000;stroke-width:2;stroke-linecap:square"
     id="line1001" />
  <line
     x1="341.0827"
     y1="89.764816"
     x2="356.0827"
     y2="89.764816"
     style="stroke:#000000;stroke-width:2;stroke-linecap:square"
     id="line1003" />
  <path
     d="m 356.08272,69.764816 m 0,-10 v 40.00001 h 24 m -24,-40.00001 h 24 m 0,40.00001 a 20.000005,20.000005 0 0 0 0,-40.00001 m 21,20 a 3,3 0 1 1 6,0 3,3 0 1 1 -6,0"
     style="fill:#000000;fill-opacity:0;stroke:#000000;stroke-width:2;stroke-linecap:square"
     id="path1005" />
  <line
     x1="407.0827"
     y1="79.764816"
     x2="411.0827"
     y2="79.764816"
     style="stroke:#000000;stroke-width:2;stroke-linecap:square"
     id="line1007" />
  <circle
     cx="151.08272"
     cy="59.76482"
     style="fill:#000000;fill-opacity:1;stroke:#000000;stroke-width:2"
     id="ellipse1009"
     r="2" />
  <circle
     cx="201.08272"
     cy="179.76482"
     style="fill:#000000;fill-opacity:1;stroke:#000000;stroke-width:2"
     id="ellipse1011"
     r="2" />
  <circle
     cx="431.0827"
     cy="79.764816"
     style="fill:#000000;fill-opacity:1;stroke:#000000;stroke-width:2"
     id="ellipse1013"
     r="2" />
  <circle
     cx="431.0827"
     cy="179.76482"
     style="fill:#000000;fill-opacity:1;stroke:#000000;stroke-width:2"
     id="ellipse1015"
     r="2" />
  <path
     style="fill:none;stroke:#000000;stroke-width:2.13543;stroke-linecap:butt;stroke-linejoin:miter;stroke-miterlimit:4;stroke-dasharray:none;stroke-opacity:1"
     d="m 431.08272,109.76482 -110,40"
     id="path1025" />
  <path
     style="fill:none;stroke:#000000;stroke-width:2.13543;stroke-linecap:butt;stroke-linejoin:miter;stroke-miterlimit:4;stroke-dasharray:none;stroke-opacity:1"
     d="m 431.08272,149.76482 -110,-40"
     id="path1027" />
  <rect
     style="fill:none;stroke:#0000ff;stroke-width:1.37953;stroke-linecap:square;stroke-miterlimit:4;stroke-dasharray:2.75906, 5.51811;stroke-dashoffset:0;stop-color:#000000"
     id="rect1029"
     width="146.22592"
     height="168.3687"
     x="302.05707"
     y="44.984798" />
  <rect
     style="fill:none;stroke:#d40000;stroke-width:1.35135;stroke-linecap:square;stroke-miterlimit:4;stroke-dasharray:2.70269, 5.40538;stroke-dashoffset:0;stop-color:#000000"
     id="rect1031"
     width="270.7402"
     height="181.14938"
     x="182.97406"
     y="38.470951" />
  <g
     aria-label="Q"
     id="text1035"
     style="font-size:18.6667px;line-height:1.25;font-family:'Latin Modern Roman';-inkscape-font-specification:'Latin Modern Roman, '">
    <path
       d="m 480.23637,84.861365 c 0,-0.186667 0,-0.392001 -0.20533,-0.392001 -0.168,0 -0.18667,0.149334 -0.20534,0.336001 -0.112,1.008002 -0.896,1.568003 -1.69867,1.568003 -0.87733,0 -1.344,-0.634668 -1.792,-1.829337 2.20267,-0.989335 3.78934,-3.378673 3.78934,-6.197345 0,-3.808006 -2.81867,-6.832012 -6.21601,-6.832012 -3.34134,0 -6.19734,2.986672 -6.19734,6.832012 0,3.770674 2.81867,6.738679 6.21601,6.738679 0.57866,0 1.232,-0.112 1.77333,-0.28 0.28,1.773336 0.54134,3.490673 2.27734,3.490673 1.904,0 2.25867,-2.482671 2.25867,-3.434673 z m -1.97867,-6.514679 c 0,1.456003 -0.224,4.088008 -2.20267,5.54401 -0.41067,-1.045335 -1.008,-1.97867 -2.10934,-1.97867 -0.952,0 -1.53067,0.802668 -1.53067,1.568003 0,0.504001 0.24267,0.858668 0.26134,0.896002 -1.008,-0.373334 -3.09867,-1.736003 -3.09867,-6.029345 0,-4.853342 2.61333,-6.365344 4.33067,-6.365344 1.81067,0 4.34934,1.605336 4.34934,6.365344 z m -2.688,5.842678 c -0.63467,0.354667 -1.23201,0.429334 -1.64267,0.429334 -0.95201,0 -1.10134,-0.858668 -1.10134,-1.138669 0,-0.541334 0.392,-1.157335 1.12,-1.157335 1.008,0 1.41867,0.784001 1.62401,1.86667 z"
       id="path1054" />
  </g>
  <g
     aria-label="Q"
     id="text1039"
     style="font-size:18.6667px;line-height:1.25;font-family:'Latin Modern Roman';-inkscape-font-specification:'Latin Modern Roman, '">
    <path
       d="m 480.23637,185.54835 c 0,-0.18667 0,-0.392 -0.20533,-0.392 -0.168,0 -0.18667,0.14933 -0.20534,0.336 -0.112,1.008 -0.896,1.568 -1.69867,1.568 -0.87733,0 -1.344,-0.63467 -1.792,-1.82934 2.20267,-0.98933 3.78934,-3.37867 3.78934,-6.19734 0,-3.80801 -2.81867,-6.83201 -6.21601,-6.83201 -3.34134,0 -6.19734,2.98667 -6.19734,6.83201 0,3.77067 2.81867,6.73868 6.21601,6.73868 0.57866,0 1.232,-0.112 1.77333,-0.28 0.28,1.77333 0.54134,3.49067 2.27734,3.49067 1.904,0 2.25867,-2.48267 2.25867,-3.43467 z m -1.97867,-6.51468 c 0,1.456 -0.224,4.08801 -2.20267,5.54401 -0.41067,-1.04534 -1.008,-1.97867 -2.10934,-1.97867 -0.952,0 -1.53067,0.80267 -1.53067,1.568 0,0.504 0.24267,0.85867 0.26134,0.896 -1.008,-0.37333 -3.09867,-1.736 -3.09867,-6.02934 0,-4.85334 2.61333,-6.36535 4.33067,-6.36535 1.81067,0 4.34934,1.60534 4.34934,6.36535 z m -2.688,5.84267 c -0.63467,0.35467 -1.23201,0.42934 -1.64267,0.42934 -0.95201,0 -1.10134,-0.85867 -1.10134,-1.13867 0,-0.54133 0.392,-1.15734 1.12,-1.15734 1.008,0 1.41867,0.78401 1.62401,1.86667 z"
       id="path1051" />
  </g>
  <g
     aria-label="D"
     id="text1043"
     style="font-size:18.6667px;line-height:1.25;font-family:'Latin Modern Roman';-inkscape-font-specification:'Latin Modern Roman, '">
    <path
       d="m 95.49778,59.602203 c 0,-3.546673 -2.520005,-6.477345 -5.71201,-6.477345 h -6.832013 v 0.578668 h 0.448001 c 1.437336,0 1.474669,0.205333 1.474669,0.877334 v 9.837352 c 0,0.672001 -0.03733,0.877334 -1.474669,0.877334 h -0.448001 v 0.578668 h 6.832013 c 3.136005,0 5.71201,-2.762671 5.71201,-6.272011 z m -1.86667,0 c 0,2.072004 -0.354668,3.192006 -1.026669,4.106674 -0.373334,0.504001 -1.437336,1.586669 -3.322672,1.586669 h -1.885337 c -0.877335,0 -0.914668,-0.130666 -0.914668,-0.746668 V 54.450194 c 0,-0.616002 0.03733,-0.746668 0.914668,-0.746668 h 1.86667 c 1.157335,0 2.445338,0.410667 3.397339,1.736003 0.802668,1.101335 0.970669,2.706671 0.970669,4.162674 z"
       id="path1057" />
  </g>
  <g
     aria-label="Enable"
     id="text1047"
     style="font-size:18.6667px;line-height:1.25;font-family:'Latin Modern Roman';-inkscape-font-specification:'Latin Modern Roman, '">
    <path
       d="m 49.349964,231.09808 h -0.466667 c -0.466668,2.87468 -0.896002,4.23735 -4.106674,4.23735 h -2.482672 c -0.877335,0 -0.914668,-0.13067 -0.914668,-0.74667 v -4.98401 h 1.680003 c 1.81067,0 2.016004,0.59733 2.016004,2.184 h 0.466667 v -4.94667 H 45.07529 c 0,1.60533 -0.205334,2.184 -2.016004,2.184 h -1.680003 v -4.48001 c 0,-0.616 0.03733,-0.74667 0.914668,-0.74667 h 2.408005 c 2.856005,0 3.360006,1.02667 3.658673,3.62134 h 0.466668 l -0.522668,-4.2 H 37.795277 v 0.57866 h 0.448 c 1.437336,0 1.47467,0.20534 1.47467,0.87734 v 9.78135 c 0,0.672 -0.03733,0.87734 -1.47467,0.87734 h -0.448 v 0.57866 h 10.770686 z"
       id="path1060" />
    <path
       d="m 59.877978,235.91409 v -0.57866 c -0.970668,0 -1.437336,0 -1.456002,-0.56001 v -3.56534 c 0,-1.60533 0,-2.184 -0.578668,-2.856 -0.261334,-0.31733 -0.877335,-0.69067 -1.960004,-0.69067 -1.362669,0 -2.240004,0.80267 -2.762671,1.96 v -1.96 l -2.632005,0.20534 v 0.57866 c 1.306669,0 1.456003,0.13067 1.456003,1.04534 v 5.00267 c 0,0.84001 -0.205334,0.84001 -1.456003,0.84001 v 0.57866 l 2.109337,-0.056 2.090671,0.056 v -0.57866 c -1.250669,0 -1.456003,0 -1.456003,-0.84001 v -3.43467 c 0,-1.94134 1.325336,-2.98667 2.520004,-2.98667 1.176003,0 1.381336,1.008 1.381336,2.072 v 4.34934 c 0,0.84001 -0.205333,0.84001 -1.456002,0.84001 v 0.57866 l 2.109337,-0.056 z"
       id="path1062" />
    <path
       d="m 69.28599,234.25276 v -1.04534 h -0.466667 v 1.04534 c 0,1.08267 -0.466668,1.19467 -0.672002,1.19467 -0.616001,0 -0.690668,-0.84001 -0.690668,-0.93334 v -3.73334 c 0,-0.784 0,-1.512 -0.672001,-2.20267 -0.728001,-0.728 -1.661336,-1.02667 -2.557338,-1.02667 -1.530669,0 -2.818672,0.87734 -2.818672,2.10934 0,0.56 0.373334,0.87733 0.858669,0.87733 0.522667,0 0.858668,-0.37333 0.858668,-0.85866 0,-0.22401 -0.09333,-0.84001 -0.952002,-0.85867 0.504001,-0.65334 1.418669,-0.85867 2.016004,-0.85867 0.914668,0 1.97867,0.728 1.97867,2.38934 v 0.69066 c -0.952002,0.056 -2.258671,0.112 -3.434673,0.67201 -1.400002,0.63466 -1.86667,1.60533 -1.86667,2.42667 0,1.512 1.81067,1.97867 2.986672,1.97867 1.232002,0 2.090671,-0.74667 2.445338,-1.62401 0.07467,0.74667 0.578668,1.53067 1.456003,1.53067 0.392,0 1.530669,-0.26133 1.530669,-1.77333 z m -3.117339,-0.95201 c 0,1.77334 -1.344002,2.40801 -2.184004,2.40801 -0.914668,0 -1.680003,-0.65334 -1.680003,-1.58667 0,-1.02667 0.784002,-2.576 3.864007,-2.68801 z"
       id="path1064" />
    <path
       d="m 79.328641,231.88209 c 0,-2.37068 -1.829336,-4.21868 -3.95734,-4.21868 -1.456003,0 -2.258671,0.87734 -2.557338,1.21334 v -5.91735 l -2.688005,0.20534 v 0.57866 c 1.306669,0 1.456003,0.13067 1.456003,1.04534 v 11.12535 h 0.466667 l 0.672002,-1.15733 c 0.28,0.42933 1.064001,1.36267 2.445337,1.36267 2.221338,0 4.162674,-1.82934 4.162674,-4.23734 z m -1.549336,-0.0187 c 0,0.69067 -0.03733,1.81067 -0.578667,2.65067 -0.392001,0.57867 -1.101336,1.19467 -2.109338,1.19467 -0.840001,0 -1.512002,-0.448 -1.960003,-1.13867 -0.261334,-0.392 -0.261334,-0.448 -0.261334,-0.784 v -3.84534 c 0,-0.35467 0,-0.37334 0.205334,-0.672 0.728001,-1.04534 1.75467,-1.19467 2.20267,-1.19467 0.840002,0 1.512003,0.48533 1.960004,1.19467 0.485334,0.76533 0.541334,1.82933 0.541334,2.59467 z"
       id="path1066" />
    <path
       d="m 84.74198,235.91409 v -0.57866 c -1.250669,0 -1.456002,0 -1.456002,-0.84001 V 222.9594 l -2.688005,0.20534 v 0.57866 c 1.306669,0 1.456002,0.13067 1.456002,1.04534 v 9.70668 c 0,0.84001 -0.205333,0.84001 -1.456002,0.84001 v 0.57866 l 2.072004,-0.056 z"
       id="path1068" />
    <path
       d="m 92.917991,233.69276 c 0,-0.18667 -0.149334,-0.224 -0.242667,-0.224 -0.168,0 -0.205334,0.112 -0.242667,0.26133 -0.653335,1.92267 -2.333338,1.92267 -2.520005,1.92267 -0.933335,0 -1.680003,-0.56 -2.109337,-1.25067 -0.560001,-0.896 -0.560001,-2.128 -0.560001,-2.8 h 5.20801 c 0.410667,0 0.466667,0 0.466667,-0.39201 0,-1.848 -1.008002,-3.65867 -3.341339,-3.65867 -2.165338,0 -3.882674,1.92267 -3.882674,4.25601 0,2.50134 1.960004,4.31201 4.106674,4.31201 2.277338,0 3.117339,-2.07201 3.117339,-2.42667 z m -1.232002,-2.48268 h -4.424008 c 0.112,-2.78133 1.680003,-3.248 2.314671,-3.248 1.92267,0 2.109337,2.52 2.109337,3.248 z"
       id="path1070" />
  </g>
  <path
     style="fill:none;stroke:#000000;stroke-width:0.623622;stroke-linecap:butt;stroke-linejoin:miter;stroke-miterlimit:4;stroke-dasharray:none;stroke-opacity:1"
     d="m 468.75464,169.90352 h 10.02692"
     id="path1049" />
</svg>
