<?xml version="1.0" encoding="UTF-8" standalone="no"?>
<svg
   xmlns:dc="http://purl.org/dc/elements/1.1/"
   xmlns:cc="http://creativecommons.org/ns#"
   xmlns:rdf="http://www.w3.org/1999/02/22-rdf-syntax-ns#"
   xmlns:svg="http://www.w3.org/2000/svg"
   xmlns="http://www.w3.org/2000/svg"
   xmlns:sodipodi="http://sodipodi.sourceforge.net/DTD/sodipodi-0.dtd"
   xmlns:inkscape="http://www.inkscape.org/namespaces/inkscape"
   width="155.47084mm"
   height="23.310997mm"
   viewBox="0 0 155.47084 23.310997"
   version="1.1"
   id="svg1079"
   inkscape:version="1.0.1 (3bc2e813f5, 2020-09-07)"
   sodipodi:docname="edgetrigger.svg">
  <defs
     id="defs1073" />
  <sodipodi:namedview
     id="base"
     pagecolor="#ffffff"
     bordercolor="#666666"
     borderopacity="1.0"
     inkscape:pageopacity="0.0"
     inkscape:pageshadow="2"
     inkscape:zoom="1.979899"
     inkscape:cx="346.47358"
     inkscape:cy="-71.953644"
     inkscape:document-units="mm"
     inkscape:current-layer="layer1"
     inkscape:document-rotation="0"
     showgrid="false"
     inkscape:snap-midpoints="false"
     fit-margin-top="0"
     fit-margin-right="10"
     fit-margin-bottom="0"
     fit-margin-left="10"
     inkscape:window-width="1920"
     inkscape:window-height="1137"
     inkscape:window-x="-8"
     inkscape:window-y="-8"
     inkscape:window-maximized="1" />
  <metadata
     id="metadata1076">
    <rdf:RDF>
      <cc:Work
         rdf:about="">
        <dc:format>image/svg+xml</dc:format>
        <dc:type
           rdf:resource="http://purl.org/dc/dcmitype/StillImage" />
        <dc:title></dc:title>
      </cc:Work>
    </rdf:RDF>
  </metadata>
  <g
     inkscape:label="Layer 1"
     inkscape:groupmode="layer"
     id="layer1"
     transform="translate(-12.900823,-6.5481032)">
    <path
       style="fill:none;stroke:#000000;stroke-width:0.478368px;stroke-linecap:butt;stroke-linejoin:miter;stroke-opacity:1"
       d="M 49.113567,6.5481032 V 25.031471"
       id="path1642" />
    <path
       style="fill:none;stroke:#000000;stroke-width:0.478368px;stroke-linecap:butt;stroke-linejoin:miter;stroke-opacity:1"
       d="M 49.113567,15.789787 H 24.52948"
       id="path1644" />
    <path
       style="fill:none;stroke:#000000;stroke-width:0.478368px;stroke-linecap:butt;stroke-linejoin:miter;stroke-opacity:1"
       d="m 49.053163,11.682372 5.989782,4.002245 -5.849869,3.908756"
       id="path1648" />
    <path
       style="fill:none;stroke:#000000;stroke-width:0.478368px;stroke-linecap:butt;stroke-linejoin:miter;stroke-opacity:1"
       d="M 104.37367,6.8501185 V 25.333486"
       id="path1642-8" />
    <path
       style="fill:none;stroke:#000000;stroke-width:0.415187px;stroke-linecap:butt;stroke-linejoin:miter;stroke-opacity:1"
       d="M 98.308645,16.091802 H 79.789587"
       id="path1644-5" />
    <path
       style="fill:none;stroke:#000000;stroke-width:0.478368px;stroke-linecap:butt;stroke-linejoin:miter;stroke-opacity:1"
       d="m 104.31327,11.984388 5.98978,4.002244 -5.84987,3.908756"
       id="path1648-2" />
    <path
       style="fill:none;stroke:#000000;stroke-width:0.478368px;stroke-linecap:butt;stroke-linejoin:miter;stroke-opacity:1"
       d="M 158.13248,6.6085055 V 25.091873"
       id="path1642-4" />
    <path
       style="fill:none;stroke:#000000;stroke-width:0.478368px;stroke-linecap:butt;stroke-linejoin:miter;stroke-opacity:1"
       d="M 158.13248,15.850189 H 133.54839"
       id="path1644-0" />
    <circle
       style="fill:none;stroke:#000000;stroke-width:0.479122;stroke-linecap:square;stroke-miterlimit:4;stroke-dasharray:none;stop-color:#000000"
       id="path1685"
       cx="101.37383"
       cy="16.043468"
       r="3.0111597" />
    <g
       aria-label="Rising edge triggered"
       id="text1689"
       style="font-size:4.9389px;line-height:1.25;font-family:'Latin Modern Roman';-inkscape-font-specification:'Latin Modern Roman, ';stroke-width:0.264583">
      <path
         d="m 25.229157,28.685116 c 0,-0.02469 -0.0071,-0.04586 -0.05292,-0.04586 -0.04586,0 -0.04939,0.01764 -0.05997,0.05997 -0.05997,0.197555 -0.165806,0.310444 -0.275167,0.310444 -0.105834,0 -0.116417,-0.09525 -0.116417,-0.208139 0,-0.09172 0.01058,-0.176389 0.02117,-0.268111 0.01058,-0.08114 0.02822,-0.236361 0.02822,-0.310445 0,-0.197555 -0.123472,-0.345722 -0.303389,-0.409222 0.500945,-0.127 0.740834,-0.433917 0.740834,-0.691445 0,-0.278695 -0.268112,-0.522112 -0.709084,-0.522112 H 23.5711 c -0.05644,0 -0.09525,0 -0.09525,0.06703 0,0.04233 0.02822,0.04233 0.09525,0.04233 0.109361,0 0.204611,0 0.204611,0.05997 0,0.01058 0,0.01764 -0.01411,0.06703 l -0.47625,1.915584 c -0.02822,0.119945 -0.04939,0.148167 -0.289278,0.148167 -0.05645,0 -0.09525,0 -0.09525,0.06703 0,0.04233 0.0388,0.04233 0.04939,0.04233 0.134055,0 0.275167,-0.01058 0.409222,-0.01058 0.137584,0 0.282223,0.01058 0.419806,0.01058 0.0247,0 0.06703,0 0.06703,-0.0635 0,-0.04586 -0.0247,-0.04586 -0.09525,-0.04586 -0.204611,0 -0.204611,-0.02822 -0.204611,-0.05997 0,-0.01411 0,-0.02117 0.01411,-0.07056 l 0.229305,-0.927806 h 0.381001 c 0.148166,0 0.331611,0.05644 0.331611,0.310445 0,0.04939 -0.01058,0.08114 -0.05997,0.278694 -0.03881,0.165806 -0.05292,0.215195 -0.05292,0.282223 0,0.261055 0.215195,0.373944 0.437445,0.373944 0.296333,0 0.402167,-0.373944 0.402167,-0.402167 z m -0.335139,-1.643945 c 0,0.02117 -0.01411,0.34925 -0.204612,0.53975 -0.105833,0.102306 -0.282222,0.183445 -0.522111,0.183445 h -0.356306 l 0.229306,-0.927806 c 0.02469,-0.105834 0.05292,-0.112889 0.07761,-0.119945 0.02469,-0.0071 0.137583,-0.0071 0.204611,-0.0071 0.225778,0 0.571501,0 0.571501,0.331611 z"
         style="font-style:italic;font-variant:normal;font-weight:normal;font-stretch:normal;font-family:'Latin Modern Roman';-inkscape-font-specification:'Latin Modern Roman,  Italic'"
         id="path1775" />
      <path
         d="m 26.326286,28.5052 c 0,-0.03528 -0.02822,-0.03528 -0.05292,-0.03528 -0.04586,0 -0.04586,0.0071 -0.05997,0.05997 -0.02822,0.102306 -0.123473,0.440973 -0.328084,0.440973 -0.02822,0 -0.07761,-0.0035 -0.07761,-0.09878 0,-0.09172 0.04586,-0.208139 0.09172,-0.338667 L 26.1252,27.930165 c 0.03528,-0.102305 0.04233,-0.130527 0.04233,-0.197555 0,-0.194028 -0.134055,-0.282223 -0.264583,-0.282223 -0.331611,0 -0.451556,0.52564 -0.451556,0.543279 0,0.03528 0.03528,0.03528 0.05292,0.03528 0.04586,0 0.04939,-0.0071 0.0635,-0.05644 0.03175,-0.116417 0.123472,-0.4445 0.328083,-0.4445 0.03881,0 0.07761,0.01764 0.07761,0.09878 0,0.08467 -0.0388,0.186973 -0.0635,0.254001 l -0.105833,0.292805 -0.130528,0.349251 c -0.04939,0.134055 -0.0635,0.172861 -0.0635,0.243416 0,0.137584 0.08467,0.282223 0.268111,0.282223 0.331612,0 0.448028,-0.529167 0.448028,-0.543278 z m 0.09525,-1.651001 c 0,-0.07408 -0.05292,-0.151695 -0.158751,-0.151695 -0.112889,0 -0.225777,0.109361 -0.225777,0.22225 0,0.07761 0.05644,0.151695 0.15875,0.151695 0.112889,0 0.225778,-0.109361 0.225778,-0.22225 z"
         style="font-style:italic;font-variant:normal;font-weight:normal;font-stretch:normal;font-family:'Latin Modern Roman';-inkscape-font-specification:'Latin Modern Roman,  Italic'"
         id="path1777" />
      <path
         d="m 27.628035,28.455811 c 0,-0.306917 -0.275167,-0.370417 -0.419806,-0.402167 -0.09878,-0.02117 -0.225778,-0.04939 -0.225778,-0.201084 0,-0.08467 0.07408,-0.324555 0.356306,-0.324555 0.09525,0 0.225777,0.03528 0.264583,0.172861 -0.112889,0.01411 -0.141111,0.109361 -0.141111,0.144639 0,0.0388 0.02117,0.09878 0.105833,0.09878 0.05997,0 0.151695,-0.04233 0.151695,-0.194028 0,-0.162278 -0.144639,-0.299862 -0.377473,-0.299862 -0.41275,0 -0.557389,0.338667 -0.557389,0.522112 0,0.271639 0.229306,0.321028 0.328084,0.342194 0.155222,0.03528 0.313972,0.07056 0.313972,0.261056 0,0.112889 -0.09525,0.395112 -0.458611,0.395112 -0.07761,0 -0.282223,-0.01764 -0.338667,-0.197556 0.179917,-0.01764 0.179917,-0.172861 0.179917,-0.172861 0,-0.06703 -0.04586,-0.112889 -0.119945,-0.112889 -0.08114,0 -0.179917,0.05997 -0.179917,0.218722 0,0.215195 0.204611,0.342195 0.455084,0.342195 0.529167,0 0.663223,-0.430389 0.663223,-0.592667 z"
         style="font-style:italic;font-variant:normal;font-weight:normal;font-stretch:normal;font-family:'Latin Modern Roman';-inkscape-font-specification:'Latin Modern Roman,  Italic'"
         id="path1779" />
      <path
         d="m 28.852169,28.5052 c 0,-0.03528 -0.02822,-0.03528 -0.05292,-0.03528 -0.04586,0 -0.04586,0.0071 -0.05997,0.05997 -0.02822,0.102306 -0.123473,0.440973 -0.328084,0.440973 -0.02822,0 -0.07761,-0.0035 -0.07761,-0.09878 0,-0.09172 0.04586,-0.208139 0.09172,-0.338667 l 0.225778,-0.603251 c 0.03528,-0.102305 0.04233,-0.130527 0.04233,-0.197555 0,-0.194028 -0.134056,-0.282223 -0.264584,-0.282223 -0.331611,0 -0.451556,0.52564 -0.451556,0.543279 0,0.03528 0.03528,0.03528 0.05292,0.03528 0.04586,0 0.04939,-0.0071 0.0635,-0.05644 0.03175,-0.116417 0.123472,-0.4445 0.328084,-0.4445 0.0388,0 0.07761,0.01764 0.07761,0.09878 0,0.08467 -0.03881,0.186973 -0.0635,0.254001 l -0.105834,0.292805 -0.130528,0.349251 c -0.04939,0.134055 -0.0635,0.172861 -0.0635,0.243416 0,0.137584 0.08467,0.282223 0.268112,0.282223 0.331611,0 0.448028,-0.529167 0.448028,-0.543278 z m 0.09525,-1.651001 c 0,-0.07408 -0.05292,-0.151695 -0.15875,-0.151695 -0.112889,0 -0.225778,0.109361 -0.225778,0.22225 0,0.07761 0.05644,0.151695 0.15875,0.151695 0.112889,0 0.225778,-0.109361 0.225778,-0.22225 z"
         style="font-style:italic;font-variant:normal;font-weight:normal;font-stretch:normal;font-family:'Latin Modern Roman';-inkscape-font-specification:'Latin Modern Roman,  Italic'"
         id="path1781" />
      <path
         d="m 30.834779,28.5052 c 0,-0.03528 -0.02822,-0.03528 -0.05292,-0.03528 -0.04586,0 -0.04586,0.0071 -0.05997,0.05997 -0.02822,0.09525 -0.123473,0.440973 -0.328084,0.440973 -0.07408,0 -0.07761,-0.05292 -0.07761,-0.102306 0,-0.08819 0.03528,-0.179917 0.0635,-0.264584 0.07056,-0.186972 0.215195,-0.582083 0.215195,-0.786694 0,-0.289278 -0.194028,-0.36689 -0.36689,-0.36689 -0.289278,0 -0.458611,0.211667 -0.504472,0.278695 -0.0247,-0.172861 -0.144639,-0.278695 -0.296334,-0.278695 -0.127,0 -0.197555,0.08114 -0.254,0.186973 -0.06703,0.141111 -0.112889,0.356306 -0.112889,0.356306 0,0.03528 0.03528,0.03528 0.05292,0.03528 0.04586,0 0.04939,-0.0035 0.06703,-0.08114 0.0635,-0.246944 0.130528,-0.419805 0.239889,-0.419805 0.09172,0 0.09172,0.102305 0.09172,0.141111 0,0.05644 -0.01058,0.123472 -0.02469,0.179917 l -0.264584,1.058334 c -0.0071,0.02117 -0.01058,0.0388 -0.01058,0.04939 0,0.03881 0.02822,0.09172 0.09878,0.09172 0.04233,0 0.102305,-0.02469 0.127,-0.09172 l 0.141111,-0.564444 c 0.01764,-0.07761 0.0388,-0.151695 0.05644,-0.229306 0.04586,-0.179917 0.04586,-0.183445 0.105834,-0.28575 0.04939,-0.08467 0.208139,-0.34925 0.47625,-0.34925 0.155222,0 0.162278,0.15875 0.162278,0.232833 0,0.218722 -0.155222,0.638528 -0.204611,0.779639 -0.04586,0.119945 -0.05644,0.151695 -0.05644,0.225778 0,0.155223 0.09878,0.282223 0.268111,0.282223 0.328084,0 0.448029,-0.525639 0.448029,-0.543278 z"
         style="font-style:italic;font-variant:normal;font-weight:normal;font-stretch:normal;font-family:'Latin Modern Roman';-inkscape-font-specification:'Latin Modern Roman,  Italic'"
         id="path1783" />
      <path
         d="m 32.069496,29.231922 0.384528,-1.545167 c 0.01411,-0.05292 0.01411,-0.05997 0.01411,-0.07408 0,-0.07408 -0.05997,-0.09172 -0.09525,-0.09172 -0.04233,0 -0.123473,0.02822 -0.137584,0.130528 -0.04939,-0.102306 -0.144639,-0.201084 -0.296333,-0.201084 -0.395112,0 -0.800806,0.522112 -0.800806,1.019529 0,0.299861 0.165805,0.53975 0.430389,0.53975 0.179917,0 0.331611,-0.144639 0.373945,-0.186972 l -0.07408,0.296333 c -0.04233,0.176389 -0.0635,0.250473 -0.162278,0.370417 -0.141111,0.165806 -0.282222,0.165806 -0.335139,0.165806 -0.04586,0 -0.155222,0 -0.250472,-0.03881 0.07056,-0.02822 0.112889,-0.102305 0.112889,-0.162278 0,-0.04586 -0.03175,-0.112889 -0.123473,-0.112889 -0.0635,0 -0.172861,0.04939 -0.172861,0.186973 0,0.141111 0.130528,0.204611 0.426862,0.204611 0.370416,0 0.638528,-0.232833 0.705556,-0.500945 z m -0.05645,-0.687917 c -0.02822,0.112889 -0.243417,0.388056 -0.437445,0.388056 -0.1905,0 -0.197555,-0.268111 -0.197555,-0.306917 0,-0.169333 0.105833,-0.582084 0.179916,-0.747889 0.08819,-0.1905 0.243417,-0.34925 0.381001,-0.34925 0.211667,0 0.243417,0.296333 0.243417,0.324555 l -0.01058,0.04939 z"
         style="font-style:italic;font-variant:normal;font-weight:normal;font-stretch:normal;font-family:'Latin Modern Roman';-inkscape-font-specification:'Latin Modern Roman,  Italic'"
         id="path1785" />
      <path
         d="m 35.011655,28.589866 c 0,-0.03528 -0.02822,-0.04233 -0.04586,-0.04233 -0.03175,0 -0.03881,0.02117 -0.04586,0.04939 -0.123472,0.363361 -0.440973,0.363361 -0.47625,0.363361 -0.176389,0 -0.317501,-0.105833 -0.39864,-0.236361 C 33.93921,28.554589 33.93921,28.321755 33.93921,28.194755 h 0.984251 c 0.07761,0 0.08819,0 0.08819,-0.07408 0,-0.349251 -0.1905,-0.691445 -0.631472,-0.691445 -0.409223,0 -0.733779,0.363361 -0.733779,0.804334 0,0.472722 0.370417,0.814917 0.776112,0.814917 0.430389,0 0.589139,-0.391584 0.589139,-0.458612 z m -0.232833,-0.469194 h -0.836084 c 0.02117,-0.52564 0.3175,-0.613834 0.437445,-0.613834 0.363361,0 0.398639,0.47625 0.398639,0.613834 z"
         style="font-size:3.52778px;stroke-width:0.264583"
         id="path1787" />
      <path
         d="m 36.973095,29.009672 v -0.109361 c -0.246945,0 -0.275167,-0.02469 -0.275167,-0.197556 v -2.141362 l -0.508001,0.0388 v 0.109362 c 0.246945,0 0.275167,0.02469 0.275167,0.197555 v 0.762001 c -0.102305,-0.127 -0.254,-0.218723 -0.4445,-0.218723 -0.416278,0 -0.786695,0.345723 -0.786695,0.800806 0,0.448029 0.345723,0.797279 0.747889,0.797279 0.225778,0 0.384528,-0.119945 0.472723,-0.232834 v 0.232834 z m -0.518584,-0.416278 c 0,0.0635 0,0.07056 -0.03881,0.130528 -0.105833,0.169333 -0.264583,0.246945 -0.416278,0.246945 -0.15875,0 -0.28575,-0.09172 -0.370417,-0.225778 -0.09172,-0.144639 -0.102305,-0.345723 -0.102305,-0.490362 0,-0.130528 0.0071,-0.342194 0.109361,-0.500945 0.07408,-0.109361 0.208139,-0.225777 0.398639,-0.225777 0.123472,0 0.271639,0.05292 0.381,0.211666 0.03881,0.05997 0.03881,0.06703 0.03881,0.130528 z"
         style="font-size:3.52778px;stroke-width:0.264583"
         id="path1789" />
      <path
         d="m 38.786373,27.584449 c 0,-0.05997 -0.04233,-0.172861 -0.179917,-0.172861 -0.07056,0 -0.225778,0.02117 -0.373945,0.165805 -0.148167,-0.116416 -0.296333,-0.127 -0.373944,-0.127 -0.328084,0 -0.571501,0.243417 -0.571501,0.515056 0,0.155223 0.07761,0.289278 0.165806,0.363362 -0.04586,0.05292 -0.109361,0.169333 -0.109361,0.292805 0,0.109362 0.04586,0.243417 0.155222,0.313973 -0.211667,0.05997 -0.324556,0.211667 -0.324556,0.352778 0,0.254 0.34925,0.448028 0.77964,0.448028 0.416278,0 0.783167,-0.179917 0.783167,-0.455084 0,-0.123472 -0.04939,-0.303389 -0.229306,-0.402167 -0.186972,-0.09878 -0.391583,-0.09878 -0.606778,-0.09878 -0.08819,0 -0.239889,0 -0.264584,-0.0035 -0.112889,-0.01411 -0.186972,-0.123473 -0.186972,-0.236362 0,-0.01411 0,-0.09525 0.05997,-0.165805 0.137584,0.09878 0.282223,0.109361 0.349251,0.109361 0.328083,0 0.5715,-0.243417 0.5715,-0.515056 0,-0.130528 -0.05645,-0.261056 -0.144639,-0.342195 0.127,-0.119944 0.254,-0.137583 0.3175,-0.137583 0,0 0.0247,0 0.03528,0.0035 -0.03881,0.01411 -0.05644,0.05292 -0.05644,0.09525 0,0.05997 0.04586,0.102305 0.102306,0.102305 0.03528,0 0.102306,-0.02469 0.102306,-0.105833 z m -0.62089,0.381 c 0,0.09525 -0.0035,0.208139 -0.05644,0.296334 -0.02822,0.04233 -0.109361,0.141111 -0.250472,0.141111 -0.306917,0 -0.306917,-0.352778 -0.306917,-0.433917 0,-0.09525 0.0035,-0.208139 0.05644,-0.296333 0.02822,-0.04233 0.109361,-0.141112 0.250473,-0.141112 0.306916,0 0.306916,0.352778 0.306916,0.433917 z m 0.388056,1.322918 c 0,0.1905 -0.250472,0.366889 -0.596195,0.366889 -0.356305,0 -0.599722,-0.179917 -0.599722,-0.366889 0,-0.162278 0.134055,-0.292806 0.289278,-0.303389 h 0.208139 c 0.303389,0 0.6985,0 0.6985,0.303389 z"
         style="font-size:3.52778px;stroke-width:0.264583"
         id="path1791" />
      <path
         d="m 40.303312,28.589866 c 0,-0.03528 -0.02822,-0.04233 -0.04586,-0.04233 -0.03175,0 -0.03881,0.02117 -0.04586,0.04939 -0.123472,0.363361 -0.440972,0.363361 -0.47625,0.363361 -0.176389,0 -0.3175,-0.105833 -0.398639,-0.236361 C 39.23087,28.554593 39.23087,28.321759 39.23087,28.194759 h 0.98425 c 0.07761,0 0.08819,0 0.08819,-0.07408 0,-0.349251 -0.1905,-0.691445 -0.631473,-0.691445 -0.409222,0 -0.733778,0.363361 -0.733778,0.804334 0,0.472722 0.370417,0.814917 0.776111,0.814917 0.43039,0 0.58914,-0.391584 0.58914,-0.458612 z m -0.232834,-0.469194 h -0.836084 c 0.02117,-0.52564 0.317501,-0.613834 0.437445,-0.613834 0.363361,0 0.398639,0.47625 0.398639,0.613834 z"
         style="font-size:3.52778px;stroke-width:0.264583"
         id="path1793" />
      <path
         d="m 42.75158,28.572227 v -0.201083 h -0.08819 v 0.194028 c 0,0.261056 -0.105833,0.395111 -0.236361,0.395111 -0.236361,0 -0.236361,-0.321028 -0.236361,-0.381 V 27.59856 h 0.504472 v -0.109361 h -0.504472 v -0.649112 h -0.08819 c -0.0035,0.289278 -0.109361,0.666751 -0.455084,0.680862 v 0.07761 h 0.299862 v 0.973667 c 0,0.433917 0.328083,0.476251 0.455083,0.476251 0.250473,0 0.349251,-0.250473 0.349251,-0.476251 z"
         style="font-size:3.52778px;stroke-width:0.264583"
         id="path1795" />
      <path
         d="m 44.236773,27.665588 c 0,-0.112889 -0.109361,-0.215195 -0.261055,-0.215195 -0.257528,0 -0.384528,0.236362 -0.433917,0.388056 v -0.388056 l -0.490362,0.03881 v 0.109361 c 0.246945,0 0.275167,0.0247 0.275167,0.197556 v 0.945445 c 0,0.15875 -0.0388,0.15875 -0.275167,0.15875 v 0.109361 l 0.402167,-0.01058 c 0.141111,0 0.306917,0 0.448028,0.01058 v -0.109361 h -0.07408 c -0.261056,0 -0.268111,-0.03881 -0.268111,-0.165806 v -0.543278 c 0,-0.34925 0.148166,-0.663222 0.416278,-0.663222 0.02469,0 0.03175,0 0.0388,0.0035 -0.01058,0.0035 -0.08114,0.04586 -0.08114,0.137584 0,0.09878 0.07408,0.151694 0.151695,0.151694 0.0635,0 0.151694,-0.04233 0.151694,-0.155222 z"
         style="font-size:3.52778px;stroke-width:0.264583"
         id="path1797" />
      <path
         d="m 45.206908,29.009672 v -0.109361 c -0.232833,0 -0.246944,-0.01764 -0.246944,-0.155222 v -1.294696 l -0.49389,0.03881 v 0.109361 c 0.229306,0 0.261056,0.02117 0.261056,0.194028 v 0.948973 c 0,0.15875 -0.03881,0.15875 -0.275167,0.15875 v 0.109361 l 0.388056,-0.01058 c 0.123472,0 0.246945,0.0071 0.366889,0.01058 z M 45.01288,26.878893 c 0,-0.09525 -0.08114,-0.186972 -0.186972,-0.186972 -0.119945,0 -0.1905,0.09878 -0.1905,0.186972 0,0.09525 0.08114,0.186972 0.186972,0.186972 0.119945,0 0.1905,-0.09878 0.1905,-0.186972 z"
         style="font-size:3.52778px;stroke-width:0.264583"
         id="path1799" />
      <path
         d="m 47.027242,27.584449 c 0,-0.05997 -0.04233,-0.172861 -0.179917,-0.172861 -0.07055,0 -0.225777,0.02117 -0.373944,0.165805 -0.148167,-0.116416 -0.296334,-0.127 -0.373945,-0.127 -0.328083,0 -0.5715,0.243417 -0.5715,0.515056 0,0.155223 0.07761,0.289278 0.165805,0.363362 -0.04586,0.05292 -0.109361,0.169333 -0.109361,0.292805 0,0.109362 0.04586,0.243417 0.155223,0.313973 -0.211667,0.05997 -0.324556,0.211667 -0.324556,0.352778 0,0.254 0.34925,0.448028 0.779639,0.448028 0.416278,0 0.783167,-0.179917 0.783167,-0.455084 0,-0.123472 -0.04939,-0.303389 -0.229305,-0.402167 -0.186973,-0.09878 -0.391584,-0.09878 -0.606779,-0.09878 -0.08819,0 -0.239889,0 -0.264583,-0.0035 -0.112889,-0.01411 -0.186972,-0.123473 -0.186972,-0.236362 0,-0.01411 0,-0.09525 0.05997,-0.165805 0.137583,0.09878 0.282222,0.109361 0.34925,0.109361 0.328084,0 0.5715,-0.243417 0.5715,-0.515056 0,-0.130528 -0.05644,-0.261056 -0.144639,-0.342195 0.127001,-0.119944 0.254001,-0.137583 0.317501,-0.137583 0,0 0.02469,0 0.03528,0.0035 -0.03881,0.01411 -0.05644,0.05292 -0.05644,0.09525 0,0.05997 0.04586,0.102305 0.102306,0.102305 0.03528,0 0.102305,-0.02469 0.102305,-0.105833 z m -0.620889,0.381 c 0,0.09525 -0.0035,0.208139 -0.05645,0.296334 -0.02822,0.04233 -0.109361,0.141111 -0.250472,0.141111 -0.306917,0 -0.306917,-0.352778 -0.306917,-0.433917 0,-0.09525 0.0035,-0.208139 0.05645,-0.296333 0.02822,-0.04233 0.109361,-0.141112 0.250472,-0.141112 0.306917,0 0.306917,0.352778 0.306917,0.433917 z m 0.388056,1.322918 c 0,0.1905 -0.250473,0.366889 -0.596195,0.366889 -0.356306,0 -0.599723,-0.179917 -0.599723,-0.366889 0,-0.162278 0.134056,-0.292806 0.289278,-0.303389 h 0.208139 c 0.303389,0 0.698501,0 0.698501,0.303389 z"
         style="font-size:3.52778px;stroke-width:0.264583"
         id="path1801" />
      <path
         d="m 48.791126,27.584449 c 0,-0.05997 -0.04233,-0.172861 -0.179917,-0.172861 -0.07056,0 -0.225778,0.02117 -0.373945,0.165805 -0.148166,-0.116416 -0.296333,-0.127 -0.373944,-0.127 -0.328084,0 -0.571501,0.243417 -0.571501,0.515056 0,0.155223 0.07761,0.289278 0.165806,0.363362 -0.04586,0.05292 -0.109361,0.169333 -0.109361,0.292805 0,0.109362 0.04586,0.243417 0.155222,0.313973 -0.211667,0.05997 -0.324556,0.211667 -0.324556,0.352778 0,0.254 0.349251,0.448028 0.77964,0.448028 0.416278,0 0.783167,-0.179917 0.783167,-0.455084 0,-0.123472 -0.04939,-0.303389 -0.229306,-0.402167 -0.186972,-0.09878 -0.391583,-0.09878 -0.606778,-0.09878 -0.08819,0 -0.239889,0 -0.264583,-0.0035 -0.112889,-0.01411 -0.186973,-0.123473 -0.186973,-0.236362 0,-0.01411 0,-0.09525 0.05997,-0.165805 0.137584,0.09878 0.282223,0.109361 0.349251,0.109361 0.328083,0 0.5715,-0.243417 0.5715,-0.515056 0,-0.130528 -0.05644,-0.261056 -0.144639,-0.342195 0.127,-0.119944 0.254,-0.137583 0.3175,-0.137583 0,0 0.0247,0 0.03528,0.0035 -0.03881,0.01411 -0.05644,0.05292 -0.05644,0.09525 0,0.05997 0.04586,0.102305 0.102305,0.102305 0.03528,0 0.102306,-0.02469 0.102306,-0.105833 z m -0.620889,0.381 c 0,0.09525 -0.0035,0.208139 -0.05645,0.296334 -0.02822,0.04233 -0.109361,0.141111 -0.250472,0.141111 -0.306917,0 -0.306917,-0.352778 -0.306917,-0.433917 0,-0.09525 0.0035,-0.208139 0.05644,-0.296333 0.02822,-0.04233 0.109361,-0.141112 0.250473,-0.141112 0.306917,0 0.306917,0.352778 0.306917,0.433917 z m 0.388055,1.322918 c 0,0.1905 -0.250472,0.366889 -0.596194,0.366889 -0.356306,0 -0.599723,-0.179917 -0.599723,-0.366889 0,-0.162278 0.134056,-0.292806 0.289278,-0.303389 h 0.208139 c 0.303389,0 0.6985,0 0.6985,0.303389 z"
         style="font-size:3.52778px;stroke-width:0.264583"
         id="path1803" />
      <path
         d="m 50.308065,28.589866 c 0,-0.03528 -0.02822,-0.04233 -0.04586,-0.04233 -0.03175,0 -0.03881,0.02117 -0.04586,0.04939 -0.123473,0.363361 -0.440973,0.363361 -0.476251,0.363361 -0.176389,0 -0.3175,-0.105833 -0.398639,-0.236361 C 49.23562,28.554589 49.23562,28.321755 49.23562,28.194755 h 0.98425 c 0.07761,0 0.08819,0 0.08819,-0.07408 0,-0.349251 -0.1905,-0.691445 -0.631473,-0.691445 -0.409222,0 -0.733778,0.363361 -0.733778,0.804334 0,0.472722 0.370417,0.814917 0.776112,0.814917 0.430389,0 0.589139,-0.391584 0.589139,-0.458612 z m -0.232834,-0.469194 h -0.836084 c 0.02117,-0.52564 0.317501,-0.613834 0.437445,-0.613834 0.363362,0 0.398639,0.47625 0.398639,0.613834 z"
         style="font-size:3.52778px;stroke-width:0.264583"
         id="path1805" />
      <path
         d="m 51.694476,27.665588 c 0,-0.112889 -0.109361,-0.215195 -0.261056,-0.215195 -0.257528,0 -0.384528,0.236362 -0.433917,0.388056 v -0.388056 l -0.490361,0.03881 v 0.109361 c 0.246945,0 0.275167,0.0247 0.275167,0.197556 v 0.945445 c 0,0.15875 -0.03881,0.15875 -0.275167,0.15875 v 0.109361 l 0.402167,-0.01058 c 0.141111,0 0.306917,0 0.448028,0.01058 v -0.109361 h -0.07408 c -0.261056,0 -0.268112,-0.03881 -0.268112,-0.165806 v -0.543278 c 0,-0.34925 0.148167,-0.663222 0.416278,-0.663222 0.0247,0 0.03175,0 0.03881,0.0035 -0.01058,0.0035 -0.08114,0.04586 -0.08114,0.137584 0,0.09878 0.07408,0.151694 0.151695,0.151694 0.0635,0 0.151694,-0.04233 0.151694,-0.155222 z"
         style="font-size:3.52778px;stroke-width:0.264583"
         id="path1807" />
      <path
         d="m 53.257276,28.589866 c 0,-0.03528 -0.02822,-0.04233 -0.04586,-0.04233 -0.03175,0 -0.03881,0.02117 -0.04586,0.04939 -0.123473,0.363361 -0.440973,0.363361 -0.476251,0.363361 -0.176389,0 -0.3175,-0.105833 -0.398639,-0.236361 -0.105833,-0.169333 -0.105833,-0.402167 -0.105833,-0.529167 h 0.98425 c 0.07761,0 0.08819,0 0.08819,-0.07408 0,-0.349251 -0.1905,-0.691445 -0.631473,-0.691445 -0.409222,0 -0.733778,0.363361 -0.733778,0.804334 0,0.472722 0.370417,0.814917 0.776112,0.814917 0.430389,0 0.589139,-0.391584 0.589139,-0.458612 z m -0.232834,-0.469194 h -0.836083 c 0.02117,-0.52564 0.3175,-0.613834 0.437444,-0.613834 0.363362,0 0.398639,0.47625 0.398639,0.613834 z"
         style="font-size:3.52778px;stroke-width:0.264583"
         id="path1809" />
      <path
         d="m 55.218715,29.009672 v -0.109361 c -0.246944,0 -0.275166,-0.02469 -0.275166,-0.197556 v -2.141362 l -0.508001,0.0388 v 0.109362 c 0.246945,0 0.275167,0.02469 0.275167,0.197555 v 0.762001 c -0.102306,-0.127 -0.254,-0.218723 -0.4445,-0.218723 -0.416278,0 -0.786695,0.345723 -0.786695,0.800806 0,0.448029 0.345722,0.797279 0.747889,0.797279 0.225778,0 0.384528,-0.119945 0.472723,-0.232834 v 0.232834 z m -0.518583,-0.416278 c 0,0.0635 0,0.07056 -0.03881,0.130528 -0.105833,0.169333 -0.264583,0.246945 -0.416278,0.246945 -0.15875,0 -0.28575,-0.09172 -0.370417,-0.225778 -0.09172,-0.144639 -0.102305,-0.345723 -0.102305,-0.490362 0,-0.130528 0.0071,-0.342194 0.109361,-0.500945 0.07408,-0.109361 0.208139,-0.225777 0.398639,-0.225777 0.123472,0 0.271639,0.05292 0.381,0.211666 0.03881,0.05997 0.03881,0.06703 0.03881,0.130528 z"
         style="font-size:3.52778px;stroke-width:0.264583"
         id="path1811" />
    </g>
    <g
       aria-label="Falling edge triggered"
       id="text1693"
       style="font-size:3.52778px;line-height:1.25;font-family:'Latin Modern Roman';-inkscape-font-specification:'Latin Modern Roman, ';stroke-width:0.264583">
      <path
         d="m 81.605919,27.315992 0.08114,-0.624417 c 0.01058,-0.09172 -0.01058,-0.09172 -0.08467,-0.09172 h -1.60514 c -0.05997,0 -0.09525,0 -0.09525,0.0635 0,0.04586 0.02469,0.04586 0.09525,0.04586 0.204611,0 0.204611,0.02822 0.204611,0.05997 0,0 0,0.02822 -0.01411,0.08114 l -0.472722,1.89089 c -0.02822,0.119945 -0.04939,0.148167 -0.289278,0.148167 -0.05645,0 -0.09525,0 -0.09525,0.06703 0,0.04233 0.0388,0.04233 0.04939,0.04233 0.141111,0 0.289278,-0.01058 0.430389,-0.01058 0.162278,0 0.328083,0.01058 0.486833,0.01058 0.03175,0 0.07408,0 0.07408,-0.06703 0,-0.04233 -0.03175,-0.04233 -0.08819,-0.04233 h -0.03528 c -0.257528,0 -0.257528,-0.02822 -0.257528,-0.07408 0,-0.01411 0,-0.02117 0.01411,-0.07408 l 0.22225,-0.889 h 0.292806 c 0.229305,0 0.261055,0.05292 0.261055,0.148166 0,0.05997 -0.01411,0.116417 -0.02822,0.172862 -0.0071,0.02469 -0.01058,0.0388 -0.01058,0.04939 0,0.04233 0.0388,0.04233 0.05292,0.04233 0.03881,0 0.04939,-0.0035 0.06703,-0.07056 l 0.194028,-0.776111 c 0.0035,-0.01411 0.0071,-0.03175 0.0071,-0.04939 0,-0.03881 -0.04233,-0.03881 -0.05292,-0.03881 -0.04586,0 -0.04939,0.01058 -0.06703,0.07408 -0.0635,0.250473 -0.119944,0.338667 -0.41275,0.338667 h -0.275167 l 0.225778,-0.913695 c 0.02822,-0.116416 0.05292,-0.119944 0.169333,-0.119944 h 0.412751 c 0.377472,0 0.455083,0.109361 0.455083,0.352778 0,0.08467 -0.01058,0.151694 -0.02117,0.232833 l -0.0035,0.05645 c 0,0.04233 0.0388,0.04233 0.05292,0.04233 0.04939,0 0.05292,-0.01411 0.05997,-0.07761 z"
         style="font-style:italic;font-variant:normal;font-weight:normal;font-stretch:normal;font-family:'Latin Modern Roman';-inkscape-font-specification:'Latin Modern Roman,  Italic'"
         id="path1734" />
      <path
         d="m 82.995858,28.494271 c 0,-0.03528 -0.02822,-0.03528 -0.05292,-0.03528 -0.04233,0 -0.04586,0.0035 -0.06703,0.08114 -0.04939,0.197555 -0.116417,0.419805 -0.236362,0.419805 -0.09172,0 -0.09172,-0.09525 -0.09172,-0.144639 0,-0.02469 0,-0.08114 0.02469,-0.179916 l 0.23989,-0.959556 c 0.01411,-0.04939 0.01411,-0.05645 0.01411,-0.07408 0,-0.07408 -0.05997,-0.09172 -0.09525,-0.09172 -0.112889,0 -0.137584,0.119944 -0.141112,0.137583 -0.06703,-0.151694 -0.179916,-0.208139 -0.292805,-0.208139 -0.391584,0 -0.807862,0.536223 -0.807862,1.051279 0,0.299861 0.162278,0.546806 0.426861,0.546806 0.127,0 0.282223,-0.07408 0.423334,-0.246945 0.03881,0.172861 0.169333,0.246945 0.292806,0.246945 0.130528,0 0.204611,-0.08819 0.257528,-0.197556 0.0635,-0.134056 0.105833,-0.345722 0.105833,-0.345722 z m -0.631473,0.06703 c -0.02822,0.112889 -0.246944,0.398639 -0.440972,0.398639 -0.165806,0 -0.194028,-0.208139 -0.194028,-0.313972 0,-0.176389 0.109361,-0.589139 0.172861,-0.737306 0.08819,-0.215195 0.250473,-0.391584 0.395112,-0.391584 0.155222,0 0.243416,0.183445 0.243416,0.331612 0,0 -0.0035,0.02469 -0.01058,0.04586 z"
         style="font-style:italic;font-variant:normal;font-weight:normal;font-stretch:normal;font-family:'Latin Modern Roman';-inkscape-font-specification:'Latin Modern Roman,  Italic'"
         id="path1736" />
      <path
         d="m 83.934246,28.494271 c 0,-0.03528 -0.02822,-0.03528 -0.05292,-0.03528 -0.01764,0 -0.03881,0 -0.04939,0.01764 l -0.02469,0.08819 c -0.05997,0.246945 -0.127,0.395111 -0.225778,0.395111 -0.09172,0 -0.09172,-0.09525 -0.09172,-0.144639 0,-0.02469 0,-0.07761 0.02117,-0.162277 l 0.504472,-2.014363 c 0.0035,-0.01058 0.01058,-0.04586 0.01058,-0.04586 0,-0.03175 -0.02117,-0.04233 -0.04939,-0.04233 -0.01058,0 -0.04586,0.0035 -0.05644,0.0071 l -0.34925,0.02822 c -0.04233,0.0035 -0.08114,0.0071 -0.08114,0.07408 0,0.0388 0.03528,0.0388 0.08467,0.0388 0.169333,0 0.176389,0.02469 0.176389,0.05997 0,0.01058 -0.01058,0.05997 -0.01058,0.05997 l -0.440972,1.76389 c -0.0035,0.01411 -0.02117,0.08467 -0.02117,0.137583 0,0.186973 0.127,0.317501 0.296334,0.317501 0.134055,0 0.204611,-0.09525 0.250472,-0.183445 0.05997,-0.123472 0.109361,-0.34925 0.109361,-0.359833 z"
         style="font-style:italic;font-variant:normal;font-weight:normal;font-stretch:normal;font-family:'Latin Modern Roman';-inkscape-font-specification:'Latin Modern Roman,  Italic'"
         id="path1738" />
      <path
         d="m 85.108991,28.494271 c 0,-0.03528 -0.02822,-0.03528 -0.05292,-0.03528 -0.01764,0 -0.03881,0 -0.04939,0.01764 l -0.0247,0.08819 c -0.05997,0.246945 -0.127,0.395111 -0.225778,0.395111 -0.09172,0 -0.09172,-0.09525 -0.09172,-0.144639 0,-0.02469 0,-0.07761 0.02117,-0.162277 l 0.504472,-2.014363 c 0.0035,-0.01058 0.01058,-0.04586 0.01058,-0.04586 0,-0.03175 -0.02117,-0.04233 -0.04939,-0.04233 -0.01058,0 -0.04586,0.0035 -0.05644,0.0071 l -0.34925,0.02822 c -0.04233,0.0035 -0.08114,0.0071 -0.08114,0.07408 0,0.0388 0.03528,0.0388 0.08467,0.0388 0.169333,0 0.176389,0.02469 0.176389,0.05997 0,0.01058 -0.01058,0.05997 -0.01058,0.05997 l -0.440972,1.76389 c -0.0035,0.01411 -0.02117,0.08467 -0.02117,0.137583 0,0.186973 0.127,0.317501 0.296334,0.317501 0.134055,0 0.204611,-0.09525 0.250472,-0.183445 0.05997,-0.123472 0.109361,-0.34925 0.109361,-0.359833 z"
         style="font-style:italic;font-variant:normal;font-weight:normal;font-stretch:normal;font-family:'Latin Modern Roman';-inkscape-font-specification:'Latin Modern Roman,  Italic'"
         id="path1740" />
      <path
         d="m 86.192015,28.494271 c 0,-0.03528 -0.02822,-0.03528 -0.05292,-0.03528 -0.04586,0 -0.04586,0.0071 -0.05997,0.05997 -0.02822,0.102306 -0.123472,0.440972 -0.328084,0.440972 -0.02822,0 -0.07761,-0.0035 -0.07761,-0.09878 0,-0.09172 0.04586,-0.208139 0.09172,-0.338667 l 0.225778,-0.603251 c 0.03528,-0.102305 0.04233,-0.130528 0.04233,-0.197555 0,-0.194028 -0.134056,-0.282223 -0.264584,-0.282223 -0.331611,0 -0.451556,0.52564 -0.451556,0.543278 0,0.03528 0.03528,0.03528 0.05292,0.03528 0.04586,0 0.04939,-0.0071 0.0635,-0.05644 0.03175,-0.116417 0.123472,-0.444501 0.328084,-0.444501 0.0388,0 0.07761,0.01764 0.07761,0.09878 0,0.08467 -0.03881,0.186973 -0.0635,0.254 l -0.105834,0.292806 -0.130527,0.34925 c -0.04939,0.134056 -0.0635,0.172862 -0.0635,0.243417 0,0.137584 0.08467,0.282223 0.268112,0.282223 0.331611,0 0.448028,-0.529167 0.448028,-0.543278 z m 0.09525,-1.651002 c 0,-0.07408 -0.05292,-0.151694 -0.15875,-0.151694 -0.112889,0 -0.225778,0.109361 -0.225778,0.22225 0,0.07761 0.05644,0.151695 0.15875,0.151695 0.112889,0 0.225778,-0.109362 0.225778,-0.222251 z"
         style="font-style:italic;font-variant:normal;font-weight:normal;font-stretch:normal;font-family:'Latin Modern Roman';-inkscape-font-specification:'Latin Modern Roman,  Italic'"
         id="path1742" />
      <path
         d="m 88.174624,28.494271 c 0,-0.03528 -0.02822,-0.03528 -0.05292,-0.03528 -0.04586,0 -0.04586,0.0071 -0.05997,0.05997 -0.02822,0.09525 -0.123472,0.440972 -0.328083,0.440972 -0.07408,0 -0.07761,-0.05292 -0.07761,-0.102305 0,-0.08819 0.03528,-0.179917 0.0635,-0.264584 0.07055,-0.186972 0.215194,-0.582083 0.215194,-0.786695 0,-0.289278 -0.194028,-0.366889 -0.366889,-0.366889 -0.289278,0 -0.458611,0.211667 -0.504473,0.278695 -0.02469,-0.172861 -0.144638,-0.278695 -0.296333,-0.278695 -0.127,0 -0.197556,0.08114 -0.254,0.186973 -0.06703,0.141111 -0.112889,0.356305 -0.112889,0.356305 0,0.03528 0.03528,0.03528 0.05292,0.03528 0.04586,0 0.04939,-0.0035 0.06703,-0.08114 0.0635,-0.246944 0.130528,-0.419806 0.239889,-0.419806 0.09172,0 0.09172,0.102306 0.09172,0.141112 0,0.05644 -0.01058,0.123472 -0.0247,0.179916 l -0.264583,1.058334 c -0.0071,0.02117 -0.01058,0.03881 -0.01058,0.04939 0,0.03881 0.02822,0.09172 0.09878,0.09172 0.04233,0 0.102306,-0.02469 0.127,-0.09172 l 0.141112,-0.564444 c 0.01764,-0.07761 0.0388,-0.151695 0.05644,-0.229306 0.04586,-0.179917 0.04586,-0.183445 0.105833,-0.28575 0.04939,-0.08467 0.208139,-0.349251 0.476251,-0.349251 0.155222,0 0.162278,0.158751 0.162278,0.232834 0,0.218722 -0.155223,0.638528 -0.204612,0.779639 -0.04586,0.119945 -0.05644,0.151695 -0.05644,0.225778 0,0.155223 0.09878,0.282223 0.268111,0.282223 0.328084,0 0.448028,-0.52564 0.448028,-0.543278 z"
         style="font-style:italic;font-variant:normal;font-weight:normal;font-stretch:normal;font-family:'Latin Modern Roman';-inkscape-font-specification:'Latin Modern Roman,  Italic'"
         id="path1744" />
      <path
         d="m 89.409341,29.220993 0.384528,-1.545167 c 0.01411,-0.05292 0.01411,-0.05997 0.01411,-0.07408 0,-0.07408 -0.05997,-0.09172 -0.09525,-0.09172 -0.04233,0 -0.123472,0.02822 -0.137583,0.130528 -0.04939,-0.102306 -0.144639,-0.201084 -0.296334,-0.201084 -0.395111,0 -0.800806,0.522112 -0.800806,1.019529 0,0.299861 0.165806,0.53975 0.430389,0.53975 0.179917,0 0.331612,-0.144639 0.373945,-0.186972 l -0.07408,0.296333 c -0.04233,0.176389 -0.0635,0.250473 -0.162278,0.370417 -0.141111,0.165806 -0.282222,0.165806 -0.335139,0.165806 -0.04586,0 -0.155223,0 -0.250473,-0.03881 0.07056,-0.02822 0.112889,-0.102305 0.112889,-0.162278 0,-0.04586 -0.03175,-0.112889 -0.123472,-0.112889 -0.0635,0 -0.172861,0.04939 -0.172861,0.186973 0,0.141111 0.130528,0.204611 0.426861,0.204611 0.370417,0 0.638528,-0.232834 0.705556,-0.500945 z m -0.05644,-0.687917 c -0.02822,0.112889 -0.243417,0.388056 -0.437445,0.388056 -0.1905,0 -0.197556,-0.268111 -0.197556,-0.306917 0,-0.169333 0.105834,-0.582084 0.179917,-0.747889 0.08819,-0.1905 0.243417,-0.349251 0.381,-0.349251 0.211667,0 0.243417,0.296334 0.243417,0.324556 l -0.01058,0.04939 z"
         style="font-style:italic;font-variant:normal;font-weight:normal;font-stretch:normal;font-family:'Latin Modern Roman';-inkscape-font-specification:'Latin Modern Roman,  Italic'"
         id="path1746" />
      <path
         d="m 92.351501,28.578937 c 0,-0.03528 -0.02822,-0.04233 -0.04586,-0.04233 -0.03175,0 -0.03881,0.02117 -0.04586,0.04939 -0.123473,0.363361 -0.440973,0.363361 -0.476251,0.363361 -0.176389,0 -0.3175,-0.105833 -0.398639,-0.236361 -0.105833,-0.169334 -0.105833,-0.402167 -0.105833,-0.529167 h 0.98425 c 0.07761,0 0.08819,0 0.08819,-0.07408 0,-0.34925 -0.1905,-0.691444 -0.631473,-0.691444 -0.409222,0 -0.733778,0.363361 -0.733778,0.804333 0,0.472723 0.370417,0.814918 0.776112,0.814918 0.430389,0 0.589139,-0.391584 0.589139,-0.458612 z m -0.232834,-0.469195 h -0.836083 c 0.02117,-0.525639 0.3175,-0.613833 0.437444,-0.613833 0.363362,0 0.398639,0.47625 0.398639,0.613833 z"
         style="font-size:3.52778px;stroke-width:0.264583"
         id="path1748" />
      <path
         d="m 94.31294,28.998743 v -0.109361 c -0.246944,0 -0.275167,-0.0247 -0.275167,-0.197556 v -2.141362 l -0.508,0.0388 v 0.109361 c 0.246945,0 0.275167,0.02469 0.275167,0.197556 v 0.762001 c -0.102306,-0.127 -0.254,-0.218723 -0.4445,-0.218723 -0.416278,0 -0.786695,0.345723 -0.786695,0.800806 0,0.448028 0.345722,0.797279 0.747889,0.797279 0.225778,0 0.384528,-0.119945 0.472723,-0.232834 v 0.232834 z m -0.518583,-0.416278 c 0,0.0635 0,0.07056 -0.03881,0.130528 -0.105833,0.169333 -0.264583,0.246944 -0.416278,0.246944 -0.15875,0 -0.28575,-0.09172 -0.370417,-0.225777 -0.09172,-0.144639 -0.102306,-0.345723 -0.102306,-0.490362 0,-0.130528 0.0071,-0.342195 0.109362,-0.500945 0.07408,-0.109361 0.208139,-0.225778 0.398639,-0.225778 0.123472,0 0.271639,0.05292 0.381,0.211667 0.03881,0.05997 0.03881,0.06703 0.03881,0.130528 z"
         style="font-size:3.52778px;stroke-width:0.264583"
         id="path1750" />
      <path
         d="m 96.126218,27.57352 c 0,-0.05997 -0.04233,-0.172861 -0.179916,-0.172861 -0.07056,0 -0.225778,0.02117 -0.373945,0.165805 -0.148167,-0.116416 -0.296334,-0.127 -0.373945,-0.127 -0.328083,0 -0.5715,0.243417 -0.5715,0.515056 0,0.155222 0.07761,0.289278 0.165806,0.363362 -0.04586,0.05292 -0.109362,0.169333 -0.109362,0.292805 0,0.109361 0.04586,0.243417 0.155223,0.313973 -0.211667,0.05997 -0.324556,0.211666 -0.324556,0.352778 0,0.254 0.34925,0.448028 0.779639,0.448028 0.416278,0 0.783167,-0.179917 0.783167,-0.455084 0,-0.123472 -0.04939,-0.303389 -0.229305,-0.402167 -0.186973,-0.09878 -0.391584,-0.09878 -0.606778,-0.09878 -0.08819,0 -0.239889,0 -0.264584,-0.0035 -0.112889,-0.01411 -0.186972,-0.123473 -0.186972,-0.236362 0,-0.01411 0,-0.09525 0.05997,-0.165805 0.137583,0.09878 0.282222,0.109361 0.34925,0.109361 0.328084,0 0.571501,-0.243417 0.571501,-0.515056 0,-0.130528 -0.05644,-0.261056 -0.144639,-0.342195 0.127,-0.119944 0.254,-0.137583 0.3175,-0.137583 0,0 0.02469,0 0.03528,0.0035 -0.03881,0.01411 -0.05645,0.05292 -0.05645,0.09525 0,0.05997 0.04586,0.102305 0.102306,0.102305 0.03528,0 0.102305,-0.02469 0.102305,-0.105833 z m -0.620889,0.381 c 0,0.09525 -0.0035,0.208139 -0.05644,0.296334 -0.02822,0.04233 -0.109362,0.141111 -0.250473,0.141111 -0.306917,0 -0.306917,-0.352778 -0.306917,-0.433917 0,-0.09525 0.0035,-0.208139 0.05644,-0.296334 0.02822,-0.04233 0.109361,-0.141111 0.250472,-0.141111 0.306917,0 0.306917,0.352778 0.306918,0.433917 z m 0.388056,1.322918 c 0,0.1905 -0.250472,0.366889 -0.596195,0.366889 -0.356306,0 -0.599723,-0.179917 -0.599723,-0.366889 0,-0.162278 0.134056,-0.292806 0.289278,-0.303389 h 0.208139 c 0.30339,0 0.698501,0 0.698501,0.303389 z"
         style="font-size:3.52778px;stroke-width:0.264583"
         id="path1752" />
      <path
         d="m 97.643157,28.578937 c 0,-0.03528 -0.02822,-0.04233 -0.04586,-0.04233 -0.03175,0 -0.0388,0.02117 -0.04586,0.04939 -0.123472,0.363361 -0.440972,0.363361 -0.47625,0.363361 -0.176389,0 -0.3175,-0.105833 -0.398639,-0.236361 -0.105834,-0.169334 -0.105834,-0.402167 -0.105834,-0.529167 h 0.984251 c 0.07761,0 0.08819,0 0.08819,-0.07408 0,-0.34925 -0.1905,-0.691444 -0.631472,-0.691444 -0.409223,0 -0.733779,0.363361 -0.733779,0.804333 0,0.472723 0.370417,0.814918 0.776112,0.814918 0.430389,0 0.589139,-0.391584 0.589139,-0.458612 z M 97.410324,28.109742 H 96.57424 c 0.02117,-0.525639 0.3175,-0.613833 0.437445,-0.613833 0.363361,0 0.398639,0.47625 0.398639,0.613833 z"
         style="font-size:3.52778px;stroke-width:0.264583"
         id="path1754" />
      <path
         d="m 100.09143,28.561298 v -0.201083 h -0.0882 v 0.194028 c 0,0.261055 -0.105833,0.395111 -0.236361,0.395111 -0.236361,0 -0.236361,-0.321028 -0.236361,-0.381 v -0.980723 h 0.504472 V 27.47827 h -0.504472 v -0.649112 h -0.08819 c -0.0035,0.289278 -0.109361,0.666751 -0.455084,0.680862 v 0.07761 h 0.299861 v 0.973667 c 0,0.433917 0.328084,0.476251 0.455084,0.476251 0.250472,0 0.349251,-0.250473 0.349251,-0.476251 z"
         style="font-size:3.52778px;stroke-width:0.264583"
         id="path1756" />
      <path
         d="m 101.57662,27.654659 c 0,-0.112889 -0.10936,-0.215195 -0.26105,-0.215195 -0.25753,0 -0.38453,0.236362 -0.43392,0.388056 v -0.388056 l -0.49036,0.03881 v 0.109361 c 0.24694,0 0.27516,0.02469 0.27516,0.197556 v 0.945445 c 0,0.15875 -0.0388,0.15875 -0.27516,0.15875 v 0.109361 l 0.40216,-0.01058 c 0.14112,0 0.30692,0 0.44803,0.01058 v -0.109361 h -0.0741 c -0.26106,0 -0.26811,-0.03881 -0.26811,-0.165806 v -0.543278 c 0,-0.34925 0.14816,-0.663223 0.41628,-0.663223 0.0247,0 0.0318,0 0.0388,0.0035 -0.0106,0.0035 -0.0811,0.04586 -0.0811,0.137584 0,0.09878 0.0741,0.151694 0.1517,0.151694 0.0635,0 0.15169,-0.04233 0.15169,-0.155222 z"
         style="font-size:3.52778px;stroke-width:0.264583"
         id="path1758" />
      <path
         d="m 102.54675,28.998743 v -0.109361 c -0.23283,0 -0.24694,-0.01764 -0.24694,-0.155222 v -1.294696 l -0.49389,0.03881 v 0.109361 c 0.22931,0 0.26106,0.02117 0.26106,0.194028 v 0.948973 c 0,0.15875 -0.0388,0.15875 -0.27517,0.15875 v 0.109361 l 0.38805,-0.01058 c 0.12348,0 0.24695,0.0071 0.36689,0.01058 z m -0.19402,-2.130779 c 0,-0.09525 -0.0811,-0.186972 -0.18698,-0.186972 -0.11994,0 -0.1905,0.09878 -0.1905,0.186972 0,0.09525 0.0811,0.186972 0.18698,0.186972 0.11994,0 0.1905,-0.09878 0.1905,-0.186972 z"
         style="font-size:3.52778px;stroke-width:0.264583"
         id="path1760" />
      <path
         d="m 104.36709,27.57352 c 0,-0.05997 -0.0423,-0.172861 -0.17992,-0.172861 -0.0705,0 -0.22578,0.02117 -0.37394,0.165805 -0.14817,-0.116416 -0.29634,-0.127 -0.37395,-0.127 -0.32808,0 -0.5715,0.243417 -0.5715,0.515056 0,0.155222 0.0776,0.289278 0.16581,0.363362 -0.0459,0.05292 -0.10936,0.169333 -0.10936,0.292805 0,0.109361 0.0459,0.243417 0.15522,0.313973 -0.21167,0.05997 -0.32456,0.211666 -0.32456,0.352778 0,0.254 0.34925,0.448028 0.77964,0.448028 0.41628,0 0.78317,-0.179917 0.78317,-0.455084 0,-0.123472 -0.0494,-0.303389 -0.22931,-0.402167 -0.18697,-0.09878 -0.39158,-0.09878 -0.60677,-0.09878 -0.0882,0 -0.23989,0 -0.26459,-0.0035 -0.11289,-0.01411 -0.18697,-0.123473 -0.18697,-0.236362 0,-0.01411 0,-0.09525 0.06,-0.165805 0.13758,0.09878 0.28222,0.109361 0.34925,0.109361 0.32809,0 0.5715,-0.243417 0.5715,-0.515056 0,-0.130528 -0.0564,-0.261056 -0.14464,-0.342195 0.127,-0.119944 0.254,-0.137583 0.3175,-0.137583 0,0 0.0247,0 0.0353,0.0035 -0.0388,0.01411 -0.0564,0.05292 -0.0564,0.09525 0,0.05997 0.0459,0.102305 0.1023,0.102305 0.0353,0 0.10231,-0.02469 0.10231,-0.105833 z m -0.62089,0.381 c 0,0.09525 -0.004,0.208139 -0.0564,0.296334 -0.0282,0.04233 -0.10936,0.141111 -0.25047,0.141111 -0.30692,0 -0.30692,-0.352778 -0.30692,-0.433917 0,-0.09525 0.004,-0.208139 0.0564,-0.296334 0.0282,-0.04233 0.10936,-0.141111 0.25047,-0.141111 0.30692,0 0.30692,0.352778 0.30692,0.433917 z m 0.38805,1.322918 c 0,0.1905 -0.25047,0.366889 -0.59619,0.366889 -0.35631,0 -0.59972,-0.179917 -0.59972,-0.366889 0,-0.162278 0.13405,-0.292806 0.28927,-0.303389 h 0.20814 c 0.30339,0 0.6985,0 0.6985,0.303389 z"
         style="font-size:3.52778px;stroke-width:0.264583"
         id="path1762" />
      <path
         d="m 106.13097,27.57352 c 0,-0.05997 -0.0423,-0.172861 -0.17992,-0.172861 -0.0705,0 -0.22577,0.02117 -0.37394,0.165805 -0.14817,-0.116416 -0.29633,-0.127 -0.37394,-0.127 -0.32809,0 -0.57151,0.243417 -0.57151,0.515056 0,0.155222 0.0776,0.289278 0.16581,0.363362 -0.0459,0.05292 -0.10936,0.169333 -0.10936,0.292805 0,0.109361 0.0459,0.243417 0.15522,0.313973 -0.21167,0.05997 -0.32455,0.211666 -0.32455,0.352778 0,0.254 0.34925,0.448028 0.77964,0.448028 0.41627,0 0.78316,-0.179917 0.78316,-0.455084 0,-0.123472 -0.0494,-0.303389 -0.2293,-0.402167 -0.18698,-0.09878 -0.39159,-0.09878 -0.60678,-0.09878 -0.0882,0 -0.23989,0 -0.26458,-0.0035 -0.11289,-0.01411 -0.18698,-0.123473 -0.18698,-0.236362 0,-0.01411 0,-0.09525 0.06,-0.165805 0.13758,0.09878 0.28222,0.109361 0.34925,0.109361 0.32808,0 0.5715,-0.243417 0.5715,-0.515056 0,-0.130528 -0.0564,-0.261056 -0.14464,-0.342195 0.127,-0.119944 0.254,-0.137583 0.3175,-0.137583 0,0 0.0247,0 0.0353,0.0035 -0.0388,0.01411 -0.0564,0.05292 -0.0564,0.09525 0,0.05997 0.0459,0.102305 0.10231,0.102305 0.0353,0 0.1023,-0.02469 0.1023,-0.105833 z m -0.62089,0.381 c 0,0.09525 -0.004,0.208139 -0.0564,0.296334 -0.0282,0.04233 -0.10936,0.141111 -0.25047,0.141111 -0.30692,0 -0.30692,-0.352778 -0.30692,-0.433917 0,-0.09525 0.004,-0.208139 0.0564,-0.296334 0.0282,-0.04233 0.10936,-0.141111 0.25048,-0.141111 0.30691,0 0.30691,0.352778 0.30691,0.433917 z m 0.38806,1.322918 c 0,0.1905 -0.25047,0.366889 -0.5962,0.366889 -0.3563,0 -0.59972,-0.179917 -0.59972,-0.366889 0,-0.162278 0.13406,-0.292806 0.28928,-0.303389 h 0.20814 c 0.30339,0 0.6985,0 0.6985,0.303389 z"
         style="font-size:3.52778px;stroke-width:0.264583"
         id="path1764" />
      <path
         d="m 107.64791,28.578937 c 0,-0.03528 -0.0282,-0.04233 -0.0459,-0.04233 -0.0318,0 -0.0388,0.02117 -0.0459,0.04939 -0.12347,0.363361 -0.44097,0.363361 -0.47625,0.363361 -0.17639,0 -0.3175,-0.105833 -0.39864,-0.236361 -0.10583,-0.169334 -0.10583,-0.402167 -0.10583,-0.529167 h 0.98425 c 0.0776,0 0.0882,0 0.0882,-0.07408 0,-0.34925 -0.1905,-0.691444 -0.63147,-0.691444 -0.40922,0 -0.73378,0.363361 -0.73378,0.804333 0,0.472723 0.37042,0.814918 0.77611,0.814918 0.43039,0 0.58914,-0.391584 0.58914,-0.458612 z m -0.23283,-0.469195 h -0.83609 c 0.0212,-0.525639 0.3175,-0.613833 0.43745,-0.613833 0.36336,0 0.39864,0.47625 0.39864,0.613833 z"
         style="font-size:3.52778px;stroke-width:0.264583"
         id="path1766" />
      <path
         d="m 109.03432,27.654659 c 0,-0.112889 -0.10936,-0.215195 -0.26105,-0.215195 -0.25753,0 -0.38453,0.236362 -0.43392,0.388056 v -0.388056 l -0.49036,0.03881 v 0.109361 c 0.24694,0 0.27516,0.02469 0.27516,0.197556 v 0.945445 c 0,0.15875 -0.0388,0.15875 -0.27516,0.15875 v 0.109361 l 0.40216,-0.01058 c 0.14112,0 0.30692,0 0.44803,0.01058 v -0.109361 h -0.0741 c -0.26106,0 -0.26811,-0.03881 -0.26811,-0.165806 v -0.543278 c 0,-0.34925 0.14816,-0.663223 0.41628,-0.663223 0.0247,0 0.0318,0 0.0388,0.0035 -0.0106,0.0035 -0.0811,0.04586 -0.0811,0.137584 0,0.09878 0.0741,0.151694 0.1517,0.151694 0.0635,0 0.15169,-0.04233 0.15169,-0.155222 z"
         style="font-size:3.52778px;stroke-width:0.264583"
         id="path1768" />
      <path
         d="m 110.59712,28.578937 c 0,-0.03528 -0.0282,-0.04233 -0.0459,-0.04233 -0.0318,0 -0.0388,0.02117 -0.0459,0.04939 -0.12347,0.363361 -0.44097,0.363361 -0.47625,0.363361 -0.17639,0 -0.3175,-0.105833 -0.39864,-0.236361 -0.10583,-0.169334 -0.10583,-0.402167 -0.10583,-0.529167 h 0.98425 c 0.0776,0 0.0882,0 0.0882,-0.07408 0,-0.34925 -0.1905,-0.691444 -0.63147,-0.691444 -0.40922,0 -0.73378,0.363361 -0.73378,0.804333 0,0.472723 0.37042,0.814918 0.77611,0.814918 0.43039,0 0.58914,-0.391584 0.58914,-0.458612 z m -0.23283,-0.469195 h -0.83609 c 0.0212,-0.525639 0.3175,-0.613833 0.43745,-0.613833 0.36336,0 0.39864,0.47625 0.39864,0.613833 z"
         style="font-size:3.52778px;stroke-width:0.264583"
         id="path1770" />
      <path
         d="m 112.55856,28.998743 v -0.109361 c -0.24694,0 -0.27516,-0.0247 -0.27516,-0.197556 v -2.141362 l -0.508,0.0388 v 0.109361 c 0.24694,0 0.27516,0.02469 0.27516,0.197556 v 0.762001 c -0.1023,-0.127 -0.254,-0.218723 -0.4445,-0.218723 -0.41628,0 -0.78669,0.345723 -0.78669,0.800806 0,0.448028 0.34572,0.797279 0.74789,0.797279 0.22577,0 0.38452,-0.119945 0.47272,-0.232834 v 0.232834 z m -0.51858,-0.416278 c 0,0.0635 0,0.07056 -0.0388,0.130528 -0.10583,0.169333 -0.26458,0.246944 -0.41627,0.246944 -0.15875,0 -0.28575,-0.09172 -0.37042,-0.225777 -0.0917,-0.144639 -0.10231,-0.345723 -0.10231,-0.490362 0,-0.130528 0.007,-0.342195 0.10936,-0.500945 0.0741,-0.109361 0.20814,-0.225778 0.39864,-0.225778 0.12348,0 0.27164,0.05292 0.381,0.211667 0.0388,0.05997 0.0388,0.06703 0.0388,0.130528 z"
         style="font-size:3.52778px;stroke-width:0.264583"
         id="path1772" />
    </g>
    <g
       aria-label="Level triggered"
       id="text1701"
       style="font-size:3.52778px;line-height:1.25;font-family:'Latin Modern Roman';-inkscape-font-specification:'Latin Modern Roman, ';stroke-width:0.264583">
      <path
         d="m 137.84062,28.264544 c 0,-0.04233 -0.0423,-0.04233 -0.0529,-0.04233 -0.0423,0 -0.0459,0.01058 -0.0706,0.07761 -0.11288,0.313972 -0.26458,0.723194 -0.81491,0.723194 h -0.28575 c -0.10936,0 -0.10936,-0.01058 -0.10936,-0.03528 0,-0.02117 0.0106,-0.05645 0.0141,-0.07761 l 0.47978,-1.919112 c 0.0317,-0.123472 0.0529,-0.15875 0.33866,-0.15875 h 0.0353 c 0.06,0 0.0988,0 0.0988,-0.06703 0,-0.04233 -0.0388,-0.04233 -0.0529,-0.04233 -0.15875,0 -0.32455,0.01058 -0.48683,0.01058 -0.14464,0 -0.29281,-0.01058 -0.43392,-0.01058 -0.0212,0 -0.067,0 -0.067,0.06703 0,0.04233 0.0282,0.04233 0.0952,0.04233 0.10936,0 0.20461,0 0.20461,0.05997 0,0.01058 0,0.01764 -0.0141,0.06703 l -0.47625,1.915585 c -0.0282,0.119944 -0.0494,0.148166 -0.28928,0.148166 -0.0564,0 -0.0952,0 -0.0952,0.06703 0,0.04233 0.0317,0.04233 0.0882,0.04233 h 1.50989 c 0.0776,0 0.0811,-0.0035 0.1023,-0.0635 l 0.26812,-0.758473 z"
         style="font-style:italic;font-variant:normal;font-weight:normal;font-stretch:normal;font-family:'Latin Modern Roman';-inkscape-font-specification:'Latin Modern Roman,  Italic'"
         id="path1705" />
      <path
         d="m 139.32228,28.765488 c 0,-0.01764 -0.0282,-0.05644 -0.0565,-0.05644 -0.0141,0 -0.0176,0.0035 -0.0459,0.03881 -0.26105,0.331611 -0.57503,0.345722 -0.635,0.345722 -0.2293,0 -0.26811,-0.250472 -0.26811,-0.388056 0,-0.134055 0.0353,-0.292806 0.06,-0.388056 h 0.13759 c 0.10583,0 0.34219,-0.01058 0.51153,-0.07761 0.27869,-0.112889 0.27869,-0.342194 0.27869,-0.366889 0,-0.162278 -0.13053,-0.299861 -0.35631,-0.299861 -0.37041,0 -0.87489,0.356306 -0.87489,0.980723 0,0.3175 0.16934,0.617361 0.50448,0.617361 0.45155,0 0.74436,-0.352778 0.74436,-0.405695 z m -0.1517,-0.899583 c 0,0.373944 -0.58208,0.373944 -0.6985,0.373944 h -0.0741 c 0.15169,-0.578556 0.51506,-0.589139 0.55033,-0.589139 0.14112,0 0.22225,0.09525 0.22225,0.215195 z"
         style="font-style:italic;font-variant:normal;font-weight:normal;font-stretch:normal;font-family:'Latin Modern Roman';-inkscape-font-specification:'Latin Modern Roman,  Italic'"
         id="path1707" />
      <path
         d="m 141.03325,27.805932 c 0,-0.123472 -0.0423,-0.232833 -0.14464,-0.232833 -0.0811,0 -0.16933,0.08114 -0.16933,0.162278 0,0.04586 0.0247,0.07055 0.0459,0.09525 0.0847,0.09172 0.0952,0.204611 0.0952,0.278694 0,0.09878 -0.16581,0.984251 -0.5715,0.984251 -0.1905,0 -0.22931,-0.176389 -0.22931,-0.292806 0,-0.204611 0.11289,-0.511528 0.20814,-0.765528 0.0176,-0.05644 0.0388,-0.109361 0.0388,-0.176389 0,-0.176389 -0.11642,-0.28575 -0.26812,-0.28575 -0.32808,0 -0.45155,0.522111 -0.45155,0.543278 0,0.03528 0.0353,0.03528 0.0529,0.03528 0.0459,0 0.0494,-0.0071 0.0635,-0.05645 0.0282,-0.109361 0.12347,-0.4445 0.32808,-0.4445 0.0388,0 0.0776,0.01058 0.0776,0.102306 0,0.08467 -0.0353,0.179916 -0.0847,0.3175 -0.10936,0.299861 -0.17991,0.511528 -0.17991,0.677334 0,0.321028 0.22577,0.423333 0.43391,0.423333 0.59267,0 0.75495,-1.273528 0.75495,-1.365251 z"
         style="font-style:italic;font-variant:normal;font-weight:normal;font-stretch:normal;font-family:'Latin Modern Roman';-inkscape-font-specification:'Latin Modern Roman,  Italic'"
         id="path1709" />
      <path
         d="m 142.56783,28.765488 c 0,-0.01764 -0.0282,-0.05644 -0.0564,-0.05644 -0.0141,0 -0.0176,0.0035 -0.0459,0.03881 -0.26105,0.331611 -0.57502,0.345722 -0.635,0.345722 -0.2293,0 -0.26811,-0.250472 -0.26811,-0.388056 0,-0.134055 0.0353,-0.292806 0.06,-0.388056 h 0.13759 c 0.10583,0 0.34219,-0.01058 0.51153,-0.07761 0.27869,-0.112889 0.27869,-0.342194 0.27869,-0.366889 0,-0.162278 -0.13053,-0.299861 -0.3563,-0.299861 -0.37042,0 -0.87489,0.356306 -0.87489,0.980723 0,0.3175 0.16933,0.617361 0.50447,0.617361 0.45155,0 0.74436,-0.352778 0.74436,-0.405695 z m -0.15169,-0.899583 c 0,0.373944 -0.58209,0.373944 -0.69851,0.373944 h -0.0741 c 0.1517,-0.578556 0.51506,-0.589139 0.55034,-0.589139 0.14111,0 0.22225,0.09525 0.22225,0.215195 z"
         style="font-style:italic;font-variant:normal;font-weight:normal;font-stretch:normal;font-family:'Latin Modern Roman';-inkscape-font-specification:'Latin Modern Roman,  Italic'"
         id="path1711" />
      <path
         d="m 143.52738,28.627905 c 0,-0.03528 -0.0282,-0.03528 -0.0529,-0.03528 -0.0176,0 -0.0388,0 -0.0494,0.01764 l -0.0247,0.0882 c -0.06,0.246944 -0.127,0.395111 -0.22578,0.395111 -0.0917,0 -0.0917,-0.09525 -0.0917,-0.144639 0,-0.02469 0,-0.07761 0.0212,-0.162278 l 0.50447,-2.014362 c 0.004,-0.01058 0.0106,-0.04586 0.0106,-0.04586 0,-0.03175 -0.0212,-0.04233 -0.0494,-0.04233 -0.0106,0 -0.0459,0.0035 -0.0564,0.0071 l -0.34925,0.02822 c -0.0423,0.0035 -0.0811,0.0071 -0.0811,0.07408 0,0.03881 0.0353,0.03881 0.0847,0.03881 0.16933,0 0.17639,0.02469 0.17639,0.05997 0,0.01058 -0.0106,0.05997 -0.0106,0.05997 l -0.44097,1.76389 c -0.004,0.01411 -0.0212,0.08467 -0.0212,0.137583 0,0.186972 0.127,0.3175 0.29633,0.3175 0.13405,0 0.20461,-0.09525 0.25047,-0.183444 0.06,-0.123473 0.10936,-0.349251 0.10936,-0.359834 z"
         style="font-style:italic;font-variant:normal;font-weight:normal;font-stretch:normal;font-family:'Latin Modern Roman';-inkscape-font-specification:'Latin Modern Roman,  Italic'"
         id="path1713" />
      <path
         d="m 145.78868,28.694933 v -0.201084 h -0.0882 v 0.194028 c 0,0.261056 -0.10583,0.395112 -0.23636,0.395112 -0.23636,0 -0.23636,-0.321028 -0.23636,-0.381001 v -0.980722 h 0.50447 v -0.109362 h -0.50447 v -0.649111 h -0.0882 c -0.004,0.289278 -0.10936,0.66675 -0.45509,0.680861 v 0.07761 h 0.29986 v 0.973667 c 0,0.433917 0.32809,0.47625 0.45509,0.47625 0.25047,0 0.34925,-0.250472 0.34925,-0.47625 z"
         style="font-size:3.52778px;stroke-width:0.264583"
         id="path1715" />
      <path
         d="m 147.27387,27.788293 c 0,-0.112889 -0.10936,-0.215194 -0.26105,-0.215194 -0.25753,0 -0.38453,0.236361 -0.43392,0.388056 v -0.388056 l -0.49036,0.0388 v 0.109362 c 0.24694,0 0.27517,0.02469 0.27517,0.197555 v 0.945445 c 0,0.15875 -0.0388,0.15875 -0.27517,0.15875 v 0.109362 l 0.40217,-0.01058 c 0.14111,0 0.30691,0 0.44803,0.01058 v -0.109362 h -0.0741 c -0.26105,0 -0.26811,-0.0388 -0.26811,-0.165805 v -0.543278 c 0,-0.349251 0.14817,-0.663223 0.41628,-0.663223 0.0247,0 0.0317,0 0.0388,0.0035 -0.0106,0.0035 -0.0811,0.04586 -0.0811,0.137583 0,0.09878 0.0741,0.151695 0.15169,0.151695 0.0635,0 0.15169,-0.04233 0.15169,-0.155223 z"
         style="font-size:3.52778px;stroke-width:0.264583"
         id="path1717" />
      <path
         d="m 148.24401,29.132378 v -0.109362 c -0.23284,0 -0.24695,-0.01764 -0.24695,-0.155222 v -1.294695 l -0.49389,0.0388 v 0.109362 c 0.22931,0 0.26106,0.02117 0.26106,0.194028 v 0.948972 c 0,0.15875 -0.0388,0.15875 -0.27517,0.15875 v 0.109362 l 0.38806,-0.01058 c 0.12347,0 0.24694,0.0071 0.36689,0.01058 z m -0.19403,-2.13078 c 0,-0.09525 -0.0811,-0.186972 -0.18697,-0.186972 -0.11995,0 -0.1905,0.09878 -0.1905,0.186972 0,0.09525 0.0811,0.186973 0.18697,0.186973 0.11994,0 0.1905,-0.09878 0.1905,-0.186973 z"
         style="font-size:3.52778px;stroke-width:0.264583"
         id="path1719" />
      <path
         d="m 150.06434,27.707154 c 0,-0.05997 -0.0423,-0.172861 -0.17992,-0.172861 -0.0705,0 -0.22577,0.02117 -0.37394,0.165806 -0.14817,-0.116417 -0.29633,-0.127 -0.37395,-0.127 -0.32808,0 -0.5715,0.243417 -0.5715,0.515056 0,0.155222 0.0776,0.289278 0.16581,0.363361 -0.0459,0.05292 -0.10936,0.169334 -0.10936,0.292806 0,0.109361 0.0459,0.243417 0.15522,0.313972 -0.21167,0.05997 -0.32455,0.211667 -0.32455,0.352778 0,0.254 0.34925,0.448028 0.77964,0.448028 0.41627,0 0.78316,-0.179916 0.78316,-0.455083 0,-0.123473 -0.0494,-0.303389 -0.2293,-0.402167 -0.18698,-0.09878 -0.39159,-0.09878 -0.60678,-0.09878 -0.0882,0 -0.23989,0 -0.26459,-0.0035 -0.11288,-0.01411 -0.18697,-0.123472 -0.18697,-0.236361 0,-0.01411 0,-0.09525 0.06,-0.165806 0.13759,0.09878 0.28223,0.109361 0.34925,0.109361 0.32809,0 0.57151,-0.243416 0.57151,-0.515055 0,-0.130528 -0.0565,-0.261056 -0.14464,-0.342195 0.127,-0.119945 0.254,-0.137584 0.3175,-0.137584 0,0 0.0247,0 0.0353,0.0035 -0.0388,0.01411 -0.0564,0.05292 -0.0564,0.09525 0,0.05997 0.0459,0.102306 0.10231,0.102306 0.0353,0 0.1023,-0.0247 0.1023,-0.105834 z m -0.62089,0.381001 c 0,0.09525 -0.004,0.208139 -0.0564,0.296333 -0.0282,0.04233 -0.10936,0.141111 -0.25048,0.141111 -0.30691,0 -0.30691,-0.352778 -0.30691,-0.433916 0,-0.09525 0.004,-0.20814 0.0564,-0.296334 0.0282,-0.04233 0.10936,-0.141111 0.25047,-0.141111 0.30692,0 0.30692,0.352778 0.30692,0.433917 z m 0.38806,1.322917 c 0,0.1905 -0.25047,0.366889 -0.5962,0.366889 -0.3563,0 -0.59972,-0.179916 -0.59972,-0.366889 0,-0.162278 0.13406,-0.292805 0.28928,-0.303389 h 0.20814 c 0.30339,0 0.6985,0 0.6985,0.303389 z"
         style="font-size:3.52778px;stroke-width:0.264583"
         id="path1721" />
      <path
         d="m 151.82822,27.707154 c 0,-0.05997 -0.0423,-0.172861 -0.17991,-0.172861 -0.0706,0 -0.22578,0.02117 -0.37395,0.165806 -0.14816,-0.116417 -0.29633,-0.127 -0.37394,-0.127 -0.32808,0 -0.5715,0.243417 -0.5715,0.515056 0,0.155222 0.0776,0.289278 0.1658,0.363361 -0.0459,0.05292 -0.10936,0.169334 -0.10936,0.292806 0,0.109361 0.0459,0.243417 0.15523,0.313972 -0.21167,0.05997 -0.32456,0.211667 -0.32456,0.352778 0,0.254 0.34925,0.448028 0.77964,0.448028 0.41628,0 0.78317,-0.179916 0.78317,-0.455083 0,-0.123473 -0.0494,-0.303389 -0.22931,-0.402167 -0.18697,-0.09878 -0.39158,-0.09878 -0.60678,-0.09878 -0.0882,0 -0.23989,0 -0.26458,-0.0035 -0.11289,-0.01411 -0.18697,-0.123472 -0.18697,-0.236361 0,-0.01411 0,-0.09525 0.06,-0.165806 0.13758,0.09878 0.28222,0.109361 0.34925,0.109361 0.32808,0 0.5715,-0.243416 0.5715,-0.515055 0,-0.130528 -0.0565,-0.261056 -0.14464,-0.342195 0.127,-0.119945 0.254,-0.137584 0.3175,-0.137584 0,0 0.0247,0 0.0353,0.0035 -0.0388,0.01411 -0.0564,0.05292 -0.0564,0.09525 0,0.05997 0.0459,0.102306 0.10231,0.102306 0.0353,0 0.1023,-0.0247 0.1023,-0.105834 z m -0.62088,0.381001 c 0,0.09525 -0.004,0.208139 -0.0564,0.296333 -0.0282,0.04233 -0.10936,0.141111 -0.25047,0.141111 -0.30692,0 -0.30692,-0.352778 -0.30692,-0.433916 0,-0.09525 0.004,-0.20814 0.0564,-0.296334 0.0282,-0.04233 0.10936,-0.141111 0.25047,-0.141111 0.30692,0 0.30692,0.352778 0.30692,0.433917 z m 0.38805,1.322917 c 0,0.1905 -0.25047,0.366889 -0.59619,0.366889 -0.35631,0 -0.59973,-0.179916 -0.59973,-0.366889 0,-0.162278 0.13406,-0.292805 0.28928,-0.303389 h 0.20814 c 0.30339,0 0.6985,0 0.6985,0.303389 z"
         style="font-size:3.52778px;stroke-width:0.264583"
         id="path1723" />
      <path
         d="m 153.34516,28.712572 c 0,-0.03528 -0.0282,-0.04233 -0.0459,-0.04233 -0.0317,0 -0.0388,0.02117 -0.0459,0.04939 -0.12347,0.363362 -0.44097,0.363362 -0.47625,0.363362 -0.17639,0 -0.3175,-0.105834 -0.39864,-0.236362 -0.10583,-0.169333 -0.10583,-0.402166 -0.10583,-0.529167 h 0.98425 c 0.0776,0 0.0882,0 0.0882,-0.07408 0,-0.34925 -0.1905,-0.691445 -0.63147,-0.691445 -0.40922,0 -0.73378,0.363362 -0.73378,0.804334 0,0.472723 0.37042,0.814917 0.77611,0.814917 0.43039,0 0.58914,-0.391583 0.58914,-0.458611 z m -0.23283,-0.469195 h -0.83608 c 0.0212,-0.525639 0.3175,-0.613834 0.43744,-0.613834 0.36336,0 0.39864,0.476251 0.39864,0.613834 z"
         style="font-size:3.52778px;stroke-width:0.264583"
         id="path1725" />
      <path
         d="m 154.73158,27.788293 c 0,-0.112889 -0.10937,-0.215194 -0.26106,-0.215194 -0.25753,0 -0.38453,0.236361 -0.43392,0.388056 v -0.388056 l -0.49036,0.0388 v 0.109362 c 0.24695,0 0.27517,0.02469 0.27517,0.197555 v 0.945445 c 0,0.15875 -0.0388,0.15875 -0.27517,0.15875 v 0.109362 l 0.40217,-0.01058 c 0.14111,0 0.30692,0 0.44803,0.01058 v -0.109362 h -0.0741 c -0.26105,0 -0.26811,-0.0388 -0.26811,-0.165805 v -0.543278 c 0,-0.349251 0.14817,-0.663223 0.41628,-0.663223 0.0247,0 0.0318,0 0.0388,0.0035 -0.0106,0.0035 -0.0811,0.04586 -0.0811,0.137583 0,0.09878 0.0741,0.151695 0.15169,0.151695 0.0635,0 0.1517,-0.04233 0.1517,-0.155223 z"
         style="font-size:3.52778px;stroke-width:0.264583"
         id="path1727" />
      <path
         d="m 156.29438,28.712572 c 0,-0.03528 -0.0282,-0.04233 -0.0459,-0.04233 -0.0318,0 -0.0388,0.02117 -0.0459,0.04939 -0.12347,0.363362 -0.44097,0.363362 -0.47625,0.363362 -0.17639,0 -0.3175,-0.105834 -0.39864,-0.236362 -0.10583,-0.169333 -0.10583,-0.402166 -0.10583,-0.529167 h 0.98425 c 0.0776,0 0.0882,0 0.0882,-0.07408 0,-0.34925 -0.1905,-0.691445 -0.63148,-0.691445 -0.40922,0 -0.73378,0.363362 -0.73378,0.804334 0,0.472723 0.37042,0.814917 0.77612,0.814917 0.43039,0 0.58914,-0.391583 0.58914,-0.458611 z m -0.23284,-0.469195 h -0.83608 c 0.0212,-0.525639 0.3175,-0.613834 0.43744,-0.613834 0.36336,0 0.39864,0.476251 0.39864,0.613834 z"
         style="font-size:3.52778px;stroke-width:0.264583"
         id="path1729" />
      <path
         d="m 158.25582,29.132378 v -0.109362 c -0.24695,0 -0.27517,-0.02469 -0.27517,-0.197555 v -2.141363 l -0.508,0.03881 v 0.109361 c 0.24694,0 0.27516,0.02469 0.27516,0.197556 v 0.762 c -0.1023,-0.127 -0.254,-0.218722 -0.4445,-0.218722 -0.41627,0 -0.78669,0.345722 -0.78669,0.800806 0,0.448028 0.34572,0.797278 0.74789,0.797278 0.22578,0 0.38453,-0.119944 0.47272,-0.232833 v 0.232833 z M 157.73723,28.7161 c 0,0.0635 0,0.07055 -0.0388,0.130527 -0.10584,0.169334 -0.26459,0.246945 -0.41628,0.246945 -0.15875,0 -0.28575,-0.09172 -0.37042,-0.225778 -0.0917,-0.144639 -0.1023,-0.345722 -0.1023,-0.490361 0,-0.130528 0.007,-0.342195 0.10936,-0.500945 0.0741,-0.109361 0.20814,-0.225778 0.39864,-0.225778 0.12347,0 0.27163,0.05292 0.381,0.211667 0.0388,0.05997 0.0388,0.06703 0.0388,0.130528 z"
         style="font-size:3.52778px;stroke-width:0.264583"
         id="path1731" />
    </g>
  </g>
</svg>
