<?xml version="1.0" encoding="UTF-8" standalone="no"?>
<svg
   xmlns:dc="http://purl.org/dc/elements/1.1/"
   xmlns:cc="http://creativecommons.org/ns#"
   xmlns:rdf="http://www.w3.org/1999/02/22-rdf-syntax-ns#"
   xmlns:svg="http://www.w3.org/2000/svg"
   xmlns="http://www.w3.org/2000/svg"
   xmlns:sodipodi="http://sodipodi.sourceforge.net/DTD/sodipodi-0.dtd"
   xmlns:inkscape="http://www.inkscape.org/namespaces/inkscape"
   width="146.23828mm"
   height="75.796471mm"
   viewBox="0 0 146.23828 75.796471"
   version="1.1"
   id="svg8"
   inkscape:version="1.0.1 (3bc2e813f5, 2020-09-07)"
   sodipodi:docname="PLA.svg">
  <defs
     id="defs2">
    <marker
       style="overflow:visible"
       id="marker1423"
       refX="0"
       refY="0"
       orient="auto"
       inkscape:stockid="Arrow1Mend"
       inkscape:isstock="true">
      <path
         transform="matrix(-0.4,0,0,-0.4,-4,0)"
         style="fill:#000000;fill-opacity:1;fill-rule:evenodd;stroke:#000000;stroke-width:1pt;stroke-opacity:1"
         d="M 0,0 5,-5 -12.5,0 5,5 Z"
         id="path1421" />
    </marker>
    <marker
       style="overflow:visible"
       id="marker1375"
       refX="0"
       refY="0"
       orient="auto"
       inkscape:stockid="Arrow1Mend"
       inkscape:isstock="true"
       inkscape:collect="always">
      <path
         transform="matrix(-0.4,0,0,-0.4,-4,0)"
         style="fill:#000000;fill-opacity:1;fill-rule:evenodd;stroke:#000000;stroke-width:1pt;stroke-opacity:1"
         d="M 0,0 5,-5 -12.5,0 5,5 Z"
         id="path1373" />
    </marker>
    <marker
       style="overflow:visible"
       id="marker1333"
       refX="0"
       refY="0"
       orient="auto"
       inkscape:stockid="Arrow1Mend"
       inkscape:isstock="true"
       inkscape:collect="always">
      <path
         transform="matrix(-0.4,0,0,-0.4,-4,0)"
         style="fill:#000000;fill-opacity:1;fill-rule:evenodd;stroke:#000000;stroke-width:1pt;stroke-opacity:1"
         d="M 0,0 5,-5 -12.5,0 5,5 Z"
         id="path1331" />
    </marker>
    <marker
       style="overflow:visible"
       id="Arrow1Mend"
       refX="0"
       refY="0"
       orient="auto"
       inkscape:stockid="Arrow1Mend"
       inkscape:isstock="true"
       inkscape:collect="always">
      <path
         transform="matrix(-0.4,0,0,-0.4,-4,0)"
         style="fill:#000000;fill-opacity:1;fill-rule:evenodd;stroke:#000000;stroke-width:1pt;stroke-opacity:1"
         d="M 0,0 5,-5 -12.5,0 5,5 Z"
         id="path915" />
    </marker>
    <marker
       style="overflow:visible"
       id="Arrow1Mend-3"
       refX="0"
       refY="0"
       orient="auto"
       inkscape:stockid="Arrow1Mend"
       inkscape:isstock="true">
      <path
         transform="matrix(-0.4,0,0,-0.4,-4,0)"
         style="fill:#000000;fill-opacity:1;fill-rule:evenodd;stroke:#000000;stroke-width:1pt;stroke-opacity:1"
         d="M 0,0 5,-5 -12.5,0 5,5 Z"
         id="path915-6" />
    </marker>
    <marker
       style="overflow:visible"
       id="Arrow1Mend-6"
       refX="0"
       refY="0"
       orient="auto"
       inkscape:stockid="Arrow1Mend"
       inkscape:isstock="true">
      <path
         transform="matrix(-0.4,0,0,-0.4,-4,0)"
         style="fill:#000000;fill-opacity:1;fill-rule:evenodd;stroke:#000000;stroke-width:1pt;stroke-opacity:1"
         d="M 0,0 5,-5 -12.5,0 5,5 Z"
         id="path915-1" />
    </marker>
    <marker
       style="overflow:visible"
       id="marker1333-7"
       refX="0"
       refY="0"
       orient="auto"
       inkscape:stockid="Arrow1Mend"
       inkscape:isstock="true"
       inkscape:collect="always">
      <path
         transform="matrix(-0.4,0,0,-0.4,-4,0)"
         style="fill:#000000;fill-opacity:1;fill-rule:evenodd;stroke:#000000;stroke-width:1pt;stroke-opacity:1"
         d="M 0,0 5,-5 -12.5,0 5,5 Z"
         id="path1331-4" />
    </marker>
    <marker
       style="overflow:visible"
       id="marker1375-2"
       refX="0"
       refY="0"
       orient="auto"
       inkscape:stockid="Arrow1Mend"
       inkscape:isstock="true"
       inkscape:collect="always">
      <path
         transform="matrix(-0.4,0,0,-0.4,-4,0)"
         style="fill:#000000;fill-opacity:1;fill-rule:evenodd;stroke:#000000;stroke-width:1pt;stroke-opacity:1"
         d="M 0,0 5,-5 -12.5,0 5,5 Z"
         id="path1373-2" />
    </marker>
    <marker
       style="overflow:visible"
       id="marker1423-9"
       refX="0"
       refY="0"
       orient="auto"
       inkscape:stockid="Arrow1Mend"
       inkscape:isstock="true">
      <path
         transform="matrix(-0.4,0,0,-0.4,-4,0)"
         style="fill:#000000;fill-opacity:1;fill-rule:evenodd;stroke:#000000;stroke-width:1pt;stroke-opacity:1"
         d="M 0,0 5,-5 -12.5,0 5,5 Z"
         id="path1421-7" />
    </marker>
    <marker
       style="overflow:visible"
       id="marker1333-4"
       refX="0"
       refY="0"
       orient="auto"
       inkscape:stockid="Arrow1Mend"
       inkscape:isstock="true"
       inkscape:collect="always">
      <path
         transform="matrix(-0.4,0,0,-0.4,-4,0)"
         style="fill:#000000;fill-opacity:1;fill-rule:evenodd;stroke:#000000;stroke-width:1pt;stroke-opacity:1"
         d="M 0,0 5,-5 -12.5,0 5,5 Z"
         id="path1331-8" />
    </marker>
    <marker
       style="overflow:visible"
       id="marker1375-27"
       refX="0"
       refY="0"
       orient="auto"
       inkscape:stockid="Arrow1Mend"
       inkscape:isstock="true"
       inkscape:collect="always">
      <path
         transform="matrix(-0.4,0,0,-0.4,-4,0)"
         style="fill:#000000;fill-opacity:1;fill-rule:evenodd;stroke:#000000;stroke-width:1pt;stroke-opacity:1"
         d="M 0,0 5,-5 -12.5,0 5,5 Z"
         id="path1373-0" />
    </marker>
    <marker
       style="overflow:visible"
       id="marker1423-0"
       refX="0"
       refY="0"
       orient="auto"
       inkscape:stockid="Arrow1Mend"
       inkscape:isstock="true">
      <path
         transform="matrix(-0.4,0,0,-0.4,-4,0)"
         style="fill:#000000;fill-opacity:1;fill-rule:evenodd;stroke:#000000;stroke-width:1pt;stroke-opacity:1"
         d="M 0,0 5,-5 -12.5,0 5,5 Z"
         id="path1421-77" />
    </marker>
    <marker
       style="overflow:visible"
       id="marker1333-47"
       refX="0"
       refY="0"
       orient="auto"
       inkscape:stockid="Arrow1Mend"
       inkscape:isstock="true"
       inkscape:collect="always">
      <path
         transform="matrix(-0.4,0,0,-0.4,-4,0)"
         style="fill:#000000;fill-opacity:1;fill-rule:evenodd;stroke:#000000;stroke-width:1pt;stroke-opacity:1"
         d="M 0,0 5,-5 -12.5,0 5,5 Z"
         id="path1331-9" />
    </marker>
    <marker
       style="overflow:visible"
       id="marker1375-8"
       refX="0"
       refY="0"
       orient="auto"
       inkscape:stockid="Arrow1Mend"
       inkscape:isstock="true"
       inkscape:collect="always">
      <path
         transform="matrix(-0.4,0,0,-0.4,-4,0)"
         style="fill:#000000;fill-opacity:1;fill-rule:evenodd;stroke:#000000;stroke-width:1pt;stroke-opacity:1"
         d="M 0,0 5,-5 -12.5,0 5,5 Z"
         id="path1373-9" />
    </marker>
    <marker
       style="overflow:visible"
       id="marker1423-93"
       refX="0"
       refY="0"
       orient="auto"
       inkscape:stockid="Arrow1Mend"
       inkscape:isstock="true">
      <path
         transform="matrix(-0.4,0,0,-0.4,-4,0)"
         style="fill:#000000;fill-opacity:1;fill-rule:evenodd;stroke:#000000;stroke-width:1pt;stroke-opacity:1"
         d="M 0,0 5,-5 -12.5,0 5,5 Z"
         id="path1421-6" />
    </marker>
  </defs>
  <sodipodi:namedview
     id="base"
     pagecolor="#ffffff"
     bordercolor="#666666"
     borderopacity="1.0"
     inkscape:pageopacity="0.0"
     inkscape:pageshadow="2"
     inkscape:zoom="1.4"
     inkscape:cx="217.99886"
     inkscape:cy="125.68879"
     inkscape:document-units="mm"
     inkscape:current-layer="layer1"
     inkscape:document-rotation="0"
     showgrid="false"
     fit-margin-left="10"
     fit-margin-right="10"
     fit-margin-top="0"
     fit-margin-bottom="0"
     inkscape:window-width="1920"
     inkscape:window-height="1137"
     inkscape:window-x="-8"
     inkscape:window-y="-8"
     inkscape:window-maximized="1" />
  <metadata
     id="metadata5">
    <rdf:RDF>
      <cc:Work
         rdf:about="">
        <dc:format>image/svg+xml</dc:format>
        <dc:type
           rdf:resource="http://purl.org/dc/dcmitype/StillImage" />
        <dc:title></dc:title>
      </cc:Work>
    </rdf:RDF>
  </metadata>
  <g
     inkscape:label="Layer 1"
     inkscape:groupmode="layer"
     id="layer1"
     transform="translate(-23.618161,-9.1044331)">
    <rect
       style="fill:none;stroke:#000000;stroke-width:0.5;stroke-linecap:square;stroke-miterlimit:4;stroke-dasharray:none;stop-color:#000000"
       id="rect833"
       width="20.847023"
       height="34.344131"
       x="51.983925"
       y="9.3544331" />
    <rect
       style="fill:none;stroke:#000000;stroke-width:0.5;stroke-linecap:square;stroke-miterlimit:4;stroke-dasharray:none;stop-color:#000000"
       id="rect833-6"
       width="34.197056"
       height="34.197056"
       x="80.655304"
       y="9.4279718" />
    <rect
       style="fill:none;stroke:#000000;stroke-width:0.499999;stroke-linecap:square;stroke-miterlimit:4;stroke-dasharray:none;stop-color:#000000"
       id="rect833-6-1"
       width="34.197056"
       height="34.197056"
       x="80.655304"
       y="50.453846" />
    <rect
       style="fill:none;stroke:#000000;stroke-width:0.499999;stroke-linecap:square;stroke-miterlimit:4;stroke-dasharray:none;stop-color:#000000"
       id="rect833-1"
       width="20.847023"
       height="34.344131"
       x="124.34042"
       y="50.30677" />
    <g
       aria-label="Buffer
Inverter"
       transform="rotate(-90)"
       id="text882"
       style="font-size:4.9389px;line-height:1.25;font-family:'Latin Modern Roman';-inkscape-font-specification:'Latin Modern Roman, ';stroke-width:0.264583">
      <path
         d="m -29.609237,60.006231 c 0,-0.429685 -0.40499,-0.800102 -0.953208,-0.859369 0.479074,-0.09384 0.819858,-0.409929 0.819858,-0.775407 0,-0.429684 -0.454379,-0.834674 -1.096436,-0.834674 h -1.807638 v 0.153106 h 0.118534 c 0.380295,0 0.390173,0.05433 0.390173,0.232128 v 2.6028 c 0,0.177801 -0.0099,0.232129 -0.390173,0.232129 h -0.118534 v 0.153105 h 1.936049 c 0.656874,0 1.101375,-0.439562 1.101375,-0.903818 z m -0.612424,-1.634776 c 0,0.316089 -0.242006,0.730957 -0.790224,0.730957 h -0.71614 v -1.214969 c 0,-0.162984 0.0099,-0.197556 0.242006,-0.197556 h 0.612424 c 0.479073,0 0.651934,0.419806 0.651934,0.681568 z m 0.118534,1.629837 c 0,0.350662 -0.256823,0.755652 -0.76553,0.755652 h -0.617362 c -0.232128,0 -0.242006,-0.03457 -0.242006,-0.197556 v -1.34832 h 0.928513 c 0.488951,0 0.696385,0.459318 0.696385,0.790224 z"
         style="text-align:center;text-anchor:middle;stroke-width:0.264583"
         id="path2321" />
      <path
         d="m -26.685417,60.910049 v -0.153105 c -0.345723,0 -0.385234,-0.03457 -0.385234,-0.276579 v -1.753309 l -0.726018,0.05433 v 0.153105 c 0.345723,0 0.385234,0.03457 0.385234,0.276579 v 0.879124 c 0,0.429684 -0.237067,0.76553 -0.597607,0.76553 -0.414868,0 -0.434623,-0.232129 -0.434623,-0.488952 v -1.639714 l -0.726018,0.05433 v 0.153105 c 0.385234,0 0.385234,0.01482 0.385234,0.454379 v 0.740835 c 0,0.385234 0,0.834674 0.750713,0.834674 0.276578,0 0.49389,-0.138289 0.637118,-0.444501 v 0.444501 z"
         style="text-align:center;text-anchor:middle;stroke-width:0.264583"
         id="path2323" />
      <path
         d="m -23.480072,57.773848 c 0,-0.1778 -0.172862,-0.345723 -0.44944,-0.345723 -0.291395,0 -0.508707,0.187678 -0.533401,0.207434 -0.143228,-0.18274 -0.419807,-0.207434 -0.553157,-0.207434 -0.469195,0 -1.042108,0.256823 -1.042108,0.790224 v 0.563035 h -0.390173 v 0.153105 h 0.390173 v 1.600204 c 0,0.222251 -0.05433,0.222251 -0.385234,0.222251 v 0.153105 l 0.548218,-0.01482 0.548218,0.01482 v -0.153105 c -0.330907,0 -0.385234,0 -0.385234,-0.222251 v -1.600204 h 1.037169 v 1.600204 c 0,0.222251 -0.05433,0.222251 -0.385235,0.222251 v 0.153105 l 0.563035,-0.01482 c 0.197556,0 0.429684,0 0.62724,0.01482 v -0.153105 h -0.103717 c -0.365478,0 -0.375356,-0.05433 -0.375356,-0.232129 v -1.590326 h 0.567973 v -0.153105 h -0.58279 v -0.572913 c 0,-0.439562 0.237067,-0.67169 0.459318,-0.67169 0.01482,0 0.0889,0 0.162984,0.03457 -0.05927,0.01976 -0.148167,0.08396 -0.148167,0.207434 0,0.113595 0.07902,0.212373 0.212372,0.212373 0.143228,0 0.217312,-0.09878 0.217312,-0.217312 z m -1.160642,-0.143228 c -0.07902,0.01482 -0.1778,0.07902 -0.1778,0.217311 0,0.02963 0.0049,0.153106 0.138289,0.197556 -0.01482,0.06421 -0.01482,0.108656 -0.01482,0.167923 v 0.567974 h -1.051986 v -0.558096 c 0,-0.479073 0.40499,-0.686507 0.726018,-0.686507 0.242006,0 0.380295,0.09384 0.380295,0.09384 z"
         style="text-align:center;text-anchor:middle;stroke-width:0.264583"
         id="path2325" />
      <path
         d="m -21.652687,60.32232 c 0,-0.04939 -0.03951,-0.05927 -0.06421,-0.05927 -0.04445,0 -0.05433,0.02963 -0.06421,0.06914 -0.172862,0.508707 -0.617363,0.508707 -0.666752,0.508707 -0.246945,0 -0.444501,-0.148167 -0.558096,-0.330906 -0.148167,-0.237068 -0.148167,-0.563035 -0.148167,-0.740835 h 1.377953 c 0.108656,0 0.123473,0 0.123473,-0.103717 0,-0.488951 -0.266701,-0.968025 -0.884063,-0.968025 -0.572913,0 -1.027291,0.508707 -1.027291,1.126069 0,0.661813 0.518584,1.140886 1.086558,1.140886 0.602545,0 0.824796,-0.548218 0.824796,-0.642057 z m -0.325967,-0.656873 h -1.17052 c 0.02963,-0.735896 0.444501,-0.859369 0.612424,-0.859369 0.508707,0 0.558096,0.666752 0.558096,0.859369 z"
         style="text-align:center;text-anchor:middle;stroke-width:0.264583"
         id="path2327" />
      <path
         d="m -19.711708,59.028329 c 0,-0.158045 -0.153105,-0.301273 -0.365478,-0.301273 -0.36054,0 -0.53834,0.330906 -0.607485,0.543279 v -0.543279 l -0.686507,0.05433 v 0.153105 c 0.345723,0 0.385234,0.03457 0.385234,0.276579 v 1.323625 c 0,0.222251 -0.05433,0.222251 -0.385234,0.222251 v 0.153105 l 0.563035,-0.01482 c 0.197556,0 0.429684,0 0.62724,0.01482 v -0.153105 h -0.103717 c -0.365479,0 -0.375356,-0.05433 -0.375356,-0.232129 v -0.76059 c 0,-0.488951 0.207433,-0.928514 0.58279,-0.928514 0.03457,0 0.04445,0 0.05433,0.0049 -0.01482,0.0049 -0.113595,0.06421 -0.113595,0.192617 0,0.13829 0.103717,0.212373 0.212373,0.212373 0.0889,0 0.212372,-0.05927 0.212372,-0.217311 z"
         style="text-align:center;text-anchor:middle;stroke-width:0.264583"
         id="path2329" />
      <path
         d="m -33.073862,67.083674 v -0.153105 h -0.128411 c -0.390173,0 -0.40499,-0.05433 -0.40499,-0.232129 v -2.6028 c 0,-0.1778 0.01482,-0.232128 0.40499,-0.232128 h 0.128411 v -0.153106 c -0.172861,0.01482 -0.563034,0.01482 -0.750713,0.01482 -0.192617,0 -0.58279,0 -0.755651,-0.01482 v 0.153106 h 0.128411 c 0.390173,0 0.40499,0.05433 0.40499,0.232128 v 2.6028 c 0,0.177801 -0.01482,0.232129 -0.40499,0.232129 h -0.128411 v 0.153105 c 0.172861,-0.01482 0.563034,-0.01482 0.750713,-0.01482 0.192617,0 0.58279,0 0.755651,0.01482 z"
         style="text-align:center;text-anchor:middle;stroke-width:0.264583"
         id="path2331" />
      <path
         d="m -30.29327,67.083674 v -0.153105 c -0.256823,0 -0.380295,0 -0.385234,-0.148167 v -0.94333 c 0,-0.424746 0,-0.577852 -0.153106,-0.755652 -0.06914,-0.08396 -0.232129,-0.182739 -0.518585,-0.182739 -0.360539,0 -0.592668,0.212372 -0.730957,0.518584 v -0.518584 l -0.696385,0.05433 v 0.153105 c 0.345723,0 0.385234,0.03457 0.385234,0.276579 v 1.323625 c 0,0.222251 -0.05433,0.222251 -0.385234,0.222251 v 0.153105 l 0.558096,-0.01482 0.553157,0.01482 v -0.153105 c -0.330907,0 -0.385235,0 -0.385235,-0.222251 v -0.90876 c 0,-0.513645 0.350662,-0.790224 0.666752,-0.790224 0.311151,0 0.365479,0.266701 0.365479,0.548218 v 1.150764 c 0,0.222251 -0.05433,0.222251 -0.385235,0.222251 v 0.153105 l 0.558096,-0.01482 z"
         style="text-align:center;text-anchor:middle;stroke-width:0.264583"
         id="path2333" />
      <path
         d="m -27.818891,65.108114 v -0.153105 c -0.113595,0.0099 -0.256823,0.01482 -0.370418,0.01482 l -0.429684,-0.01482 v 0.153105 c 0.182739,0.0049 0.237067,0.118534 0.237067,0.212373 0,0.04445 -0.0099,0.06421 -0.02963,0.118534 l -0.503768,1.259419 -0.553157,-1.377953 c -0.02963,-0.06421 -0.02963,-0.08396 -0.02963,-0.08396 0,-0.128412 0.192617,-0.128412 0.281517,-0.128412 V 64.95501 l -0.53834,0.01482 c -0.13335,0 -0.330906,-0.0049 -0.479073,-0.01482 v 0.153105 c 0.31115,0 0.330906,0.02963 0.395112,0.18274 l 0.711201,1.753309 c 0.02963,0.06915 0.03951,0.09384 0.103717,0.09384 0.06421,0 0.08396,-0.04445 0.103717,-0.09384 l 0.646996,-1.605142 c 0.04445,-0.113595 0.128411,-0.325968 0.454379,-0.330907 z"
         style="text-align:center;text-anchor:middle;stroke-width:0.264583"
         id="path2335" />
      <path
         d="m -25.808768,66.495945 c 0,-0.04939 -0.03951,-0.05927 -0.06421,-0.05927 -0.04445,0 -0.05433,0.02963 -0.06421,0.06914 -0.172861,0.508707 -0.617362,0.508707 -0.666751,0.508707 -0.246945,0 -0.444501,-0.148167 -0.558096,-0.330906 -0.148167,-0.237068 -0.148167,-0.563035 -0.148167,-0.740835 h 1.377953 c 0.108656,0 0.123473,0 0.123473,-0.103717 0,-0.488951 -0.266701,-0.968025 -0.884063,-0.968025 -0.572913,0 -1.027292,0.508707 -1.027292,1.126069 0,0.661813 0.518585,1.140886 1.086558,1.140886 0.602546,0 0.824797,-0.548218 0.824797,-0.642057 z m -0.325968,-0.656873 h -1.170519 c 0.02963,-0.735896 0.444501,-0.859369 0.612424,-0.859369 0.508706,0 0.558095,0.666752 0.558095,0.859369 z"
         style="text-align:center;text-anchor:middle;stroke-width:0.264583"
         id="path2337" />
      <path
         d="m -23.867789,65.201954 c 0,-0.158045 -0.153106,-0.301273 -0.365478,-0.301273 -0.36054,0 -0.538341,0.330906 -0.607485,0.543279 v -0.543279 l -0.686507,0.05433 v 0.153105 c 0.345723,0 0.385234,0.03457 0.385234,0.276579 v 1.323625 c 0,0.222251 -0.05433,0.222251 -0.385234,0.222251 v 0.153105 l 0.563034,-0.01482 c 0.197556,0 0.429685,0 0.627241,0.01482 v -0.153105 h -0.103717 c -0.365479,0 -0.375357,-0.05433 -0.375357,-0.232129 v -0.76059 c 0,-0.488951 0.207434,-0.928514 0.582791,-0.928514 0.03457,0 0.04445,0 0.05433,0.0049 -0.01482,0.0049 -0.113594,0.06421 -0.113594,0.192617 0,0.13829 0.103717,0.212373 0.212372,0.212373 0.0889,0 0.212373,-0.05927 0.212373,-0.217311 z"
         style="text-align:center;text-anchor:middle;stroke-width:0.264583"
         id="path2339" />
      <path
         d="m -22.089794,66.471251 v -0.281517 h -0.123472 v 0.271639 c 0,0.365479 -0.148167,0.553157 -0.330906,0.553157 -0.330907,0 -0.330907,-0.44944 -0.330907,-0.533401 v -1.373015 h 0.706263 v -0.153105 h -0.706263 v -0.908758 h -0.123472 c -0.0049,0.40499 -0.153106,0.933452 -0.637118,0.953208 v 0.108655 h 0.419806 v 1.363137 c 0,0.607485 0.459318,0.666751 0.637118,0.666751 0.350662,0 0.488951,-0.350662 0.488951,-0.666751 z"
         style="text-align:center;text-anchor:middle;stroke-width:0.264583"
         id="path2341" />
      <path
         d="m -19.758633,66.495945 c 0,-0.04939 -0.03951,-0.05927 -0.06421,-0.05927 -0.04445,0 -0.05433,0.02963 -0.06421,0.06914 -0.172862,0.508707 -0.617363,0.508707 -0.666752,0.508707 -0.246945,0 -0.444501,-0.148167 -0.558095,-0.330906 -0.148167,-0.237068 -0.148167,-0.563035 -0.148167,-0.740835 h 1.377953 c 0.108656,0 0.123472,0 0.123472,-0.103717 0,-0.488951 -0.2667,-0.968025 -0.884063,-0.968025 -0.572912,0 -1.027291,0.508707 -1.027291,1.126069 0,0.661813 0.518584,1.140886 1.086558,1.140886 0.602546,0 0.824796,-0.548218 0.824796,-0.642057 z M -20.0846,65.839072 h -1.170519 c 0.02963,-0.735896 0.444501,-0.859369 0.612423,-0.859369 0.508707,0 0.558096,0.666752 0.558096,0.859369 z"
         style="text-align:center;text-anchor:middle;stroke-width:0.264583"
         id="path2343" />
      <path
         d="m -17.817653,65.201954 c 0,-0.158045 -0.153106,-0.301273 -0.365479,-0.301273 -0.36054,0 -0.53834,0.330906 -0.607485,0.543279 v -0.543279 l -0.686507,0.05433 v 0.153105 c 0.345723,0 0.385235,0.03457 0.385235,0.276579 v 1.323625 c 0,0.222251 -0.05433,0.222251 -0.385235,0.222251 v 0.153105 l 0.563035,-0.01482 c 0.197556,0 0.429684,0 0.62724,0.01482 v -0.153105 h -0.103717 c -0.365478,0 -0.375356,-0.05433 -0.375356,-0.232129 v -0.76059 c 0,-0.488951 0.207434,-0.928514 0.58279,-0.928514 0.03457,0 0.04445,0 0.05433,0.0049 -0.01482,0.0049 -0.113595,0.06421 -0.113595,0.192617 0,0.13829 0.103717,0.212373 0.212373,0.212373 0.0889,0 0.212373,-0.05927 0.212373,-0.217311 z"
         style="text-align:center;text-anchor:middle;stroke-width:0.264583"
         id="path2345" />
    </g>
    <g
       aria-label="Fixed AND
Array"
       id="text888"
       style="font-size:4.9389px;line-height:1.25;font-family:'Latin Modern Roman';-inkscape-font-specification:'Latin Modern Roman, ';text-align:center;text-anchor:middle;stroke-width:0.264583">
      <path
         d="m 88.971507,21.75429 -0.138289,-1.111252 h -2.711456 v 0.153106 h 0.118533 c 0.380296,0 0.390173,0.05433 0.390173,0.232128 v 2.587983 c 0,0.177801 -0.0099,0.232129 -0.390173,0.232129 h -0.118533 v 0.153106 c 0.172861,-0.01482 0.558095,-0.01482 0.750713,-0.01482 0.202494,0 0.651934,0 0.829735,0.01482 v -0.153106 h -0.162984 c -0.469195,0 -0.469195,-0.06421 -0.469195,-0.237067 v -1.21497 h 0.424745 c 0.474134,0 0.523523,0.158045 0.523523,0.577851 h 0.123473 V 21.66539 h -0.123473 c 0,0.414868 -0.04939,0.577851 -0.523523,0.577851 H 87.070031 V 20.9937 c 0,-0.162984 0.0099,-0.197556 0.242006,-0.197556 h 0.592668 c 0.740835,0 0.864307,0.276578 0.94333,0.958146 z"
         style="text-align:center;text-anchor:middle;stroke-width:0.264583"
         id="path2355" />
      <path
         d="m 90.403787,24.00149 v -0.153106 c -0.325967,0 -0.345723,-0.02469 -0.345723,-0.217312 v -1.812576 l -0.691446,0.05433 v 0.153106 c 0.321029,0 0.365479,0.02963 0.365479,0.271639 v 1.328564 c 0,0.222251 -0.05433,0.222251 -0.385234,0.222251 v 0.153106 l 0.543279,-0.01482 c 0.172861,0 0.345723,0.0099 0.513645,0.01482 z m -0.271639,-2.983096 c 0,-0.13335 -0.113595,-0.261762 -0.261762,-0.261762 -0.167922,0 -0.2667,0.13829 -0.2667,0.261762 0,0.13335 0.113594,0.261762 0.261761,0.261762 0.167923,0 0.266701,-0.138289 0.266701,-0.261762 z"
         style="text-align:center;text-anchor:middle;stroke-width:0.264583"
         id="path2357" />
      <path
         d="m 93.105365,24.00149 v -0.153106 c -0.266701,0 -0.355601,-0.0099 -0.469196,-0.153106 l -0.661812,-0.85443 c 0.148167,-0.187678 0.335845,-0.429684 0.454379,-0.558096 0.153106,-0.1778 0.3556,-0.251883 0.587729,-0.256822 v -0.153106 c -0.128412,0.0099 -0.276579,0.01482 -0.40499,0.01482 -0.148167,0 -0.409929,-0.0099 -0.474134,-0.01482 v 0.153106 c 0.103716,0.0099 0.143228,0.07408 0.143228,0.153106 0,0.07902 -0.04939,0.143228 -0.07408,0.172861 l -0.306212,0.385234 -0.385234,-0.498829 c -0.04445,-0.04939 -0.04445,-0.05927 -0.04445,-0.0889 0,-0.07408 0.07408,-0.118533 0.172862,-0.123472 v -0.153106 l -0.533402,0.01482 c -0.103717,0 -0.335845,-0.0049 -0.469195,-0.01482 v 0.153106 c 0.345723,0 0.350662,0.0049 0.58279,0.301273 l 0.488951,0.637118 c -0.232128,0.296334 -0.232128,0.306211 -0.464256,0.587729 -0.237068,0.286456 -0.528463,0.296334 -0.63218,0.296334 v 0.153106 c 0.128412,-0.0099 0.281518,-0.01482 0.409929,-0.01482 l 0.469196,0.01482 v -0.153106 c -0.108656,-0.01482 -0.143229,-0.07902 -0.143229,-0.153106 0,-0.108656 0.143229,-0.27164 0.444501,-0.62724 l 0.375357,0.49389 c 0.03951,0.05433 0.103717,0.13335 0.103717,0.162983 0,0.04445 -0.04445,0.118534 -0.177801,0.123473 v 0.153106 l 0.533402,-0.01482 c 0.13335,0 0.325967,0.0049 0.474134,0.01482 z"
         style="text-align:center;text-anchor:middle;stroke-width:0.264583"
         id="path2359" />
      <path
         d="m 95.214275,23.413761 c 0,-0.04939 -0.03951,-0.05927 -0.06421,-0.05927 -0.04445,0 -0.05433,0.02963 -0.06421,0.06914 -0.172861,0.508707 -0.617362,0.508707 -0.666751,0.508707 -0.246945,0 -0.444501,-0.148167 -0.558096,-0.330906 -0.148167,-0.237067 -0.148167,-0.563035 -0.148167,-0.740835 h 1.377953 c 0.108656,0 0.123473,0 0.123473,-0.103717 0,-0.488951 -0.266701,-0.968025 -0.884064,-0.968025 -0.572912,0 -1.027291,0.508707 -1.027291,1.12607 0,0.661812 0.518585,1.140886 1.086558,1.140886 0.602546,0 0.824797,-0.548218 0.824797,-0.642057 z m -0.325968,-0.656874 h -1.170519 c 0.02963,-0.735896 0.444501,-0.859369 0.612423,-0.859369 0.508707,0 0.558096,0.666752 0.558096,0.859369 z"
         style="text-align:center;text-anchor:middle;stroke-width:0.264583"
         id="path2361" />
      <path
         d="m 97.960295,24.00149 v -0.153106 c -0.345723,0 -0.385234,-0.03457 -0.385234,-0.276579 v -2.997912 l -0.711202,0.05433 v 0.153106 c 0.345723,0 0.385235,0.03457 0.385235,0.276578 v 1.066803 c -0.143228,-0.177801 -0.355601,-0.306212 -0.622302,-0.306212 -0.58279,0 -1.101374,0.484012 -1.101374,1.12113 0,0.62724 0.484012,1.116192 1.047046,1.116192 0.31609,0 0.53834,-0.167923 0.661813,-0.325968 v 0.325968 z m -0.726018,-0.582791 c 0,0.0889 0,0.09878 -0.05433,0.18274 -0.148167,0.237067 -0.370417,0.345723 -0.58279,0.345723 -0.222251,0 -0.400051,-0.128412 -0.518585,-0.31609 -0.128411,-0.202495 -0.143228,-0.484012 -0.143228,-0.686507 0,-0.182739 0.0099,-0.479073 0.153106,-0.701324 0.103717,-0.153106 0.291395,-0.316089 0.558096,-0.316089 0.172861,0 0.380295,0.07408 0.533401,0.296334 0.05433,0.08396 0.05433,0.09384 0.05433,0.182739 z"
         style="text-align:center;text-anchor:middle;stroke-width:0.264583"
         id="path2363" />
      <path
         d="m 103.28936,24.00149 v -0.153106 h -0.0889 c -0.29634,0 -0.36548,-0.03457 -0.41981,-0.197556 l -1.0668,-3.086813 c -0.0247,-0.06421 -0.0346,-0.09878 -0.1136,-0.09878 -0.079,0 -0.0938,0.02963 -0.11853,0.09878 l -1.02235,2.953462 c -0.0889,0.251884 -0.28646,0.325968 -0.553158,0.330907 v 0.153106 l 0.503768,-0.01482 0.56797,0.01482 v -0.153106 c -0.24694,0 -0.37041,-0.123473 -0.37041,-0.251884 0,-0.01482 0.005,-0.06421 0.01,-0.07408 l 0.22719,-0.646996 h 1.21991 l 0.26176,0.755652 c 0.005,0.01976 0.0148,0.04939 0.0148,0.06914 0,0.148167 -0.27658,0.148167 -0.40993,0.148167 v 0.153106 c 0.1778,-0.01482 0.52352,-0.01482 0.7112,-0.01482 z m -1.27918,-1.279175 h -1.11125 l 0.55316,-1.605143 z"
         style="text-align:center;text-anchor:middle;stroke-width:0.264583"
         id="path2365" />
      <path
         d="m 106.98859,20.781327 v -0.153106 l -0.57786,0.01482 -0.57785,-0.01482 v 0.153106 c 0.50871,0 0.50871,0.232128 0.50871,0.365478 v 2.108911 l -1.74343,-2.563289 c -0.0444,-0.05927 -0.0494,-0.06421 -0.14323,-0.06421 h -0.83961 v 0.153106 h 0.14322 c 0.0741,0 0.17287,0.0049 0.24695,0.0099 0.11359,0.01482 0.11853,0.01975 0.11853,0.113594 v 2.578106 c 0,0.13335 0,0.365479 -0.5087,0.365479 v 0.153106 l 0.57785,-0.01482 0.57785,0.01482 v -0.153106 c -0.50871,0 -0.50871,-0.232129 -0.50871,-0.365479 v -2.568228 c 0.0247,0.02469 0.0296,0.02963 0.0494,0.05927 l 2.01507,2.96334 c 0.0444,0.05927 0.0494,0.06421 0.084,0.06421 0.0691,0 0.0691,-0.03457 0.0691,-0.128412 V 21.14683 c 0,-0.13335 0,-0.365478 0.50871,-0.365478 z"
         style="text-align:center;text-anchor:middle;stroke-width:0.264583"
         id="path2367" />
      <path
         d="m 110.6483,22.342019 c 0,-0.938391 -0.66675,-1.713798 -1.5113,-1.713798 h -1.80764 v 0.153106 h 0.11853 c 0.3803,0 0.39018,0.05433 0.39018,0.232128 v 2.6028 c 0,0.177801 -0.01,0.232129 -0.39018,0.232129 h -0.11853 v 0.153106 h 1.80764 c 0.82973,0 1.5113,-0.730958 1.5113,-1.659471 z m -0.49389,0 c 0,0.548218 -0.0938,0.844552 -0.27164,1.086558 -0.0988,0.133351 -0.38029,0.419807 -0.87912,0.419807 h -0.49883 c -0.23213,0 -0.24201,-0.03457 -0.24201,-0.197556 v -2.671945 c 0,-0.162984 0.01,-0.197556 0.24201,-0.197556 h 0.49389 c 0.30621,0 0.64699,0.108656 0.89888,0.459318 0.21237,0.291395 0.25682,0.71614 0.25682,1.101374 z"
         style="text-align:center;text-anchor:middle;stroke-width:0.264583"
         id="path2369" />
      <path
         d="m 95.727925,30.175115 v -0.153106 h -0.0889 c -0.296334,0 -0.365478,-0.03457 -0.419806,-0.197556 L 94.152416,26.73764 c -0.02469,-0.0642 -0.03457,-0.09878 -0.113594,-0.09878 -0.07902,0 -0.09384,0.02963 -0.118534,0.09878 l -1.022352,2.953462 c -0.0889,0.251884 -0.286457,0.325968 -0.553157,0.330907 v 0.153106 l 0.503768,-0.01482 0.567973,0.01482 v -0.153106 c -0.246945,0 -0.370417,-0.123473 -0.370417,-0.251884 0,-0.01482 0.0049,-0.06421 0.0099,-0.07408 l 0.22719,-0.646996 h 1.219908 l 0.261762,0.755652 c 0.0049,0.01976 0.01482,0.04939 0.01482,0.06914 0,0.148167 -0.276579,0.148167 -0.409929,0.148167 v 0.153106 c 0.1778,-0.01482 0.523523,-0.01482 0.711201,-0.01482 z M 94.44875,28.89594 h -1.111252 l 0.553157,-1.605143 z"
         style="text-align:center;text-anchor:middle;stroke-width:0.264583"
         id="path2371" />
      <path
         d="m 97.688659,28.293394 c 0,-0.158045 -0.153106,-0.301273 -0.365478,-0.301273 -0.36054,0 -0.538341,0.330906 -0.607485,0.543279 v -0.543279 l -0.686507,0.05433 v 0.153106 c 0.345723,0 0.385234,0.03457 0.385234,0.276578 v 1.323625 c 0,0.222251 -0.05433,0.222251 -0.385234,0.222251 v 0.153106 l 0.563034,-0.01482 c 0.197556,0 0.429685,0 0.627241,0.01482 v -0.153106 h -0.103717 c -0.365479,0 -0.375357,-0.05433 -0.375357,-0.232129 v -0.76059 c 0,-0.488951 0.207434,-0.928513 0.582791,-0.928513 0.03457,0 0.04445,0 0.05433,0.0049 -0.01482,0.0049 -0.113594,0.0642 -0.113594,0.192617 0,0.138289 0.103717,0.212372 0.212372,0.212372 0.0889,0 0.212373,-0.05927 0.212373,-0.217311 z"
         style="text-align:center;text-anchor:middle;stroke-width:0.264583"
         id="path2373" />
      <path
         d="m 99.6247,28.293394 c 0,-0.158045 -0.153106,-0.301273 -0.365479,-0.301273 -0.36054,0 -0.53834,0.330906 -0.607485,0.543279 v -0.543279 l -0.686507,0.05433 v 0.153106 c 0.345723,0 0.385234,0.03457 0.385234,0.276578 v 1.323625 c 0,0.222251 -0.05433,0.222251 -0.385234,0.222251 v 0.153106 l 0.563035,-0.01482 c 0.197556,0 0.429684,0 0.62724,0.01482 v -0.153106 h -0.103717 c -0.365478,0 -0.375356,-0.05433 -0.375356,-0.232129 v -0.76059 c 0,-0.488951 0.207434,-0.928513 0.58279,-0.928513 0.03457,0 0.04445,0 0.05433,0.0049 -0.01482,0.0049 -0.113595,0.0642 -0.113595,0.192617 0,0.138289 0.103717,0.212372 0.212373,0.212372 0.0889,0 0.212373,-0.05927 0.212373,-0.217311 z"
         style="text-align:center;text-anchor:middle;stroke-width:0.264583"
         id="path2375" />
      <path
         d="M 102.14847,29.735553 V 29.458974 H 102.025 v 0.276579 c 0,0.286456 -0.12348,0.316089 -0.1778,0.316089 -0.16299,0 -0.18274,-0.22225 -0.18274,-0.246945 v -0.98778 c 0,-0.207434 0,-0.400051 -0.1778,-0.58279 -0.19262,-0.192617 -0.43957,-0.27164 -0.67663,-0.27164 -0.40499,0 -0.74578,0.232129 -0.74578,0.558096 0,0.148167 0.0988,0.232128 0.22719,0.232128 0.13829,0 0.22719,-0.09878 0.22719,-0.227189 0,-0.05927 -0.0247,-0.22225 -0.25188,-0.227189 0.13335,-0.172862 0.37535,-0.22719 0.5334,-0.22719 0.24201,0 0.52352,0.192617 0.52352,0.632179 v 0.18274 c -0.25188,0.01482 -0.5976,0.02963 -0.90875,0.1778 -0.37042,0.167923 -0.493895,0.424746 -0.493895,0.642057 0,0.400051 0.479075,0.523524 0.790225,0.523524 0.32597,0 0.55316,-0.197556 0.647,-0.429685 0.0198,0.197556 0.1531,0.40499 0.38523,0.40499 0.10372,0 0.40499,-0.06914 0.40499,-0.469195 z m -0.8248,-0.251884 c 0,0.469195 -0.3556,0.637118 -0.57785,0.637118 -0.242,0 -0.4445,-0.172862 -0.4445,-0.419807 0,-0.271639 0.20743,-0.681568 1.02235,-0.711201 z"
         style="text-align:center;text-anchor:middle;stroke-width:0.264583"
         id="path2377" />
      <path
         d="m 104.60308,28.199555 v -0.153106 c -0.11359,0.0099 -0.25682,0.01482 -0.37041,0.01482 l -0.42969,-0.01482 v 0.153106 c 0.15311,0.0049 0.23213,0.0889 0.23213,0.212372 0,0.04939 -0.005,0.05927 -0.0296,0.118534 l -0.49883,1.214969 -0.54822,-1.328564 c -0.0198,-0.04939 -0.0296,-0.06914 -0.0296,-0.0889 0,-0.128411 0.18274,-0.128411 0.27658,-0.128411 v -0.153106 l -0.53834,0.01482 c -0.13336,0 -0.33091,-0.0049 -0.47908,-0.01482 v 0.153106 c 0.23707,0 0.33091,0 0.40005,0.172861 l 0.74084,1.802699 -0.12347,0.291395 c -0.10866,0.271639 -0.24695,0.612423 -0.56304,0.612423 -0.0247,0 -0.13829,0 -0.23213,-0.0889 0.15311,-0.01975 0.19262,-0.128411 0.19262,-0.207434 0,-0.128411 -0.0938,-0.207433 -0.20743,-0.207433 -0.0988,0 -0.20744,0.06421 -0.20744,0.212372 0,0.222251 0.20744,0.400051 0.45438,0.400051 0.31115,0 0.51365,-0.281517 0.63218,-0.563034 l 0.86925,-2.108911 c 0.12841,-0.31115 0.38029,-0.316089 0.45931,-0.316089 z"
         style="text-align:center;text-anchor:middle;stroke-width:0.264583"
         id="path2379" />
    </g>
    <g
       aria-label="Programmable
OR Array"
       id="text894"
       style="font-size:4.9389px;line-height:1.25;font-family:'Latin Modern Roman';-inkscape-font-specification:'Latin Modern Roman, ';stroke-width:0.264583">
      <path
         d="m 85.133658,64.06917 c 0,-0.484012 -0.488951,-0.918635 -1.16558,-0.918635 h -1.743432 v 0.153106 h 0.118534 c 0.380295,0 0.390173,0.05433 0.390173,0.232128 v 2.602801 c 0,0.1778 -0.0099,0.232128 -0.390173,0.232128 h -0.118534 v 0.153106 c 0.172862,-0.01482 0.53834,-0.01482 0.726019,-0.01482 0.187678,0 0.558095,0 0.730957,0.01482 v -0.153106 h -0.118534 c -0.380295,0 -0.390173,-0.05433 -0.390173,-0.232128 v -1.175459 h 0.834674 c 0.592668,0 1.126069,-0.400051 1.126069,-0.893941 z m -0.508706,0 c 0,0.232129 0,0.76553 -0.785285,0.76553 h -0.681569 v -1.333503 c 0,-0.162984 0.0099,-0.197556 0.242007,-0.197556 h 0.439562 c 0.785285,0 0.785285,0.523523 0.785285,0.765529 z"
         style="text-align:center;text-anchor:middle;stroke-width:0.264583"
         id="path2389" />
      <path
         d="m 87.212934,64.642083 c 0,-0.158045 -0.153106,-0.301273 -0.365478,-0.301273 -0.36054,0 -0.538341,0.330906 -0.607485,0.543279 V 64.34081 l -0.686507,0.05433 v 0.153106 c 0.345723,0 0.385234,0.03457 0.385234,0.276578 v 1.323625 c 0,0.222251 -0.05433,0.222251 -0.385234,0.222251 v 0.153106 l 0.563034,-0.01482 c 0.197556,0 0.429685,0 0.627241,0.01482 V 66.3707 h -0.103717 c -0.365479,0 -0.375357,-0.05433 -0.375357,-0.232128 v -0.760591 c 0,-0.488951 0.207434,-0.928513 0.582791,-0.928513 0.03457,0 0.04445,0 0.05433,0.0049 -0.01482,0.0049 -0.113594,0.06421 -0.113594,0.192617 0,0.138289 0.103717,0.212372 0.212372,0.212372 0.0889,0 0.212373,-0.05927 0.212373,-0.217311 z"
         style="text-align:center;text-anchor:middle;stroke-width:0.264583"
         id="path2391" />
      <path
         d="m 89.677437,65.466879 c 0,-0.632179 -0.49389,-1.155702 -1.091497,-1.155702 -0.617363,0 -1.096436,0.53834 -1.096436,1.155702 0,0.637118 0.513646,1.111253 1.091497,1.111253 0.597607,0 1.096436,-0.484013 1.096436,-1.111253 z m -0.409929,-0.03951 c 0,0.1778 0,0.444501 -0.108656,0.661813 -0.108656,0.22225 -0.325967,0.365478 -0.572912,0.365478 -0.212373,0 -0.429685,-0.103717 -0.563035,-0.330906 -0.123472,-0.217312 -0.123472,-0.518585 -0.123472,-0.696385 0,-0.192617 0,-0.459318 0.118533,-0.676629 0.133351,-0.22719 0.365479,-0.330907 0.563035,-0.330907 0.217311,0 0.429684,0.108656 0.558096,0.321029 0.128411,0.212373 0.128411,0.498829 0.128411,0.686507 z"
         style="text-align:center;text-anchor:middle;stroke-width:0.264583"
         id="path2393" />
      <path
         d="m 92.216022,64.528488 c 0,-0.08396 -0.05927,-0.242006 -0.251884,-0.242006 -0.09878,0 -0.31609,0.02963 -0.523524,0.232128 -0.207433,-0.162983 -0.414867,-0.1778 -0.523523,-0.1778 -0.459318,0 -0.800102,0.340784 -0.800102,0.721079 0,0.217312 0.108656,0.40499 0.232129,0.508707 -0.06421,0.07408 -0.153106,0.237067 -0.153106,0.409929 0,0.153106 0.06421,0.340784 0.217311,0.439562 -0.296334,0.08396 -0.454379,0.296334 -0.454379,0.49389 0,0.355601 0.488952,0.62724 1.091497,0.62724 0.582791,0 1.096436,-0.251884 1.096436,-0.637118 0,-0.172861 -0.06914,-0.424745 -0.321028,-0.563035 -0.261762,-0.138289 -0.548218,-0.138289 -0.849491,-0.138289 -0.123473,0 -0.335845,0 -0.370418,-0.0049 -0.158044,-0.01975 -0.261761,-0.172861 -0.261761,-0.330906 0,-0.01976 0,-0.13335 0.08396,-0.232128 0.192617,0.138289 0.395112,0.153106 0.488951,0.153106 0.459318,0 0.800102,-0.340784 0.800102,-0.72108 0,-0.182739 -0.07902,-0.365478 -0.202495,-0.479073 0.1778,-0.167923 0.355601,-0.192617 0.444501,-0.192617 0,0 0.03457,0 0.04939,0.0049 -0.05433,0.01976 -0.07902,0.07408 -0.07902,0.13335 0,0.08396 0.06421,0.143228 0.143228,0.143228 0.04939,0 0.143228,-0.03457 0.143228,-0.148167 z m -0.869247,0.533401 c 0,0.133351 -0.0049,0.291395 -0.07902,0.414868 -0.03951,0.05927 -0.153106,0.197556 -0.350662,0.197556 -0.429684,0 -0.429684,-0.49389 -0.429684,-0.607485 0,-0.13335 0.0049,-0.291395 0.07902,-0.414867 0.03951,-0.05927 0.153106,-0.197556 0.350662,-0.197556 0.429684,0 0.429684,0.49389 0.429684,0.607484 z m 0.543279,1.852088 c 0,0.2667 -0.350662,0.513645 -0.834674,0.513645 -0.498829,0 -0.839613,-0.251883 -0.839613,-0.513645 0,-0.22719 0.187678,-0.409929 0.40499,-0.424746 h 0.291395 c 0.424746,0 0.977902,0 0.977902,0.424746 z"
         style="text-align:center;text-anchor:middle;stroke-width:0.264583"
         id="path2395" />
      <path
         d="m 94.087855,64.642083 c 0,-0.158045 -0.153106,-0.301273 -0.365478,-0.301273 -0.36054,0 -0.53834,0.330906 -0.607485,0.543279 V 64.34081 l -0.686507,0.05433 v 0.153106 c 0.345723,0 0.385234,0.03457 0.385234,0.276578 v 1.323625 c 0,0.222251 -0.05433,0.222251 -0.385234,0.222251 v 0.153106 l 0.563034,-0.01482 c 0.197556,0 0.429685,0 0.627241,0.01482 V 66.3707 h -0.103717 c -0.365479,0 -0.375357,-0.05433 -0.375357,-0.232128 v -0.760591 c 0,-0.488951 0.207434,-0.928513 0.582791,-0.928513 0.03457,0 0.04445,0 0.05433,0.0049 -0.01482,0.0049 -0.113595,0.06421 -0.113595,0.192617 0,0.138289 0.103717,0.212372 0.212373,0.212372 0.0889,0 0.212372,-0.05927 0.212372,-0.217311 z"
         style="text-align:center;text-anchor:middle;stroke-width:0.264583"
         id="path2397" />
      <path
         d="m 96.611625,66.084242 v -0.276579 h -0.123472 v 0.276579 c 0,0.286456 -0.123473,0.316089 -0.177801,0.316089 -0.162983,0 -0.182739,-0.22225 -0.182739,-0.246945 v -0.98778 c 0,-0.207434 0,-0.400051 -0.1778,-0.58279 -0.192617,-0.192617 -0.439562,-0.271639 -0.67663,-0.271639 -0.404989,0 -0.745774,0.232128 -0.745774,0.558095 0,0.148167 0.09878,0.232129 0.22719,0.232129 0.138289,0 0.227189,-0.09878 0.227189,-0.22719 0,-0.05927 -0.02469,-0.22225 -0.251884,-0.227189 0.133351,-0.172862 0.375357,-0.22719 0.533402,-0.22719 0.242006,0 0.523523,0.192617 0.523523,0.63218 v 0.182739 c -0.251884,0.01482 -0.597607,0.02963 -0.908758,0.1778 -0.370417,0.167923 -0.49389,0.424746 -0.49389,0.642057 0,0.400051 0.479074,0.523524 0.790224,0.523524 0.325968,0 0.553157,-0.197556 0.646996,-0.429685 0.01976,0.197556 0.153106,0.40499 0.385234,0.40499 0.103717,0 0.40499,-0.06914 0.40499,-0.469195 z m -0.824796,-0.251884 c 0,0.469195 -0.355601,0.637118 -0.577851,0.637118 -0.242006,0 -0.444501,-0.172862 -0.444501,-0.419807 0,-0.271639 0.207433,-0.681568 1.022352,-0.711201 z"
         style="text-align:center;text-anchor:middle;stroke-width:0.264583"
         id="path2399" />
      <path
         d="m 100.7109,66.523804 v -0.153106 c -0.25682,0 -0.38029,0 -0.38523,-0.148167 v -0.94333 c 0,-0.424745 0,-0.577851 -0.15311,-0.755652 -0.0691,-0.08396 -0.232126,-0.182739 -0.518582,-0.182739 -0.414867,0 -0.632179,0.296334 -0.71614,0.484012 -0.06915,-0.429684 -0.434624,-0.484012 -0.656874,-0.484012 -0.36054,0 -0.592668,0.212373 -0.730957,0.518584 V 64.34081 l -0.696385,0.05433 v 0.153106 c 0.345723,0 0.385234,0.03457 0.385234,0.276578 v 1.323625 c 0,0.222251 -0.05433,0.222251 -0.385234,0.222251 v 0.153106 l 0.558096,-0.01482 0.553156,0.01482 V 66.3707 c -0.330906,0 -0.385234,0 -0.385234,-0.222251 V 65.23969 c 0,-0.513646 0.350662,-0.790224 0.666752,-0.790224 0.31115,0 0.365478,0.2667 0.365478,0.548218 v 1.150763 c 0,0.222251 -0.05433,0.222251 -0.385234,0.222251 v 0.153106 l 0.558096,-0.01482 0.553157,0.01482 v -0.153106 c -0.330907,0 -0.385235,0 -0.385235,-0.222251 V 65.23969 c 0,-0.513646 0.350662,-0.790224 0.666752,-0.790224 0.311151,0 0.365478,0.2667 0.365478,0.548218 v 1.150763 c 0,0.222251 -0.05433,0.222251 -0.385234,0.222251 v 0.153106 l 0.5581,-0.01482 z"
         style="text-align:center;text-anchor:middle;stroke-width:0.264583"
         id="path2401" />
      <path
         d="m 104.825,66.523804 v -0.153106 c -0.25683,0 -0.3803,0 -0.38524,-0.148167 v -0.94333 c 0,-0.424745 0,-0.577851 -0.1531,-0.755652 -0.0691,-0.08396 -0.23213,-0.182739 -0.51859,-0.182739 -0.41486,0 -0.63218,0.296334 -0.71614,0.484012 -0.0691,-0.429684 -0.43462,-0.484012 -0.65687,-0.484012 -0.36054,0 -0.59267,0.212373 -0.73096,0.518584 V 64.34081 l -0.69638,0.05433 v 0.153106 c 0.34572,0 0.38523,0.03457 0.38523,0.276578 v 1.323625 c 0,0.222251 -0.0543,0.222251 -0.38523,0.222251 v 0.153106 l 0.55809,-0.01482 0.55316,0.01482 V 66.3707 c -0.33091,0 -0.38524,0 -0.38524,-0.222251 V 65.23969 c 0,-0.513646 0.35067,-0.790224 0.66676,-0.790224 0.31115,0 0.36547,0.2667 0.36547,0.548218 v 1.150763 c 0,0.222251 -0.0543,0.222251 -0.38523,0.222251 v 0.153106 l 0.5581,-0.01482 0.55315,0.01482 v -0.153106 c -0.3309,0 -0.38523,0 -0.38523,-0.222251 V 65.23969 c 0,-0.513646 0.35066,-0.790224 0.66675,-0.790224 0.31115,0 0.36548,0.2667 0.36548,0.548218 v 1.150763 c 0,0.222251 -0.0543,0.222251 -0.38524,0.222251 v 0.153106 l 0.5581,-0.01482 z"
         style="text-align:center;text-anchor:middle;stroke-width:0.264583"
         id="path2403" />
      <path
         d="m 107.30926,66.084242 v -0.276579 h -0.12348 v 0.276579 c 0,0.286456 -0.12347,0.316089 -0.1778,0.316089 -0.16298,0 -0.18274,-0.22225 -0.18274,-0.246945 v -0.98778 c 0,-0.207434 0,-0.400051 -0.1778,-0.58279 -0.19261,-0.192617 -0.43956,-0.271639 -0.67663,-0.271639 -0.40499,0 -0.74577,0.232128 -0.74577,0.558095 0,0.148167 0.0988,0.232129 0.22719,0.232129 0.13829,0 0.22719,-0.09878 0.22719,-0.22719 0,-0.05927 -0.0247,-0.22225 -0.25188,-0.227189 0.13335,-0.172862 0.37535,-0.22719 0.5334,-0.22719 0.242,0 0.52352,0.192617 0.52352,0.63218 v 0.182739 c -0.25188,0.01482 -0.59761,0.02963 -0.90876,0.1778 -0.37042,0.167923 -0.49389,0.424746 -0.49389,0.642057 0,0.400051 0.47908,0.523524 0.79023,0.523524 0.32596,0 0.55315,-0.197556 0.64699,-0.429685 0.0198,0.197556 0.15311,0.40499 0.38524,0.40499 0.10371,0 0.40499,-0.06914 0.40499,-0.469195 z m -0.8248,-0.251884 c 0,0.469195 -0.3556,0.637118 -0.57785,0.637118 -0.24201,0 -0.4445,-0.172862 -0.4445,-0.419807 0,-0.271639 0.20743,-0.681568 1.02235,-0.711201 z"
         style="text-align:center;text-anchor:middle;stroke-width:0.264583"
         id="path2405" />
      <path
         d="m 109.96637,65.457001 c 0,-0.62724 -0.48401,-1.116191 -1.04704,-1.116191 -0.38524,0 -0.59761,0.232128 -0.67663,0.321028 v -1.565631 l -0.7112,0.05433 v 0.153106 c 0.34572,0 0.38523,0.03457 0.38523,0.276578 v 2.943585 h 0.12347 l 0.1778,-0.306212 c 0.0741,0.113595 0.28152,0.36054 0.647,0.36054 0.58773,0 1.10137,-0.484013 1.10137,-1.121131 z m -0.40992,-0.0049 c 0,0.18274 -0.01,0.479074 -0.15311,0.701324 -0.10372,0.153106 -0.29139,0.31609 -0.5581,0.31609 -0.22225,0 -0.40005,-0.118534 -0.51858,-0.301273 -0.0691,-0.103717 -0.0691,-0.118534 -0.0691,-0.207434 v -1.017413 c 0,-0.09384 0,-0.09878 0.0543,-0.177801 0.19262,-0.276578 0.46426,-0.316089 0.58279,-0.316089 0.22225,0 0.40005,0.128411 0.51859,0.316089 0.12841,0.202495 0.14323,0.484013 0.14323,0.686507 z"
         style="text-align:center;text-anchor:middle;stroke-width:0.264583"
         id="path2407" />
      <path
         d="m 111.39865,66.523804 v -0.153106 c -0.3309,0 -0.38523,0 -0.38523,-0.222251 v -3.05224 l -0.7112,0.05433 v 0.153106 c 0.34572,0 0.38523,0.03457 0.38523,0.276578 v 2.568228 c 0,0.222251 -0.0543,0.222251 -0.38523,0.222251 v 0.153106 l 0.54822,-0.01482 z"
         style="text-align:center;text-anchor:middle;stroke-width:0.264583"
         id="path2409" />
      <path
         d="m 113.56189,65.936075 c 0,-0.04939 -0.0395,-0.05927 -0.0642,-0.05927 -0.0445,0 -0.0543,0.02963 -0.0642,0.06914 -0.17286,0.508707 -0.61736,0.508707 -0.66675,0.508707 -0.24695,0 -0.4445,-0.148167 -0.5581,-0.330906 -0.14816,-0.237067 -0.14816,-0.563035 -0.14816,-0.740835 h 1.37795 c 0.10866,0 0.12347,0 0.12347,-0.103717 0,-0.488951 -0.2667,-0.968024 -0.88406,-0.968024 -0.57291,0 -1.02729,0.508706 -1.02729,1.126069 0,0.661812 0.51858,1.140886 1.08656,1.140886 0.60254,0 0.82479,-0.548218 0.82479,-0.642057 z m -0.32596,-0.656874 h -1.17052 c 0.0296,-0.735896 0.4445,-0.859369 0.61242,-0.859369 0.50871,0 0.5581,0.666752 0.5581,0.859369 z"
         style="text-align:center;text-anchor:middle;stroke-width:0.264583"
         id="path2411" />
      <path
         d="m 90.620767,71.023142 c 0,-1.007536 -0.745774,-1.807638 -1.644654,-1.807638 -0.884063,0 -1.639715,0.790224 -1.639715,1.807638 0,1.012474 0.760591,1.782943 1.639715,1.782943 0.89888,0 1.644654,-0.785286 1.644654,-1.782943 z m -0.508707,-0.06915 c 0,1.308809 -0.676629,1.723676 -1.131008,1.723676 -0.474135,0 -1.135947,-0.434623 -1.135947,-1.723676 0,-1.279175 0.721079,-1.61502 1.131008,-1.61502 0.429684,0 1.135947,0.350662 1.135947,1.61502 z"
         style="text-align:center;text-anchor:middle;stroke-width:0.264583"
         id="path2413" />
      <path
         d="m 94.517558,72.262806 c 0,-0.02963 0,-0.08396 -0.06421,-0.08396 -0.05433,0 -0.05433,0.04445 -0.05927,0.07902 -0.02963,0.350662 -0.202495,0.439562 -0.325968,0.439562 -0.242006,0 -0.281517,-0.251884 -0.350662,-0.711202 l -0.06421,-0.395112 c -0.0889,-0.316089 -0.330907,-0.479073 -0.602546,-0.572912 0.479073,-0.118534 0.864307,-0.419807 0.864307,-0.805041 0,-0.474134 -0.563034,-0.889002 -1.289053,-0.889002 h -1.550814 v 0.153106 h 0.118533 c 0.380296,0 0.390173,0.05433 0.390173,0.232128 v 2.602801 c 0,0.1778 -0.0099,0.232128 -0.390173,0.232128 h -0.118533 v 0.153106 c 0.1778,-0.01482 0.528462,-0.01482 0.721079,-0.01482 0.192617,0 0.543279,0 0.72108,0.01482 V 72.544323 H 92.39877 c -0.380295,0 -0.390173,-0.05433 -0.390173,-0.232128 v -1.249542 h 0.567973 c 0.07902,0 0.286457,0 0.459318,0.167922 0.187678,0.177801 0.187678,0.330907 0.187678,0.661813 0,0.321029 0,0.518585 0.202495,0.706263 0.202495,0.1778 0.474135,0.207434 0.622302,0.207434 0.385234,0 0.469195,-0.40499 0.469195,-0.543279 z m -1.111252,-2.049644 c 0,0.340784 -0.118534,0.740835 -0.849491,0.740835 h -0.548218 v -1.279175 c 0,-0.113595 0,-0.172862 0.108656,-0.187678 0.04939,-0.0099 0.192617,-0.0099 0.291395,-0.0099 0.444501,0 0.997658,0.01976 0.997658,0.735896 z"
         style="text-align:center;text-anchor:middle;stroke-width:0.264583"
         id="path2415" />
      <path
         d="m 99.72314,72.697429 v -0.153106 h -0.0889 c -0.296334,0 -0.365478,-0.03457 -0.419806,-0.197556 l -1.066803,-3.086813 c -0.02469,-0.0642 -0.03457,-0.09878 -0.113594,-0.09878 -0.07902,0 -0.09384,0.02963 -0.118534,0.09878 l -1.022352,2.953463 c -0.0889,0.251883 -0.286456,0.325967 -0.553157,0.330906 v 0.153106 l 0.503768,-0.01482 0.567973,0.01482 v -0.153106 c -0.246945,0 -0.370417,-0.123473 -0.370417,-0.251884 0,-0.01482 0.0049,-0.06421 0.0099,-0.07408 l 0.227189,-0.646995 h 1.219908 l 0.261762,0.755651 c 0.0049,0.01976 0.01482,0.04939 0.01482,0.06915 0,0.148167 -0.276579,0.148167 -0.409929,0.148167 v 0.153106 c 0.1778,-0.01482 0.523523,-0.01482 0.711202,-0.01482 z m -1.279175,-1.279175 h -1.111252 l 0.553157,-1.605143 z"
         style="text-align:center;text-anchor:middle;stroke-width:0.264583"
         id="path2417" />
      <path
         d="m 101.68388,70.815708 c 0,-0.158045 -0.15311,-0.301273 -0.36548,-0.301273 -0.36054,0 -0.53834,0.330906 -0.60749,0.543279 v -0.543279 l -0.68651,0.05433 v 0.153106 c 0.34573,0 0.38524,0.03457 0.38524,0.276578 v 1.323625 c 0,0.222251 -0.0543,0.222251 -0.38524,0.222251 v 0.153106 l 0.56304,-0.01482 c 0.19756,0 0.42968,0 0.62724,0.01482 v -0.153106 h -0.10372 c -0.36548,0 -0.37535,-0.05433 -0.37535,-0.232128 v -0.760591 c 0,-0.488951 0.20743,-0.928513 0.58279,-0.928513 0.0346,0 0.0444,0 0.0543,0.0049 -0.0148,0.0049 -0.11359,0.06421 -0.11359,0.192617 0,0.138289 0.10372,0.212372 0.21237,0.212372 0.0889,0 0.21238,-0.05927 0.21238,-0.217311 z"
         style="text-align:center;text-anchor:middle;stroke-width:0.264583"
         id="path2419" />
      <path
         d="m 103.61992,70.815708 c 0,-0.158045 -0.15311,-0.301273 -0.36548,-0.301273 -0.36054,0 -0.53834,0.330906 -0.60749,0.543279 v -0.543279 l -0.68651,0.05433 v 0.153106 c 0.34573,0 0.38524,0.03457 0.38524,0.276578 v 1.323625 c 0,0.222251 -0.0543,0.222251 -0.38524,0.222251 v 0.153106 l 0.56304,-0.01482 c 0.19756,0 0.42968,0 0.62724,0.01482 V 72.544323 H 103.047 c -0.36548,0 -0.37535,-0.05433 -0.37535,-0.232128 v -0.760591 c 0,-0.488951 0.20743,-0.928513 0.58279,-0.928513 0.0346,0 0.0444,0 0.0543,0.0049 -0.0148,0.0049 -0.11359,0.06421 -0.11359,0.192617 0,0.138289 0.10372,0.212372 0.21237,0.212372 0.0889,0 0.21238,-0.05927 0.21238,-0.217311 z"
         style="text-align:center;text-anchor:middle;stroke-width:0.264583"
         id="path2421" />
      <path
         d="m 106.14368,72.257867 v -0.276579 h -0.12347 v 0.276579 c 0,0.286456 -0.12347,0.316089 -0.1778,0.316089 -0.16298,0 -0.18274,-0.22225 -0.18274,-0.246945 v -0.98778 c 0,-0.207434 0,-0.400051 -0.1778,-0.58279 -0.19262,-0.192617 -0.43956,-0.271639 -0.67663,-0.271639 -0.40499,0 -0.74577,0.232128 -0.74577,0.558095 0,0.148167 0.0988,0.232129 0.22719,0.232129 0.13829,0 0.22719,-0.09878 0.22719,-0.22719 0,-0.05927 -0.0247,-0.22225 -0.25189,-0.227189 0.13335,-0.172862 0.37536,-0.22719 0.5334,-0.22719 0.24201,0 0.52353,0.192617 0.52353,0.63218 v 0.182739 c -0.25189,0.01482 -0.59761,0.02963 -0.90876,0.1778 -0.37042,0.167923 -0.49389,0.424746 -0.49389,0.642057 0,0.400051 0.47907,0.523524 0.79022,0.523524 0.32597,0 0.55316,-0.197556 0.647,-0.429685 0.0198,0.197556 0.15311,0.40499 0.38523,0.40499 0.10372,0 0.40499,-0.06914 0.40499,-0.469195 z m -0.82479,-0.251884 c 0,0.469195 -0.3556,0.637118 -0.57785,0.637118 -0.24201,0 -0.4445,-0.172862 -0.4445,-0.419807 0,-0.271639 0.20743,-0.681568 1.02235,-0.711201 z"
         style="text-align:center;text-anchor:middle;stroke-width:0.264583"
         id="path2423" />
      <path
         d="m 108.5983,70.721869 v -0.153106 c -0.1136,0.0099 -0.25682,0.01482 -0.37042,0.01482 l -0.42968,-0.01482 v 0.153106 c 0.1531,0.0049 0.23213,0.0889 0.23213,0.212372 0,0.04939 -0.005,0.05927 -0.0296,0.118534 l -0.49883,1.214969 -0.54821,-1.328564 c -0.0198,-0.04939 -0.0296,-0.06914 -0.0296,-0.0889 0,-0.128411 0.18274,-0.128411 0.27658,-0.128411 v -0.153106 l -0.53834,0.01482 c -0.13335,0 -0.33091,-0.0049 -0.47907,-0.01482 v 0.153106 c 0.23706,0 0.3309,0 0.40005,0.172861 l 0.74083,1.802699 -0.12347,0.291395 c -0.10866,0.271639 -0.24694,0.612423 -0.56303,0.612423 -0.0247,0 -0.13829,0 -0.23213,-0.0889 0.1531,-0.01976 0.19261,-0.128411 0.19261,-0.207434 0,-0.128411 -0.0938,-0.207433 -0.20743,-0.207433 -0.0988,0 -0.20743,0.06421 -0.20743,0.212372 0,0.222251 0.20743,0.400051 0.45438,0.400051 0.31115,0 0.51364,-0.281517 0.63217,-0.563034 l 0.86925,-2.108911 c 0.12841,-0.31115 0.3803,-0.316089 0.45932,-0.316089 z"
         style="text-align:center;text-anchor:middle;stroke-width:0.264583"
         id="path2425" />
    </g>
    <g
       aria-label="Output
Buffer"
       transform="rotate(-90)"
       id="text900"
       style="font-size:4.9389px;line-height:1.25;font-family:'Latin Modern Roman';-inkscape-font-specification:'Latin Modern Roman, ';text-align:center;text-anchor:middle;stroke-width:0.264583">
      <path
         d="m -71.82244,131.96554 c 0,-1.00753 -0.745774,-1.80763 -1.644654,-1.80763 -0.884063,0 -1.639715,0.79022 -1.639715,1.80763 0,1.01248 0.760591,1.78295 1.639715,1.78295 0.89888,0 1.644654,-0.78529 1.644654,-1.78295 z m -0.508707,-0.0691 c 0,1.30881 -0.676629,1.72368 -1.131008,1.72368 -0.474134,0 -1.135947,-0.43463 -1.135947,-1.72368 0,-1.27918 0.721079,-1.61502 1.131008,-1.61502 0.429684,0 1.135947,0.35066 1.135947,1.61502 z"
         style="text-align:center;text-anchor:middle;stroke-width:0.264583"
         id="path2442" />
      <path
         d="m -68.898612,133.63983 v -0.1531 c -0.345723,0 -0.385234,-0.0346 -0.385234,-0.27658 v -1.75331 l -0.726019,0.0543 v 0.1531 c 0.345723,0 0.385235,0.0346 0.385235,0.27658 v 0.87912 c 0,0.42969 -0.237068,0.76553 -0.597607,0.76553 -0.414868,0 -0.434623,-0.23212 -0.434623,-0.48895 v -1.63971 l -0.726019,0.0543 v 0.1531 c 0.385234,0 0.385234,0.0148 0.385234,0.45438 v 0.74084 c 0,0.38523 0,0.83467 0.750713,0.83467 0.276579,0 0.49389,-0.13829 0.637118,-0.4445 v 0.4445 z"
         style="text-align:center;text-anchor:middle;stroke-width:0.264583"
         id="path2444" />
      <path
         d="m -67.155182,133.02741 v -0.28152 h -0.123472 v 0.27164 c 0,0.36548 -0.148167,0.55316 -0.330907,0.55316 -0.330906,0 -0.330906,-0.44944 -0.330906,-0.5334 v -1.37302 h 0.706263 v -0.1531 h -0.706263 v -0.90876 h -0.123472 c -0.0049,0.40499 -0.153106,0.93345 -0.637118,0.95321 v 0.10865 h 0.419806 v 1.36314 c 0,0.60748 0.459318,0.66675 0.637118,0.66675 0.350662,0 0.488951,-0.35066 0.488951,-0.66675 z"
         style="text-align:center;text-anchor:middle;stroke-width:0.264583"
         id="path2446" />
      <path
         d="m -64.300497,132.57303 c 0,-0.62724 -0.479074,-1.11619 -1.032231,-1.11619 -0.385234,0 -0.592667,0.21731 -0.691445,0.32597 v -0.32597 l -0.711202,0.0543 v 0.1531 c 0.350662,0 0.385234,0.0296 0.385234,0.24695 v 2.3114 c 0,0.22225 -0.05433,0.22225 -0.385234,0.22225 v 0.15311 l 0.553157,-0.0148 0.558095,0.0148 v -0.15311 c -0.330906,0 -0.385234,0 -0.385234,-0.22225 v -0.82973 -0.0444 c 0.02469,0.079 0.232129,0.34572 0.607485,0.34572 0.587729,0 1.101375,-0.48401 1.101375,-1.12113 z m -0.409929,0 c 0,0.59761 -0.345723,1.01247 -0.711202,1.01247 -0.197556,0 -0.385234,-0.0988 -0.518584,-0.30127 -0.06914,-0.10372 -0.06914,-0.10866 -0.06914,-0.20743 v -1.10138 c 0.143228,-0.25188 0.385234,-0.39511 0.637118,-0.39511 0.36054,0 0.661813,0.43462 0.661813,0.99272 z"
         style="text-align:center;text-anchor:middle;stroke-width:0.264583"
         id="path2448" />
      <path
         d="m -61.485326,133.63983 v -0.1531 c -0.345723,0 -0.385234,-0.0346 -0.385234,-0.27658 v -1.75331 l -0.726018,0.0543 v 0.1531 c 0.345723,0 0.385234,0.0346 0.385234,0.27658 v 0.87912 c 0,0.42969 -0.237067,0.76553 -0.597607,0.76553 -0.414868,0 -0.434623,-0.23212 -0.434623,-0.48895 v -1.63971 l -0.726019,0.0543 v 0.1531 c 0.385235,0 0.385235,0.0148 0.385235,0.45438 v 0.74084 c 0,0.38523 0,0.83467 0.750712,0.83467 0.276579,0 0.49389,-0.13829 0.637119,-0.4445 v 0.4445 z"
         style="text-align:center;text-anchor:middle;stroke-width:0.264583"
         id="path2450" />
      <path
         d="m -59.741896,133.02741 v -0.28152 h -0.123472 v 0.27164 c 0,0.36548 -0.148167,0.55316 -0.330906,0.55316 -0.330907,0 -0.330907,-0.44944 -0.330907,-0.5334 v -1.37302 h 0.706263 v -0.1531 h -0.706263 v -0.90876 h -0.123472 c -0.0049,0.40499 -0.153106,0.93345 -0.637118,0.95321 v 0.10865 h 0.419806 v 1.36314 c 0,0.60748 0.459318,0.66675 0.637118,0.66675 0.350662,0 0.488951,-0.35066 0.488951,-0.66675 z"
         style="text-align:center;text-anchor:middle;stroke-width:0.264583"
         id="path2452" />
      <path
         d="m -70.832176,138.90964 c 0,-0.42969 -0.404989,-0.8001 -0.953207,-0.85937 0.479073,-0.0938 0.819857,-0.40993 0.819857,-0.77541 0,-0.42968 -0.454379,-0.83467 -1.096436,-0.83467 h -1.807637 v 0.1531 h 0.118533 c 0.380296,0 0.390174,0.0543 0.390174,0.23213 v 2.6028 c 0,0.1778 -0.0099,0.23213 -0.390174,0.23213 h -0.118533 v 0.15311 h 1.936049 c 0.656873,0 1.101374,-0.43957 1.101374,-0.90382 z m -0.612423,-1.63478 c 0,0.31609 -0.242006,0.73096 -0.790224,0.73096 h -0.716141 v -1.21497 c 0,-0.16298 0.0099,-0.19756 0.242006,-0.19756 h 0.612424 c 0.479073,0 0.651935,0.41981 0.651935,0.68157 z m 0.118533,1.62984 c 0,0.35066 -0.256822,0.75565 -0.765529,0.75565 h -0.617363 c -0.232128,0 -0.242006,-0.0346 -0.242006,-0.19756 v -1.34832 h 0.928513 c 0.488952,0 0.696385,0.45932 0.696385,0.79023 z"
         style="text-align:center;text-anchor:middle;stroke-width:0.264583"
         id="path2454" />
      <path
         d="m -67.908355,139.81346 v -0.15311 c -0.345723,0 -0.385235,-0.0346 -0.385235,-0.27658 v -1.75331 l -0.726018,0.0543 v 0.15311 c 0.345723,0 0.385234,0.0346 0.385234,0.27657 v 0.87913 c 0,0.42968 -0.237067,0.76553 -0.597607,0.76553 -0.414867,0 -0.434623,-0.23213 -0.434623,-0.48895 v -1.63972 l -0.726018,0.0543 v 0.15311 c 0.385234,0 0.385234,0.0148 0.385234,0.45438 v 0.74083 c 0,0.38523 0,0.83467 0.750713,0.83467 0.276578,0 0.49389,-0.13828 0.637118,-0.4445 v 0.4445 z"
         style="text-align:center;text-anchor:middle;stroke-width:0.264583"
         id="path2456" />
      <path
         d="m -64.703011,136.67726 c 0,-0.17781 -0.172861,-0.34573 -0.44944,-0.34573 -0.291395,0 -0.508706,0.18768 -0.533401,0.20744 -0.143228,-0.18274 -0.419806,-0.20744 -0.553157,-0.20744 -0.469195,0 -1.042107,0.25682 -1.042107,0.79023 v 0.56303 h -0.390174 v 0.15311 h 0.390174 v 1.6002 c 0,0.22225 -0.05433,0.22225 -0.385235,0.22225 v 0.15311 l 0.548218,-0.0148 0.548218,0.0148 v -0.15311 c -0.330906,0 -0.385234,0 -0.385234,-0.22225 v -1.6002 h 1.037169 v 1.6002 c 0,0.22225 -0.05433,0.22225 -0.385234,0.22225 v 0.15311 l 0.563034,-0.0148 c 0.197556,0 0.429685,0 0.627241,0.0148 v -0.15311 h -0.103717 c -0.365479,0 -0.375357,-0.0543 -0.375357,-0.23213 v -1.59032 h 0.567974 v -0.15311 h -0.58279 v -0.57291 c 0,-0.43956 0.237067,-0.67169 0.459317,-0.67169 0.01482,0 0.0889,0 0.162984,0.0346 -0.05927,0.0198 -0.148167,0.084 -0.148167,0.20743 0,0.1136 0.07902,0.21238 0.212373,0.21238 0.143228,0 0.217311,-0.0988 0.217311,-0.21731 z m -1.160641,-0.14323 c -0.07902,0.0148 -0.177801,0.079 -0.177801,0.21731 0,0.0296 0.0049,0.1531 0.13829,0.19755 -0.01482,0.0642 -0.01482,0.10866 -0.01482,0.16793 v 0.56797 h -1.051986 v -0.5581 c 0,-0.47907 0.40499,-0.6865 0.726019,-0.6865 0.242006,0 0.380295,0.0938 0.380295,0.0938 z"
         style="text-align:center;text-anchor:middle;stroke-width:0.264583"
         id="path2458" />
      <path
         d="m -62.875626,139.22573 c 0,-0.0494 -0.03951,-0.0593 -0.06421,-0.0593 -0.04445,0 -0.05433,0.0296 -0.06421,0.0692 -0.172862,0.5087 -0.617363,0.5087 -0.666752,0.5087 -0.246945,0 -0.444501,-0.14817 -0.558095,-0.3309 -0.148167,-0.23707 -0.148167,-0.56304 -0.148167,-0.74084 h 1.377953 c 0.108656,0 0.123472,0 0.123472,-0.10372 0,-0.48895 -0.2667,-0.96802 -0.884063,-0.96802 -0.572912,0 -1.027291,0.50871 -1.027291,1.12607 0,0.66181 0.518585,1.14088 1.086558,1.14088 0.602546,0 0.824796,-0.54821 0.824796,-0.64205 z m -0.325967,-0.65688 h -1.170519 c 0.02963,-0.73589 0.444501,-0.85936 0.612423,-0.85936 0.508707,0 0.558096,0.66675 0.558096,0.85936 z"
         style="text-align:center;text-anchor:middle;stroke-width:0.264583"
         id="path2460" />
      <path
         d="m -60.934646,137.93174 c 0,-0.15805 -0.153106,-0.30128 -0.365479,-0.30128 -0.360539,0 -0.53834,0.33091 -0.607484,0.54328 v -0.54328 l -0.686507,0.0543 v 0.15311 c 0.345723,0 0.385234,0.0346 0.385234,0.27657 v 1.32363 c 0,0.22225 -0.05433,0.22225 -0.385234,0.22225 v 0.15311 l 0.563034,-0.0148 c 0.197556,0 0.429684,0 0.62724,0.0148 v -0.15311 h -0.103716 c -0.365479,0 -0.375357,-0.0543 -0.375357,-0.23213 v -0.76059 c 0,-0.48895 0.207434,-0.92851 0.58279,-0.92851 0.03457,0 0.04445,0 0.05433,0.005 -0.01482,0.005 -0.113594,0.0642 -0.113594,0.19261 0,0.13829 0.103716,0.21238 0.212372,0.21238 0.0889,0 0.212373,-0.0593 0.212373,-0.21731 z"
         style="text-align:center;text-anchor:middle;stroke-width:0.264583"
         id="path2462" />
    </g>
    <path
       style="fill:none;stroke:#000000;stroke-width:0.264583px;stroke-linecap:butt;stroke-linejoin:miter;stroke-opacity:1;marker-end:url(#Arrow1Mend)"
       d="M 40.016538,13.607143 H 51.355823"
       id="path904" />
    <path
       style="fill:none;stroke:#000000;stroke-width:0.264583px;stroke-linecap:butt;stroke-linejoin:miter;stroke-opacity:1;marker-end:url(#Arrow1Mend-3)"
       d="M 40.016538,19.654762 H 51.355823"
       id="path904-3" />
    <path
       style="fill:none;stroke:#000000;stroke-width:0.264583px;stroke-linecap:butt;stroke-linejoin:miter;stroke-opacity:1;marker-end:url(#Arrow1Mend-6)"
       d="M 40.016538,37.230655 H 51.355823"
       id="path904-37" />
    <g
       aria-label=". . ."
       transform="rotate(90)"
       id="text1303"
       style="font-size:4.9389px;line-height:1.25;font-family:'Latin Modern Roman';-inkscape-font-specification:'Latin Modern Roman, ';stroke-width:0.264583">
      <path
         d="m 25.614036,-36.021127 c 0,-0.143228 -0.118533,-0.261761 -0.261761,-0.261761 -0.143228,0 -0.261762,0.118533 -0.261762,0.261761 0,0.143228 0.118534,0.261762 0.261762,0.261762 0.143228,0 0.261761,-0.118534 0.261761,-0.261762 z"
         style="stroke-width:0.264583"
         id="path2309" />
      <path
         d="m 28.631695,-36.021127 c 0,-0.143228 -0.118533,-0.261761 -0.261762,-0.261761 -0.143228,0 -0.261761,0.118533 -0.261761,0.261761 0,0.143228 0.118533,0.261762 0.261761,0.261762 0.143229,0 0.261762,-0.118534 0.261762,-0.261762 z"
         style="stroke-width:0.264583"
         id="path2311" />
      <path
         d="m 31.649354,-36.021127 c 0,-0.143228 -0.118534,-0.261761 -0.261762,-0.261761 -0.143228,0 -0.261762,0.118533 -0.261762,0.261761 0,0.143228 0.118534,0.261762 0.261762,0.261762 0.143228,0 0.261762,-0.118534 0.261762,-0.261762 z"
         style="stroke-width:0.264583"
         id="path2313" />
    </g>
    <g
       aria-label="x1"
       id="text1313"
       style="font-style:italic;font-variant:normal;font-weight:normal;font-stretch:normal;font-size:4.9389px;line-height:1.25;font-family:'Latin Modern Roman';-inkscape-font-specification:'Latin Modern Roman,  Italic';stroke-width:0.264583">
      <path
         d="m 35.861077,13.751326 c 0,-0.04939 -0.03951,-0.04939 -0.07408,-0.04939 -0.05927,0 -0.06421,0.0049 -0.0889,0.08396 -0.13335,0.424745 -0.380295,0.617362 -0.587729,0.617362 -0.09878,0 -0.232128,-0.05927 -0.232128,-0.316089 0,-0.118534 0.05433,-0.330907 0.09384,-0.498829 l 0.167922,-0.67663 c 0.06914,-0.256822 0.202495,-0.528462 0.434623,-0.528462 0.01482,0 0.13829,0 0.217312,0.06915 -0.197556,0.04939 -0.197556,0.237067 -0.197556,0.237067 0,0.06421 0.04445,0.158045 0.172861,0.158045 0.0889,0 0.242007,-0.06914 0.242007,-0.261762 0,-0.251884 -0.286457,-0.311151 -0.429685,-0.311151 -0.271639,0 -0.434623,0.242006 -0.484012,0.335846 -0.108656,-0.296334 -0.350662,-0.335846 -0.474134,-0.335846 -0.49389,0 -0.760591,0.646996 -0.760591,0.760591 0,0.04939 0.04939,0.04939 0.07408,0.04939 0.06421,0 0.06421,-0.0049 0.0889,-0.08396 0.13335,-0.424746 0.390173,-0.617363 0.587729,-0.617363 0.143228,0 0.237067,0.113595 0.237067,0.311151 0,0.118533 -0.05927,0.36054 -0.103717,0.543279 l -0.113594,0.44944 c -0.07902,0.321028 -0.18274,0.71614 -0.479074,0.71614 -0.01482,0 -0.13335,0 -0.217311,-0.06914 0.148167,-0.03951 0.192617,-0.162984 0.192617,-0.237068 0,-0.128411 -0.103717,-0.158044 -0.167923,-0.158044 -0.123472,0 -0.246945,0.103717 -0.246945,0.2667 0,0.192617 0.207434,0.306212 0.434623,0.306212 0.237068,0 0.400051,-0.187678 0.484013,-0.335845 0.09878,0.281517 0.340784,0.335845 0.469195,0.335845 0.508707,0 0.760591,-0.661813 0.760591,-0.760591 z"
         style="font-style:italic;font-variant:normal;font-weight:normal;font-stretch:normal;font-family:'Latin Modern Roman';-inkscape-font-specification:'Latin Modern Roman,  Italic';stroke-width:0.264583"
         id="path2304" />
      <path
         d="m 37.081226,15.384374 c 0,-0.03852 -0.0321,-0.03852 -0.08347,-0.03852 h -0.02568 c -0.04173,0 -0.09631,-0.0032 -0.138042,-0.0064 -0.07063,-0.0096 -0.08989,-0.01284 -0.08989,-0.05779 0,-0.01926 0.0064,-0.04815 0.0096,-0.061 l 0.459071,-1.833073 c 0.0032,-0.0096 0.0096,-0.04173 0.0096,-0.04173 0,-0.02568 -0.01926,-0.03852 -0.03852,-0.03852 -0.01926,0 -0.02247,0.0032 -0.06099,0.05137 -0.247192,0.330659 -0.471912,0.353131 -0.565011,0.362762 -0.01605,0.0032 -0.05136,0.0064 -0.05136,0.061 0,0.03852 0.03852,0.03852 0.05136,0.03852 0.04816,0 0.205459,-0.01926 0.356342,-0.131622 l -0.378814,1.521675 c -0.02568,0.102729 -0.05136,0.134832 -0.301766,0.134832 h -0.02568 c -0.05457,0 -0.08989,0 -0.08989,0.061 0,0.03852 0.03531,0.03852 0.04816,0.03852 0.138042,0 0.282505,-0.0096 0.420547,-0.0096 0.141253,0 0.288926,0.0096 0.430178,0.0096 0.02247,0 0.06421,0 0.06421,-0.061 z"
         style="font-size:65%;baseline-shift:sub"
         id="path2306" />
    </g>
    <g
       aria-label="x2"
       id="text1317"
       style="font-size:4.9389px;line-height:1.25;font-family:'Latin Modern Roman';-inkscape-font-specification:'Latin Modern Roman, ';stroke-width:0.264583">
      <path
         d="m 35.766583,19.609959 c 0,-0.04939 -0.03951,-0.04939 -0.07408,-0.04939 -0.05927,0 -0.06421,0.0049 -0.0889,0.08396 -0.13335,0.424745 -0.380295,0.617362 -0.587729,0.617362 -0.09878,0 -0.232128,-0.05927 -0.232128,-0.316089 0,-0.118534 0.05433,-0.330907 0.09384,-0.498829 l 0.167922,-0.676629 c 0.06915,-0.256823 0.202495,-0.528463 0.434624,-0.528463 0.01482,0 0.138289,0 0.217311,0.06914 -0.197556,0.04939 -0.197556,0.237067 -0.197556,0.237067 0,0.06421 0.04445,0.158045 0.172862,0.158045 0.0889,0 0.242006,-0.06915 0.242006,-0.261762 0,-0.251884 -0.286456,-0.311151 -0.429685,-0.311151 -0.271639,0 -0.434623,0.242007 -0.484012,0.335846 -0.108656,-0.296334 -0.350662,-0.335846 -0.474134,-0.335846 -0.49389,0 -0.760591,0.646996 -0.760591,0.760591 0,0.04939 0.04939,0.04939 0.07408,0.04939 0.06421,0 0.06421,-0.0049 0.0889,-0.08396 0.13335,-0.424746 0.390173,-0.617363 0.587729,-0.617363 0.143228,0 0.237067,0.113595 0.237067,0.311151 0,0.118534 -0.05927,0.36054 -0.103717,0.543279 l -0.113594,0.44944 c -0.07902,0.321028 -0.18274,0.71614 -0.479074,0.71614 -0.01482,0 -0.13335,0 -0.217311,-0.06914 0.148167,-0.03951 0.192617,-0.162984 0.192617,-0.237067 0,-0.128412 -0.103717,-0.158045 -0.167923,-0.158045 -0.123472,0 -0.246945,0.103717 -0.246945,0.2667 0,0.192617 0.207434,0.306212 0.434623,0.306212 0.237068,0 0.400051,-0.187678 0.484013,-0.335845 0.09878,0.281517 0.340784,0.335845 0.469195,0.335845 0.508707,0 0.760591,-0.661812 0.760591,-0.76059 z"
         style="font-style:italic;font-variant:normal;font-weight:normal;font-stretch:normal;font-family:'Latin Modern Roman';-inkscape-font-specification:'Latin Modern Roman,  Italic';stroke-width:0.264583"
         id="path2299" />
      <path
         d="m 37.30134,20.780725 c 0,-0.0321 -0.02568,-0.0321 -0.04815,-0.0321 -0.03852,0 -0.04173,0.0032 -0.05457,0.05457 -0.04494,0.131621 -0.170145,0.346711 -0.385234,0.346711 -0.08989,0 -0.215089,-0.02568 -0.266454,-0.03852 -0.11557,-0.02568 -0.240771,-0.05457 -0.34029,-0.05457 -0.03531,0 -0.06421,0.0064 -0.07063,0.0096 0.160515,-0.276084 0.394866,-0.407706 0.494384,-0.465491 0.494384,-0.279295 0.78652,-0.478333 0.78652,-0.892459 0,-0.369183 -0.250402,-0.542539 -0.500804,-0.542539 -0.475122,0 -0.738366,0.648478 -0.738366,0.857147 0,0.0642 0.01926,0.202247 0.163725,0.202247 0.253612,0 0.388444,-0.385234 0.388444,-0.507225 0,-0.05778 -0.02889,-0.170145 -0.07063,-0.170145 -0.01926,0 -0.03531,0.01605 -0.03531,0.03531 0,0 0,0.01284 0.0032,0.01926 0.01926,0.03852 0.0321,0.08026 0.0321,0.118781 0,0.0931 -0.118781,0.433388 -0.314608,0.433388 -0.03852,0 -0.07063,-0.01605 -0.07063,-0.105939 0,-0.208669 0.240771,-0.812202 0.632426,-0.812202 0.131622,0 0.282505,0.08668 0.282505,0.353131 0,0.465491 -0.279295,0.735155 -0.597113,0.924562 -0.144463,0.08668 -0.279295,0.163725 -0.414127,0.330659 -0.22472,0.269664 -0.260033,0.497595 -0.260033,0.497595 0,0.0321 0.0321,0.0321 0.04815,0.0321 0.03852,0 0.04494,-0.0064 0.05457,-0.04173 0.02568,-0.08989 0.08347,-0.205458 0.179776,-0.205458 0.102729,0 0.192617,0.06421 0.272874,0.11878 0.08347,0.05778 0.182987,0.128411 0.311398,0.128411 0.369183,0 0.516856,-0.558589 0.516856,-0.593902 z"
         style="font-size:65%;baseline-shift:sub"
         id="path2301" />
    </g>
    <g
       aria-label="x3"
       id="text1321"
       style="font-size:4.9389px;line-height:1.25;font-family:'Latin Modern Roman';-inkscape-font-specification:'Latin Modern Roman, ';stroke-width:0.264583">
      <path
         d="m 36.050064,37.280344 c 0,-0.04939 -0.03951,-0.04939 -0.07408,-0.04939 -0.05927,0 -0.06421,0.0049 -0.0889,0.08396 -0.133351,0.424746 -0.380296,0.617363 -0.587729,0.617363 -0.09878,0 -0.232129,-0.05927 -0.232129,-0.31609 0,-0.118534 0.05433,-0.330906 0.09384,-0.498829 l 0.167923,-0.676629 c 0.06914,-0.256823 0.202495,-0.528462 0.434623,-0.528462 0.01482,0 0.138289,0 0.217312,0.06914 -0.197556,0.04939 -0.197556,0.237067 -0.197556,0.237067 0,0.06421 0.04445,0.158045 0.172861,0.158045 0.0889,0 0.242006,-0.06914 0.242006,-0.261761 0,-0.251884 -0.286456,-0.311151 -0.429684,-0.311151 -0.271639,0 -0.434623,0.242006 -0.484012,0.335845 -0.108656,-0.296334 -0.350662,-0.335845 -0.474135,-0.335845 -0.49389,0 -0.76059,0.646996 -0.76059,0.76059 0,0.04939 0.04939,0.04939 0.07408,0.04939 0.06421,0 0.06421,-0.0049 0.0889,-0.08396 0.13335,-0.424745 0.390173,-0.617362 0.587729,-0.617362 0.143228,0 0.237067,0.113594 0.237067,0.31115 0,0.118534 -0.05927,0.36054 -0.103717,0.543279 l -0.113595,0.44944 c -0.07902,0.321029 -0.182739,0.716141 -0.479073,0.716141 -0.01482,0 -0.13335,0 -0.217312,-0.06914 0.148167,-0.03951 0.192617,-0.162984 0.192617,-0.237067 0,-0.128412 -0.103716,-0.158045 -0.167922,-0.158045 -0.123473,0 -0.246945,0.103717 -0.246945,0.266701 0,0.192617 0.207434,0.306211 0.434623,0.306211 0.237067,0 0.400051,-0.187678 0.484012,-0.335845 0.09878,0.281518 0.340784,0.335845 0.469196,0.335845 0.508706,0 0.76059,-0.661812 0.76059,-0.760591 z"
         style="font-style:italic;font-variant:normal;font-weight:normal;font-stretch:normal;font-family:'Latin Modern Roman';-inkscape-font-specification:'Latin Modern Roman,  Italic';stroke-width:0.264583"
         id="path2316" />
      <path
         d="m 37.472462,38.322699 c 0,-0.061 -0.01284,-0.295346 -0.256823,-0.407706 0.333869,-0.11236 0.520066,-0.404496 0.520066,-0.648478 0,-0.272874 -0.208669,-0.430178 -0.459071,-0.430178 -0.382024,0 -0.706263,0.33708 -0.706263,0.609954 0,0.11236 0.061,0.205458 0.179776,0.205458 0.118781,0 0.266454,-0.11236 0.266454,-0.272874 0,-0.06099 -0.03531,-0.160514 -0.07384,-0.160514 -0.01926,0 -0.03531,0.01605 -0.03531,0.03531 0,0.0096 0.0032,0.01605 0.01284,0.03531 0,0 0.02568,0.04494 0.02568,0.0931 0,0.10915 -0.102729,0.199038 -0.195828,0.199038 -0.06421,0 -0.08347,-0.061 -0.08347,-0.118781 0,-0.253612 0.292136,-0.555379 0.603534,-0.555379 0.11878,0 0.272874,0.05779 0.272874,0.288926 0,0.05136 -0.0321,0.654898 -0.5618,0.654898 h -0.07384 c -0.05457,0 -0.08347,0 -0.08347,0.06742 0,0.0321 0.02568,0.0321 0.08026,0.0321 h 0.08989 c 0.06099,0 0.247192,0.0064 0.247192,0.266453 0,0.05778 -0.02889,0.375604 -0.195827,0.568221 -0.08989,0.109149 -0.237561,0.189407 -0.382024,0.189407 -0.160515,0 -0.321029,-0.09631 -0.327449,-0.33387 0.138042,0.01284 0.179776,-0.105939 0.179776,-0.154094 0,-0.05136 -0.03531,-0.102729 -0.10915,-0.102729 -0.163725,0 -0.170145,0.192617 -0.170145,0.250402 0,0.2183 0.154094,0.410917 0.426968,0.410917 0.404496,0 0.808992,-0.33708 0.808992,-0.722314 z"
         style="font-size:65%;baseline-shift:sub"
         id="path2318" />
    </g>
    <path
       style="fill:none;stroke:#000000;stroke-width:0.264583px;stroke-linecap:butt;stroke-linejoin:miter;stroke-opacity:1;marker-end:url(#marker1333)"
       d="m 73.043898,13.418155 h 7.370535"
       id="path1329" />
    <path
       style="fill:none;stroke:#000000;stroke-width:0.264583px;stroke-linecap:butt;stroke-linejoin:miter;stroke-opacity:1;marker-end:url(#marker1375)"
       d="m 73.043898,19.560268 h 7.559524"
       id="path1371" />
    <path
       style="fill:none;stroke:#000000;stroke-width:0.264583px;stroke-linecap:butt;stroke-linejoin:miter;stroke-opacity:1;marker-end:url(#marker1423)"
       d="m 73.043898,37.419642 h 7.370535"
       id="path1419" />
    <g
       aria-label=". . ."
       transform="rotate(90)"
       id="text1303-1"
       style="font-size:4.9389px;line-height:1.25;font-family:'Latin Modern Roman';-inkscape-font-specification:'Latin Modern Roman, ';stroke-width:0.264583">
      <path
         d="m 25.686811,-76.729169 c 0,-0.143228 -0.118533,-0.261762 -0.261761,-0.261762 -0.143228,0 -0.261762,0.118534 -0.261762,0.261762 0,0.143228 0.118534,0.261762 0.261762,0.261762 0.143228,0 0.261761,-0.118534 0.261761,-0.261762 z"
         style="stroke-width:0.264583"
         id="path2348" />
      <path
         d="m 28.70447,-76.729169 c 0,-0.143228 -0.118534,-0.261762 -0.261762,-0.261762 -0.143228,0 -0.261761,0.118534 -0.261761,0.261762 0,0.143228 0.118533,0.261762 0.261761,0.261762 0.143228,0 0.261762,-0.118534 0.261762,-0.261762 z"
         style="stroke-width:0.264583"
         id="path2350" />
      <path
         d="m 31.722129,-76.729169 c 0,-0.143228 -0.118534,-0.261762 -0.261762,-0.261762 -0.143228,0 -0.261762,0.118534 -0.261762,0.261762 0,0.143228 0.118534,0.261762 0.261762,0.261762 0.143228,0 0.261762,-0.118534 0.261762,-0.261762 z"
         style="stroke-width:0.264583"
         id="path2352" />
    </g>
    <path
       style="fill:none;stroke:#000000;stroke-width:0.25;stroke-linecap:butt;stroke-linejoin:miter;stroke-miterlimit:4;stroke-dasharray:none;stroke-opacity:1;marker-end:url(#marker1333-7)"
       d="m 110.03577,43.815415 v 5.828933"
       id="path1329-8" />
    <path
       style="fill:none;stroke:#000000;stroke-width:0.25;stroke-linecap:butt;stroke-linejoin:miter;stroke-miterlimit:4;stroke-dasharray:none;stroke-opacity:1;marker-end:url(#marker1375-2)"
       d="M 103.87078,43.815415 V 49.79381"
       id="path1371-1" />
    <path
       style="fill:none;stroke:#000000;stroke-width:0.25;stroke-linecap:butt;stroke-linejoin:miter;stroke-miterlimit:4;stroke-dasharray:none;stroke-opacity:1;marker-end:url(#marker1423-9)"
       d="m 85.944889,43.815415 v 5.828933"
       id="path1419-9" />
    <g
       aria-label=". . ."
       transform="scale(-1.0165338,-0.98373515)"
       id="text1303-1-3"
       style="font-size:4.87666px;line-height:1.25;font-family:'Latin Modern Roman';-inkscape-font-specification:'Latin Modern Roman, ';stroke-width:0.261249">
      <path
         d="m -96.131995,-47.550535 c 0,-0.141423 -0.11704,-0.258463 -0.258463,-0.258463 -0.141423,0 -0.258463,0.11704 -0.258463,0.258463 0,0.141423 0.11704,0.258463 0.258463,0.258463 0.141423,0 0.258463,-0.11704 0.258463,-0.258463 z"
         style="stroke-width:0.261249"
         id="path2382" />
      <path
         d="m -93.152365,-47.550535 c 0,-0.141423 -0.11704,-0.258463 -0.258463,-0.258463 -0.141423,0 -0.258463,0.11704 -0.258463,0.258463 0,0.141423 0.11704,0.258463 0.258463,0.258463 0.141423,0 0.258463,-0.11704 0.258463,-0.258463 z"
         style="stroke-width:0.261249"
         id="path2384" />
      <path
         d="m -90.172734,-47.550535 c 0,-0.141423 -0.11704,-0.258463 -0.258463,-0.258463 -0.141424,0 -0.258463,0.11704 -0.258463,0.258463 0,0.141423 0.117039,0.258463 0.258463,0.258463 0.141423,0 0.258463,-0.11704 0.258463,-0.258463 z"
         style="stroke-width:0.261249"
         id="path2386" />
    </g>
    <path
       style="fill:none;stroke:#000000;stroke-width:0.264583px;stroke-linecap:butt;stroke-linejoin:miter;stroke-opacity:1;marker-end:url(#marker1333-4)"
       d="m 115.02203,55.373512 h 8.78795"
       id="path1329-2"
       sodipodi:nodetypes="cc" />
    <path
       style="fill:none;stroke:#000000;stroke-width:0.264583px;stroke-linecap:butt;stroke-linejoin:miter;stroke-opacity:1;marker-end:url(#marker1375-27)"
       d="m 115.02203,61.515625 h 9.26042"
       id="path1371-3"
       sodipodi:nodetypes="cc" />
    <path
       style="fill:none;stroke:#000000;stroke-width:0.264583px;stroke-linecap:butt;stroke-linejoin:miter;stroke-opacity:1;marker-end:url(#marker1423-0)"
       d="m 115.02203,79.375 h 9.07143"
       id="path1419-92"
       sodipodi:nodetypes="cc" />
    <g
       aria-label=". . ."
       transform="rotate(90)"
       id="text1303-1-5"
       style="font-size:4.9389px;line-height:1.25;font-family:'Latin Modern Roman';-inkscape-font-specification:'Latin Modern Roman, ';stroke-width:0.264583">
      <path
         d="m 67.64217,-118.7073 c 0,-0.14323 -0.118534,-0.26176 -0.261762,-0.26176 -0.143228,0 -0.261762,0.11853 -0.261762,0.26176 0,0.14323 0.118534,0.26176 0.261762,0.26176 0.143228,0 0.261762,-0.11853 0.261762,-0.26176 z"
         style="stroke-width:0.264583"
         id="path2428" />
      <path
         d="m 70.659829,-118.7073 c 0,-0.14323 -0.118534,-0.26176 -0.261762,-0.26176 -0.143228,0 -0.261762,0.11853 -0.261762,0.26176 0,0.14323 0.118534,0.26176 0.261762,0.26176 0.143228,0 0.261762,-0.11853 0.261762,-0.26176 z"
         style="stroke-width:0.264583"
         id="path2430" />
      <path
         d="m 73.677487,-118.7073 c 0,-0.14323 -0.118533,-0.26176 -0.261761,-0.26176 -0.143229,0 -0.261762,0.11853 -0.261762,0.26176 0,0.14323 0.118533,0.26176 0.261762,0.26176 0.143228,0 0.261761,-0.11853 0.261761,-0.26176 z"
         style="stroke-width:0.264583"
         id="path2432" />
    </g>
    <path
       style="fill:none;stroke:#000000;stroke-width:0.264583px;stroke-linecap:butt;stroke-linejoin:miter;stroke-opacity:1;marker-end:url(#marker1333-47)"
       d="m 145.35462,55.184524 h 7.37054"
       id="path1329-4" />
    <path
       style="fill:none;stroke:#000000;stroke-width:0.264583px;stroke-linecap:butt;stroke-linejoin:miter;stroke-opacity:1;marker-end:url(#marker1375-8)"
       d="m 145.35462,61.326637 h 7.55952"
       id="path1371-18" />
    <path
       style="fill:none;stroke:#000000;stroke-width:0.264583px;stroke-linecap:butt;stroke-linejoin:miter;stroke-opacity:1;marker-end:url(#marker1423-93)"
       d="m 145.35462,79.186012 h 7.37054"
       id="path1419-8" />
    <g
       aria-label=". . ."
       transform="rotate(90)"
       id="text1303-1-58"
       style="font-size:4.9389px;line-height:1.25;font-family:'Latin Modern Roman';-inkscape-font-specification:'Latin Modern Roman, ';stroke-width:0.264583">
      <path
         d="m 67.453182,-149.0399 c 0,-0.14323 -0.118533,-0.26176 -0.261762,-0.26176 -0.143228,0 -0.261761,0.11853 -0.261761,0.26176 0,0.14323 0.118533,0.26176 0.261761,0.26176 0.143229,0 0.261762,-0.11853 0.261762,-0.26176 z"
         style="stroke-width:0.264583"
         id="path2435" />
      <path
         d="m 70.470841,-149.0399 c 0,-0.14323 -0.118534,-0.26176 -0.261762,-0.26176 -0.143228,0 -0.261762,0.11853 -0.261762,0.26176 0,0.14323 0.118534,0.26176 0.261762,0.26176 0.143228,0 0.261762,-0.11853 0.261762,-0.26176 z"
         style="stroke-width:0.264583"
         id="path2437" />
      <path
         d="m 73.4885,-149.0399 c 0,-0.14323 -0.118534,-0.26176 -0.261762,-0.26176 -0.143228,0 -0.261762,0.11853 -0.261762,0.26176 0,0.14323 0.118534,0.26176 0.261762,0.26176 0.143228,0 0.261762,-0.11853 0.261762,-0.26176 z"
         style="stroke-width:0.264583"
         id="path2439" />
    </g>
    <g
       aria-label="y1"
       id="text1313-9"
       style="font-style:italic;font-variant:normal;font-weight:normal;font-stretch:normal;font-size:4.9389px;line-height:1.25;font-family:'Latin Modern Roman';-inkscape-font-specification:'Latin Modern Roman, Italic';stroke-width:0.264583">
      <path
         d="m 157.51263,56.164524 0.48401,-1.945926 c 0.005,-0.02963 0.0148,-0.05433 0.0148,-0.06914 0,-0.05433 -0.0395,-0.128411 -0.13828,-0.128411 -0.14817,0 -0.18274,0.143228 -0.19262,0.182739 L 157.32,55.655823 c -0.0346,0.143228 -0.23213,0.439562 -0.52352,0.439562 -0.22226,0 -0.26671,-0.217312 -0.26671,-0.380295 0,-0.301273 0.16299,-0.745774 0.28646,-1.08162 0.0395,-0.103716 0.0642,-0.172861 0.0642,-0.2667 0,-0.246945 -0.16299,-0.400051 -0.37536,-0.400051 -0.45932,0 -0.63218,0.730957 -0.63218,0.760591 0,0.04939 0.0494,0.04939 0.0741,0.04939 0.0642,0 0.0692,-0.0099 0.0889,-0.07902 0.0395,-0.153106 0.17287,-0.622301 0.45932,-0.622301 0.0543,0 0.10866,0.01482 0.10866,0.143228 0,0.118533 -0.0494,0.251884 -0.11854,0.444501 -0.12841,0.345723 -0.25682,0.711201 -0.25682,0.968024 0,0.429685 0.28646,0.572913 0.55316,0.572913 0.22719,0 0.38029,-0.118534 0.4445,-0.18274 -0.18768,0.814919 -0.55316,1.03223 -0.8001,1.03223 -0.23707,0 -0.30621,-0.187678 -0.30621,-0.212372 0,0 0.005,-0.0099 0.0395,-0.01482 0.1531,-0.02469 0.21237,-0.158045 0.21237,-0.237067 0,-0.103717 -0.079,-0.158045 -0.16792,-0.158045 -0.0593,0 -0.25189,0.02963 -0.25189,0.306212 0,0.256823 0.2025,0.424745 0.47414,0.424745 0.51364,0 0.96308,-0.508706 1.08656,-0.997658 z"
         style="font-style:italic;font-variant:normal;font-weight:normal;font-stretch:normal;font-family:'Latin Modern Roman';-inkscape-font-specification:'Latin Modern Roman,  Italic';stroke-width:0.264583"
         id="path2470" />
      <path
         d="m 159.20197,57.076492 c 0,-0.03852 -0.0321,-0.03852 -0.0835,-0.03852 h -0.0257 c -0.0417,0 -0.0963,-0.0032 -0.13804,-0.0064 -0.0706,-0.0096 -0.0899,-0.01284 -0.0899,-0.05779 0,-0.01926 0.006,-0.04815 0.01,-0.06099 l 0.45908,-1.833082 c 0.003,-0.0096 0.01,-0.04173 0.01,-0.04173 0,-0.02568 -0.0193,-0.03852 -0.0385,-0.03852 -0.0193,0 -0.0225,0.0032 -0.061,0.05136 -0.2472,0.330661 -0.47192,0.353133 -0.56502,0.362764 -0.016,0.0032 -0.0514,0.0064 -0.0514,0.061 0,0.03852 0.0385,0.03852 0.0514,0.03852 0.0482,0 0.20546,-0.01926 0.35635,-0.131622 l -0.37882,1.521682 c -0.0257,0.102729 -0.0514,0.134832 -0.30177,0.134832 h -0.0257 c -0.0546,0 -0.0899,0 -0.0899,0.061 0,0.03852 0.0353,0.03852 0.0482,0.03852 0.13804,0 0.2825,-0.0096 0.42055,-0.0096 0.14125,0 0.28892,0.0096 0.43018,0.0096 0.0225,0 0.0642,0 0.0642,-0.061 z"
         style="font-size:3.2103px;baseline-shift:sub;stroke-width:0.264583"
         id="path2472" />
    </g>
    <g
       aria-label="y2"
       id="text1317-2"
       style="font-size:4.9389px;line-height:1.25;font-family:'Latin Modern Roman';-inkscape-font-specification:'Latin Modern Roman, ';stroke-width:0.264583">
      <path
         d="m 157.41813,62.023156 0.48401,-1.945927 c 0.005,-0.02963 0.0148,-0.05433 0.0148,-0.06915 0,-0.05433 -0.0395,-0.128411 -0.13829,-0.128411 -0.14817,0 -0.18274,0.143228 -0.19262,0.182739 l -0.36054,1.452037 c -0.0346,0.143228 -0.23213,0.439562 -0.52352,0.439562 -0.22225,0 -0.2667,-0.217312 -0.2667,-0.380295 0,-0.301273 0.16298,-0.745774 0.28645,-1.081619 0.0395,-0.103717 0.0642,-0.172862 0.0642,-0.266701 0,-0.246945 -0.16298,-0.400051 -0.37536,-0.400051 -0.45932,0 -0.63218,0.730957 -0.63218,0.760591 0,0.04939 0.0494,0.04939 0.0741,0.04939 0.0642,0 0.0691,-0.0099 0.0889,-0.07902 0.0395,-0.153106 0.17286,-0.622301 0.45931,-0.622301 0.0543,0 0.10866,0.01482 0.10866,0.143228 0,0.118534 -0.0494,0.251884 -0.11853,0.444501 -0.12841,0.345723 -0.25683,0.711202 -0.25683,0.968024 0,0.429685 0.28646,0.572913 0.55316,0.572913 0.22719,0 0.3803,-0.118534 0.4445,-0.182739 -0.18768,0.814918 -0.55316,1.03223 -0.8001,1.03223 -0.23707,0 -0.30621,-0.187679 -0.30621,-0.212373 0,0 0.005,-0.0099 0.0395,-0.01482 0.15311,-0.02469 0.21237,-0.158045 0.21237,-0.237067 0,-0.103717 -0.079,-0.158045 -0.16792,-0.158045 -0.0593,0 -0.25188,0.02963 -0.25188,0.306212 0,0.256823 0.20249,0.424745 0.47413,0.424745 0.51365,0 0.96309,-0.508706 1.08656,-0.997657 z"
         style="font-style:italic;font-variant:normal;font-weight:normal;font-stretch:normal;font-family:'Latin Modern Roman';-inkscape-font-specification:'Latin Modern Roman,  Italic';stroke-width:0.264583"
         id="path2465" />
      <path
         d="m 159.42209,62.47284 c 0,-0.0321 -0.0257,-0.0321 -0.0482,-0.0321 -0.0385,0 -0.0417,0.0032 -0.0546,0.05457 -0.045,0.131622 -0.17015,0.346713 -0.38524,0.346713 -0.0899,0 -0.21509,-0.02568 -0.26646,-0.03852 -0.11557,-0.02568 -0.24077,-0.05457 -0.34029,-0.05457 -0.0353,0 -0.0642,0.0064 -0.0706,0.0096 0.16051,-0.276086 0.39486,-0.407708 0.49438,-0.465494 0.49439,-0.279296 0.78653,-0.478334 0.78653,-0.892463 0,-0.369185 -0.25041,-0.542541 -0.50081,-0.542541 -0.47513,0 -0.73837,0.648481 -0.73837,0.85715 0,0.06421 0.0193,0.202249 0.16373,0.202249 0.25361,0 0.38844,-0.385236 0.38844,-0.507227 0,-0.05779 -0.0289,-0.170146 -0.0706,-0.170146 -0.0193,0 -0.0353,0.01605 -0.0353,0.03531 0,0 0,0.01284 0.003,0.01926 0.0193,0.03852 0.0321,0.08026 0.0321,0.118781 0,0.0931 -0.11879,0.433391 -0.31461,0.433391 -0.0385,0 -0.0706,-0.01605 -0.0706,-0.10594 0,-0.20867 0.24077,-0.812206 0.63243,-0.812206 0.13162,0 0.2825,0.08668 0.2825,0.353133 0,0.465493 -0.27929,0.735158 -0.59711,0.924566 -0.14446,0.08668 -0.2793,0.163725 -0.41413,0.330661 -0.22472,0.269665 -0.26003,0.497597 -0.26003,0.497597 0,0.0321 0.0321,0.0321 0.0481,0.0321 0.0385,0 0.0449,-0.0064 0.0546,-0.04173 0.0257,-0.08989 0.0835,-0.20546 0.17977,-0.20546 0.10273,0 0.19262,0.06421 0.27288,0.118782 0.0835,0.05779 0.18298,0.128412 0.3114,0.128412 0.36918,0 0.51686,-0.558593 0.51686,-0.593906 z"
         style="font-size:3.2103px;baseline-shift:sub;stroke-width:0.264583"
         id="path2467" />
    </g>
    <g
       aria-label="y3"
       id="text1321-5"
       style="font-size:4.9389px;line-height:1.25;font-family:'Latin Modern Roman';-inkscape-font-specification:'Latin Modern Roman, ';stroke-width:0.264583">
      <path
         d="m 157.70161,79.693543 0.48401,-1.945927 c 0.005,-0.02963 0.0148,-0.05433 0.0148,-0.06914 0,-0.05433 -0.0395,-0.128412 -0.13828,-0.128412 -0.14817,0 -0.18274,0.143228 -0.19262,0.18274 l -0.36054,1.452036 c -0.0346,0.143228 -0.23213,0.439562 -0.52352,0.439562 -0.22226,0 -0.26671,-0.217311 -0.26671,-0.380295 0,-0.301273 0.16299,-0.745774 0.28646,-1.081619 0.0395,-0.103717 0.0642,-0.172862 0.0642,-0.266701 0,-0.246945 -0.16299,-0.400051 -0.37536,-0.400051 -0.45932,0 -0.63218,0.730958 -0.63218,0.760591 0,0.04939 0.0494,0.04939 0.0741,0.04939 0.0642,0 0.0692,-0.0099 0.0889,-0.07902 0.0395,-0.153106 0.17287,-0.622302 0.45932,-0.622302 0.0543,0 0.10866,0.01482 0.10866,0.143228 0,0.118534 -0.0494,0.251884 -0.11854,0.444501 -0.12841,0.345723 -0.25682,0.711202 -0.25682,0.968025 0,0.429684 0.28646,0.572912 0.55316,0.572912 0.22719,0 0.38029,-0.118534 0.4445,-0.182739 -0.18768,0.814918 -0.55316,1.03223 -0.8001,1.03223 -0.23707,0 -0.30621,-0.187678 -0.30621,-0.212373 0,0 0.005,-0.0099 0.0395,-0.01482 0.1531,-0.02469 0.21237,-0.158044 0.21237,-0.237067 0,-0.103717 -0.079,-0.158045 -0.16792,-0.158045 -0.0593,0 -0.25189,0.02963 -0.25189,0.306212 0,0.256823 0.2025,0.424746 0.47414,0.424746 0.51364,0 0.96308,-0.508707 1.08656,-0.997658 z"
         style="font-style:italic;font-variant:normal;font-weight:normal;font-stretch:normal;font-family:'Latin Modern Roman';-inkscape-font-specification:'Latin Modern Roman,  Italic';stroke-width:0.264583"
         id="path2475" />
      <path
         d="m 159.5932,80.014815 c 0,-0.061 -0.0128,-0.295347 -0.25682,-0.407708 0.33387,-0.11236 0.52007,-0.404498 0.52007,-0.64848 0,-0.272876 -0.20867,-0.430181 -0.45908,-0.430181 -0.38202,0 -0.70626,0.337082 -0.70626,0.609957 0,0.112361 0.061,0.20546 0.17977,0.20546 0.11879,0 0.26646,-0.112361 0.26646,-0.272876 0,-0.061 -0.0353,-0.160515 -0.0738,-0.160515 -0.0193,0 -0.0353,0.01605 -0.0353,0.03531 0,0.0096 0.003,0.01605 0.0128,0.03531 0,0 0.0257,0.04494 0.0257,0.0931 0,0.109151 -0.10273,0.199039 -0.19583,0.199039 -0.0642,0 -0.0835,-0.061 -0.0835,-0.118781 0,-0.253614 0.29213,-0.555382 0.60353,-0.555382 0.11878,0 0.27288,0.05778 0.27288,0.288927 0,0.05136 -0.0321,0.654901 -0.5618,0.654901 h -0.0738 c -0.0546,0 -0.0835,0 -0.0835,0.06742 0,0.0321 0.0257,0.0321 0.0803,0.0321 h 0.0899 c 0.061,0 0.24719,0.0064 0.24719,0.266455 0,0.05779 -0.0289,0.375605 -0.19583,0.568223 -0.0899,0.109151 -0.23756,0.189408 -0.38202,0.189408 -0.16052,0 -0.32103,-0.09631 -0.32745,-0.333871 0.13804,0.01284 0.17977,-0.10594 0.17977,-0.154094 0,-0.05136 -0.0353,-0.10273 -0.10915,-0.10273 -0.16372,0 -0.17014,0.192618 -0.17014,0.250403 0,0.218301 0.15409,0.410919 0.42697,0.410919 0.40449,0 0.80899,-0.337082 0.80899,-0.722318 z"
         style="font-size:3.2103px;baseline-shift:sub;stroke-width:0.264583"
         id="path2477" />
    </g>
  </g>
</svg>
