<?xml version="1.0" encoding="UTF-8" standalone="no"?>
<svg
   xmlns:dc="http://purl.org/dc/elements/1.1/"
   xmlns:cc="http://creativecommons.org/ns#"
   xmlns:rdf="http://www.w3.org/1999/02/22-rdf-syntax-ns#"
   xmlns:svg="http://www.w3.org/2000/svg"
   xmlns="http://www.w3.org/2000/svg"
   xmlns:sodipodi="http://sodipodi.sourceforge.net/DTD/sodipodi-0.dtd"
   xmlns:inkscape="http://www.inkscape.org/namespaces/inkscape"
   version="1.1"
   width="48.346512mm"
   height="27.345778mm"
   id="svg1830"
   sodipodi:docname="tristate.svg"
   inkscape:version="1.0.1 (3bc2e813f5, 2020-09-07)">
  <metadata
     id="metadata1836">
    <rdf:RDF>
      <cc:Work
         rdf:about="">
        <dc:format>image/svg+xml</dc:format>
        <dc:type
           rdf:resource="http://purl.org/dc/dcmitype/StillImage" />
        <dc:title></dc:title>
      </cc:Work>
    </rdf:RDF>
  </metadata>
  <defs
     id="defs1834" />
  <sodipodi:namedview
     pagecolor="#ffffff"
     bordercolor="#666666"
     borderopacity="1"
     objecttolerance="10"
     gridtolerance="10"
     guidetolerance="10"
     inkscape:pageopacity="0"
     inkscape:pageshadow="2"
     inkscape:window-width="1920"
     inkscape:window-height="1137"
     id="namedview1832"
     showgrid="false"
     units="mm"
     fit-margin-top="0"
     fit-margin-left="0"
     fit-margin-right="0"
     fit-margin-bottom="0"
     inkscape:zoom="2.3422912"
     inkscape:cx="174.31446"
     inkscape:cy="49.975698"
     inkscape:window-x="-8"
     inkscape:window-y="-8"
     inkscape:window-maximized="1"
     inkscape:current-layer="svg1830" />
  <line
     x1="23.841095"
     y1="22.658207"
     x2="64.635284"
     y2="22.658207"
     style="stroke:#000000;stroke-width:2;stroke-linecap:square;stroke-miterlimit:4;stroke-dasharray:none"
     id="line1826" />
  <path
     d="M 104.84226,22.658208 65.483115,43.649754 V 1.6666665 L 104.84226,22.658208"
     style="fill:#000000;fill-opacity:0;stroke:#000000;stroke-width:2;stroke-linecap:square;stroke-miterlimit:4;stroke-dasharray:none"
     id="path1828"
     sodipodi:nodetypes="cccc" />
  <path
     style="fill:none;stroke:#000000;stroke-width:2;stroke-linecap:butt;stroke-linejoin:miter;stroke-miterlimit:4;stroke-dasharray:none;stroke-opacity:1"
     d="m 104.84226,22.658208 h 40.59733"
     id="path2399" />
  <circle
     style="fill:none;stroke:#000000;stroke-width:2;stroke-linecap:square;stroke-miterlimit:4;stroke-dasharray:none;stop-color:#000000"
     id="path2401"
     cx="84.807358"
     cy="49.758907"
     r="6.0837865" />
  <path
     style="fill:none;stroke:#000000;stroke-width:2;stroke-linecap:butt;stroke-linejoin:miter;stroke-miterlimit:4;stroke-dasharray:none;stroke-opacity:1"
     d="m 84.914085,55.842674 v 24.33515"
     id="path2403" />
  <g
     aria-label="In"
     id="text2407"
     style="font-size:18.6667px;line-height:1.25;font-family:'Latin Modern Roman';-inkscape-font-specification:'Latin Modern Roman, '">
    <path
       d="M 5.6933436,27.375187 V 26.796519 H 5.2080094 c -1.4746693,0 -1.5306694,-0.205333 -1.5306694,-0.877335 v -9.837351 c 0,-0.672001 0.056,-0.877335 1.5306694,-0.877335 h 0.4853342 v -0.578667 c -0.6533345,0.056 -2.1280038,0.056 -2.8373384,0.056 -0.7280013,0 -2.20267066,0 -2.856005176634979,-0.056 v 0.578667 H 0.48533423 c 1.47466937,0 1.53066947,0.205334 1.53066947,0.877335 v 9.837351 c 0,0.672002 -0.056,0.877335 -1.53066947,0.877335 H 2.3365021e-8 v 0.578668 C 0.65333454,27.319187 2.1280039,27.319187 2.8373385,27.319187 c 0.7280013,0 2.2026706,0 2.8560051,0.056 z"
       id="path2432" />
    <path
       d="m 16.202662,27.375187 v -0.578668 c -0.970669,0 -1.437336,0 -1.456003,-0.560001 v -3.56534 c 0,-1.605336 0,-2.184004 -0.578668,-2.856005 -0.261333,-0.317334 -0.877335,-0.690668 -1.960003,-0.690668 -1.362669,0 -2.2400042,0.802668 -2.7626718,1.960004 v -1.960004 l -2.6320048,0.205334 v 0.578668 c 1.3066691,0 1.4560027,0.130667 1.4560027,1.045335 v 5.002676 c 0,0.840001 -0.2053338,0.840001 -1.4560027,0.840001 v 0.578668 l 2.1093372,-0.056 2.0906704,0.056 v -0.578668 c -1.2506689,0 -1.4560026,0 -1.4560026,-0.840001 v -3.434673 c 0,-1.941337 1.3253356,-2.986672 2.5200046,-2.986672 1.176002,0 1.381336,1.008002 1.381336,2.072004 v 4.349341 c 0,0.840001 -0.205334,0.840001 -1.456003,0.840001 v 0.578668 l 2.109337,-0.056 z"
       id="path2434" />
  </g>
  <g
     aria-label="Out"
     id="text2411"
     style="font-size:18.6667px;line-height:1.25;font-family:'Latin Modern Roman';-inkscape-font-specification:'Latin Modern Roman, '">
    <path
       d="m 165.08696,21.95283 c 0,-3.808006 -2.81868,-6.832012 -6.21601,-6.832012 -3.34134,0 -6.19735,2.986672 -6.19735,6.832012 0,3.826674 2.87467,6.738679 6.19735,6.738679 3.39733,0 6.21601,-2.968005 6.21601,-6.738679 z m -1.92267,-0.261333 c 0,4.946675 -2.55734,6.514678 -4.27468,6.514678 -1.792,0 -4.29334,-1.64267 -4.29334,-6.514678 0,-4.834676 2.72534,-6.104011 4.27468,-6.104011 1.624,0 4.29334,1.325335 4.29334,6.104011 z"
       id="path2437" />
    <path
       d="m 176.13764,28.280842 v -0.578668 c -1.30667,0 -1.456,-0.130667 -1.456,-1.045335 V 20.03016 l -2.74401,0.205334 v 0.578668 c 1.30667,0 1.45601,0.130667 1.45601,1.045335 v 3.322673 c 0,1.624002 -0.89601,2.893338 -2.25867,2.893338 -1.56801,0 -1.64267,-0.877335 -1.64267,-1.848003 V 20.03016 l -2.74401,0.205334 v 0.578668 c 1.456,0 1.456,0.056 1.456,1.717336 v 2.800005 c 0,1.456003 0,3.154673 2.83734,3.154673 1.04534,0 1.86667,-0.522668 2.40801,-1.680004 v 1.680004 z"
       id="path2439" />
    <path
       d="m 182.72698,25.966171 v -1.064002 h -0.46667 v 1.026669 c 0,1.381335 -0.56,2.09067 -1.25067,2.09067 -1.25066,0 -1.25066,-1.69867 -1.25066,-2.016004 v -5.189342 h 2.66933 v -0.578668 h -2.66933 v -3.434673 h -0.46667 c -0.0187,1.53067 -0.57867,3.528006 -2.40801,3.602673 v 0.410668 h 1.58667 v 5.152009 c 0,2.296004 1.73601,2.520005 2.40801,2.520005 1.32533,0 1.848,-1.325336 1.848,-2.520005 z"
       id="path2441" />
  </g>
  <g
     aria-label="Enable"
     id="text2415"
     style="font-size:18.6667px;line-height:1.25;font-family:'Latin Modern Roman';-inkscape-font-specification:'Latin Modern Roman, '">
    <path
       d="m 69.610294,98.33278 h -0.466667 c -0.466668,2.87467 -0.896002,4.23734 -4.106674,4.23734 h -2.482671 c -0.877335,0 -0.914669,-0.13067 -0.914669,-0.74667 v -4.984006 h 1.680003 c 1.81067,0 2.016004,0.597334 2.016004,2.184004 h 0.466667 V 94.076772 H 65.33562 c 0,1.605336 -0.205334,2.184004 -2.016004,2.184004 h -1.680003 v -4.480008 c 0,-0.616001 0.03733,-0.746668 0.914669,-0.746668 h 2.408004 c 2.856005,0 3.360006,1.026668 3.658673,3.62134 h 0.466668 L 68.564959,90.455432 H 58.055607 V 91.0341 h 0.448001 c 1.437336,0 1.474669,0.205334 1.474669,0.877335 v 9.781355 c 0,0.672 -0.03733,0.87733 -1.474669,0.87733 h -0.448001 v 0.57867 h 10.770686 z"
       id="path2419" />
    <path
       d="m 80.138308,103.14879 v -0.57867 c -0.970668,0 -1.437336,0 -1.456002,-0.56 v -3.56534 c 0,-1.605336 0,-2.184004 -0.578668,-2.856005 -0.261334,-0.317334 -0.877335,-0.690668 -1.960003,-0.690668 -1.36267,0 -2.240005,0.802668 -2.762672,1.960003 v -1.960003 l -2.632005,0.205334 v 0.578667 c 1.306669,0 1.456003,0.130667 1.456003,1.045336 v 5.002676 c 0,0.84 -0.205334,0.84 -1.456003,0.84 v 0.57867 l 2.109337,-0.056 2.090671,0.056 v -0.57867 c -1.250669,0 -1.456003,0 -1.456003,-0.84 v -3.434674 c 0,-1.941336 1.325336,-2.986672 2.520005,-2.986672 1.176002,0 1.381335,1.008002 1.381335,2.072004 v 4.349342 c 0,0.84 -0.205333,0.84 -1.456002,0.84 v 0.57867 l 2.109337,-0.056 z"
       id="path2421" />
    <path
       d="m 89.54632,101.48745 v -1.04533 h -0.466667 v 1.04533 c 0,1.08267 -0.466668,1.19467 -0.672001,1.19467 -0.616002,0 -0.690668,-0.84 -0.690668,-0.93333 v -3.733344 c 0,-0.784002 0,-1.512003 -0.672002,-2.202671 -0.728001,-0.728001 -1.661336,-1.026668 -2.557338,-1.026668 -1.530669,0 -2.818671,0.877335 -2.818671,2.109337 0,0.560001 0.373334,0.877335 0.858668,0.877335 0.522668,0 0.858668,-0.373334 0.858668,-0.858668 0,-0.224001 -0.09333,-0.840002 -0.952002,-0.858669 0.504001,-0.653334 1.41867,-0.858668 2.016004,-0.858668 0.914668,0 1.97867,0.728001 1.97867,2.389338 v 0.690668 c -0.952001,0.056 -2.25867,0.112 -3.434673,0.672001 -1.400002,0.634668 -1.86667,1.605339 -1.86667,2.426669 0,1.512 1.81067,1.97867 2.986672,1.97867 1.232003,0 2.090671,-0.74667 2.445338,-1.624 0.07467,0.74667 0.578668,1.53067 1.456003,1.53067 0.392001,0 1.530669,-0.26134 1.530669,-1.77334 z m -3.117339,-0.952 c 0,1.77334 -1.344002,2.408 -2.184004,2.408 -0.914668,0 -1.680003,-0.65333 -1.680003,-1.58666 0,-1.02667 0.784002,-2.576009 3.864007,-2.68801 z"
       id="path2423" />
    <path
       d="m 99.588972,99.116781 c 0,-2.370671 -1.829337,-4.218674 -3.957341,-4.218674 -1.456002,0 -2.258671,0.877335 -2.557338,1.213335 v -5.917344 l -2.688005,0.205334 V 90.9781 c 1.306669,0 1.456003,0.130667 1.456003,1.045335 v 11.125355 h 0.466668 l 0.672001,-1.15734 c 0.28,0.42934 1.064002,1.36267 2.445337,1.36267 2.221338,0 4.162675,-1.82933 4.162675,-4.237339 z m -1.549336,-0.01867 c 0,0.690668 -0.03733,1.810666 -0.578668,2.650676 -0.392001,0.57866 -1.101336,1.19466 -2.109337,1.19466 -0.840002,0 -1.512003,-0.448 -1.960004,-1.13866 -0.261334,-0.392 -0.261334,-0.448 -0.261334,-0.78401 v -3.845336 c 0,-0.354667 0,-0.373334 0.205334,-0.672001 0.728001,-1.045335 1.75467,-1.194669 2.202671,-1.194669 0.840001,0 1.512002,0.485335 1.960003,1.194669 0.485334,0.765335 0.541335,1.829337 0.541335,2.594671 z"
       id="path2425" />
    <path
       d="m 105.00231,103.14879 v -0.57867 c -1.25067,0 -1.456,0 -1.456,-0.84 V 90.194098 l -2.68801,0.205334 V 90.9781 c 1.30667,0 1.45601,0.130667 1.45601,1.045335 v 9.706685 c 0,0.84 -0.20534,0.84 -1.45601,0.84 v 0.57867 l 2.07201,-0.056 z"
       id="path2427" />
    <path
       d="m 113.17832,100.92745 c 0,-0.18667 -0.14933,-0.224 -0.24267,-0.224 -0.168,0 -0.20533,0.112 -0.24266,0.26133 -0.65334,1.92267 -2.33334,1.92267 -2.52001,1.92267 -0.93333,0 -1.68,-0.56 -2.10933,-1.25066 -0.56001,-0.89601 -0.56001,-2.128008 -0.56001,-2.800009 h 5.20801 c 0.41067,0 0.46667,0 0.46667,-0.392001 0,-1.848003 -1.008,-3.658673 -3.34134,-3.658673 -2.16534,0 -3.88267,1.92267 -3.88267,4.256007 0,2.501336 1.96,4.312006 4.10667,4.312006 2.27734,0 3.11734,-2.072 3.11734,-2.42667 z m -1.232,-2.48267 h -4.42401 c 0.112,-2.781338 1.68,-3.248006 2.31467,-3.248006 1.92267,0 2.10934,2.520005 2.10934,3.248006 z"
       id="path2429" />
  </g>
  <path
     style="fill:none;stroke:#000000;stroke-width:1px;stroke-linecap:butt;stroke-linejoin:miter;stroke-opacity:1"
     d="M 58.043375,86.846884 H 113.28865"
     id="path2417" />
</svg>
