<?xml version="1.0" encoding="UTF-8" standalone="no"?>
<!-- Created with Inkscape (http://www.inkscape.org/) -->

<svg
   width="82.225662mm"
   height="63.043137mm"
   viewBox="0 0 82.225662 63.043137"
   version="1.1"
   id="svg5"
   inkscape:version="1.1.1 (1:1.1+202109281949+c3084ef5ed)"
   sodipodi:docname="bad-best-first.svg"
   xmlns:inkscape="http://www.inkscape.org/namespaces/inkscape"
   xmlns:sodipodi="http://sodipodi.sourceforge.net/DTD/sodipodi-0.dtd"
   xmlns="http://www.w3.org/2000/svg"
   xmlns:svg="http://www.w3.org/2000/svg">
  <sodipodi:namedview
     id="namedview7"
     pagecolor="#ffffff"
     bordercolor="#666666"
     borderopacity="1.0"
     inkscape:pageshadow="2"
     inkscape:pageopacity="0.0"
     inkscape:pagecheckerboard="0"
     inkscape:document-units="mm"
     showgrid="false"
     inkscape:snap-smooth-nodes="false"
     fit-margin-top="2"
     lock-margins="true"
     fit-margin-left="2"
     fit-margin-right="2"
     fit-margin-bottom="2"
     inkscape:zoom="2.5620932"
     inkscape:cx="165.29454"
     inkscape:cy="136.80221"
     inkscape:window-width="1920"
     inkscape:window-height="1135"
     inkscape:window-x="0"
     inkscape:window-y="0"
     inkscape:window-maximized="1"
     inkscape:current-layer="layer1" />
  <defs
     id="defs2">
    <marker
       style="overflow:visible"
       id="Arrow1Mend"
       refX="0"
       refY="0"
       orient="auto"
       inkscape:stockid="Arrow1Mend"
       inkscape:isstock="true">
      <path
         transform="matrix(-0.4,0,0,-0.4,-4,0)"
         style="fill:context-stroke;fill-rule:evenodd;stroke:context-stroke;stroke-width:1pt"
         d="M 0,0 5,-5 -12.5,0 5,5 Z"
         id="path1663" />
    </marker>
    <marker
       style="overflow:visible"
       id="Arrow1Mend-7"
       refX="0"
       refY="0"
       orient="auto"
       inkscape:stockid="Arrow1Mend"
       inkscape:isstock="true">
      <path
         transform="matrix(-0.4,0,0,-0.4,-4,0)"
         style="fill:context-stroke;fill-rule:evenodd;stroke:context-stroke;stroke-width:1pt"
         d="M 0,0 5,-5 -12.5,0 5,5 Z"
         id="path1663-0" />
    </marker>
    <marker
       style="overflow:visible"
       id="Arrow1Mend-3"
       refX="0"
       refY="0"
       orient="auto"
       inkscape:stockid="Arrow1Mend"
       inkscape:isstock="true">
      <path
         transform="matrix(-0.4,0,0,-0.4,-4,0)"
         style="fill:context-stroke;fill-rule:evenodd;stroke:context-stroke;stroke-width:1pt"
         d="M 0,0 5,-5 -12.5,0 5,5 Z"
         id="path1663-6" />
    </marker>
    <marker
       style="overflow:visible"
       id="Arrow1Mend-6"
       refX="0"
       refY="0"
       orient="auto"
       inkscape:stockid="Arrow1Mend"
       inkscape:isstock="true">
      <path
         transform="matrix(-0.4,0,0,-0.4,-4,0)"
         style="fill:context-stroke;fill-rule:evenodd;stroke:context-stroke;stroke-width:1pt"
         d="M 0,0 5,-5 -12.5,0 5,5 Z"
         id="path1663-2" />
    </marker>
    <marker
       style="overflow:visible"
       id="Arrow1Mend-1"
       refX="0"
       refY="0"
       orient="auto"
       inkscape:stockid="Arrow1Mend"
       inkscape:isstock="true">
      <path
         transform="matrix(-0.4,0,0,-0.4,-4,0)"
         style="fill:context-stroke;fill-rule:evenodd;stroke:context-stroke;stroke-width:1pt"
         d="M 0,0 5,-5 -12.5,0 5,5 Z"
         id="path1663-8" />
    </marker>
    <marker
       style="overflow:visible"
       id="Arrow1Mend-9"
       refX="0"
       refY="0"
       orient="auto"
       inkscape:stockid="Arrow1Mend"
       inkscape:isstock="true">
      <path
         transform="matrix(-0.4,0,0,-0.4,-4,0)"
         style="fill:context-stroke;fill-rule:evenodd;stroke:context-stroke;stroke-width:1pt"
         d="M 0,0 5,-5 -12.5,0 5,5 Z"
         id="path1663-20" />
    </marker>
  </defs>
  <g
     inkscape:label="Layer 1"
     inkscape:groupmode="layer"
     id="layer1"
     transform="translate(-22.433333,-3.739512)">
    <circle
       style="fill:none;fill-opacity:1;stroke:#1a1a1a;stroke-width:0.265;stroke-miterlimit:4;stroke-dasharray:none"
       id="path1349"
       cx="26.606905"
       cy="29.22053"
       r="2.0410721" />
    <circle
       style="fill:none;fill-opacity:1;stroke:#1a1a1a;stroke-width:0.265;stroke-miterlimit:4;stroke-dasharray:none"
       id="path1349-3"
       cx="26.606905"
       cy="15.136705"
       r="2.0410721" />
    <circle
       style="fill:none;fill-opacity:1;stroke:#1a1a1a;stroke-width:0.265;stroke-miterlimit:4;stroke-dasharray:none"
       id="path1349-6"
       cx="26.606905"
       cy="58.966267"
       r="2.0410721" />
    <circle
       style="fill:#2ca02c;fill-opacity:1;stroke:#1a1a1a;stroke-width:0.265;stroke-miterlimit:4;stroke-dasharray:none"
       id="path1349-7"
       cx="63.07526"
       cy="58.966267"
       r="2.0410721" />
    <circle
       style="fill:#ffcc00;fill-opacity:1;stroke:#1a1a1a;stroke-width:0.265;stroke-miterlimit:4;stroke-dasharray:none"
       id="path1349-5"
       cx="58.99049"
       cy="29.22053"
       r="2.0410721" />
    <circle
       style="fill:#d40000;fill-opacity:1;stroke:#1a1a1a;stroke-width:0.265;stroke-miterlimit:4;stroke-dasharray:none"
       id="path1349-35"
       cx="58.99049"
       cy="38.840813"
       r="2.0410721" />
    <circle
       style="fill:#d40000;fill-opacity:1;stroke:#1a1a1a;stroke-width:0.265;stroke-miterlimit:4;stroke-dasharray:none"
       id="path1349-62"
       cx="58.99049"
       cy="49.141541"
       r="2.0410721" />
    <circle
       style="fill:#d40000;fill-opacity:1;stroke:#1a1a1a;stroke-width:0.265;stroke-miterlimit:4;stroke-dasharray:none"
       id="path1349-9"
       cx="74.786407"
       cy="49.141541"
       r="2.0410721" />
    <circle
       style="fill:#d40000;fill-opacity:1;stroke:#1a1a1a;stroke-width:0.265;stroke-miterlimit:4;stroke-dasharray:none"
       id="path1349-1"
       cx="74.786407"
       cy="38.828053"
       r="2.0410721" />
    <circle
       style="fill:none;fill-opacity:1;stroke:#1a1a1a;stroke-width:0.265;stroke-miterlimit:4;stroke-dasharray:none"
       id="path1349-2"
       cx="87.125481"
       cy="29.22053"
       r="2.0410721" />
    <path
       style="fill:none;stroke:#000000;stroke-width:0.264583px;stroke-linecap:butt;stroke-linejoin:miter;stroke-opacity:1;marker-end:url(#Arrow1Mend)"
       d="M 56.949416,29.22053 H 28.647977"
       id="path1652" />
    <path
       style="fill:none;stroke:#000000;stroke-width:0.264583px;stroke-linecap:butt;stroke-linejoin:miter;stroke-opacity:1;marker-end:url(#Arrow1Mend)"
       d="m 58.990489,31.261603 v 5.538136"
       id="path1922" />
    <path
       style="fill:#aa0000;stroke:#d40000;stroke-width:0.264583px;stroke-linecap:butt;stroke-linejoin:miter;stroke-opacity:1;marker-end:url(#Arrow1Mend-7)"
       d="m 57.60456,31.261605 v 5.538136"
       id="path1922-9" />
    <path
       style="fill:none;stroke:#000000;stroke-width:0.264583px;stroke-linecap:butt;stroke-linejoin:miter;stroke-opacity:1;marker-end:url(#Arrow1Mend)"
       d="m 58.990489,40.881884 v 6.218584"
       id="path1924" />
    <path
       style="fill:none;stroke:#d40000;stroke-width:0.264583px;stroke-linecap:butt;stroke-linejoin:miter;stroke-opacity:1;marker-end:url(#Arrow1Mend-3)"
       d="m 57.771866,40.881884 v 6.218584"
       id="path1924-0" />
    <path
       style="fill:none;stroke:#000000;stroke-width:0.264583px;stroke-linecap:butt;stroke-linejoin:miter;stroke-opacity:1;marker-end:url(#Arrow1Mend)"
       d="M 61.031561,49.141541 H 72.745335"
       id="path1926" />
    <path
       style="fill:none;stroke:#d40000;stroke-width:0.264583px;stroke-linecap:butt;stroke-linejoin:miter;stroke-opacity:1;marker-end:url(#Arrow1Mend-6)"
       d="M 61.031561,50.454454 H 72.745335"
       id="path1926-6" />
    <path
       style="fill:none;stroke:#000000;stroke-width:0.264583px;stroke-linecap:butt;stroke-linejoin:miter;stroke-opacity:1;marker-end:url(#Arrow1Mend)"
       d="M 74.786407,47.100468 V 40.869123"
       id="path1928" />
    <path
       style="fill:none;stroke:#aa0000;stroke-width:0.264583px;stroke-linecap:butt;stroke-linejoin:miter;stroke-opacity:1;marker-end:url(#Arrow1Mend-1)"
       d="M 76.130888,47.100468 V 40.869123"
       id="path1928-7" />
    <path
       style="fill:none;stroke:#000000;stroke-width:0.264583px;stroke-linecap:butt;stroke-linejoin:miter;stroke-opacity:1;marker-end:url(#Arrow1Mend)"
       d="m 72.745335,38.828051 -11.713774,0.01275"
       id="path1930" />
    <path
       style="fill:none;stroke:#d40000;stroke-width:0.264583px;stroke-linecap:butt;stroke-linejoin:miter;stroke-opacity:1;marker-end:url(#Arrow1Mend-9)"
       d="m 72.745335,37.503133 -11.713774,0.01275"
       id="path1930-2" />
    <path
       style="fill:none;stroke:#000000;stroke-width:0.264583px;stroke-linecap:butt;stroke-linejoin:miter;stroke-opacity:1;marker-end:url(#Arrow1Mend)"
       d="M 61.031561,29.22053 H 85.084408"
       id="path1932" />
    <path
       style="fill:none;stroke:#000000;stroke-width:0.264583px;stroke-linecap:butt;stroke-linejoin:miter;stroke-opacity:1;marker-end:url(#Arrow1Mend)"
       d="M 89.166551,29.22053 H 101.45605"
       id="path1934" />
    <path
       style="fill:none;stroke:#000000;stroke-width:0.264583px;stroke-linecap:butt;stroke-linejoin:miter;stroke-opacity:1;marker-end:url(#Arrow1Mend)"
       d="M 87.125481,27.179458 V 12.63349"
       id="path1936" />
    <path
       style="fill:none;stroke:#000000;stroke-width:0.264583px;stroke-linecap:butt;stroke-linejoin:miter;stroke-opacity:1;marker-end:url(#Arrow1Mend)"
       d="M 87.125481,31.261603 V 43.721377"
       id="path1938" />
    <path
       style="fill:none;stroke:#000000;stroke-width:0.264583px;stroke-linecap:butt;stroke-linejoin:miter;stroke-opacity:1;marker-end:url(#Arrow1Mend)"
       d="M 26.606904,27.179458 V 17.177777"
       id="path1940" />
    <path
       style="fill:none;stroke:#000000;stroke-width:0.264583px;stroke-linecap:butt;stroke-linejoin:miter;stroke-opacity:1;marker-end:url(#Arrow1Mend)"
       d="m 26.606904,31.261603 v 25.66359"
       id="path1942" />
    <path
       style="fill:none;stroke:#000000;stroke-width:0.264583px;stroke-linecap:butt;stroke-linejoin:miter;stroke-opacity:1;marker-end:url(#Arrow1Mend)"
       d="M 28.647977,58.966266 H 61.034188"
       id="path1944" />
    <path
       style="fill:none;stroke:#000000;stroke-width:0.264583px;stroke-linecap:butt;stroke-linejoin:miter;stroke-opacity:1;marker-end:url(#Arrow1Mend)"
       d="M 28.647977,15.136705 H 38.82323"
       id="path1946" />
    <path
       style="fill:none;stroke:#000000;stroke-width:0.264583px;stroke-linecap:butt;stroke-linejoin:miter;stroke-opacity:1;marker-end:url(#Arrow1Mend)"
       d="M 26.606904,13.095633 V 6.3350428"
       id="path1948" />
    <g
       aria-label="Start"
       id="text6824"
       style="font-size:4.23333px;line-height:1.25;font-family:manrope;-inkscape-font-specification:manrope;stroke-width:0.264583">
      <path
         d="m 55.15193,26.350579 q -0.319617,0 -0.575733,-0.105833 -0.254,-0.10795 -0.421217,-0.3048 -0.165099,-0.19685 -0.215899,-0.467783 l 0.317499,-0.05292 q 0.0762,0.296333 0.321733,0.465667 0.245534,0.167216 0.586317,0.167216 0.224366,0 0.402166,-0.06985 0.1778,-0.07197 0.2794,-0.2032 0.1016,-0.131233 0.1016,-0.311149 0,-0.118534 -0.04233,-0.201084 -0.04233,-0.08467 -0.112183,-0.1397 -0.06985,-0.05503 -0.1524,-0.09102 -0.08255,-0.0381 -0.160866,-0.06138 L 54.70743,24.74403 q -0.1397,-0.04022 -0.258233,-0.1016 -0.118533,-0.0635 -0.207433,-0.150283 -0.08678,-0.0889 -0.135467,-0.207433 -0.04868,-0.118533 -0.04868,-0.270933 0,-0.258233 0.135466,-0.446617 0.135467,-0.188383 0.370417,-0.289983 0.23495,-0.1016 0.535516,-0.09948 0.3048,0 0.543983,0.10795 0.2413,0.10795 0.397933,0.309033 0.156633,0.198967 0.207433,0.472016 l -0.325966,0.05927 q -0.03175,-0.198966 -0.14605,-0.345016 -0.1143,-0.14605 -0.2921,-0.224367 -0.175683,-0.08043 -0.38735,-0.08255 -0.205316,0 -0.366183,0.06985 -0.15875,0.06773 -0.251883,0.186267 -0.09313,0.118533 -0.09313,0.270933 0,0.154516 0.08467,0.24765 0.08678,0.09313 0.211666,0.146049 0.127,0.05292 0.245533,0.08678 l 0.5969,0.175683 q 0.09313,0.0254 0.218016,0.07408 0.127,0.04657 0.245533,0.135467 0.12065,0.08678 0.198967,0.2286 0.07832,0.141816 0.07832,0.359833 0,0.211666 -0.08467,0.378883 -0.08255,0.167216 -0.23495,0.281516 -0.150283,0.1143 -0.353483,0.173567 -0.201083,0.06138 -0.440266,0.06138 z"
         id="path23583" />
      <path
         d="m 57.948039,26.287079 q -0.192616,0.04022 -0.380999,0.03175 -0.186267,-0.0085 -0.334433,-0.08043 -0.14605,-0.07197 -0.22225,-0.224367 -0.06138,-0.127 -0.06773,-0.256116 -0.0042,-0.131234 -0.0042,-0.29845 v -2.093382 h 0.309033 v 2.080682 q 0,0.143933 0.0021,0.2413 0.0042,0.09525 0.04445,0.169333 0.0762,0.141816 0.2413,0.169333 0.167216,0.02752 0.412749,-0.0127 z m -1.498598,-2.019298 v -0.2667 h 1.498598 v 0.2667 z"
         id="path23585" />
      <path
         d="m 59.052936,26.350579 q -0.258233,0 -0.433916,-0.09313 -0.173567,-0.09313 -0.26035,-0.24765 -0.08678,-0.154517 -0.08678,-0.33655 0,-0.186266 0.07408,-0.3175 0.0762,-0.13335 0.205316,-0.218016 0.131234,-0.08467 0.302683,-0.129117 0.173567,-0.04233 0.383117,-0.07408 0.211666,-0.03387 0.412749,-0.05715 0.2032,-0.0254 0.3556,-0.04868 l -0.110066,0.06773 q 0.0063,-0.338666 -0.131234,-0.50165 -0.137583,-0.162983 -0.478366,-0.162983 -0.23495,0 -0.397933,0.105833 -0.160866,0.105834 -0.226483,0.334434 l -0.302683,-0.0889 q 0.07832,-0.306917 0.315383,-0.47625 0.237066,-0.169333 0.615949,-0.169333 0.313267,0 0.531283,0.118533 0.220133,0.116417 0.31115,0.338666 0.04233,0.09948 0.05503,0.22225 0.0127,0.122767 0.0127,0.249767 v 1.420282 h -0.277283 v -0.573616 l 0.08043,0.03387 q -0.116416,0.294217 -0.361949,0.448733 -0.245533,0.154517 -0.588433,0.154517 z m 0.03598,-0.268817 q 0.218017,0 0.381,-0.07832 0.162983,-0.07832 0.262466,-0.213783 0.09948,-0.137584 0.129117,-0.309033 0.0254,-0.110067 0.02752,-0.2413 0.0021,-0.13335 0.0021,-0.198967 l 0.118533,0.06138 q -0.158749,0.02117 -0.345016,0.04233 -0.18415,0.02117 -0.364066,0.04868 -0.1778,0.02752 -0.321733,0.06562 -0.09737,0.02752 -0.188384,0.07832 -0.09102,0.04868 -0.150283,0.131234 -0.05715,0.08255 -0.05715,0.205316 0,0.09948 0.04868,0.192617 0.0508,0.09313 0.160866,0.154516 0.112183,0.06138 0.296333,0.06138 z"
         id="path23587" />
      <path
         d="m 60.750493,26.287079 v -2.285998 h 0.2794 v 0.550333 l -0.05503,-0.07197 q 0.0381,-0.1016 0.09948,-0.186266 0.06138,-0.08678 0.133349,-0.141817 0.0889,-0.07832 0.207434,-0.118533 0.118533,-0.04233 0.239183,-0.04868 0.12065,-0.0085 0.220133,0.01693 v 0.2921 q -0.124883,-0.03175 -0.27305,-0.01482 -0.148166,0.01693 -0.27305,0.118533 -0.1143,0.0889 -0.17145,0.213783 -0.05715,0.122767 -0.0762,0.262467 -0.01905,0.137583 -0.01905,0.273049 v 1.140883 z"
         id="path23589" />
      <path
         d="m 63.521201,26.287079 q -0.192617,0.04022 -0.381,0.03175 -0.186267,-0.0085 -0.334433,-0.08043 -0.14605,-0.07197 -0.22225,-0.224367 -0.06138,-0.127 -0.06773,-0.256116 -0.0042,-0.131234 -0.0042,-0.29845 v -2.093382 h 0.309033 v 2.080682 q 0,0.143933 0.0021,0.2413 0.0042,0.09525 0.04445,0.169333 0.0762,0.141816 0.2413,0.169333 0.167216,0.02752 0.41275,-0.0127 z m -1.498599,-2.019298 v -0.2667 h 1.498599 v 0.2667 z"
         id="path23591" />
    </g>
    <g
       aria-label="Goal"
       id="text9702"
       style="font-size:4.23333px;line-height:1.25;font-family:manrope;-inkscape-font-specification:manrope;stroke-width:0.264583">
      <path
         d="m 60.505865,64.782647 q -0.321733,0 -0.579966,-0.112184 -0.258233,-0.112183 -0.440266,-0.319616 -0.179917,-0.207433 -0.275167,-0.499533 -0.09525,-0.294216 -0.09525,-0.656166 0,-0.478366 0.1651,-0.833966 0.167217,-0.357716 0.478366,-0.554566 0.31115,-0.19685 0.747183,-0.19685 0.486833,0 0.791633,0.2286 0.306916,0.226483 0.427566,0.609599 l -0.313266,0.0762 q -0.09948,-0.2794 -0.328083,-0.446616 -0.226484,-0.167217 -0.56515,-0.167217 -0.357716,-0.0021 -0.594783,0.160867 -0.237066,0.160866 -0.357716,0.452966 -0.118533,0.289983 -0.12065,0.670983 -0.0021,0.381 0.116417,0.670983 0.120649,0.287866 0.359833,0.452966 0.239183,0.162983 0.596899,0.1651 0.328083,0 0.541866,-0.127 0.213783,-0.127 0.32385,-0.364066 0.112183,-0.237067 0.127,-0.560917 h -0.702733 v -0.266699 h 1.028699 q 0.0064,0.04868 0.0064,0.103716 0.0021,0.05292 0.0021,0.0762 0,0.41275 -0.148167,0.738716 -0.148166,0.32385 -0.446616,0.512233 -0.296333,0.186267 -0.745066,0.186267 z"
         id="path23619" />
      <path
         d="m 63.223662,64.782647 q -0.340783,0 -0.582082,-0.154517 -0.2413,-0.154516 -0.370417,-0.427566 -0.129116,-0.27305 -0.129116,-0.626533 0,-0.359833 0.131233,-0.630766 0.131233,-0.270933 0.372533,-0.421216 0.243416,-0.1524 0.577849,-0.1524 0.3429,0 0.5842,0.154516 0.243416,0.1524 0.370416,0.42545 0.129117,0.270933 0.129117,0.624416 0,0.359833 -0.129117,0.632883 -0.129116,0.270933 -0.372533,0.423333 -0.243416,0.1524 -0.582083,0.1524 z m 0,-0.29845 q 0.381,0 0.567267,-0.251883 0.186266,-0.254 0.186266,-0.658283 0,-0.414866 -0.188383,-0.660399 -0.186267,-0.245534 -0.56515,-0.245534 -0.256116,0 -0.423333,0.116417 -0.165099,0.1143 -0.247649,0.319616 -0.08043,0.2032 -0.08043,0.4699 0,0.41275 0.1905,0.662516 0.1905,0.24765 0.560916,0.24765 z"
         id="path23621" />
      <path
         d="m 65.427108,64.782647 q -0.258233,0 -0.433917,-0.09313 -0.173566,-0.09313 -0.260349,-0.247649 -0.08678,-0.154517 -0.08678,-0.33655 0,-0.186267 0.07408,-0.3175 0.0762,-0.13335 0.205316,-0.218016 0.131233,-0.08467 0.302683,-0.129117 0.173567,-0.04233 0.383116,-0.07408 0.211667,-0.03387 0.41275,-0.05715 0.2032,-0.0254 0.3556,-0.04868 l -0.110067,0.06773 q 0.0063,-0.338666 -0.131233,-0.50165 -0.137583,-0.162983 -0.478366,-0.162983 -0.23495,0 -0.397933,0.105833 -0.160867,0.105834 -0.226483,0.334433 l -0.302683,-0.0889 q 0.07832,-0.306916 0.315383,-0.476249 0.237066,-0.169333 0.615949,-0.169333 0.313267,0 0.531283,0.118533 0.220133,0.116417 0.31115,0.338666 0.04233,0.09948 0.05503,0.22225 0.0127,0.122767 0.0127,0.249767 v 1.420282 h -0.277283 v -0.573616 l 0.08043,0.03387 q -0.116416,0.294217 -0.36195,0.448733 -0.245533,0.154517 -0.588432,0.154517 z m 0.03598,-0.268817 q 0.218016,0 0.381,-0.07832 0.162983,-0.07832 0.262466,-0.213784 0.09948,-0.137583 0.129117,-0.309033 0.0254,-0.110066 0.02752,-0.241299 0.0021,-0.13335 0.0021,-0.198967 l 0.118533,0.06138 q -0.15875,0.02117 -0.345016,0.04233 -0.18415,0.02117 -0.364067,0.04868 -0.177799,0.02752 -0.321733,0.06562 -0.09737,0.02752 -0.188383,0.07832 -0.09102,0.04868 -0.150283,0.131233 -0.05715,0.08255 -0.05715,0.205317 0,0.09948 0.04868,0.192616 0.0508,0.09313 0.160867,0.154517 0.112183,0.06138 0.296333,0.06138 z"
         id="path23623" />
      <path
         d="m 67.166998,64.719147 v -3.111498 h 0.31115 v 3.111498 z"
         id="path23625" />
    </g>
    <g
       aria-label="Network of Tunnels, drawn to scale"
       id="text15985"
       style="font-size:4.23333px;line-height:1.25;font-family:manrope;-inkscape-font-specification:manrope;stroke-width:0.264583">
      <path
         d="M 35.413971,8.8510094 V 5.8030119 h 0.313266 l 1.678515,2.4976646 V 5.8030119 h 0.313267 V 8.8510094 H 37.405752 L 35.727237,6.3512281 v 2.4997813 z"
         id="path23524" />
      <path
         d="m 39.279,8.9145093 q -0.334433,0 -0.579966,-0.1481665 -0.243417,-0.1481666 -0.378883,-0.416983 -0.135467,-0.2688164 -0.135467,-0.6307661 0,-0.3746497 0.13335,-0.6476995 0.13335,-0.2730498 0.37465,-0.4212163 0.243416,-0.1481666 0.573616,-0.1481666 0.338666,0 0.577849,0.1566332 0.239183,0.1545166 0.36195,0.4444997 0.122767,0.2899831 0.112183,0.6921494 h -0.3175 V 7.684727 q -0.0085,-0.4444996 -0.192616,-0.6709828 -0.182033,-0.2264831 -0.5334,-0.2264831 -0.368299,0 -0.565149,0.2391831 -0.194733,0.2391832 -0.194733,0.6815661 0,0.4317997 0.194733,0.6709828 0.19685,0.2370665 0.556683,0.2370665 0.245533,0 0.427566,-0.1121833 0.18415,-0.1142999 0.289983,-0.328083 l 0.289983,0.1121832 Q 40.138366,8.5864263 39.873783,8.7515261 39.611316,8.9145093 39.279,8.9145093 Z M 38.404817,7.7947936 V 7.5344438 h 1.746249 v 0.2603498 z"
         id="path23526" />
      <path
         d="m 42.030661,8.8510094 q -0.192616,0.040217 -0.380999,0.03175 -0.186267,-0.00847 -0.334433,-0.080433 -0.14605,-0.071967 -0.22225,-0.2243665 -0.06138,-0.1269999 -0.06773,-0.2561165 -0.0042,-0.1312332 -0.0042,-0.2984497 V 5.9300118 h 0.309033 v 2.0806816 q 0,0.1439332 0.0021,0.2412998 0.0042,0.09525 0.04445,0.1693332 0.0762,0.1418165 0.2413,0.1693332 0.167216,0.027517 0.412749,-0.0127 z M 40.532063,6.8317111 V 6.5650113 h 1.498598 v 0.2666998 z"
         id="path23528" />
      <path
         d="m 42.968341,8.8510094 -0.698499,-2.2881148 0.311149,0.00212 0.541866,1.7758818 0.543983,-1.7758818 h 0.283633 l 0.543983,1.7758818 0.5461,-1.7758818 h 0.309033 L 44.65109,8.8510094 H 44.380156 L 43.808657,7.0306776 43.239274,8.8510094 Z"
         id="path23530" />
      <path
         d="m 46.600535,8.9145093 q -0.340783,0 -0.582082,-0.1545165 -0.2413,-0.1545166 -0.370417,-0.4275663 -0.129116,-0.2730498 -0.129116,-0.6265328 0,-0.3598331 0.131233,-0.6307662 0.131233,-0.2709331 0.372533,-0.4212163 0.243416,-0.1523999 0.577849,-0.1523999 0.3429,0 0.5842,0.1545166 0.243416,0.1523999 0.370416,0.4254496 0.129117,0.2709331 0.129117,0.6244162 0,0.359833 -0.129117,0.6328828 -0.129116,0.2709331 -0.372533,0.4233329 -0.243416,0.1523999 -0.582083,0.1523999 z m 0,-0.2984497 q 0.381,0 0.567267,-0.2518832 0.186266,-0.2539997 0.186266,-0.6582827 0,-0.4148664 -0.188383,-0.6603995 -0.186267,-0.2455331 -0.56515,-0.2455331 -0.256116,0 -0.423333,0.1164166 -0.165099,0.1142999 -0.247649,0.3196164 -0.08043,0.2031998 -0.08043,0.4698996 0,0.4127496 0.1905,0.6625161 0.1905,0.2476498 0.560916,0.2476498 z"
         id="path23532" />
      <path
         d="M 48.149932,8.8510094 V 6.5650113 h 0.279399 v 0.5503329 l -0.05503,-0.071967 q 0.0381,-0.1016 0.09948,-0.1862666 0.06138,-0.086783 0.13335,-0.1418165 0.0889,-0.078317 0.207433,-0.1185332 0.118534,-0.042333 0.239184,-0.048683 0.120649,-0.00847 0.220133,0.016933 V 6.857111 q -0.124883,-0.03175 -0.27305,-0.014817 -0.148167,0.016933 -0.27305,0.1185332 -0.1143,0.0889 -0.17145,0.2137832 -0.05715,0.1227665 -0.0762,0.2624664 -0.01905,0.1375832 -0.01905,0.2730498 V 8.851009 Z"
         id="path23534" />
      <path
         d="m 49.673924,8.8510094 0.0021,-3.0479975 h 0.313267 V 7.665677 l 1.020232,-1.1006657 h 0.414867 l -1.071033,1.142999 1.210732,1.1429991 h -0.45295 L 49.989307,7.7503436 v 1.1006658 z"
         id="path23536" />
      <path
         d="m 53.577043,8.9145093 q -0.340783,0 -0.582083,-0.1545165 -0.2413,-0.1545166 -0.370417,-0.4275663 -0.129116,-0.2730498 -0.129116,-0.6265328 0,-0.3598331 0.131233,-0.6307662 0.131233,-0.2709331 0.372533,-0.4212163 0.243417,-0.1523999 0.57785,-0.1523999 0.342899,0 0.584199,0.1545166 0.243417,0.1523999 0.370416,0.4254496 0.129117,0.2709331 0.129117,0.6244162 0,0.359833 -0.129117,0.6328828 -0.129116,0.2709331 -0.372533,0.4233329 -0.243416,0.1523999 -0.582082,0.1523999 z m 0,-0.2984497 q 0.380999,0 0.567266,-0.2518832 0.186266,-0.2539997 0.186266,-0.6582827 0,-0.4148664 -0.188383,-0.6603995 -0.186266,-0.2455331 -0.565149,-0.2455331 -0.256117,0 -0.423333,0.1164166 -0.1651,0.1142999 -0.24765,0.3196164 -0.08043,0.2031998 -0.08043,0.4698996 0,0.4127496 0.190499,0.6625161 0.1905,0.2476498 0.560917,0.2476498 z"
         id="path23538" />
      <path
         d="M 55.352921,8.8510094 V 6.3956781 q 0,-0.0889 0.0085,-0.1756832 0.01058,-0.086783 0.04022,-0.1650998 0.02963,-0.080433 0.09313,-0.1481666 0.06985,-0.0762 0.152399,-0.1100666 0.08255,-0.035983 0.17145,-0.046567 0.09102,-0.010583 0.1778,-0.010583 h 0.2921 v 0.2624664 h -0.270933 q -0.1778,0 -0.2667,0.086783 -0.08678,0.086783 -0.08678,0.2730498 V 8.8510094 Z M 54.957105,6.8317111 V 6.5650113 h 1.331382 v 0.2666998 z"
         id="path23540" />
      <path
         d="M 58.284496,8.8510094 V 6.1014617 H 57.219814 V 5.8030119 h 2.440515 v 0.2984498 h -1.064683 v 2.7495477 z"
         id="path23542" />
      <path
         d="m 60.6615,8.9081593 q -0.205317,0 -0.359833,-0.0635 -0.1524,-0.0635 -0.26035,-0.1714499 Q 59.935484,8.5652596 59.869867,8.4276764 59.80425,8.2879765 59.774617,8.13346 59.744984,7.9768268 59.744984,7.8223102 V 6.5650113 h 0.313266 v 1.1662823 q 0,0.1883832 0.03598,0.3492498 0.03598,0.1608665 0.1143,0.2815164 0.08043,0.1185332 0.205317,0.1841498 0.127,0.065617 0.306916,0.065617 0.1651,0 0.289983,-0.05715 0.127,-0.05715 0.211667,-0.1629832 0.08678,-0.1079499 0.131233,-0.2603498 0.04445,-0.1545165 0.04445,-0.347133 l 0.220133,0.048683 q 0,0.3513663 -0.122766,0.5905495 -0.122767,0.2391831 -0.338667,0.3619497 -0.2159,0.1227665 -0.495299,0.1227665 z m 0.768349,-0.05715 V 8.2879765 h -0.03175 V 6.5650113 h 0.31115 v 2.2859981 z"
         id="path23544" />
      <path
         d="M 63.952913,8.8510094 V 7.684727 q 0,-0.1904998 -0.03598,-0.3492497 Q 63.880953,7.1746108 63.800517,7.0560775 63.722197,6.9354276 63.5952,6.869811 63.470317,6.804194 63.2904,6.804194 q -0.165099,0 -0.292099,0.05715 -0.124883,0.05715 -0.211667,0.1650998 -0.08467,0.1058333 -0.129116,0.2582332 -0.04445,0.1523998 -0.04445,0.347133 L 62.392935,7.583127 q 0,-0.3513664 0.122766,-0.5905495 0.122767,-0.2391831 0.338667,-0.3619497 0.215899,-0.1227666 0.495299,-0.1227666 0.205317,0 0.357716,0.0635 0.154517,0.0635 0.26035,0.1714498 0.10795,0.10795 0.173567,0.2476498 0.06562,0.1375833 0.09525,0.2942165 0.02963,0.1545165 0.02963,0.309033 v 1.257299 z m -1.653116,0 V 6.5650113 h 0.281517 v 0.5630329 h 0.03175 v 1.7229652 z"
         id="path23546" />
      <path
         d="M 66.467511,8.8510094 V 7.684727 q 0,-0.1904998 -0.03598,-0.3492497 -0.03598,-0.1608665 -0.116416,-0.2793998 -0.07832,-0.1206499 -0.205317,-0.1862665 -0.124883,-0.065617 -0.3048,-0.065617 -0.1651,0 -0.292099,0.05715 -0.124884,0.05715 -0.211667,0.1650998 -0.08467,0.1058333 -0.129116,0.2582332 -0.04445,0.1523998 -0.04445,0.347133 L 64.907532,7.583127 q 0,-0.3513664 0.122767,-0.5905495 0.122767,-0.2391831 0.338666,-0.3619497 0.2159,-0.1227666 0.4953,-0.1227666 0.205316,0 0.357716,0.0635 0.154517,0.0635 0.26035,0.1714498 0.10795,0.10795 0.173567,0.2476498 0.06562,0.1375833 0.09525,0.2942165 0.02963,0.1545165 0.02963,0.309033 v 1.257299 z m -1.653115,0 V 6.5650113 h 0.281517 v 0.5630329 h 0.03175 v 1.7229652 z"
         id="path23548" />
      <path
         d="m 68.2836,8.9145093 q -0.334433,0 -0.579966,-0.1481665 -0.243417,-0.1481666 -0.378883,-0.416983 -0.135467,-0.2688164 -0.135467,-0.6307661 0,-0.3746497 0.13335,-0.6476995 0.13335,-0.2730498 0.37465,-0.4212163 0.243416,-0.1481666 0.573616,-0.1481666 0.338666,0 0.577849,0.1566332 0.239183,0.1545166 0.36195,0.4444997 0.122767,0.2899831 0.112183,0.6921494 H 69.005383 V 7.684727 q -0.0085,-0.4444996 -0.192617,-0.6709828 -0.182033,-0.2264831 -0.5334,-0.2264831 -0.368299,0 -0.565149,0.2391831 -0.194733,0.2391832 -0.194733,0.6815661 0,0.4317997 0.194733,0.6709828 0.19685,0.2370665 0.556683,0.2370665 0.245533,0 0.427566,-0.1121833 0.18415,-0.1142999 0.289983,-0.328083 l 0.289983,0.1121832 Q 69.142966,8.5864263 68.878383,8.7515261 68.615916,8.9145093 68.2836,8.9145093 Z M 67.409417,7.7947936 V 7.5344438 h 1.746249 v 0.2603498 z"
         id="path23550" />
      <path
         d="M 69.832998,8.8510094 V 5.739512 h 0.311149 v 3.1114974 z"
         id="path23552" />
      <path
         d="m 71.63216,8.9123927 q -0.402166,0 -0.662516,-0.1735666 -0.258233,-0.1735665 -0.3175,-0.4825996 l 0.3175,-0.052917 q 0.0508,0.1947332 0.230716,0.3111498 0.182034,0.1142999 0.448733,0.1142999 0.26035,0 0.410633,-0.10795 0.150284,-0.1100665 0.150284,-0.2984497 0,-0.1058332 -0.04868,-0.1714499 -0.04657,-0.067733 -0.192616,-0.1248832 -0.14605,-0.05715 -0.436033,-0.1354665 -0.31115,-0.084667 -0.486833,-0.1693332 -0.175683,-0.084667 -0.249767,-0.1947332 -0.07408,-0.1121832 -0.07408,-0.2730498 0,-0.1947331 0.110067,-0.340783 0.110066,-0.1481666 0.304799,-0.2285998 0.194734,-0.08255 0.452967,-0.08255 0.258233,0 0.461433,0.084667 0.205316,0.08255 0.330199,0.2328332 0.124884,0.1502832 0.148167,0.3492497 l -0.3175,0.05715 q -0.03176,-0.2010832 -0.20109,-0.3174998 -0.167217,-0.1185332 -0.42545,-0.1227666 -0.243416,-0.00635 -0.395816,0.093133 -0.1524,0.097367 -0.1524,0.2603498 0,0.091017 0.05503,0.1566332 0.05503,0.0635 0.198967,0.1206499 0.14605,0.05715 0.414866,0.1248832 0.315383,0.080433 0.4953,0.1693332 0.179916,0.0889 0.256116,0.2095498 0.0762,0.1206499 0.0762,0.2984498 0,0.3238497 -0.2413,0.5101162 -0.239183,0.1841499 -0.660399,0.1841499 z"
         id="path23554" />
      <path
         d="m 72.959307,9.2933923 0.01905,-0.1545165 q 0.08467,0.00635 0.122766,-0.033867 0.0381,-0.040217 0.04657,-0.10795 0.0085,-0.067733 0.0042,-0.1460498 H 72.959307 V 8.4043931 h 0.361949 V 8.935676 q 0,0.1947331 -0.09948,0.2920997 -0.09737,0.097367 -0.262466,0.065617 z"
         id="path23556" />
      <path
         d="m 75.85913,8.9145093 q -0.319616,0 -0.546099,-0.1587499 -0.226483,-0.1608665 -0.347133,-0.4339163 -0.12065,-0.2730497 -0.12065,-0.6159494 0,-0.3407831 0.118533,-0.6138329 0.12065,-0.2730497 0.345017,-0.4317996 0.224366,-0.1587499 0.537632,-0.1587499 0.321734,0 0.541867,0.1566332 0.220133,0.1566332 0.332316,0.429683 0.1143,0.2709331 0.1143,0.6180662 0,0.340783 -0.112183,0.6159494 -0.112184,0.2730498 -0.3302,0.4339163 -0.218016,0.1587499 -0.5334,0.1587499 z m 0.03175,-0.2899831 q 0.243417,0 0.402167,-0.1185332 0.15875,-0.1185332 0.237066,-0.3259664 0.07832,-0.2095498 0.07832,-0.4741329 0,-0.2688165 -0.07832,-0.474133 Q 76.451797,7.0243276 76.293047,6.907911 76.136414,6.7914944 75.89723,6.7914944 q -0.245533,0 -0.406399,0.1206499 -0.160867,0.1206499 -0.239183,0.3280831 -0.0762,0.2074331 -0.0762,0.4656663 0,0.2603497 0.07832,0.4698996 0.08043,0.2074331 0.239183,0.328083 0.15875,0.1206499 0.397933,0.1206499 z m 0.71755,0.2264832 V 7.1301608 H 76.57456 V 5.8030119 h 0.313267 v 3.0479975 z"
         id="path23558" />
      <path
         d="M 77.480488,8.8510094 V 6.5650113 h 0.279399 v 0.5503329 l -0.05503,-0.071967 q 0.0381,-0.1016 0.09948,-0.1862666 0.06138,-0.086783 0.13335,-0.1418165 0.0889,-0.078317 0.207433,-0.1185332 0.118534,-0.042333 0.239184,-0.048683 0.120649,-0.00847 0.220133,0.016933 V 6.857111 q -0.124884,-0.03175 -0.27305,-0.014817 -0.148167,0.016933 -0.27305,0.1185332 -0.1143,0.0889 -0.17145,0.2137832 -0.05715,0.1227665 -0.0762,0.2624664 -0.01905,0.1375832 -0.01905,0.2730498 V 8.851009 Z"
         id="path23560" />
      <path
         d="m 79.575978,8.9145093 q -0.258233,0 -0.433917,-0.093133 -0.173566,-0.093133 -0.260349,-0.2476498 -0.08678,-0.1545166 -0.08678,-0.3365497 0,-0.1862666 0.07408,-0.3174998 0.0762,-0.1333499 0.205316,-0.2180165 0.131233,-0.084667 0.302683,-0.1291165 0.173567,-0.042333 0.383116,-0.074083 0.211667,-0.033867 0.41275,-0.05715 0.2032,-0.0254 0.3556,-0.048683 L 80.41841,7.4603605 Q 80.42476,7.1216942 80.287177,6.958711 80.149594,6.7957278 79.808811,6.7957278 q -0.23495,0 -0.397933,0.1058332 -0.160867,0.1058333 -0.226483,0.3344331 l -0.302683,-0.0889 q 0.07832,-0.3069164 0.315383,-0.4762496 0.237066,-0.1693332 0.615949,-0.1693332 0.313266,0 0.531283,0.1185333 0.220133,0.1164165 0.31115,0.3386664 0.04233,0.099483 0.05503,0.2222498 0.0127,0.1227665 0.0127,0.2497664 v 1.4202822 h -0.27728 V 8.2773932 l 0.08043,0.033867 q -0.116416,0.2942164 -0.36195,0.448733 -0.245533,0.1545165 -0.588432,0.1545165 z m 0.03598,-0.2688164 q 0.218016,0 0.381,-0.078317 0.162983,-0.078317 0.262466,-0.2137832 0.09948,-0.1375832 0.129117,-0.3090331 0.0254,-0.1100665 0.02752,-0.2412997 0.0021,-0.1333499 0.0021,-0.1989665 l 0.118533,0.061383 q -0.15875,0.021167 -0.345016,0.042333 -0.18415,0.021167 -0.364067,0.048683 -0.177799,0.027517 -0.321733,0.065617 -0.09737,0.027517 -0.188383,0.078317 -0.09102,0.048683 -0.150283,0.1312333 -0.05715,0.08255 -0.05715,0.2053165 0,0.099483 0.04868,0.1926165 0.0508,0.093133 0.160867,0.1545165 0.112183,0.061383 0.296333,0.061383 z"
         id="path23562" />
      <path
         d="m 81.675702,8.8510094 -0.698499,-2.2881148 0.311149,0.00212 0.541867,1.7758818 0.543983,-1.7758818 h 0.283633 l 0.543983,1.7758818 0.546099,-1.7758818 h 0.309033 l -0.698499,2.2859981 h -0.270933 l -0.5715,-1.8203318 -0.569383,1.8203318 z"
         id="path23564" />
      <path
         d="M 86.088945,8.8510094 V 7.684727 q 0,-0.1904998 -0.03598,-0.3492497 Q 86.016985,7.1746108 85.936549,7.0560775 85.858229,6.9354276 85.731232,6.869811 85.606349,6.804194 85.426433,6.804194 q -0.1651,0 -0.2921,0.05715 Q 85.00945,6.918494 84.922666,7.0264438 84.837996,7.1322771 84.79355,7.284677 84.7491,7.4370768 84.7491,7.63181 L 84.528967,7.583127 q 0,-0.3513664 0.122766,-0.5905495 0.122767,-0.2391831 0.338667,-0.3619497 0.215899,-0.1227666 0.495299,-0.1227666 0.205317,0 0.357717,0.0635 0.154516,0.0635 0.260349,0.1714498 0.10795,0.10795 0.173567,0.2476498 0.06562,0.1375833 0.09525,0.2942165 0.02963,0.1545165 0.02963,0.309033 v 1.257299 z m -1.653116,0 V 6.5650113 h 0.281517 v 0.5630329 h 0.03175 v 1.7229652 z"
         id="path23566" />
      <path
         d="m 89.043805,8.8510094 q -0.192617,0.040217 -0.381,0.03175 -0.186267,-0.00847 -0.334433,-0.080433 -0.14605,-0.071967 -0.22225,-0.2243665 -0.06138,-0.1269999 -0.06773,-0.2561165 -0.0042,-0.1312332 -0.0042,-0.2984497 V 5.9300118 h 0.309033 v 2.0806816 q 0,0.1439332 0.0021,0.2412998 0.0042,0.09525 0.04445,0.1693332 0.0762,0.1418165 0.2413,0.1693332 0.167216,0.027517 0.41275,-0.0127 z M 87.545206,6.8317111 V 6.5650113 h 1.498599 v 0.2666998 z"
         id="path23568" />
      <path
         d="m 90.3646,8.9145093 q -0.340783,0 -0.582083,-0.1545165 -0.241299,-0.1545166 -0.370416,-0.4275663 -0.129117,-0.2730498 -0.129117,-0.6265328 0,-0.3598331 0.131234,-0.6307662 0.131233,-0.2709331 0.372533,-0.4212163 0.243416,-0.1523999 0.577849,-0.1523999 0.3429,0 0.5842,0.1545166 0.243416,0.1523999 0.370416,0.4254496 0.129117,0.2709331 0.129117,0.6244162 0,0.359833 -0.129117,0.6328828 Q 91.1901,8.6097096 90.946683,8.7621094 90.703267,8.9145093 90.3646,8.9145093 Z m 0,-0.2984497 q 0.381,0 0.567266,-0.2518832 0.186267,-0.2539997 0.186267,-0.6582827 0,-0.4148664 -0.188383,-0.6603995 -0.186267,-0.2455331 -0.56515,-0.2455331 -0.256116,0 -0.423333,0.1164166 -0.1651,0.1142999 -0.24765,0.3196164 -0.08043,0.2031998 -0.08043,0.4698996 0,0.4127496 0.1905,0.6625161 0.1905,0.2476498 0.560916,0.2476498 z"
         id="path23570" />
      <path
         d="m 93.613674,8.9123927 q -0.402166,0 -0.662516,-0.1735666 -0.258233,-0.1735665 -0.3175,-0.4825996 l 0.3175,-0.052917 q 0.0508,0.1947332 0.230716,0.3111498 0.182034,0.1142999 0.448733,0.1142999 0.26035,0 0.410633,-0.10795 0.150283,-0.1100665 0.150283,-0.2984497 0,-0.1058332 -0.04868,-0.1714499 -0.04657,-0.067733 -0.192616,-0.1248832 -0.14605,-0.05715 -0.436033,-0.1354665 -0.31115,-0.084667 -0.486833,-0.1693332 -0.175683,-0.084667 -0.249767,-0.1947332 -0.07408,-0.1121832 -0.07408,-0.2730498 0,-0.1947331 0.110067,-0.340783 0.110066,-0.1481666 0.304799,-0.2285998 0.194734,-0.08255 0.452967,-0.08255 0.258233,0 0.461433,0.084667 0.205316,0.08255 0.330199,0.2328332 0.124884,0.1502832 0.148167,0.3492497 l -0.3175,0.05715 Q 94.16189,7.0243276 93.992557,6.907911 93.82534,6.7893778 93.567107,6.7851444 q -0.243416,-0.00635 -0.395816,0.093133 -0.1524,0.097367 -0.1524,0.2603498 0,0.091017 0.05503,0.1566332 0.05503,0.0635 0.198967,0.1206499 0.14605,0.05715 0.414866,0.1248832 0.315383,0.080433 0.4953,0.1693332 0.179916,0.0889 0.256116,0.2095498 0.0762,0.1206499 0.0762,0.2984498 0,0.3238497 -0.2413,0.5101162 -0.239183,0.1841499 -0.660399,0.1841499 z"
         id="path23572" />
      <path
         d="m 95.93142,8.9145093 q -0.345016,0 -0.5842,-0.1545165 -0.239183,-0.1545166 -0.364066,-0.4254497 -0.122766,-0.2730497 -0.127,-0.6265328 0.0042,-0.359833 0.131233,-0.6307661 0.127,-0.2730498 0.366183,-0.423333 0.239184,-0.1523999 0.579967,-0.1523999 0.347133,0 0.603249,0.1693332 0.258233,0.1693332 0.353483,0.4635496 l -0.3048,0.097367 Q 96.505036,7.0264442 96.329353,6.914261 96.155786,6.7999611 95.93142,6.7999611 q -0.251883,0 -0.416983,0.1164166 -0.1651,0.1142999 -0.245533,0.3196164 -0.08043,0.2053165 -0.08255,0.4720162 0.0042,0.410633 0.1905,0.6603995 0.186266,0.2476498 0.554566,0.2476498 0.232833,0 0.395816,-0.1058333 0.1651,-0.1079499 0.249767,-0.3132664 l 0.313266,0.093133 q -0.127,0.3047997 -0.372533,0.4656662 -0.245533,0.1587499 -0.586316,0.1587502 z"
         id="path23574" />
      <path
         d="m 97.965523,8.9145093 q -0.258233,0 -0.433916,-0.093133 -0.173567,-0.093133 -0.26035,-0.2476498 -0.08678,-0.1545166 -0.08678,-0.3365497 0,-0.1862666 0.07408,-0.3174998 0.0762,-0.1333499 0.205316,-0.2180165 0.131234,-0.084667 0.302684,-0.1291165 0.173566,-0.042333 0.383116,-0.074083 0.211666,-0.033867 0.41275,-0.05715 0.203199,-0.0254 0.355599,-0.048683 l -0.110066,0.067733 q 0.0063,-0.3386663 -0.131234,-0.5016495 -0.137583,-0.1629832 -0.478366,-0.1629832 -0.23495,0 -0.397933,0.1058332 -0.160866,0.1058333 -0.226483,0.3344331 l -0.302683,-0.0889 q 0.07832,-0.3069164 0.315383,-0.4762496 0.237067,-0.1693332 0.61595,-0.1693332 0.313266,0 0.531282,0.1185333 0.220134,0.1164165 0.31115,0.3386664 0.04233,0.099483 0.05503,0.2222498 0.0127,0.1227665 0.0127,0.2497664 v 1.4202817 h -0.27728 V 8.2773932 l 0.08043,0.033867 q -0.116417,0.2942164 -0.36195,0.448733 -0.245533,0.1545165 -0.588433,0.1545165 z m 0.03598,-0.2688164 q 0.218017,0 0.381,-0.078317 0.162983,-0.078317 0.262466,-0.2137832 0.09948,-0.1375832 0.129117,-0.3090331 0.0254,-0.1100665 0.02752,-0.2412997 0.0021,-0.1333499 0.0021,-0.1989665 l 0.118534,0.061383 q -0.15875,0.021167 -0.345017,0.042333 -0.18415,0.021167 -0.364066,0.048683 -0.1778,0.027517 -0.321733,0.065617 -0.09737,0.027517 -0.188383,0.078317 -0.09102,0.048683 -0.150284,0.1312333 -0.05715,0.08255 -0.05715,0.2053165 0,0.099483 0.04868,0.1926165 0.0508,0.093133 0.160866,0.1545165 0.112184,0.061383 0.296333,0.061383 z"
         id="path23576" />
      <path
         d="M 99.705411,8.8510094 V 5.739512 h 0.311149 v 3.1114974 z"
         id="path23578" />
      <path
         d="m 101.61887,8.9145093 q -0.33443,0 -0.57996,-0.1481665 -0.24342,-0.1481666 -0.37889,-0.416983 -0.13546,-0.2688164 -0.13546,-0.6307661 0,-0.3746497 0.13335,-0.6476995 0.13335,-0.2730498 0.37465,-0.4212163 0.24341,-0.1481666 0.57361,-0.1481666 0.33867,0 0.57785,0.1566332 0.23919,0.1545166 0.36195,0.4444997 0.12277,0.2899831 0.11219,0.6921494 h -0.3175 V 7.684727 q -0.008,-0.4444996 -0.19262,-0.6709828 -0.18203,-0.2264831 -0.5334,-0.2264831 -0.3683,0 -0.56515,0.2391831 -0.19473,0.2391832 -0.19473,0.6815661 0,0.4317997 0.19473,0.6709828 0.19685,0.2370665 0.55668,0.2370665 0.24554,0 0.42757,-0.1121833 0.18415,-0.1142999 0.28998,-0.328083 l 0.28999,0.1121832 q -0.13547,0.2984498 -0.40005,0.4635496 -0.26247,0.1629832 -0.59479,0.1629832 z M 100.74469,7.7947936 V 7.5344438 h 1.74625 v 0.2603498 z"
         id="path23580" />
    </g>
    <g
       aria-label="Explored
path"
       id="text19901"
       style="font-size:4.23333px;line-height:1.25;font-family:manrope;-inkscape-font-specification:manrope;text-align:end;text-anchor:end;fill:#d40000;stroke-width:0.264583">
      <path
         d="M 37.829239,41.545517 V 38.49752 h 1.904998 v 0.298449 h -1.593848 v 1.054099 h 1.339849 v 0.29845 h -1.339849 v 1.098549 h 1.593848 v 0.29845 z"
         id="path23594" />
      <path
         d="m 39.988236,41.545517 0.893233,-1.155699 -0.874183,-1.130299 h 0.372533 l 0.683683,0.891116 0.677332,-0.891116 h 0.372533 l -0.874182,1.130299 0.895349,1.155699 h -0.37465 l -0.696382,-0.916516 -0.700616,0.916516 z"
         id="path23596" />
      <path
         d="m 43.499777,41.609017 q -0.315383,0 -0.5334,-0.15875 -0.218016,-0.160866 -0.3302,-0.433916 -0.112183,-0.275167 -0.112183,-0.61595 0,-0.347133 0.112183,-0.618066 0.1143,-0.27305 0.334433,-0.429683 0.220134,-0.156633 0.541867,-0.156633 0.313266,0 0.537633,0.15875 0.224366,0.15875 0.342899,0.431799 0.12065,0.27305 0.12065,0.613833 0,0.3429 -0.12065,0.61595 -0.12065,0.27305 -0.347133,0.433916 -0.226483,0.15875 -0.546099,0.15875 z m -1.028699,0.952499 v -3.301997 h 0.279399 v 1.720848 h 0.03387 v 1.581149 z m 0.996949,-1.242482 q 0.239183,0 0.397933,-0.12065 0.15875,-0.12065 0.237066,-0.328083 0.08043,-0.20955 0.08043,-0.4699 0,-0.258233 -0.07832,-0.465666 -0.07832,-0.207433 -0.239183,-0.328083 -0.15875,-0.12065 -0.404283,-0.12065 -0.239183,0 -0.397933,0.116417 -0.156634,0.116416 -0.23495,0.323849 -0.07832,0.205317 -0.07832,0.474133 0,0.264583 0.07832,0.474133 0.07832,0.207433 0.237066,0.325967 0.15875,0.118533 0.402167,0.118533 z"
         id="path23598" />
      <path
         d="M 45.021655,41.545517 V 38.43402 h 0.31115 v 3.111497 z"
         id="path23600" />
      <path
         d="m 46.922418,41.609017 q -0.340783,0 -0.582083,-0.154517 -0.2413,-0.154516 -0.370416,-0.427566 -0.129117,-0.27305 -0.129117,-0.626533 0,-0.359833 0.131233,-0.630766 0.131234,-0.270933 0.372533,-0.421216 0.243417,-0.1524 0.57785,-0.1524 0.3429,0 0.584199,0.154516 0.243417,0.1524 0.370417,0.42545 0.129116,0.270933 0.129116,0.624416 0,0.359833 -0.129116,0.632883 -0.129117,0.270933 -0.372533,0.423333 -0.243417,0.1524 -0.582083,0.1524 z m 0,-0.29845 q 0.381,0 0.567266,-0.251883 0.186267,-0.254 0.186267,-0.658283 0,-0.414866 -0.188384,-0.660399 -0.186266,-0.245533 -0.565149,-0.245533 -0.256116,0 -0.423333,0.116416 -0.1651,0.1143 -0.24765,0.319617 -0.08043,0.203199 -0.08043,0.469899 0,0.41275 0.1905,0.662516 0.1905,0.24765 0.560916,0.24765 z"
         id="path23602" />
      <path
         d="m 48.471813,41.545517 v -2.285998 h 0.2794 v 0.550333 l -0.05503,-0.07197 q 0.0381,-0.1016 0.09948,-0.186266 0.06138,-0.08678 0.13335,-0.141817 0.0889,-0.07832 0.207433,-0.118533 0.118533,-0.04233 0.239183,-0.04868 0.12065,-0.0085 0.220133,0.01693 v 0.2921 q -0.124883,-0.03175 -0.273049,-0.01482 -0.148167,0.01693 -0.27305,0.118533 -0.1143,0.0889 -0.17145,0.213783 -0.05715,0.122767 -0.0762,0.262467 -0.01905,0.137583 -0.01905,0.27305 v 1.140882 z"
         id="path23604" />
      <path
         d="m 50.922903,41.609017 q -0.334433,0 -0.579966,-0.148167 -0.243416,-0.148166 -0.378883,-0.416983 -0.135466,-0.268816 -0.135466,-0.630766 0,-0.374649 0.133349,-0.647699 0.13335,-0.27305 0.37465,-0.421217 0.243417,-0.148166 0.573616,-0.148166 0.338667,0 0.57785,0.156633 0.239183,0.154517 0.36195,0.4445 0.122766,0.289983 0.112183,0.692149 h -0.3175 v -0.110066 q -0.0085,-0.4445 -0.192616,-0.670983 -0.182034,-0.226483 -0.5334,-0.226483 -0.3683,0 -0.56515,0.239183 -0.194733,0.239183 -0.194733,0.681566 0,0.4318 0.194733,0.670983 0.19685,0.237066 0.556683,0.237066 0.245533,0 0.427567,-0.112183 0.184149,-0.1143 0.289983,-0.328083 l 0.289983,0.112183 q -0.135467,0.29845 -0.40005,0.46355 -0.262466,0.162983 -0.594783,0.162983 z m -0.874182,-1.119716 v -0.26035 h 1.746248 v 0.26035 z"
         id="path23606" />
      <path
         d="m 53.316849,41.609017 q -0.319617,0 -0.5461,-0.15875 -0.226483,-0.160866 -0.347133,-0.433916 -0.12065,-0.27305 -0.12065,-0.61595 0,-0.340783 0.118533,-0.613833 0.12065,-0.273049 0.345017,-0.431799 0.224366,-0.15875 0.537633,-0.15875 0.321733,0 0.541866,0.156633 0.220133,0.156633 0.332316,0.429683 0.1143,0.270933 0.1143,0.618066 0,0.340783 -0.112183,0.61595 -0.112183,0.27305 -0.3302,0.433916 -0.218016,0.15875 -0.533399,0.15875 z m 0.03175,-0.289983 q 0.243416,0 0.402166,-0.118533 0.15875,-0.118534 0.237066,-0.325967 0.07832,-0.20955 0.07832,-0.474133 0,-0.268816 -0.07832,-0.474133 -0.07832,-0.207433 -0.237066,-0.323849 -0.156633,-0.116417 -0.395816,-0.116417 -0.245534,0 -0.4064,0.12065 -0.160867,0.12065 -0.239183,0.328083 -0.0762,0.207433 -0.0762,0.465666 0,0.26035 0.07832,0.4699 0.08043,0.207433 0.239184,0.328083 0.158749,0.12065 0.397933,0.12065 z m 0.717549,0.226483 v -1.720849 h -0.03387 V 38.49752 h 0.313267 v 3.047997 z"
         id="path23608" />
      <path
         d="m 46.897015,46.900679 q -0.315383,0 -0.5334,-0.15875 -0.218016,-0.160866 -0.3302,-0.433916 -0.112183,-0.275166 -0.112183,-0.61595 0,-0.347133 0.112183,-0.618066 0.1143,-0.273049 0.334433,-0.429683 0.220134,-0.156633 0.541867,-0.156633 0.313266,0 0.537633,0.15875 0.224366,0.15875 0.342899,0.4318 0.12065,0.273049 0.12065,0.613832 0,0.3429 -0.12065,0.61595 -0.12065,0.27305 -0.347133,0.433916 -0.226483,0.15875 -0.546099,0.15875 z m -1.028699,0.952499 v -3.301997 h 0.279399 v 1.720849 h 0.03387 v 1.581148 z m 0.996949,-1.242482 q 0.239183,0 0.397933,-0.12065 0.15875,-0.12065 0.237066,-0.328083 0.08043,-0.20955 0.08043,-0.4699 0,-0.258233 -0.07832,-0.465666 -0.07832,-0.207433 -0.239183,-0.328083 -0.15875,-0.12065 -0.404283,-0.12065 -0.239183,0 -0.397933,0.116417 -0.156633,0.116416 -0.23495,0.32385 -0.07832,0.205316 -0.07832,0.474132 0,0.264584 0.07832,0.474133 0.07832,0.207434 0.237066,0.325967 0.15875,0.118533 0.402167,0.118533 z"
         id="path23610" />
      <path
         d="m 49.030609,46.900679 q -0.258233,0 -0.433916,-0.09313 -0.173567,-0.09313 -0.26035,-0.24765 -0.08678,-0.154516 -0.08678,-0.33655 0,-0.186266 0.07408,-0.317499 0.0762,-0.13335 0.205316,-0.218017 0.131233,-0.08467 0.302683,-0.129116 0.173567,-0.04233 0.383117,-0.07408 0.211666,-0.03387 0.412749,-0.05715 0.2032,-0.0254 0.3556,-0.04868 l -0.110067,0.06773 q 0.0063,-0.338666 -0.131233,-0.501649 -0.137583,-0.162983 -0.478366,-0.162983 -0.23495,0 -0.397933,0.105833 -0.160867,0.105833 -0.226483,0.334433 l -0.302683,-0.0889 q 0.07832,-0.306916 0.315383,-0.47625 0.237066,-0.169333 0.615949,-0.169333 0.313267,0 0.531283,0.118533 0.220133,0.116417 0.31115,0.338667 0.04233,0.09948 0.05503,0.22225 0.0127,0.122766 0.0127,0.249766 v 1.420282 H 49.900555 V 46.26357 l 0.08043,0.03387 q -0.116416,0.294216 -0.361949,0.448733 -0.245533,0.154516 -0.588433,0.154516 z m 0.03598,-0.268816 q 0.218017,0 0.381,-0.07832 0.162983,-0.07832 0.262466,-0.213783 0.09948,-0.137583 0.129117,-0.309033 0.0254,-0.110067 0.02752,-0.2413 0.0021,-0.13335 0.0021,-0.198966 l 0.118533,0.06138 q -0.15875,0.02117 -0.345016,0.04233 -0.18415,0.02117 -0.364066,0.04868 -0.1778,0.02752 -0.321733,0.06562 -0.09737,0.02752 -0.188384,0.07832 -0.09102,0.04868 -0.150283,0.131233 -0.05715,0.08255 -0.05715,0.205316 0,0.09948 0.04868,0.192617 0.0508,0.09313 0.160867,0.154516 0.112183,0.06138 0.296333,0.06138 z"
         id="path23612" />
      <path
         d="m 51.972765,46.837179 q -0.192617,0.04022 -0.381,0.03175 -0.186266,-0.0085 -0.334433,-0.08043 -0.14605,-0.07197 -0.22225,-0.224367 -0.06138,-0.126999 -0.06773,-0.256116 -0.0042,-0.131233 -0.0042,-0.29845 v -2.093381 h 0.309033 v 2.080681 q 0,0.143933 0.0021,0.2413 0.0042,0.09525 0.04445,0.169333 0.0762,0.141817 0.2413,0.169333 0.167217,0.02752 0.41275,-0.0127 z m -1.498599,-2.019298 v -0.2667 h 1.498599 v 0.2667 z"
         id="path23614" />
      <path
         d="m 54.074611,46.837179 v -1.166282 q 0,-0.1905 -0.03598,-0.34925 -0.03598,-0.160866 -0.116416,-0.2794 -0.07832,-0.12065 -0.205317,-0.186266 -0.124883,-0.06562 -0.3048,-0.06562 -0.165099,0 -0.292099,0.05715 -0.124883,0.05715 -0.211667,0.1651 -0.08467,0.105833 -0.129116,0.258233 -0.04445,0.1524 -0.04445,0.347133 l -0.220133,-0.04868 q 0,-0.351366 0.122766,-0.59055 0.122767,-0.239183 0.338667,-0.361949 0.215899,-0.122767 0.495299,-0.122767 0.205317,0 0.357716,0.0635 0.154517,0.0635 0.26035,0.17145 0.10795,0.10795 0.173567,0.24765 0.06562,0.137583 0.09525,0.294216 0.02963,0.154517 0.02963,0.309033 v 1.257299 z m -1.653116,0 v -3.047997 h 0.281517 v 1.720848 h 0.03175 v 1.327149 z"
         id="path23616" />
    </g>
  </g>
</svg>
