<?xml version="1.0" encoding="UTF-8" standalone="no"?>
<svg
   xmlns:dc="http://purl.org/dc/elements/1.1/"
   xmlns:cc="http://creativecommons.org/ns#"
   xmlns:rdf="http://www.w3.org/1999/02/22-rdf-syntax-ns#"
   xmlns:svg="http://www.w3.org/2000/svg"
   xmlns="http://www.w3.org/2000/svg"
   xmlns:sodipodi="http://sodipodi.sourceforge.net/DTD/sodipodi-0.dtd"
   xmlns:inkscape="http://www.inkscape.org/namespaces/inkscape"
   width="156.78262mm"
   height="43.766251mm"
   viewBox="0 0 156.78262 43.766251"
   version="1.1"
   id="svg11086"
   inkscape:version="1.0.1 (3bc2e813f5, 2020-09-07)"
   sodipodi:docname="representations.svg">
  <metadata
     id="metadata1774">
    <rdf:RDF>
      <cc:Work
         rdf:about="">
        <dc:format>image/svg+xml</dc:format>
        <dc:type
           rdf:resource="http://purl.org/dc/dcmitype/StillImage" />
      </cc:Work>
    </rdf:RDF>
  </metadata>
  <sodipodi:namedview
     id="namedview11088"
     pagecolor="#ffffff"
     bordercolor="#666666"
     borderopacity="1.0"
     inkscape:pageshadow="2"
     inkscape:pageopacity="0.0"
     inkscape:pagecheckerboard="0"
     inkscape:document-units="mm"
     showgrid="false"
     lock-margins="true"
     fit-margin-top="3"
     fit-margin-left="3"
     fit-margin-right="3"
     fit-margin-bottom="3"
     inkscape:zoom="3.3230562"
     inkscape:cx="236.93049"
     inkscape:cy="77.037518"
     inkscape:window-width="2256"
     inkscape:window-height="1410"
     inkscape:window-x="-11"
     inkscape:window-y="-11"
     inkscape:window-maximized="1"
     inkscape:current-layer="layer1"
     inkscape:document-rotation="0" />
  <defs
     id="defs11083">
    <marker
       style="overflow:visible;"
       id="marker2472"
       refX="0.0"
       refY="0.0"
       orient="auto"
       inkscape:stockid="Arrow1Mend"
       inkscape:isstock="true">
      <path
         transform="scale(0.4) rotate(180) translate(10,0)"
         style="fill-rule:evenodd;stroke:#000000;stroke-width:1pt;stroke-opacity:1;fill:#000000;fill-opacity:1"
         d="M 0.0,0.0 L 5.0,-5.0 L -12.5,0.0 L 5.0,5.0 L 0.0,0.0 z "
         id="path2470" />
    </marker>
    <marker
       style="overflow:visible;"
       id="marker2424"
       refX="0.0"
       refY="0.0"
       orient="auto"
       inkscape:stockid="Arrow1Mend"
       inkscape:isstock="true"
       inkscape:collect="always">
      <path
         transform="scale(0.4) rotate(180) translate(10,0)"
         style="fill-rule:evenodd;stroke:#000000;stroke-width:1pt;stroke-opacity:1;fill:#000000;fill-opacity:1"
         d="M 0.0,0.0 L 5.0,-5.0 L -12.5,0.0 L 5.0,5.0 L 0.0,0.0 z "
         id="path2422" />
    </marker>
    <marker
       style="overflow:visible;"
       id="marker2382"
       refX="0.0"
       refY="0.0"
       orient="auto"
       inkscape:stockid="Arrow1Mend"
       inkscape:isstock="true"
       inkscape:collect="always">
      <path
         transform="scale(0.4) rotate(180) translate(10,0)"
         style="fill-rule:evenodd;stroke:#000000;stroke-width:1pt;stroke-opacity:1;fill:#000000;fill-opacity:1"
         d="M 0.0,0.0 L 5.0,-5.0 L -12.5,0.0 L 5.0,5.0 L 0.0,0.0 z "
         id="path2380" />
    </marker>
    <marker
       style="overflow:visible;"
       id="marker2352"
       refX="0.0"
       refY="0.0"
       orient="auto"
       inkscape:stockid="Arrow1Mend"
       inkscape:isstock="true"
       inkscape:collect="always">
      <path
         transform="scale(0.4) rotate(180) translate(10,0)"
         style="fill-rule:evenodd;stroke:#000000;stroke-width:1pt;stroke-opacity:1;fill:#000000;fill-opacity:1"
         d="M 0.0,0.0 L 5.0,-5.0 L -12.5,0.0 L 5.0,5.0 L 0.0,0.0 z "
         id="path1146" />
    </marker>
    <marker
       style="overflow:visible"
       id="marker15498"
       refX="0"
       refY="0"
       orient="auto"
       inkscape:stockid="Arrow1Mend"
       inkscape:isstock="true">
      <path
         transform="matrix(-0.4,0,0,-0.4,-4,0)"
         style="fill:context-stroke;fill-rule:evenodd;stroke:context-stroke;stroke-width:1pt"
         d="M 0,0 5,-5 -12.5,0 5,5 Z"
         id="path15496" />
    </marker>
    <marker
       style="overflow:visible"
       id="Arrow1Mend"
       refX="0"
       refY="0"
       orient="auto"
       inkscape:stockid="Arrow1Mend"
       inkscape:isstock="true">
      <path
         transform="matrix(-0.4,0,0,-0.4,-4,0)"
         style="fill:context-stroke;fill-rule:evenodd;stroke:context-stroke;stroke-width:1pt"
         d="M 0,0 5,-5 -12.5,0 5,5 Z"
         id="path9498" />
    </marker>
  </defs>
  <g
     inkscape:label="Layer 1"
     inkscape:groupmode="layer"
     id="layer1"
     transform="translate(-24.077766,-33.254059)">
    <path
       style="fill:none;stroke:#000000;stroke-width:0.265;stroke-linecap:butt;stroke-linejoin:miter;stroke-miterlimit:4;stroke-dasharray:0.795, 0.265;stroke-dashoffset:0;stroke-opacity:1"
       d="M 27.077766,55.661681 H 177.86039"
       id="path11180"
       sodipodi:nodetypes="cc" />
    <g
       aria-label="Task"
       id="text11998"
       style="font-weight:900;font-size:4.23333px;line-height:1.25;font-family:Manrope;-inkscape-font-specification:'Manrope Heavy';stroke-width:0.264583">
      <path
         d="M 34.547617,42.437717 V 39.68817 h -1.064682 v -0.29845 h 2.440514 v 0.29845 h -1.064682 v 2.749547 z"
         style="stroke-width:0.264583"
         id="path2538" />
      <path
         d="m 36.619819,42.501217 q -0.249767,0 -0.427567,-0.09102 -0.175683,-0.09102 -0.264583,-0.245533 -0.0889,-0.154517 -0.0889,-0.340783 0,-0.268817 0.154517,-0.4318 0.154516,-0.162983 0.427566,-0.232833 0.1778,-0.04445 0.385233,-0.07408 0.207433,-0.03175 0.56515,-0.07832 0.05715,-0.0085 0.10795,-0.0127 0.0508,-0.0063 0.09313,-0.01482 l -0.110067,0.06773 q 0.0042,-0.230717 -0.05503,-0.376767 -0.05927,-0.14605 -0.194733,-0.2159 -0.135467,-0.07197 -0.359833,-0.07197 -0.2413,0 -0.402166,0.10795 -0.15875,0.10795 -0.22225,0.332316 l -0.302683,-0.0889 q 0.08043,-0.309033 0.317499,-0.476249 0.239184,-0.169334 0.613833,-0.169334 0.315383,0 0.5334,0.118534 0.220133,0.118533 0.309033,0.338666 0.04022,0.09313 0.05292,0.211667 0.01482,0.118533 0.01482,0.260349 v 1.420282 h -0.277283 v -0.573616 l 0.08043,0.03387 q -0.07832,0.194733 -0.213783,0.3302 -0.135466,0.135466 -0.321733,0.205316 -0.186266,0.06773 -0.414866,0.06773 z m 0.03598,-0.268816 q 0.211667,0 0.37465,-0.0762 0.1651,-0.07832 0.264583,-0.213783 0.1016,-0.135467 0.13335,-0.31115 0.01905,-0.08467 0.02328,-0.1778 0.0064,-0.09525 0.0064,-0.224366 v -0.0381 l 0.118533,0.06138 -0.141816,0.01905 q -0.306917,0.03387 -0.516467,0.0635 -0.209549,0.02963 -0.372533,0.07408 -0.173566,0.04868 -0.285749,0.148167 -0.110067,0.09737 -0.110067,0.2667 0,0.105833 0.0508,0.198966 0.05292,0.09313 0.167217,0.1524 0.1143,0.05715 0.287866,0.05715 z"
         style="stroke-width:0.264583"
         id="path2540" />
      <path
         d="m 39.170392,42.499101 q -0.264583,0 -0.472016,-0.07832 -0.207434,-0.07832 -0.338667,-0.224366 -0.129116,-0.148167 -0.169333,-0.353483 l 0.3175,-0.05292 q 0.03387,0.131233 0.127,0.226483 0.09313,0.09525 0.234949,0.148167 0.141817,0.0508 0.3175,0.0508 0.17145,0 0.29845,-0.04868 0.127,-0.0508 0.194733,-0.141816 0.06773,-0.09313 0.06773,-0.2159 0,-0.110067 -0.04868,-0.173567 -0.04868,-0.06562 -0.188383,-0.120649 -0.137583,-0.05503 -0.440266,-0.137584 -0.315383,-0.08467 -0.48895,-0.169333 -0.173567,-0.08467 -0.24765,-0.194733 -0.07408,-0.110067 -0.07408,-0.27305 0,-0.192616 0.10795,-0.340783 0.110066,-0.148166 0.306916,-0.2286 0.19685,-0.08255 0.452967,-0.08255 0.256116,0 0.461433,0.08467 0.205316,0.08255 0.330199,0.23495 0.124883,0.150283 0.148167,0.347133 l -0.3175,0.05715 q -0.02328,-0.13335 -0.105833,-0.230717 -0.08255,-0.09948 -0.2159,-0.1524 -0.13335,-0.05503 -0.3048,-0.05715 -0.160866,-0.0042 -0.28575,0.04022 -0.122766,0.04233 -0.192616,0.124883 -0.06985,0.08043 -0.06985,0.188384 0,0.09313 0.05503,0.156633 0.05715,0.0635 0.19685,0.12065 0.1397,0.05503 0.416983,0.124883 0.319617,0.08043 0.497416,0.169333 0.1778,0.0889 0.254,0.20955 0.0762,0.118533 0.0762,0.29845 0,0.213783 -0.10795,0.370416 -0.10795,0.156633 -0.31115,0.2413 -0.203199,0.08255 -0.482599,0.08255 z"
         style="stroke-width:0.264583"
         id="path2542" />
      <path
         d="m 40.537756,42.437717 0.0021,-3.047997 h 0.313266 v 1.862665 l 1.020233,-1.100666 h 0.414866 l -1.071032,1.142999 1.210732,1.142999 h -0.452966 l -1.121833,-1.100665 v 1.100665 z"
         style="stroke-width:0.264583"
         id="path2544" />
    </g>
    <g
       aria-label="Solution"
       id="text13376"
       style="font-weight:900;font-size:4.23333px;line-height:1.25;font-family:Manrope;-inkscape-font-specification:'Manrope Heavy';stroke-width:0.264583">
      <path
         d="m 105.89635,42.421597 q -0.3175,0 -0.57361,-0.105833 -0.25612,-0.10795 -0.42334,-0.306917 -0.1651,-0.198966 -0.2159,-0.465666 l 0.3175,-0.05292 q 0.0508,0.194734 0.1778,0.338667 0.12912,0.143933 0.31539,0.220133 0.18838,0.07408 0.41486,0.07408 0.22437,0 0.40217,-0.06985 0.1778,-0.07197 0.2794,-0.205316 0.1016,-0.13335 0.1016,-0.309033 0,-0.14605 -0.0677,-0.243417 -0.0677,-0.09948 -0.16722,-0.154516 -0.0995,-0.05503 -0.23283,-0.09525 l -0.77259,-0.230717 q -0.20108,-0.05927 -0.34501,-0.152399 -0.14182,-0.09313 -0.22437,-0.237067 -0.0804,-0.143933 -0.0804,-0.340783 0,-0.251883 0.13335,-0.442383 0.13335,-0.1905 0.37041,-0.2921 0.23707,-0.103716 0.53764,-0.1016 0.30268,0 0.54398,0.10795 0.24342,0.10795 0.39793,0.309033 0.15663,0.201084 0.20743,0.472017 l -0.32596,0.05927 q -0.0296,-0.194733 -0.14605,-0.340783 -0.1143,-0.148166 -0.2921,-0.2286 -0.17568,-0.08043 -0.38735,-0.08255 -0.20108,0 -0.36407,0.06773 -0.16298,0.06773 -0.25611,0.188383 -0.091,0.12065 -0.091,0.270933 0,0.143933 0.0783,0.239183 0.0804,0.09313 0.19473,0.14605 0.1143,0.0508 0.26882,0.09525 l 0.5969,0.175683 q 0.18626,0.05292 0.34078,0.129117 0.15663,0.0762 0.27728,0.241299 0.12277,0.162984 0.12277,0.427567 0,0.277283 -0.14393,0.480483 -0.14394,0.201083 -0.39582,0.309033 -0.25188,0.105833 -0.57362,0.105833 z"
         style="stroke-width:0.264583"
         id="path2621" />
      <path
         d="m 108.40248,42.421597 q -0.33443,0 -0.57997,-0.1524 -0.24341,-0.1524 -0.37253,-0.425449 -0.12912,-0.275167 -0.12912,-0.630767 0,-0.357716 0.13124,-0.630766 0.13123,-0.27305 0.37676,-0.423333 0.24554,-0.150283 0.57362,-0.150283 0.33655,0 0.57997,0.1524 0.24553,0.1524 0.37465,0.42545 0.12911,0.270933 0.12911,0.626532 0,0.359833 -0.13123,0.632883 -0.12912,0.27305 -0.37465,0.42545 -0.24342,0.150283 -0.57785,0.150283 z m 0,-0.29845 q 0.24765,0 0.41698,-0.112183 0.16934,-0.1143 0.25189,-0.319616 0.0847,-0.205317 0.0847,-0.478367 0,-0.423333 -0.19261,-0.664632 -0.19262,-0.2413 -0.56092,-0.2413 -0.24977,0 -0.4191,0.1143 -0.16722,0.112183 -0.24977,0.315383 -0.0825,0.2032 -0.0825,0.476249 0,0.277283 0.0847,0.4826 0.0868,0.205316 0.254,0.3175 0.16933,0.110066 0.41275,0.110066 z"
         style="stroke-width:0.264583"
         id="path2623" />
      <path
         d="M 109.99421,42.358097 V 39.2466 h 0.31115 v 3.111497 z"
         style="stroke-width:0.264583"
         id="path2625" />
      <path
         d="m 111.81454,42.415247 q -0.32597,0 -0.53128,-0.156633 -0.20532,-0.156633 -0.29634,-0.395817 -0.0889,-0.241299 -0.0889,-0.533399 v -1.257299 h 0.31327 v 1.166282 q 0,0.27305 0.0656,0.465667 0.0677,0.190499 0.2159,0.302683 0.14816,0.112183 0.38099,0.112183 0.22014,0 0.37042,-0.09737 0.15028,-0.09948 0.2286,-0.283633 0.0783,-0.186266 0.0783,-0.446616 l 0.22013,0.04868 q 0,0.3429 -0.12065,0.586316 -0.12065,0.2413 -0.33655,0.366183 -0.2159,0.122767 -0.49953,0.122767 z m 0.76835,-0.05715 v -0.563033 h -0.0318 v -1.722965 h 0.31115 v 2.285998 z"
         style="stroke-width:0.264583"
         id="path2627" />
      <path
         d="m 114.69955,42.358097 q -0.3175,0.06562 -0.57573,0.0021 -0.25612,-0.06138 -0.36195,-0.275167 -0.0487,-0.103716 -0.0614,-0.20955 -0.0127,-0.105833 -0.0106,-0.285749 V 41.530481 39.4371 h 0.30904 v 2.080681 0.06773 q -0.002,0.137584 0.004,0.211667 0.008,0.07197 0.0423,0.131233 0.0741,0.135467 0.23072,0.167217 0.15875,0.03175 0.42333,-0.01058 z m -1.4986,-2.019298 v -0.2667 h 1.4986 v 0.2667 z"
         style="stroke-width:0.264583"
         id="path2629" />
      <path
         d="m 115.19273,39.638183 v -0.34925 h 0.31115 v 0.34925 z m 0,2.719914 v -2.285998 h 0.31115 v 2.285998 z"
         style="stroke-width:0.264583"
         id="path2631" />
      <path
         d="m 117.0935,42.421597 q -0.33444,0 -0.57997,-0.1524 -0.24342,-0.1524 -0.37253,-0.425449 -0.12912,-0.275167 -0.12912,-0.630767 0,-0.357716 0.13123,-0.630766 0.13124,-0.27305 0.37677,-0.423333 0.24553,-0.150283 0.57362,-0.150283 0.33655,0 0.57996,0.1524 0.24553,0.1524 0.37465,0.42545 0.12912,0.270933 0.12912,0.626532 0,0.359833 -0.13124,0.632883 -0.12911,0.27305 -0.37465,0.42545 -0.24341,0.150283 -0.57784,0.150283 z m 0,-0.29845 q 0.24765,0 0.41698,-0.112183 0.16933,-0.1143 0.25188,-0.319616 0.0847,-0.205317 0.0847,-0.478367 0,-0.423333 -0.19262,-0.664632 -0.19261,-0.2413 -0.56091,-0.2413 -0.24977,0 -0.4191,0.1143 -0.16722,0.112183 -0.24977,0.315383 -0.0825,0.2032 -0.0825,0.476249 0,0.277283 0.0847,0.4826 0.0868,0.205316 0.254,0.3175 0.16933,0.110066 0.41275,0.110066 z"
         style="stroke-width:0.264583"
         id="path2633" />
      <path
         d="m 120.29389,41.191815 q 0,-0.27305 -0.0677,-0.46355 -0.0656,-0.192616 -0.21379,-0.3048 -0.14816,-0.112183 -0.381,-0.112183 -0.22013,0 -0.37041,0.09948 -0.15029,0.09737 -0.2286,0.283633 -0.0783,0.18415 -0.0783,0.4445 l -0.22013,-0.04868 q 0,-0.3429 0.12065,-0.5842 0.12065,-0.243416 0.33655,-0.366183 0.2159,-0.124883 0.49953,-0.124883 0.32597,0 0.53128,0.156633 0.20532,0.156633 0.29422,0.397933 0.091,0.239183 0.091,0.531283 v 1.257299 h -0.31327 z m -1.65312,1.166282 v -2.285998 h 0.28152 v 0.563033 h 0.0318 v 1.722965 z"
         style="stroke-width:0.264583"
         id="path2635" />
    </g>
    <g
       aria-label="Representation"
       id="text14106"
       style="font-weight:900;font-size:4.23333px;line-height:1.25;font-family:Manrope;-inkscape-font-specification:'Manrope Heavy';stroke-width:0.264583">
      <path
         d="m 32.78149,70.464119 v -3.047997 h 1.176866 q 0.110066,0 0.213783,0.01693 0.232833,0.03598 0.40005,0.1651 0.167216,0.129116 0.253999,0.325966 0.0889,0.19685 0.0889,0.43815 0,0.232833 -0.08255,0.425449 -0.08255,0.192617 -0.241299,0.321733 -0.15875,0.129117 -0.378883,0.17145 l -0.10795,0.0254 H 33.09264 v 1.157816 z m 1.845732,0 -0.601133,-1.240366 0.29845,-0.1143 0.660399,1.354666 z M 33.949889,69.00997 q 0.103717,0 0.188383,-0.01905 0.150283,-0.03175 0.251883,-0.124883 0.103717,-0.09525 0.154517,-0.226483 0.0508,-0.131233 0.0508,-0.277283 0,-0.148167 -0.0508,-0.2794 -0.0508,-0.131233 -0.154517,-0.224367 -0.1016,-0.09313 -0.251883,-0.126999 -0.08467,-0.01693 -0.188383,-0.01693 H 33.09264 v 1.295399 z"
         style="stroke-width:0.264583"
         id="path2566" />
      <path
         d="m 36.417916,70.527619 q -0.3302,0 -0.57785,-0.14605 -0.24765,-0.148167 -0.383116,-0.4191 -0.13335,-0.270933 -0.13335,-0.630766 0,-0.372533 0.13335,-0.645583 0.13335,-0.275166 0.376766,-0.423333 0.243417,-0.148166 0.5715,-0.148166 0.336549,0 0.575733,0.154516 0.241299,0.154517 0.364066,0.446617 0.122767,0.2921 0.112183,0.692149 h -0.3175 v -0.110066 q -0.0063,-0.296333 -0.0889,-0.4953 -0.08255,-0.198966 -0.243417,-0.300566 -0.160866,-0.1016 -0.3937,-0.1016 -0.243416,0 -0.414866,0.10795 -0.169333,0.105833 -0.258233,0.313266 -0.08678,0.205316 -0.08678,0.499533 0,0.287866 0.08678,0.491066 0.0889,0.2032 0.258233,0.31115 0.169333,0.105833 0.4064,0.105833 0.243416,0 0.427566,-0.112183 0.18415,-0.112183 0.289983,-0.328083 l 0.289983,0.112183 q -0.0889,0.198967 -0.239183,0.340783 -0.148166,0.1397 -0.3429,0.213783 -0.192616,0.07197 -0.412749,0.07197 z m -0.874183,-1.119716 v -0.26035 h 1.746249 v 0.26035 z"
         style="stroke-width:0.264583"
         id="path2568" />
      <path
         d="m 38.888055,70.527619 q -0.306916,0 -0.527049,-0.156633 -0.220133,-0.15875 -0.334433,-0.4318 -0.1143,-0.275166 -0.1143,-0.620183 0,-0.351366 0.1143,-0.622299 0.1143,-0.27305 0.336549,-0.427567 0.224367,-0.154516 0.537633,-0.154516 0.3048,0 0.531283,0.156633 0.2286,0.156633 0.34925,0.4318 0.12065,0.27305 0.12065,0.615949 0,0.345017 -0.12065,0.620183 -0.12065,0.275167 -0.351366,0.4318 -0.2286,0.156633 -0.541867,0.156633 z m -1.028699,0.952499 v -3.301997 h 0.2794 v 1.720848 h 0.03387 v 1.581149 z m 0.996949,-1.242482 q 0.232833,0 0.3937,-0.118533 0.160867,-0.118534 0.2413,-0.325967 0.08043,-0.20955 0.08043,-0.474133 0,-0.264583 -0.08043,-0.472016 -0.07832,-0.207433 -0.2413,-0.32385 -0.162983,-0.118533 -0.40005,-0.118533 -0.232833,0 -0.393699,0.116417 -0.15875,0.114299 -0.239183,0.319616 -0.07832,0.205316 -0.07832,0.478366 0,0.270933 0.08043,0.478367 0.08043,0.207433 0.2413,0.323849 0.160867,0.116417 0.395816,0.116417 z"
         style="stroke-width:0.264583"
         id="path2570" />
      <path
         d="m 40.3676,70.464119 v -2.285998 h 0.2794 v 0.550333 l -0.05503,-0.07197 q 0.0381,-0.09948 0.09948,-0.186266 0.06138,-0.08678 0.13335,-0.141817 0.08678,-0.0762 0.2032,-0.118533 0.118533,-0.04233 0.239183,-0.04868 0.122766,-0.0085 0.224366,0.01693 v 0.2921 q -0.1397,-0.03387 -0.285749,-0.0127 -0.143934,0.02117 -0.26035,0.116416 -0.110067,0.08467 -0.169333,0.205317 -0.05715,0.118533 -0.07832,0.245533 -0.01905,0.124883 -0.01905,0.29845 v 1.140882 z"
         style="stroke-width:0.264583"
         id="path2572" />
      <path
         d="m 42.81869,70.527619 q -0.330199,0 -0.577849,-0.14605 -0.24765,-0.148167 -0.383117,-0.4191 -0.133349,-0.270933 -0.133349,-0.630766 0,-0.372533 0.133349,-0.645583 0.13335,-0.275166 0.376767,-0.423333 0.243416,-0.148166 0.571499,-0.148166 0.33655,0 0.575733,0.154516 0.2413,0.154517 0.364066,0.446617 0.122767,0.2921 0.112184,0.692149 h -0.3175 v -0.110066 q -0.0063,-0.296333 -0.0889,-0.4953 -0.08255,-0.198966 -0.243416,-0.300566 -0.160867,-0.1016 -0.3937,-0.1016 -0.243417,0 -0.414866,0.10795 -0.169334,0.105833 -0.258234,0.313266 -0.08678,0.205316 -0.08678,0.499533 0,0.287866 0.08678,0.491066 0.0889,0.2032 0.258234,0.31115 0.169333,0.105833 0.406399,0.105833 0.243417,0 0.427567,-0.112183 0.184149,-0.112183 0.289983,-0.328083 l 0.289983,0.112183 q -0.0889,0.198967 -0.239183,0.340783 -0.148167,0.1397 -0.3429,0.213783 -0.192617,0.07197 -0.41275,0.07197 z m -0.874182,-1.119716 v -0.26035 h 1.746248 v 0.26035 z"
         style="stroke-width:0.264583"
         id="path2574" />
      <path
         d="m 45.178769,70.525502 q -0.264583,0 -0.472016,-0.07832 -0.207433,-0.07832 -0.338667,-0.224367 -0.129116,-0.148166 -0.169333,-0.353483 l 0.3175,-0.05292 q 0.03387,0.131233 0.127,0.226483 0.09313,0.09525 0.23495,0.148166 0.141816,0.0508 0.317499,0.0508 0.17145,0 0.29845,-0.04868 0.127,-0.0508 0.194733,-0.141817 0.06773,-0.09313 0.06773,-0.2159 0,-0.110066 -0.04868,-0.173566 -0.04868,-0.06562 -0.188383,-0.12065 -0.137583,-0.05503 -0.440266,-0.137583 -0.315383,-0.08467 -0.48895,-0.169333 -0.173566,-0.08467 -0.24765,-0.194734 -0.07408,-0.110066 -0.07408,-0.273049 0,-0.192617 0.10795,-0.340783 0.110067,-0.148167 0.306916,-0.2286 0.19685,-0.08255 0.452967,-0.08255 0.256116,0 0.461433,0.08467 0.205316,0.08255 0.330199,0.234949 0.124884,0.150284 0.148167,0.347133 l -0.3175,0.05715 q -0.02328,-0.13335 -0.105833,-0.230716 -0.08255,-0.09948 -0.2159,-0.1524 -0.13335,-0.05503 -0.3048,-0.05715 -0.160866,-0.0042 -0.285749,0.04022 -0.122767,0.04233 -0.192617,0.124883 -0.06985,0.08043 -0.06985,0.188383 0,0.09313 0.05503,0.156633 0.05715,0.0635 0.19685,0.12065 0.1397,0.05503 0.416983,0.124883 0.319617,0.08043 0.497416,0.169334 0.1778,0.0889 0.254,0.209549 0.0762,0.118534 0.0762,0.29845 0,0.213783 -0.10795,0.370417 -0.10795,0.156633 -0.311149,0.241299 -0.2032,0.08255 -0.4826,0.08255 z"
         style="stroke-width:0.264583"
         id="path2576" />
      <path
         d="m 47.515566,70.527619 q -0.3302,0 -0.57785,-0.14605 -0.247649,-0.148167 -0.383116,-0.4191 -0.13335,-0.270933 -0.13335,-0.630766 0,-0.372533 0.13335,-0.645583 0.13335,-0.275166 0.376766,-0.423333 0.243417,-0.148166 0.5715,-0.148166 0.33655,0 0.575733,0.154516 0.241299,0.154517 0.364066,0.446617 0.122767,0.2921 0.112183,0.692149 h -0.317499 v -0.110066 q -0.0064,-0.296333 -0.0889,-0.4953 -0.08255,-0.198966 -0.243417,-0.300566 -0.160866,-0.1016 -0.3937,-0.1016 -0.243416,0 -0.414866,0.10795 -0.169333,0.105833 -0.258233,0.313266 -0.08678,0.205316 -0.08678,0.499533 0,0.287866 0.08678,0.491066 0.0889,0.2032 0.258233,0.31115 0.169333,0.105833 0.4064,0.105833 0.243416,0 0.427566,-0.112183 0.18415,-0.112183 0.289983,-0.328083 l 0.289983,0.112183 q -0.0889,0.198967 -0.239183,0.340783 -0.148166,0.1397 -0.3429,0.213783 -0.192616,0.07197 -0.412749,0.07197 z m -0.874183,-1.119716 v -0.26035 h 1.746249 v 0.26035 z"
         style="stroke-width:0.264583"
         id="path2578" />
      <path
         d="m 50.610122,69.297837 q 0,-0.27305 -0.06773,-0.46355 -0.06562,-0.192617 -0.213783,-0.3048 -0.148167,-0.112183 -0.381,-0.112183 -0.220133,0 -0.370416,0.09948 -0.150284,0.09737 -0.2286,0.283633 -0.07832,0.18415 -0.07832,0.4445 l -0.220133,-0.04868 q 0,-0.3429 0.12065,-0.5842 0.12065,-0.243416 0.33655,-0.366183 0.215899,-0.124883 0.499533,-0.124883 0.325966,0 0.531282,0.156633 0.205317,0.156633 0.294217,0.397933 0.09102,0.239183 0.09102,0.531283 v 1.257299 h -0.313266 z m -1.653115,1.166282 v -2.285998 h 0.281516 v 0.563033 h 0.03175 v 1.722965 z"
         style="stroke-width:0.264583"
         id="path2580" />
      <path
         d="m 52.718319,70.464119 q -0.317499,0.06562 -0.575733,0.0021 -0.256116,-0.06138 -0.361949,-0.275167 -0.04868,-0.103716 -0.06138,-0.20955 -0.0127,-0.105833 -0.01058,-0.285749 v -0.05927 -2.093382 h 0.309033 v 2.080682 0.06773 q -0.0021,0.137583 0.0042,0.211667 0.0085,0.07197 0.04233,0.131233 0.07408,0.135467 0.230716,0.167217 0.15875,0.03175 0.423333,-0.01058 z m -1.498598,-2.019298 v -0.2667 h 1.498598 v 0.2667 z"
         style="stroke-width:0.264583"
         id="path2582" />
      <path
         d="m 53.823216,70.527619 q -0.249767,0 -0.427567,-0.09102 -0.175683,-0.09102 -0.264583,-0.245533 -0.0889,-0.154516 -0.0889,-0.340783 0,-0.268816 0.154517,-0.431799 0.154517,-0.162984 0.427566,-0.232834 0.1778,-0.04445 0.385233,-0.07408 0.207433,-0.03175 0.56515,-0.07832 0.05715,-0.0085 0.10795,-0.0127 0.0508,-0.0063 0.09313,-0.01482 l -0.110067,0.06773 q 0.0042,-0.230716 -0.05503,-0.376766 -0.05927,-0.14605 -0.194733,-0.2159 -0.135467,-0.07197 -0.359833,-0.07197 -0.2413,0 -0.402166,0.10795 -0.15875,0.10795 -0.22225,0.332317 l -0.302683,-0.0889 q 0.08043,-0.309033 0.317499,-0.47625 0.239184,-0.169333 0.613833,-0.169333 0.315383,0 0.5334,0.118533 0.220133,0.118533 0.309033,0.338667 0.04022,0.09313 0.05292,0.211666 0.01482,0.118533 0.01482,0.26035 v 1.420282 h -0.277283 v -0.573616 l 0.08043,0.03387 q -0.07832,0.194734 -0.213783,0.3302 -0.135466,0.135467 -0.321733,0.205317 -0.186266,0.06773 -0.414866,0.06773 z m 0.03598,-0.268817 q 0.211667,0 0.37465,-0.0762 0.1651,-0.07832 0.264583,-0.213784 0.1016,-0.135466 0.13335,-0.311149 0.01905,-0.08467 0.02328,-0.1778 0.0063,-0.09525 0.0063,-0.224367 v -0.0381 l 0.118533,0.06138 -0.141816,0.01905 q -0.306917,0.03387 -0.516466,0.0635 -0.20955,0.02963 -0.372533,0.07408 -0.173567,0.04868 -0.28575,0.148166 -0.110067,0.09737 -0.110067,0.2667 0,0.105833 0.0508,0.198967 0.05292,0.09313 0.167217,0.1524 0.1143,0.05715 0.287866,0.05715 z"
         style="stroke-width:0.264583"
         id="path2584" />
      <path
         d="m 56.765372,70.464119 q -0.3175,0.06562 -0.575733,0.0021 -0.256117,-0.06138 -0.36195,-0.275167 -0.04868,-0.103716 -0.06138,-0.20955 -0.0127,-0.105833 -0.01058,-0.285749 v -0.05927 -2.093382 h 0.309033 v 2.080682 0.06773 q -0.0021,0.137583 0.0042,0.211667 0.0085,0.07197 0.04233,0.131233 0.07408,0.135467 0.230717,0.167217 0.15875,0.03175 0.423333,-0.01058 z m -1.498599,-2.019298 v -0.2667 h 1.498599 v 0.2667 z"
         style="stroke-width:0.264583"
         id="path2586" />
      <path
         d="m 57.258552,67.744205 v -0.34925 h 0.31115 v 0.34925 z m 0,2.719914 v -2.285998 h 0.31115 v 2.285998 z"
         style="stroke-width:0.264583"
         id="path2588" />
      <path
         d="m 59.159314,70.527619 q -0.334433,0 -0.579966,-0.1524 -0.243416,-0.1524 -0.372533,-0.42545 -0.129117,-0.275166 -0.129117,-0.630766 0,-0.357716 0.131234,-0.630766 0.131233,-0.27305 0.376766,-0.423333 0.245533,-0.150283 0.573616,-0.150283 0.33655,0 0.579966,0.1524 0.245534,0.1524 0.37465,0.425449 0.129117,0.270934 0.129117,0.626533 0,0.359833 -0.131234,0.632883 -0.129116,0.27305 -0.374649,0.42545 -0.243417,0.150283 -0.57785,0.150283 z m 0,-0.29845 q 0.24765,0 0.416983,-0.112183 0.169333,-0.1143 0.251883,-0.319616 0.08467,-0.205317 0.08467,-0.478367 0,-0.423333 -0.192617,-0.664633 -0.192616,-0.241299 -0.560916,-0.241299 -0.249766,0 -0.419099,0.1143 -0.167217,0.112183 -0.249767,0.315383 -0.08255,0.203199 -0.08255,0.476249 0,0.277283 0.08467,0.4826 0.08678,0.205316 0.254,0.3175 0.169333,0.110066 0.412749,0.110066 z"
         style="stroke-width:0.264583"
         id="path2590" />
      <path
         d="m 62.35971,69.297837 q 0,-0.27305 -0.06773,-0.46355 -0.06562,-0.192617 -0.213783,-0.3048 -0.148167,-0.112183 -0.381,-0.112183 -0.220133,0 -0.370416,0.09948 -0.150284,0.09737 -0.2286,0.283633 -0.07832,0.18415 -0.07832,0.4445 l -0.220133,-0.04868 q 0,-0.3429 0.12065,-0.5842 0.12065,-0.243416 0.33655,-0.366183 0.215899,-0.124883 0.499533,-0.124883 0.325966,0 0.531282,0.156633 0.205317,0.156633 0.294217,0.397933 0.09102,0.239183 0.09102,0.531283 v 1.257299 H 62.35971 Z m -1.653115,1.166282 v -2.285998 h 0.281516 v 0.563033 h 0.03175 v 1.722965 z"
         style="stroke-width:0.264583"
         id="path2592" />
    </g>
    <g
       aria-label="Output"
       id="text14692"
       style="font-weight:900;font-size:4.23333px;line-height:1.25;font-family:Manrope;-inkscape-font-specification:'Manrope Heavy';stroke-width:0.264583">
      <path
         d="m 106.23128,70.686867 q -0.44662,0 -0.762,-0.198966 -0.31539,-0.198967 -0.47837,-0.556683 -0.16298,-0.359833 -0.16298,-0.831849 0,-0.472017 0.16298,-0.829733 0.16298,-0.359833 0.47837,-0.5588 0.31538,-0.198966 0.762,-0.198966 0.44661,0 0.762,0.198966 0.3175,0.198967 0.48048,0.5588 0.16298,0.357716 0.16298,0.829733 0,0.472016 -0.16298,0.831849 -0.16298,0.357716 -0.48048,0.556683 -0.31539,0.198966 -0.762,0.198966 z m 0,-0.298449 q 0.35136,0 0.59055,-0.160867 0.2413,-0.160867 0.36195,-0.45085 0.12276,-0.289983 0.12276,-0.677332 0,-0.385233 -0.12276,-0.675217 -0.12065,-0.289983 -0.36195,-0.450849 -0.23919,-0.160867 -0.59055,-0.162983 -0.34714,0 -0.58844,0.160866 -0.2413,0.160867 -0.36195,0.45085 -0.12065,0.289983 -0.12276,0.677333 -0.002,0.385233 0.11853,0.675216 0.12065,0.289983 0.36195,0.450849 0.24342,0.160867 0.59267,0.162984 z"
         style="stroke-width:0.264583"
         id="path2657" />
      <path
         d="m 108.93425,70.680517 q -0.32596,0 -0.53128,-0.156633 -0.20531,-0.156633 -0.29633,-0.395816 -0.0889,-0.2413 -0.0889,-0.5334 v -1.257299 h 0.31327 v 1.166283 q 0,0.273049 0.0656,0.465666 0.0677,0.1905 0.2159,0.302683 0.14817,0.112183 0.381,0.112183 0.22013,0 0.37042,-0.09737 0.15028,-0.09948 0.2286,-0.283634 0.0783,-0.186266 0.0783,-0.446616 l 0.22014,0.04868 q 0,0.3429 -0.12065,0.586317 -0.12065,0.241299 -0.33655,0.366183 -0.2159,0.122766 -0.49954,0.122766 z m 0.76835,-0.05715 v -0.563033 h -0.0318 v -1.722965 h 0.31115 v 2.285998 z"
         style="stroke-width:0.264583"
         id="path2659" />
      <path
         d="m 111.81927,70.623367 q -0.3175,0.06562 -0.57573,0.0021 -0.25612,-0.06138 -0.36195,-0.275166 -0.0487,-0.103717 -0.0614,-0.20955 -0.0127,-0.105834 -0.0106,-0.28575 v -0.05927 -2.093381 h 0.30903 v 2.080681 0.06773 q -0.002,0.137583 0.004,0.211666 0.008,0.07197 0.0423,0.131233 0.0741,0.135467 0.23072,0.167217 0.15875,0.03175 0.42333,-0.01058 z m -1.4986,-2.019298 v -0.2667 h 1.4986 v 0.2667 z"
         style="stroke-width:0.264583"
         id="path2661" />
      <path
         d="m 113.2967,70.686867 q -0.30692,0 -0.52705,-0.156633 -0.22014,-0.15875 -0.33443,-0.4318 -0.1143,-0.275166 -0.1143,-0.620182 0,-0.351367 0.1143,-0.6223 0.11429,-0.27305 0.33654,-0.427566 0.22437,-0.154517 0.53764,-0.154517 0.3048,0 0.53128,0.156633 0.2286,0.156634 0.34925,0.4318 0.12065,0.27305 0.12065,0.61595 0,0.345016 -0.12065,0.620182 -0.12065,0.275167 -0.35137,0.4318 -0.2286,0.156633 -0.54186,0.156633 z m -1.0287,0.952499 v -3.301997 h 0.2794 v 1.720849 h 0.0339 v 1.581148 z m 0.99695,-1.242482 q 0.23283,0 0.3937,-0.118533 0.16086,-0.118533 0.2413,-0.325966 0.0804,-0.20955 0.0804,-0.474133 0,-0.264584 -0.0804,-0.472017 -0.0783,-0.207433 -0.2413,-0.323849 -0.16299,-0.118534 -0.40005,-0.118534 -0.23284,0 -0.3937,0.116417 -0.15875,0.1143 -0.23919,0.319616 -0.0783,0.205317 -0.0783,0.478367 0,0.270933 0.0804,0.478366 0.0804,0.207433 0.2413,0.32385 0.16087,0.116416 0.39582,0.116416 z"
         style="stroke-width:0.264583"
         id="path2663" />
      <path
         d="m 115.65042,70.680517 q -0.32596,0 -0.53128,-0.156633 -0.20531,-0.156633 -0.29633,-0.395816 -0.0889,-0.2413 -0.0889,-0.5334 v -1.257299 h 0.31327 v 1.166283 q 0,0.273049 0.0656,0.465666 0.0677,0.1905 0.2159,0.302683 0.14817,0.112183 0.381,0.112183 0.22013,0 0.37042,-0.09737 0.15028,-0.09948 0.2286,-0.283634 0.0783,-0.186266 0.0783,-0.446616 l 0.22014,0.04868 q 0,0.3429 -0.12065,0.586317 -0.12065,0.241299 -0.33655,0.366183 -0.2159,0.122766 -0.49954,0.122766 z m 0.76835,-0.05715 v -0.563033 h -0.0317 v -1.722965 h 0.31115 v 2.285998 z"
         style="stroke-width:0.264583"
         id="path2665" />
      <path
         d="m 118.53544,70.623367 q -0.3175,0.06562 -0.57573,0.0021 -0.25612,-0.06138 -0.36195,-0.275166 -0.0487,-0.103717 -0.0614,-0.20955 -0.0127,-0.105834 -0.0106,-0.28575 v -0.05927 -2.093381 h 0.30903 v 2.080681 0.06773 q -0.002,0.137583 0.004,0.211666 0.008,0.07197 0.0423,0.131233 0.0741,0.135467 0.23072,0.167217 0.15875,0.03175 0.42333,-0.01058 z m -1.4986,-2.019298 v -0.2667 h 1.4986 v 0.2667 z"
         style="stroke-width:0.264583"
         id="path2667" />
    </g>
    <rect
       style="fill:none;stroke:#000000;stroke-width:0.264999"
       id="rect15060"
       width="36.306942"
       height="9.395216"
       x="30.335405"
       y="36.386559" />
    <rect
       style="fill:none;stroke:#000000;stroke-width:0.264999"
       id="rect15062"
       width="35.988457"
       height="9.5544596"
       x="30.09654"
       y="64.333351" />
    <rect
       style="fill:none;stroke:#000000;stroke-width:0.264999"
       id="rect15168"
       width="26.115511"
       height="9.3952179"
       x="101.99384"
       y="36.386559" />
    <rect
       style="fill:none;stroke:#000000;stroke-width:0.264999"
       id="rect15168-9"
       width="26.115511"
       height="9.3952179"
       x="101.99384"
       y="64.253731" />
    <g
       aria-label="Informal"
       id="text16260"
       style="font-weight:900;font-size:4.23333px;line-height:1.25;font-family:Manrope;-inkscape-font-specification:'Manrope Heavy';stroke-width:0.264583">
      <path
         d="m 151.6972,52.78838 v -3.047998 h 0.31115 v 3.047998 z"
         style="stroke-width:0.264583"
         id="path2670" />
      <path
         d="m 154.29435,51.622097 q 0,-0.273049 -0.0677,-0.463549 -0.0656,-0.192617 -0.21378,-0.3048 -0.14817,-0.112183 -0.381,-0.112183 -0.22013,0 -0.37041,0.09948 -0.15029,0.09737 -0.2286,0.283633 -0.0783,0.18415 -0.0783,0.4445 l -0.22013,-0.04868 q 0,-0.342899 0.12065,-0.584199 0.12065,-0.243417 0.33655,-0.366183 0.2159,-0.124883 0.49953,-0.124883 0.32596,0 0.53128,0.156633 0.20532,0.156633 0.29422,0.397933 0.091,0.239183 0.091,0.531283 v 1.257299 h -0.31326 z m -1.65312,1.166283 v -2.285998 h 0.28152 v 0.563032 h 0.0317 v 1.722966 z"
         style="stroke-width:0.264583"
         id="path2672" />
      <path
         d="m 155.38443,50.333048 v -0.03387 q 0.002,-0.09948 0.0127,-0.173567 0.0127,-0.07408 0.0423,-0.14605 0.0296,-0.07408 0.0868,-0.135466 0.0614,-0.06562 0.13335,-0.1016 0.0741,-0.0381 0.15028,-0.0508 0.0783,-0.0127 0.17357,-0.01482 h 0.0444 0.2921 v 0.262467 h -0.27094 q -0.17991,0 -0.2667,0.0889 -0.0868,0.08678 -0.0868,0.270933 v 2.489198 h -0.31115 z m -0.39582,0.436033 V 50.502382 H 156.32 v 0.266699 z"
         style="stroke-width:0.264583"
         id="path2674" />
      <path
         d="m 157.52861,52.85188 q -0.33443,0 -0.57997,-0.1524 -0.24341,-0.1524 -0.37253,-0.42545 -0.12912,-0.275166 -0.12912,-0.630766 0,-0.357716 0.13124,-0.630766 0.13123,-0.27305 0.37676,-0.423333 0.24554,-0.150283 0.57362,-0.150283 0.33655,0 0.57997,0.1524 0.24553,0.152399 0.37464,0.425449 0.12912,0.270933 0.12912,0.626533 0,0.359833 -0.13123,0.632883 -0.12912,0.27305 -0.37465,0.425449 -0.24342,0.150284 -0.57785,0.150284 z m 0,-0.29845 q 0.24765,0 0.41698,-0.112183 0.16934,-0.1143 0.25188,-0.319617 0.0847,-0.205316 0.0847,-0.478366 0,-0.423333 -0.19261,-0.664633 -0.19262,-0.2413 -0.56092,-0.2413 -0.24977,0 -0.4191,0.1143 -0.16722,0.112184 -0.24977,0.315383 -0.0825,0.2032 -0.0825,0.47625 0,0.277283 0.0847,0.4826 0.0868,0.205316 0.254,0.317499 0.16933,0.110067 0.41275,0.110067 z"
         style="stroke-width:0.264583"
         id="path2676" />
      <path
         d="m 159.078,52.78838 v -2.285998 h 0.2794 v 0.550332 l -0.055,-0.07197 q 0.0381,-0.09948 0.0995,-0.186267 0.0614,-0.08678 0.13335,-0.141816 0.0868,-0.0762 0.2032,-0.118533 0.11854,-0.04233 0.23919,-0.04868 0.12276,-0.0085 0.22436,0.01693 v 0.292099 q -0.1397,-0.03387 -0.28575,-0.0127 -0.14393,0.02117 -0.26035,0.116417 -0.11006,0.08467 -0.16933,0.205316 -0.0572,0.118534 -0.0783,0.245534 -0.019,0.124883 -0.019,0.298449 v 1.140883 z"
         style="stroke-width:0.264583"
         id="path2678" />
      <path
         d="m 163.33249,51.287664 q 0,-0.173566 -0.0677,-0.300566 -0.0656,-0.129117 -0.18415,-0.19685 -0.11853,-0.06985 -0.26882,-0.06985 -0.1397,0 -0.26034,0.0635 -0.12065,0.06138 -0.19685,0.194733 -0.0762,0.131233 -0.0762,0.334433 l -0.18415,-0.05292 q -0.006,-0.2413 0.0953,-0.427567 0.1016,-0.186266 0.28363,-0.287866 0.18203,-0.103717 0.41063,-0.103717 0.2286,0 0.40005,0.09737 0.17357,0.09525 0.2667,0.27305 0.0931,0.1778 0.0931,0.416983 l -0.002,1.559982 h -0.31115 z M 160.602,52.78838 v -2.285998 h 0.2794 v 0.563032 h 0.0339 v 1.722966 z m 1.36948,-1.479549 q 0,-0.179917 -0.0656,-0.31115 -0.0656,-0.13335 -0.18415,-0.205316 -0.11853,-0.07197 -0.27728,-0.07197 -0.15663,0 -0.27728,0.07408 -0.11854,0.07197 -0.18627,0.207434 -0.0656,0.133349 -0.0656,0.311149 l -0.18626,-0.1016 q 0,-0.218016 0.10371,-0.393699 0.10372,-0.175684 0.28575,-0.275167 0.18204,-0.1016 0.4064,-0.1016 0.22014,0 0.39159,0.09525 0.17145,0.09313 0.2667,0.27305 0.0952,0.1778 0.0952,0.427566 l -0.002,1.551516 h -0.30692 z"
         style="stroke-width:0.264583"
         id="path2680" />
      <path
         d="m 164.84802,52.85188 q -0.24976,0 -0.42756,-0.09102 -0.17568,-0.09102 -0.26458,-0.245533 -0.0889,-0.154517 -0.0889,-0.340783 0,-0.268817 0.15451,-0.4318 0.15452,-0.162983 0.42757,-0.232833 0.1778,-0.04445 0.38523,-0.07408 0.20743,-0.03175 0.56515,-0.07832 0.0572,-0.0085 0.10795,-0.0127 0.0508,-0.0063 0.0931,-0.01482 l -0.11006,0.06773 q 0.004,-0.230717 -0.055,-0.376767 -0.0593,-0.146049 -0.19473,-0.215899 -0.13547,-0.07197 -0.35983,-0.07197 -0.2413,0 -0.40217,0.10795 -0.15875,0.10795 -0.22225,0.332316 l -0.30268,-0.0889 q 0.0804,-0.309033 0.3175,-0.476249 0.23918,-0.169333 0.61383,-0.169333 0.31538,0 0.5334,0.118533 0.22013,0.118533 0.30903,0.338666 0.0402,0.09313 0.0529,0.211667 0.0148,0.118533 0.0148,0.26035 v 1.420282 h -0.27729 v -0.573617 l 0.0804,0.03387 q -0.0783,0.194733 -0.21379,0.3302 -0.13546,0.135466 -0.32173,0.205316 -0.18627,0.06773 -0.41487,0.06773 z m 0.036,-0.268817 q 0.21166,0 0.37465,-0.0762 0.1651,-0.07832 0.26458,-0.213783 0.1016,-0.135466 0.13335,-0.31115 0.019,-0.08467 0.0233,-0.1778 0.006,-0.09525 0.006,-0.224366 v -0.0381 l 0.11854,0.06138 -0.14182,0.01905 q -0.30692,0.03387 -0.51647,0.0635 -0.20955,0.02963 -0.37253,0.07408 -0.17357,0.04868 -0.28575,0.148166 -0.11006,0.09737 -0.11006,0.2667 0,0.105833 0.0508,0.198966 0.0529,0.09313 0.16721,0.1524 0.1143,0.05715 0.28787,0.05715 z"
         style="stroke-width:0.264583"
         id="path2682" />
      <path
         d="m 166.58791,52.78838 v -3.111498 h 0.31115 v 3.111498 z"
         style="stroke-width:0.264583"
         id="path2684" />
    </g>
    <g
       aria-label="Formal"
       id="text16696"
       style="font-weight:900;font-size:4.23333px;line-height:1.25;font-family:Manrope;-inkscape-font-specification:'Manrope Heavy';stroke-width:0.264583">
      <path
         d="m 151.89373,62.502079 v -3.047997 h 1.75048 v 0.311149 h -1.43933 v 1.058333 h 1.18533 v 0.309033 h -1.18533 v 1.369482 z"
         style="stroke-width:0.264583"
         id="path2687" />
      <path
         d="m 154.91632,62.565579 q -0.33443,0 -0.57996,-0.1524 -0.24342,-0.1524 -0.37254,-0.42545 -0.12911,-0.275166 -0.12911,-0.630766 0,-0.357716 0.13123,-0.630766 0.13123,-0.27305 0.37677,-0.423333 0.24553,-0.150283 0.57361,-0.150283 0.33655,0 0.57997,0.1524 0.24553,0.1524 0.37465,0.42545 0.12911,0.270933 0.12911,0.626532 0,0.359833 -0.13123,0.632883 -0.12912,0.27305 -0.37465,0.42545 -0.24342,0.150283 -0.57785,0.150283 z m 0,-0.29845 q 0.24765,0 0.41698,-0.112183 0.16934,-0.1143 0.25189,-0.319616 0.0847,-0.205317 0.0847,-0.478367 0,-0.423333 -0.19261,-0.664632 -0.19262,-0.2413 -0.56092,-0.2413 -0.24976,0 -0.4191,0.1143 -0.16721,0.112183 -0.24976,0.315383 -0.0825,0.2032 -0.0825,0.476249 0,0.277283 0.0847,0.4826 0.0868,0.205316 0.254,0.3175 0.16934,0.110066 0.41275,0.110066 z"
         style="stroke-width:0.264583"
         id="path2689" />
      <path
         d="m 156.46572,62.502079 v -2.285998 h 0.2794 v 0.550333 l -0.055,-0.07197 q 0.0381,-0.09948 0.0995,-0.186266 0.0614,-0.08678 0.13335,-0.141817 0.0868,-0.0762 0.2032,-0.118533 0.11853,-0.04233 0.23918,-0.04868 0.12277,-0.0085 0.22437,0.01693 v 0.2921 q -0.1397,-0.03387 -0.28575,-0.0127 -0.14394,0.02117 -0.26035,0.116416 -0.11007,0.08467 -0.16934,0.205317 -0.0572,0.118533 -0.0783,0.245533 -0.019,0.124883 -0.019,0.29845 v 1.140882 z"
         style="stroke-width:0.264583"
         id="path2691" />
      <path
         d="m 160.72021,61.001364 q 0,-0.173567 -0.0677,-0.300567 -0.0656,-0.129116 -0.18415,-0.19685 -0.11853,-0.06985 -0.26881,-0.06985 -0.1397,0 -0.26035,0.0635 -0.12065,0.06138 -0.19685,0.194734 -0.0762,0.131233 -0.0762,0.334433 l -0.18415,-0.05292 q -0.006,-0.2413 0.0953,-0.427566 0.1016,-0.186267 0.28363,-0.287867 0.18203,-0.103716 0.41063,-0.103716 0.2286,0 0.40005,0.09737 0.17357,0.09525 0.2667,0.27305 0.0931,0.1778 0.0931,0.416983 l -0.002,1.559982 h -0.31115 z m -2.7305,1.500715 v -2.285998 h 0.2794 v 0.563033 h 0.0339 v 1.722965 z m 1.36948,-1.479549 q 0,-0.179916 -0.0656,-0.311149 -0.0656,-0.13335 -0.18415,-0.205317 -0.11854,-0.07197 -0.27729,-0.07197 -0.15663,0 -0.27728,0.07408 -0.11853,0.07197 -0.18627,0.207433 -0.0656,0.13335 -0.0656,0.31115 l -0.18627,-0.1016 q 0,-0.218017 0.10372,-0.3937 0.10371,-0.175683 0.28575,-0.275166 0.18203,-0.1016 0.4064,-0.1016 0.22013,0 0.39158,0.09525 0.17145,0.09313 0.2667,0.273049 0.0952,0.1778 0.0952,0.427567 l -0.002,1.551515 h -0.30691 z"
         style="stroke-width:0.264583"
         id="path2693" />
      <path
         d="m 162.23574,62.565579 q -0.24977,0 -0.42757,-0.09102 -0.17568,-0.09102 -0.26458,-0.245533 -0.0889,-0.154516 -0.0889,-0.340783 0,-0.268816 0.15451,-0.431799 0.15452,-0.162984 0.42757,-0.232834 0.1778,-0.04445 0.38523,-0.07408 0.20744,-0.03175 0.56515,-0.07832 0.0571,-0.0085 0.10795,-0.0127 0.0508,-0.0064 0.0931,-0.01482 l -0.11007,0.06773 q 0.004,-0.230716 -0.055,-0.376766 -0.0593,-0.14605 -0.19474,-0.2159 -0.13546,-0.07197 -0.35983,-0.07197 -0.2413,0 -0.40217,0.10795 -0.15875,0.10795 -0.22225,0.332317 l -0.30268,-0.0889 q 0.0804,-0.309033 0.3175,-0.47625 0.23918,-0.169333 0.61383,-0.169333 0.31539,0 0.5334,0.118533 0.22014,0.118533 0.30904,0.338667 0.0402,0.09313 0.0529,0.211666 0.0148,0.118533 0.0148,0.26035 v 1.420282 h -0.27728 v -0.573616 l 0.0804,0.03387 q -0.0783,0.194734 -0.21378,0.3302 -0.13547,0.135467 -0.32174,0.205317 -0.18626,0.06773 -0.41486,0.06773 z m 0.036,-0.268816 q 0.21167,0 0.37465,-0.0762 0.1651,-0.07832 0.26458,-0.213784 0.1016,-0.135466 0.13335,-0.311149 0.0191,-0.08467 0.0233,-0.1778 0.006,-0.09525 0.006,-0.224367 v -0.0381 l 0.11853,0.06138 -0.14182,0.01905 q -0.30691,0.03387 -0.51646,0.0635 -0.20955,0.02963 -0.37254,0.07408 -0.17356,0.04868 -0.28575,0.148166 -0.11006,0.09737 -0.11006,0.2667 0,0.105833 0.0508,0.198967 0.0529,0.09313 0.16721,0.1524 0.1143,0.05715 0.28787,0.05715 z"
         style="stroke-width:0.264583"
         id="path2695" />
      <path
         d="m 163.97563,62.502079 v -3.111497 h 0.31115 v 3.111497 z"
         style="stroke-width:0.264583"
         id="path2697" />
    </g>
    <path
       style="fill:none;stroke:#000000;stroke-width:0.265;stroke-linecap:butt;stroke-linejoin:miter;stroke-opacity:1;stroke-miterlimit:4;stroke-dasharray:none;marker-end:url(#marker2352)"
       d="M 48.441633,45.913715 V 63.907943"
       id="path1776" />
    <path
       style="fill:none;stroke:#000000;stroke-width:0.264583px;stroke-linecap:butt;stroke-linejoin:miter;stroke-opacity:1;marker-end:url(#marker2382)"
       d="M 66.913585,40.977246 H 101.70773"
       id="path2378" />
    <path
       style="fill:none;stroke:#000000;stroke-width:0.264583px;stroke-linecap:butt;stroke-linejoin:miter;stroke-opacity:1;marker-end:url(#marker2424)"
       d="m 66.35624,68.764793 h 35.43112"
       id="path2420" />
    <path
       style="fill:none;stroke:#000000;stroke-width:0.264583px;stroke-linecap:butt;stroke-linejoin:miter;stroke-opacity:1;marker-end:url(#marker2472)"
       d="M 115.40246,63.828324 V 46.152577"
       id="path2468" />
    <g
       aria-label="Solve"
       id="text2524"
       style="font-weight:900;font-size:4.23333px;line-height:1.25;font-family:Manrope;-inkscape-font-specification:'Manrope Heavy';stroke-width:0.264583">
      <path
         d="m 80.768667,45.021771 q -0.3175,0 -0.573616,-0.105833 -0.256117,-0.10795 -0.423333,-0.306917 -0.1651,-0.198966 -0.2159,-0.465666 l 0.3175,-0.05292 q 0.0508,0.194734 0.1778,0.338667 0.129116,0.143933 0.315383,0.220133 0.188383,0.07408 0.414866,0.07408 0.224366,0 0.402166,-0.06985 0.1778,-0.07197 0.2794,-0.205316 0.1016,-0.13335 0.1016,-0.309033 0,-0.14605 -0.06773,-0.243417 -0.06773,-0.09948 -0.167217,-0.154516 -0.09948,-0.05503 -0.232833,-0.09525 l -0.772583,-0.230717 q -0.201083,-0.05927 -0.345016,-0.1524 -0.141817,-0.09313 -0.224366,-0.237066 -0.08043,-0.143933 -0.08043,-0.340783 0,-0.251883 0.13335,-0.442383 0.13335,-0.1905 0.370416,-0.2921 0.237067,-0.103716 0.537633,-0.1016 0.302683,0 0.543983,0.10795 0.243417,0.10795 0.397933,0.309033 0.156633,0.201083 0.207433,0.472017 l -0.325966,0.05927 q -0.02963,-0.194733 -0.14605,-0.340783 -0.1143,-0.148166 -0.2921,-0.2286 -0.175683,-0.08043 -0.387349,-0.08255 -0.201083,0 -0.364067,0.06773 -0.162983,0.06773 -0.256116,0.188383 -0.09102,0.12065 -0.09102,0.270933 0,0.143933 0.07832,0.239183 0.08043,0.09313 0.194733,0.14605 0.1143,0.0508 0.268817,0.09525 l 0.596899,0.175683 q 0.186267,0.05292 0.340783,0.129117 0.156633,0.0762 0.277283,0.241299 0.122767,0.162984 0.122767,0.427567 0,0.277283 -0.143933,0.480483 -0.143934,0.201083 -0.395817,0.309033 -0.251883,0.105833 -0.573616,0.105833 z"
         style="stroke-width:0.264583"
         id="path2610" />
      <path
         d="m 83.274794,45.021771 q -0.334433,0 -0.579967,-0.1524 -0.243416,-0.1524 -0.372533,-0.42545 -0.129116,-0.275166 -0.129116,-0.630766 0,-0.357716 0.131233,-0.630766 0.131233,-0.27305 0.376766,-0.423333 0.245534,-0.150283 0.573617,-0.150283 0.336549,0 0.579966,0.1524 0.245533,0.1524 0.37465,0.42545 0.129116,0.270933 0.129116,0.626532 0,0.359833 -0.131233,0.632883 -0.129117,0.27305 -0.37465,0.42545 -0.243416,0.150283 -0.577849,0.150283 z m 0,-0.29845 q 0.247649,0 0.416983,-0.112183 0.169333,-0.1143 0.251883,-0.319616 0.08467,-0.205317 0.08467,-0.478367 0,-0.423333 -0.192616,-0.664632 -0.192617,-0.2413 -0.560916,-0.2413 -0.249767,0 -0.4191,0.1143 -0.167217,0.112183 -0.249766,0.315383 -0.08255,0.2032 -0.08255,0.476249 0,0.277283 0.08467,0.4826 0.08678,0.205316 0.254,0.3175 0.169333,0.110066 0.41275,0.110066 z"
         style="stroke-width:0.264583"
         id="path2612" />
      <path
         d="m 84.866523,44.958271 v -3.111497 h 0.311149 v 3.111497 z"
         style="stroke-width:0.264583"
         id="path2614" />
      <path
         d="m 86.430736,44.958271 -0.829732,-2.285998 h 0.315383 l 0.675216,1.879598 0.670982,-1.879598 h 0.319617 l -0.829733,2.285998 z"
         style="stroke-width:0.264583"
         id="path2616" />
      <path
         d="m 88.845846,45.021771 q -0.3302,0 -0.577849,-0.14605 -0.24765,-0.148166 -0.383117,-0.4191 -0.13335,-0.270933 -0.13335,-0.630766 0,-0.372533 0.13335,-0.645582 0.13335,-0.275167 0.376767,-0.423333 0.243416,-0.148167 0.571499,-0.148167 0.33655,0 0.575733,0.154517 0.2413,0.154516 0.364066,0.446616 0.122767,0.2921 0.112184,0.692149 h -0.3175 v -0.110066 q -0.0063,-0.296333 -0.0889,-0.4953 -0.08255,-0.198966 -0.243417,-0.300566 -0.160866,-0.1016 -0.393699,-0.1016 -0.243417,0 -0.414867,0.10795 -0.169333,0.105833 -0.258233,0.313266 -0.08678,0.205317 -0.08678,0.499533 0,0.287866 0.08678,0.491066 0.0889,0.2032 0.258233,0.31115 0.169334,0.105833 0.4064,0.105833 0.243417,0 0.427566,-0.112183 0.18415,-0.112183 0.289984,-0.328083 l 0.289983,0.112183 q -0.0889,0.198967 -0.239184,0.340783 -0.148166,0.1397 -0.342899,0.213783 -0.192617,0.07197 -0.41275,0.07197 z m -0.874182,-1.119716 v -0.26035 h 1.746248 v 0.26035 z"
         style="stroke-width:0.264583"
         id="path2618" />
    </g>
    <g
       aria-label="Compute"
       id="text2528"
       style="font-weight:900;font-size:4.23333px;line-height:1.25;font-family:Manrope;-inkscape-font-specification:'Manrope Heavy';stroke-width:0.264583">
      <path
         d="m 77.441047,72.96856 q -0.446617,0 -0.762,-0.198967 -0.315383,-0.198966 -0.478366,-0.556683 -0.162983,-0.359833 -0.162983,-0.831849 0,-0.472016 0.162983,-0.829733 0.162983,-0.359833 0.478366,-0.558799 0.315383,-0.198967 0.762,-0.198967 0.349249,0 0.618066,0.122767 0.268816,0.12065 0.446616,0.347133 0.179917,0.224367 0.264583,0.531283 l -0.3175,0.08255 q -0.09948,-0.370417 -0.355599,-0.57785 -0.256117,-0.207433 -0.656166,-0.207433 -0.34925,0 -0.59055,0.162983 -0.239183,0.160867 -0.359833,0.45085 -0.12065,0.287866 -0.124883,0.675216 -0.0021,0.385233 0.118533,0.675216 0.122767,0.289983 0.364066,0.452966 0.243417,0.160867 0.592667,0.160867 0.400049,0 0.656166,-0.207433 0.256116,-0.207433 0.355599,-0.57785 l 0.3175,0.08255 q -0.08467,0.306917 -0.264583,0.5334 -0.1778,0.224366 -0.446616,0.347133 -0.268817,0.12065 -0.618066,0.12065 z"
         style="stroke-width:0.264583"
         id="path2595" />
      <path
         d="m 80.190594,72.96856 q -0.334433,0 -0.579966,-0.1524 -0.243417,-0.1524 -0.372533,-0.42545 -0.129117,-0.275166 -0.129117,-0.630766 0,-0.357716 0.131233,-0.630766 0.131233,-0.27305 0.376767,-0.423333 0.245533,-0.150283 0.573616,-0.150283 0.336549,0 0.579966,0.1524 0.245533,0.1524 0.37465,0.425449 0.129116,0.270933 0.129116,0.626533 0,0.359833 -0.131233,0.632883 -0.129117,0.27305 -0.37465,0.42545 -0.243416,0.150283 -0.577849,0.150283 z m 0,-0.29845 q 0.24765,0 0.416983,-0.112183 0.169333,-0.1143 0.251883,-0.319617 0.08467,-0.205316 0.08467,-0.478366 0,-0.423333 -0.192616,-0.664633 -0.192617,-0.241299 -0.560916,-0.241299 -0.249767,0 -0.4191,0.114299 -0.167216,0.112184 -0.249766,0.315384 -0.08255,0.203199 -0.08255,0.476249 0,0.277283 0.08467,0.4826 0.08678,0.205316 0.254,0.317499 0.169333,0.110067 0.41275,0.110067 z"
         style="stroke-width:0.264583"
         id="path2597" />
      <path
         d="m 84.468371,71.404344 q 0,-0.173566 -0.06773,-0.300566 -0.06562,-0.129117 -0.18415,-0.19685 -0.118533,-0.06985 -0.268816,-0.06985 -0.1397,0 -0.26035,0.0635 -0.12065,0.06138 -0.19685,0.194733 -0.0762,0.131234 -0.0762,0.334433 l -0.184149,-0.05292 q -0.0063,-0.2413 0.09525,-0.427567 0.101599,-0.186266 0.283633,-0.287866 0.182033,-0.103717 0.410633,-0.103717 0.228599,0 0.400049,0.09737 0.173567,0.09525 0.2667,0.27305 0.09313,0.1778 0.09313,0.416983 l -0.0021,1.559982 h -0.31115 z m -2.730498,1.500716 v -2.285998 h 0.2794 v 0.563033 h 0.03387 v 1.722965 z m 1.369482,-1.479549 q 0,-0.179916 -0.06562,-0.31115 -0.06562,-0.13335 -0.184149,-0.205316 -0.118534,-0.07197 -0.277284,-0.07197 -0.156633,0 -0.277283,0.07408 -0.118533,0.07197 -0.186266,0.207434 -0.06562,0.13335 -0.06562,0.311149 l -0.186266,-0.1016 q 0,-0.218016 0.103716,-0.393699 0.103717,-0.175683 0.28575,-0.275167 0.182033,-0.1016 0.4064,-0.1016 0.220133,0 0.391583,0.09525 0.17145,0.09313 0.2667,0.27305 0.09525,0.1778 0.09525,0.427566 l -0.0021,1.551516 h -0.306917 z"
         style="stroke-width:0.264583"
         id="path2599" />
      <path
         d="m 86.356433,72.96856 q -0.306916,0 -0.527049,-0.156633 -0.220133,-0.15875 -0.334433,-0.4318 -0.1143,-0.275167 -0.1143,-0.620183 0,-0.351366 0.1143,-0.622299 0.1143,-0.27305 0.336549,-0.427567 0.224367,-0.154516 0.537633,-0.154516 0.3048,0 0.531283,0.156633 0.2286,0.156633 0.34925,0.4318 0.12065,0.273049 0.12065,0.615949 0,0.345016 -0.12065,0.620183 -0.12065,0.275166 -0.351366,0.4318 -0.2286,0.156633 -0.541867,0.156633 z m -1.028699,0.952499 v -3.301997 h 0.2794 v 1.720848 h 0.03387 v 1.581149 z m 0.996949,-1.242482 q 0.232834,0 0.3937,-0.118534 0.160867,-0.118533 0.2413,-0.325966 0.08043,-0.20955 0.08043,-0.474133 0,-0.264583 -0.08043,-0.472016 -0.07832,-0.207433 -0.2413,-0.32385 -0.162983,-0.118533 -0.40005,-0.118533 -0.232833,0 -0.393699,0.116416 -0.15875,0.1143 -0.239183,0.319617 -0.07832,0.205316 -0.07832,0.478366 0,0.270933 0.08043,0.478366 0.08043,0.207434 0.2413,0.32385 0.160867,0.116417 0.395816,0.116417 z"
         style="stroke-width:0.264583"
         id="path2601" />
      <path
         d="m 88.710161,72.96221 q -0.325967,0 -0.531283,-0.156633 -0.205317,-0.156634 -0.296333,-0.395817 -0.0889,-0.2413 -0.0889,-0.533399 v -1.257299 h 0.313266 v 1.166282 q 0,0.27305 0.06562,0.465666 0.06773,0.1905 0.2159,0.302683 0.148166,0.112184 0.380999,0.112184 0.220134,0 0.370417,-0.09737 0.150283,-0.09948 0.2286,-0.283633 0.07832,-0.186267 0.07832,-0.446616 l 0.220133,0.04868 q 0,0.3429 -0.120649,0.586316 -0.12065,0.2413 -0.33655,0.366183 -0.2159,0.122767 -0.499533,0.122767 z m 0.768349,-0.05715 v -0.563033 h -0.03175 v -1.722965 h 0.31115 v 2.285998 z"
         style="stroke-width:0.264583"
         id="path2603" />
      <path
         d="m 91.595175,72.90506 q -0.3175,0.06562 -0.575733,0.0021 -0.256116,-0.06138 -0.361949,-0.275166 -0.04868,-0.103717 -0.06138,-0.20955 -0.0127,-0.105833 -0.01058,-0.28575 v -0.05927 -2.093382 h 0.309033 v 2.080682 0.06773 q -0.0021,0.137583 0.0042,0.211667 0.0085,0.07197 0.04233,0.131233 0.07408,0.135466 0.230716,0.167216 0.15875,0.03175 0.423333,-0.01058 z m -1.498599,-2.019298 v -0.2667 h 1.498599 v 0.2667 z"
         style="stroke-width:0.264583"
         id="path2605" />
      <path
         d="m 92.928669,72.96856 q -0.3302,0 -0.57785,-0.14605 -0.247649,-0.148167 -0.383116,-0.4191 -0.13335,-0.270933 -0.13335,-0.630766 0,-0.372533 0.13335,-0.645583 0.13335,-0.275166 0.376766,-0.423333 0.243417,-0.148166 0.5715,-0.148166 0.33655,0 0.575733,0.154516 0.2413,0.154517 0.364066,0.446617 0.122767,0.292099 0.112183,0.692149 h -0.317499 v -0.110067 q -0.0063,-0.296333 -0.0889,-0.495299 -0.08255,-0.198967 -0.243417,-0.300567 -0.160866,-0.101599 -0.393699,-0.101599 -0.243417,0 -0.414867,0.107949 -0.169333,0.105834 -0.258233,0.313267 -0.08678,0.205316 -0.08678,0.499533 0,0.287866 0.08678,0.491066 0.0889,0.2032 0.258233,0.31115 0.169333,0.105833 0.4064,0.105833 0.243416,0 0.427566,-0.112183 0.18415,-0.112183 0.289983,-0.328083 l 0.289983,0.112183 q -0.0889,0.198966 -0.239183,0.340783 -0.148166,0.1397 -0.342899,0.213783 -0.192617,0.07197 -0.41275,0.07197 z m -0.874183,-1.119716 v -0.26035 h 1.746249 v 0.26035 z"
         style="stroke-width:0.264583"
         id="path2607" />
    </g>
    <g
       aria-label="Represent"
       id="text2532"
       style="font-weight:900;font-size:4.23333px;line-height:1.25;font-family:Manrope;-inkscape-font-specification:'Manrope Heavy';stroke-width:0.264583">
      <path
         d="m 49.295307,54.990452 v -3.047998 h 1.176866 q 0.110066,0 0.213783,0.01693 0.232833,0.03598 0.400049,0.1651 0.167217,0.129116 0.254,0.325966 0.0889,0.19685 0.0889,0.43815 0,0.232833 -0.08255,0.425449 -0.08255,0.192617 -0.2413,0.321733 -0.158749,0.129117 -0.378883,0.17145 l -0.10795,0.0254 h -1.011765 v 1.157816 z m 1.845732,0 -0.601133,-1.240366 0.29845,-0.1143 0.660399,1.354666 z m -0.677333,-1.454149 q 0.103717,0 0.188383,-0.01905 0.150283,-0.03175 0.251883,-0.124883 0.103717,-0.09525 0.154517,-0.226483 0.0508,-0.131234 0.0508,-0.277283 0,-0.148167 -0.0508,-0.2794 -0.0508,-0.131233 -0.154517,-0.224367 -0.1016,-0.09313 -0.251883,-0.127 -0.08467,-0.01693 -0.188383,-0.01693 h -0.857249 v 1.295399 z"
         style="stroke-width:0.264583"
         id="path2547" />
      <path
         d="m 52.931733,55.053952 q -0.3302,0 -0.57785,-0.14605 -0.24765,-0.148167 -0.383116,-0.4191 -0.13335,-0.270933 -0.13335,-0.630766 0,-0.372533 0.13335,-0.645583 0.13335,-0.275166 0.376766,-0.423333 0.243417,-0.148166 0.5715,-0.148166 0.336549,0 0.575732,0.154516 0.2413,0.154517 0.364067,0.446617 0.122766,0.292099 0.112183,0.692149 h -0.3175 v -0.110067 q -0.0063,-0.296333 -0.0889,-0.495299 -0.08255,-0.198967 -0.243416,-0.300567 -0.160867,-0.101599 -0.3937,-0.101599 -0.243416,0 -0.414866,0.107949 -0.169333,0.105834 -0.258233,0.313267 -0.08678,0.205316 -0.08678,0.499533 0,0.287866 0.08678,0.491066 0.0889,0.2032 0.258233,0.31115 0.169333,0.105833 0.4064,0.105833 0.243416,0 0.427566,-0.112183 0.18415,-0.112183 0.289983,-0.328083 l 0.289983,0.112183 q -0.0889,0.198966 -0.239183,0.340783 -0.148167,0.1397 -0.3429,0.213783 -0.192616,0.07197 -0.412749,0.07197 z M 52.05755,53.934236 v -0.26035 h 1.746249 v 0.26035 z"
         style="stroke-width:0.264583"
         id="path2549" />
      <path
         d="m 55.401872,55.053952 q -0.306916,0 -0.527049,-0.156633 -0.220134,-0.15875 -0.334433,-0.4318 -0.1143,-0.275167 -0.1143,-0.620183 0,-0.351366 0.1143,-0.622299 0.114299,-0.27305 0.336549,-0.427567 0.224367,-0.154516 0.537633,-0.154516 0.3048,0 0.531283,0.156633 0.2286,0.156633 0.34925,0.4318 0.12065,0.273049 0.12065,0.615949 0,0.345016 -0.12065,0.620183 -0.12065,0.275166 -0.351367,0.4318 -0.228599,0.156633 -0.541866,0.156633 z m -1.028699,0.952499 v -3.301997 h 0.2794 v 1.720848 h 0.03387 v 1.581149 z m 0.996949,-1.242482 q 0.232833,0 0.3937,-0.118534 0.160866,-0.118533 0.2413,-0.325966 0.08043,-0.20955 0.08043,-0.474133 0,-0.264583 -0.08043,-0.472016 -0.07832,-0.207433 -0.2413,-0.32385 -0.162983,-0.118533 -0.40005,-0.118533 -0.232833,0 -0.393699,0.116416 -0.15875,0.1143 -0.239184,0.319617 -0.07832,0.205316 -0.07832,0.478366 0,0.270933 0.08043,0.478366 0.08043,0.207434 0.2413,0.32385 0.160866,0.116417 0.395816,0.116417 z"
         style="stroke-width:0.264583"
         id="path2551" />
      <path
         d="m 56.881417,54.990452 v -2.285998 h 0.2794 v 0.550333 l -0.05503,-0.07197 q 0.0381,-0.09948 0.09948,-0.186267 0.06138,-0.08678 0.13335,-0.141816 0.08678,-0.0762 0.203199,-0.118533 0.118534,-0.04233 0.239184,-0.04868 0.122766,-0.0085 0.224366,0.01693 v 0.292099 q -0.1397,-0.03387 -0.28575,-0.0127 -0.143933,0.02117 -0.260349,0.116416 -0.110067,0.08467 -0.169334,0.205317 -0.05715,0.118533 -0.07832,0.245533 -0.01905,0.124883 -0.01905,0.298449 v 1.140883 z"
         style="stroke-width:0.264583"
         id="path2553" />
      <path
         d="m 59.332507,55.053952 q -0.3302,0 -0.577849,-0.14605 -0.24765,-0.148167 -0.383117,-0.4191 -0.13335,-0.270933 -0.13335,-0.630766 0,-0.372533 0.13335,-0.645583 0.13335,-0.275166 0.376767,-0.423333 0.243416,-0.148166 0.571499,-0.148166 0.33655,0 0.575733,0.154516 0.2413,0.154517 0.364066,0.446617 0.122767,0.292099 0.112184,0.692149 h -0.3175 v -0.110067 q -0.0064,-0.296333 -0.0889,-0.495299 -0.08255,-0.198967 -0.243417,-0.300567 -0.160866,-0.101599 -0.393699,-0.101599 -0.243417,0 -0.414867,0.107949 -0.169333,0.105834 -0.258233,0.313267 -0.08678,0.205316 -0.08678,0.499533 0,0.287866 0.08678,0.491066 0.0889,0.2032 0.258233,0.31115 0.169334,0.105833 0.4064,0.105833 0.243417,0 0.427566,-0.112183 0.18415,-0.112183 0.289983,-0.328083 l 0.289984,0.112183 q -0.0889,0.198966 -0.239184,0.340783 -0.148166,0.1397 -0.342899,0.213783 -0.192617,0.07197 -0.41275,0.07197 z m -0.874183,-1.119716 v -0.26035 h 1.746249 v 0.26035 z"
         style="stroke-width:0.264583"
         id="path2555" />
      <path
         d="m 61.692586,55.051835 q -0.264583,0 -0.472017,-0.07832 -0.207433,-0.07832 -0.338666,-0.224366 -0.129116,-0.148167 -0.169333,-0.353483 l 0.3175,-0.05292 q 0.03387,0.131234 0.127,0.226484 0.09313,0.09525 0.234949,0.148166 0.141817,0.0508 0.3175,0.0508 0.17145,0 0.29845,-0.04868 0.127,-0.0508 0.194733,-0.141817 0.06773,-0.09313 0.06773,-0.2159 0,-0.110066 -0.04868,-0.173566 -0.04868,-0.06562 -0.188383,-0.12065 -0.137583,-0.05503 -0.440266,-0.137583 -0.315384,-0.08467 -0.48895,-0.169333 -0.173567,-0.08467 -0.24765,-0.194734 -0.07408,-0.110066 -0.07408,-0.273049 0,-0.192617 0.10795,-0.340783 0.110066,-0.148167 0.306916,-0.2286 0.19685,-0.08255 0.452966,-0.08255 0.256117,0 0.461433,0.08467 0.205317,0.08255 0.3302,0.23495 0.124883,0.150283 0.148167,0.347133 l -0.3175,0.05715 q -0.02328,-0.13335 -0.105833,-0.230716 -0.08255,-0.09948 -0.2159,-0.1524 -0.13335,-0.05503 -0.3048,-0.05715 -0.160866,-0.0042 -0.28575,0.04022 -0.122766,0.04233 -0.192616,0.124883 -0.06985,0.08043 -0.06985,0.188383 0,0.09313 0.05503,0.156633 0.05715,0.0635 0.19685,0.12065 0.1397,0.05503 0.416983,0.124883 0.319616,0.08043 0.497416,0.169333 0.1778,0.0889 0.254,0.20955 0.0762,0.118533 0.0762,0.29845 0,0.213783 -0.10795,0.370416 -0.10795,0.156634 -0.31115,0.2413 -0.203199,0.08255 -0.482599,0.08255 z"
         style="stroke-width:0.264583"
         id="path2557" />
      <path
         d="m 64.029383,55.053952 q -0.3302,0 -0.57785,-0.14605 -0.24765,-0.148167 -0.383116,-0.4191 -0.13335,-0.270933 -0.13335,-0.630766 0,-0.372533 0.13335,-0.645583 0.13335,-0.275166 0.376766,-0.423333 0.243417,-0.148166 0.5715,-0.148166 0.336549,0 0.575733,0.154516 0.241299,0.154517 0.364066,0.446617 0.122766,0.292099 0.112183,0.692149 h -0.3175 v -0.110067 q -0.0063,-0.296333 -0.0889,-0.495299 -0.08255,-0.198967 -0.243416,-0.300567 -0.160867,-0.101599 -0.3937,-0.101599 -0.243416,0 -0.414866,0.107949 -0.169333,0.105834 -0.258233,0.313267 -0.08678,0.205316 -0.08678,0.499533 0,0.287866 0.08678,0.491066 0.0889,0.2032 0.258233,0.31115 0.169333,0.105833 0.4064,0.105833 0.243416,0 0.427566,-0.112183 0.18415,-0.112183 0.289983,-0.328083 l 0.289983,0.112183 q -0.0889,0.198966 -0.239183,0.340783 -0.148167,0.1397 -0.3429,0.213783 -0.192616,0.07197 -0.412749,0.07197 z M 63.1552,53.934236 v -0.26035 h 1.746249 v 0.26035 z"
         style="stroke-width:0.264583"
         id="path2559" />
      <path
         d="m 67.123939,53.824169 q 0,-0.273049 -0.06773,-0.463549 -0.06562,-0.192617 -0.213784,-0.3048 -0.148166,-0.112183 -0.380999,-0.112183 -0.220133,0 -0.370417,0.09948 -0.150283,0.09737 -0.228599,0.283633 -0.07832,0.18415 -0.07832,0.4445 l -0.220133,-0.04868 q 0,-0.3429 0.12065,-0.5842 0.12065,-0.243416 0.336549,-0.366183 0.2159,-0.124883 0.499533,-0.124883 0.325967,0 0.531283,0.156633 0.205317,0.156633 0.294217,0.397933 0.09102,0.239183 0.09102,0.531283 v 1.257299 h -0.313266 z m -1.653115,1.166283 v -2.285998 h 0.281516 v 0.563033 h 0.03175 v 1.722965 z"
         style="stroke-width:0.264583"
         id="path2561" />
      <path
         d="m 69.232136,54.990452 q -0.3175,0.06562 -0.575733,0.0021 -0.256116,-0.06138 -0.361949,-0.275166 -0.04868,-0.103717 -0.06138,-0.20955 -0.0127,-0.105833 -0.01058,-0.28575 v -0.05927 -2.093382 h 0.309033 v 2.080682 0.06773 q -0.0021,0.137583 0.0042,0.211667 0.0085,0.07197 0.04233,0.131233 0.07408,0.135466 0.230716,0.167216 0.15875,0.03175 0.423333,-0.01058 z m -1.498599,-2.019298 v -0.2667 h 1.498599 v 0.2667 z"
         style="stroke-width:0.264583"
         id="path2563" />
    </g>
    <g
       aria-label="Interpret"
       id="text2536"
       style="font-weight:900;font-size:4.23333px;line-height:1.25;font-family:Manrope;-inkscape-font-specification:'Manrope Heavy';stroke-width:0.264583">
      <path
         d="M 116.29847,54.910828 V 51.86283 h 0.31115 v 3.047998 z"
         style="stroke-width:0.264583"
         id="path2638" />
      <path
         d="m 118.89562,53.744545 q 0,-0.273049 -0.0677,-0.463549 -0.0656,-0.192617 -0.21379,-0.3048 -0.14816,-0.112183 -0.381,-0.112183 -0.22013,0 -0.37041,0.09948 -0.15029,0.09737 -0.2286,0.283633 -0.0783,0.18415 -0.0783,0.4445 l -0.22013,-0.04868 q 0,-0.342899 0.12065,-0.584199 0.12065,-0.243417 0.33655,-0.366183 0.2159,-0.124883 0.49953,-0.124883 0.32597,0 0.53128,0.156633 0.20532,0.156633 0.29422,0.397933 0.091,0.239183 0.091,0.531283 v 1.257299 h -0.31327 z m -1.65311,1.166283 V 52.62483 h 0.28151 v 0.563032 h 0.0318 v 1.722966 z"
         style="stroke-width:0.264583"
         id="path2640" />
      <path
         d="m 121.00382,54.910828 q -0.3175,0.06562 -0.57573,0.0021 -0.25612,-0.06138 -0.36195,-0.275166 -0.0487,-0.103717 -0.0614,-0.20955 -0.0127,-0.105833 -0.0106,-0.28575 v -0.05927 -2.093382 h 0.30903 v 2.080682 0.06773 q -0.002,0.137583 0.004,0.211666 0.008,0.07197 0.0423,0.131234 0.0741,0.135466 0.23072,0.167216 0.15875,0.03175 0.42333,-0.01058 z m -1.4986,-2.019299 V 52.62483 h 1.4986 v 0.266699 z"
         style="stroke-width:0.264583"
         id="path2642" />
      <path
         d="m 122.33731,54.974328 q -0.3302,0 -0.57785,-0.14605 -0.24765,-0.148167 -0.38311,-0.4191 -0.13335,-0.270933 -0.13335,-0.630766 0,-0.372533 0.13335,-0.645583 0.13335,-0.275166 0.37676,-0.423333 0.24342,-0.148166 0.5715,-0.148166 0.33655,0 0.57574,0.154516 0.2413,0.154517 0.36406,0.446616 0.12277,0.2921 0.11219,0.69215 h -0.3175 v -0.110067 q -0.006,-0.296333 -0.0889,-0.495299 -0.0826,-0.198967 -0.24342,-0.300567 -0.16087,-0.1016 -0.3937,-0.1016 -0.24342,0 -0.41487,0.10795 -0.16933,0.105834 -0.25823,0.313267 -0.0868,0.205316 -0.0868,0.499533 0,0.287866 0.0868,0.491066 0.0889,0.2032 0.25823,0.31115 0.16934,0.105833 0.4064,0.105833 0.24342,0 0.42757,-0.112183 0.18415,-0.112184 0.28998,-0.328083 l 0.28999,0.112183 q -0.0889,0.198966 -0.23919,0.340783 -0.14816,0.1397 -0.3429,0.213783 -0.19261,0.07197 -0.41275,0.07197 z m -0.87418,-1.119716 v -0.26035 h 1.74625 v 0.26035 z"
         style="stroke-width:0.264583"
         id="path2644" />
      <path
         d="M 123.84438,54.910828 V 52.62483 h 0.2794 v 0.550332 l -0.055,-0.07197 q 0.0381,-0.09948 0.0995,-0.186267 0.0614,-0.08678 0.13334,-0.141816 0.0868,-0.0762 0.2032,-0.118533 0.11854,-0.04233 0.23919,-0.04868 0.12276,-0.0085 0.22436,0.01693 v 0.292099 q -0.1397,-0.03387 -0.28575,-0.0127 -0.14393,0.02117 -0.26035,0.116417 -0.11006,0.08467 -0.16933,0.205316 -0.0571,0.118534 -0.0783,0.245534 -0.0191,0.124883 -0.0191,0.298449 v 1.140883 z"
         style="stroke-width:0.264583"
         id="path2646" />
      <path
         d="m 126.39707,54.974328 q -0.30692,0 -0.52705,-0.156634 -0.22014,-0.158749 -0.33444,-0.431799 -0.1143,-0.275167 -0.1143,-0.620183 0,-0.351366 0.1143,-0.6223 0.1143,-0.273049 0.33655,-0.427566 0.22437,-0.154516 0.53764,-0.154516 0.3048,0 0.53128,0.156633 0.2286,0.156633 0.34925,0.431799 0.12065,0.27305 0.12065,0.61595 0,0.345016 -0.12065,0.620183 -0.12065,0.275166 -0.35137,0.431799 -0.2286,0.156634 -0.54186,0.156634 z m -1.0287,0.952499 V 52.62483 h 0.2794 v 1.720848 h 0.0339 v 1.581149 z m 0.99695,-1.242483 q 0.23283,0 0.3937,-0.118533 0.16086,-0.118533 0.2413,-0.325966 0.0804,-0.20955 0.0804,-0.474133 0,-0.264583 -0.0804,-0.472016 -0.0783,-0.207433 -0.2413,-0.32385 -0.16299,-0.118533 -0.40005,-0.118533 -0.23284,0 -0.3937,0.116416 -0.15875,0.1143 -0.23919,0.319617 -0.0783,0.205316 -0.0783,0.478366 0,0.270933 0.0804,0.478366 0.0804,0.207433 0.2413,0.32385 0.16087,0.116416 0.39582,0.116416 z"
         style="stroke-width:0.264583"
         id="path2648" />
      <path
         d="M 127.87661,54.910828 V 52.62483 h 0.2794 v 0.550332 l -0.055,-0.07197 q 0.0381,-0.09948 0.0995,-0.186267 0.0614,-0.08678 0.13335,-0.141816 0.0868,-0.0762 0.2032,-0.118533 0.11853,-0.04233 0.23918,-0.04868 0.12277,-0.0085 0.22437,0.01693 v 0.292099 q -0.1397,-0.03387 -0.28575,-0.0127 -0.14393,0.02117 -0.26035,0.116417 -0.11007,0.08467 -0.16933,0.205316 -0.0572,0.118534 -0.0783,0.245534 -0.019,0.124883 -0.019,0.298449 v 1.140883 z"
         style="stroke-width:0.264583"
         id="path2650" />
      <path
         d="m 130.3277,54.974328 q -0.3302,0 -0.57785,-0.14605 -0.24765,-0.148167 -0.38311,-0.4191 -0.13335,-0.270933 -0.13335,-0.630766 0,-0.372533 0.13335,-0.645583 0.13335,-0.275166 0.37676,-0.423333 0.24342,-0.148166 0.5715,-0.148166 0.33655,0 0.57573,0.154516 0.2413,0.154517 0.36407,0.446616 0.12277,0.2921 0.11218,0.69215 h -0.3175 v -0.110067 q -0.006,-0.296333 -0.0889,-0.495299 -0.0825,-0.198967 -0.24341,-0.300567 -0.16087,-0.1016 -0.3937,-0.1016 -0.24342,0 -0.41487,0.10795 -0.16933,0.105834 -0.25823,0.313267 -0.0868,0.205316 -0.0868,0.499533 0,0.287866 0.0868,0.491066 0.0889,0.2032 0.25823,0.31115 0.16934,0.105833 0.4064,0.105833 0.24342,0 0.42757,-0.112183 0.18415,-0.112184 0.28998,-0.328083 l 0.28998,0.112183 q -0.0889,0.198966 -0.23918,0.340783 -0.14817,0.1397 -0.3429,0.213783 -0.19262,0.07197 -0.41275,0.07197 z m -0.87418,-1.119716 v -0.26035 h 1.74625 v 0.26035 z"
         style="stroke-width:0.264583"
         id="path2652" />
      <path
         d="m 133.07936,54.910828 q -0.3175,0.06562 -0.57573,0.0021 -0.25612,-0.06138 -0.36195,-0.275166 -0.0487,-0.103717 -0.0614,-0.20955 -0.0127,-0.105833 -0.0106,-0.28575 v -0.05927 -2.093382 h 0.30904 v 2.080682 0.06773 q -0.002,0.137583 0.004,0.211666 0.008,0.07197 0.0423,0.131234 0.0741,0.135466 0.23072,0.167216 0.15875,0.03175 0.42333,-0.01058 z m -1.4986,-2.019299 V 52.62483 h 1.4986 v 0.266699 z"
         style="stroke-width:0.264583"
         id="path2654" />
    </g>
  </g>
</svg>
