<?xml version="1.0" encoding="UTF-8" standalone="no"?>
<svg
   xmlns:dc="http://purl.org/dc/elements/1.1/"
   xmlns:cc="http://creativecommons.org/ns#"
   xmlns:rdf="http://www.w3.org/1999/02/22-rdf-syntax-ns#"
   xmlns:svg="http://www.w3.org/2000/svg"
   xmlns="http://www.w3.org/2000/svg"
   xmlns:sodipodi="http://sodipodi.sourceforge.net/DTD/sodipodi-0.dtd"
   xmlns:inkscape="http://www.inkscape.org/namespaces/inkscape"
   width="127.31925mm"
   height="82.499931mm"
   viewBox="0 0 127.31926 82.499932"
   version="1.1"
   id="svg2706"
   inkscape:version="1.0.1 (3bc2e813f5, 2020-09-07)"
   sodipodi:docname="time-discount.svg">
  <defs
     id="defs2700">
    <marker
       style="overflow:visible"
       id="marker3289"
       refX="0"
       refY="0"
       orient="auto"
       inkscape:stockid="Arrow1Mend"
       inkscape:isstock="true">
      <path
         transform="matrix(-0.4,0,0,-0.4,-4,0)"
         style="fill:#000000;fill-opacity:1;fill-rule:evenodd;stroke:#000000;stroke-width:1pt;stroke-opacity:1"
         d="M 0,0 5,-5 -12.5,0 5,5 Z"
         id="path3287" />
    </marker>
    <marker
       style="overflow:visible"
       id="Arrow1Mend"
       refX="0"
       refY="0"
       orient="auto"
       inkscape:stockid="Arrow1Mend"
       inkscape:isstock="true"
       inkscape:collect="always">
      <path
         transform="matrix(-0.4,0,0,-0.4,-4,0)"
         style="fill:#000000;fill-opacity:1;fill-rule:evenodd;stroke:#000000;stroke-width:1pt;stroke-opacity:1"
         d="M 0,0 5,-5 -12.5,0 5,5 Z"
         id="path1146" />
    </marker>
  </defs>
  <sodipodi:namedview
     id="base"
     pagecolor="#ffffff"
     bordercolor="#666666"
     borderopacity="1.0"
     inkscape:pageopacity="0.0"
     inkscape:pageshadow="2"
     inkscape:zoom="1.979899"
     inkscape:cx="109.38435"
     inkscape:cy="212.63854"
     inkscape:document-units="mm"
     inkscape:current-layer="layer1"
     inkscape:document-rotation="0"
     showgrid="false"
     inkscape:snap-midpoints="true"
     fit-margin-top="3"
     lock-margins="true"
     fit-margin-left="3"
     fit-margin-right="3"
     fit-margin-bottom="3"
     inkscape:window-width="2256"
     inkscape:window-height="1410"
     inkscape:window-x="-11"
     inkscape:window-y="-11"
     inkscape:window-maximized="1" />
  <metadata
     id="metadata2703">
    <rdf:RDF>
      <cc:Work
         rdf:about="">
        <dc:format>image/svg+xml</dc:format>
        <dc:type
           rdf:resource="http://purl.org/dc/dcmitype/StillImage" />
        <dc:title></dc:title>
      </cc:Work>
    </rdf:RDF>
  </metadata>
  <g
     inkscape:label="Layer 1"
     inkscape:groupmode="layer"
     id="layer1"
     transform="translate(-13.974477,-7.763572)">
    <path
       style="fill:none;stroke:#000000;stroke-width:0.264583px;stroke-linecap:butt;stroke-linejoin:miter;stroke-opacity:1;marker-end:url(#marker3289)"
       d="M 17.907058,51.917105 H 137.77232"
       id="path2710" />
    <path
       style="fill:none;stroke:#000000;stroke-width:0.265;stroke-linecap:butt;stroke-linejoin:miter;stroke-miterlimit:4;stroke-dasharray:none;stroke-opacity:1;marker-end:url(#Arrow1Mend)"
       d="M 17.907058,87.263501 V 16.570711"
       id="path2708" />
    <path
       style="fill:none;stroke:#ff0000;stroke-width:0.264583;stroke-linecap:butt;stroke-linejoin:miter;stroke-miterlimit:4;stroke-dasharray:0.793749, 0.264583;stroke-dashoffset:0;stroke-opacity:1"
       d="M 17.907058,51.917105 127.68717,81.332598"
       id="path3367" />
    <path
       style="fill:none;stroke:#0066ff;stroke-width:0.264583px;stroke-linecap:butt;stroke-linejoin:miter;stroke-opacity:1"
       d="M 17.907058,51.917105 H 35.907739 V 41.293899 h 34.017854 v -8.693452 h 3.307292 V 27.78125 h 6.236607 v -3.590774 h 5.669643 V 19.37128 h 13.701638 v -2.645834 h 28.915177"
       id="path3369" />
    <path
       style="fill:none;stroke:#000000;stroke-width:0.264583px;stroke-linecap:butt;stroke-linejoin:miter;stroke-opacity:1"
       d="m 17.907058,51.917105 18.000681,4.823266"
       id="path3395" />
    <path
       style="fill:none;stroke:#000000;stroke-width:0.264583px;stroke-linecap:butt;stroke-linejoin:miter;stroke-opacity:1"
       d="M 35.907739,56.740371 V 46.117167"
       id="path3397" />
    <path
       style="fill:none;stroke:#000000;stroke-width:0.264583px;stroke-linecap:butt;stroke-linejoin:miter;stroke-opacity:1"
       d="m 35.907739,46.117165 34.017854,9.115058"
       id="path3399" />
    <path
       style="fill:none;stroke:#000000;stroke-width:0.264583px;stroke-linecap:butt;stroke-linejoin:miter;stroke-opacity:1"
       d="M 69.925593,55.232223 V 46.538771 Z"
       id="path3401" />
    <path
       style="fill:none;stroke:#000000;stroke-width:0.264583px;stroke-linecap:butt;stroke-linejoin:miter;stroke-opacity:1"
       d="m 73.232885,42.605759 v 4.819197"
       id="path3403" />
    <path
       style="fill:none;stroke:#000000;stroke-width:0.264583px;stroke-linecap:butt;stroke-linejoin:miter;stroke-opacity:1"
       d="m 79.469488,40.686084 2e-6,3.590769"
       id="path3405" />
    <path
       style="fill:none;stroke:#000000;stroke-width:0.264583px;stroke-linecap:butt;stroke-linejoin:miter;stroke-opacity:1"
       d="m 85.139135,37.386065 v 4.819196"
       id="path3407" />
    <path
       style="fill:none;stroke:#000000;stroke-width:0.264583px;stroke-linecap:butt;stroke-linejoin:miter;stroke-opacity:1"
       d="m 98.84077,41.057406 -3e-6,-2.645829 29.582243,8.093321"
       id="path3409" />
    <path
       style="fill:none;stroke:#000000;stroke-width:0.264583px;stroke-linecap:butt;stroke-linejoin:miter;stroke-opacity:1"
       d="m 69.925593,46.538771 3.307292,0.886185"
       id="path3411" />
    <path
       style="fill:none;stroke:#000000;stroke-width:0.264583px;stroke-linecap:butt;stroke-linejoin:miter;stroke-opacity:1"
       d="m 73.232885,42.605758 6.236605,1.671095"
       id="path3413" />
    <path
       style="fill:none;stroke:#000000;stroke-width:0.264583px;stroke-linecap:butt;stroke-linejoin:miter;stroke-opacity:1"
       d="m 79.469487,40.686085 5.669648,1.519176"
       id="path3415" />
    <path
       style="fill:none;stroke:#000000;stroke-width:0.264583px;stroke-linecap:butt;stroke-linejoin:miter;stroke-opacity:1"
       d="M 85.139135,37.386064 98.84077,41.057406"
       id="path3417" />
    <g
       aria-label="Absolute Quality"
       id="text3421"
       style="font-weight:900;font-size:4.23333px;line-height:1.25;font-family:Manrope;-inkscape-font-specification:'Manrope Heavy';fill:#0055d4;stroke-width:0.264583">
      <path
         d="m 99.50893,15.902536 1.04987,-3.047997 h 0.41275 l 1.04986,3.047997 h -0.32385 l -0.99695,-2.874431 h 0.12277 l -0.990601,2.874431 z m 0.467783,-0.738716 v -0.292099 h 1.574797 v 0.292099 z"
         style="fill:#0055d4;stroke-width:0.264583"
         id="path3439" />
      <path
         d="m 103.42899,15.966036 q -0.30692,0 -0.52705,-0.156633 -0.22013,-0.15875 -0.33443,-0.431799 -0.1143,-0.275167 -0.1143,-0.620183 0,-0.351367 0.1143,-0.6223 0.1143,-0.27305 0.33655,-0.427566 0.22436,-0.154517 0.53763,-0.154517 0.3048,0 0.53128,0.156634 0.2286,0.156633 0.34925,0.431799 0.12065,0.27305 0.12065,0.61595 0,0.345016 -0.12065,0.620183 -0.12065,0.275166 -0.35136,0.431799 -0.2286,0.156633 -0.54187,0.156633 z m -1.0287,-0.0635 v -3.047997 h 0.31327 v 1.327149 h -0.0339 v 1.720848 z m 0.99695,-0.226483 q 0.23283,0 0.3937,-0.118533 0.16087,-0.118533 0.2413,-0.325966 0.0804,-0.20955 0.0804,-0.474133 0,-0.264583 -0.0804,-0.472017 -0.0783,-0.207433 -0.2413,-0.323849 -0.16298,-0.118534 -0.40005,-0.118534 -0.23283,0 -0.3937,0.116417 -0.15875,0.1143 -0.23918,0.319616 -0.0783,0.205317 -0.0783,0.478367 0,0.270933 0.0804,0.478366 0.0804,0.207433 0.2413,0.32385 0.16087,0.116416 0.39582,0.116416 z"
         style="fill:#0055d4;stroke-width:0.264583"
         id="path3441" />
      <path
         d="m 105.74039,15.96392 q -0.26459,0 -0.47202,-0.07832 -0.20743,-0.07832 -0.33867,-0.224366 -0.12911,-0.148167 -0.16933,-0.353483 l 0.3175,-0.05292 q 0.0339,0.131233 0.127,0.226483 0.0931,0.09525 0.23495,0.148167 0.14182,0.0508 0.3175,0.0508 0.17145,0 0.29845,-0.04868 0.127,-0.0508 0.19473,-0.141816 0.0677,-0.09313 0.0677,-0.2159 0,-0.110067 -0.0487,-0.173567 -0.0487,-0.06562 -0.18838,-0.120649 -0.13758,-0.05503 -0.44027,-0.137584 -0.31538,-0.08467 -0.48895,-0.169333 -0.17356,-0.08467 -0.24765,-0.194733 -0.0741,-0.110067 -0.0741,-0.27305 0,-0.192616 0.10795,-0.340783 0.11007,-0.148166 0.30692,-0.2286 0.19685,-0.08255 0.45296,-0.08255 0.25612,0 0.46144,0.08467 0.20531,0.08255 0.3302,0.23495 0.12488,0.150283 0.14816,0.347133 l -0.3175,0.05715 q -0.0233,-0.13335 -0.10583,-0.230717 -0.0825,-0.09948 -0.2159,-0.1524 -0.13335,-0.05503 -0.3048,-0.05715 -0.16087,-0.0042 -0.28575,0.04022 -0.12277,0.04233 -0.19262,0.124883 -0.0699,0.08043 -0.0699,0.188383 0,0.09313 0.055,0.156634 0.0571,0.0635 0.19685,0.12065 0.1397,0.05503 0.41698,0.124883 0.31962,0.08043 0.49742,0.169333 0.1778,0.0889 0.254,0.20955 0.0762,0.118533 0.0762,0.29845 0,0.213783 -0.10795,0.370416 -0.10795,0.156633 -0.31115,0.2413 -0.2032,0.08255 -0.4826,0.08255 z"
         style="fill:#0055d4;stroke-width:0.264583"
         id="path3443" />
      <path
         d="m 108.06448,15.966036 q -0.33443,0 -0.57996,-0.1524 -0.24342,-0.152399 -0.37254,-0.425449 -0.12911,-0.275167 -0.12911,-0.630766 0,-0.357717 0.13123,-0.630766 0.13123,-0.27305 0.37677,-0.423333 0.24553,-0.150284 0.57361,-0.150284 0.33655,0 0.57997,0.1524 0.24553,0.1524 0.37465,0.42545 0.12912,0.270933 0.12912,0.626533 0,0.359833 -0.13124,0.632882 -0.12911,0.27305 -0.37465,0.42545 -0.24341,0.150283 -0.57785,0.150283 z m 0,-0.298449 q 0.24765,0 0.41699,-0.112184 0.16933,-0.1143 0.25188,-0.319616 0.0847,-0.205317 0.0847,-0.478366 0,-0.423333 -0.19262,-0.664633 -0.19262,-0.2413 -0.56092,-0.2413 -0.24976,0 -0.4191,0.1143 -0.16721,0.112183 -0.24976,0.315383 -0.0825,0.2032 -0.0825,0.47625 0,0.277283 0.0847,0.482599 0.0868,0.205317 0.254,0.3175 0.16934,0.110067 0.41275,0.110067 z"
         style="fill:#0055d4;stroke-width:0.264583"
         id="path3445" />
      <path
         d="m 109.65621,15.902536 v -3.111497 h 0.31115 v 3.111497 z"
         style="fill:#0055d4;stroke-width:0.264583"
         id="path3447" />
      <path
         d="m 111.47654,15.959686 q -0.32596,0 -0.53128,-0.156633 -0.20532,-0.156633 -0.29633,-0.395816 -0.0889,-0.2413 -0.0889,-0.5334 v -1.257299 h 0.31326 v 1.166283 q 0,0.273049 0.0656,0.465666 0.0677,0.1905 0.2159,0.302683 0.14817,0.112183 0.381,0.112183 0.22013,0 0.37042,-0.09737 0.15028,-0.09948 0.22859,-0.283633 0.0783,-0.186267 0.0783,-0.446617 l 0.22013,0.04868 q 0,0.342899 -0.12065,0.586316 -0.12065,0.2413 -0.33654,0.366183 -0.2159,0.122766 -0.49954,0.122766 z m 0.76835,-0.05715 v -0.563032 h -0.0318 v -1.722966 h 0.31115 v 2.285998 z"
         style="fill:#0055d4;stroke-width:0.264583"
         id="path3449" />
      <path
         d="m 114.36156,15.902536 q -0.3175,0.06562 -0.57574,0.0021 -0.25611,-0.06138 -0.36195,-0.275166 -0.0487,-0.103717 -0.0614,-0.20955 -0.0127,-0.105833 -0.0106,-0.28575 V 15.0749 12.981519 h 0.30903 v 2.080681 0.06773 q -0.002,0.137583 0.004,0.211666 0.008,0.07197 0.0423,0.131233 0.0741,0.135467 0.23071,0.167217 0.15875,0.03175 0.42334,-0.01058 z m -1.4986,-2.019298 v -0.2667 h 1.4986 v 0.2667 z"
         style="fill:#0055d4;stroke-width:0.264583"
         id="path3451" />
      <path
         d="m 115.69505,15.966036 q -0.3302,0 -0.57785,-0.14605 -0.24765,-0.148166 -0.38312,-0.419099 -0.13335,-0.270933 -0.13335,-0.630766 0,-0.372533 0.13335,-0.645583 0.13335,-0.275167 0.37677,-0.423333 0.24342,-0.148167 0.5715,-0.148167 0.33655,0 0.57573,0.154517 0.2413,0.154516 0.36407,0.446616 0.12277,0.2921 0.11218,0.69215 h -0.3175 v -0.110067 q -0.006,-0.296333 -0.0889,-0.4953 -0.0825,-0.198966 -0.24341,-0.300566 -0.16087,-0.1016 -0.3937,-0.1016 -0.24342,0 -0.41487,0.10795 -0.16933,0.105833 -0.25823,0.313266 -0.0868,0.205317 -0.0868,0.499533 0,0.287867 0.0868,0.491067 0.0889,0.203199 0.25823,0.311149 0.16933,0.105834 0.4064,0.105834 0.24342,0 0.42757,-0.112184 0.18415,-0.112183 0.28998,-0.328083 l 0.28998,0.112184 q -0.0889,0.198966 -0.23918,0.340783 -0.14817,0.139699 -0.3429,0.213783 -0.19262,0.07197 -0.41275,0.07197 z m -0.87418,-1.119715 v -0.26035 h 1.74625 v 0.26035 z"
         style="fill:#0055d4;stroke-width:0.264583"
         id="path3453" />
      <path
         d="m 120.44272,15.96392 -0.8128,-0.808566 0.21167,-0.211667 0.80857,0.808566 z m -1.15993,0.0021 q -0.44662,0 -0.762,-0.198966 -0.31538,-0.198967 -0.47837,-0.556683 -0.16298,-0.359833 -0.16298,-0.831849 0,-0.472017 0.16298,-0.829733 0.16299,-0.359833 0.47837,-0.558799 0.31538,-0.198967 0.762,-0.198967 0.44662,0 0.762,0.198967 0.3175,0.198966 0.48048,0.558799 0.16299,0.357716 0.16299,0.829733 0,0.472016 -0.16299,0.831849 -0.16298,0.357716 -0.48048,0.556683 -0.31538,0.198966 -0.762,0.198966 z m 0,-0.298449 q 0.35137,0 0.59055,-0.160867 0.2413,-0.160866 0.36195,-0.45085 0.12277,-0.289983 0.12277,-0.677332 0,-0.385233 -0.12277,-0.675216 -0.12065,-0.289984 -0.36195,-0.45085 -0.23918,-0.160867 -0.59055,-0.162983 -0.34713,0 -0.58843,0.160866 -0.2413,0.160867 -0.36195,0.45085 -0.12065,0.289983 -0.12277,0.677333 -0.002,0.385233 0.11853,0.675216 0.12065,0.289983 0.36195,0.450849 0.24342,0.160867 0.59267,0.162984 z"
         style="fill:#0055d4;stroke-width:0.264583"
         id="path3455" />
      <path
         d="m 121.98577,15.959686 q -0.32597,0 -0.53128,-0.156633 -0.20532,-0.156633 -0.29634,-0.395816 -0.0889,-0.2413 -0.0889,-0.5334 v -1.257299 h 0.31327 v 1.166283 q 0,0.273049 0.0656,0.465666 0.0677,0.1905 0.21589,0.302683 0.14817,0.112183 0.381,0.112183 0.22014,0 0.37042,-0.09737 0.15028,-0.09948 0.2286,-0.283633 0.0783,-0.186267 0.0783,-0.446617 l 0.22013,0.04868 q 0,0.342899 -0.12065,0.586316 -0.12065,0.2413 -0.33655,0.366183 -0.2159,0.122766 -0.49953,0.122766 z m 0.76835,-0.05715 v -0.563032 h -0.0318 v -1.722966 h 0.31115 v 2.285998 z"
         style="fill:#0055d4;stroke-width:0.264583"
         id="path3457" />
      <path
         d="m 124.28023,15.966036 q -0.24976,0 -0.42756,-0.09102 -0.17569,-0.09102 -0.26459,-0.245533 -0.0889,-0.154517 -0.0889,-0.340783 0,-0.268817 0.15452,-0.4318 0.15452,-0.162983 0.42757,-0.232833 0.1778,-0.04445 0.38523,-0.07408 0.20743,-0.03175 0.56515,-0.07832 0.0572,-0.0085 0.10795,-0.0127 0.0508,-0.0063 0.0931,-0.01482 l -0.11007,0.06773 q 0.004,-0.230717 -0.055,-0.376767 -0.0593,-0.14605 -0.19473,-0.2159 -0.13547,-0.07197 -0.35984,-0.07197 -0.24129,0 -0.40216,0.10795 -0.15875,0.10795 -0.22225,0.332316 l -0.30268,-0.0889 q 0.0804,-0.309033 0.3175,-0.476249 0.23918,-0.169334 0.61383,-0.169334 0.31538,0 0.5334,0.118534 0.22013,0.118533 0.30903,0.338666 0.0402,0.09313 0.0529,0.211666 0.0148,0.118534 0.0148,0.26035 v 1.420282 h -0.27728 V 15.32892 l 0.0804,0.03387 q -0.0783,0.194733 -0.21378,0.3302 -0.13547,0.135466 -0.32173,0.205316 -0.18627,0.06773 -0.41487,0.06773 z m 0.036,-0.268816 q 0.21166,0 0.37464,-0.0762 0.1651,-0.07832 0.26459,-0.213783 0.1016,-0.135467 0.13335,-0.31115 0.019,-0.08467 0.0233,-0.1778 0.006,-0.09525 0.006,-0.224366 v -0.0381 l 0.11853,0.06138 -0.14181,0.01905 q -0.30692,0.03387 -0.51647,0.0635 -0.20955,0.02963 -0.37253,0.07408 -0.17357,0.04868 -0.28575,0.148167 -0.11007,0.09737 -0.11007,0.2667 0,0.105833 0.0508,0.198966 0.0529,0.09313 0.16722,0.1524 0.1143,0.05715 0.28787,0.05715 z"
         style="fill:#0055d4;stroke-width:0.264583"
         id="path3459" />
      <path
         d="m 126.02012,15.902536 v -3.111497 h 0.31115 v 3.111497 z"
         style="fill:#0055d4;stroke-width:0.264583"
         id="path3461" />
      <path
         d="m 127.0086,13.182622 v -0.34925 h 0.31115 v 0.34925 z m 0,2.719914 v -2.285998 h 0.31115 v 2.285998 z"
         style="fill:#0055d4;stroke-width:0.264583"
         id="path3463" />
      <path
         d="m 129.19935,15.902536 q -0.3175,0.06562 -0.57573,0.0021 -0.25612,-0.06138 -0.36195,-0.275166 -0.0487,-0.103717 -0.0614,-0.20955 -0.0127,-0.105833 -0.0106,-0.28575 V 15.0749 12.981519 h 0.30903 v 2.080681 0.06773 q -0.002,0.137583 0.004,0.211666 0.008,0.07197 0.0423,0.131233 0.0741,0.135467 0.23072,0.167217 0.15875,0.03175 0.42333,-0.01058 z m -1.4986,-2.019298 v -0.2667 h 1.4986 v 0.2667 z"
         style="fill:#0055d4;stroke-width:0.264583"
         id="path3465" />
      <path
         d="m 129.91266,16.918536 0.44238,-1.200149 0.006,0.355599 -1.00118,-2.457448 h 0.3302 l 0.82126,2.055282 h -0.13546 l 0.75776,-2.055282 h 0.3175 l -1.22766,3.301998 z"
         style="fill:#0055d4;stroke-width:0.264583"
         id="path3467" />
    </g>
    <g
       aria-label="Quality"
       id="text3425"
       style="font-weight:900;font-size:4.23333px;line-height:1.25;font-family:Manrope;-inkscape-font-specification:'Manrope Heavy';stroke-width:0.264583">
      <path
         d="m 19.537758,13.93647 -0.812799,-0.808566 0.211666,-0.211666 0.808566,0.808566 z m -1.159932,0.0021 q -0.446617,0 -0.762,-0.198967 -0.315383,-0.198966 -0.478366,-0.556683 -0.162983,-0.359833 -0.162983,-0.831849 0,-0.472016 0.162983,-0.829733 0.162983,-0.359833 0.478366,-0.558799 0.315383,-0.198967 0.762,-0.198967 0.446616,0 0.761999,0.198967 0.3175,0.198966 0.480483,0.558799 0.162983,0.357717 0.162983,0.829733 0,0.472016 -0.162983,0.831849 -0.162983,0.357717 -0.480483,0.556683 -0.315383,0.198967 -0.761999,0.198967 z m 0,-0.29845 q 0.351366,0 0.590549,-0.160867 0.2413,-0.160866 0.36195,-0.450849 0.122766,-0.289983 0.122766,-0.677333 0,-0.385233 -0.122766,-0.675216 -0.12065,-0.289983 -0.36195,-0.45085 -0.239183,-0.160866 -0.590549,-0.162983 -0.347133,0 -0.588433,0.160867 -0.2413,0.160866 -0.36195,0.450849 -0.12065,0.289983 -0.122766,0.677333 -0.0021,0.385233 0.118533,0.675216 0.12065,0.289983 0.36195,0.45085 0.243416,0.160866 0.592666,0.162983 z"
         style="stroke-width:0.264583"
         id="path3470" />
      <path
         d="m 21.080804,13.932237 q -0.325967,0 -0.531283,-0.156633 -0.205317,-0.156634 -0.296333,-0.395817 -0.0889,-0.2413 -0.0889,-0.533399 v -1.257299 h 0.313266 v 1.166282 q 0,0.27305 0.06562,0.465666 0.06773,0.1905 0.2159,0.302683 0.148166,0.112184 0.380999,0.112184 0.220134,0 0.370417,-0.09737 0.150283,-0.09948 0.2286,-0.283633 0.07832,-0.186267 0.07832,-0.446616 l 0.220133,0.04868 q 0,0.3429 -0.12065,0.586316 -0.120649,0.2413 -0.336549,0.366183 -0.2159,0.122767 -0.499533,0.122767 z m 0.768349,-0.05715 v -0.563033 h -0.03175 v -1.722965 h 0.31115 v 2.285998 z"
         style="stroke-width:0.264583"
         id="path3472" />
      <path
         d="m 23.375268,13.938587 q -0.249766,0 -0.427566,-0.09102 -0.175683,-0.09102 -0.264583,-0.245533 -0.0889,-0.154517 -0.0889,-0.340783 0,-0.268816 0.154516,-0.4318 0.154517,-0.162983 0.427567,-0.232833 0.1778,-0.04445 0.385233,-0.07408 0.207433,-0.03175 0.565149,-0.07832 0.05715,-0.0085 0.10795,-0.0127 0.0508,-0.0063 0.09313,-0.01482 l -0.110066,0.06773 q 0.0042,-0.230717 -0.05503,-0.376766 -0.05927,-0.14605 -0.194734,-0.2159 -0.135466,-0.07197 -0.359833,-0.07197 -0.241299,0 -0.402166,0.10795 -0.15875,0.10795 -0.22225,0.332316 l -0.302683,-0.0889 q 0.08043,-0.309034 0.3175,-0.47625 0.239183,-0.169333 0.613833,-0.169333 0.315383,0 0.533399,0.118533 0.220133,0.118533 0.309033,0.338666 0.04022,0.09313 0.05292,0.211667 0.01482,0.118533 0.01482,0.26035 v 1.420282 h -0.277283 v -0.573616 l 0.08043,0.03387 q -0.07832,0.194733 -0.213783,0.3302 -0.135467,0.135467 -0.321733,0.205316 -0.186267,0.06773 -0.414867,0.06773 z m 0.03598,-0.268817 q 0.211666,0 0.374649,-0.0762 0.1651,-0.07832 0.264583,-0.213783 0.1016,-0.135466 0.13335,-0.31115 0.01905,-0.08467 0.02328,-0.177799 0.0063,-0.09525 0.0063,-0.224367 v -0.0381 l 0.118533,0.06138 -0.141817,0.01905 q -0.306916,0.03387 -0.516466,0.0635 -0.20955,0.02963 -0.372533,0.07408 -0.173567,0.04868 -0.28575,0.148166 -0.110066,0.09737 -0.110066,0.2667 0,0.105833 0.0508,0.198966 0.05292,0.09313 0.167216,0.1524 0.1143,0.05715 0.287867,0.05715 z"
         style="stroke-width:0.264583"
         id="path3474" />
      <path
         d="m 25.115159,13.875087 v -3.111498 h 0.311149 v 3.111498 z"
         style="stroke-width:0.264583"
         id="path3476" />
      <path
         d="m 26.103639,11.155172 v -0.349249 h 0.31115 v 0.349249 z m 0,2.719915 v -2.285998 h 0.31115 v 2.285998 z"
         style="stroke-width:0.264583"
         id="path3478" />
      <path
         d="m 28.294385,13.875087 q -0.317499,0.06562 -0.575733,0.0021 -0.256116,-0.06138 -0.361949,-0.275166 -0.04868,-0.103717 -0.06138,-0.20955 -0.0127,-0.105833 -0.01058,-0.28575 v -0.05927 -2.093382 h 0.309033 v 2.080682 0.06773 q -0.0021,0.137583 0.0042,0.211667 0.0085,0.07197 0.04233,0.131233 0.07408,0.135466 0.230716,0.167216 0.15875,0.03175 0.423333,-0.01058 z m -1.498598,-2.019299 v -0.266699 h 1.498598 v 0.266699 z"
         style="stroke-width:0.264583"
         id="path3480" />
      <path
         d="m 29.007694,14.891086 0.442383,-1.200149 0.0064,0.3556 -1.001183,-2.457448 h 0.3302 l 0.821266,2.055281 h -0.135467 l 0.757766,-2.055281 h 0.3175 l -1.227666,3.301997 z"
         style="stroke-width:0.264583"
         id="path3482" />
    </g>
    <g
       aria-label="Time"
       id="text3429"
       style="font-weight:900;font-size:4.23333px;line-height:1.25;font-family:Manrope;-inkscape-font-specification:'Manrope Heavy';stroke-width:0.264583">
      <path
         d="m 128.95846,57.190113 v -2.749548 h -1.06469 v -0.298449 h 2.44052 v 0.298449 h -1.06468 v 2.749548 z"
         style="stroke-width:0.264583"
         id="path3545" />
      <path
         d="m 130.71528,54.470199 v -0.34925 h 0.31115 v 0.34925 z m 0,2.719914 v -2.285998 h 0.31115 v 2.285998 z"
         style="stroke-width:0.264583"
         id="path3547" />
      <path
         d="m 134.38981,55.689398 q 0,-0.173567 -0.0677,-0.300567 -0.0656,-0.129116 -0.18415,-0.19685 -0.11854,-0.06985 -0.26882,-0.06985 -0.1397,0 -0.26035,0.0635 -0.12065,0.06138 -0.19685,0.194734 -0.0762,0.131233 -0.0762,0.334433 l -0.18415,-0.05292 q -0.006,-0.2413 0.0953,-0.427566 0.1016,-0.186267 0.28363,-0.287867 0.18204,-0.103716 0.41064,-0.103716 0.2286,0 0.40005,0.09737 0.17356,0.09525 0.2667,0.27305 0.0931,0.1778 0.0931,0.416983 l -0.002,1.559982 h -0.31115 z m -2.7305,1.500715 v -2.285998 h 0.2794 v 0.563033 h 0.0339 v 1.722965 z m 1.36948,-1.479549 q 0,-0.179916 -0.0656,-0.311149 -0.0656,-0.13335 -0.18415,-0.205317 -0.11854,-0.07197 -0.27729,-0.07197 -0.15663,0 -0.27728,0.07408 -0.11853,0.07197 -0.18626,0.207433 -0.0656,0.13335 -0.0656,0.31115 l -0.18627,-0.1016 q 0,-0.218017 0.10372,-0.3937 0.10372,-0.175683 0.28575,-0.275166 0.18203,-0.1016 0.4064,-0.1016 0.22013,0 0.39158,0.09525 0.17145,0.09313 0.2667,0.273049 0.0952,0.1778 0.0952,0.427567 l -0.002,1.551515 h -0.30691 z"
         style="stroke-width:0.264583"
         id="path3549" />
      <path
         d="m 136.20449,57.253613 q -0.3302,0 -0.57785,-0.14605 -0.24765,-0.148166 -0.38311,-0.4191 -0.13335,-0.270933 -0.13335,-0.630766 0,-0.372533 0.13335,-0.645582 0.13335,-0.275167 0.37676,-0.423333 0.24342,-0.148167 0.5715,-0.148167 0.33655,0 0.57574,0.154517 0.2413,0.154516 0.36406,0.446616 0.12277,0.2921 0.11218,0.692149 h -0.31749 v -0.110066 q -0.006,-0.296333 -0.0889,-0.4953 -0.0825,-0.198966 -0.24342,-0.300566 -0.16087,-0.1016 -0.3937,-0.1016 -0.24342,0 -0.41487,0.10795 -0.16933,0.105833 -0.25823,0.313266 -0.0868,0.205317 -0.0868,0.499533 0,0.287866 0.0868,0.491066 0.0889,0.2032 0.25823,0.31115 0.16934,0.105833 0.4064,0.105833 0.24342,0 0.42757,-0.112183 0.18415,-0.112183 0.28998,-0.328083 l 0.28999,0.112183 q -0.0889,0.198967 -0.23919,0.340783 -0.14816,0.1397 -0.3429,0.213783 -0.19261,0.07197 -0.41275,0.07197 z m -0.87418,-1.119716 v -0.260349 h 1.74625 v 0.260349 z"
         style="stroke-width:0.264583"
         id="path3551" />
    </g>
    <g
       aria-label="Discounted Quality"
       id="text3433"
       style="font-weight:900;font-size:4.23333px;line-height:1.25;font-family:Manrope;-inkscape-font-specification:'Manrope Heavy';stroke-width:0.264583">
      <path
         d="m 100.59349,36.914463 v -3.047997 h 0.92498 q 0.24554,0 0.39159,0.01905 0.33655,0.04657 0.5715,0.253999 0.23706,0.207434 0.3556,0.531283 0.11853,0.32385 0.11853,0.719666 0,0.397933 -0.11853,0.721783 -0.11854,0.321733 -0.35349,0.529166 -0.23495,0.207433 -0.57361,0.254 -0.14182,0.01905 -0.39159,0.01905 z m 0.92498,-0.29845 q 0.23284,0 0.35984,-0.0254 0.25823,-0.04445 0.42333,-0.211666 0.16722,-0.167217 0.24553,-0.4191 0.0783,-0.254 0.0783,-0.569383 0,-0.317499 -0.0783,-0.571499 -0.0783,-0.254 -0.24553,-0.4191 -0.1651,-0.1651 -0.42333,-0.20955 -0.0677,-0.01482 -0.1651,-0.01905 -0.0953,-0.0063 -0.19474,-0.0063 h -0.60325 v 2.451098 z"
         style="stroke-width:0.264583"
         id="path3485" />
      <path
         d="m 103.4785,34.194549 v -0.34925 h 0.31115 v 0.34925 z m 0,2.719914 v -2.285998 h 0.31115 v 2.285998 z"
         style="stroke-width:0.264583"
         id="path3487" />
      <path
         d="m 105.27766,36.975846 q -0.26458,0 -0.47201,-0.07832 -0.20743,-0.07832 -0.33867,-0.224367 -0.12911,-0.148166 -0.16933,-0.353483 l 0.3175,-0.05292 q 0.0339,0.131233 0.127,0.226483 0.0931,0.09525 0.23495,0.148166 0.14181,0.0508 0.3175,0.0508 0.17145,0 0.29845,-0.04868 0.127,-0.0508 0.19473,-0.141817 0.0677,-0.09313 0.0677,-0.215899 0,-0.110067 -0.0487,-0.173567 -0.0487,-0.06562 -0.18838,-0.12065 -0.13759,-0.05503 -0.44027,-0.137583 -0.31538,-0.08467 -0.48895,-0.169333 -0.17356,-0.08467 -0.24765,-0.194733 -0.0741,-0.110067 -0.0741,-0.27305 0,-0.192617 0.10795,-0.340783 0.11007,-0.148167 0.30692,-0.2286 0.19684,-0.08255 0.45296,-0.08255 0.25612,0 0.46143,0.08467 0.20532,0.08255 0.3302,0.234949 0.12489,0.150284 0.14817,0.347133 l -0.3175,0.05715 q -0.0233,-0.133349 -0.10583,-0.230716 -0.0825,-0.09948 -0.2159,-0.1524 -0.13335,-0.05503 -0.3048,-0.05715 -0.16087,-0.0042 -0.28575,0.04022 -0.12277,0.04233 -0.19262,0.124883 -0.0699,0.08043 -0.0699,0.188383 0,0.09313 0.055,0.156633 0.0571,0.0635 0.19685,0.12065 0.13969,0.05503 0.41698,0.124883 0.31961,0.08043 0.49741,0.169334 0.1778,0.0889 0.254,0.209549 0.0762,0.118534 0.0762,0.29845 0,0.213783 -0.10795,0.370417 -0.10795,0.156633 -0.31115,0.241299 -0.2032,0.08255 -0.4826,0.08255 z"
         style="stroke-width:0.264583"
         id="path3489" />
      <path
         d="m 107.59541,36.977963 q -0.33655,0 -0.57785,-0.1524 -0.2413,-0.1524 -0.3683,-0.42545 -0.12488,-0.273049 -0.12911,-0.628649 0.004,-0.36195 0.13123,-0.632883 0.127,-0.27305 0.3683,-0.423333 0.24341,-0.150283 0.57785,-0.150283 0.2286,0 0.42333,0.0762 0.19473,0.0762 0.33232,0.220133 0.13758,0.141817 0.20108,0.33655 l -0.3048,0.09737 q -0.0804,-0.203199 -0.254,-0.317499 -0.17357,-0.1143 -0.40005,-0.1143 -0.36618,0 -0.55457,0.245533 -0.18626,0.245533 -0.1905,0.662516 0.002,0.277283 0.0868,0.4826 0.0847,0.203199 0.25188,0.315383 0.16722,0.110066 0.4064,0.110066 0.23072,0 0.3937,-0.105833 0.1651,-0.105833 0.25188,-0.313266 l 0.31327,0.09313 q -0.127,0.3048 -0.37253,0.465666 -0.24554,0.15875 -0.58632,0.15875 z"
         style="stroke-width:0.264583"
         id="path3491" />
      <path
         d="m 109.8814,36.977963 q -0.33443,0 -0.57997,-0.1524 -0.24341,-0.1524 -0.37253,-0.42545 -0.12912,-0.275166 -0.12912,-0.630766 0,-0.357716 0.13124,-0.630766 0.13123,-0.27305 0.37676,-0.423333 0.24554,-0.150283 0.57362,-0.150283 0.33655,0 0.57997,0.1524 0.24553,0.1524 0.37465,0.42545 0.12911,0.270933 0.12911,0.626532 0,0.359833 -0.13123,0.632883 -0.12912,0.27305 -0.37465,0.42545 -0.24342,0.150283 -0.57785,0.150283 z m 0,-0.29845 q 0.24765,0 0.41698,-0.112183 0.16934,-0.1143 0.25189,-0.319616 0.0847,-0.205317 0.0847,-0.478367 0,-0.423333 -0.19261,-0.664632 -0.19262,-0.2413 -0.56092,-0.2413 -0.24977,0 -0.4191,0.1143 -0.16722,0.112183 -0.24977,0.315383 -0.0825,0.2032 -0.0825,0.476249 0,0.277283 0.0847,0.4826 0.0868,0.205316 0.254,0.3175 0.16933,0.110066 0.41275,0.110066 z"
         style="stroke-width:0.264583"
         id="path3493" />
      <path
         d="m 112.30498,36.971613 q -0.32597,0 -0.53128,-0.156633 -0.20532,-0.156633 -0.29634,-0.395817 -0.0889,-0.241299 -0.0889,-0.533399 v -1.257299 h 0.31327 v 1.166282 q 0,0.27305 0.0656,0.465667 0.0677,0.190499 0.2159,0.302683 0.14816,0.112183 0.381,0.112183 0.22013,0 0.37041,-0.09737 0.15029,-0.09948 0.2286,-0.283633 0.0783,-0.186266 0.0783,-0.446616 l 0.22013,0.04868 q 0,0.3429 -0.12065,0.586316 -0.12065,0.2413 -0.33655,0.366183 -0.2159,0.122767 -0.49953,0.122767 z m 0.76835,-0.05715 V 36.35143 h -0.0318 v -1.722965 h 0.31115 v 2.285998 z"
         style="stroke-width:0.264583"
         id="path3495" />
      <path
         d="m 115.59639,35.748181 q 0,-0.27305 -0.0677,-0.46355 -0.0656,-0.192616 -0.21378,-0.3048 -0.14817,-0.112183 -0.381,-0.112183 -0.22014,0 -0.37042,0.09948 -0.15028,0.09737 -0.2286,0.283633 -0.0783,0.18415 -0.0783,0.4445 l -0.22013,-0.04868 q 0,-0.3429 0.12065,-0.5842 0.12065,-0.243416 0.33655,-0.366183 0.2159,-0.124883 0.49953,-0.124883 0.32597,0 0.53129,0.156633 0.20531,0.156633 0.29421,0.397933 0.091,0.239183 0.091,0.531283 v 1.257299 h -0.31327 z m -1.65311,1.166282 v -2.285998 h 0.28151 v 0.563033 h 0.0318 v 1.722965 z"
         style="stroke-width:0.264583"
         id="path3497" />
      <path
         d="m 117.70459,36.914463 q -0.3175,0.06562 -0.57573,0.0021 -0.25612,-0.06138 -0.36195,-0.275167 -0.0487,-0.103716 -0.0614,-0.20955 -0.0127,-0.105833 -0.0106,-0.285749 v -0.05927 -2.093382 h 0.30903 v 2.080682 0.06773 q -0.002,0.137584 0.004,0.211667 0.008,0.07197 0.0423,0.131233 0.0741,0.135467 0.23072,0.167217 0.15875,0.03175 0.42333,-0.01058 z m -1.4986,-2.019298 v -0.2667 h 1.4986 v 0.2667 z"
         style="stroke-width:0.264583"
         id="path3499" />
      <path
         d="m 119.03808,36.977963 q -0.3302,0 -0.57785,-0.14605 -0.24765,-0.148166 -0.38311,-0.4191 -0.13335,-0.270933 -0.13335,-0.630766 0,-0.372533 0.13335,-0.645582 0.13335,-0.275167 0.37676,-0.423333 0.24342,-0.148167 0.5715,-0.148167 0.33655,0 0.57574,0.154517 0.2413,0.154516 0.36406,0.446616 0.12277,0.2921 0.11219,0.692149 h -0.3175 v -0.110066 q -0.006,-0.296333 -0.0889,-0.4953 -0.0825,-0.198966 -0.24342,-0.300566 -0.16087,-0.1016 -0.3937,-0.1016 -0.24342,0 -0.41487,0.10795 -0.16933,0.105833 -0.25823,0.313266 -0.0868,0.205317 -0.0868,0.499533 0,0.287866 0.0868,0.491066 0.0889,0.2032 0.25823,0.31115 0.16934,0.105833 0.4064,0.105833 0.24342,0 0.42757,-0.112183 0.18415,-0.112183 0.28998,-0.328083 l 0.28999,0.112183 q -0.0889,0.198967 -0.23919,0.340783 -0.14816,0.1397 -0.3429,0.213783 -0.19261,0.07197 -0.41275,0.07197 z m -0.87418,-1.119716 v -0.26035 h 1.74625 v 0.26035 z"
         style="stroke-width:0.264583"
         id="path3501" />
      <path
         d="m 121.43203,36.977963 q -0.31327,0 -0.54398,-0.156633 -0.2286,-0.156633 -0.34925,-0.4318 -0.12065,-0.275166 -0.12065,-0.620183 0,-0.342899 0.12065,-0.615949 0.12065,-0.275167 0.34713,-0.4318 0.2286,-0.156633 0.5334,-0.156633 0.31327,0 0.53552,0.154517 0.22436,0.154516 0.33866,0.427566 0.1143,0.270933 0.1143,0.622299 0,0.345017 -0.1143,0.620183 -0.1143,0.27305 -0.33443,0.4318 -0.22013,0.156633 -0.52705,0.156633 z m 0.0318,-0.289983 q 0.23495,0 0.39582,-0.116417 0.16086,-0.116416 0.2413,-0.323849 0.0804,-0.207434 0.0804,-0.478367 0,-0.273049 -0.0804,-0.478366 -0.0783,-0.205316 -0.23919,-0.319616 -0.15875,-0.116417 -0.39158,-0.116417 -0.23707,0 -0.40005,0.118533 -0.16298,0.116417 -0.24342,0.32385 -0.0783,0.207433 -0.0783,0.472016 0,0.264583 0.0804,0.474133 0.0804,0.207433 0.2413,0.325967 0.16087,0.118533 0.3937,0.118533 z m 0.71755,0.226483 v -1.720849 h -0.0339 v -1.327148 h 0.31327 v 3.047997 z"
         style="stroke-width:0.264583"
         id="path3503" />
      <path
         d="m 126.294,36.975846 -0.8128,-0.808566 0.21167,-0.211666 0.80856,0.808566 z m -1.15993,0.0021 q -0.44662,0 -0.762,-0.198967 -0.31539,-0.198966 -0.47837,-0.556682 -0.16298,-0.359833 -0.16298,-0.83185 0,-0.472016 0.16298,-0.829732 0.16298,-0.359833 0.47837,-0.5588 0.31538,-0.198966 0.762,-0.198966 0.44661,0 0.762,0.198966 0.3175,0.198967 0.48048,0.5588 0.16298,0.357716 0.16298,0.829732 0,0.472017 -0.16298,0.83185 -0.16298,0.357716 -0.48048,0.556682 -0.31539,0.198967 -0.762,0.198967 z m 0,-0.29845 q 0.35136,0 0.59055,-0.160866 0.2413,-0.160867 0.36195,-0.45085 0.12276,-0.289983 0.12276,-0.677333 0,-0.385233 -0.12276,-0.675216 -0.12065,-0.289983 -0.36195,-0.450849 -0.23919,-0.160867 -0.59055,-0.162984 -0.34714,0 -0.58844,0.160867 -0.2413,0.160866 -0.36195,0.45085 -0.12065,0.289983 -0.12276,0.677332 -0.002,0.385233 0.11853,0.675216 0.12065,0.289984 0.36195,0.45085 0.24342,0.160867 0.59267,0.162983 z"
         style="stroke-width:0.264583"
         id="path3505" />
      <path
         d="m 127.83704,36.971613 q -0.32596,0 -0.53128,-0.156633 -0.20531,-0.156633 -0.29633,-0.395817 -0.0889,-0.241299 -0.0889,-0.533399 v -1.257299 h 0.31326 v 1.166282 q 0,0.27305 0.0656,0.465667 0.0677,0.190499 0.2159,0.302683 0.14817,0.112183 0.381,0.112183 0.22013,0 0.37042,-0.09737 0.15028,-0.09948 0.2286,-0.283633 0.0783,-0.186266 0.0783,-0.446616 l 0.22014,0.04868 q 0,0.3429 -0.12065,0.586316 -0.12065,0.2413 -0.33655,0.366183 -0.2159,0.122767 -0.49954,0.122767 z m 0.76835,-0.05715 V 36.35143 h -0.0317 v -1.722965 h 0.31115 v 2.285998 z"
         style="stroke-width:0.264583"
         id="path3507" />
      <path
         d="m 130.13151,36.977963 q -0.24977,0 -0.42757,-0.09102 -0.17568,-0.09102 -0.26458,-0.245533 -0.0889,-0.154516 -0.0889,-0.340783 0,-0.268816 0.15452,-0.431799 0.15451,-0.162984 0.42756,-0.232834 0.1778,-0.04445 0.38523,-0.07408 0.20744,-0.03175 0.56515,-0.07832 0.0571,-0.0085 0.10795,-0.0127 0.0508,-0.0063 0.0931,-0.01482 l -0.11007,0.06773 q 0.004,-0.230716 -0.055,-0.376766 -0.0593,-0.14605 -0.19474,-0.2159 -0.13546,-0.07197 -0.35983,-0.07197 -0.2413,0 -0.40217,0.10795 -0.15874,0.10795 -0.22224,0.332317 l -0.30269,-0.0889 q 0.0804,-0.309033 0.3175,-0.47625 0.23918,-0.169333 0.61383,-0.169333 0.31539,0 0.5334,0.118533 0.22014,0.118533 0.30904,0.338667 0.0402,0.09313 0.0529,0.211666 0.0148,0.118533 0.0148,0.26035 v 1.420282 h -0.27728 v -0.573616 l 0.0804,0.03387 q -0.0783,0.194734 -0.21378,0.3302 -0.13547,0.135467 -0.32174,0.205317 -0.18626,0.06773 -0.41486,0.06773 z m 0.036,-0.268816 q 0.21167,0 0.37465,-0.0762 0.1651,-0.07832 0.26458,-0.213784 0.1016,-0.135466 0.13335,-0.311149 0.0191,-0.08467 0.0233,-0.1778 0.006,-0.09525 0.006,-0.224367 v -0.0381 l 0.11853,0.06138 -0.14182,0.01905 q -0.30691,0.03387 -0.51646,0.0635 -0.20955,0.02963 -0.37254,0.07408 -0.17356,0.04868 -0.28574,0.148166 -0.11007,0.09737 -0.11007,0.2667 0,0.105833 0.0508,0.198967 0.0529,0.09313 0.16722,0.1524 0.11429,0.05715 0.28786,0.05715 z"
         style="stroke-width:0.264583"
         id="path3509" />
      <path
         d="m 131.8714,36.914463 v -3.111497 h 0.31115 v 3.111497 z"
         style="stroke-width:0.264583"
         id="path3511" />
      <path
         d="m 132.85988,34.194549 v -0.34925 h 0.31115 v 0.34925 z m 0,2.719914 v -2.285998 h 0.31115 v 2.285998 z"
         style="stroke-width:0.264583"
         id="path3513" />
      <path
         d="m 135.05063,36.914463 q -0.3175,0.06562 -0.57574,0.0021 -0.25611,-0.06138 -0.36195,-0.275167 -0.0487,-0.103716 -0.0614,-0.20955 -0.0127,-0.105833 -0.0106,-0.285749 v -0.05927 -2.093382 h 0.30903 v 2.080682 0.06773 q -0.002,0.137584 0.004,0.211667 0.008,0.07197 0.0423,0.131233 0.0741,0.135467 0.23071,0.167217 0.15875,0.03175 0.42334,-0.01058 z m -1.4986,-2.019298 v -0.2667 h 1.4986 v 0.2667 z"
         style="stroke-width:0.264583"
         id="path3515" />
      <path
         d="m 135.76394,37.930462 0.44238,-1.200149 0.006,0.3556 -1.00118,-2.457448 h 0.3302 l 0.82126,2.055282 h -0.13547 l 0.75777,-2.055282 h 0.3175 l -1.22766,3.301997 z"
         style="stroke-width:0.264583"
         id="path3517" />
    </g>
    <g
       aria-label="Time Discount"
       id="text3437"
       style="font-weight:900;font-size:4.23333px;line-height:1.25;font-family:Manrope;-inkscape-font-specification:'Manrope Heavy';fill:#d40000;stroke-width:0.264583">
      <path
         d="m 109.00954,75.222946 v -2.749548 h -1.06468 v -0.298449 h 2.44051 v 0.298449 h -1.06468 v 2.749548 z"
         style="fill:#d40000;stroke-width:0.264583"
         id="path3520" />
      <path
         d="m 110.76637,72.503032 v -0.34925 h 0.31115 v 0.34925 z m 0,2.719914 v -2.285998 h 0.31115 v 2.285998 z"
         style="fill:#d40000;stroke-width:0.264583"
         id="path3522" />
      <path
         d="m 114.4409,73.722231 q 0,-0.173567 -0.0677,-0.300567 -0.0656,-0.129116 -0.18415,-0.196849 -0.11853,-0.06985 -0.26881,-0.06985 -0.1397,0 -0.26035,0.0635 -0.12065,0.06138 -0.19685,0.194733 -0.0762,0.131233 -0.0762,0.334433 l -0.18415,-0.05292 q -0.006,-0.2413 0.0952,-0.427566 0.1016,-0.186267 0.28363,-0.287867 0.18203,-0.103716 0.41063,-0.103716 0.2286,0 0.40005,0.09737 0.17357,0.09525 0.2667,0.27305 0.0931,0.1778 0.0931,0.416983 l -0.002,1.559982 h -0.31115 z m -2.7305,1.500715 v -2.285998 h 0.2794 v 0.563033 h 0.0339 v 1.722965 z m 1.36948,-1.479549 q 0,-0.179916 -0.0656,-0.311149 -0.0656,-0.13335 -0.18415,-0.205317 -0.11853,-0.07197 -0.27728,-0.07197 -0.15663,0 -0.27728,0.07408 -0.11854,0.07197 -0.18627,0.207433 -0.0656,0.13335 -0.0656,0.31115 l -0.18627,-0.1016 q 0,-0.218017 0.10372,-0.3937 0.10371,-0.175683 0.28574,-0.275166 0.18204,-0.1016 0.4064,-0.1016 0.22014,0 0.39159,0.09525 0.17145,0.09313 0.2667,0.273049 0.0952,0.1778 0.0952,0.427567 l -0.002,1.551515 h -0.30692 z"
         style="fill:#d40000;stroke-width:0.264583"
         id="path3524" />
      <path
         d="m 116.25558,75.286446 q -0.3302,0 -0.57785,-0.14605 -0.24765,-0.148166 -0.38312,-0.419099 -0.13335,-0.270934 -0.13335,-0.630767 0,-0.372533 0.13335,-0.645582 0.13335,-0.275167 0.37677,-0.423333 0.24342,-0.148167 0.5715,-0.148167 0.33655,0 0.57573,0.154517 0.2413,0.154516 0.36407,0.446616 0.12276,0.2921 0.11218,0.692149 h -0.3175 v -0.110066 q -0.006,-0.296333 -0.0889,-0.4953 -0.0825,-0.198966 -0.24341,-0.300566 -0.16087,-0.1016 -0.3937,-0.1016 -0.24342,0 -0.41487,0.10795 -0.16933,0.105833 -0.25823,0.313266 -0.0868,0.205317 -0.0868,0.499533 0,0.287867 0.0868,0.491066 0.0889,0.2032 0.25823,0.31115 0.16933,0.105833 0.4064,0.105833 0.24342,0 0.42757,-0.112183 0.18415,-0.112183 0.28998,-0.328083 l 0.28998,0.112183 q -0.0889,0.198967 -0.23918,0.340783 -0.14817,0.1397 -0.3429,0.213784 -0.19262,0.07197 -0.41275,0.07197 z M 115.3814,74.16673 v -0.260349 h 1.74624 v 0.260349 z"
         style="fill:#d40000;stroke-width:0.264583"
         id="path3526" />
      <path
         d="m 118.6093,75.222946 v -3.047997 h 0.92498 q 0.24554,0 0.39159,0.01905 0.33655,0.04657 0.5715,0.254 0.23706,0.207433 0.3556,0.531282 0.11853,0.32385 0.11853,0.719666 0,0.397933 -0.11853,0.721783 -0.11854,0.321733 -0.35349,0.529166 -0.23495,0.207434 -0.57361,0.254 -0.14182,0.01905 -0.39159,0.01905 z m 0.92498,-0.29845 q 0.23284,0 0.35984,-0.0254 0.25823,-0.04445 0.42333,-0.211666 0.16722,-0.167217 0.24553,-0.4191 0.0783,-0.253999 0.0783,-0.569383 0,-0.317499 -0.0783,-0.571499 -0.0783,-0.254 -0.24553,-0.4191 -0.1651,-0.1651 -0.42333,-0.20955 -0.0677,-0.01482 -0.1651,-0.01905 -0.0953,-0.0063 -0.19474,-0.0063 h -0.60324 v 2.451098 z"
         style="fill:#d40000;stroke-width:0.264583"
         id="path3528" />
      <path
         d="m 121.49431,72.503032 v -0.34925 h 0.31115 v 0.34925 z m 0,2.719914 v -2.285998 h 0.31115 v 2.285998 z"
         style="fill:#d40000;stroke-width:0.264583"
         id="path3530" />
      <path
         d="m 123.29348,75.284329 q -0.26459,0 -0.47202,-0.07832 -0.20743,-0.07832 -0.33867,-0.224367 -0.12911,-0.148166 -0.16933,-0.353483 l 0.3175,-0.05292 q 0.0339,0.131233 0.127,0.226483 0.0931,0.09525 0.23495,0.148166 0.14182,0.0508 0.3175,0.0508 0.17145,0 0.29845,-0.04868 0.127,-0.0508 0.19473,-0.141816 0.0677,-0.09313 0.0677,-0.2159 0,-0.110067 -0.0487,-0.173567 -0.0487,-0.06562 -0.18838,-0.12065 -0.13758,-0.05503 -0.44027,-0.137583 -0.31538,-0.08467 -0.48895,-0.169333 -0.17356,-0.08467 -0.24765,-0.194733 -0.0741,-0.110067 -0.0741,-0.27305 0,-0.192617 0.10795,-0.340783 0.11007,-0.148167 0.30692,-0.2286 0.19685,-0.08255 0.45296,-0.08255 0.25612,0 0.46144,0.08467 0.20531,0.08255 0.3302,0.23495 0.12488,0.150283 0.14816,0.347133 l -0.3175,0.05715 q -0.0233,-0.13335 -0.10583,-0.230717 -0.0826,-0.09948 -0.2159,-0.1524 -0.13335,-0.05503 -0.3048,-0.05715 -0.16087,-0.0042 -0.28575,0.04022 -0.12277,0.04233 -0.19262,0.124883 -0.0699,0.08043 -0.0699,0.188383 0,0.09313 0.055,0.156633 0.0571,0.0635 0.19685,0.12065 0.1397,0.05503 0.41698,0.124884 0.31962,0.08043 0.49742,0.169333 0.1778,0.0889 0.254,0.20955 0.0762,0.118533 0.0762,0.298449 0,0.213784 -0.10795,0.370417 -0.10795,0.156633 -0.31115,0.2413 -0.2032,0.08255 -0.4826,0.08255 z"
         style="fill:#d40000;stroke-width:0.264583"
         id="path3532" />
      <path
         d="m 125.61122,75.286446 q -0.33655,0 -0.57785,-0.1524 -0.2413,-0.1524 -0.3683,-0.425449 -0.12488,-0.27305 -0.12911,-0.62865 0.004,-0.36195 0.13123,-0.632883 0.127,-0.273049 0.3683,-0.423333 0.24342,-0.150283 0.57785,-0.150283 0.2286,0 0.42333,0.0762 0.19474,0.0762 0.33232,0.220133 0.13758,0.141817 0.20108,0.33655 l -0.3048,0.09737 q -0.0804,-0.2032 -0.254,-0.3175 -0.17356,-0.1143 -0.40005,-0.1143 -0.36618,0 -0.55456,0.245533 -0.18627,0.245533 -0.1905,0.662516 0.002,0.277283 0.0868,0.4826 0.0847,0.2032 0.25188,0.315383 0.16722,0.110066 0.4064,0.110066 0.23072,0 0.3937,-0.105833 0.1651,-0.105833 0.25189,-0.313266 l 0.31326,0.09313 q -0.127,0.3048 -0.37253,0.465666 -0.24553,0.15875 -0.58632,0.15875 z"
         style="fill:#d40000;stroke-width:0.264583"
         id="path3534" />
      <path
         d="m 127.89721,75.286446 q -0.33443,0 -0.57996,-0.1524 -0.24342,-0.1524 -0.37254,-0.425449 -0.12911,-0.275167 -0.12911,-0.630767 0,-0.357716 0.13123,-0.630766 0.13123,-0.273049 0.37677,-0.423333 0.24553,-0.150283 0.57361,-0.150283 0.33655,0 0.57997,0.1524 0.24553,0.1524 0.37465,0.42545 0.12911,0.270933 0.12911,0.626532 0,0.359833 -0.13123,0.632883 -0.12912,0.27305 -0.37465,0.42545 -0.24341,0.150283 -0.57785,0.150283 z m 0,-0.29845 q 0.24765,0 0.41699,-0.112183 0.16933,-0.1143 0.25188,-0.319616 0.0847,-0.205317 0.0847,-0.478367 0,-0.423333 -0.19261,-0.664632 -0.19262,-0.2413 -0.56092,-0.2413 -0.24976,0 -0.4191,0.1143 -0.16721,0.112183 -0.24976,0.315383 -0.0826,0.2032 -0.0826,0.476249 0,0.277284 0.0847,0.4826 0.0868,0.205317 0.254,0.3175 0.16934,0.110066 0.41275,0.110066 z"
         style="fill:#d40000;stroke-width:0.264583"
         id="path3536" />
      <path
         d="m 130.32079,75.280096 q -0.32596,0 -0.53128,-0.156633 -0.20532,-0.156633 -0.29633,-0.395816 -0.0889,-0.2413 -0.0889,-0.5334 v -1.257299 h 0.31326 v 1.166282 q 0,0.27305 0.0656,0.465667 0.0677,0.1905 0.2159,0.302683 0.14817,0.112183 0.381,0.112183 0.22013,0 0.37041,-0.09737 0.15029,-0.09948 0.2286,-0.283633 0.0783,-0.186266 0.0783,-0.446616 l 0.22013,0.04868 q 0,0.3429 -0.12065,0.586317 -0.12065,0.241299 -0.33655,0.366183 -0.2159,0.122766 -0.49953,0.122766 z m 0.76835,-0.05715 v -0.563033 h -0.0317 v -1.722965 h 0.31115 v 2.285998 z"
         style="fill:#d40000;stroke-width:0.264583"
         id="path3538" />
      <path
         d="m 133.6122,74.056664 q 0,-0.27305 -0.0677,-0.46355 -0.0656,-0.192616 -0.21378,-0.3048 -0.14817,-0.112183 -0.381,-0.112183 -0.22013,0 -0.37042,0.09948 -0.15028,0.09737 -0.2286,0.283634 -0.0783,0.184149 -0.0783,0.444499 l -0.22014,-0.04868 q 0,-0.3429 0.12065,-0.5842 0.12065,-0.243416 0.33655,-0.366183 0.2159,-0.124883 0.49954,-0.124883 0.32596,0 0.53128,0.156633 0.20531,0.156634 0.29421,0.397933 0.091,0.239183 0.091,0.531283 v 1.257299 h -0.31327 z m -1.65311,1.166282 v -2.285998 h 0.28152 v 0.563033 h 0.0317 v 1.722965 z"
         style="fill:#d40000;stroke-width:0.264583"
         id="path3540" />
      <path
         d="m 135.7204,75.222946 q -0.3175,0.06562 -0.57573,0.0021 -0.25612,-0.06138 -0.36195,-0.275167 -0.0487,-0.103716 -0.0614,-0.209549 -0.0127,-0.105834 -0.0106,-0.28575 v -0.05927 -2.093381 h 0.30904 v 2.080681 0.06773 q -0.002,0.137584 0.004,0.211667 0.008,0.07197 0.0423,0.131233 0.0741,0.135467 0.23072,0.167217 0.15875,0.03175 0.42333,-0.01058 z m -1.4986,-2.019298 v -0.2667 h 1.4986 v 0.2667 z"
         style="fill:#d40000;stroke-width:0.264583"
         id="path3542" />
    </g>
  </g>
</svg>
