<svg xmlns="http://www.w3.org/2000/svg" xmlns:xlink="http://www.w3.org/1999/xlink" width="460.025" height="312.828" viewBox="0 0 121.715 82.769" xmlns:v="https://vecta.io/nano"><style><![CDATA[.B{stroke:#000}.C{stroke-width:.265}.D{marker-start:url(#B)}.E{marker-end:url(#A)}.F{fill-rule:evenodd}]]></style><defs><marker id="A" refX="0" refY="0" orient="auto" overflow="visible"><path transform="matrix(-.4 0 0 -.4 -4 0)" d="M0 0l5-5-17.5 5L5 5z" fill="#000" stroke-width="1pt" class="B F"/></marker><marker id="B" refX="0" refY="0" orient="auto" overflow="visible"><path transform="matrix(.4 0 0 .4 4 0)" d="M0 0l5-5-17.5 5L5 5z" fill="#000" stroke-width="1pt" class="B F"/></marker><path id="C" d="M37.087 8.15q-.334 0-.58-.148-.243-.148-.379-.417-.135-.269-.135-.631 0-.375.133-.648.133-.273.375-.421.243-.148.574-.148.339 0 .578.157.239.155.362.445.123.29.112.692h-.317v-.11q-.008-.445-.193-.671-.182-.226-.533-.226-.368 0-.565.239-.195.239-.195.682 0 .432.195.671.197.237.557.237.246 0 .428-.112.184-.114.29-.328l.29.112q-.135.298-.4.464-.262.163-.595.163zm-.874-1.12v-.26h1.746v.26z"/><path id="D" d="M38.594 8.086V5.8h.279v.55l-.055-.072q.038-.102.099-.186.061-.087.133-.142.089-.078.207-.119.119-.042.239-.049.121-.009.22.017v.292q-.125-.032-.273-.015-.148.017-.273.119-.114.089-.171.214-.057.123-.076.262-.019.138-.019.273v1.141z"/><path id="E" d="M41.772 8.086V6.92q0-.191-.036-.349-.036-.161-.116-.279-.078-.121-.205-.186-.125-.066-.305-.066-.165 0-.292.057-.125.057-.212.165-.085.106-.129.258-.044.152-.044.347l-.22-.049q0-.351.123-.591.123-.239.339-.362.216-.123.495-.123.205 0 .358.064.155.064.26.171.108.108.174.248.066.138.095.294.03.155.03.309v1.257zm-1.653 0V5.8h.282v.563h.032v1.723z"/><path id="F" d="M43.289 8.15q-.258 0-.434-.093-.174-.093-.26-.248-.087-.155-.087-.337 0-.186.074-.317.076-.133.205-.218.131-.085.303-.129.174-.042.383-.074.212-.034.413-.057.203-.025.356-.049l-.11.068q.006-.339-.131-.502-.138-.163-.478-.163-.235 0-.398.106-.161.106-.226.334l-.303-.089q.078-.307.315-.476.237-.169.616-.169.313 0 .531.119.22.116.311.339.042.099.055.222.013.123.013.25v1.42h-.277v-.574l.08.034q-.116.294-.362.449-.246.155-.588.155zm.036-.269q.218 0 .381-.078.163-.078.262-.214.099-.138.129-.309.025-.11.028-.241.002-.133.002-.199l.119.061q-.159.021-.345.042-.184.021-.364.049-.178.028-.322.066-.097.028-.188.078-.091.049-.15.131-.057.083-.057.205 0 .099.049.193.051.093.161.155.112.061.296.061z"/><path id="G" d="M39.707 13.378l-.698-2.288.311.002.542 1.776.544-1.776h.284l.544 1.776.546-1.776h.309l-.698 2.286h-.271l-.572-1.82-.569 1.82z"/><path id="H" d="M43.287 31.722q-.345 0-.584-.155-.239-.155-.364-.425-.123-.273-.127-.627.004-.36.131-.631.127-.273.366-.423.239-.152.58-.152.347 0 .603.169.258.169.353.464l-.305.097q-.08-.205-.256-.318-.174-.114-.398-.114-.252 0-.417.116-.165.114-.246.32-.08.205-.083.472.004.411.191.66.186.248.555.248.233 0 .396-.106.165-.108.25-.313l.313.093q-.127.305-.373.466-.246.159-.586.159z"/><path id="I" d="M45.586 31.722q-.334 0-.58-.148-.243-.148-.379-.417-.135-.269-.135-.631 0-.375.133-.648.133-.273.375-.421.243-.148.574-.148.339 0 .578.157.239.155.362.444.123.29.112.692h-.318v-.11q-.008-.444-.193-.671-.182-.226-.533-.226-.368 0-.565.239-.195.239-.195.682 0 .432.195.671.197.237.557.237.246 0 .428-.112.184-.114.29-.328l.29.112q-.135.298-.4.464-.262.163-.595.163zm-.874-1.12v-.26h1.746v.26z"/><path id="J" d="M50.78 31.658q-.193.04-.381.032-.186-.008-.334-.08-.146-.072-.222-.224-.061-.127-.068-.256-.004-.131-.004-.298v-2.093h.309v2.081q0 .144.002.241.004.095.044.169.076.142.241.169.167.028.413-.013zm-1.499-2.019v-.267h1.499v.267z"/><path id="K" d="M54.4 31.722q-.258 0-.434-.093-.174-.093-.26-.248-.087-.155-.087-.337 0-.186.074-.318.076-.133.205-.218.131-.085.303-.129.174-.042.383-.074.212-.034.413-.057.203-.025.356-.049l-.11.068q.006-.339-.131-.502-.138-.163-.478-.163-.235 0-.398.106-.161.106-.226.334l-.303-.089q.078-.307.315-.476.237-.169.616-.169.313 0 .531.119.22.116.311.339.042.099.055.222.013.123.013.25v1.42h-.277v-.574l.08.034q-.116.294-.362.449-.246.155-.588.155zm.036-.269q.218 0 .381-.078.163-.078.262-.214.099-.138.129-.309.025-.11.028-.241.002-.133.002-.199l.119.061q-.159.021-.345.042-.184.021-.364.049-.178.028-.322.066-.097.028-.188.078-.091.049-.15.131-.057.083-.057.205 0 .099.049.193.051.093.161.155.112.061.296.061z"/><path id="L" d="M66.368 31.722q-.334 0-.58-.148-.243-.148-.379-.417-.135-.269-.135-.631 0-.375.133-.648.133-.273.375-.421.243-.148.574-.148.339 0 .578.157.239.155.362.444.123.29.112.692h-.317v-.11q-.008-.444-.193-.671-.182-.226-.533-.226-.368 0-.565.239-.195.239-.195.682 0 .432.195.671.197.237.557.237.246 0 .428-.112.184-.114.29-.328l.29.112q-.135.298-.4.464-.262.163-.595.163zm-.874-1.12v-.26h1.746v.26z"/><path id="M" d="M70.537 31.658l.002-1.501q0-.265-.148-.415-.146-.152-.373-.152-.129 0-.252.059-.123.059-.203.191-.078.131-.078.343l-.184-.053q-.006-.246.095-.43.104-.184.284-.286.182-.104.411-.104.345 0 .552.214.207.212.207.574l-.002 1.56zm-2.728 0v-2.286h.279v.563h.034v1.723zm1.367 0l.002-1.48q0-.273-.146-.43-.144-.159-.381-.159-.237 0-.383.163-.146.161-.146.43l-.186-.102q0-.22.104-.394.104-.176.284-.275.18-.102.409-.102.218 0 .387.093.171.093.269.271.097.178.097.432l-.002 1.552z"/><path id="N" d="M41.118 51.075v-1.166q0-.191-.036-.349-.036-.161-.116-.279-.078-.121-.205-.186-.125-.066-.305-.066-.165 0-.292.057-.125.057-.212.165-.085.106-.129.258-.044.152-.044.347l-.22-.049q0-.351.123-.591.123-.239.339-.362.216-.123.495-.123.205 0 .358.064.155.063.26.171.108.108.174.248.066.138.095.294.03.155.03.309v1.257zm-1.653 0v-2.286h.282v.563h.032v1.723z"/><path id="O" d="M43.103 73.196h0c0 .785-2.228 1.421-4.976 1.421s-4.976-.636-4.976-1.421"/><path id="P" d="M18.117 8.516v-2.54h1.588v.249h-1.328v.878h1.117v.249h-1.117v.915h1.328v.249z"/><path id="Q" d="M8.218 32.138v-2.54h.261l1.399 2.081v-2.081h.261v2.54h-.261l-1.399-2.083v2.083z"/><path id="R" d="M83.359 8.455v-2.54h.238l.998 2.136.993-2.136h.242v2.538h-.247v-1.96l-.905 1.961h-.168l-.903-1.961v1.961z"/><path id="S" d="M100.581 8.508q-.279 0-.483-.123-.203-.123-.316-.347-.113-.224-.113-.526 0-.312.111-.54.111-.228.312-.351.203-.123.478-.123.282 0 .482.131.199.129.302.37.102.242.094.577h-.265v-.092q-.007-.37-.161-.559-.152-.189-.445-.189-.307 0-.471.199-.162.199-.162.568 0 .36.162.559.164.198.464.198.205 0 .356-.093.153-.095.242-.273l.242.093q-.113.249-.333.386-.219.136-.496.136zm-.728-.933v-.217h1.455v.217z"/><path id="T" d="M102.172 8.455l-.582-1.907.259.002.452 1.48.453-1.48h.236l.453 1.48.455-1.48h.258l-.582 1.905h-.226l-.476-1.517-.474 1.517z"/><path id="U" d="M105.114 8.506q-.335 0-.552-.145-.215-.145-.265-.402l.265-.044q.042.162.192.259.152.095.374.095.217 0 .342-.09.125-.092.125-.249 0-.088-.041-.143-.039-.056-.161-.104-.122-.048-.363-.113-.259-.071-.406-.141-.146-.071-.208-.162-.062-.093-.062-.228 0-.162.092-.284.092-.123.254-.19.162-.069.377-.069.215 0 .385.071.171.069.275.194.104.125.123.291l-.265.048q-.026-.168-.168-.265-.139-.099-.355-.102-.203-.005-.33.078-.127.081-.127.217 0 .076.046.131.046.053.166.101.122.048.346.104.263.067.413.141.15.074.213.175.064.101.064.249 0 .27-.201.425-.199.153-.55.153z"/><path id="V" d="M107.757 8.508q-.284 0-.485-.129-.201-.129-.309-.356-.108-.228-.108-.522 0-.3.109-.526.109-.226.31-.351.203-.127.482-.127.286 0 .487.129.203.127.309.355.108.226.108.52 0 .3-.108.527-.108.226-.31.353-.203.127-.485.127zm0-.249q.317 0 .473-.21.155-.212.155-.549 0-.346-.157-.55-.155-.205-.471-.205-.213 0-.353.097-.138.095-.206.266-.067.169-.067.392 0 .344.159.552.159.206.467.206z"/><path id="W" d="M85.994 12.917q-.215 0-.362-.078-.145-.078-.217-.206-.072-.129-.072-.28 0-.155.062-.265.064-.111.171-.182.109-.071.252-.108.145-.035.319-.062.176-.028.344-.048.169-.021.296-.041l-.092.056q.005-.282-.109-.418-.115-.136-.399-.136-.196 0-.332.088-.134.088-.189.279l-.252-.074q.065-.256.263-.397.198-.141.513-.141.261 0 .443.099.183.097.259.282.035.083.046.185.011.102.011.208v1.184h-.231v-.478l.067.028q-.097.245-.302.374-.205.129-.49.129zm.03-.224q.182 0 .317-.065.136-.065.219-.178.083-.115.108-.258.021-.092.023-.201.002-.111.002-.166l.099.051q-.132.018-.288.035-.153.018-.303.041-.148.023-.268.055-.081.023-.157.065-.076.041-.125.109-.048.069-.048.171 0 .083.041.161.042.078.134.129.093.051.247.051z"/><path id="X" d="M91.636 12.917q-.263 0-.444-.132-.182-.134-.275-.362-.093-.229-.093-.513 0-.289.093-.515.095-.228.279-.358.183-.131.452-.131.261 0 .448.132.187.132.286.36.101.228.101.512 0 .286-.101.513-.101.228-.289.362-.189.132-.455.132zm-.857-.053v-2.54h.261v1.106h-.028v1.434zm.831-.189q.199 0 .332-.101.132-.101.198-.273.067-.175.067-.392 0-.215-.065-.388-.065-.173-.199-.273-.132-.101-.337-.101-.199 0-.332.097-.131.097-.196.27-.065.171-.065.395 0 .22.065.395.065.173.198.272.132.099.335.099z"/><path id="Y" d="M95.54 12.916q-.335 0-.552-.145-.215-.145-.265-.402l.265-.044q.042.162.192.259.152.095.374.095.217 0 .342-.09.125-.092.125-.249 0-.088-.041-.143-.039-.056-.161-.104-.122-.048-.363-.113-.259-.071-.406-.141-.146-.071-.208-.162-.062-.093-.062-.228 0-.162.092-.284.092-.123.254-.191.162-.069.377-.069.215 0 .385.071.171.069.275.194.104.125.123.291l-.265.048q-.026-.168-.168-.265-.139-.099-.355-.102-.203-.005-.33.078-.127.081-.127.217 0 .076.046.131.046.053.166.101.122.048.346.104.263.067.413.141.15.074.213.175.064.101.064.249 0 .27-.201.425-.199.153-.55.153z"/><path id="Z" d="M102.25 12.912q-.171 0-.3-.053-.127-.053-.217-.143-.088-.09-.143-.205-.055-.116-.079-.245-.025-.131-.025-.259v-1.048h.261v.972q0 .157.03.291.03.134.095.235.067.099.171.153.106.055.256.055.138 0 .242-.048.106-.048.176-.136.072-.09.109-.217.037-.129.037-.289l.183.041q0 .293-.102.492-.102.199-.282.302-.18.102-.413.102zm.64-.048v-.469h-.026v-1.436h.259v1.905z"/><path id="a" d="M107.531 12.864v-1.905h.233v.459l-.046-.06q.032-.085.083-.155.051-.072.111-.118.074-.065.173-.099.099-.035.199-.041.101-.007.183.014v.243q-.104-.026-.228-.012-.123.014-.228.099-.095.074-.143.178-.048.102-.064.219-.016.115-.016.228v.951z"/><path id="b" d="M110.265 13.764q-.146 0-.289-.044-.141-.042-.261-.136-.12-.092-.201-.24l.235-.131q.079.159.222.228.145.071.295.071.206 0 .333-.078.129-.076.187-.226.058-.15.056-.374v-.508h.03v-1.367h.231v1.879q0 .081-.005.155-.004.076-.016.148-.034.213-.139.351-.104.138-.275.205-.169.067-.402.067zm-.018-.847q-.266 0-.455-.132-.189-.134-.289-.362-.101-.228-.101-.513 0-.284.099-.512.101-.228.288-.36.187-.132.448-.132.268 0 .452.131.183.131.277.358.095.226.095.515 0 .284-.094.513-.094.228-.275.362-.182.132-.445.132zm.026-.242q.203 0 .335-.099.132-.099.198-.272.065-.175.065-.395 0-.224-.065-.395-.065-.173-.198-.27-.131-.097-.33-.097-.205 0-.339.101-.134.101-.199.273-.064.173-.064.388 0 .217.065.392.067.173.199.273.132.101.332.101z"/><path id="c" d="M85.694 26.84v-.291h.259v.291zm0 2.267v-1.905h.259v1.905z"/><path id="d" d="M89.379 29.16q-.279 0-.483-.123-.203-.123-.316-.347-.113-.224-.113-.526 0-.312.111-.54.111-.228.312-.351.203-.123.478-.123.282 0 .482.131.199.129.302.37.102.242.093.577h-.265v-.092q-.007-.37-.161-.559-.152-.189-.444-.189-.307 0-.471.199-.162.199-.162.568 0 .36.162.559.164.198.464.198.205 0 .356-.093.153-.095.242-.273l.242.093q-.113.249-.333.386-.219.136-.496.136zm-.728-.933v-.217h1.455v.217z"/><path id="e" d="M94.048 29.16q-.263 0-.444-.132-.182-.134-.275-.362-.093-.229-.093-.513 0-.289.093-.515.095-.228.279-.358.183-.131.452-.131.261 0 .448.132.187.132.286.36.101.228.101.512 0 .286-.101.513-.101.228-.289.362-.189.132-.455.132zm-.857.794v-2.752h.233v1.434h.028v1.318zm.831-1.035q.199 0 .332-.101.132-.101.198-.273.067-.175.067-.392 0-.215-.065-.388-.065-.173-.199-.273-.132-.101-.337-.101-.199 0-.332.097-.131.097-.196.27-.065.171-.065.395 0 .22.065.395.065.173.198.272.132.099.335.099z"/><path id="f" d="M96.656 29.107v-.972q0-.159-.03-.291-.03-.134-.097-.233-.065-.101-.171-.155-.104-.055-.254-.055-.138 0-.243.048-.104.048-.176.138-.071.088-.108.215-.037.127-.037.289l-.183-.041q0-.293.102-.492.102-.199.282-.302.18-.102.413-.102.171 0 .298.053.129.053.217.143.09.09.145.206.055.115.079.245.025.129.025.258v1.048zm-1.378 0v-2.54h.235v1.434h.026v1.106z"/><path id="g" d="M102.703 29.16q-.288 0-.487-.129-.199-.129-.303-.355-.102-.228-.106-.522.004-.3.109-.526.106-.228.305-.353.199-.127.483-.127.289 0 .503.141.215.141.295.386l-.254.081q-.067-.171-.213-.265-.145-.095-.332-.095-.21 0-.347.097-.138.095-.205.266-.067.171-.069.393.004.342.159.55.155.206.462.206.194 0 .33-.088.138-.09.208-.261l.261.078q-.106.254-.31.388-.205.132-.489.132z"/><path id="h" d="M104.398 29.16q-.215 0-.362-.078-.145-.078-.217-.206-.072-.129-.072-.28 0-.155.062-.265.064-.111.171-.182.109-.071.252-.108.145-.035.319-.062.176-.028.344-.048.169-.021.296-.041l-.092.056q.005-.282-.109-.418-.115-.136-.399-.136-.196 0-.332.088-.134.088-.189.279l-.252-.074q.065-.256.263-.397.198-.141.513-.141.261 0 .443.099.183.097.259.282.035.083.046.185.011.102.011.208v1.184h-.231v-.478l.067.028q-.097.245-.302.374-.205.129-.49.129zm.03-.224q.182 0 .317-.065.136-.065.219-.178.083-.115.108-.258.021-.092.023-.201.002-.111.002-.166l.099.051q-.132.018-.288.035-.153.018-.303.041-.148.023-.268.055-.081.023-.157.065-.076.041-.125.109-.048.069-.048.171 0 .083.041.161.042.078.134.129.094.051.247.051z"/><path id="i" d="M82.818 48.095v-2.54h.771q.041 0 .138.002.099.002.189.014.289.041.483.215.194.175.291.444.097.27.097.594 0 .325-.097.594-.097.27-.291.444-.194.175-.483.215-.088.011-.189.014-.101.002-.138.002zm.268-.249h.503q.072 0 .155-.004.085-.005.145-.018.222-.039.358-.18.138-.141.201-.353.064-.213.064-.467 0-.256-.064-.469-.064-.213-.201-.353-.138-.139-.358-.178-.06-.012-.146-.016-.085-.005-.153-.005h-.503z"/><path id="j" d="M90.944 52.505q-.161.034-.317.026-.155-.007-.279-.067-.122-.06-.185-.187-.051-.106-.056-.213-.004-.109-.004-.249V50.07h.258v1.734q0 .12.002.201.004.079.037.141.064.118.201.141.139.023.344-.011zm-1.249-1.683V50.6h1.249v.222z"/><path id="k" d="M93.336 52.505V50.6h.233v.459l-.046-.06q.032-.085.083-.155.051-.072.111-.118.074-.065.173-.099.099-.035.199-.041.101-.007.183.014v.243q-.104-.026-.228-.012-.123.014-.228.099-.095.074-.143.178-.048.102-.064.219-.016.115-.016.228v.951z"/><path id="l" d="M106.618 52.552q-.171 0-.3-.053-.127-.053-.217-.143-.088-.09-.143-.205-.055-.116-.079-.245-.025-.131-.025-.259V50.6h.261v.972q0 .157.03.291.03.134.095.235.067.099.171.153.106.055.256.055.138 0 .242-.048.106-.048.176-.136.072-.09.109-.217.037-.129.037-.289l.183.041q0 .293-.102.492-.102.199-.282.302-.18.102-.413.102zm.64-.048v-.469h-.026V50.6h.259v1.905z"/><path id="m" d="M54.897 79.77q-.215 0-.362-.078-.145-.078-.217-.206-.072-.129-.072-.28 0-.155.062-.265.063-.111.171-.182.109-.071.252-.108.145-.035.319-.062.176-.028.344-.048.169-.021.296-.041l-.092.056q.005-.282-.109-.418-.115-.136-.399-.136-.196 0-.332.088-.134.088-.189.279l-.252-.074q.065-.256.263-.397.198-.141.513-.141.261 0 .443.099.183.097.259.282.035.083.046.185.011.102.011.208v1.184h-.231v-.478l.067.028q-.097.245-.302.374-.205.129-.49.129zm.03-.224q.182 0 .317-.065.136-.065.219-.178.083-.115.108-.258.021-.092.023-.201.002-.111.002-.166l.099.051q-.132.018-.288.035-.153.018-.303.041-.148.023-.268.055-.081.023-.157.065-.076.041-.125.109-.048.069-.048.171 0 .083.041.161.042.078.134.129.093.051.247.051z"/><path id="n" d="M4.447 37.036q-.208-.238-.358-.533-.148-.293-.229-.616-.079-.323-.078-.649-.002-.326.078-.649.081-.325.229-.617.15-.293.358-.531l.19.148q-.205.245-.342.515-.138.268-.206.554-.067.286-.069.58.002.291.071.58.071.288.206.559.138.27.34.506z"/><path id="o" d="M12.189 36.403v-.972q0-.159-.03-.291-.03-.134-.097-.233-.065-.101-.171-.155-.104-.055-.254-.055-.138 0-.243.048-.104.048-.176.138-.071.088-.108.215-.037.127-.037.289l-.183-.041q0-.293.102-.492.102-.199.282-.302.18-.102.413-.102.171 0 .298.053.129.053.217.143.09.09.145.206.055.115.079.245.025.129.025.258v1.048zm-1.378 0v-1.905h.235v.469h.026v1.436z"/><path id="p" d="M71.017 41.815q.208-.238.356-.533.15-.293.229-.616.081-.323.079-.649.002-.326-.079-.649-.079-.325-.229-.617-.148-.293-.356-.531l-.19.148q.205.245.342.515.138.268.205.554.069.286.071.58-.002.291-.072.58-.069.288-.206.559-.136.27-.339.506z"/></defs><path d="M29.865 8.086V5.038h1.905v.298h-1.594V6.39h1.34v.298h-1.34v1.099h1.594v.298zm2.159 0l.893-1.156-.874-1.13h.373l.684.891.677-.891h.373l-.874 1.13.895 1.156h-.375L33.1 7.17l-.701.917zm3.73 0q-.193.04-.381.032-.186-.009-.334-.08-.146-.072-.222-.224-.061-.127-.068-.256-.004-.131-.004-.298V5.165h.309v2.081q0 .144.002.241.004.095.044.169.076.142.241.169.167.028.413-.013zm-1.499-2.019V5.8h1.499v.267z"/><use xlink:href="#C"/><use xlink:href="#D"/><use xlink:href="#E"/><use xlink:href="#F"/><path d="M45.029 8.086V4.975h.311v3.111zm-10.883 5.292l-1.05-3.048h.324l.929 2.695.936-2.695h.324l-1.05 3.048zm1.738-2.72v-.349h.311v.349zm0 2.72v-2.286h.311v2.286zm1.913.064q-.334 0-.58-.148-.243-.148-.379-.417-.135-.269-.135-.631 0-.375.133-.648.133-.273.375-.421.243-.148.574-.148.339 0 .578.157.239.155.362.445.123.29.112.692h-.318v-.11q-.008-.445-.193-.671-.182-.226-.533-.226-.368 0-.565.239-.195.239-.195.682 0 .432.195.671.197.237.557.237.246 0 .428-.112.184-.114.29-.328l.29.112q-.135.298-.4.464-.262.163-.595.163zm-.874-1.12v-.26h1.746v.26z"/><use xlink:href="#G"/><path d="M35.54 31.722q-.455 0-.768-.201-.313-.203-.474-.561-.161-.358-.161-.825 0-.468.161-.825.161-.358.474-.559.313-.203.768-.203.531 0 .868.273.337.271.461.728l-.317.083q-.097-.362-.349-.574-.252-.212-.663-.212-.358 0-.595.163-.237.163-.358.455-.119.29-.123.671-.002.381.116.671.121.29.36.455.241.163.599.163.411 0 .663-.212.252-.214.349-.574l.317.083q-.125.457-.461.73-.337.271-.868.271z"/><path d="M38.29 31.722q-.341 0-.582-.155-.241-.155-.37-.428-.129-.273-.129-.627 0-.36.131-.631.131-.271.373-.421.243-.152.578-.152.343 0 .584.155.243.152.37.425.129.271.129.624 0 .36-.129.633-.129.271-.373.423-.243.152-.582.152zm0-.298q.381 0 .567-.252.186-.254.186-.658 0-.415-.188-.66-.186-.246-.565-.246-.256 0-.423.116-.165.114-.248.32-.08.203-.08.47 0 .413.191.663.19.248.561.248zm3.2.234v-1.166q0-.19-.036-.349-.036-.161-.116-.279-.078-.121-.205-.186-.125-.066-.305-.066-.165 0-.292.057-.125.057-.212.165-.085.106-.129.258-.044.152-.044.347l-.22-.049q0-.351.123-.591.123-.239.339-.362.216-.123.495-.123.205 0 .358.063.155.063.26.171.108.108.174.248.066.138.095.294.03.155.03.309v1.257zm-1.653 0v-2.286h.282v.563h.032v1.723z"/><use xlink:href="#H"/><use xlink:href="#I"/><path d="M48.056 31.722q-.315 0-.533-.159-.218-.161-.33-.434-.112-.275-.112-.616 0-.347.112-.618.114-.273.334-.43.22-.157.542-.157.313 0 .538.159.224.159.343.432.121.273.121.614 0 .343-.121.616-.121.273-.347.434-.226.159-.546.159zm-1.029.952v-3.302h.279v1.721h.034v1.581zm.997-1.242q.239 0 .398-.121.159-.121.237-.328.08-.21.08-.47 0-.258-.078-.466-.078-.207-.239-.328-.159-.121-.404-.121-.239 0-.398.116-.157.116-.235.324-.078.205-.078.474 0 .265.078.474.078.207.237.326.159.119.402.119z"/><use xlink:href="#J"/><path d="M52.105 31.715q-.205 0-.36-.063-.152-.063-.26-.171-.106-.108-.171-.246-.066-.14-.095-.294-.03-.157-.03-.311v-1.257h.313v1.166q0 .188.036.349.036.161.114.282.08.119.205.184.127.066.307.066.165 0 .29-.057.127-.057.212-.163.087-.108.131-.26.044-.155.044-.347l.22.049q0 .351-.123.591-.123.239-.339.362-.216.123-.495.123zm.768-.057v-.563h-.032v-1.723h.311v2.286z"/><use xlink:href="#K"/><path d="M56.14 31.658v-3.111h.311v3.111zm2.851.064q-.32 0-.576-.106-.254-.108-.421-.305-.165-.197-.216-.468l.318-.053q.076.296.322.466.246.167.586.167.224 0 .402-.07.178-.072.279-.203.102-.131.102-.311 0-.119-.042-.201-.042-.085-.112-.14-.07-.055-.152-.091-.083-.038-.161-.061l-.773-.231q-.14-.04-.258-.102-.119-.063-.207-.15-.087-.089-.135-.207-.049-.119-.049-.271 0-.258.135-.447.135-.188.37-.29.235-.102.536-.099.305 0 .544.108.241.108.398.309.157.199.207.472l-.326.059q-.032-.199-.146-.345-.114-.146-.292-.224-.176-.08-.387-.083-.205 0-.366.07-.159.068-.252.186-.093.119-.093.271 0 .155.085.248.087.093.212.146.127.053.246.087l.597.176q.093.025.218.074.127.047.246.135.121.087.199.229.078.142.078.36 0 .212-.085.379-.083.167-.235.282-.15.114-.353.174-.201.061-.44.061z"/><use xlink:href="#H" x="18.204"/><path d="M64.537 31.658v-1.166q0-.19-.036-.349-.036-.161-.116-.279-.078-.121-.205-.186-.125-.066-.305-.066-.165 0-.292.057-.125.057-.212.165-.085.106-.129.258-.044.152-.044.347l-.22-.049q0-.351.123-.591.123-.239.339-.362.216-.123.495-.123.205 0 .358.063.155.063.26.171.108.108.174.248.066.138.095.294.03.155.03.309v1.257zm-1.653 0V28.61h.282v1.721h.032v1.327z"/><use xlink:href="#L"/><use xlink:href="#M"/><use xlink:href="#K" x="17.655"/><path d="M38.521 51.075v-3.048h.311v3.048z"/><use xlink:href="#N"/><use xlink:href="#J" x="-7.554" y="19.417"/><use xlink:href="#I" x="-1.026" y="19.416"/><path d="M46.067 51.075v-2.286h.279v.55l-.055-.072q.038-.102.099-.186.061-.087.133-.142.089-.078.207-.119.119-.042.239-.049.121-.008.22.017v.292q-.125-.032-.273-.015-.148.017-.273.119-.114.089-.171.214-.057.123-.076.262-.019.138-.019.273v1.141z"/><use xlink:href="#N" x="8.126"/><use xlink:href="#K" x="-3.639" y="19.416"/><path d="M52.501 51.075v-3.111h.311v3.111zm2.851.063q-.32 0-.576-.106-.254-.108-.421-.305-.165-.197-.216-.468l.318-.053q.076.296.322.466.246.167.586.167.224 0 .402-.07.178-.072.279-.203.102-.131.102-.311 0-.119-.042-.201-.042-.085-.112-.14-.07-.055-.152-.091-.083-.038-.161-.061l-.773-.231q-.14-.04-.258-.102-.119-.064-.207-.15-.087-.089-.135-.207-.049-.119-.049-.271 0-.258.135-.447.135-.188.37-.29.235-.102.536-.099.305 0 .544.108.241.108.398.309.157.199.207.472l-.326.059q-.032-.199-.146-.345-.114-.146-.292-.224-.176-.08-.387-.083-.205 0-.366.07-.159.068-.252.186-.093.119-.093.271 0 .155.085.248.087.093.212.146.127.053.246.087l.597.176q.093.025.218.074.127.047.246.135.121.087.199.229.078.142.078.36 0 .212-.085.379-.083.167-.235.282-.15.114-.353.174-.201.061-.44.061zm2.5 0q-.345 0-.584-.155-.239-.155-.364-.425-.123-.273-.127-.627.004-.36.131-.631.127-.273.366-.423.239-.152.58-.152.347 0 .603.169.258.169.353.464l-.305.097q-.08-.205-.256-.317-.174-.114-.398-.114-.252 0-.417.116-.165.114-.246.32-.08.205-.083.472.004.411.191.66.186.248.555.248.233 0 .396-.106.165-.108.25-.313l.313.093q-.127.305-.373.466-.246.159-.586.159zm3.046-.063v-1.166q0-.191-.036-.349-.036-.161-.116-.279-.078-.121-.205-.186-.125-.066-.305-.066-.165 0-.292.057-.125.057-.212.165-.085.106-.129.258-.044.152-.044.347l-.22-.049q0-.351.123-.591.123-.239.339-.362.216-.123.495-.123.205 0 .358.064.155.063.26.171.108.108.174.248.066.138.095.294.03.155.03.309v1.257zm-1.653 0v-3.048h.282v1.721h.032v1.327z"/><use xlink:href="#L" x="-3.639" y="19.416"/><use xlink:href="#M" x="-3.638" y="19.417"/><use xlink:href="#K" x="14.017" y="19.416"/><path d="M28.067 3.133h18.879v11.944H28.067z" fill="none" class="B C"/><path d="M62.15 8.086V5.038h1.905v.298h-1.594V6.39h1.34v.298h-1.34v1.099h1.594v.298zm2.159 0l.893-1.156-.874-1.13h.373l.684.891.677-.891h.373l-.874 1.13.895 1.156h-.375l-.696-.917-.701.917zm3.73 0q-.193.04-.381.032-.186-.009-.334-.08-.146-.072-.222-.224-.061-.127-.068-.256-.004-.131-.004-.298V5.165h.309v2.081q0 .144.002.241.004.095.044.169.076.142.241.169.167.028.413-.013zM66.54 6.067V5.8h1.499v.267z"/><use xlink:href="#C" x="32.286"/><use xlink:href="#D" x="32.286"/><use xlink:href="#E" x="32.285"/><use xlink:href="#F" x="32.285"/><path d="M77.314 8.086V4.975h.311v3.111zm-10.883 5.292l-1.05-3.048h.324l.929 2.695.936-2.695h.324l-1.05 3.048zm1.738-2.72v-.349h.311v.349zm0 2.72v-2.286h.311v2.286zm1.914.064q-.334 0-.58-.148-.243-.148-.379-.417-.135-.269-.135-.631 0-.375.133-.648.133-.273.375-.421.243-.148.574-.148.339 0 .578.157.239.155.362.444.123.29.112.692h-.317v-.11q-.008-.445-.193-.671-.182-.226-.533-.226-.368 0-.565.239-.195.239-.195.682 0 .432.195.671.197.237.557.237.246 0 .428-.112.184-.114.29-.328l.29.112q-.135.298-.4.464-.262.163-.595.163zm-.874-1.12v-.26h1.746v.26z"/><use xlink:href="#G" x="32.285"/><g fill="none" class="B C"><path d="M60.352 3.133h18.879v11.944H60.352zM32.756 26.894h41.719v6.876H32.756zm3.854 19.115h34.452v7.244H36.61z"/><ellipse cx="38.126" cy="64.582" rx="4.976" ry="1.421"/><use xlink:href="#O"/><path d="M33.15 64.582v8.613m9.953-8.613v8.613"/><ellipse cx="53.924" cy="64.582" rx="4.976" ry="1.421"/><use xlink:href="#O" x="15.797"/><path d="M48.947 64.582v8.613m9.953-8.613v8.613"/><ellipse cx="69.516" cy="64.582" rx="4.976" ry="1.421"/><use xlink:href="#O" x="31.389"/><path d="M64.539 64.582v8.613m9.953-8.613v8.613"/></g><path d="M51.811 9.54v-.362h.362v.362zm1.92 0v-.362h.362v.362zm1.92 0v-.362h.362v.362z"/><use xlink:href="#P"/><path d="M20.128 8.516v-2.54h.261l1.399 2.081V5.976h.261v2.54h-.261l-1.399-2.083v2.083zm2.415 0v-2.54h.771q.041 0 .138.002.099.002.189.014.289.041.483.215.194.175.291.445.097.27.097.594 0 .325-.097.594-.097.27-.291.445-.194.175-.483.215-.088.011-.189.014-.101.002-.138.002zm.268-.249h.503q.072 0 .155-.003.085-.005.145-.018.222-.039.358-.18.138-.141.201-.353.064-.213.064-.467 0-.256-.064-.469-.064-.213-.201-.353-.138-.139-.358-.178-.06-.012-.146-.016-.085-.005-.153-.005h-.503zm-5.688 4.712q-.291 0-.515-.12-.222-.12-.349-.339-.127-.219-.127-.512v-1.621l.261-.002v1.589q0 .198.067.342.067.143.175.236.109.092.238.136.129.044.25.044.123 0 .252-.044.129-.044.236-.136.108-.093.175-.236.067-.145.067-.342v-1.589h.261v1.623q0 .293-.127.512-.127.217-.351.339-.222.12-.513.12z"/><path d="M19.384 12.979q-.266 0-.48-.088-.212-.09-.351-.254-.138-.164-.18-.39l.265-.044q.064.247.268.388.205.139.489.139.187 0 .335-.058.148-.06.233-.169.085-.109.085-.259 0-.099-.035-.168-.035-.071-.093-.116-.058-.046-.127-.076-.069-.032-.134-.051l-.644-.192q-.116-.034-.215-.085-.099-.053-.173-.125-.072-.074-.113-.173-.041-.099-.041-.226 0-.215.113-.372.113-.157.309-.242.196-.085.446-.083.254 0 .453.09.201.09.332.258.131.166.173.393l-.272.049q-.026-.166-.122-.288-.095-.122-.243-.187-.146-.067-.323-.069-.171 0-.305.058-.132.056-.21.155-.078.099-.078.226 0 .129.071.206.072.078.176.122.106.044.205.072l.497.146q.078.021.182.062.106.039.205.113.101.072.166.191.065.118.065.3 0 .176-.071.316-.069.139-.196.235-.125.095-.295.145-.168.051-.367.051z"/><use xlink:href="#P" x="2.56" y="4.41"/><path d="M22.688 12.926v-2.54h.981q.037 0 .083.003.048.002.095.011.199.03.337.139.139.108.21.272.072.164.072.363 0 .288-.152.499-.152.212-.434.266l-.09.021h-.843v.965zm1.538 0l-.501-1.034.249-.095.55 1.129zm-1.279-1.212h.714q.032 0 .074-.003.042-.003.083-.012.131-.028.213-.108.085-.079.125-.189.042-.109.042-.228 0-.118-.042-.228-.041-.111-.125-.191-.083-.079-.213-.108-.041-.009-.083-.011-.042-.003-.074-.003h-.714zM4.17 32.191q-.379 0-.64-.168-.261-.169-.395-.467Q3 31.258 3 30.868q0-.39.134-.688.134-.298.395-.466.261-.169.64-.169.443 0 .723.228.28.226.385.607l-.265.069q-.081-.302-.291-.478-.21-.176-.552-.176-.298 0-.496.136-.198.136-.298.379-.099.242-.102.559-.002.318.097.559.101.242.3.379.201.136.499.136.342 0 .552-.176.21-.178.291-.478l.265.069q-.104.381-.385.609-.28.226-.723.226z"/><path d="M6.694 32.191q-.379 0-.64-.168-.261-.169-.395-.467-.134-.298-.134-.688 0-.39.134-.688.134-.298.395-.466.261-.169.64-.169.381 0 .64.169.261.168.395.466.136.298.136.688 0 .39-.136.688-.134.298-.395.467-.259.168-.64.168zm0-.249q.298 0 .497-.136.199-.136.298-.377.101-.243.101-.561 0-.318-.101-.559-.099-.242-.298-.377-.199-.136-.497-.138-.298 0-.496.136-.198.136-.298.379-.099.242-.101.559-.002.318.097.559.101.24.3.377.199.136.497.138z"/><use xlink:href="#Q"/><path d="M11.661 32.191q-.379 0-.64-.168-.261-.169-.395-.467-.134-.298-.134-.688 0-.39.134-.688.134-.298.395-.466.261-.169.64-.169.443 0 .723.228.28.226.385.607l-.265.069q-.081-.302-.291-.478-.21-.176-.552-.176-.298 0-.496.136-.198.136-.298.379-.099.242-.102.559-.002.318.097.559.101.242.3.379.201.136.499.136.342 0 .552-.176.21-.178.291-.478l.265.069q-.104.381-.385.609-.28.226-.723.226z"/><use xlink:href="#P" x="-4.96" y="23.622"/><path d="M15.168 32.138v-2.54h.981q.037 0 .083.004.048.002.095.011.199.03.337.139.139.108.21.272.072.164.072.363 0 .198-.072.362-.072.164-.212.273-.138.108-.335.138-.048.007-.095.011-.046.004-.083.004h-.721v.965zm.259-1.212h.714q.032 0 .074-.004.042-.004.083-.012.131-.028.213-.108.085-.079.125-.189.042-.109.042-.228 0-.118-.042-.228-.041-.111-.125-.191-.083-.079-.213-.108-.041-.009-.083-.011-.042-.004-.074-.004h-.714z"/><path d="M17.974 32.138v-2.291h-.887v-.249h2.034v.249h-.887v2.291zm2.42.053q-.291 0-.515-.12-.222-.12-.349-.339-.127-.219-.127-.512V29.6l.261-.002v1.589q0 .198.067.342.067.143.175.236.109.092.238.136.129.044.25.044.123 0 .252-.044.129-.044.236-.136.108-.093.175-.236.067-.145.067-.342v-1.589h.261v1.623q0 .293-.127.512-.127.217-.351.339-.222.12-.513.12zm1.203-.053l.875-2.54h.344l.875 2.54h-.27l-.831-2.395h.102l-.826 2.395zm.39-.616v-.243h1.312v.243zm2.057.616v-2.54h.259v2.291h1.207v.249zM9.214 51.101v-2.54h.259v2.54z"/><use xlink:href="#Q" x="1.784" y="18.963"/><path d="M13.093 51.101V48.81h-.887v-.249h2.034v.249h-.887v2.291z"/><use xlink:href="#P" x="-3.595" y="42.585"/><path d="M16.532 51.101v-2.54h.981q.037 0 .083.004.048.002.095.011.199.03.337.139.139.108.21.272.072.164.072.363 0 .288-.152.499-.152.212-.434.266l-.09.021h-.843v.965zm1.538 0l-.501-1.034.249-.095.55 1.129zm-1.279-1.212h.714q.032 0 .074-.004.042-.004.083-.012.131-.028.213-.108.085-.079.125-.189.042-.109.042-.228 0-.118-.042-.228-.041-.111-.125-.191-.083-.079-.213-.108-.041-.009-.083-.011-.042-.004-.074-.004h-.714z"/><use xlink:href="#Q" x="10.539" y="18.963"/><path d="M20.995 51.101l.875-2.54h.344l.875 2.54h-.27l-.831-2.395h.102l-.826 2.395zm.39-.616v-.243h1.312v.243zm2.056.616v-2.54h.259v2.291h1.207v.249z"/><use xlink:href="#R"/><path d="M87.052 8.502q-.171 0-.3-.053-.127-.053-.217-.143-.088-.09-.143-.205-.055-.116-.079-.245-.025-.131-.025-.259V6.55h.261v.972q0 .157.03.291.03.134.095.235.067.099.171.153.106.055.256.055.138 0 .242-.048.106-.048.176-.136.072-.09.109-.217.037-.129.037-.289l.183.041q0 .293-.102.492-.102.199-.282.302-.18.102-.413.102zm.64-.048v-.469h-.026V6.55h.259v1.905zm.762.001V5.862h.259v2.593zm1.826 0q-.161.034-.317.026-.155-.007-.279-.067-.122-.06-.185-.187-.051-.106-.056-.213-.004-.109-.004-.249V6.021h.258v1.734q0 .12.002.201.004.079.037.141.064.118.201.141.139.023.344-.011zm-1.249-1.683V6.55h1.249v.222zm1.66-.584v-.291h.259v.291zm0 2.267V6.55h.259v1.905zm1.644.053q-.263 0-.444-.132-.182-.134-.275-.362-.093-.229-.093-.513 0-.289.093-.515.095-.228.279-.358.183-.131.452-.131.261 0 .448.132.187.132.286.36.101.228.101.512 0 .286-.101.513-.101.228-.289.362-.189.132-.455.132zm-.857.794V6.55h.233v1.434h.028v1.318zm.831-1.035q.199 0 .332-.101.132-.101.198-.273.067-.175.067-.392 0-.215-.065-.388-.065-.173-.199-.273-.132-.101-.337-.101-.199 0-.332.097-.131.097-.196.27-.065.171-.065.395 0 .22.065.395.065.173.198.272.132.099.335.099zm1.294.188V5.862h.259v2.593zm1.595.053q-.279 0-.483-.123-.203-.123-.316-.347-.113-.224-.113-.526 0-.312.111-.54.111-.228.312-.351.203-.123.478-.123.282 0 .482.131.199.129.302.37.102.242.094.577H95.8v-.092q-.007-.37-.161-.559-.152-.189-.444-.189-.307 0-.471.199-.162.199-.162.568 0 .36.162.559.164.198.464.198.205 0 .356-.093.153-.095.242-.273l.242.093q-.113.249-.333.386-.219.136-.496.136zm-.728-.933v-.217h1.455v.217zm3.204.88l-.691-1.905h.263l.563 1.566.559-1.566h.266l-.691 1.905zm1.313-2.267v-.291h.259v.291zm0 2.267V6.55h.259v1.905z"/><use xlink:href="#S"/><use xlink:href="#T"/><use xlink:href="#U"/><use xlink:href="#V"/><path d="M109.236 8.455V6.409q0-.074.007-.146.009-.072.034-.138.025-.067.078-.123.058-.064.127-.092.069-.03.143-.039.076-.009.148-.009h.243v.219h-.226q-.148 0-.222.072-.072.072-.072.228v2.074zm-.33-1.683V6.55h1.109v.222zm-24.808 6.145q-.266 0-.455-.132-.189-.134-.289-.362-.101-.228-.101-.513 0-.284.099-.512.101-.228.288-.36.187-.132.448-.132.268 0 .452.131.183.131.277.358.095.226.095.515 0 .284-.093.513-.093.228-.275.362-.182.132-.444.132zm.026-.242q.203 0 .335-.099.132-.099.198-.272.065-.175.065-.395 0-.224-.065-.395-.065-.173-.198-.27-.131-.097-.33-.097-.205 0-.339.101-.134.101-.199.273-.064.173-.064.388 0 .217.065.392.067.173.199.273.132.101.332.101zm.598.189V11.43h-.028v-1.106h.261v2.54z"/><use xlink:href="#W"/><path d="M88.446 12.864q-.161.034-.317.026-.155-.007-.279-.067-.122-.06-.185-.187-.051-.106-.056-.213-.004-.109-.004-.249V10.43h.258v1.734q0 .12.002.201.004.079.037.141.064.118.201.141.139.023.344-.011zm-1.249-1.683v-.222h1.249v.222z"/><use xlink:href="#W" x="3.372"/><use xlink:href="#X"/><use xlink:href="#W" x="7.42"/><use xlink:href="#Y"/><use xlink:href="#S" x="-3.094" y="4.409"/><path d="M100.091 10.324l-.677 2.54h.266l.677-2.54z"/><use xlink:href="#Z"/><use xlink:href="#Y" x="8.788"/><use xlink:href="#S" x="5.694" y="4.409"/><use xlink:href="#a"/><use xlink:href="#b"/><use xlink:href="#a" x="4.065"/><use xlink:href="#V" x="5.871" y="4.409"/><use xlink:href="#Z" x="13.398"/><path d="M117.871 12.917q-.263 0-.445-.132-.182-.134-.275-.362-.094-.229-.094-.513 0-.289.094-.515.095-.228.279-.358.183-.131.452-.131.261 0 .448.132.187.132.286.36.101.228.101.512 0 .286-.101.513-.101.228-.289.362-.189.132-.455.132zm-.857.794v-2.752h.233v1.434h.028v1.318zm.831-1.035q.199 0 .332-.101.132-.101.198-.273.067-.175.067-.392 0-.215-.065-.388-.065-.173-.199-.273-.132-.101-.337-.101-.199 0-.332.097-.131.097-.196.27-.065.171-.065.395 0 .22.065.395.065.173.198.272.132.099.335.099zM83.244 29.107v-2.54h.259v1.145h1.404v-1.145h.258v2.54h-.258V27.96h-1.404v1.147z"/><use xlink:href="#c"/><path d="M87.221 29.16q-.266 0-.455-.132-.189-.134-.289-.362-.101-.228-.101-.513 0-.284.099-.512.101-.228.288-.36.187-.132.448-.132.268 0 .452.131.183.131.277.358.095.226.095.515 0 .284-.093.513-.093.228-.275.362-.182.132-.444.132zm.026-.242q.203 0 .335-.099.132-.099.198-.272.065-.175.065-.395 0-.224-.065-.395-.065-.173-.198-.27-.131-.097-.33-.097-.205 0-.339.101-.134.101-.199.273-.064.173-.064.388 0 .217.065.392.067.173.199.273.132.101.332.101zm.598.189v-1.434h-.028v-1.106h.261v2.54z"/><use xlink:href="#d"/><use xlink:href="#Y" x="-4.195" y="16.242"/><use xlink:href="#e"/><use xlink:href="#f"/><path d="M97.648 29.953l.369-1 .005.296-.834-2.048h.275l.684 1.713h-.113l.631-1.713h.265l-1.023 2.752z"/><use xlink:href="#Y" x="4.408" y="16.242"/><use xlink:href="#c" x="15.43"/><use xlink:href="#g"/><use xlink:href="#h"/><path d="M105.848 29.107v-2.593h.259v2.593zm2.233.053q-.266 0-.455-.132-.189-.134-.289-.362-.101-.228-.101-.513 0-.284.099-.512.101-.228.288-.36.187-.132.448-.132.268 0 .452.131.183.131.277.358.095.226.095.515 0 .284-.094.513-.094.228-.275.362-.182.132-.445.132zm.026-.242q.203 0 .335-.099.132-.099.198-.272.065-.175.065-.395 0-.224-.065-.395-.065-.173-.198-.27-.131-.097-.33-.097-.205 0-.339.101-.134.101-.199.273-.064.173-.064.388 0 .217.065.392.067.173.199.273.132.101.332.101zm.598.189v-1.434h-.028v-1.106h.261v2.54z"/><use xlink:href="#S" x="9.657" y="20.652"/><path d="M112.531 29.107q-.161.034-.317.026-.155-.007-.279-.067-.122-.06-.185-.187-.051-.106-.056-.213-.004-.109-.004-.249v-1.744h.258v1.734q0 .12.002.201.004.079.037.141.064.118.201.141.139.023.344-.011zm-1.249-1.683v-.222h1.249v.222z"/><use xlink:href="#h" x="9.054"/><use xlink:href="#c" x="29.208"/><path d="M115.726 29.107v-2.593h.259v2.593z"/><use xlink:href="#Y" x="21.685" y="16.242"/><path d="M84.126 33.569q-.266 0-.48-.088-.212-.09-.351-.254-.138-.164-.18-.39l.265-.044q.064.247.268.388.205.139.489.139.187 0 .335-.058.148-.06.233-.169.085-.109.085-.259 0-.099-.035-.168-.035-.071-.093-.116-.058-.046-.127-.076-.069-.032-.134-.051l-.644-.192q-.116-.034-.215-.085-.099-.053-.173-.125-.072-.074-.113-.173-.041-.099-.041-.226 0-.215.113-.372.113-.157.309-.242.196-.085.446-.083.254 0 .453.09.201.09.332.258.131.166.173.393l-.272.049q-.026-.166-.122-.288-.095-.122-.243-.187-.146-.067-.323-.069-.171 0-.305.058-.132.056-.21.155-.078.099-.078.226 0 .129.071.206.072.078.176.122.106.044.205.072l.497.146q.078.021.182.062.106.039.205.113.101.072.166.19.065.118.065.3 0 .176-.071.316-.069.139-.196.235-.125.095-.295.145-.168.051-.367.051z"/><use xlink:href="#f" x="-9.861" y="4.409"/><use xlink:href="#V" x="-19.447" y="25.061"/><use xlink:href="#T" x="-12.236" y="25.061"/><use xlink:href="#U" x="-12.236" y="25.062"/><path d="M94.76 33.516v-2.593h.259v2.593z"/><use xlink:href="#V" x="-11.413" y="25.061"/><use xlink:href="#b" x="-11.873" y="20.652"/><use xlink:href="#c" x="14.065" y="4.41"/><use xlink:href="#g" x="-1.365" y="4.409"/><use xlink:href="#h" x="-1.365" y="4.409"/><path d="M104.483 33.516v-2.593h.259v2.593zm1.494 0v-2.54h.771q.041 0 .138.002.099.002.189.014.289.041.483.215.194.175.291.444.097.27.097.594 0 .325-.097.594-.097.27-.291.445-.194.175-.483.215-.088.011-.189.014-.101.002-.138.002zm.268-.249h.503q.072 0 .155-.004.085-.005.145-.018.222-.039.358-.18.138-.141.201-.353.064-.213.064-.467 0-.256-.064-.469-.064-.213-.201-.353-.138-.139-.358-.178-.06-.012-.146-.016-.085-.005-.153-.005h-.503zm2.101.249v-2.54h.981q.213 0 .372.088.159.088.247.238.088.148.088.328 0 .205-.109.365-.109.159-.293.22l-.004-.086q.247.071.388.247.141.176.141.427 0 .22-.094.381-.094.159-.263.245-.169.086-.393.086zm.261-.249h.737q.155 0 .279-.055.123-.056.194-.159.072-.102.072-.247 0-.141-.065-.254-.065-.113-.178-.18-.111-.069-.254-.069h-.785zm0-1.208h.718q.122 0 .222-.055.101-.056.159-.153.06-.097.06-.224 0-.18-.125-.293-.123-.113-.316-.113h-.718z"/><use xlink:href="#i"/><use xlink:href="#d" x="-3.386" y="18.988"/><use xlink:href="#Y" x="-7.58" y="35.23"/><use xlink:href="#g" x="-12.812" y="18.988"/><path d="M91.053 48.095V46.19h.233v.459l-.046-.06q.032-.085.083-.155.051-.072.111-.118.074-.065.173-.099.099-.035.199-.041.101-.007.183.014v.243q-.104-.026-.228-.012-.123.014-.228.099-.095.074-.143.178-.048.102-.064.219-.016.115-.016.228v.951zm1.307-2.267v-.291h.259v.291zm0 2.267V46.19h.259v1.905z"/><use xlink:href="#X" x="2.368" y="35.231"/><use xlink:href="#S" x="-4.538" y="39.64"/><use xlink:href="#Y" x="2.47" y="35.23"/><path d="M100.712 48.148q-.263 0-.444-.132-.182-.134-.275-.362-.094-.229-.094-.513 0-.289.094-.515.095-.228.279-.358.183-.131.452-.131.261 0 .448.132.187.132.286.36.101.228.101.512 0 .286-.101.513-.101.228-.289.362-.189.132-.455.132zm-.857.794V46.19h.233v1.434h.028v1.318zm.831-1.035q.199 0 .332-.101.132-.101.198-.273.067-.175.067-.392 0-.215-.065-.388-.065-.173-.199-.273-.132-.101-.337-.101-.199 0-.332.097-.131.097-.196.27-.065.171-.065.395 0 .22.065.395.065.173.198.272.132.099.335.099z"/><use xlink:href="#f" x="6.665" y="18.988"/><path d="M104.313 48.942l.369-1 .005.296-.834-2.048h.275l.684 1.713h-.113l.631-1.713h.265l-1.023 2.752z"/><use xlink:href="#Y" x="11.073" y="35.23"/><path d="M107.789 45.828v-.291h.259v.291zm0 2.267V46.19h.259v1.905z"/><use xlink:href="#g" x="6.665" y="18.988"/><use xlink:href="#h" x="6.665" y="18.988"/><path d="M112.513 48.095v-2.593h.259v2.593z"/><use xlink:href="#i" y="4.41"/><path d="M85.187 52.505v-2.54h.981q.213 0 .372.088.159.088.247.238.088.148.088.328 0 .205-.109.365-.109.159-.293.22l-.004-.086q.247.071.388.247.141.176.141.427 0 .22-.093.381-.093.159-.263.245-.169.086-.393.086zm.261-.249h.737q.155 0 .279-.055.123-.056.194-.159.072-.102.072-.247 0-.141-.065-.254-.065-.113-.178-.18-.111-.069-.254-.069h-.785zm0-1.208h.718q.122 0 .222-.055.101-.056.159-.153.06-.097.06-.224 0-.18-.125-.293-.123-.113-.316-.113h-.718z"/><use xlink:href="#Y" x="-6.774" y="39.64"/><use xlink:href="#j"/><use xlink:href="#V" x="-15.712" y="44.05"/><use xlink:href="#k"/><use xlink:href="#W" x="9.088" y="39.641"/><path d="M97.253 53.404q-.146 0-.289-.044-.141-.042-.261-.136-.12-.092-.201-.24l.235-.131q.079.159.222.228.145.071.295.071.206 0 .333-.078.129-.076.187-.226.058-.15.056-.374v-.508h.03V50.6h.231v1.879q0 .081-.005.155-.004.076-.016.148-.034.213-.139.351-.104.138-.275.205-.169.067-.402.067zm-.018-.847q-.266 0-.455-.132-.189-.134-.289-.362-.101-.228-.101-.513 0-.284.099-.512.101-.228.288-.36.187-.132.448-.132.268 0 .452.131.183.131.277.358.095.226.095.515 0 .284-.094.513-.094.228-.275.362-.182.132-.445.132zm.026-.242q.203 0 .335-.099.132-.099.198-.272.065-.175.065-.395 0-.224-.065-.395-.065-.173-.198-.27-.131-.097-.33-.097-.205 0-.339.101-.134.101-.199.273-.064.173-.064.388 0 .217.065.392.067.173.199.273.132.101.332.101z"/><use xlink:href="#S" x="-1.19" y="44.05"/><use xlink:href="#Y" x="6.524" y="39.64"/><use xlink:href="#j" x="13.298"/><use xlink:href="#k" x="11.282"/><use xlink:href="#l"/><use xlink:href="#g" x="6.072" y="23.398"/><use xlink:href="#j" x="20.031"/><use xlink:href="#l" x="5.461"/><use xlink:href="#k" x="20.11"/><use xlink:href="#S" x="14.908" y="44.05"/><path d="M41.166 79.77q-.266 0-.48-.088-.212-.09-.351-.254-.138-.164-.18-.39l.265-.044q.063.247.268.388.205.139.489.139.187 0 .335-.058.148-.06.233-.169.085-.109.085-.259 0-.099-.035-.168-.035-.071-.093-.116-.058-.046-.127-.076-.069-.032-.134-.051l-.644-.192q-.116-.034-.215-.085-.099-.053-.173-.125-.072-.074-.113-.173-.041-.099-.041-.226 0-.215.113-.372.113-.157.309-.242.196-.085.446-.083.254 0 .453.09.201.09.332.258.131.166.173.393l-.272.049q-.026-.166-.122-.288-.095-.122-.243-.187-.146-.067-.323-.069-.171 0-.305.058-.132.056-.21.155-.078.099-.078.226 0 .129.071.206.072.078.176.122.106.044.205.072l.497.146q.078.021.182.062.106.039.205.113.101.072.166.191.065.118.065.3 0 .176-.071.316-.069.139-.196.235-.125.095-.295.145-.168.051-.367.051z"/><path d="M43.497 79.717q-.161.034-.318.026-.155-.007-.279-.067-.122-.06-.185-.187-.051-.106-.056-.213-.004-.109-.004-.249v-1.744h.258v1.734q0 .12.002.201.004.079.037.141.063.118.201.141.139.023.344-.011zm-1.249-1.683v-.222h1.249v.222z"/><use xlink:href="#V" x="-63.16" y="71.262"/><path d="M45.888 79.717v-1.905h.233v.459l-.046-.06q.032-.085.083-.155.051-.072.111-.118.074-.065.173-.099.099-.035.199-.041.101-.007.183.014v.243q-.104-.026-.228-.012-.123.014-.228.099-.095.074-.143.178-.048.102-.063.219-.016.115-.016.228v.951z"/><use xlink:href="#d" x="-41.448" y="50.61"/><path d="M49.926 79.77q-.266 0-.455-.132-.189-.134-.289-.362-.101-.228-.101-.513 0-.284.099-.512.101-.228.288-.36.187-.132.448-.132.268 0 .452.131.183.131.277.358.095.226.095.515 0 .284-.093.513-.093.228-.275.362-.182.132-.444.132zm.026-.242q.203 0 .335-.099.132-.099.198-.272.065-.175.065-.395 0-.224-.065-.395-.065-.173-.198-.27-.131-.097-.33-.097-.205 0-.339.101-.134.101-.199.273-.063.173-.063.388 0 .217.065.392.067.173.199.273.132.101.332.101zm.598.189v-1.434h-.028v-1.106h.261v2.54zm1.433 0v-2.54h.771q.041 0 .138.002.099.002.189.014.289.041.483.215.194.175.291.444.097.27.097.594 0 .325-.097.594-.097.27-.291.444-.194.175-.483.215-.088.011-.189.014-.101.002-.138.002zm.268-.249h.503q.072 0 .155-.004.085-.005.145-.018.222-.039.358-.18.138-.141.201-.353.063-.213.063-.467 0-.256-.063-.469-.063-.213-.201-.353-.138-.139-.358-.178-.06-.012-.146-.016-.085-.005-.153-.005h-.503z"/><use xlink:href="#m"/><path d="M57.348 79.717q-.161.034-.317.026-.155-.007-.279-.067-.122-.06-.185-.187-.051-.106-.056-.213-.004-.109-.004-.249v-1.744h.258v1.734q0 .12.002.201.004.079.037.141.063.118.201.141.139.023.344-.011zm-1.249-1.683v-.222h1.249v.222z"/><use xlink:href="#m" x="3.372"/><use xlink:href="#X" x="-31.097" y="66.853"/><use xlink:href="#W" x="-23.677" y="66.853"/><use xlink:href="#Y" x="-31.097" y="66.852"/><use xlink:href="#d" x="-22.989" y="50.61"/><g fill="#d40000"><use xlink:href="#n"/><path d="M7.31 36.403l.002-1.251q0-.22-.123-.346-.122-.127-.31-.127-.108 0-.21.049-.102.049-.169.159-.065.109-.065.286l-.153-.044q-.005-.205.079-.358.086-.153.236-.238.152-.086.342-.086.288 0 .46.178.173.176.173.478l-.002 1.3zm-2.274 0v-1.905h.233v.469h.028v1.436zm1.139 0l.002-1.233q0-.228-.122-.358-.12-.132-.317-.132-.198 0-.319.136-.122.134-.122.358l-.155-.085q0-.183.086-.328.086-.146.236-.229.15-.085.34-.085.182 0 .323.078.143.078.224.226.081.148.081.36l-.002 1.293z"/><path d="M8.575 36.456q-.215 0-.362-.078-.145-.078-.217-.206-.072-.129-.072-.28 0-.155.062-.265.063-.111.171-.182.109-.071.252-.108.145-.035.319-.062.176-.028.344-.048.169-.021.296-.041l-.092.056q.005-.282-.109-.418-.115-.136-.399-.136-.196 0-.332.088-.134.088-.189.279l-.252-.074q.065-.256.263-.397.198-.141.513-.141.261 0 .443.099.183.097.259.282.035.083.046.185.011.102.011.208v1.184H9.3v-.478l.067.028q-.097.245-.302.374-.205.129-.49.129zm.03-.224q.182 0 .317-.065.136-.065.219-.178.083-.115.108-.258.021-.092.023-.201.002-.111.002-.166l.099.051q-.132.018-.288.035-.153.018-.303.041-.148.023-.268.055-.081.023-.157.065-.076.041-.125.109-.048.069-.048.171 0 .083.041.161.042.078.134.129.093.051.247.051z"/><use xlink:href="#c" x="-75.67" y="7.297"/><use xlink:href="#o"/><path d="M13.803 36.403v-2.046q0-.074.007-.146.009-.072.034-.138.025-.067.078-.123.058-.064.127-.092.069-.03.143-.039.076-.009.148-.009h.243v.219h-.226q-.148 0-.222.072-.072.072-.072.228v2.074zm-.33-1.683v-.222h1.109v.222z"/><use xlink:href="#V" x="-92.167" y="27.948"/><path d="M17.671 36.456q-.288 0-.487-.129-.199-.129-.303-.355-.102-.228-.106-.522.003-.3.109-.526.106-.228.305-.353.199-.127.483-.127.289 0 .503.141.215.141.295.386l-.254.081q-.067-.171-.213-.265-.145-.095-.332-.095-.21 0-.347.097-.138.095-.205.266-.067.171-.069.393.003.342.159.55.155.206.462.206.194 0 .33-.088.138-.09.208-.261l.261.078q-.106.254-.31.388-.205.132-.489.132z"/><use xlink:href="#Z" x="-82.688" y="23.539"/><use xlink:href="#U" x="-83.474" y="27.948"/><path d="M22.784 37.036q.208-.238.356-.533.15-.293.229-.616.081-.323.079-.649.002-.326-.079-.649-.079-.325-.229-.617-.148-.293-.356-.531l-.191.148q.205.245.342.515.138.268.205.554.069.286.071.58-.002.291-.072.58-.069.288-.206.559-.136.27-.339.506z"/></g><g fill="none" class="B C"><path d="M37.507 15.077l3.165 11.812" class="D E"/><path d="M69.792 15.077l-3.107 11.596" class="D E"/><path d="M53.616 33.769v11.924" class="D E"/><path d="M53.836 53.252l.087 9.909m-.043-4.954h15.636v4.955"/><path d="M53.88 58.207H38.126v4.955"/></g><g fill="#4d4d4d"><use xlink:href="#n" x="51.773" y="4.779"/><use xlink:href="#R" x="-26.548" y="32.726"/><use xlink:href="#m" x="5.424" y="-38.536"/><use xlink:href="#e" x="-31.457" y="12.074"/><use xlink:href="#e" x="-29.368" y="12.074"/><use xlink:href="#c" x="-19.746" y="12.075"/><use xlink:href="#o" x="55.923" y="4.778"/><path d="M69.589 42.081q-.146 0-.289-.044-.141-.042-.261-.136-.12-.092-.201-.24l.235-.131q.079.159.222.228.145.071.295.071.206 0 .333-.078.129-.076.187-.226.058-.15.056-.374v-.508h.03v-1.367h.231v1.879q0 .081-.005.155-.004.076-.016.148-.034.213-.139.351-.104.138-.275.205-.169.067-.402.067zm-.018-.847q-.266 0-.455-.132-.189-.134-.289-.362-.101-.228-.101-.513 0-.284.099-.512.101-.228.288-.36.187-.132.448-.132.268 0 .452.131.183.131.277.358.095.226.095.515 0 .284-.093.513-.093.228-.275.362-.182.132-.444.132zm.026-.242q.203 0 .335-.099.132-.099.198-.272.065-.175.065-.395 0-.224-.065-.395-.065-.173-.198-.27-.131-.097-.33-.097-.205 0-.339.101-.134.101-.199.273-.064.173-.064.388 0 .217.065.392.067.173.199.273.132.101.332.101z"/><use xlink:href="#p"/><use xlink:href="#n" x="42.004" y="-13.871"/><use xlink:href="#R" x="-36.317" y="14.077"/><use xlink:href="#m" x="-4.345" y="-57.186"/><use xlink:href="#e" x="-41.226" y="-6.576"/><use xlink:href="#e" x="-39.137" y="-6.576"/><use xlink:href="#c" x="-29.515" y="-6.575"/><use xlink:href="#o" x="46.154" y="-13.871"/><path d="M59.82 23.431q-.146 0-.289-.044-.141-.042-.261-.136-.12-.092-.201-.24l.235-.131q.079.159.222.228.145.071.295.071.206 0 .333-.078.129-.076.187-.226.058-.15.056-.374v-.508h.03v-1.367h.231v1.879q0 .081-.005.155-.004.076-.016.148-.034.213-.139.351-.104.138-.275.205-.169.067-.402.067zm-.018-.847q-.266 0-.455-.132-.189-.134-.289-.362-.101-.228-.101-.513 0-.284.099-.512.101-.228.288-.36.187-.132.448-.132.268 0 .452.131.183.131.277.358.095.226.095.515 0 .284-.093.513-.093.228-.275.362-.182.132-.444.132zm.026-.242q.203 0 .335-.099.132-.099.198-.272.065-.175.065-.395 0-.224-.065-.395-.065-.173-.198-.27-.131-.097-.33-.097-.205 0-.339.101-.134.101-.199.273-.063.173-.063.388 0 .217.065.392.067.173.199.273.132.101.332.101z"/><use xlink:href="#p" x="-9.769" y="-18.65"/></g></svg>