<?xml version="1.0" encoding="UTF-8" standalone="no"?>
<svg
   xmlns:dc="http://purl.org/dc/elements/1.1/"
   xmlns:cc="http://creativecommons.org/ns#"
   xmlns:rdf="http://www.w3.org/1999/02/22-rdf-syntax-ns#"
   xmlns:svg="http://www.w3.org/2000/svg"
   xmlns="http://www.w3.org/2000/svg"
   xmlns:xlink="http://www.w3.org/1999/xlink"
   xmlns:sodipodi="http://sodipodi.sourceforge.net/DTD/sodipodi-0.dtd"
   xmlns:inkscape="http://www.inkscape.org/namespaces/inkscape"
   data-v-423bf9ae=""
   viewBox="0 0 100 130"
   version="1.1"
   id="svg857"
   sodipodi:docname="yasp.svg"
   width="100"
   height="130"
   inkscape:version="1.0.1 (3bc2e813f5, 2020-09-07)">
  <metadata
     id="metadata863">
    <rdf:RDF>
      <cc:Work
         rdf:about="">
        <dc:format>image/svg+xml</dc:format>
        <dc:type
           rdf:resource="http://purl.org/dc/dcmitype/StillImage" />
        <dc:title></dc:title>
      </cc:Work>
    </rdf:RDF>
  </metadata>
  <defs
     id="defs861">
    <linearGradient
       inkscape:collect="always"
       id="linearGradient871">
      <stop
         style="stop-color:#f01d6f;stop-opacity:1"
         offset="0"
         id="stop867" />
      <stop
         style="stop-color:#f29345;stop-opacity:1"
         offset="1"
         id="stop869" />
    </linearGradient>
    <linearGradient
       inkscape:collect="always"
       xlink:href="#linearGradient871"
       id="linearGradient873"
       x1="0"
       y1="50"
       x2="344.66367"
       y2="50"
       gradientUnits="userSpaceOnUse"
       gradientTransform="scale(0.29013792,1.3)" />
  </defs>
  <sodipodi:namedview
     pagecolor="#e2a6a6"
     bordercolor="#666666"
     borderopacity="1"
     objecttolerance="10"
     gridtolerance="10"
     guidetolerance="10"
     inkscape:pageopacity="0"
     inkscape:pageshadow="2"
     inkscape:window-width="1920"
     inkscape:window-height="1137"
     id="namedview859"
     showgrid="false"
     lock-margins="true"
     fit-margin-top="5"
     fit-margin-left="5"
     fit-margin-right="5"
     fit-margin-bottom="35"
     inkscape:snap-page="false"
     inkscape:zoom="5.7159559"
     inkscape:cx="54.585193"
     inkscape:cy="76.813038"
     inkscape:window-x="-8"
     inkscape:window-y="-8"
     inkscape:window-maximized="1"
     inkscape:current-layer="svg857"
     inkscape:document-rotation="0" />
  <rect
     style="fill:url(#linearGradient873);fill-opacity:1;stroke:none;stroke-width:0.615113;stop-color:#000000"
     id="rect865"
     width="100"
     height="130"
     x="0"
     y="0"
     rx="5"
     ry="5" />
  <!---->
  <!---->
  <!---->
  <g
     data-v-423bf9ae=""
     id="2fb60e70-0840-44a8-842a-9d895461c290"
     fill="#ffffff"
     transform="matrix(2.8398687,0,0,2.8398687,3.0297139,85.629673)">
    <path
       d="m 6.01,6.05 -1,-0.28 V 5.12 H 8.09 V 5.74 L 7.1,6.09 5.11,10.14 v 2.61 l 1.2,0.34 v 0.63 H 2.06 V 13.09 L 3.23,12.75 V 10.14 L 1.12,6.09 0.13,5.75 V 5.12 H 4.09 V 5.78 L 3.14,6.08 4.61,8.9 Z m 4.42,5.53 -0.39,1.19 0.95,0.32 v 0.63 H 7.91 V 13.1 l 0.99,-0.35 2.65,-7.63 1.09,-0.18 2.87,7.81 1,0.34 v 0.63 h -3.9 v -0.63 l 0.91,-0.28 -0.4,-1.23 z M 12.84,10.82 11.72,7.8 10.7,10.82 Z m 4.1,-3.33 v 0 q 0,-1.22 0.78,-1.89 v 0 0 q 0.79,-0.67 2.2,-0.67 v 0 0 q 1.28,0 2.45,0.38 v 0 L 22.22,7.34 H 21.48 L 21.17,6.06 v 0 Q 21,6.01 20.66,5.96 v 0 0 Q 20.31,5.91 20.09,5.91 v 0 0 q -0.7,0 -1.13,0.26 v 0 0 q -0.42,0.26 -0.42,0.86 v 0 0 q 0,0.49 0.31,0.8 v 0 0 q 0.32,0.32 0.92,0.57 v 0 l 1.27,0.53 v 0 q 0.86,0.37 1.24,0.93 v 0 0 q 0.39,0.56 0.39,1.35 v 0 0 q 0,1.24 -0.84,1.94 v 0 0 q -0.84,0.7 -2.45,0.7 v 0 0 q -0.63,0 -1.34,-0.12 v 0 0 q -0.71,-0.11 -1.25,-0.32 v 0 l 0.21,-2 h 0.78 L 18,12.63 v 0 q 0.73,0.21 1.35,0.21 v 0 0 q 0.74,0 1.17,-0.28 v 0 0 q 0.42,-0.28 0.42,-0.8 v 0 0 q 0,-0.48 -0.27,-0.76 v 0 0 Q 20.4,10.72 19.74,10.43 v 0 L 18.45,9.87 v 0 Q 17.84,9.6 17.39,9.02 v 0 0 Q 16.94,8.43 16.94,7.49 Z M 27.62,5.12 v 0 q 0.8,0 1.5,0.29 v 0 0 q 0.7,0.29 1.13,0.85 v 0 0 q 0.42,0.56 0.42,1.34 v 0 0 q 0,0.93 -0.47,1.54 v 0 0 q -0.46,0.6 -1.2,0.89 v 0 0 q -0.73,0.29 -1.55,0.29 v 0 0 q -0.11,0 -0.39,-0.02 v 0 0 Q 26.78,10.29 26.7,10.26 v 0 2.49 l 1.48,0.33 v 0.64 h -4.55 v -0.63 l 1.18,-0.34 V 6.08 L 23.62,5.75 V 5.12 Z M 26.7,9.58 v 0 q 0.14,0.04 0.42,0.04 v 0 0 q 0.78,0 1.21,-0.54 v 0 0 Q 28.76,8.54 28.76,7.7 v 0 0 q 0,-0.77 -0.35,-1.23 v 0 0 Q 28.06,6.01 27.47,6.01 v 0 0 q -0.48,0 -0.77,0.07 v 0 z m 6.83,3.13 v 0 q 0,0.48 -0.34,0.8 v 0 0 q -0.35,0.32 -0.84,0.32 v 0 0 q -0.47,0 -0.82,-0.32 v 0 0 q -0.35,-0.32 -0.35,-0.8 v 0 0 q 0,-0.49 0.35,-0.83 v 0 0 q 0.35,-0.34 0.82,-0.34 v 0 0 q 0.49,0 0.84,0.34 v 0 0 q 0.34,0.34 0.34,0.83 z"
       id="path849" />
  </g>
  <!---->
  <g
     data-v-423bf9ae=""
     id="14f6e25d-9445-4ac7-a391-b8cebbf626d7"
     transform="matrix(2.8125,0,0,2.8125,5,5)"
     stroke="none"
     fill="#ffffff">
    <path
       d="M 16,1 C 24.271,1 31,7.729 31,16 31,24.271 24.271,31 16,31 7.729,31 1,24.271 1,16 1,7.729 7.729,1 16,1 M 16,0 C 7.163,0 0,7.163 0,16 0,24.837 7.163,32 16,32 24.837,32 32,24.837 32,16 32,7.163 24.837,0 16,0 Z"
       id="path852" />
    <path
       d="M 16,7.045 24.955,16 16,24.955 7.045,16 16,7.045 M 16,5.631 5.631,16 16,26.369 26.369,16 Z"
       id="path854" />
  </g>
  <!---->
</svg>
